<?xml version="1.0" encoding="UTF-8"?>
<svg id="Layer_2" data-name="Layer 2" xmlns="http://www.w3.org/2000/svg" viewBox="0 0 54 54">
  <defs>
    <style>
      .cls-1 {
        stroke-width: 0px;
        fill: #fff;
      }
    </style>
  </defs>
  <g id="Layer_1-2" data-name="Layer 1">
    <g>
      <path class="cls-1" d="m53.04,23.63c.32-1.18.64-2.33.96-3.47v-.68c-.35-.22-.68-.52-1.07-.63-2.81-.79-5.63-1.54-8.44-2.33-.28-.08-.57-.28-.75-.5-1.05-1.32-2.39-2.13-4.09-2.44v-1.85h3.51v-1.79h-3.56v-.63c0-2.06,0-4.13,0-6.19,0-1.06-.25-1.31-1.34-1.31-3.02,0-6.04,0-9.05,0-.96,0-1.15.15-1.39,1.1-.5,2.02-1,4.04-1.51,6.08h-4.68v-.87c.27,0,.54,0,.81,0,.6-.03.95-.36.95-.95.02-1.16.02-2.33,0-3.49,0-.6-.35-.93-.95-.96-.26-.01-.52,0-.81,0v-.89h1.77V0h-3.04c-.46.32-.61.75-.57,1.31.04.44,0,.89,0,1.4-.32,0-.6-.01-.87,0-.57.03-.91.36-.92.93-.02,1.18-.02,2.36,0,3.55,0,.57.36.89.92.92.26.01.52,0,.83,0,.02.16.04.3.04.44,0,.13,0,.26,0,.46-.38,0-.73,0-1.08,0-1.88.05-3.38,1.54-3.41,3.42-.02,1.39-.01,2.78,0,4.17,0,.29-.04.48-.35.6-.42.16-.56.51-.56.95,0,.79,0,1.58,0,2.36,0,.78.32,1.09,1.09,1.1.26,0,.52,0,.64,0,.13.94.25,1.81.37,2.68h-6.56v-2.69c.51-.32,1.04-.57,1.47-.94.79-.68,1.18-1.59,1.19-2.64.01-1.18.02-2.36,0-3.55-.02-1.55-.71-2.71-2.13-3.35-1.4-.63-2.7-.37-3.87.61-.08.07-.17.15-.27.24-.14-.11-.26-.22-.39-.32-1.18-.93-2.48-1.14-3.84-.51C.75,11.79.06,12.9.02,14.38c-.03,1.03.03,2.07-.01,3.1-.07,1.99.76,3.35,2.67,4.05v2.78H.94v1.79h2.69c-.13.22-.21.36-.3.49-.96,1.34-1.93,2.68-2.86,4.04-.17.24-.28.58-.28.87-.05,6.34-.07,12.68-.12,19.03,0,.39.11.58.48.69.39.11.77.28,1.19.43.1-.23.19-.43.27-.64,3.08-8.13,6.16-16.25,9.23-24.38.14-.37.3-.52.71-.51,1.61.03,3.22.01,4.9.01-2.32,9.03-4.62,18-6.93,27h11.69c1.16-8.99,2.32-17.98,3.49-26.98h3.82c1.16,8.98,2.32,17.97,3.49,26.98h11.69c-2.31-8.99-4.61-17.95-6.93-27h1.88c1.01,0,2.02.02,3.04,0,.38-.01.55.1.68.47,2.8,7.43,5.62,14.86,8.43,22.28.34.91.69,1.82,1.06,2.79.52-.19,1.02-.34,1.47-.57.13-.07.19-.38.19-.57,0-3.25-.02-6.49-.04-9.74-.02-3.08-.02-6.15-.06-9.23,0-.33-.13-.7-.32-.97-1.01-1.46-2.05-2.9-3.13-4.42h2.68v-1.81h-9.93c1.53-1.7,2.14-3.57,1.75-5.83,1.21.33,2.35.64,3.55.96-.23.95-.45,1.85-.68,2.82.57.15,1.13.29,1.72.44.24-.93.47-1.83.71-2.77.62.17,1.19.32,1.82.49-.22.91-.43,1.79-.66,2.75.58.15,1.13.29,1.7.43ZM2.72,18.06v1.48c-.59-.34-.87-.8-.89-1.37-.03-1.31-.05-2.62,0-3.93.03-.92.85-1.62,1.77-1.62.93,0,1.77.72,1.8,1.66.04,1.29.03,2.58,0,3.87,0,.58-.29.98-.85,1.35v-1.44h-1.83Zm5.39,6.23h-3.57v-2.68c.62-.38,1.2-.74,1.74-1.07.54.3,1.09.59,1.63.91.09.05.18.19.19.29.01.84,0,1.68,0,2.55Zm0-6.23v1.48c-.63-.38-.89-.88-.9-1.48-.02-1.24-.03-2.47,0-3.71.02-.98.82-1.73,1.78-1.74.98,0,1.79.76,1.81,1.77.02,1.22.01,2.43,0,3.65,0,.65-.26,1.07-.88,1.49v-1.45h-1.8Zm8.99-3.32c0-.09.01-.18.02-.29h1.7s.06.05.06.07q.1,1.07-.86,1.45c-.29.12-.58.22-.92.35,0-.57,0-1.07,0-1.57Zm2.7,9.58c-.98,0-1.79-.8-1.8-1.78-.01-1,.82-1.83,1.82-1.82.98.01,1.78.82,1.77,1.81,0,.97-.82,1.79-1.79,1.79ZM29.5,3.62h8.26v5.36h-7.51c.42-.43.84-.86,1.33-1.35.31.35.65.74,1,1.15.49-.5.89-.9,1.26-1.28-1.18-1.18-2.36-2.35-3.61-3.61-.27.33-.57.7-.88,1.06-.05-.03-.1-.07-.15-.1.1-.41.19-.81.29-1.23Zm-.41,1.62c.36.42.67.77.99,1.13-.5.49-1.04,1.02-1.67,1.64.24-.96.45-1.83.68-2.77Zm-2.96,8.3h1.72v2.65h-1.72v-2.65Zm-3.59,0h1.71v2.65h-1.71v-2.65Zm.56,10.75c.12-.85.24-1.72.37-2.66.02,0,.2-.02.38-.02,2.75,0,5.51,0,8.26,0,.38,0,.57.09.74.47.34.76.81,1.46,1.24,2.21h-10.99Zm15.61-1.78c-1.5,0-2.72-1.22-2.71-2.72,0-1.47,1.21-2.68,2.68-2.68,1.49,0,2.71,1.21,2.71,2.71,0,1.46-1.22,2.68-2.68,2.68Z"/>
      <path class="cls-1" d="m24.32,38.71c.96.09,1.43.7,1.66,1.57.14.55.3,1.14,1.03,1.14.73,0,.88-.6,1.02-1.15.23-.87.71-1.47,1.64-1.57v-1.77c-1.09.03-1.93.49-2.67,1.3-.74-.83-1.59-1.29-2.68-1.29v1.76Z"/>
      <path class="cls-1" d="m10.03,44.83c.22-.89.69-1.52,1.64-1.62v-1.77c-1.09.03-1.93.49-2.66,1.3-.73-.83-1.58-1.28-2.67-1.3v1.77c.93.1,1.41.68,1.63,1.53.04.14.09.28.14.43.14.46.41.76.92.76.5,0,.77-.32.9-.78.03-.11.08-.21.11-.32Z"/>
      <path class="cls-1" d="m45.88,45.26c.05-.14.1-.28.14-.43.22-.89.69-1.52,1.65-1.62v-1.77c-1.11.02-1.95.52-2.67,1.29-.73-.82-1.57-1.27-2.66-1.29v1.77c.92.1,1.41.67,1.63,1.53.05.18.1.36.17.53.15.4.43.66.88.65.45,0,.72-.27.87-.67Z"/>
      <path class="cls-1" d="m24.34,43.25v1.77c.92.1,1.41.67,1.63,1.53.03.13.09.25.12.37.13.48.4.82.93.81.53,0,.79-.36.91-.83.02-.09.07-.17.09-.27.22-.89.69-1.52,1.64-1.62v-1.75c-1,0-1.54.26-2.69,1.26-.71-.8-1.56-1.25-2.64-1.27Z"/>
      <path class="cls-1" d="m6.31,49.94c-.73-.79-1.57-1.28-2.67-1.28v1.77c1.06.09,1.45.81,1.69,1.7.13.5.33.99.96,1,.67.01.88-.49,1.01-1.02.23-.92.68-1.61,1.68-1.71v-1.76c-1.1,0-1.95.5-2.67,1.28Z"/>
      <path class="cls-1" d="m47.7,49.92c-.99-.96-1.69-1.28-2.67-1.24v1.74c.9.1,1.39.64,1.62,1.48.07.25.11.55.27.73.21.22.52.47.8.48.25,0,.54-.25.76-.46.13-.13.18-.37.22-.57.22-.91.68-1.57,1.66-1.67v-1.76c-1.12,0-1.95.53-2.66,1.27Z"/>
      <path class="cls-1" d="m27.01,50.84c-.73-.79-1.57-1.29-2.68-1.28v1.76c.88.1,1.38.62,1.6,1.44.06.23.1.51.25.68.22.24.53.57.8.56.3,0,.62-.32.86-.56.15-.16.19-.44.25-.68.22-.83.72-1.33,1.6-1.44v-1.77c-1.1.02-1.95.49-2.67,1.29Z"/>
      <path class="cls-1" d="m24.59,33.1c.61.6,1.18,1.19,1.78,1.75.38.36.83.4,1.21.05.62-.59,1.2-1.22,1.79-1.83-.4-.41-.8-.82-1.26-1.3-.34.41-.66.8-1.08,1.31-.4-.53-.73-.96-.98-1.3-.58.52-1,.9-1.46,1.31Z"/>
      <path class="cls-1" d="m9.73,35.4c-.5.48-.9.86-1.32,1.26.62.63,1.2,1.26,1.82,1.85.34.32.78.34,1.12.02.63-.6,1.22-1.25,1.74-1.79-.38-.43-.75-.86-1.25-1.43-.34.44-.66.85-1.05,1.37-.41-.5-.73-.89-1.06-1.28Z"/>
      <path class="cls-1" d="m42.6,38.49c.36.34.81.36,1.17.02.62-.59,1.2-1.22,1.82-1.85-.41-.4-.81-.81-1.3-1.3-.35.41-.69.8-1.14,1.32-.38-.5-.69-.92-1.02-1.35-.5.51-.89.92-1.32,1.36.61.61,1.19,1.22,1.8,1.8Z"/>
      <path class="cls-1" d="m14.36,27.96h-1.71v1.75h1.71v-1.75Z"/>
      <path class="cls-1" d="m27.88,27.95h-1.74v1.73h1.74v-1.73Z"/>
      <path class="cls-1" d="m39.64,27.97v1.71h1.75v-1.71h-1.75Z"/>
      <path class="cls-1" d="m12.57,31.57h-1.73v1.73h1.73v-1.73Z"/>
      <path class="cls-1" d="m43.17,31.56h-1.75v1.72h1.75v-1.72Z"/>
      <path class="cls-1" d="m38.68,18.92c-.49.01-.89.43-.87.92.01.49.43.89.91.88.49-.01.89-.43.88-.92-.01-.49-.43-.89-.92-.88Z"/>
    </g>
  </g>
</svg>