<?xml version="1.0" encoding="UTF-8"?>
<svg id="Layer_2" data-name="Layer 2" xmlns="http://www.w3.org/2000/svg" viewBox="0 0 50 54">
  <defs>
    <style>
      .cls-1 {
        stroke-width: 0px;
        fill: #fff;
      }
    </style>
  </defs>
  <g id="Layer_1-2" data-name="Layer 1">
    <g>
      <path class="cls-1" d="m50,8.55v-.74c-.08-.46-.14-.93-.25-1.39-.77-3.34-3.48-5.81-6.91-6.33-.1-.02-.2-.06-.3-.09h-1.81c-.55.13-1.13.19-1.64.42-1.04.46-2.05,1.01-3.15,1.56-1.17-1.07-2.76-1.66-4.48-1.98h-1.81c-.58.14-1.2.21-1.74.44-1.01.44-1.98.99-3.05,1.54-.89-.75-2.04-1.39-3.35-1.72-.37-.09-.75-.17-1.13-.26h-1.92c-.36.08-.72.16-1.07.26-1.29.33-2.44.94-3.47,1.83-.33-.24-.65-.49-.98-.71-1.02-.67-2.13-1.1-3.34-1.28-.1-.01-.2-.06-.29-.1h-1.92c-.08.03-.16.08-.24.09C1.22,1.03-1.81,7.38,1.26,12.5c.17.29.1.46-.04.7-1.57,2.77-1.59,5.55-.04,8.33.19.33.2.54,0,.89-1.69,3.04-1.61,6.07.4,8.89,2.02,2.82,4.88,3.9,8.34,3.33,1.51-.25,2.81-.94,3.98-1.94,1.86,1.6,4.02,2.26,6.47,2.07,0,1.27-.01,2.48,0,3.69.02,1.21.62,2.05,1.73,2.55.1.04.19.1.39.2-.45,0-.77,0-1.09,0-2.86.01-4.74,1.87-4.74,4.69,0,2.51,0,5.03,0,7.54v.55h1.88v-3.65h4.61v-4.52h3.71v8.17h6.41c.01-.16.03-.3.03-.44,0-2.58.01-5.17,0-7.75-.02-2.74-1.89-4.57-4.66-4.59-.34,0-.68,0-.96,0,.46-.36.95-.67,1.34-1.08.49-.5.6-1.18.6-1.86,0-1.16,0-2.31,0-3.46,3.54-.19,3.9-.3,6.47-2.09.12.09.25.19.37.28,4.82,3.73,11.8,1.33,13.25-4.56.12-.51.19-1.03.28-1.54v-.63c-.15-.75-.24-1.52-.46-2.25-.19-.61-.55-1.17-.8-1.77-.06-.15-.1-.39-.02-.51.71-1.18,1.13-2.45,1.22-3.82,0-.1.04-.2.07-.3v-.42c-.24-1.02-.32-2.12-.77-3.03-.5-.99-.49-1.73,0-2.71.45-.88.53-1.94.77-2.92Zm-23.18,35.38h-3.64v-2.67h3.64v2.67Zm20.07-30.25c1.61,2.23,1.61,5.21,0,7.45-.57.79-.57.92.02,1.72,1.95,2.7,1.47,6.46-1.11,8.61-2.56,2.14-6.41,1.96-8.75-.4-.8-.8-1.11-.8-1.93.01-1.15,1.14-2.54,1.76-4.19,1.82,1.2-.47,1.62-1.63,2.3-2.55.07-.09.08-.23.08-.35,0-1.34,0-2.67,0-4.01,0-.06-.02-.12-.05-.31-.4.41-.72.75-1.06,1.07-.98.95-2.21.97-3.24.06-.88-.77-1.72-.89-2.79-.37-.67.32-1.33.65-2.07,1.02-.19-.91-.88-.93-1.6-.89-.35.02-.71,0-1.06,0-.69.02-1.04.37-1.05,1.06,0,1.62,0,3.24,0,4.85,0,.12-.01.24-.02.41-1.82.24-3.45-.19-4.89-1.3-.27-.2-.51-.44-.74-.68-.58-.58-1.06-.58-1.64.01-1.4,1.43-3.11,2.15-5.12,2.01-2.47-.17-4.3-1.37-5.39-3.56-1.1-2.21-.9-4.4.48-6.45.61-.92.63-.97-.02-1.9-1.53-2.19-1.51-5.15.06-7.32.57-.79.57-.96,0-1.77-1.94-2.7-1.47-6.39,1.09-8.57,2.5-2.13,6.31-2.01,8.68.28.1.1.2.2.3.3.51.5,1.04.52,1.53,0,2.56-2.79,7.01-2.77,9.55,0,.5.54,1.03.52,1.56,0,2.81-2.78,6.73-2.78,9.51,0,.57.57,1.04.54,1.68-.09,1.78-1.75,3.92-2.39,6.34-1.74,2.42.65,3.98,2.25,4.59,4.66.48,1.87.11,3.63-1.01,5.22-.57.81-.58.94-.01,1.72Z"/>
      <path class="cls-1" d="m26.75,6.86c-.62-.61-1.04-.6-1.68.03-1.97,1.95-3.94,3.9-5.91,5.86-.11.11-.21.23-.24.26.42.47.81.91,1.31,1.48.68-.68,1.33-1.34,2-2.01v5.82h7.39v-6.01c.74.8,1.37,1.47,1.99,2.14.52-.5.94-.9,1.39-1.33-.11-.12-.19-.22-.28-.3-1.99-1.98-3.99-3.96-5.99-5.93Z"/>
      <path class="cls-1" d="m42.03,19.23c-.3.02-.43-.09-.5-.39-.22-.96-.48-1.91-.71-2.86-.07-.31-.21-.42-.54-.42-1.22.02-2.45.03-3.67,0-.43-.01-.58.15-.67.53-.24,1.04-.51,2.07-.79,3.16h-1.81v3.67h1.84v2.69h1.83v-2.68h2.78v2.68h1.86v-2.74h1.81v-3.64c-.52,0-.98-.02-1.44,0Z"/>
      <path class="cls-1" d="m13.2,19.02c-.73.75-1.61,1.06-2.65,1.16-.62.06-1.36.24-1.8.63-1.07.96-2,2.07-2.94,3.08,1.1,1.09,2.31,2.29,3.58,3.54.45-.46.94-.94,1.4-1.45.77-.84,1.72-1.21,2.86-1.31.62-.06,1.35-.26,1.79-.66,1.05-.93,1.97-2.01,2.88-2.97-1.13-1.13-2.35-2.33-3.59-3.56-.48.48-1.01,1-1.53,1.53Z"/>
      <path class="cls-1" d="m42.56,8.24c-.28-.01-.56,0-.94,0,0-.41.03-.74,0-1.07-.09-.98-.89-1.69-1.86-1.67-.98.02-1.79.79-1.8,1.79-.02,1.44,0,2.88,0,4.33,0,.1.04.19.06.3,1.55,0,3.08.03,4.6,0,1.05-.03,1.8-.86,1.79-1.86-.02-1-.8-1.77-1.85-1.8Z"/>
      <path class="cls-1" d="m9.25,13.72c.96.02,1.91,0,2.87,0,.58,0,1.16,0,1.78,0,0-1.53,0-3.01,0-4.48,0-1.11-.77-1.91-1.82-1.92-1.04,0-1.82.78-1.87,1.89-.01.26,0,.52,0,.87-.43,0-.77-.03-1.1,0-.99.1-1.7.9-1.67,1.85.03.98.8,1.76,1.81,1.78Z"/>
    </g>
  </g>
</svg>