<?xml version="1.0" encoding="UTF-8"?>
<svg id="Layer_2" data-name="Layer 2" xmlns="http://www.w3.org/2000/svg" viewBox="0 0 54 54">
  <defs>
    <style>
      .cls-1 {
        stroke-width: 0px;
        fill: #fff;
      }
    </style>
  </defs>
  <g id="Layer_1-2" data-name="Layer 1">
    <g>
      <path class="cls-1" d="m6.86,54c-.45-.31-.58-.73-.56-1.26.03-1.16,0-2.32.01-3.48,0-.78.31-1.09,1.1-1.09.9,0,1.8,0,2.73,0V14.3h-2.06c-.01.1-.02.22-.03.34-.08.57-.36.87-.93.88-2.06.02-4.13.02-6.2,0-.6,0-.92-.35-.92-.93-.01-2.01-.01-4.03,0-6.04,0-.61.34-.92.98-.93,1.29,0,2.58.01,3.87-.02.27,0,.58-.11.79-.27,2.29-1.8,4.57-3.62,6.86-5.41.35-.27.57-.57.67-1.01C13.35.18,13.6,0,14.34,0c.87,0,1.73,0,2.6,0,.69,0,.95.25,1.08.91.03.17.18.39.34.47,5.17,2.46,10.34,4.92,15.53,7.34.37.17.86.15,1.29.14.47,0,.85.13,1.2.43,1.27,1.07,2.56,2.13,3.86,3.18.37.3.71.61.53,1.14-.19.55-.64.63-1.16.63-1.1,0-2.21,0-3.34,0v3.8c.49,0,.97,0,1.44,0,.66.01.99.32,1,.97.01,1.54.01,3.08,0,4.63,0,.65-.34.97-1,.97-1.57,0-3.13,0-4.7,0-.67,0-1-.31-1.01-.96-.01-1.54-.01-3.08,0-4.63,0-.68.33-.97,1.04-.98.44,0,.88,0,1.37,0v-3.77h-16.36v33.87c.85,0,1.69,0,2.53,0,1.02,0,1.29.26,1.29,1.25,0,1.12-.01,2.25,0,3.37.01.54-.14.96-.64,1.22H6.86ZM29.8,8.85s.02-.06.03-.09c-3.92-1.85-7.83-3.71-11.8-5.59v5.67h11.77ZM14.76,1.76c-.65,2.38-1.29,4.72-1.94,7.08h3.36V1.76h-1.42Zm-2.27,23.45c1.24,1.22,2.49,2.44,3.7,3.63v-7.25c-1.26,1.23-2.5,2.45-3.7,3.62Zm-.49,14.25v7.28c1.25-1.23,2.51-2.47,3.7-3.65-1.22-1.2-2.47-2.43-3.7-3.64Zm.55-2.41c1.23,1.23,2.46,2.47,3.63,3.65v-7.23c-1.26,1.24-2.51,2.47-3.63,3.58Zm-.57-14.1c1.26-1.23,2.52-2.46,3.66-3.57-1.21-1.21-2.45-2.46-3.66-3.68v7.25Zm3.65,8.3c-1.19-1.17-2.46-2.41-3.65-3.58v7.19c1.24-1.23,2.5-2.47,3.65-3.6Zm-7.49-22.37c.86,0,1.73,0,2.61,0,.1,0,.25-.11.27-.2.39-1.38.77-2.77,1.19-4.3-1.53,1.21-2.94,2.33-4.33,3.43.09.37.17.69.26,1.08Zm5.26,5.39c.94.92,1.87,1.83,2.79,2.74v-2.74h-2.79Zm2.79,33.85v-2.71c-.92.9-1.84,1.81-2.77,2.71h2.77ZM35.74,11.06c-.55.55-1.03,1.03-1.41,1.4h3.12c-.67-.55-1.25-1.02-1.71-1.4Zm-23.84,1.41h2.84c-.47-.47-.94-.94-1.39-1.39-.45.43-.92.88-1.45,1.39Zm10.21.02c-.46-.49-.92-.98-1.25-1.33-.51.43-1.01.86-1.56,1.33h2.81Zm6.13-1.3c-.45.43-.93.9-1.34,1.29h2.6c-.45-.46-.92-.94-1.26-1.29Zm-12.44-.54c.43.43.9.9,1.26,1.26.43-.38.91-.8,1.43-1.26h-2.69Zm7.37,0c.44.43.91.89,1.29,1.26.42-.37.9-.79,1.44-1.26h-2.73Zm8.55,1.32c.48-.47.94-.92,1.32-1.29h-2.66c.52.5.98.94,1.34,1.29Zm-21.97-.06c.47-.43.9-.82,1.36-1.24h-2.22c.33.48.61.88.86,1.24Z"/>
      <path class="cls-1" d="m54,42.68c-.24-.01-.48-.03-.72-.03-6.34,0-12.69,0-19.03,0-.23,0-.47,0-.74,0v-14.42h.68c6.38,0,12.76,0,19.14,0,.22,0,.44-.01.66-.02v14.48Zm-15.2-3.25c1.53,0,1.59-.05,1.59-1.55,0-1.54-.04-1.58-1.61-1.58-1.53,0-1.58.05-1.58,1.55,0,1.54.03,1.58,1.61,1.58Zm4.94-3.13c-.22,0-.44,0-.66,0-.67.02-.92.27-.92.94,0,.43,0,.87,0,1.3.01.6.27.86.87.88.4.01.81,0,1.21,0,.88,0,1.1-.23,1.11-1.1,0-.14,0-.29,0-.43,0-1.55-.05-1.6-1.6-1.59Zm-4.96-4.87c-.09,0-.18,0-.28,0-1.19,0-1.32.13-1.32,1.31,0,.05,0,.11,0,.16,0,1.62.02,1.65,1.65,1.65,1.48,0,1.54-.07,1.54-1.54,0-1.55-.03-1.58-1.6-1.58Zm3.37,1.54c0,1.56.02,1.58,1.6,1.58,1.53,0,1.59-.06,1.59-1.55,0-1.53-.04-1.57-1.61-1.57-1.56,0-1.58.02-1.58,1.54Zm6.52,6.45c1.59,0,1.61-.02,1.61-1.57,0-1.53-.03-1.56-1.57-1.56-1.58,0-1.6.02-1.6,1.57,0,1.54.02,1.55,1.56,1.56Zm.06-7.99q-1.62,0-1.62,1.6c0,1.49.04,1.52,1.55,1.52,1.61,0,1.63-.02,1.63-1.61,0-1.48-.03-1.51-1.55-1.51Z"/>
      <path class="cls-1" d="m54,53.13h-26.84v-8.71c.18-.01.35-.03.53-.03,8.6,0,17.21,0,25.81,0,.16,0,.33.02.49.03v8.71Z"/>
      <path class="cls-1" d="m54,26.46c-4.04,0-8.07.01-12.11.02-.39,0-.77,0-1.2,0v-11.12h13.31v11.1Zm-9.01-4.16s0,0,0,.01c.13,0,.26,0,.39,0,.48.02.97-.07,1.01-.6.05-.69.34-1.45-.32-2.04-.08-.07-.2-.1-.31-.11-.5,0-1-.04-1.49.01-.54.06-.66.36-.66,1.35,0,.96.14,1.28.66,1.37.23.04.48,0,.72,0Zm6.01-1.36s.01,0,.02,0c0-.2,0-.4,0-.6-.01-.47-.26-.76-.74-.79-.46-.03-.93-.07-1.37.02-.25.05-.6.33-.64.55-.09.53-.16,1.12,0,1.61.29.93,1.17.48,1.81.56.45.06.81-.15.91-.61.05-.24,0-.5,0-.76Z"/>
      <path class="cls-1" d="m51.32,5.61v7.99h-8v-7.99h8Z"/>
    </g>
  </g>
</svg>