<svg xmlns="http://www.w3.org/2000/svg" width="100" height="100" viewBox="0 0 100 100" fill="none">
  <g clip-path="url(#clip0_726_1726)">
    <path d="M83.848 0C84.745 0.259142 85.6592 0.472214 86.539 0.788943C93.9681 3.48978 98.6717 8.71293 99.7585 16.539C101.116 26.3173 96.1647 33.8439 88.1433 37.495C87.9075 37.5986 87.6718 37.7023 87.367 37.8347C89.8396 45.8566 89.8511 53.8727 87.3498 61.958C92.6284 64.1175 96.4579 67.7858 98.6372 73.0838C100.23 76.9536 100.334 80.9847 99.448 84.987C97.746 92.698 90.8343 98.7792 83.2155 99.8157C74.9641 100.939 65.8099 96.6427 62.0321 87.2732C54.0567 89.7322 46.0526 89.7553 38.0772 87.2732C37.4447 88.4595 36.8984 89.6343 36.2199 90.74C29.9293 100.991 15.6633 103.087 6.69312 95.0878C5.73285 94.2298 5.62935 93.2566 6.43437 92.6001C7.06113 92.0875 7.80289 92.1682 8.62516 92.888C10.9079 94.8805 13.5357 96.1474 16.5028 96.7578C25.9215 98.687 35.3976 91.6268 36.2026 82.0674C36.9617 73.0377 31.1425 65.442 22.2414 63.8583C13.2885 62.2689 4.27233 68.9605 3.12231 78.0017C2.71405 81.2266 3.12806 84.296 4.45058 87.256C4.91634 88.2983 4.66909 89.1218 3.82957 89.4961C3.00156 89.8704 2.25404 89.4846 1.76529 88.4307C1.73653 88.3732 1.70778 88.3156 1.68478 88.2522C-1.55252 80.9963 0.0575049 72.2488 5.6466 66.6168C7.50389 64.7452 9.63717 63.2825 12.0637 62.2517C12.2707 62.1653 12.4662 62.0616 12.7135 61.9522C10.2122 53.913 10.2007 45.8969 12.6445 38.0248C10.8792 36.9248 9.02766 36.0438 7.49814 34.7768C1.28228 29.6286 -1.24202 22.9657 0.575014 15.0763C2.4208 7.08321 7.67064 2.19407 15.6115 0.213072C15.8243 0.161244 16.0313 0.0748632 16.2383 0C18.5153 0 20.7981 0 23.0752 0C23.2822 0.0748632 23.4834 0.172761 23.6904 0.218831C29.2968 1.53182 33.6093 4.64152 36.5591 9.59977C37.1054 10.5154 37.5309 11.5001 38.0312 12.4849C46.0353 9.99136 54.028 10.0029 62.0493 12.4906C62.2333 12.0818 62.3828 11.7247 62.5496 11.3735C64.9301 6.28275 68.754 2.76994 74.0383 0.869565C75.0101 0.529801 76.0163 0.287935 77.0111 0C79.2881 0 81.5709 0 83.848 0ZM38.8879 15.3815C38.8879 15.537 38.8822 15.6349 38.8879 15.7328C38.9052 15.894 38.9224 16.0553 38.9512 16.2165C39.8195 21.7103 38.5717 26.6916 35.3286 31.1834C34.4201 32.4388 33.5691 32.721 32.7583 32.0875C31.9993 31.4944 32.0683 30.6594 32.9711 29.4443C36.9904 24.0369 37.4044 16.8212 34.0291 11.0337C30.6365 5.21739 24.1274 2.00979 17.5091 2.88511C9.74642 3.91592 4.01357 9.83012 3.03031 17.8232C2.15629 24.9237 6.57237 32.22 13.4667 34.9323C18.2163 36.7982 22.8912 36.4929 27.4395 34.1895C28.5493 33.6251 29.36 33.7806 29.7913 34.6329C30.2168 35.4737 29.866 36.2223 28.7563 36.8039C26.4217 38.0248 23.9549 38.831 21.3156 38.9519C19.4123 39.0441 17.5033 38.9692 15.4333 38.9692C13.1735 46.1964 13.1735 53.6251 15.5368 61.1114C22.4714 59.9367 28.532 61.5606 33.4713 66.5073C38.4279 71.4713 40.0265 77.5813 38.8649 84.4515C46.3861 86.7665 53.7577 86.7722 61.2156 84.44C60.0368 77.5353 61.6583 71.4713 66.5862 66.5246C71.5428 61.5433 77.6321 59.9309 84.5437 61.1057C86.8783 53.5906 86.884 46.1791 84.5495 38.6813C77.6551 39.856 71.5945 38.2551 66.6437 33.3199C61.6641 28.3559 60.0368 22.2689 61.1983 15.4045C55.0285 13.0377 45.6846 12.8765 38.8937 15.3758L38.8879 15.3815ZM97.1134 19.4299C97.1134 10.2217 89.6038 2.74115 80.3692 2.74115C71.2265 2.74115 63.7399 10.2678 63.7456 19.4414C63.7571 28.6438 71.3012 36.1762 80.4899 36.1474C89.6498 36.1186 97.1134 28.6093 97.1134 19.4299ZM80.4209 97.0631C89.5808 97.0631 97.0904 89.5825 97.1134 80.4204C97.1422 71.2122 89.6268 63.6568 80.4382 63.651C71.2552 63.651 63.7284 71.2007 63.7456 80.3973C63.7629 89.5595 71.2667 97.0515 80.4209 97.0573V97.0631Z" fill="white"/>
    <path d="M16.6235 72.3986C16.8075 72.4792 17.2446 72.6116 17.6298 72.8362C20.7291 74.6157 23.8284 76.4009 26.9105 78.2033C28.7735 79.2917 28.7735 81.0481 26.9105 82.1365C23.8227 83.939 20.7291 85.7242 17.6241 87.4979C15.8128 88.5345 14.289 87.6361 14.2833 85.5399C14.2775 81.8947 14.2718 78.2436 14.2833 74.5984C14.2833 73.2393 15.1343 72.3698 16.6178 72.4043L16.6235 72.3986ZM24.4437 80.1613C22.0056 78.7504 19.6941 77.4144 17.2733 76.0093V84.3133C19.6941 82.9082 22.0114 81.5722 24.4437 80.1613Z" fill="white"/>
    <path d="M43.741 54.8751C43.8617 57.2189 43.971 59.4245 44.0802 61.6358C44.1262 62.5169 44.178 63.3922 44.201 64.2733C44.224 65.3617 43.7065 65.9894 42.8037 66.0124C41.9182 66.0355 41.3374 65.425 41.2799 64.3482C41.1304 61.584 40.9982 58.814 40.8602 56.0441C40.8429 55.6928 40.8199 55.3415 40.7969 54.9096C40.2564 54.8808 39.7792 54.8636 39.3019 54.829C37.7091 54.7138 36.5649 53.5621 36.5476 51.9669C36.5131 49.3582 36.5131 46.7495 36.5476 44.1408C36.5706 42.4823 37.8184 41.296 39.5032 41.2788C41.2627 41.2615 43.051 41.0657 44.7702 41.3191C48.0996 41.8028 50.9976 40.5992 53.9244 39.3957C55.2124 38.8659 56.4545 38.2094 57.708 37.5932C58.513 37.1958 59.3238 36.8733 59.318 35.6755C59.318 35.3358 60.1058 34.7484 60.56 34.7196C61.0085 34.6966 61.5835 35.1515 61.9285 35.5546C62.1585 35.8253 62.1125 36.3608 62.1125 36.7754C62.124 44.3078 62.1183 51.8402 62.1125 59.3669C62.1125 59.7239 62.101 60.0925 62.0033 60.4265C61.7963 61.1406 61.2673 61.4918 60.5313 61.44C59.7953 61.3824 59.2375 60.9563 59.2432 60.2249C59.2432 59.4072 58.8062 59.0904 58.1967 58.791C57.4665 58.434 56.742 58.0596 56.0347 57.6623C55.1722 57.1786 54.9019 56.3781 55.3159 55.6122C55.7069 54.8866 56.4832 54.6505 57.3342 55.0363C57.915 55.3012 58.4785 55.6007 59.1455 55.9289V40.4437C55.4539 41.8546 51.7509 43.2713 47.8868 44.7513C47.8868 46.7495 47.8696 48.9954 47.9156 51.2413C47.9156 51.4371 48.2836 51.7135 48.5366 51.7999C49.4911 52.1167 50.4743 52.347 51.4346 52.658C52.4294 52.9747 52.8549 53.7464 52.5731 54.6044C52.3144 55.3818 51.5266 55.7158 50.5663 55.4567C50.5031 55.4394 50.4398 55.4222 50.3823 55.3934C48.2951 54.3222 46.087 54.8923 43.7582 54.8693L43.741 54.8751ZM39.5319 44.256V51.8345H44.8852V44.256H39.5319Z" fill="white"/>
    <path d="M12.2075 24.2154C10.4767 22.7988 9.33816 21.0251 8.94716 18.8195C8.56765 16.683 8.7804 14.5984 9.56242 12.5828C10.0972 11.2007 11.3507 10.9877 12.2707 12.1452C13.4265 13.5906 14.818 14.6444 16.6063 15.1339C16.8823 15.2088 17.1698 15.2549 17.4918 15.324C17.5896 15.0015 17.6758 14.7308 17.7563 14.4544C18.7798 11.0683 22.5174 9.48463 25.5822 11.2122C26.2722 11.5981 26.7667 11.5578 27.3417 11.1547C27.5545 11.0049 27.7787 10.7803 28.0087 10.7688C28.555 10.7343 29.2565 10.6076 29.6188 10.884C29.9753 11.1604 30.2053 11.9206 30.1133 12.3928C29.958 13.199 29.6303 14.0455 29.1473 14.7078C28.5435 15.537 28.4572 16.4124 28.371 17.351C27.8937 22.4993 25.4959 26.3692 20.6486 28.4135C16.543 30.1469 12.5065 29.6113 8.62515 27.567C7.92939 27.2042 7.64763 26.6168 7.82589 25.8566C7.99264 25.1195 8.53315 24.8201 9.25766 24.7625C10.2179 24.6876 11.1782 24.5782 12.1327 24.4861C12.1557 24.3939 12.173 24.3018 12.196 24.2097L12.2075 24.2154ZM15.347 26.254C15.3528 26.3231 15.3585 26.3922 15.37 26.4613C16.0715 26.4152 16.7903 26.444 17.4746 26.3173C22.4024 25.4247 25.6569 21.3936 25.5132 15.7789C25.5074 15.4564 25.5477 15.1051 25.4384 14.8172C25.1739 14.1089 23.6157 13.389 22.6784 13.4869C21.6261 13.5963 20.7176 14.4198 20.5451 15.4622C20.4934 15.7789 20.4991 16.1129 20.4934 16.4354C20.4589 17.9096 19.9413 18.4221 18.4521 18.3703C16.2555 18.2897 14.243 17.6217 12.4375 16.3548C12.2477 16.2223 12.0407 16.1129 11.7762 15.9574C11.4772 18.7158 12.3742 20.8063 14.588 22.292C15.0423 22.5972 15.554 22.8218 16.0313 23.104C17.1468 23.7605 17.2101 24.964 16.175 25.7242C15.9163 25.9142 15.6345 26.0812 15.3585 26.254H15.347Z" fill="white"/>
    <path d="M80.6164 20.582C80.6164 21.3306 80.6164 21.9698 80.6164 22.6148C80.6164 24.6995 80.6221 26.7841 80.6164 28.8688C80.6106 30.1414 80.1219 30.7749 79.1731 30.7807C78.2186 30.7922 77.7011 30.1472 77.6953 28.8976C77.6838 26.5192 77.6953 24.1409 77.6953 21.7625C77.6953 21.4112 77.6953 21.0599 77.6953 20.5762C76.9823 20.5762 76.3728 20.5935 75.7691 20.5762C74.7858 20.5417 74.1533 19.9543 74.159 19.1135C74.1648 18.2842 74.8145 17.6969 75.7863 17.6508C76.0796 17.6335 76.3728 17.6508 76.6661 17.6508C76.9536 17.6508 77.2411 17.6508 77.6953 17.6508C77.6953 16.3666 77.7068 15.14 77.6953 13.9191C77.6781 12.1685 78.2186 10.6597 79.5411 9.46766C81.2547 7.91857 83.3304 7.89554 85.4292 8.14316C86.194 8.2353 86.6023 8.87452 86.5333 9.64618C86.4643 10.4063 86.0042 10.9131 85.2107 10.9649C84.561 11.011 83.9112 10.9649 83.2614 10.9937C81.7434 11.0628 80.7601 11.9842 80.6681 13.4988C80.6049 14.6044 80.6394 15.7159 80.6394 16.8215C80.6394 17.0461 80.6624 17.2707 80.6796 17.6508C81.3409 17.6508 81.9734 17.6393 82.6117 17.6508C83.6812 17.6738 84.331 18.2209 84.354 19.0905C84.377 20.0119 83.733 20.5647 82.5887 20.582C81.9792 20.5935 81.3697 20.582 80.6394 20.582H80.6164Z" fill="white"/>
    <path d="M80.4324 69.968C82.3817 69.968 84.3367 69.9565 86.286 69.968C89.23 69.9853 90.8171 71.5632 90.8228 74.4944C90.8343 78.4045 90.8286 82.3147 90.8228 86.2248C90.8171 89.1388 89.1955 90.7627 86.286 90.7685C82.3817 90.7742 78.4774 90.7742 74.573 90.7685C71.6635 90.7685 70.0477 89.1445 70.0362 86.2248C70.0247 82.3147 70.0247 78.4045 70.0362 74.4944C70.042 71.5574 71.6232 69.9853 74.5673 69.968C76.5166 69.9565 78.4716 69.968 80.4209 69.968H80.4324ZM87.896 80.4086C87.896 78.4506 87.9018 76.4926 87.896 74.5404C87.896 73.2274 87.5913 72.9107 86.2917 72.905C82.3817 72.8992 78.4774 72.8934 74.5673 72.905C73.2678 72.905 72.9745 73.2102 72.9745 74.5462C72.9688 78.4276 72.9688 82.3089 72.9745 86.1903C72.9745 87.4918 73.308 87.8315 74.573 87.8373C78.4831 87.843 82.3874 87.843 86.2975 87.8373C87.5568 87.8373 87.8903 87.486 87.896 86.1845C87.9018 84.2611 87.896 82.3377 87.896 80.4143V80.4086Z" fill="white"/>
    <path d="M80.4152 84.7794C77.9656 84.7737 76.0221 82.8272 76.0164 80.374C76.0164 77.892 78.0231 75.8995 80.4899 75.934C82.9165 75.9628 84.8543 77.9553 84.837 80.4028C84.8198 82.8502 82.8705 84.7852 80.4094 84.7794H80.4152ZM80.4037 81.8367C81.2375 81.8482 81.893 81.2205 81.9045 80.3913C81.916 79.5678 81.272 78.8883 80.4554 78.871C79.6447 78.8537 78.9662 79.5102 78.9489 80.3337C78.9317 81.1629 79.5699 81.8252 80.3979 81.8367H80.4037Z" fill="white"/>
  </g>
  <defs>
    <clipPath id="clip0_726_1726">
      <rect width="100" height="100" fill="white"/>
    </clipPath>
  </defs>
</svg>