<?xml version="1.0" encoding="UTF-8"?>
<svg id="Layer_2" data-name="Layer 2" xmlns="http://www.w3.org/2000/svg" viewBox="0 0 58 54">
  <defs>
    <style>
      .cls-1 {
        stroke-width: 0px;
        fill: #fff;
      }
    </style>
  </defs>
  <g id="Layer_1-2" data-name="Layer 1">
    <g>
      <path class="cls-1" d="m55.77,16.86c-12.85.02-25.7.01-38.55.03-.46,0-.65-.14-.79-.56-.89-2.72-1.81-5.44-2.72-8.15-.35-1.05-.86-1.42-1.96-1.42-3.28,0-6.57,0-9.85,0-.19,0-.38,0-.56.04C.48,7-.09,7.79.01,8.63c.11.87.82,1.49,1.77,1.49,2.81,0,5.62.01,8.44,0,.43,0,.62.12.76.53,2.94,8.81,5.9,17.61,8.85,26.42.06.19.11.38.16.57-1.99,1.13-3.05,2.78-2.84,5.02.21,2.26,1.58,3.69,3.71,4.43-.06.2-.1.36-.15.52-.65,2.28.41,4.75,2.53,5.81.53.27,1.13.4,1.69.6h1.36c.2-.05.39-.11.59-.16,2.75-.73,4.35-3.44,3.63-6.19-.03-.11-.05-.22-.08-.37h10.62c-.03.79-.18,1.59-.07,2.36.32,2.24,1.84,3.76,4.08,4.25.09.02.17.06.26.1h1.36c.22-.06.43-.12.65-.18,2.45-.68,4.08-3.06,3.74-5.46-.36-2.6-2.44-4.47-5.06-4.48-7.85-.02-15.7,0-23.55,0-.76,0-1.37-.23-1.74-.92-.57-1.06.14-2.34,1.35-2.45.19-.02.38,0,.57,0,8.77,0,17.55,0,26.32,0,1.26,0,1.75-.35,2.16-1.54,2.22-6.48,4.44-12.96,6.66-19.44.06-.17.15-.33.23-.5v-.9c-.44-.95-1.18-1.25-2.23-1.25Zm-36.38,6.78c-.4,0-.56-.13-.67-.49-.29-.95-.62-1.88-.95-2.86h6.38c.18,1.09.37,2.17.56,3.3-.2.01-.36.03-.52.03-1.6,0-3.21-.01-4.81.01Zm2.01,6.73c-.11,0-.28-.13-.31-.23-.36-1.02-.69-2.05-1.05-3.11h5.24c.19,1.08.38,2.18.58,3.35-1.52,0-2.99,0-4.46-.01Zm2.26,6.75c-.11,0-.28-.13-.31-.24-.36-1.02-.69-2.05-1.05-3.11h4.12c.19,1.1.37,2.19.57,3.35-1.15,0-2.24,0-3.32-.01Zm10.38-.03h-3.62c-.18-1.08-.37-2.16-.56-3.31h4.18v3.31Zm0-6.72h-4.75c-.19-1.09-.37-2.19-.57-3.32h5.31v3.32Zm0-6.73h-2.41c-1.02,0-2.04.01-3.05-.01-.16,0-.43-.14-.45-.25-.2-1.01-.35-2.02-.53-3.09h6.44v3.36Zm7.1,13.48h-3.64v-3.32h4.19c-.19,1.12-.37,2.21-.55,3.32Zm1.13-6.75h-4.77v-3.32h5.32c-.19,1.12-.37,2.21-.56,3.32Zm1.13-6.75h-5.9v-3.32h6.46c-.19,1.12-.37,2.22-.56,3.32Zm4.81,13.28c-.04.1-.21.23-.32.23-1.09.02-2.18.01-3.31.01.18-1.08.34-2.09.52-3.1.02-.1.18-.26.28-.26,1.28-.02,2.55-.01,3.89-.01-.36,1.09-.7,2.12-1.06,3.14Zm2.24-6.68c-.03.08-.2.16-.31.16-1.45.01-2.9,0-4.43,0,.2-1.17.38-2.25.57-3.35h5.25c-.36,1.08-.71,2.13-1.08,3.18Zm2.28-6.77c-.03.09-.2.18-.3.18-1.84.01-3.69,0-5.59,0,.19-1.16.38-2.25.57-3.36h6.5c-.4,1.08-.78,2.13-1.17,3.17Z"/>
      <path class="cls-1" d="m25.24,13.46c.67.15,1.22-.1,1.69-.57,1.79-1.8,3.59-3.59,5.44-5.43.21.19.36.33.5.47,1.63,1.62,3.26,3.23,4.89,4.85.99.98,1.89.98,2.88,0,2.18-2.16,4.35-4.32,6.53-6.48.14-.14.29-.27.52-.48,0,.87,0,1.63,0,2.39,0,1.15.67,1.91,1.68,1.92,1.01,0,1.71-.76,1.71-1.89,0-2.12,0-4.24,0-6.36,0-1.2-.69-1.87-1.9-1.87-2.13,0-4.27,0-6.4,0-1.11,0-1.87.68-1.89,1.66-.01,1,.76,1.7,1.9,1.71.78,0,1.56,0,2.34,0-2.01,2-3.99,3.97-5.99,5.97-.12-.11-.27-.25-.42-.39-1.66-1.64-3.31-3.29-4.97-4.93-.89-.88-1.84-.88-2.72,0-1.33,1.31-2.64,2.62-3.97,3.94-.88.87-1.78,1.74-2.64,2.63-.97,1.01-.53,2.56.81,2.87Z"/>
    </g>
  </g>
</svg>