<?xml version="1.0" encoding="UTF-8"?>
<svg id="Layer_2" data-name="Layer 2" xmlns="http://www.w3.org/2000/svg" viewBox="0 0 62 54">
  <defs>
    <style>
      .cls-1 {
        stroke-width: 0px;
        fill: #fff;
      }
    </style>
  </defs>
  <g id="Layer_1-2" data-name="Layer 1">
    <g>
      <path class="cls-1" d="m61.99,45.47c-.1-.7-.65-.96-1.68-.79-1.25.2-2.51.4-3.76.6-6.87,1.07-13.74,2.13-20.6,3.2-.9.14-1.33.67-1.33,1.59,0,.21.01.42-.01.63-.08.72-.55,1.24-1.26,1.26-1.54.03-3.08.03-4.62,0-.74-.02-1.21-.55-1.26-1.31-.02-.27,0-.55-.01-.82-.02-.87-.25-1.16-1.12-1.3-4.19-.66-8.39-1.32-12.58-1.97-4.01-.63-8.02-1.24-12.03-1.88-.7-.11-1.33-.14-1.73.6v.63c.36.24.7.62,1.09.71,1.13.25,2.3.37,3.45.55,6.69,1.04,13.38,2.1,20.08,3.11.64.1.82.31.91.95.17,1.26.96,2.11,2.14,2.56.19.07.39.14.58.21h5.63c1.7-.55,2.7-1.66,2.75-3.57.31-.05.59-.09.87-.14,7.71-1.21,15.42-2.41,23.13-3.62,1-.16,1.45-.54,1.36-1.21Z"/>
      <path class="cls-1" d="m9.07,7.02c6.93,1.86,13.86,3.72,20.8,5.57.3.08.67.08.97,0,4.71-1.25,9.41-2.51,14.11-3.77,1.76-.47,3.52-.94,5.38-1.44v.75c0,2.84-.05,5.69.03,8.53.03.99-.19,1.64-1.14,1.98-.5.17-.65.56-.64,1.09.02,2.04,0,4.09.03,6.13,0,.31.15.74.38.89.18.11.63-.07.87-.25,1.71-1.23,1.23-1.26,2.93-.02.25.18.71.36.92.25.22-.12.36-.58.36-.9.03-1.77-.05-3.54.04-5.3.06-1.12-.22-1.88-1.29-2.25-.44-.15-.49-.48-.49-.9.01-3.37,0-6.74,0-10.11,0-.17,0-.34.01-.5.1-.87.06-.93-.8-1.16C44.72,3.75,37.89,1.91,31.05.09c-.42-.11-.91-.13-1.33-.02-6.9,1.83-13.79,3.69-20.68,5.54-.37.1-.77.2-.77.68,0,.51.4.61.8.72Z"/>
      <path class="cls-1" d="m46.7,11.11c0-.2-.03-.39-.04-.62-.22.05-.36.08-.5.11-5.01,1.34-10.01,2.69-15.02,4-.5.13-1.09.12-1.59,0-3.3-.85-6.6-1.75-9.89-2.64-1.85-.5-3.7-.99-5.65-1.51v.78c0,3.07,0,6.15,0,9.22,0,1.06.05,1.11,1.08,1.31,3.5.66,6.99,1.34,10.49,1.99,2.38.44,4.79.75,7.2.34,4.39-.76,8.76-1.59,13.14-2.38.64-.11.79-.47.79-1.06-.01-3.18,0-6.36,0-9.54Z"/>
      <path class="cls-1" d="m31.29,47.48c.1-.01.16-.06.22-.11,2.97-2.64,6.24-4.84,9.73-6.71,5.47-2.92,11.16-5.15,17.43-5.52.14,0,.36-.15.41-.28.42-1.18.81-2.37,1.24-3.63-5.19-.17-13.19,1.31-19.56,5.59-4.06,2.73-7.24,6.25-9.46,10.65Z"/>
      <path class="cls-1" d="m3.39,35.04c1.6.24,3.23.36,4.81.73,7.02,1.63,13.32,4.83,19.14,9.07,1.15.84,2.24,1.76,3.49,2.75-2.69-5.16-6.46-9.06-11.36-11.84-5.49-3.12-11.42-4.48-17.79-4.56.43,1.29.82,2.48,1.25,3.66.04.11.3.17.47.2Z"/>
      <path class="cls-1" d="m3.75,37.16c0,.08,0,.17.02.24.56,1.67,1.12,3.34,1.72,5,.06.16.35.32.54.33,2.24.15,4.49.19,6.73.41,4.39.44,8.66,1.4,12.75,3.1.13.06.28.09.53.17-5-4.35-17.72-9.62-22.29-9.27Z"/>
      <path class="cls-1" d="m36.07,46.4c.12-.04.22-.08.31-.11,3.07-1.28,6.25-2.13,9.53-2.69,3.29-.56,6.6-.83,9.94-.87.22,0,.58-.12.64-.28.62-1.71,1.19-3.44,1.8-5.22-5.38-.08-19.38,5.72-22.21,9.17Z"/>
    </g>
  </g>
</svg>