<?xml version="1.0" encoding="UTF-8"?>
<svg id="Layer_2" data-name="Layer 2" xmlns="http://www.w3.org/2000/svg" viewBox="0 0 54 54">
  <defs>
    <style>
      .cls-1 {
        stroke-width: 0px;
        fill: #fff;
      }
    </style>
  </defs>
  <g id="Layer_1-2" data-name="Layer 1">
    <g>
      <path class="cls-1" d="m53.78,37.96c-.6-1.42-1.2-2.85-1.8-4.27-.47-1.11-1.28-1.45-2.38-.99-1.46.61-2.91,1.23-4.37,1.85-.95.41-1.36,1.27-1.02,2.12.35.86,1.29,1.19,2.26.79.34-.14.69-.28,1.13-.45-.14.32-.23.53-.32.74-3.99,8.63-12.88,13.85-22.35,13.11-5.35-.42-9.98-2.5-13.88-6.18-3.12-2.95-5.19-6.53-6.32-10.66-.27-.99-1.11-1.48-2.01-1.22-.83.24-1.32,1.11-1.05,2.03,2.85,9.69,9.14,15.89,18.88,18.55,1.1.3,2.24.43,3.36.65h5.59c1.07-.21,2.14-.36,3.19-.63,8.13-2.08,13.97-6.95,17.56-14.54.06-.14.13-.27.23-.48.16.35.29.64.41.93.27.66.73,1.07,1.47,1.09.76.02,1.26-.36,1.54-1.05.02-.04.06-.08.09-.12v-.85c-.07-.13-.16-.26-.22-.4Z"/>
      <path class="cls-1" d="m22.76,42.9c0,.79.39,1.36,1.06,1.6.66.23,1.29.05,1.79-.54.42-.5.83-1,1.25-1.5,3.93-4.76,7.86-9.52,11.8-14.28.47-.57.71-1.18.37-1.89-.33-.71-.94-.93-1.69-.92-1.42.02-2.85,0-4.27,0h-1.23c0-.26,0-.45,0-.64,0-4.52,0-9.05,0-13.57,0-.83-.38-1.41-1.06-1.65-.67-.24-1.31-.05-1.82.58-4.36,5.27-8.72,10.55-13.07,15.83-.15.19-.3.4-.38.63-.37,1.05.39,2.08,1.55,2.09,1.88.02,3.76,0,5.71,0v.58c0,4.56,0,9.12,0,13.68Z"/>
      <path class="cls-1" d="m4.16,21.17c1.58-.64,3.15-1.3,4.71-1.98.87-.38,1.21-1.29.86-2.1-.35-.79-1.23-1.14-2.08-.81-.34.13-.67.27-1.1.45.13-.3.21-.51.3-.71C13.05,3.02,29.93-.92,41.24,7.99c3.98,3.14,6.62,7.17,7.97,12.07.29,1.04,1.11,1.54,2.02,1.28.87-.25,1.29-1.13,1.02-2.13C48.84,6.58,36.66-1.62,23.78.27,14.54,1.63,7.88,6.69,3.77,15.1c-.07.14-.14.27-.25.49-.17-.4-.3-.72-.44-1.03-.42-.96-1.26-1.4-2.11-1.04C0,13.94-.19,14.6.17,15.72c.52,1.58,1.25,3.09,1.92,4.62.37.84,1.22,1.18,2.07.83Z"/>
    </g>
  </g>
</svg>