<?xml version="1.0" encoding="UTF-8"?>
<svg id="Layer_2" data-name="Layer 2" xmlns="http://www.w3.org/2000/svg" viewBox="0 0 53.24 53.43">
  <defs>
    <style>
      .cls-1 {
        stroke-width: 0px;
        fill: #fff;
      }
    </style>
  </defs>
  <g id="Layer_2-2" data-name="Layer 2">
    <path class="cls-1" d="m14.39,0c.66.31,1.33.61,2.01.92.08-.11.15-.22.24-.31.5-.52,1.26-.36,1.5.34.21.61.38,1.23.53,1.86.15.59-.19,1.09-.8,1.14-.68.05-1.36.08-2.04.05-.8-.04-1.03-.75-.52-1.61-.94-.56-1.97-.89-3.04-1.05C6.93.57,2.2,3.9,1.17,9.16c-.43,2.21-.08,4.33.96,6.33.08.15.17.29.24.44.24.51.1,1-.35,1.24-.43.23-.91.09-1.18-.38-.3-.52-.56-1.07-.84-1.61,0-2.84,0-5.68,0-8.52.06-.11.14-.21.19-.32C1.51,3.42,3.65,1.38,6.61.2c.13-.05.25-.14.37-.2,2.47,0,4.94,0,7.42,0Z"/>
    <path class="cls-1" d="m22.74,5.15c.17,0,.33-.02.49-.02,8.54,0,17.08,0,25.62,0,2.09,0,3.64,1.06,4.19,2.87.13.43.2.9.2,1.36.01,9.28.01,18.56,0,27.84,0,2.45-1.77,4.2-4.24,4.2-4.41,0-8.82,0-13.23,0-.22,0-.44,0-.71,0v6.51c.77,0,1.5,0,2.24,0,1.37,0,2.73,0,4.1,0,.96,0,1.81.33,2.51.99.49.46.8,1.02.81,1.7.01.92,0,1.84,0,2.81H8.71c0-1.09-.13-2.23.03-3.31.19-1.25,1.6-2.16,3.11-2.18,1.9-.03,3.8-.01,5.7-.01.22,0,.44,0,.72,0v-6.51c-.23,0-.44,0-.66,0-4.39,0-8.78,0-13.17,0-2.6,0-4.33-1.73-4.34-4.33,0-5.96,0-11.92,0-17.88,0-.18,0-.35,0-.55.55.12.9.32.96.91.05.45.26.88.36,1.33.26,1.17.88,2.02,2.09,2.37v11.22h46.3c0-.16,0-.33,0-.51,0-8.17,0-16.35,0-24.52,0-.78-.15-.92-.94-.92-8.15,0-16.31,0-24.46.01-.53,0-.71-.16-.83-.66-.22-.91-.55-1.79-.85-2.74Z"/>
    <path class="cls-1" d="m16.42,6.63c-.64.74-.38,1.45-.05,2.23.22.51.46.85.99.95.37.07.48.29.43.63-.01.11-.02.22,0,.33.11.75-.02,1.33-.92,1.48-.13.02-.26.22-.34.37-.09.17-.1.4-.2.57-.39.61-.37,1.15-.09,1.84.24.6-.58.81-.88,1.22-.11.14-.47.29-.56.22-1-.73-1.76.19-2.61.37-.1.02-.2.26-.23.41-.12.65-.51.77-1.14.78-.74.01-1.29-.07-1.43-.92-.02-.13-.18-.27-.31-.33-.45-.21-.9-.42-1.37-.57-.18-.06-.45-.02-.61.09-.54.36-.94.25-1.29-.26-.01-.02-.02-.03-.04-.04-.64-.43-.82-.96-.36-1.65.08-.11.03-.34-.02-.5-.06-.19-.21-.36-.25-.55-.16-.69-.54-1.08-1.23-1.36-.59-.24-.17-.94-.24-1.44-.03-.2.12-.59.24-.61,1.22-.2,1.11-1.37,1.57-2.11.09-.15-.15-.54-.28-.8-.14-.28-.12-.48.13-.67.12-.09.23-.19.31-.31.44-.61.95-.86,1.65-.37.11.08.34.03.5-.02.19-.06.36-.21.55-.26.69-.17,1.1-.53,1.36-1.23.22-.59.91-.18,1.38-.24.22-.03.64.12.66.24.2,1.23,1.38,1.11,2.12,1.58.15.09.54-.15.8-.28.27-.14.46-.13.67.11.33.37.7.7,1.1,1.1Zm-5.66.98c-1.87-.02-3.36,1.43-3.37,3.29-.02,1.83,1.43,3.33,3.25,3.37,1.84.04,3.38-1.44,3.41-3.28.03-1.85-1.44-3.36-3.29-3.39Z"/>
    <path class="cls-1" d="m45.54,32.73h-4.13c0-.22,0-.42,0-.62,0-4.98,0-9.96,0-14.94,0-.99.22-1.2,1.2-1.2.59,0,1.18,0,1.77,0,.92,0,1.15.22,1.15,1.14,0,4.13,0,8.26,0,12.4,0,1.07,0,2.13,0,3.23Z"/>
    <path class="cls-1" d="m5.02,20.91c-.26.43-.56.72-1.05.62-.49-.09-.66-.47-.78-.9-.13-.5-.3-.99-.42-1.49-.18-.74.16-1.18.91-1.23.52-.03,1.03-.05,1.55-.08.45-.03.92.02,1.06.49.1.34,0,.74-.03,1.24,1.33.74,2.95,1.13,4.65,1.07,7.34-.25,11.74-7.85,8.32-14.36-.21-.4-.39-.81-.05-1.18.18-.2.56-.38.8-.33.29.07.61.34.76.61,3.03,5.39,1.18,12.29-4.19,15.42-3.63,2.12-7.38,2.15-11.16.31-.12-.06-.23-.12-.38-.21Z"/>
    <path class="cls-1" d="m40.91,12.26c-.25-.26-.59-.48-.73-.79-.22-.47.11-1,.64-1.07.89-.12,1.8-.2,2.7-.23.55-.02.9.43.85,1-.07.73-.17,1.47-.24,2.2-.05.5-.22.92-.77,1-.58.09-.88-.27-1.06-.84-.17.15-.31.28-.45.41-1.7,1.72-3.41,3.42-5.09,5.16-.46.47-.91.58-1.53.37-2.11-.71-4.24-1.38-6.35-2.08-.35-.12-.6-.08-.9.15-2.22,1.75-4.44,3.48-6.68,5.2-.22.17-.55.37-.78.32-.29-.07-.63-.32-.77-.58-.2-.37,0-.74.34-1.01,1.22-.95,2.44-1.9,3.67-2.86,1.25-.97,2.51-1.94,3.75-2.92.37-.29.73-.35,1.18-.2,2.15.71,4.31,1.4,6.46,2.11.34.11.55.06.81-.2,1.71-1.7,3.45-3.39,5.17-5.08-.07-.02-.14-.04-.21-.06Z"/>
    <path class="cls-1" d="m30.19,32.74h-4.06c0-.19,0-.35,0-.51,0-3.25,0-6.49,0-9.74,0-.88.24-1.12,1.11-1.12.72,0,1.44-.01,2.16,0,.54.01.84.29.84.82,0,3.45,0,6.9,0,10.34,0,.05-.02.1-.05.19Z"/>
    <path class="cls-1" d="m37.84,32.74h-4.07c0-.17,0-.35,0-.52,0-2.67,0-5.34,0-8.02,0-.85.24-1.08,1.08-1.09.72,0,1.44,0,2.16,0,.6,0,.87.25.88.83.01,2.86,0,5.71,0,8.57,0,.07-.03.14-.04.23Z"/>
    <path class="cls-1" d="m18.48,32.73c0-1.84,0-3.65,0-5.45,0-.51.32-.78.81-.79.83-.02,1.66-.02,2.49,0,.46.01.79.26.8.74.02,1.82,0,3.64,0,5.5h-4.1Z"/>
  </g>
</svg>