<?xml version="1.0" encoding="UTF-8"?>
<svg id="Layer_2" data-name="Layer 2" xmlns="http://www.w3.org/2000/svg" viewBox="0 0 55.41 56.1">
  <defs>
    <style>
      .cls-1, .cls-2 {
        stroke-width: 0px;
      }

      .cls-1 {
        fill: #fff;
      }
    </style>
  </defs>
  <g id="Layer_2-2" data-name="Layer 2">
    <path class="cls-1" d="m0,32.84h5.38v-11.23h8.43v.59c0,2.46.01,4.92-.01,7.39,0,.3-.13.65-.32.88-1.26,1.6-2.27,3.33-2.95,5.26-.09.25-.15.46-.5.45-3.34-.02-6.69-.02-10.03-.03v-3.31Z"/>
    <path class="cls-1" d="m27.21,56.1c-7.93-.01-14.41-6.49-14.41-14.42,0-7.95,6.52-14.46,14.45-14.44,7.96.02,14.44,6.54,14.41,14.49-.03,7.94-6.52,14.39-14.45,14.38Zm-5.57-10.47c.17,2.67,1.51,4.38,3.96,5.34v2.44h3.29v-2.46c.23-.09.43-.18.63-.27,3.18-1.42,4.29-5.43,2.29-8.27-1.14-1.62-2.74-2.36-4.71-2.42-1.17-.03-2.09-1-2.14-2.18-.05-1.12.82-2.17,1.94-2.32,1.19-.17,2.29.59,2.55,1.76.04.16.07.31.11.46h3.22c.01-.11.03-.18.02-.25-.19-2.29-1.33-3.93-3.43-4.85-.39-.17-.52-.35-.49-.76.04-.63,0-1.27,0-1.93h-3.31c0,.66-.03,1.29.01,1.91.03.44-.13.62-.53.79-3.58,1.53-4.54,6.04-1.92,8.9,1.1,1.2,2.49,1.76,4.11,1.81,1.27.04,2.19.97,2.25,2.19.05,1.12-.82,2.18-1.93,2.32-1.27.16-2.3-.59-2.57-1.86-.03-.12-.07-.23-.11-.35h-3.25Z"/>
    <path class="cls-1" d="m40.67,0h8.39v32.86h6.36v3.28c-.18.01-.36.03-.53.03-3.42,0-6.83,0-10.25.01-.42,0-.61-.12-.75-.52-.66-1.91-1.67-3.62-2.93-5.2-.18-.22-.31-.55-.31-.83-.02-9.7-.01-19.39-.01-29.09,0-.16.01-.32.02-.54Z"/>
    <path class="cls-1" d="m28.9,23.87V6.99h8.4v19.92c-1.34-.64-2.65-1.38-4.04-1.88-1.38-.5-2.85-.77-4.36-1.16Z"/>
    <path class="cls-1" d="m17.16,14.3h8.38v9.57c-1.48.39-2.96.66-4.36,1.17-1.38.5-2.67,1.24-4.01,1.88v-12.62Z"/>
    <path class="cls-2" d="m21.64,45.64h3.25c.04.12.08.23.11.35.27,1.27,1.3,2.02,2.57,1.86,1.11-.14,1.99-1.19,1.93-2.32-.06-1.22-.99-2.16-2.25-2.19-1.63-.05-3.01-.61-4.11-1.81-2.63-2.85-1.66-7.36,1.92-8.9.4-.17.56-.35.53-.79-.04-.62-.01-1.24-.01-1.91h3.31c0,.65.03,1.29,0,1.93-.02.41.11.59.49.76,2.1.92,3.24,2.56,3.43,4.85,0,.07-.01.14-.02.25h-3.22c-.03-.14-.07-.3-.11-.46-.26-1.17-1.36-1.93-2.55-1.76-1.11.16-1.99,1.2-1.94,2.32.05,1.18.97,2.15,2.14,2.18,1.96.06,3.56.8,4.71,2.42,2.01,2.84.89,6.85-2.29,8.27-.2.09-.4.17-.63.27v2.46h-3.29v-2.44c-2.44-.96-3.79-2.67-3.96-5.34Z"/>
  </g>
</svg>