<?xml version="1.0" encoding="UTF-8"?>
<svg id="Layer_2" data-name="Layer 2" xmlns="http://www.w3.org/2000/svg" viewBox="0 0 54 54">
  <defs>
    <style>
      .cls-1 {
        stroke-width: 0px;
        fill: #fff;
      }
    </style>
  </defs>
  <g id="Layer_1-2" data-name="Layer 1">
    <g>
      <path class="cls-1" d="m53.93,22.17c-.65-2.09-1.84-2.98-4.02-2.98-4.69,0-9.38,0-14.07,0-2.45,0-3.99,1.54-3.99,3.97,0,6.92,0,13.84,0,20.76v.58h22.15v-22.25s-.06-.05-.07-.08Zm-9.5,16.53c-.46.16-.56.39-.55.83.03.79-.37,1.26-1.01,1.28-.65.02-1.08-.48-1.09-1.27,0-.16,0-.31,0-.5-.39-.09-.78-.12-1.13-.27-.56-.23-1.12-.5-1.64-.82-.49-.3-.6-.91-.32-1.39.29-.49.88-.65,1.42-.38.51.25,1.02.5,1.63.79.02-.32.04-.49.04-.66,0-1.28-.01-2.56,0-3.85,0-.36-.06-.6-.43-.72-.24-.08-.46-.25-.69-.38-1.3-.73-1.89-1.86-1.73-3.33.16-1.5.93-2.6,2.36-3.15.4-.16.52-.34.51-.75-.02-.75.43-1.24,1.06-1.24.62,0,1.04.46,1.02,1.21,0,.37.13.47.46.61.59.24,1.18.54,1.69.92.51.39.52,1.06.13,1.49-.39.44-1,.47-1.51.07-.2-.16-.42-.29-.75-.51,0,1.3,0,2.44.01,3.58,0,.13.15.27.25.38.07.07.19.08.29.11,1.84.69,2.84,2.01,2.86,3.75.02,1.82-1.15,3.58-2.88,4.2Z"/>
      <path class="cls-1" d="m2.11,7.6c0,1.3.6,1.89,1.91,1.89,6.62,0,13.24-.03,19.87.02,2.02.02,2.6-.61,2.49-2.54-.04-.72-.32-1.24-.96-1.57-.72-.36-1.44-.72-2.16-1.08-2.86-1.44-5.73-2.88-8.59-4.32h-.84s-.07.07-.12.1c-3.53,1.76-7.06,3.52-10.6,5.28-.66.33-1.01.85-1,1.59,0,.21,0,.42,0,.63Z"/>
      <path class="cls-1" d="m31.87,50.58c.1,1.85,1.68,3.39,3.54,3.4,5.01.03,10.02.02,15.03,0,1.54,0,2.87-1.05,3.37-2.52.06-.18.13-.35.2-.53v-3.27h-22.14c0,1.02-.04,1.97,0,2.92Z"/>
      <path class="cls-1" d="m2.11,41.59c0,3.6,0,7.2,0,10.81,0,.92.68,1.58,1.61,1.59,1.41.01,2.81,0,4.22,0,.5,0,1.01,0,1.55,0v-.63c0-2.39,0-4.78,0-7.17,0-1.03.66-1.68,1.68-1.69,2.04,0,4.08,0,6.12,0,1.03,0,1.68.66,1.69,1.68,0,1.41,0,2.81,0,4.22,0,1.17,0,2.35,0,3.59,1.9,0,3.72,0,5.55,0,1.23,0,1.83-.62,1.83-1.85,0-3.41,0-6.82,0-10.23v-.55H2.14c-.01.09-.03.16-.03.22Z"/>
      <path class="cls-1" d="m5.28,12.68v10.52c-.53,0-.98,0-1.44,0-1.02,0-1.74.66-1.73,1.58,0,.92.72,1.58,1.74,1.58,6.92,0,13.85,0,20.77,0,1.03,0,1.74-.65,1.74-1.58,0-.92-.71-1.58-1.73-1.58-.47,0-.93,0-1.46,0v-10.51h-3.15v10.49h-4.21v-10.48h-3.17v10.47h-4.23v-10.49h-3.13Z"/>
      <path class="cls-1" d="m26.23,32.73c-.4-.62-.93-.89-1.67-.89-2.7.02-5.41,0-8.11,0h-.62v-2.28h-3.17v2.28c-2.97,0-5.87,0-8.77,0-.7,0-1.21.26-1.59.84-.63.97-1.28,1.93-1.93,2.89-.39.57-.5,1.16-.15,1.78.33.6.87.82,1.54.82,8.33,0,16.65,0,24.98,0,.67,0,1.2-.22,1.54-.82.35-.62.24-1.21-.14-1.78-.64-.95-1.28-1.89-1.9-2.85Z"/>
      <path class="cls-1" d="m39.13,10.55h2.22c0,1.27-.01,2.46,0,3.65.01.93.71,1.63,1.59,1.62.86,0,1.55-.69,1.56-1.59.02-1.76.02-3.51,0-5.27,0-.9-.68-1.56-1.58-1.57-3.87-.01-7.73,0-11.6,0-.68,0-1.18.35-1.45.97-.47,1.07.33,2.19,1.56,2.19,2.57,0,5.13,0,7.7,0Z"/>
      <path class="cls-1" d="m12.7,53.97h3.1v-6.26h-3.1v6.26Z"/>
      <path class="cls-1" d="m43.92,32.87v3.71c.83-.37,1.34-1.27,1.26-2.15-.07-.81-.51-1.36-1.26-1.56Z"/>
      <path class="cls-1" d="m41.73,29.5v-2.49c-.96.86-.95,1.98,0,2.49Z"/>
    </g>
  </g>
</svg>