<svg xmlns="http://www.w3.org/2000/svg" width="100" height="100" viewBox="0 0 100 100" fill="none">
  <g clip-path="url(#clip0_726_1737)">
    <path d="M100 73.7613C99.9269 73.9215 99.8382 74.0756 99.786 74.245C98.9589 76.9444 97.2551 78.3927 94.8284 78.3989C90.2074 78.4112 85.5864 78.405 80.9628 78.3989C79.7469 78.3989 79.0737 77.7518 79.0998 76.6455C79.1233 75.5793 79.7808 74.9507 80.9393 74.9476C85.4299 74.9384 89.923 74.9476 94.4136 74.9415C96.3783 74.9415 97.0672 74.1372 97.0698 71.8415C97.0724 67.851 97.0698 63.8574 97.0698 59.7868H2.9302C2.9302 61.1796 2.9302 62.5509 2.9302 63.9221C2.9302 66.5753 2.9302 69.2253 2.9302 71.8785C2.93281 74.1156 3.62427 74.9415 5.51859 74.9415C28.2035 74.9415 50.8885 74.9415 73.5734 74.9415C73.8656 74.9415 74.1605 74.9322 74.4527 74.9445C75.5016 74.9939 76.1618 75.681 76.1539 76.7041C76.1461 77.724 75.486 78.3958 74.4266 78.3958C70.0013 78.405 65.5734 78.3989 61.1481 78.3989C59.8643 78.3989 59.88 78.3989 59.7339 79.9704C59.3581 84.0195 60.6471 87.2581 63.2094 89.8435C63.5173 90.1547 64.0078 90.2934 64.4279 90.3581C65.0046 90.4474 65.5995 90.3458 66.1813 90.4074C68.3105 90.6354 69.8682 91.7817 70.5597 94.29C70.7815 95.0912 71.0815 95.8647 71.2824 96.672C71.6947 98.3453 70.8597 99.772 69.3907 99.9661C69.1663 99.9969 68.9367 99.9846 68.7071 99.9846C56.2427 99.9846 43.7756 99.9939 31.3112 99.96C30.6667 99.96 29.9335 99.7535 29.396 99.3529C28.6106 98.7705 28.4149 97.7505 28.7097 96.6936C29.0124 95.5997 29.3125 94.4965 29.7221 93.455C30.4788 91.5321 31.8852 90.6755 33.5995 90.4135C33.8239 90.3797 34.0639 90.3273 34.2805 90.3796C36.1905 90.8665 37.3098 89.5415 38.3457 87.9669C40.2087 85.1381 40.7071 81.9826 40.0339 78.3835H38.8754C27.7782 78.3835 16.6784 78.3835 5.58121 78.3835C1.9987 78.3835 0.00521853 76.0477 0.00521853 71.8477C0 50.074 0 28.2787 0 6.4865C0 2.4621 2.0561 0.0123259 5.4638 0.0123259C35.1468 0.00616295 64.8297 0.0123259 94.5127 0C97.3803 0 99.1207 1.68249 100.003 4.79477V73.7613H100ZM8.39922 9.99014V11.4015C8.39922 20.5504 8.39922 29.6993 8.39922 38.8481C8.39922 39.2333 8.43314 39.6278 8.3653 39.9975C8.20613 40.8942 7.70515 41.4335 6.9302 41.4304C6.15525 41.4304 5.65688 40.8912 5.50294 39.9883C5.44031 39.6185 5.47162 39.221 5.47162 38.8389C5.47162 28.9227 5.47162 19.0035 5.47162 9.08727C5.47162 6.93332 5.86823 6.46802 7.72081 6.46802C35.9087 6.46802 64.0965 6.46802 92.2844 6.46802C94.1344 6.46802 94.5336 6.93332 94.5336 9.08727C94.5336 24.3467 94.5336 39.6093 94.5336 54.8687V56.1876H97.0724V55.1183C97.0724 38.9344 97.0724 22.7505 97.0724 6.56662C97.0724 4.33255 96.3261 3.46974 94.3875 3.46974C64.801 3.46974 35.212 3.46974 5.62557 3.46974C3.64253 3.46974 2.93542 4.32023 2.93281 6.67447C2.93281 22.7813 2.93281 38.8882 2.93281 54.9951V56.1845H5.47162C5.47162 55.7439 5.47162 55.3679 5.47162 54.992C5.47162 52.3019 5.4638 49.6117 5.47684 46.9185C5.48206 45.6644 6.05871 44.9156 6.94847 44.9248C7.82779 44.9341 8.37573 45.6921 8.39922 46.9493C8.40704 47.3715 8.39922 47.7937 8.39922 48.2189C8.39922 50.8597 8.39922 53.5006 8.39922 56.1753H91.5486V47.1589C91.0815 47.1589 90.6667 47.1589 90.2518 47.1589C71.3399 47.1589 52.4279 47.1589 33.5186 47.1589C31.6217 47.1589 31.2511 46.7152 31.2511 44.4472C31.2511 33.4155 31.2511 22.3838 31.2511 11.3491C31.2511 10.9053 31.2511 10.4616 31.2511 9.98706H8.39922V9.99014ZM65.3412 43.6984C65.3412 43.1252 65.3412 42.7123 65.3412 42.2994C65.3412 39.9544 65.3333 37.6125 65.3438 35.2675C65.3516 33.4556 65.7978 32.9317 67.3164 32.9317C72.0339 32.9317 76.7541 32.9317 81.4716 32.9317C83.3764 32.9317 83.7469 33.3693 83.7469 35.6249C83.7469 38.2688 83.7469 40.9127 83.7469 43.6306H91.5277V9.99014H34.2596V43.5967H42.0431C42.0431 40.7309 42.0352 37.9668 42.0457 35.2028C42.0509 33.4864 42.5336 32.9317 43.987 32.9286C48.8036 32.9256 53.6177 32.9286 58.4344 32.9286C60.0078 32.9286 60.4436 33.4463 60.4514 35.3353C60.4592 37.7943 60.4566 40.2533 60.4514 42.7123C60.4514 43.2331 60.4227 43.72 61.0776 43.7046C62.4423 43.6768 63.8069 43.6953 65.3412 43.6953V43.6984ZM59.1311 90.3304C58.4318 88.426 57.5212 86.611 57.1115 84.6512C56.7019 82.6883 56.7932 80.5806 56.6601 78.4852H43.1781C43.3372 83.9733 43.4781 84.6974 40.681 90.3334H59.1285L59.1311 90.3304ZM32 96.4255H68.0078C67.6034 94.3055 67.1572 93.8525 65.4794 93.8525C55.1624 93.8494 44.8428 93.8494 34.5258 93.8525C32.848 93.8525 32.4018 94.3055 32.0026 96.4255H32ZM45.0646 37.7357V42.3425C46.2127 41.5383 47.2329 40.8234 48.3627 40.0314C47.2042 39.2241 46.1787 38.5123 45.0646 37.7357ZM80.7645 37.7203C79.6164 38.5154 78.591 39.2272 77.422 40.0376C78.5675 40.8326 79.606 41.5568 80.7645 42.361V37.7203ZM68.3705 37.7481V42.3241C69.5212 41.5198 70.5258 40.8141 71.6451 40.0314C70.4866 39.2241 69.4899 38.5277 68.3705 37.7481ZM54.1526 40.0345C55.2903 40.8265 56.3001 41.5321 57.4455 42.3271V37.745C56.3157 38.5308 55.3059 39.2333 54.1526 40.0345ZM49.2629 43.6429H53.2655C51.6869 41.8834 50.8363 41.8834 49.2629 43.6429ZM76.6445 43.6429C74.6327 41.8526 74.0326 41.8649 72.6027 43.6429H76.6445ZM53.3151 36.497H49.1559C50.6084 37.6515 51.9948 37.6515 53.3151 36.497ZM76.5114 36.5001H72.4671C74.5675 38.2319 74.8232 38.2226 76.5114 36.5001Z" fill="white"/>
    <path d="M50.0196 65.654C50.6667 65.654 51.319 65.6139 51.9635 65.6632C52.7619 65.7279 53.2133 66.335 53.2707 67.2255C53.3281 68.1253 52.9237 68.8987 52.1566 68.9665C50.7423 69.0898 49.3098 69.0929 47.893 68.9881C47.1285 68.9326 46.6901 68.1993 46.7241 67.2902C46.7606 66.3411 47.2303 65.7187 48.0731 65.657C48.7175 65.6108 49.3699 65.6478 50.017 65.6478C50.017 65.6478 50.017 65.6478 50.017 65.6509L50.0196 65.654Z" fill="white"/>
    <path d="M19.7939 17.7863C17.7456 17.7863 15.6973 17.7955 13.6517 17.7863C12.407 17.7801 11.7391 17.1762 11.726 16.0915C11.713 14.9914 12.3914 14.3381 13.6099 14.3351C17.7691 14.3258 21.9309 14.332 26.09 14.332C26.2205 14.332 26.3509 14.3258 26.4788 14.3412C27.4129 14.446 27.9609 15.1054 27.9478 16.1007C27.9348 17.093 27.3816 17.7555 26.4214 17.7709C24.2114 17.8048 22.0013 17.7832 19.7913 17.7832V17.7894L19.7939 17.7863Z" fill="white"/>
    <path d="M19.82 26.664C17.7065 26.664 15.593 26.6825 13.4821 26.6578C12.3653 26.6455 11.6973 25.9244 11.7286 24.8552C11.7547 23.9338 12.334 23.2282 13.195 23.222C17.6151 23.2004 22.0378 23.2004 26.4579 23.222C27.3947 23.2251 27.9556 23.9215 27.953 24.9199C27.9504 25.9368 27.3607 26.6363 26.3536 26.6548C24.1748 26.6917 21.9987 26.6671 19.82 26.6671V26.664Z" fill="white"/>
    <path d="M19.82 35.4801C17.7065 35.4801 15.593 35.4894 13.4795 35.477C12.407 35.4709 11.7547 34.833 11.726 33.8131C11.6947 32.7469 12.3757 32.0289 13.4821 32.0289C17.7404 32.0196 22.0013 32.0166 26.2596 32.0289C27.3268 32.032 27.953 32.7068 27.953 33.7607C27.953 34.8207 27.3294 35.4709 26.257 35.4801C24.1122 35.4955 21.9648 35.4832 19.82 35.4832V35.4801Z" fill="white"/>
    <path d="M19.82 44.3113C17.7404 44.3113 15.6608 44.3205 13.5786 44.3113C12.4044 44.3051 11.7521 43.7073 11.726 42.6535C11.6973 41.5565 12.3862 40.8631 13.5838 40.86C17.7769 40.8477 21.97 40.8446 26.1605 40.86C27.3659 40.8662 28.0052 41.5688 27.9478 42.7151C27.8982 43.695 27.3425 44.2897 26.3509 44.302C24.1748 44.3267 21.9961 44.3113 19.8173 44.3113H19.82Z" fill="white"/>
    <path d="M55.7887 16.8715C57.1481 17.2967 58.5362 17.6203 59.8565 18.1749C61.9335 19.047 63.94 19.0347 66.0118 18.1626C67.3399 17.6048 68.7384 17.2782 70.077 16.6342C68.8924 16.6342 67.7078 16.6496 66.5258 16.6311C65.3777 16.6126 64.7176 15.9563 64.7306 14.8932C64.741 13.8393 65.4142 13.1829 66.5623 13.1829C71.6712 13.1737 76.7828 13.1706 81.8917 13.1829C83.2146 13.186 83.7365 13.7992 83.7417 15.3554C83.7574 19.047 83.7574 22.7355 83.7417 26.4271C83.7339 27.9124 83.1964 28.5502 81.9543 28.5533C69.2603 28.5595 56.5662 28.5595 43.8722 28.5533C42.5754 28.5533 42.0509 27.9216 42.0457 26.3593C42.0326 22.7078 42.0326 19.0562 42.0457 15.4047C42.0509 13.8054 42.544 13.1922 43.8539 13.186C49.2238 13.1706 54.5962 13.1737 59.9661 13.186C61.1403 13.186 61.7613 13.8146 61.7639 14.9116C61.7639 15.9593 61.2029 16.6034 60.1696 16.628C58.7215 16.6619 57.2707 16.6373 55.8226 16.6373C55.8121 16.7174 55.7991 16.7975 55.7887 16.8776V16.8715ZM45.0255 17.158V24.5628C48.9863 23.3487 52.8558 22.1624 56.7254 20.976C56.7254 20.8989 56.7228 20.825 56.7202 20.748C52.8559 19.5616 48.9941 18.3752 45.0255 17.155V17.158ZM69.1089 20.748C69.1011 20.8219 69.0933 20.8959 69.0855 20.9729C72.955 22.1593 76.8219 23.3426 80.7463 24.5474V17.1796C76.8037 18.3906 72.955 19.5708 69.1063 20.751L69.1089 20.748ZM70.1526 25.062C70.1735 25.0035 70.197 24.9449 70.2179 24.8895C67.8695 24.1776 65.5238 23.4627 63.1755 22.7571C63.0241 22.7109 62.8467 22.6985 62.6954 22.7417C60.3236 23.4535 57.957 24.1807 55.5877 24.9018C55.5982 24.9542 55.6086 25.0096 55.6191 25.062H70.1553H70.1526Z" fill="white"/>
  </g>
  <defs>
    <clipPath id="clip0_726_1737">
      <rect width="100" height="100" fill="white"/>
    </clipPath>
  </defs>
</svg>