<svg xmlns="http://www.w3.org/2000/svg" width="100" height="100" viewBox="0 0 100 100" fill="none">
  <g clip-path="url(#clip0_726_1696)">
    <path d="M61.0689 74.2745C61.2127 78.1295 61.5735 81.751 63.2257 85.1093C64.6365 87.9761 66.8475 89.586 70.16 89.453C71.3429 89.4041 72.5312 89.4204 73.714 89.453C76.5789 89.5344 78.7086 91.5352 78.9392 94.3831C79.0098 95.2572 79.0152 96.1477 78.9392 97.0191C78.7873 98.7322 77.4824 99.9186 75.7732 99.9919C75.5019 100.003 75.2306 99.9973 74.962 99.9973C58.3397 99.9973 41.72 99.9973 25.0977 99.9973C22.2083 99.9973 21.0472 98.8408 21.0689 95.9169C21.0743 95.0428 21.0798 94.136 21.2914 93.2999C21.8557 91.0683 23.8524 89.5453 26.2154 89.4584C27.4335 89.4122 28.6544 89.4014 29.8698 89.453C33.1823 89.5914 35.3879 87.9788 36.815 85.1201C38.1226 82.5003 38.5865 79.6688 38.8416 76.7911C38.9094 76.0201 38.9284 75.2437 38.9772 74.3288C38.5377 74.307 38.1525 74.2745 37.7645 74.2745C27.8784 74.2718 17.9924 74.174 8.11177 74.3125C3.10363 74.3858 -0.0271379 70.661 -8.1992e-06 66.206C0.111223 48.2883 0.0433993 30.3706 0.0488252 12.4555C0.0488252 8.68468 2.29788 5.78254 5.82745 5.00611C6.44872 4.87037 7.10254 4.85408 7.7428 4.84865C10.586 4.83236 13.4292 4.8405 16.2724 4.8405C16.6386 4.8405 17.0049 4.8405 17.3928 4.8405C17.8106 2.31573 19.1237 0.670558 21.5871 0.114022C22.1405 -0.0108592 22.7292 0.00271481 23.3017 0.00271481C41.0092 0 58.714 0 76.4189 0C80.1655 0 81.7146 1.1728 82.6913 4.8405C83.0249 4.8405 83.3912 4.8405 83.7547 4.8405C86.701 4.8405 89.6446 4.81879 92.5909 4.84593C96.8312 4.88394 99.9837 8.0114 99.9891 12.2384C100.005 30.4249 100.005 48.6141 99.9891 66.8006C99.9864 71.1687 96.8177 74.2609 92.3494 74.2663C82.363 74.2826 72.3765 74.2717 62.3901 74.2717C61.9913 74.2717 61.5925 74.2717 61.0662 74.2717L61.0689 74.2745ZM19.8915 13.8808C19.8915 14.2962 19.8915 14.6301 19.8915 14.964C19.8915 25.6658 19.8915 36.3703 19.8915 47.0721C19.8915 49.5914 20.784 50.4737 23.3342 50.4737C41.1069 50.4737 58.8795 50.4737 76.6522 50.4737C79.2675 50.4737 80.1465 49.605 80.1492 47.0232C80.1492 36.354 80.1492 25.6848 80.1492 15.0156C80.1492 14.6545 80.1492 14.2935 80.1492 13.8808H19.8915ZM7.41182 12.2004V61.3981H92.6072V12.2139H82.5882C82.5882 12.6972 82.5882 13.1288 82.5882 13.5605C82.5882 24.8079 82.5936 36.0527 82.5854 47.3001C82.5854 50.8592 80.5344 52.9089 76.9696 52.9116C58.9908 52.9198 41.0146 52.9171 23.0358 52.9062C22.4308 52.9062 21.8068 52.8736 21.2263 52.7216C18.8388 52.0863 17.4579 50.1181 17.4552 47.3653C17.4471 36.0852 17.4525 24.8052 17.4525 13.5252C17.4525 13.0962 17.4525 12.6673 17.4525 12.2004H7.40911H7.41182ZM17.3847 7.28112C14.0613 7.28112 10.8139 7.26754 7.56646 7.28383C4.51166 7.30012 2.4905 9.33351 2.48778 12.4012C2.48236 30.4873 2.48236 48.5734 2.48778 66.6594C2.48778 69.7869 4.49538 71.8284 7.62343 71.8311C35.8898 71.842 64.1563 71.842 92.4227 71.8311C95.5507 71.8311 97.5556 69.7869 97.5556 66.6594C97.561 48.5734 97.561 30.4873 97.5556 12.4012C97.5556 9.33894 95.5263 7.30284 92.4742 7.28655C89.4954 7.27026 86.5165 7.28112 83.5377 7.28655C83.2474 7.28655 82.9571 7.3327 82.6614 7.35985V9.72173C83.0955 9.72173 83.4617 9.72173 83.8253 9.72173C86.5328 9.72173 89.2404 9.72173 91.9506 9.72173C94.3353 9.72173 95.1221 10.5063 95.1221 12.8763C95.1221 28.8286 95.1221 44.7808 95.1221 60.733C95.1221 63.1057 94.3245 63.9093 91.9642 63.9093C64.0016 63.9093 36.0418 63.9093 8.07921 63.9093C5.71893 63.9093 4.92674 63.1057 4.92674 60.7276C4.92674 44.7753 4.92674 28.8231 4.92674 12.8709C4.92674 12.6673 4.92132 12.4637 4.92674 12.2601C4.97829 10.6963 5.91698 9.74345 7.4905 9.72716C10.0977 9.70273 12.7048 9.71902 15.3093 9.71902C15.9767 9.71902 16.6468 9.71902 17.3847 9.71902V7.28112ZM80.1519 11.3479C80.1519 9.48283 80.1519 7.72363 80.1519 5.96444C80.1492 3.32021 79.2675 2.4379 76.6251 2.4379C58.8877 2.4379 41.1503 2.4379 23.4129 2.4379C23.0412 2.4379 22.6641 2.42161 22.2979 2.46233C21.1774 2.58721 20.0678 3.39894 20.0136 4.455C19.8996 6.73544 19.9783 9.02403 19.9783 11.3452H80.1519V11.3479ZM36.8068 89.3688H63.2474C59.3787 85.0007 58.9338 79.6634 58.5784 74.3396H41.4514C41.1232 79.7204 40.6348 85.0115 36.8068 89.3688ZM50.0217 97.5594C55.0325 97.5594 60.0434 97.5594 65.0542 97.5594C68.44 97.5594 71.8258 97.5784 75.2116 97.5349C75.6348 97.5295 76.4189 97.1684 76.4162 96.9811C76.3972 95.7242 76.4352 94.3885 76.0201 93.2374C75.586 92.0429 74.3028 91.88 73.0846 91.88C57.713 91.8909 42.3413 91.8854 26.9696 91.8881C26.6305 91.8881 26.2887 91.8827 25.9577 91.9343C24.6175 92.1488 23.7113 93.0854 23.554 94.4428C23.4916 94.9776 23.4997 95.5233 23.5024 96.0662C23.5051 97.4046 23.6679 97.5594 25.038 97.5594C33.3668 97.5594 41.6956 97.5594 50.0244 97.5594H50.0217Z" fill="white"/>
    <path d="M43.0331 44.2592C43.2447 43.4231 43.4699 42.5082 43.714 41.596C45.6918 34.1819 47.6723 26.7677 49.6581 19.3563C50.2496 17.1519 51.8638 15.9818 53.8741 16.2723C56.0526 16.5845 57.382 18.7075 56.777 20.996C55.1166 27.27 53.4319 33.5385 51.7553 39.8097C51.248 41.7046 50.7705 43.6077 50.2089 45.4836C49.726 47.0908 48.3234 48.0844 46.7173 48.0844C45.1166 48.0844 43.7113 47.0338 43.2447 45.4592C43.1416 45.1063 43.1145 44.7316 43.0358 44.2592H43.0331ZM47.1514 45.6166C47.3521 45.3207 47.8323 44.8809 47.9815 44.3515C49.0098 40.711 49.9701 37.0514 50.9495 33.3973C52.0944 29.1242 53.2393 24.8484 54.376 20.5725C54.6581 19.5138 54.3 18.7835 53.459 18.702C52.561 18.6152 52.23 19.188 52.0266 19.9536C50.6918 24.9814 49.338 30.0038 47.9897 35.0262C47.2029 37.9636 46.4053 40.8956 45.6294 43.8357C45.3527 44.8864 45.8681 45.6655 47.1487 45.6166H47.1514Z" fill="white"/>
    <path d="M34.8483 32.1269C36.5493 33.8209 38.1826 35.3846 39.7452 37.0162C41.8017 39.1636 40.8901 42.492 38.0768 43.1924C36.8017 43.51 35.6378 43.206 34.7045 42.2857C32.1489 39.769 29.6014 37.2416 27.1001 34.6733C25.6812 33.2182 25.6758 31.1034 27.0947 29.6428C29.5933 27.0719 32.1299 24.5335 34.7018 22.0332C36.175 20.5998 38.4159 20.6785 39.8158 22.0983C41.2211 23.5236 41.2536 25.7226 39.8103 27.2158C38.2151 28.8637 36.5521 30.4464 34.8456 32.1269H34.8483ZM37.2629 41.0369C37.6562 40.7002 38.2015 40.4559 38.2721 40.1111C38.3643 39.6686 38.2314 39.0007 37.9302 38.6804C36.2374 36.8832 34.4631 35.1674 32.7214 33.4164C31.6823 32.3739 31.6796 31.9314 32.7186 30.8889C34.4359 29.1623 36.156 27.4411 37.8814 25.7226C38.4566 25.1498 38.6845 24.5335 38.1012 23.8521C37.5884 23.2549 36.8641 23.3064 36.1587 24.0069C33.7821 26.366 31.4137 28.7306 29.0588 31.1115C28.2965 31.8798 28.3046 32.4336 29.067 33.2019C31.4218 35.5801 33.7903 37.9474 36.1695 40.3039C36.4408 40.5726 36.8152 40.7409 37.2656 41.0369H37.2629Z" fill="white"/>
    <path d="M65.2221 32.1541C63.4804 30.4356 61.8254 28.842 60.2167 27.2023C59.1505 26.1136 58.871 24.7834 59.4163 23.3581C59.9454 21.979 61.0061 21.1917 62.4766 21.0288C63.578 20.9066 64.5628 21.2541 65.3496 22.0333C67.8971 24.5581 70.4554 27.0747 72.9486 29.651C74.3702 31.1197 74.3539 33.2156 72.9269 34.6843C70.4256 37.2552 67.8916 39.7963 65.3198 42.2939C63.852 43.7219 61.603 43.6269 60.2058 42.1962C58.8385 40.7953 58.7734 38.6099 60.1678 37.1548C61.7576 35.4933 63.4315 33.916 65.2194 32.1541H65.2221ZM62.775 41.0478C63.2308 40.7356 63.6269 40.5456 63.9199 40.2551C66.253 37.9502 68.5699 35.629 70.884 33.3025C71.7712 32.4093 71.7685 31.8962 70.8678 30.9894C68.5807 28.6873 66.2829 26.3905 63.985 24.0992C63.2091 23.3255 62.5281 23.2468 61.9611 23.8223C61.4049 24.3897 61.4999 25.0521 62.2812 25.8394C63.9741 27.5416 65.6779 29.233 67.3708 30.9351C68.3447 31.9179 68.3366 32.393 67.3436 33.3948C66.4158 34.3314 65.4798 35.2625 64.5493 36.1964C63.6893 37.057 62.7777 37.8769 61.9991 38.8054C61.7386 39.1176 61.6762 39.7528 61.7902 40.1682C61.8797 40.4967 62.3762 40.7112 62.7723 41.0451L62.775 41.0478Z" fill="white"/>
    <path d="M67.6967 4.02339C70.2658 4.02339 72.835 3.98267 75.4015 4.03968C76.758 4.06954 77.8296 5.12832 78.0412 6.43143C78.261 7.78069 77.5176 9.11637 76.2344 9.60775C75.8627 9.74892 75.4476 9.83037 75.0515 9.83037C70.0814 9.84394 65.1139 9.8548 60.1438 9.82494C58.7059 9.81679 57.7102 9.03493 57.3141 7.7834C56.9397 6.60517 57.2734 5.29664 58.3206 4.63965C58.9121 4.26772 59.6934 4.04782 60.3961 4.02611C62.8269 3.95281 65.2631 3.99896 67.6967 3.99896C67.6967 4.0071 67.6967 4.01525 67.6967 4.02611V4.02339ZM67.5881 6.43414C67.0808 6.43414 66.5735 6.43414 66.0662 6.43414C64.2051 6.43414 62.344 6.41514 60.4856 6.45586C60.1953 6.46129 59.9132 6.7572 59.6283 6.91738C59.9186 7.07755 60.2062 7.24315 60.4992 7.3979C60.5534 7.42505 60.6321 7.40333 60.6999 7.40333C65.3011 7.40333 69.8996 7.40333 74.5008 7.40061C74.7694 7.40061 75.0542 7.40061 75.2957 7.30559C75.4368 7.2513 75.5643 7.01782 75.5833 6.85494C75.5941 6.74906 75.4178 6.54816 75.2903 6.51287C75.0352 6.44229 74.7585 6.43957 74.4899 6.43686C72.1893 6.43143 69.8887 6.43414 67.5909 6.43414H67.5881Z" fill="white"/>
    <path d="M24.8865 4.0127C26.4871 4.0127 27.8029 5.30766 27.8192 6.89311C27.8355 8.50842 26.4627 9.85225 24.8295 9.8251C23.218 9.79795 21.9619 8.50299 21.9727 6.88768C21.9836 5.27237 23.2641 4.0127 24.8837 4.0127H24.8865Z" fill="white"/>
    <path d="M32.4467 4.00987C34.0392 4.02345 35.3577 5.34556 35.355 6.92015C35.3496 8.49202 34.0202 9.81685 32.4358 9.82771C30.7918 9.83857 29.4733 8.50288 29.5004 6.85771C29.5275 5.25597 30.8298 3.9963 32.4494 4.00987H32.4467Z" fill="white"/>
    <path d="M42.887 6.95586C42.8599 8.53588 41.5224 9.83356 39.9326 9.82541C38.294 9.81727 36.9727 8.45172 37.027 6.82012C37.0786 5.22381 38.4025 3.98043 40.0167 4.01029C41.6065 4.04016 42.9141 5.38127 42.887 6.95315V6.95586Z" fill="white"/>
  </g>
  <defs>
    <clipPath id="clip0_726_1696">
      <rect width="100" height="100" fill="white"/>
    </clipPath>
  </defs>
</svg>