<?xml version="1.0" encoding="UTF-8"?>
<svg id="Layer_2" data-name="Layer 2" xmlns="http://www.w3.org/2000/svg" viewBox="0 0 52 54">
  <defs>
    <style>
      .cls-1 {
        stroke-width: 0px;
        fill: #fff;
      }
    </style>
  </defs>
  <g id="Layer_1-2" data-name="Layer 1">
    <g>
      <path class="cls-1" d="m34.9,29.6c5.5,5.28,5.26,13.62.42,18.6-4.78,4.92-12.46,5.32-17.72.86-2.96-2.51-4.5-5.76-4.59-9.63-.1-3.86,1.34-7.13,4.07-9.87-6.64,2.39-12.17,6.41-17.08,11.39.09.1.14.17.21.23,3.27,3.32,6.88,6.19,10.93,8.49,3.36,1.91,6.91,3.32,10.73,3.96.88.15,1.76.24,2.65.36h2.95c.14-.03.27-.08.41-.09,2.87-.21,5.63-.92,8.29-1.98,5.58-2.23,10.36-5.68,14.68-9.82.39-.37.78-.73,1.16-1.1-3.98-4.54-13.85-11.11-17.1-11.42Z"/>
      <path class="cls-1" d="m25.97,50.28c6.14.02,11.17-5.02,11.17-11.19,0-6.16-4.99-11.15-11.15-11.14-6.15,0-11.14,4.99-11.14,11.15,0,6.15,4.98,11.17,11.12,11.19Zm-1.15-16.63c.38-.08.76-.1,1.2-.16.72.29,1.31-.07,1.96-.45,1.66-.97,3.8-.38,4.84,1.24,1.06,1.64.67,3.82-.9,4.98-.28.21-.41.42-.46.76-.4,2.71-2.89,4.77-5.63,4.67-2.85-.1-5.16-2.3-5.41-5.13-.24-2.77,1.69-5.37,4.39-5.92Zm-7.24,4.53c.6-.04.94.36.99,1.2.15,2.45,1.2,4.39,3.19,5.83.56.41.68.93.34,1.4-.34.46-.87.51-1.43.1-2.44-1.76-3.72-4.17-3.93-7.16,0-.02,0-.04,0-.05-.02-.86.25-1.28.85-1.32Z"/>
      <path class="cls-1" d="m25.05,9.34c-4.18,1.25-5.84,4.59-7.16,8.32h16.24c-.46-1.08-.81-2.11-1.31-3.06-1.25-2.39-2.87-4.42-5.65-5.15-.1-.03-.23-.21-.23-.33-.02-1.16-.01-2.31-.01-3.54,1.26,0,2.45,0,3.64,0,1.11,0,1.89-.77,1.92-1.88.02-.6.02-1.19,0-1.79-.03-1.14-.8-1.9-1.94-1.91-1.17,0-2.35,0-3.52,0-1.19,0-1.97.78-1.97,1.99,0,1.69,0,3.37,0,5.06,0,.77,0,1.54,0,2.29Zm1.9-7.42h3.64v1.77h-3.64v-1.77Z"/>
      <path class="cls-1" d="m7.22,22.35c6.26,0,12.51,0,18.77,0,6.19,0,12.37,0,18.56,0,.19,0,.39,0,.58-.01.79-.09,1.31-.7,1.28-1.47-.04-.85-.66-1.32-1.75-1.32-12.44,0-24.88,0-37.33,0-.21,0-.42,0-.63.04-.68.13-1.13.69-1.12,1.38.01.85.64,1.37,1.65,1.37Z"/>
      <path class="cls-1" d="m36,17.68h7c-2.7-4.05-6.48-6.3-10.97-7.52,1.95,2.2,3.27,4.71,3.97,7.52Z"/>
      <path class="cls-1" d="m19.95,10.15c-4.5,1.23-8.28,3.47-10.95,7.5h7c.7-2.85,2.05-5.32,3.95-7.5Z"/>
      <path class="cls-1" d="m13.95,24.25v4.51c2.7-1.2,5.46-1.98,8.3-2.43v-2.08h-8.3Z"/>
      <path class="cls-1" d="m38.02,24.25h-8.3v2.09c2.88.43,5.63,1.25,8.3,2.41v-4.51Z"/>
      <path class="cls-1" d="m8.37,24.25v7.44c1.2-.66,2.33-1.28,3.45-1.93.14-.08.24-.33.24-.51.02-1.37.01-2.74.01-4.11v-.89h-3.7Z"/>
      <path class="cls-1" d="m39.93,29.42c0,.14.18.32.33.4.77.45,1.56.87,2.34,1.3.33.18.65.38,1.02.6v-7.46h-3.7c0,1.75,0,3.45.01,5.15Z"/>
      <path class="cls-1" d="m27.82,24.25h-3.66v1.85h3.66v-1.85Z"/>
      <path class="cls-1" d="m25.53,42.8c1.82.24,3.67-1.03,3.98-2.73-2.79-.78-3.67-1.97-3.44-4.65-1.88-.1-3.58,1.38-3.76,3.22-.2,2.1,1.18,3.89,3.22,4.16Z"/>
      <path class="cls-1" d="m29.71,38.18c1.01,0,1.84-.84,1.85-1.85,0-1.04-.83-1.87-1.87-1.87-1.03,0-1.83.8-1.83,1.83,0,1.04.83,1.89,1.85,1.88Z"/>
    </g>
  </g>
</svg>