<?xml version="1.0" encoding="UTF-8"?>
<svg id="Layer_2" data-name="Layer 2" xmlns="http://www.w3.org/2000/svg" viewBox="0 0 54 54">
  <defs>
    <style>
      .cls-1 {
        stroke-width: 0px;
        fill: #fff;
      }
    </style>
  </defs>
  <g id="Layer_1-2" data-name="Layer 1">
    <g>
      <path class="cls-1" d="m40.91,19.18c3.05-3.02,4.19-6.64,3.09-10.79-1.09-4.12-3.79-6.8-7.89-8.02-.57-.17-1.16-.25-1.74-.37h-2c-.37.09-.74.17-1.11.26-1.66.43-3.04,1.32-4.25,2.56-.12-.1-.22-.18-.32-.27-1.38-1.33-2.98-2.2-4.89-2.47-.06,0-.12-.06-.18-.08h-2c-.12.03-.23.08-.35.1-4.17.65-7.16,2.92-8.78,6.79-1.61,3.86-1.15,7.57,1.39,10.95,1.42,1.89,3.28,3.31,5.16,4.71,2.92,2.17,5.83,4.34,8.74,6.52.43.32.82.7,1.12.96,2.71-2.05,5.32-4.07,7.97-6.04,2.07-1.54,4.22-2.97,6.07-4.8Zm-9.22-3.27h-3.1v3.15h-3.17v-3.1h-3.17v-3.19h3.13v-3.13h3.17v3.12h3.13v3.15Z"/>
      <path class="cls-1" d="m21.91,33.85c-1.99-1.48-4.12-2.75-6.4-3.74-1.28-.55-2.59-1.04-4.01-.92-1.49.12-2.03,1-1.55,2.4.06.17.12.33.2.49.56,1.09,1.37,1.95,2.34,2.67,1.77,1.29,3.55,2.58,5.33,3.87.46.34.92.68,1.42,1.04-.65.87-1.26,1.69-1.9,2.54-2.47-1.82-4.96-3.51-7.3-5.39-2.15-1.72-3.47-4.06-3.97-6.77-.28-1.55-.31-3.15-.49-4.72-.3-2.64-.66-5.27-1.48-7.8-.25-.76-.61-1.49-.99-2.2-.25-.47-.66-.88-1.25-.82-.6.06-.88.55-1.05,1.07-.2.61-.38,1.24-.48,1.88-.15.97-.22,1.95-.33,2.92v5.49c.03.17.07.34.08.52.09,1.51.17,3.02.24,4.53.1,1.97.39,3.87,1.49,5.58,1.18,1.81,2.61,3.4,4.15,4.9,1.99,1.93,4.05,3.8,6,5.78,1.89,1.93,3.72,3.95,4,6.83h9.44c0-4.55.07-9.05-.03-13.55-.06-2.71-1.28-4.97-3.46-6.59Z"/>
      <path class="cls-1" d="m53.75,18.22c-.11-.98-.35-1.98-.72-2.89-.43-1.08-1.32-1.14-2.02-.21-.34.44-.61.95-.81,1.47-1.07,2.76-1.44,5.68-1.79,8.59-.2,1.6-.21,3.24-.5,4.82-.58,3.07-2.18,5.57-4.71,7.43-1.89,1.4-3.81,2.77-5.71,4.15-.28.2-.56.4-.87.61-.64-.86-1.26-1.69-1.89-2.53.27-.2.48-.35.7-.51,2.03-1.48,4.07-2.94,6.09-4.44,1.21-.89,2.2-1.98,2.6-3.48.29-1.08-.23-1.9-1.34-1.99-.72-.06-1.49-.02-2.18.17-3.06.82-5.75,2.41-8.3,4.24-2.5,1.79-3.73,4.27-3.74,7.35,0,4.15,0,8.3,0,12.45v.54h9.47c.1-1.67.85-3.04,1.8-4.33,1.37-1.86,3.05-3.44,4.73-5.02,2.25-2.12,4.56-4.18,6.48-6.62,1.32-1.68,2.35-3.5,2.48-5.7.08-1.26.2-2.52.27-3.79.19-3.44.32-6.89-.06-10.32Z"/>
    </g>
  </g>
</svg>