<?xml version="1.0" encoding="UTF-8"?>
<svg id="Layer_2" data-name="Layer 2" xmlns="http://www.w3.org/2000/svg" viewBox="0 0 50 54">
  <defs>
    <style>
      .cls-1 {
        stroke-width: 0px;
        fill: #fff;
      }
    </style>
  </defs>
  <g id="Layer_1-2" data-name="Layer 1">
    <g>
      <path class="cls-1" d="m47.46,49.24c-4.93,0-9.87-.01-14.8,0-1.75,0-3.29-.51-4.64-1.62-1.88-1.54-3.78-3.06-5.67-4.59-.2-.16-.4-.33-.62-.51.7-.84,1.36-1.63,2.04-2.44.18.14.32.25.46.36,1.19.96,2.38,1.91,3.57,2.87.72.59,1.54.83,2.45.6,1.04-.26,1.72-.92,1.97-1.95.26-1.08-.1-1.97-.94-2.69-3.41-2.94-6.82-5.89-10.25-8.82-.19-.16-.5-.27-.76-.28-6.6-.01-13.19-.01-19.79-.01-.16,0-.31.02-.48.03v15.87c.25,0,.46,0,.67,0,4.74,0,9.48,0,14.21.01.3,0,.64.11.88.27,2.22,1.53,4.43,3.09,6.64,4.65,1.4.99,2.8,2,4.2,3h21.46c.16-.07.33-.13.49-.2.86-.4,1.38-1.05,1.45-1.99.1-1.48-.96-2.56-2.53-2.56Z"/>
      <path class="cls-1" d="m20.95,22.21h16.11v-5.55h-16.11v5.55Z"/>
      <path class="cls-1" d="m37.05,7.98h-16.1v5.44h16.1v-5.44Z"/>
      <path class="cls-1" d="m46.76,7.97h-6.41v5.43h6.41v-5.43Z"/>
      <path class="cls-1" d="m40.36,22.21h6.39v-5.53h-6.39v5.53Z"/>
      <path class="cls-1" d="m29.37,4.7c.93.1,1.88.02,2.86.02,0-.19.03-.37.02-.54-.01-.74.03-1.48-.07-2.21C32.02.77,30.92-.06,29.68,0c-1.22.06-2.19,1.02-2.27,2.25-.08,1.18.77,2.32,1.97,2.45Z"/>
      <path class="cls-1" d="m38.26,4.72c1.22-.11,2.13-1.28,2.05-2.49C40.24.97,39.15-.01,37.86,0c-1.25.02-2.31.99-2.36,2.2-.03.82,0,1.65,0,2.53.96,0,1.88.06,2.77-.02Z"/>
    </g>
  </g>
</svg>