<?xml version="1.0" encoding="UTF-8"?>
<svg id="Layer_2" data-name="Layer 2" xmlns="http://www.w3.org/2000/svg" viewBox="0 0 50 54">
  <defs>
    <style>
      .cls-1 {
        stroke-width: 0px;
        fill: #fff;
      }
    </style>
  </defs>
  <g id="Layer_1-2" data-name="Layer 1">
    <g>
      <path class="cls-1" d="m11.21,16.08c1.18.01,2.36,0,3.54,0,.61,0,1.22,0,1.83,0v-4.29c-.74,0-1.42-.02-2.11.01-.22.01-.48.13-.62.29-.76.83-1.94.91-2.71.14-.73-.73-.72-1.94.03-2.66.77-.74,1.93-.65,2.67.16.15.16.41.28.63.29.92.03,1.85.01,2.78.01.83,0,1.12.29,1.13,1.11,0,.73,0,1.47,0,2.2,0,.89,0,1.79,0,2.71h.69c.02-.07.05-.12.05-.17,0-2.51.01-5.03,0-7.54,0-.18-.15-.39-.29-.52-.81-.76-.87-1.92-.14-2.7.72-.76,1.9-.76,2.63,0,.74.77.68,1.94-.12,2.7-.17.16-.31.45-.31.68-.02,2.37-.01,4.73-.01,7.1,0,.16.02.31.03.45h.72c0-1.67,0-3.3,0-4.93,0-.76.31-1.08,1.05-1.08.96,0,1.92.01,2.89-.01.2,0,.45-.12.58-.27.77-.84,1.93-.92,2.71-.16.73.72.73,1.95-.02,2.66-.78.76-1.96.67-2.7-.19-.09-.1-.21-.25-.32-.26-.81-.02-1.62-.01-2.43-.01v4.26c2,0,3.98,0,5.95,0,.04,0,.07-.01.11-.02,2.01-.36,3.51-1.95,3.71-3.92.2-2.03-.93-3.85-2.86-4.65-.17-.07-.37-.29-.4-.47-.81-3.92-4.27-6.11-8.11-5.11-.18.05-.46-.03-.6-.16-.81-.68-1.71-1.17-2.72-1.47-.33-.1-.66-.17-.99-.26h-1.74c-.07.03-.13.07-.2.08-3.63.7-5.87,3.32-5.99,7.09-.01.34-.18.42-.41.55-1.8,1-2.69,3.02-2.19,4.99.49,1.97,2.23,3.34,4.26,3.36Z"/>
      <path class="cls-1" d="m33.13,43.02s.07-.04.1-.04c.36-.07.51-.32.67-.64.2-.42-.02-.72-.19-1.02-.36-.62-.47-1.17.23-1.62.02-.02,0-.09.02-.2H2.56v-.55c0-6.11,0-12.22,0-18.33,0-.78.05-.83.85-.83,11.06,0,22.12,0,33.17,0,.79,0,.83.04.83.84,0,5.43,0,10.86,0,16.29,0,.69.45.95,1.11.74.66-.22.59-.86.85-1.3.15-.25.32-.48.48-.73.05.02.09.04.14.06v-.44c0-4.9,0-9.8,0-14.7,0-2.1-1.29-3.38-3.38-3.38-11.08,0-22.15,0-33.23,0-2.14,0-3.39,1.26-3.39,3.41,0,6.94,0,13.87,0,20.81,0,2.11,1.27,3.38,3.37,3.39,3.21,0,6.43,0,9.64,0h.66v4.93c-.25,0-.47,0-.68,0-1.43,0-2.87-.02-4.3.04-1.1.04-2.08.76-2.19,1.65-.11.82-.02,1.67-.02,2.49h27.12c0-.58,0-1.11,0-1.64,0-1.47-.83-2.42-2.3-2.51-1.07-.07-2.14-.03-3.21-.04-.58,0-1.15,0-1.75,0v-4.94h5.67c.03-.13.06-.21.05-.27-.22-.94.3-1.32,1.09-1.49Z"/>
      <path class="cls-1" d="m49.92,44.73c-.05-.22-.63-.33-.97-.48-.03-.02-.09-.02-.1-.05-.32-.78-.63-1.57-.94-2.35.71-.89.25-1.51-.47-2.07-.1-.08-.2-.17-.27-.27-.2-.28-.43-.34-.73-.15-.56.37-1.1.44-1.69,0-.25-.19-.61-.22-.9-.36-.17-.09-.41-.24-.44-.39-.17-.96-.76-1.21-1.63-1.06-.12.02-.26.02-.38,0-.44-.07-.73.08-.81.55-.11.6-.45.94-1.06,1.07-.35.08-.66.31-.99.43-.17.06-.42.11-.54.03-.81-.57-1.41-.34-1.93.42-.13.19-.35.32-.49.52-.08.11-.14.34-.08.42.52.75.38,1.45-.06,2.17-.11.18-.12.43-.22.62-.1.17-.24.42-.39.45-.98.16-1.17.79-1.04,1.65,0,.05,0,.11,0,.16-.12.63.12.97.75,1.13.25.07.53.3.66.53.25.46.43.97.6,1.46.06.17.1.43.02.55-.56.81-.28,1.4.42,1.91.1.07.19.17.27.27.26.36.56.46.96.2.22-.15.49-.23.73-.33.71.31,1.4.6,2.09.91.05.02.08.13.09.19.15,1,.77,1.24,1.66,1.08.14-.03.29-.02.43,0,.38.05.63-.07.71-.47.12-.63.45-1.03,1.12-1.15.33-.06.62-.29.95-.4.18-.06.42-.11.59-.04,1.05.41,1.05.42,1.84-.38.15-.16.35-.29.45-.47.1-.17.2-.46.12-.59-.41-.67-.4-1.29.05-1.92.06-.09.11-.2.12-.3.08-.7.52-1.02,1.15-1.18.16-.04.41-.18.41-.28.03-.68.1-1.37-.04-2.02Zm-8.06,4.9c-2.1-.02-3.79-1.75-3.8-3.87,0-2.15,1.73-3.89,3.85-3.87,2.11.02,3.79,1.74,3.79,3.86,0,2.15-1.73,3.89-3.84,3.87Z"/>
      <path class="cls-1" d="m39,9.92c.18.03.36.02.54.02,3.64,0,6.6,2.33,7.4,5.85.16.71.15,1.45.2,2.18.04.56.38.94.86.95.49,0,.86-.36.87-.93,0-.57.02-1.14-.07-1.7-.73-4.73-4.09-7.8-8.84-8.13-.34.02-.69.01-1.03.08-.45.1-.67.43-.64.89.03.43.28.71.71.78Z"/>
      <path class="cls-1" d="m39.11,12.6c.11,0,.22,0,.33,0,2.61.1,4.55,1.77,5.01,4.33.07.39.04.8.07,1.2.04.55.43.92.91.9.47-.02.8-.37.83-.91,0-.16,0-.33,0-.49-.08-2.11-.87-3.87-2.49-5.22-1.34-1.12-2.91-1.61-4.64-1.55-.62.02-.96.36-.95.9.01.51.36.82.94.85Z"/>
      <path class="cls-1" d="m38.86,15.24c.2.03.4.02.6.04,1.13.12,2.04.88,2.33,2,.09.33.03.71.14,1.02.1.28.29.62.53.74.22.11.65.06.83-.11.23-.21.31-.61.45-.92l-.07-.05c-.05-.32-.08-.65-.15-.97-.47-2.13-2.47-3.64-4.6-3.49-.51.04-.84.34-.86.81-.03.5.27.85.8.92Z"/>
      <path class="cls-1" d="m24.23,30.57h-3.33v2.68c.83.12,1.63.23,2.54.35.26-1.01.52-1.99.79-3.03Z"/>
      <path class="cls-1" d="m19.1,30.58h-3.38c.29.98.55,1.89.83,2.78.03.1.21.22.31.21.75-.09,1.49-.22,2.24-.34v-2.65Z"/>
      <path class="cls-1" d="m20.9,28.73h3.37c-.29-.98-.55-1.89-.83-2.78-.03-.09-.22-.2-.33-.18-.73.09-1.46.21-2.21.32v2.65Z"/>
      <path class="cls-1" d="m16.53,26.03c-.28.86-.52,1.74-.8,2.7h3.36v-2.65c-.75-.11-1.46-.24-2.18-.31-.12-.01-.34.14-.38.26Z"/>
      <path class="cls-1" d="m26.05,34.6c.94-1.21,1.5-2.52,1.66-4.01h-1.71c-.31,1.23-.6,2.39-.89,3.58.28.13.58.27.94.43Z"/>
      <path class="cls-1" d="m13.95,34.6c.36-.17.68-.32.93-.44-.3-1.22-.59-2.38-.89-3.59h-1.72c.18,1.53.73,2.85,1.68,4.02Z"/>
      <path class="cls-1" d="m26.17,28.76c.5.03,1,.01,1.5.01-.01-1.28-.82-3.2-1.68-4.02-.31.15-.63.3-.85.4.25,1.16.48,2.24.74,3.32.03.12.18.28.29.29Z"/>
      <path class="cls-1" d="m14.3,24.88c-.25-.15-.41-.11-.58.13-.78,1.11-1.28,2.32-1.43,3.72h1.71c.3-1.2.59-2.35.89-3.58-.16-.08-.39-.16-.58-.27Z"/>
      <path class="cls-1" d="m20.89,36.89c.55-.59,1-1.08,1.55-1.67-.61-.07-1.07-.12-1.55-.18v1.84Z"/>
      <path class="cls-1" d="m20.9,24.28c.49-.05.94-.1,1.54-.17-.54-.58-.99-1.07-1.54-1.65v1.82Z"/>
      <path class="cls-1" d="m19.1,22.64l-.11-.08c-.44.48-.89.96-1.43,1.55.61.07,1.06.12,1.54.17v-1.64Z"/>
      <path class="cls-1" d="m19.08,35.04c-.49.06-.93.12-1.52.19.54.58.99,1.06,1.52,1.63v-1.82Z"/>
      <path class="cls-1" d="m15.27,23.4c.25.09.4.15.56.2.21-.29.39-.54.56-.79-.02-.03-.04-.06-.06-.1-.33.21-.65.42-1.06.68Z"/>
      <path class="cls-1" d="m24.64,23.34c-.33-.21-.65-.41-1.08-.69.56,1,.69,1.11,1.08.69Z"/>
      <path class="cls-1" d="m23.59,36.65c.41-.26.74-.46,1.07-.67-.53-.34-.54-.33-1.07.67Z"/>
      <path class="cls-1" d="m16.3,36.58s.05-.06.07-.09c-.18-.26-.36-.51-.56-.79-.17.08-.31.14-.53.24.38.24.7.44,1.02.64Z"/>
    </g>
  </g>
</svg>