<?xml version="1.0" encoding="UTF-8"?>
<svg id="Layer_2" data-name="Layer 2" xmlns="http://www.w3.org/2000/svg" viewBox="0 0 56 54">
  <defs>
    <style>
      .cls-1 {
        stroke-width: 0px;
        fill: #fff;
      }
    </style>
  </defs>
  <g id="Layer_1-2" data-name="Layer 1">
    <g>
      <path class="cls-1" d="m55.91,47.99c-.47-2.46-2.46-4.05-5.12-4.05-15.16,0-30.33,0-45.49,0-.19,0-.37,0-.56.01-2.22.09-3.96,1.48-4.56,3.63-.05.18-.12.35-.17.52v1.63c.05.18.1.36.15.54.52,1.87,1.7,3.09,3.59,3.55.54.13,1.11.17,1.67.17,15.06,0,30.12,0,45.18,0,.21,0,.42,0,.62,0,3.07-.16,5.27-2.97,4.69-6Zm-47.24,1.98c-.53-.02-.95-.49-.93-1.04.02-.53.44-.95.95-.95.54,0,.97.44.97,1,0,.55-.46,1.01-.98,1Zm7.73,0c-.53-.02-.97-.49-.96-1.03.01-.55.47-.98,1.01-.96.55.01.96.46.95,1.02-.01.55-.47.99-1,.98Zm7.78,0c-.51.02-1-.46-1.01-.99-.01-.54.44-1.01.97-1.01.51,0,.95.42.98.94.03.53-.42,1.03-.94,1.05Zm7.69,0c-.53-.01-.99-.49-.98-1.02,0-.55.46-.98,1.01-.97.55,0,.98.46.97,1.01,0,.54-.48,1-1.01.99Zm7.74,0c-.52,0-.98-.48-.97-1.02,0-.53.42-.96.93-.98.54-.02.99.43,1,.97,0,.54-.45,1.02-.97,1.02Zm7.74,0c-.54,0-.98-.45-.98-1.01,0-.54.4-.96.93-.99.55-.02,1,.41,1.01.97.01.55-.43,1.03-.96,1.03Z"/>
      <path class="cls-1" d="m14.54,17.72c.48.03.97.02,1.42.14,1.32.36,1.91,1.81,1.22,3-.21.36-.49.67-.78.97-.59.61-.61,1.12-.01,1.73.73.75,1.47,1.48,2.21,2.22,1.26,1.27,1.32,1.27,2.65.04.05-.04.09-.09.14-.13.67-.52,1.4-.63,2.18-.32.8.33,1.23.97,1.32,1.83.02.25,0,.5.01.75.01.86.35,1.21,1.22,1.21,1.02,0,2.04,0,3.06,0,1.86,0,1.88-.02,1.96-1.87.04-.9.46-1.57,1.28-1.92.81-.35,1.59-.22,2.28.36.22.19.41.42.63.61.5.46,1.01.49,1.49.01.99-.96,1.96-1.94,2.92-2.93.46-.47.44-1.02,0-1.51-.21-.23-.45-.44-.65-.68-1.04-1.25-.43-3.09,1.14-3.46.36-.08.74-.07,1.12-.08.83-.03,1.18-.36,1.19-1.19,0-1.19,0-2.39,0-3.58,0-1.22-.25-1.47-1.46-1.45-1.09.02-2-.5-2.35-1.34-.36-.86-.11-1.83.69-2.62.07-.07.16-.14.23-.21.54-.53.57-1.09.04-1.64-.93-.96-1.87-1.91-2.83-2.84-.55-.54-1.07-.48-1.63.08-.29.29-.6.6-.96.79-1.2.66-2.54.13-2.98-1.17-.12-.37-.18-.78-.15-1.17.05-.65-.18-1.09-.73-1.39h-4.75c-.61.29-.77.78-.75,1.44.04,1.42-.54,2.28-1.66,2.53-1.03.23-1.75-.32-2.41-1.01-.6-.63-1.1-.64-1.72-.04-.86.85-1.71,1.71-2.57,2.57-.78.78-.78,1.22-.01,2.01.12.12.25.23.36.35.59.68.74,1.45.4,2.28-.34.83-.98,1.27-1.88,1.32-.31.02-.63,0-.94.02-.6.06-.95.42-.96,1.03-.02,1.4-.02,2.8,0,4.21,0,.64.4.97,1.04,1Zm13.44-9.16c3.36-.02,5.96,2.59,5.98,6.02.02,3.42-2.55,6.03-5.94,6.04-3.39.01-5.97-2.57-5.98-6-.02-3.4,2.57-6.04,5.94-6.06Z"/>
      <path class="cls-1" d="m39.02,33.19c0,2.72,0,5.44,0,8.16,0,.18.02.36.04.59h.72c3.52,0,7.04,0,10.56,0,.87,0,1.74.09,2.69.14v-.46c0-2.82,0-5.65,0-8.47,0-.96-.31-1.28-1.27-1.28-3.81,0-7.62,0-11.44,0-.99,0-1.31.32-1.31,1.32Z"/>
      <path class="cls-1" d="m2.99,42.01h13.96c.02-.33.04-.51.04-.69,0-2.7,0-5.4,0-8.1,0-1.03-.32-1.35-1.34-1.35-3.77,0-7.54,0-11.31,0-1.09,0-1.37.28-1.37,1.37,0,2.78,0,5.56,0,8.35,0,.18.02.37.02.43Z"/>
      <path class="cls-1" d="m21,41.89h14.01c0-3.05.01-6.06,0-9.07,0-.61-.42-.94-1.09-.94-3.93,0-7.87,0-11.8,0-.75,0-1.09.37-1.1,1.13-.01.92,0,1.84,0,2.76,0,2.03,0,4.05,0,6.12Z"/>
    </g>
  </g>
</svg>