<?xml version="1.0" encoding="UTF-8"?>
<svg id="Layer_2" data-name="Layer 2" xmlns="http://www.w3.org/2000/svg" viewBox="0 0 53.71 53.72">
  <defs>
    <style>
      .cls-1 {
        stroke-width: 0px;
        fill: #fff;
      }
    </style>
  </defs>
  <g id="Layer_1-2" data-name="Layer 1">
    <g>
      <path class="cls-1" d="m52.37,33.34c-4.28.02-8.56.01-12.84.01h-.63c0,1.59.02,3.09-.01,4.59,0,.39.13.57.47.74,3.04,1.5,6.07,3.02,9.1,4.54.18.09.35.19.61.33-4.36,2.18-8.62,4.31-12.97,6.48v-3.88c-1.55.08-3.05.16-4.6.23v.56c0,1.81.02,3.63-.01,5.44,0,.57.12,1.01.59,1.34h21.64v-19.79c-.33-.47-.78-.59-1.34-.59Z"/>
      <path class="cls-1" d="m52.54,0c-6.63.02-13.27,0-19.9.01-.83,0-1.15.33-1.15,1.16,0,1.93,0,3.86,0,5.79,0,.15.03.29.04.45,2.07.09,4.23-.41,5.89,1.28.98-.97,1.46-1.26,2.28-1.26.39,0,.56-.14.74-.47.94-1.67,2.88-2.59,4.69-2.28,2.02.35,3.51,1.76,3.84,3.73.1.61.02,1.25.02,1.87,1.59.84,2.2,1.96,1.85,3.34-.36,1.42-1.43,2.12-3.22,2.12-2.7,0-5.4,0-8.1,0h-.6v4.63h.6c4.28,0,8.56,0,12.84.01.57,0,1.01-.12,1.34-.59V.59C53.41.22,53.06,0,52.54,0Z"/>
      <path class="cls-1" d="m24.08,46.94v-.59h-1.87v3.63H1.89v-12.92h.65c2.26,0,4.51-.02,6.77,0,1.84.02,3.71-.26,5.48.6v-4.31h-.6c-4.28,0-8.56,0-12.84,0-1.07,0-1.34.27-1.34,1.32,0,5.9,0,11.8-.01,17.71,0,.57.12,1.01.59,1.34h22.91c.47-.33.6-.78.59-1.34-.03-1.81-.01-3.63-.01-5.44Z"/>
      <path class="cls-1" d="m1.28,20.38c4.32,0,8.64,0,12.96,0,.18,0,.37-.02.58-.03,0-2.77,0-5.49,0-8.21.01-2.71,2.01-4.7,4.72-4.73.87,0,1.73,0,2.68,0,0-2.09,0-4.11,0-6.14,0-.98-.29-1.27-1.27-1.27C14.4,0,7.84,0,1.28.01.3.01.01.3.01,1.28c0,5.94,0,11.88,0,17.83,0,.98.29,1.27,1.27,1.27Zm4.46-5.6c.48-1.29,1.8-2.02,3.15-1.75.09.02.19.03.36.07V1.75c3.16.35,6.23.69,9.37,1.04-.07.63-.14,1.21-.21,1.84-2.44-.27-4.82-.54-7.3-.81v.93c0,3.65.01,7.29,0,10.94,0,2.22-2.3,3.56-4.18,2.46-1.16-.68-1.67-2.1-1.2-3.36Z"/>
      <path class="cls-1" d="m37,37.01v-20.3h-20.3v20.3h20.3Zm-17.5-17.53h14.74v14.75h-14.74v-14.75Z"/>
      <path class="cls-1" d="m37.03,11.9c-.05-1.43-1.22-2.61-2.65-2.62-5.01-.02-10.02-.02-15.03,0-1.15,0-2.29.78-2.5,1.88-.22,1.19-.17,2.42-.24,3.64h20.42c0-1.01.03-1.96,0-2.9Zm-12.99,1.03h-1.76v-1.8h1.76v1.8Zm7.42,0h-5.49v-1.78h5.49v1.78Z"/>
      <path class="cls-1" d="m36.5,43.26c.66-1.36.64-2.85.5-4.33h-20.32c0,.88,0,1.68,0,2.49,0,1.89,1.14,3.03,3.01,3.04,2.64,0,5.28,0,7.92,0,2.2,0,4.39,0,6.59,0,.97,0,1.88-.34,2.3-1.2Zm-5.98-.69h-7.33v-1.78h7.33v1.78Z"/>
      <path class="cls-1" d="m14.36,39.54c-1.68-.97-3.74-.81-5.24.42-1.5,1.23-2.08,3.29-1.43,5.12.65,1.83,2.39,3.07,4.6,3.09,1.61-.07,3.02-.91,3.91-2.6.15-.29.15-.5-.11-.75-.7-.7-1.11-1.57-1.22-2.56-.07-.63-.07-1.27-.03-1.9.02-.41-.15-.62-.48-.81Zm-2.28,5.85c-1,.01-1.86-.81-1.88-1.81-.02-1.04.82-1.89,1.85-1.89,1.01,0,1.84.83,1.85,1.84,0,1.01-.82,1.85-1.82,1.86Z"/>
      <path class="cls-1" d="m3.73,38.95v9.18h3.68c-2.49-3.08-2.47-6.14-.02-9.18h-3.67Z"/>
      <path class="cls-1" d="m18.06,46.15c-.44.64-.9,1.31-1.37,2h3.65v-1.78c-.77-.07-1.53-.15-2.27-.22Z"/>
    </g>
  </g>
</svg>