<?xml version="1.0" encoding="UTF-8"?>
<svg id="Layer_2" data-name="Layer 2" xmlns="http://www.w3.org/2000/svg" viewBox="0 0 54 54">
  <defs>
    <style>
      .cls-1 {
        stroke-width: 0px;
        fill: #fff;
      }
    </style>
  </defs>
  <g id="Layer_1-2" data-name="Layer 1">
    <g>
      <path class="cls-1" d="m26.06,54v-16.77h27.94v16.77h-27.94Zm13.97-14.9c-1.2,0-2.4,0-3.61,0-1.65.01-2.9,1.21-2.91,2.77-.01,1.59,1.24,2.81,2.92,2.82,2.4,0,4.81,0,7.21,0,1.65,0,2.9-1.21,2.91-2.77.01-1.59-1.24-2.81-2.92-2.82-1.2,0-2.4,0-3.61,0Z"/>
      <path class="cls-1" d="m48.41,11.19v.61c0,4.75,0,9.51,0,14.26,0,.38-.09.65-.38.91-.48.44-.92.92-1.5,1.52v-4.22c0-1.9-.04-1.94-1.96-1.94-2.66,0-5.32,0-7.97,0-.95,0-1.24.3-1.24,1.26,0,.79,0,1.59,0,2.47-.23,0-.43,0-.64,0-2.48,0-4.97,0-7.45,0-.92,0-1.22.31-1.23,1.22,0,2.46,0,4.93,0,7.39,0,.21,0,.42,0,.7-.24,0-.45,0-.65,0-.9,0-1.21.31-1.21,1.24,0,1.24,0,2.48,0,3.73,0,.19,0,.38,0,.6H1.88V11.19h46.53Zm-23.28,11.14c2.11,0,4.23.01,6.34,0,.44,0,.9-.06,1.31-.19,1.72-.53,2.82-2.28,2.56-4.01-.28-1.87-1.79-3.23-3.68-3.24-4.28-.02-8.57,0-12.85,0-2.25,0-3.92,1.59-3.93,3.72,0,2.13,1.67,3.73,3.91,3.73,2.11,0,4.23,0,6.34,0Z"/>
      <path class="cls-1" d="m0,9.24V0h50.23v9.24H0Z"/>
      <path class="cls-1" d="m39.07,27.96v7.38h-11.11v-7.38h11.11Z"/>
      <path class="cls-1" d="m40.96,34.04c0-1.23,0-2.31,0-3.39,0-1.18,0-2.37,0-3.55,0-.69-.35-1.04-1.04-1.05-.87-.01-1.74,0-2.65,0v-1.83h7.36c.02.12.05.24.05.37,0,1.78,0,3.57,0,5.35,0,.19-.07.43-.2.56-1.12,1.15-2.27,2.28-3.52,3.53Z"/>
      <path class="cls-1" d="m51.26,26.58c.72.72,1.48,1.49,2.29,2.29-.08.09-.18.23-.3.34-1.93,1.93-3.86,3.87-5.81,5.79-.2.2-.56.34-.84.35-1.39.04-2.77.02-4.12.02,2.93-2.93,5.85-5.85,8.78-8.79Z"/>
      <path class="cls-1" d="m49.87,35.32c.49-.98,1.32-.98,2.23-.84v.84h-2.23Z"/>
      <path class="cls-1" d="m39.97,42.82c-1.16,0-2.33,0-3.49,0-.69,0-1.1-.36-1.1-.93,0-.56.42-.93,1.1-.93,2.37,0,4.73,0,7.1,0,.68,0,1.1.37,1.1.93,0,.56-.42.93-1.1.93-1.2,0-2.41,0-3.61,0Z"/>
      <path class="cls-1" d="m25.14,16.74c2.1,0,4.19,0,6.29,0,1.23,0,2.08.77,2.08,1.87,0,1.1-.85,1.86-2.09,1.86-4.25,0-8.5,0-12.75,0-1.02,0-1.82-.71-1.92-1.66-.1-.92.5-1.78,1.42-2,.22-.05.46-.06.69-.06,2.1,0,4.19,0,6.29,0Z"/>
    </g>
  </g>
</svg>