<?xml version="1.0" encoding="UTF-8"?>
<svg id="Layer_2" data-name="Layer 2" xmlns="http://www.w3.org/2000/svg" viewBox="0 0 54 54">
  <defs>
    <style>
      .cls-1 {
        stroke-width: 0px;
        fill: #fff;
      }
    </style>
  </defs>
  <g id="Layer_1-2" data-name="Layer 1">
    <g>
      <path class="cls-1" d="m49.06,1.01c-.26-.44-.85-.68-1.28-1.01h-.95c-.96.54-1.93,1.07-2.88,1.61-.66.37-1.03.94-1.11,1.69-.07.66-.69,1.11-1.34.94-3.25-.86-6.51-1.72-9.76-2.61-.59-.16-1.08-.09-1.6.21-2.33,1.37-4.68,2.71-7.02,4.06-2.04,1.18-4.08,2.34-6.11,3.54-1.21.72-1.79,2.08-1.53,3.43.27,1.38,1.28,2.44,2.67,2.63.67.09,1.37-.05,2.09-.09.93,2.33,3.43,2.79,5.34,1.5,1.21-.81,2.51-1.48,3.78-2.19.22-.12.54-.16.78-.1,3.15.85,6.3,1.7,9.44,2.59.64.18,1.18.13,1.75-.21,2.14-1.25,4.29-2.46,6.44-3.7.27-.16.48-.23.8-.04.66.38,1.35.33,2.01-.03.58-.32,1.14-.69,1.74-.99.76-.38,1.38-.89,1.68-1.71v-.95c-1.64-2.87-3.25-5.75-4.94-8.59Zm-25.29,14c-.4.22-.85.06-1.04-.3-.2-.36-.1-.82.29-1.05,1.09-.65,2.2-1.28,3.3-1.92.24.47.47.92.73,1.41-1.1.63-2.18,1.27-3.28,1.87Zm22.82-3.92c-2.04,1.17-4.08,2.34-6.13,3.49-.17.1-.44.13-.63.08-3.35-.91-6.7-1.83-10.04-2.76-.75-.21-1.12-.77-.95-1.39.18-.64.76-.92,1.52-.72,2.73.73,5.46,1.46,8.18,2.19.17.05.34.1.51.14.71.14,1.35-.23,1.54-.87.2-.67-.17-1.35-.89-1.56-1.36-.39-2.74-.75-4.11-1.12-1.54-.41-3.08-.82-4.62-1.24-1.3-.35-2.46-.09-3.5.78-.24.2-.52.36-.79.51-2.42,1.4-4.83,2.79-7.25,4.18-.14.08-.27.16-.42.21-.39.14-.7,0-.91-.32-.22-.34-.16-.68.12-.96.13-.13.31-.23.48-.32,4.06-2.34,8.11-4.69,12.18-7.02.24-.14.61-.18.87-.11,3.07.8,6.14,1.61,9.19,2.48.9.25,1.68.26,2.43-.32.18-.14.39-.22.64-.37.95,1.65,1.88,3.25,2.8,4.86-.08.06-.14.12-.21.17Z"/>
      <path class="cls-1" d="m33.82,38.72c-.98-2.45-3.46-2.92-5.35-1.66-1.22.82-2.54,1.5-3.83,2.21-.22.12-.54.16-.78.1-3.17-.85-6.33-1.72-9.49-2.61-.61-.17-1.11-.11-1.65.21-2.17,1.26-4.36,2.49-6.53,3.75-.24.14-.42.2-.71.03-.67-.39-1.38-.36-2.06.02-.8.45-1.59.89-2.37,1.37-1.02.62-1.35,1.8-.76,2.84,1.52,2.67,3.05,5.33,4.61,7.98.6,1.03,1.79,1.34,2.84.77.82-.44,1.62-.92,2.42-1.39.62-.37.95-.93,1.02-1.63.07-.68.72-1.12,1.39-.93,3.25.87,6.51,1.73,9.76,2.62.55.15,1.02.08,1.51-.2,2.21-1.29,4.44-2.57,6.65-3.85,2.14-1.24,4.3-2.46,6.43-3.72,1.9-1.12,2.27-3.6.76-5.15-1.08-1.12-2.39-1.31-3.86-.73Zm-3.51.24c.38-.2.77-.04.98.35.2.37.06.83-.37,1.08-1.07.63-2.15,1.25-3.24,1.88-.25-.48-.47-.91-.72-1.4,1.11-.64,2.21-1.3,3.35-1.9Zm5.47,3.33c-.06.13-.27.21-.42.29-4.06,2.34-8.12,4.68-12.17,7.03-.32.18-.59.21-.94.11-3.15-.85-6.3-1.68-9.45-2.55-.72-.2-1.33-.16-1.94.27-.24.17-.52.3-.85.49-.95-1.65-1.88-3.25-2.83-4.9.79-.45,1.55-.88,2.31-1.31,1.33-.76,2.64-1.53,3.98-2.27.2-.11.51-.17.72-.11,3.35.9,6.7,1.83,10.04,2.76.74.21,1.11.78.92,1.4-.19.63-.76.9-1.53.69-2.85-.76-5.69-1.52-8.54-2.28-.76-.2-1.37.06-1.63.68-.33.77.1,1.53,1.03,1.78,1.73.47,3.46.92,5.18,1.39,1.12.3,2.24.6,3.35.9,1.3.35,2.45.1,3.5-.75.39-.32.85-.55,1.29-.81,2.26-1.31,4.53-2.62,6.79-3.92.19-.11.44-.28.62-.23.27.07.62.26.71.48.09.23-.06.58-.17.85Z"/>
      <path class="cls-1" d="m26.22,36.47c.5.44,1.13.39,1.68-.08,1.61-1.37,3.22-2.72,4.8-4.12,1.35-1.19,2.58-2.49,3.55-4.02.84-1.33,1.43-2.76,1.25-4.37-.54-4.82-6.18-7.31-10.12-4.48-.31.22-.49.18-.77-.02-1.08-.78-2.3-1.17-3.65-1.17-4.02-.15-8.43,4.41-5.56,9.37.68,1.17,1.5,2.32,2.47,3.25,2.03,1.96,4.21,3.78,6.34,5.63Z"/>
    </g>
  </g>
</svg>