<svg xmlns="http://www.w3.org/2000/svg" width="100" height="100" viewBox="0 0 100 100" fill="none">
  <g clip-path="url(#clip0_726_1760)">
    <path d="M4.14066e-06 54.6837C0.434321 53.9224 1.09426 53.5615 1.95161 53.4092C3.50838 53.1273 5.04823 52.7664 6.75165 52.3998C5.77585 50.9787 4.87902 49.6761 3.98782 48.3734C3.03458 46.9805 3.08534 46.4335 4.27549 45.238C5.67996 43.8339 7.0788 42.4241 8.48892 41.0256C9.47036 40.0556 10.0908 40.0049 11.2415 40.7887C12.6121 41.7135 13.9715 42.6553 15.4831 43.6929C15.8215 42.0914 16.1318 40.6139 16.442 39.1308C16.8086 37.3826 17.0342 37.1514 18.732 36.8074C19.0197 32.9671 19.8376 29.2396 21.462 25.7151C25.1509 17.7018 31.1242 12.1134 39.3762 8.99487C43.4486 7.46101 47.6733 6.82942 52.0165 7.19597C53.0148 7.28056 53.8214 7.06627 54.5998 6.40084C55.6095 5.5324 56.7206 4.78239 57.7867 3.98162C59.366 2.79739 60.0429 2.8989 61.2499 4.50607C62.3047 5.91023 63.3651 7.31439 64.4142 8.72419C64.888 9.36142 65.4465 9.83512 66.2982 9.65466C67.195 9.46857 67.5504 8.82006 67.6688 7.96854C67.9508 6.0061 68.2272 4.03801 68.5431 2.08121C68.7518 0.795473 69.4738 0.293583 70.7372 0.474038C73.7662 0.896978 76.7895 1.32556 79.8184 1.75414C81.3187 1.96843 81.8433 2.69588 81.6233 4.27486C81.3695 6.11324 81.1101 7.94598 80.8337 9.77872C80.7096 10.6133 80.8167 11.3577 81.6064 11.8201C82.4017 12.2882 83.1011 11.9667 83.7611 11.4648C85.2671 10.3257 86.7731 9.19225 88.2904 8.07005C89.4692 7.20161 90.321 7.32003 91.2122 8.49299C93.0397 10.9066 94.8559 13.3258 96.6608 15.7563C97.5859 17.0025 97.4562 17.7751 96.204 18.7338C94.7262 19.856 93.2427 20.9669 91.748 22.0665C91.0429 22.5854 90.5579 23.2057 90.823 24.1361C91.0768 25.0215 91.7875 25.2753 92.611 25.388C94.478 25.6362 96.3506 25.9068 98.212 26.1775C99.6108 26.3805 100.158 27.1531 99.9492 28.5686C99.5149 31.5291 99.0919 34.4897 98.6689 37.4503C98.4432 39.018 97.7833 39.5255 96.2153 39.3C94.3483 39.0349 92.4813 38.7755 90.6143 38.4992C89.8189 38.3808 89.1083 38.4879 88.6457 39.2323C88.155 40.0161 88.4032 40.7154 88.9108 41.3865C90.0333 42.8639 91.1445 44.347 92.25 45.8358C93.2596 47.1892 93.1638 47.9674 91.8439 48.9599C89.4805 50.7419 87.1059 52.5182 84.7312 54.289C83.4339 55.2533 82.6499 55.1405 81.6797 53.8604C80.5573 52.3829 79.4405 50.8998 78.3406 49.411C77.8386 48.7343 77.2463 48.255 76.3664 48.4693C75.4357 48.6949 75.1424 49.4449 75.024 50.3077C74.7645 52.1743 74.4994 54.0408 74.2287 55.9074C74.0369 57.2552 73.3826 57.8022 72.0289 57.6274C68.9661 57.2213 65.9033 56.7928 62.8518 56.3304C61.3571 56.1048 60.9228 55.4958 61.1146 53.9619C61.3289 52.2532 61.5884 50.5502 61.8309 48.8415C61.8704 48.5539 62.0001 48.2268 61.9155 47.9787C61.7125 47.4035 61.532 46.7268 61.1146 46.3377C60.5618 45.8302 59.8229 46.0275 59.225 46.4674C57.6795 47.6121 56.1509 48.7682 54.6111 49.9129C53.2235 50.9449 52.4452 50.8378 51.4129 49.4674C49.6531 47.1272 47.8933 44.7869 46.1391 42.441C45.1464 41.1158 45.2705 40.3263 46.596 39.3282C48.0794 38.2116 49.5572 37.095 51.052 35.9897C51.7401 35.4822 52.1575 34.8506 51.9262 33.9878C51.7006 33.1645 51.0407 32.8543 50.2341 32.7472C48.3953 32.5047 46.5621 32.234 44.729 31.9634C43.082 31.7209 42.5743 31.0893 42.7999 29.4483C43.2117 26.4538 43.646 23.4594 44.1029 20.4707C44.3172 19.0721 45.0336 18.5759 46.4155 18.7676C48.3163 19.0383 50.2172 19.2921 52.1124 19.5966C52.9302 19.7263 53.6184 19.5853 54.0753 18.8691C54.5378 18.1417 54.3573 17.448 53.8666 16.7939C52.7272 15.2882 51.5765 13.7938 50.4823 12.2543C50.1213 11.7468 49.9013 11.1378 49.4783 10.2975C47.8764 10.5062 45.9925 10.5908 44.1762 11.0081C34.3223 13.2694 27.3168 19.0778 23.7295 28.5065C20.1196 38.0029 21.5241 47.0426 27.4522 55.3266C29.4828 58.1687 32.0887 60.4131 34.9992 62.3192C37.2779 63.8136 38.9588 65.8099 39.6977 68.4603C40.0192 69.605 40.1715 70.8175 40.2222 72.0073C40.3068 74.0205 40.2335 76.045 40.2504 78.0582C40.2674 80.3139 41.559 81.6673 43.8152 81.6842C48.0794 81.7181 52.3436 81.7181 56.6078 81.6842C58.8809 81.6673 60.15 80.3308 60.1613 78.0638C60.1726 76.1127 60.1444 74.1559 60.167 72.2047C60.2121 68.1219 61.8535 64.8568 65.2096 62.4771C66.4787 61.5748 67.7252 60.6331 69.0733 59.6406C69.7558 60.4075 70.4608 61.1913 71.2674 62.0936C70.0096 63.041 68.8702 64.0053 67.6237 64.8117C64.7132 66.7008 63.3708 69.3456 63.4723 72.7968C63.523 74.6183 63.4892 76.4398 63.4779 78.2669C63.4666 80.5338 62.5303 82.3271 60.7592 83.7425C60.4434 83.9906 60.2008 84.5207 60.1895 84.9211C60.1388 87.2614 60.0542 89.6129 60.1895 91.9476C60.3982 95.6413 58.8866 98.9797 54.2952 99.9665H46.0883C41.5872 98.5285 40.2392 96.6732 40.2392 91.9137C40.2392 89.5396 40.2504 87.1655 40.2279 84.7914C40.2279 84.4982 40.1546 84.0752 39.9571 83.9399C37.4358 82.2199 36.7646 79.7331 36.9113 76.8627C36.962 75.8815 36.9169 74.8946 36.9169 73.6089C36.2457 74.3025 35.8057 74.7705 35.3545 75.2273C33.4198 77.1672 33.3183 77.1729 31.0226 75.5939C29.9397 74.8495 28.851 74.1051 27.6553 73.2874C27.2604 75.1315 26.9164 76.8063 26.5441 78.4755C26.3072 79.5413 25.7657 80.0207 24.7335 80.0319C22.6183 80.0545 20.5031 80.0432 18.388 80.0319C17.4065 80.0319 16.8199 79.5075 16.5886 78.5657C16.504 78.2161 16.442 77.8665 16.3687 77.5168C16.0697 76.1409 15.7708 74.7649 15.4493 73.2818C13.9376 74.3138 12.5783 75.2612 11.2076 76.186C10.0683 76.9529 9.44216 76.8909 8.45508 75.9153C7.06752 74.545 5.69124 73.1577 4.30933 71.7761C3.03458 70.496 2.98946 70.0111 4.03294 68.4941C4.90722 67.2197 5.78149 65.9452 6.73473 64.558C5.02003 64.197 3.47454 63.8418 1.91777 63.5542C1.06605 63.3963 0.394837 63.0354 -0.0281982 62.2684V54.6499L4.14066e-06 54.6837ZM93.2822 16.7883C91.9059 14.9612 90.603 13.2299 89.3113 11.51C87.7771 12.6209 86.4008 13.7262 84.923 14.6623C82.6555 16.0946 79.7056 15.3333 78.2447 13.0889C77.3422 11.6961 77.4043 10.2017 77.6355 8.66216C77.8217 7.42154 77.9852 6.18091 78.1714 4.89517C75.9321 4.57938 73.8169 4.28614 71.6284 3.97598C71.3972 5.51549 71.1603 6.95348 70.9685 8.39148C70.6639 10.6923 69.4625 12.2769 67.2063 12.8577C64.9332 13.4498 63.1339 12.5589 61.7632 10.7261C60.8889 9.55879 60.009 8.39148 59.0896 7.16777C57.3072 8.50426 55.5756 9.80692 53.7932 11.1434C54.7916 12.4799 55.7505 13.7092 56.653 14.9724C57.9277 16.7544 58.1026 18.6774 56.9745 20.5609C55.8238 22.4782 54.0301 23.2226 51.8078 22.9124C50.3018 22.7038 48.7901 22.4951 47.2052 22.2808C46.8949 24.4914 46.5903 26.6287 46.2801 28.828C47.8707 29.0592 49.3429 29.2791 50.8207 29.4877C52.3436 29.702 53.6015 30.3731 54.4757 31.6645C55.9817 33.892 55.5192 36.6834 53.3194 38.4541C52.0898 39.4466 50.8038 40.3714 49.4895 41.3695C50.8376 43.1684 52.1236 44.8828 53.4492 46.6478C53.7537 46.4335 54.0188 46.2531 54.2727 46.0614C55.2654 45.3226 56.2468 44.567 57.2452 43.8395C58.4579 42.9542 59.8003 42.5481 61.2951 42.8696C64.1379 43.4786 65.6777 45.9147 65.2039 48.9937C64.9896 50.3923 64.8034 51.7964 64.6004 53.257C66.8622 53.5728 68.9717 53.8717 71.1264 54.1762C71.2054 53.7025 71.2674 53.3529 71.3182 53.0032C71.5156 51.6836 71.6453 50.3528 71.9217 49.0501C72.3391 47.1046 73.5631 45.8189 75.4865 45.3057C77.4155 44.7925 79.1302 45.2888 80.4332 46.7945C81.5782 48.114 82.5879 49.5577 83.6765 50.9675C85.4645 49.6253 87.1961 48.3227 88.9616 46.9975C88.0196 45.7399 87.1397 44.5783 86.2711 43.3997C84.8553 41.4767 84.6861 39.3902 85.7804 37.5631C86.8859 35.7247 88.8939 34.8957 91.2629 35.2623C92.6618 35.4822 94.0719 35.657 95.5497 35.86C95.8712 33.6382 96.1758 31.5291 96.4973 29.3242C95.059 29.1156 93.6827 28.8956 92.3064 28.7152C89.8302 28.3937 88.1268 27.0572 87.5797 24.9595C87.0438 22.8899 87.8279 20.9162 89.7795 19.433C90.9188 18.5702 92.0639 17.7187 93.2935 16.7939L93.2822 16.7883ZM10.3164 44.1779C9.24475 45.2211 8.25202 46.1911 7.21417 47.1948C7.88539 48.1704 8.59045 49.1798 9.27859 50.2062C10.903 52.6254 9.95545 55.0559 7.12393 55.71C5.87174 56.0033 4.60827 56.2627 3.36173 56.539V60.4695C4.6252 60.7458 5.85482 61.0052 7.08444 61.2816C9.96673 61.9357 10.92 64.3831 9.25038 66.8418C8.56225 67.8569 7.86283 68.8663 7.25366 69.7573C8.30278 70.8231 9.27295 71.81 10.2882 72.8419C11.2979 72.1483 12.3583 71.3983 13.4413 70.6878C15.7087 69.2047 18.1567 70.2028 18.7659 72.8476C19.0648 74.1333 19.3243 75.4303 19.6007 76.6879H23.549C23.831 75.3796 24.0848 74.139 24.3725 72.904C25.0155 70.1295 27.4466 69.1652 29.8156 70.7498C30.8647 71.4491 31.8969 72.1765 33.0927 72.9998C34.0967 71.9453 35.0556 70.8851 36.0765 69.8926C36.4826 69.4979 36.4826 69.199 36.2852 68.714C35.1402 65.9621 32.5173 64.8286 30.3909 63.12C27.565 67.964 22.748 69.1539 18.9464 68.1332C14.7498 67.011 11.7322 63.2102 11.563 58.8567C11.4784 56.601 12.1496 54.554 13.4638 52.7325C15.139 50.4035 17.4516 49.0727 20.2719 48.6159C19.8488 46.8396 19.4484 45.1422 19.0253 43.3715C18.9351 43.6534 18.8392 43.8846 18.7771 44.1271C18.0947 46.896 15.6862 47.8264 13.3059 46.2305C12.2793 45.5426 11.2697 44.832 10.3108 44.1722L10.3164 44.1779ZM22.043 65.0824C24.1469 65.0147 26.1323 63.853 27.4409 61.5184C27.7681 60.9376 27.706 60.571 27.2435 60.0917C25.2073 57.9714 23.4644 55.6142 22.2404 52.9412C21.7553 51.881 21.1067 51.8021 20.1647 52.022C16.8819 52.7777 14.6709 55.7664 14.9867 59.0541C15.3195 62.4996 18.0044 64.9922 22.043 65.088V65.0824ZM43.6234 91.722C43.6065 92.0491 43.584 92.2746 43.584 92.5002C43.5501 95.4157 44.7854 96.6676 47.6902 96.6676C49.3824 96.6676 51.0745 96.5774 52.761 96.6901C55.4741 96.8706 57.4313 95.0773 56.7376 91.722H43.6291H43.6234ZM43.6404 85.1072V88.2877H56.8165V85.1072H43.6404Z" fill="white"/>
    <path d="M51.8416 70.0615H48.745C48.4291 68.7645 48.2374 67.4393 47.7748 66.2099C46.8103 63.6385 45.0336 61.7099 42.5179 60.5933C39.6525 59.3132 36.9169 57.8696 34.5705 55.7436C24.3274 46.4502 24.5304 30.0457 35.0217 21.0568C35.8847 20.3181 36.8097 19.6583 37.8025 18.8857C38.4173 19.85 38.9813 20.741 39.5792 21.6884C38.846 22.2523 38.1465 22.7655 37.4753 23.3125C26.2677 32.4537 28.6649 50.7134 41.8805 56.6289C44.7121 57.8921 47.3574 59.3358 49.2019 61.9298C50.9279 64.3546 51.8416 67.0333 51.8416 70.0672V70.0615Z" fill="white"/>
    <path d="M4.45034 11.7239C5.11591 10.7934 5.7138 9.95879 6.37938 9.02832C10.2544 11.7915 14.0786 14.5209 17.9931 17.3123C17.3557 18.2089 16.7466 19.0661 16.0697 20.0191C12.2004 17.2559 8.37611 14.5265 4.45034 11.7239Z" fill="white"/>
    <path d="M25.2806 13.269C24.1694 13.5566 23.1767 13.816 22.0768 14.1036C20.9431 9.68813 19.8319 5.32902 18.6869 0.857135C19.7473 0.575175 20.7626 0.304493 21.885 0.00561523C23.0131 4.42111 24.13 8.77458 25.2863 13.2747L25.2806 13.269Z" fill="white"/>
    <path d="M2.51001 31.8897C2.23363 30.79 1.98545 29.7975 1.70342 28.6753C6.1312 27.5644 10.5026 26.4761 14.9642 25.3595C15.2349 26.4309 15.4887 27.4573 15.7708 28.5738C11.3148 29.6848 6.95471 30.7788 2.51001 31.8897Z" fill="white"/>
    <path d="M81.1721 70.4961C84.5394 73.2988 87.7827 76.0056 91.1275 78.7914C90.4281 79.6372 89.7512 80.4437 89.0067 81.3403C85.6788 78.5714 82.4017 75.8364 79.0569 73.0506C79.7845 72.1709 80.4614 71.3533 81.1721 70.4961Z" fill="white"/>
    <path d="M75.0691 86.6855H71.9048V75.1533H75.0691V86.6855Z" fill="white"/>
    <path d="M81.8264 65.0759V61.918H93.333V65.0759H81.8264Z" fill="white"/>
    <path d="M48.6491 78.3056V73.501H51.8247V78.3056H48.6491Z" fill="white"/>
    <path d="M84.6297 29.0867C84.6297 36.4121 78.6395 42.384 71.3351 42.3502C64.0589 42.3163 58.1251 36.3839 58.0913 29.098C58.0518 21.8065 64.0476 15.8064 71.3689 15.8008C78.7016 15.8008 84.6297 21.7332 84.6353 29.0811L84.6297 29.0867ZM81.3075 29.1375C81.3413 23.6675 76.9135 19.1617 71.4705 19.1223C65.9823 19.0828 61.4361 23.5716 61.4079 29.0416C61.3853 34.4271 65.9202 38.9948 71.3238 39.0287C76.7274 39.0625 81.2793 34.5568 81.3075 29.1319V29.1375Z" fill="white"/>
  </g>
  <defs>
    <clipPath id="clip0_726_1760">
      <rect width="100" height="100" fill="white"/>
    </clipPath>
  </defs>
</svg>