<?xml version="1.0" encoding="UTF-8"?>
<svg id="Layer_2" data-name="Layer 2" xmlns="http://www.w3.org/2000/svg" viewBox="0 0 54 54">
  <defs>
    <style>
      .cls-1 {
        stroke-width: 0px;
        fill: #fff;
      }
    </style>
  </defs>
  <g id="Layer_1-2" data-name="Layer 1">
    <g>
      <path class="cls-1" d="m48.59,50.85V15.45h-19.99v35.36h-3.16V8c-2.2.37-4.33.72-6.46,1.07-4.35.73-8.7,1.46-13.05,2.17-.43.07-.49.24-.49.61.01,2.28,0,4.57,0,6.85v32.13H0v3.16h54v-3.15h-5.41ZM9.94,19.99h3.29v3.11h-3.29v-3.11Zm3.3,7.74v3.11h-3.29v-3.11h3.29Zm-3.3,7.71h3.28v3.11h-3.28v-3.11Zm10.94,15.35h-3.14v-4.46h-4.55v4.46h-3.15v-7.63h10.83v7.63Zm.08-12.25h-3.32v-3.07h3.32v3.07Zm0-7.7h-3.3v-3.09h3.3v3.09Zm-3.3-7.72v-3.11h3.3v3.11h-3.3Zm3.31-7.74h-3.32v-3.08h3.32v3.08Zm12.1,12.36h3.3v3.09h-3.3v-3.09Zm0,7.72h3.32v3.08h-3.32v-3.08Zm3.32,10.79h-3.31v-3.09h3.31v3.09Zm.01-23.16h-3.32v-3.09h3.32v3.09Zm4.4-3.08h3.3v3.08h-3.3v-3.08Zm3.29,26.25h-3.27v-3.11h3.27v3.11Zm.01-7.71h-3.3v-3.09h3.3v3.09Zm0-7.7h-3.29v-3.11h3.29v3.11Z"/>
      <path class="cls-1" d="m21.16,5.49c.15-.03.39-.22.39-.34.01-1.72,0-3.44-.02-5.15h-12.24v7.48c1.76-.29,3.41-.56,5.07-.84,2.27-.38,4.53-.75,6.8-1.15Z"/>
    </g>
  </g>
</svg>