<?xml version="1.0" encoding="UTF-8"?>
<svg id="Layer_2" data-name="Layer 2" xmlns="http://www.w3.org/2000/svg" viewBox="0 0 60 54">
  <defs>
    <style>
      .cls-1 {
        stroke-width: 0px;
        fill: #fff;
      }
    </style>
  </defs>
  <g id="Layer_1-2" data-name="Layer 1">
    <g>
      <path class="cls-1" d="m50.89,0c1.25.53,1.49.89,1.49,2.31,0,1.12,0,2.23,0,3.39H15.91c0-.61,0-1.22,0-1.83,0-.56.03-1.12,0-1.68-.06-1.1.43-1.81,1.43-2.18h33.56Zm-24.37,3.88c1.19,0,2.38,0,3.56,0,.75,0,1.16-.36,1.16-.98,0-.62-.41-1.01-1.15-1.01-2.38,0-4.75,0-7.13,0-.72,0-1.17.41-1.18.99,0,.6.44.99,1.16.99,1.19,0,2.38,0,3.56,0Zm15.22,0c1.19,0,2.38,0,3.56,0,.76,0,1.17-.34,1.19-.95.02-.64-.41-1.04-1.18-1.04-2.36,0-4.71,0-7.07,0-.75,0-1.23.42-1.21,1.03.02.59.46.96,1.2.96,1.17,0,2.33,0,3.5,0Z"/>
      <path class="cls-1" d="m23.01,32.98h22.99v-2.79h-23.48c-.02.3-.03.58-.06.96-.14-.16-.24-.26-.33-.37-.92-1.18-2.1-1.81-3.6-1.81-1.52,0-3.03,0-4.55,0-.22,0-.44,0-.69,0v-2.89c3.16.29,5.82-.62,7.81-3.3,1.63,2.25,3.86,3.35,6.58,3.35,2.7,0,4.93-1.07,6.54-3.32,3.14,4.55,10.22,4.33,13.19,0,1.95,2.63,4.61,3.58,7.81,3.28v21.97h-10.33v-13.03h-9.63v13.02h-1.96v-13.01h-9.68v13.02h-2.4c.1-.64.31-1.28.25-1.89-.07-.68-.36-1.34-.65-1.97-.21-.46-.3-.79-.05-1.31.33-.69.48-1.49.66-2.25.48-2.08.94-4.16,1.39-6.25.1-.44.12-.9.19-1.4Z"/>
      <path class="cls-1" d="m2.54,28.62c-.48,0-.97.01-1.46,0C.4,28.6,0,28.2,0,27.61c0-.6.42-.96,1.11-.97.7,0,1.39,0,2.09,0,.7,0,.98.23,1.15.95.21.91.43,1.81.59,2.73.09.49.28.66.8.66,4.24-.03,8.48-.02,12.72-.01,1.35,0,2.34.83,2.49,2.08.04.38-.03.78-.11,1.16-.5,2.33-1.02,4.65-1.53,6.97-.23,1.04-.46,1.24-1.49,1.24-3.58,0-7.17,0-10.75,0-.2,0-.44-.06-.61.03-.21.11-.49.32-.49.5,0,.19.24.44.44.57.15.09.4.04.6.04,3.5,0,7,0,10.5,0,.88,0,1.1.2,1.27,1.08.03.15.12.29.22.41.63.72.72,1.55.22,2.27-.46.67-1.32.94-2.07.64-.81-.32-1.21-1.08-1.07-2.01.02-.1.03-.2.06-.35h-5.79c.24.9.08,1.7-.73,2.22-.61.39-1.26.37-1.86-.03-.79-.53-.91-1.31-.68-2.19-.4-.05-.77-.05-1.13-.13-1.01-.23-1.66-.87-1.91-1.88-.25-1,.06-1.85.8-2.52.24-.22.41-.38.33-.77-.85-3.78-1.68-7.56-2.52-11.33-.02-.1-.06-.19-.11-.34Z"/>
      <path class="cls-1" d="m34.3,50.07c8.21,0,16.42,0,24.63,0,1.03,0,1.07.04,1.07,1.09,0,.73,0,1.45,0,2.18,0,.44-.21.65-.63.66-.16,0-.33,0-.49,0-16.42,0-32.84,0-49.26,0-1.05,0-1.11-.06-1.11-1.12,0-.64,0-1.29,0-1.93,0-.72.15-.88.86-.88,2.35,0,4.71,0,7.06,0,5.96,0,11.92,0,17.87,0Z"/>
      <path class="cls-1" d="m22.45,18.36c.23-.75.44-1.46.65-2.16.79-2.63,1.59-5.26,2.36-7.9.12-.42.3-.59.76-.58,2.15.03,4.3.01,6.44.01.18,0,.36.02.58.03v10.6h-10.79Z"/>
      <path class="cls-1" d="m46.07,18.37h-10.78V7.76h7.58c1.05,3.49,2.12,7.02,3.2,10.61Z"/>
      <path class="cls-1" d="m9.73,18.4c.14-.27.23-.43.32-.58,1.9-3.19,3.81-6.38,5.71-9.58.21-.35.43-.52.86-.52,2.29.03,4.58.01,6.93.01-.03.19-.05.35-.09.5-.97,3.23-1.94,6.46-2.94,9.68-.06.2-.31.48-.48.48-3.4.03-6.8.02-10.31.02Z"/>
      <path class="cls-1" d="m44.97,7.73c2.44,0,4.82,0,7.19.01.15,0,.35.12.43.25,2.04,3.4,4.07,6.81,6.09,10.21.02.03,0,.08.02.17-.15,0-.31.03-.46.03-3.19,0-6.39,0-9.58,0-.34,0-.55-.04-.67-.44-.97-3.29-1.97-6.57-2.96-9.86-.03-.1-.03-.2-.06-.38Z"/>
      <path class="cls-1" d="m48.58,20.42h10.73c.01,1.69-2.35,3.49-4.85,3.71-2.71.24-5.47-1.48-5.88-3.71Z"/>
      <path class="cls-1" d="m9.13,20.41h10.73c.05,1.63-2.2,3.39-4.72,3.7-2.7.33-5.54-1.39-6.02-3.7Z"/>
      <path class="cls-1" d="m35.43,20.43h10.78c-.21,1.86-2.5,3.55-4.99,3.71-2.7.17-5.27-1.45-5.79-3.71Z"/>
      <path class="cls-1" d="m22.27,20.42h10.78c-.17,1.81-2.43,3.51-4.91,3.71-2.7.22-5.3-1.4-5.87-3.71Z"/>
      <path class="cls-1" d="m29.07,44.55c-.9.01-1.41-.74-1.07-1.39.69-1.31,1.44-2.59,2.19-3.87.29-.48.84-.58,1.29-.31.45.26.64.79.37,1.29-.7,1.29-1.42,2.56-2.17,3.81-.15.25-.49.38-.62.48Z"/>
      <path class="cls-1" d="m39.69,44.56c-.89,0-1.4-.76-1.05-1.41.69-1.31,1.44-2.59,2.2-3.87.28-.48.85-.57,1.29-.29.44.27.63.81.36,1.29-.7,1.28-1.42,2.56-2.18,3.81-.15.25-.49.38-.62.47Z"/>
      <path class="cls-1" d="m30.09,38.52c-.15.37-.21.59-.32.78-.64,1.15-1.29,2.29-1.95,3.43-.36.62-.92.81-1.43.51-.5-.29-.62-.86-.29-1.46.66-1.19,1.35-2.36,2.02-3.54.27-.48.7-.71,1.18-.49.32.15.54.52.79.77Z"/>
      <path class="cls-1" d="m37.68,43.38c-.85-.02-1.37-.7-1.06-1.3.71-1.37,1.48-2.71,2.28-4.03.28-.46.79-.5,1.25-.22.48.28.61.78.37,1.24-.71,1.33-1.46,2.63-2.24,3.91-.14.23-.48.33-.6.4Z"/>
    </g>
  </g>
</svg>