<?xml version="1.0" encoding="UTF-8"?>
<svg id="Layer_2" data-name="Layer 2" xmlns="http://www.w3.org/2000/svg" viewBox="0 0 56 54">
  <defs>
    <style>
      .cls-1 {
        stroke-width: 0px;
        fill: #fff;
      }
    </style>
  </defs>
  <g id="Layer_1-2" data-name="Layer 1">
    <g>
      <path class="cls-1" d="m54.96,2.08C53.96.61,52.47,0,50.74,0c-2.39,0-4.77,0-7.16,0C30.81,0,18.03,0,5.26,0,3.13,0,1.46.87.53,2.89.21,3.58.03,4.4.03,5.16,0,14.59,0,24.02,0,33.45c0,.07.01.15.02.26h9.93c0-.83,0-1.67,0-2.51,0-.79,0-1.57,0-2.36.01-1.14.67-1.82,1.77-1.84.64,0,1.28-.03,1.91,0,.36.02.55-.09.69-.45.38-1,.4-.99-.32-1.74-.36-.37-.73-.73-1.08-1.12-.63-.71-.67-1.65-.02-2.33,1.55-1.64,3.12-3.26,4.72-4.85.66-.66,1.58-.61,2.27.05.5.49.99.99,1.47,1.51.21.23.39.3.71.17,1.01-.44,1.02-.42,1.02-1.54,0-.51-.01-1.01,0-1.52.03-.97.7-1.67,1.64-1.68,2.19-.02,4.37-.02,6.56,0,.94,0,1.61.71,1.63,1.68.02.73.02,1.46,0,2.19-.01.32.1.46.37.58,1.02.45,1.02.46,1.82-.37.35-.36.69-.73,1.05-1.07.67-.62,1.58-.66,2.23-.01,1.59,1.59,3.17,3.21,4.72,4.85.65.68.61,1.63-.02,2.33-.47.52-.96,1.03-1.47,1.51-.25.24-.3.44-.16.78.42,1.01.4,1.01,1.46,1.01.47,0,.95,0,1.42,0,1.03.02,1.7.71,1.71,1.78.01,1.63,0,3.26,0,4.97h9.95V4.5c-.34-.81-.56-1.72-1.04-2.42Zm-10.55,14.8c-2.7,0-4.96-2.35-4.91-5.1.04-2.77,2.28-5.04,4.95-5.01,2.69.03,4.9,2.33,4.89,5.07-.02,2.76-2.25,5.04-4.92,5.04Z"/>
      <path class="cls-1" d="m.48,40.94c.98,2.01,2.61,2.93,4.78,2.93,12.74,0,25.48,0,38.22,0,2.42,0,4.85,0,7.27,0,1.72,0,3.21-.61,4.21-2.07.49-.71.7-1.61,1.04-2.42v-2.25H.01c-.01,1.35-.11,2.63.47,3.82Z"/>
      <path class="cls-1" d="m43.9,50.63c-1.44,0-2.88-.02-4.32.01-.42,0-.61-.11-.73-.53-.28-.96-.61-1.91-.91-2.84h-19.87c-.31.97-.64,1.92-.93,2.89-.11.37-.28.48-.66.47-1.62-.02-3.24-.02-4.87,0-.82,0-1.44.54-1.62,1.33-.17.73.19,1.48.9,1.87.09.05.18.11.26.17h33.68c1.01-.63,1.36-1.27,1.15-2.09-.23-.9-.86-1.28-2.09-1.28Z"/>
      <path class="cls-1" d="m17,28.89c-.38,1.09-.85,1.48-1.97,1.48-.59,0-1.19,0-1.77,0v3.34h6.7c-.57-3.66.56-6.63,3.52-8.66,2.86-1.97,5.94-2.01,8.85-.11,3.09,2.02,4.26,5.03,3.7,8.77h6.69v-3.3c-.07-.02-.11-.03-.14-.03-.56,0-1.13,0-1.69,0-1.02-.01-1.51-.42-1.86-1.4-.33-.93-.7-1.84-1.11-2.74-.44-.97-.38-1.58.34-2.34.43-.45.89-.88,1.3-1.28-.82-.84-1.57-1.61-2.38-2.44-.38.41-.79.86-1.21,1.29-.77.79-1.37.85-2.37.36-.83-.41-1.69-.77-2.56-1.1-1.02-.38-1.4-.87-1.4-1.99,0-.61,0-1.22,0-1.82h-3.28c0,.64,0,1.24,0,1.84,0,1.11-.4,1.6-1.42,1.98-.87.32-1.73.69-2.56,1.1-.98.48-1.58.42-2.36-.38-.42-.43-.83-.87-1.22-1.29-.79.82-1.54,1.59-2.36,2.44.42.41.86.83,1.29,1.27.75.78.81,1.39.36,2.38-.39.86-.76,1.74-1.07,2.63Z"/>
      <path class="cls-1" d="m28.52,27.05c-3.32-.45-6.17,2.93-5.25,6.24.1.35.23.48.59.47,1.36-.02,2.73,0,4.1,0s2.8-.01,4.2,0c.36,0,.49-.11.59-.47.8-2.9-1.17-5.82-4.22-6.24Z"/>
      <path class="cls-1" d="m44.42,10.13c-.89,0-1.64.75-1.65,1.67,0,.92.73,1.69,1.62,1.7.89,0,1.64-.75,1.65-1.67,0-.92-.73-1.69-1.62-1.7Z"/>
    </g>
  </g>
</svg>