<?xml version="1.0" encoding="UTF-8"?>
<svg id="Layer_2" data-name="Layer 2" xmlns="http://www.w3.org/2000/svg" viewBox="0 0 54 54">
  <defs>
    <style>
      .cls-1 {
        stroke-width: 0px;
        fill: #fff;
      }
    </style>
  </defs>
  <g id="Layer_1-2" data-name="Layer 1">
    <g>
      <path class="cls-1" d="m52.84,0h-11.71c.12.13.22.27.35.39,3.65,3.65,7.29,7.3,10.94,10.94.52.52,1.05,1.03,1.58,1.54V1.16c-.25-.52-.64-.91-1.16-1.16Z"/>
      <path class="cls-1" d="m37.76,2.01c-5.39,5.4-10.78,10.79-16.17,16.18-.95.95-.96,1.76,0,2.72,3.81,3.82,7.63,7.63,11.44,11.45,1.03,1.03,1.8,1.03,2.83,0,5.38-5.38,10.76-10.76,16.14-16.14.13-.13.26-.27.38-.4-4.74-4.74-9.45-9.45-14.29-14.29-.1.16-.19.34-.33.48Zm-3.29,19.11c-.88.01-1.58-.67-1.59-1.54-.01-.88.67-1.58,1.54-1.6.86-.01,1.58.68,1.6,1.55.02.87-.67,1.58-1.55,1.59Zm5.95-9.13c.88,0,1.57.67,1.58,1.55,0,.88-.69,1.58-1.55,1.59-.86,0-1.58-.71-1.59-1.57,0-.87.69-1.57,1.57-1.58Z"/>
      <path class="cls-1" d="m16.8,38.85c-.01-.96-.68-1.62-1.55-1.64-.58-.01-.99.29-1.37.68-3.4,3.41-6.81,6.82-10.21,10.22-1.03,1.03-2.06,2.07-3.1,3.09-.44.44-.67.95-.52,1.57.3,1.26,1.77,1.65,2.73.7,1.9-1.88,3.78-3.77,5.67-5.66,2.57-2.57,5.14-5.15,7.72-7.72.38-.37.65-.78.63-1.24Z"/>
      <path class="cls-1" d="m47.33,25.42c-.12.09-.18.13-.23.18-3.08,3.08-6.16,6.16-9.23,9.25-.1.1-.14.38-.08.52.34.86.72,1.71,1.09,2.56.59,1.35,1.8,1.59,2.85.54,1.88-1.87,3.74-3.76,5.63-5.62.49-.48.7-1.02.62-1.7-.22-1.88-.43-3.77-.65-5.73Z"/>
      <path class="cls-1" d="m16.03,15.09c.84.36,1.69.7,2.51,1.09.33.15.51.1.76-.15,2.96-2.98,5.93-5.94,8.9-8.91.12-.12.23-.25.42-.45-1.99-.22-3.87-.43-5.75-.65-.63-.07-1.16.08-1.63.54-1.92,1.93-3.85,3.85-5.77,5.78-.96.97-.7,2.21.56,2.75Z"/>
      <path class="cls-1" d="m19.73,27.67c-.09,1.73-.1,3.47-.08,5.21.01.87.71,1.48,1.61,1.49,1.47.02,2.95.03,4.42-.01,1.29-.04,2.46-.48,3.42-1.29-2.73-2.73-5.43-5.43-8.16-8.17-.66.79-1.15,1.72-1.21,2.77Z"/>
      <path class="cls-1" d="m24.25,40.93c-.67-.27-1.28-.14-1.79.37-2.92,2.92-5.85,5.84-8.76,8.77-.67.67-.68,1.63-.06,2.27.62.63,1.6.65,2.27-.02,2.94-2.93,5.88-5.86,8.79-8.81.28-.28.41-.71.6-1.07-.09-.68-.47-1.28-1.05-1.51Z"/>
      <path class="cls-1" d="m1.86,42.02c.21-.13.66-.3.98-.61,2.78-2.74,5.53-5.51,8.29-8.27.17-.17.36-.34.52-.53.46-.55.51-1.27.14-1.86-.36-.58-1.07-.89-1.74-.66-.33.11-.65.34-.91.59-2.83,2.81-5.65,5.64-8.47,8.46-.12.12-.25.25-.35.39-.36.52-.41,1.07-.12,1.64.3.57.78.83,1.67.86Z"/>
    </g>
  </g>
</svg>