<?xml version="1.0" encoding="UTF-8"?>
<svg id="Layer_2" data-name="Layer 2" xmlns="http://www.w3.org/2000/svg" viewBox="0 0 53.5 54">
  <defs>
    <style>
      .cls-1 {
        stroke-width: 0px;
        fill: #fff;
      }
    </style>
  </defs>
  <g id="Layer_1-2" data-name="Layer 1">
    <g>
      <path class="cls-1" d="m41.59,52.52c-1.77,0-3.55,0-5.32.01-.39,0-.53-.12-.63-.49-.98-3.6-1.99-7.2-2.99-10.8-.05-.18-.12-.4-.25-.49-.86-.56-1.74-1.1-2.64-1.66-.06.2-.12.41-.18.63-1.14,4.11-2.28,8.21-3.4,12.33-.1.37-.25.52-.64.49-.47-.04-.95,0-1.42,0h-2.68c-.27-1.28-.5-2.5-.78-3.71-.05-.21-.24-.47-.43-.57-2.29-1.1-4.59-2.19-6.9-3.25-.2-.09-.52-.09-.72,0-2.28,1.05-4.54,2.13-6.81,3.19-.28.13-.43.29-.48.61-.23,1.24-.5,2.47-.76,3.73-1.2,0-2.35,0-3.51,0-.43,0-.82.03-.98.51-.15.45.11.73.44.96h41.63c.33-.23.61-.5.45-.96-.16-.48-.55-.53-.98-.52Z"/>
      <path class="cls-1" d="m53.41,20.85c-.59-4.89-4.95-8.08-9.75-7.13-1.54.3-2.86,1.03-3.99,2.12-.26.25-.43.58-.2.89.16.21.46.38.71.41.19.02.44-.19.61-.35,1.68-1.48,3.62-2.08,5.8-1.63,5.18,1.05,7.11,7.11,3.56,11.09-.41.46-.44.88-.07,1.19.35.3.75.24,1.15-.19.94-1,1.6-2.17,1.94-3.51.13-.52.21-1.06.31-1.59v-.95c-.03-.12-.07-.23-.09-.35Z"/>
      <path class="cls-1" d="m13.31,43c1.34-.61,2.67-1.24,4-1.87.54-.25,1.07-.51,1.6-.77-.13-.63-.22-1.22-.38-1.79-.08-.28-.25-.58-.47-.76-1.01-.82-2.05-1.6-3.08-2.39-.68-.52-1.36-1.04-2.04-1.56-1.79,1.38-3.55,2.72-5.29,4.08-.1.08-.18.22-.21.34-.15.68-.28,1.37-.42,2.05.06.05.09.09.14.11,1.84.87,3.67,1.74,5.52,2.59.17.08.45.04.63-.04Z"/>
      <path class="cls-1" d="m41.55,32.37c.41.14.78-.04.97-.49.05-.11.08-.23.12-.35.76-2.15,1.52-4.3,2.26-6.45.12-.33.24-.49.64-.51,1.67-.07,2.91-1.63,2.67-3.32-.24-1.66-1.9-2.8-3.52-2.42-1.4.33-2.15,1.32-2.31,3.1-.99.35-2,.71-3,1.06-1.4.5-2.81.98-4.21,1.49-.59.21-.76.86-.36,1.25.3.29.63.22.98.09,1.93-.69,3.87-1.37,5.8-2.05.44-.16.88-.3,1.22-.41.31.3.54.54.85.84-.38,1.08-.78,2.22-1.18,3.36-.45,1.27-.9,2.55-1.34,3.82-.16.46.02.86.41.99Z"/>
      <path class="cls-1" d="m12.96,11.4c2.11.01,3.83-1.69,3.84-3.79.01-2.07-1.69-3.8-3.76-3.81-2.13-.01-3.83,1.64-3.86,3.76-.03,2.1,1.68,3.83,3.78,3.85Z"/>
      <path class="cls-1" d="m31.92,26.81c-.61,1.07-1.17,2.03-1.71,3.02-.08.15-.07.42.01.56,1.6,2.67,3.74,4.81,6.41,6.41.13.08.38.09.52.02,1-.54,1.98-1.11,3.05-1.72-3.1-2.46-5.8-5.15-8.28-8.29Z"/>
      <path class="cls-1" d="m9.68,27.28c-.12.51-.23,1.03-.31,1.55-.02.15,0,.39.09.47,1.15.91,2.32,1.8,3.47,2.68.08-.05.12-.06.15-.08.71-.54,1.43-1.08,2.13-1.64.48-.38,1.18-.7,1.33-1.19.17-.53-.18-1.22-.32-1.83-.03-.14-.11-.31-.22-.39-1-.77-2.01-1.53-3.04-2.31-1.04.78-2.06,1.55-3.07,2.33-.11.08-.17.26-.2.41Z"/>
      <path class="cls-1" d="m4.91,15.02c.3.24.62.25.92.01.32-.26.35-.59.17-.95-.07-.14-.19-.25-.29-.37-1.96-2.44-2.64-5.18-1.98-8.24.34-1.56,1.07-2.92,2.1-4.13.43-.5.34-1.13-.19-1.3-.4-.13-.7.05-.96.36-1.77,2.07-2.65,4.48-2.69,7.19,0,2.6.94,5.14,2.62,7.11.09.11.18.22.29.31Z"/>
      <path class="cls-1" d="m20.23,1.46c2.92,3.45,3.02,8.45.23,12.01-.16.21-.35.4-.49.62-.21.34-.16.68.16.94.29.24.62.23.92,0,.11-.09.2-.2.29-.3,1.73-2.05,2.58-4.43,2.63-7.11-.02-1.36-.25-2.69-.74-3.96-.48-1.24-1.16-2.36-2.05-3.35-.32-.35-.77-.39-1.08-.13-.31.27-.33.7-.04,1.08.05.07.11.13.17.2Z"/>
      <path class="cls-1" d="m45.66,16.16c-1.61-.09-3,.44-4.17,1.55-.33.31-.36.68-.08,1.04.25.31.68.33,1.04.06.11-.08.21-.19.32-.27,1.1-.85,2.32-1.14,3.67-.75,2.89.83,3.87,4.27,1.88,6.61-.39.47-.42.9-.07,1.2.35.3.78.21,1.18-.24.93-1.04,1.37-2.27,1.42-3.5.02-3.07-2.28-5.54-5.19-5.7Z"/>
      <path class="cls-1" d="m14.06,16.7c-.26-1.27-.53-2.53-.79-3.79h-.67c-.54,2.69-1.09,5.34-1.62,8.01-.02.12.05.31.14.39.59.47,1.19.91,1.82,1.39.59-.45,1.13-.87,1.69-1.26.28-.19.32-.4.26-.71-.29-1.33-.55-2.68-.83-4.01Z"/>
      <path class="cls-1" d="m40.75,26.19c-.22-.23-.39-.44-.8-.28-1.06.42-2.15.75-3.22,1.15-.86.32-1.7.57-2.58.03-.03.06-.07.12-.1.18,1.9,1.9,3.8,3.8,5.7,5.7.06-.03.12-.07.19-.1-.6-.93-.28-1.8.05-2.68.39-1.03.7-2.1,1.11-3.12.19-.47-.12-.63-.35-.88Z"/>
      <path class="cls-1" d="m30.14,21.15c.75,1.73,1.81,3.28,2.96,4.76.02.03.07.03.12.05-.31-1.49.21-2.44,1.61-2.94.54-.19,1.08-.38,1.69-.6-1.61-1.22-3.18-2.31-4.99-3.03-.29-.12-.6-.21-.9-.27-.62-.12-.93.15-.85.77.06.43.19.86.36,1.26Z"/>
      <path class="cls-1" d="m44.58,30.49c-.2.56-.38,1.02-.53,1.48-.21.65-.49,1.24-1.1,1.61-.6.36-1.24.36-2.04.19,1.79,1.39,3.5,2.6,5.51,3.31.39.14.98.19,1.28-.01.45-.31.16-.88,0-1.31-.69-1.92-1.86-3.57-3.13-5.27Z"/>
      <path class="cls-1" d="m5.24,9.6c.28,1.2.85,2.26,1.66,3.19.38.44.79.52,1.14.24.35-.28.35-.72.01-1.16-.04-.06-.09-.11-.13-.16-1.44-1.85-1.86-3.92-1.1-6.14.28-.82.85-1.56,1.31-2.31.25-.41.25-.84-.08-1.08-.37-.27-.72-.21-1.03.12-.11.11-.21.24-.31.36-1.13,1.45-1.71,3.09-1.78,4.93.1.67.16,1.36.32,2.02Z"/>
      <path class="cls-1" d="m18.04,3.49c1.44,1.85,1.86,3.92,1.11,6.14-.28.82-.84,1.56-1.3,2.32-.25.42-.25.82.09,1.08.37.28.72.21,1.03-.12.1-.1.19-.21.27-.32,1.15-1.46,1.73-3.11,1.81-4.97-.11-.69-.18-1.39-.34-2.07-.28-1.16-.84-2.19-1.61-3.1-.4-.47-.82-.56-1.17-.28-.36.29-.35.73.02,1.2.03.04.07.08.1.12Z"/>
      <path class="cls-1" d="m29.39,31.86c-.37,1.31-.6,2.54-.27,3.81.31,1.2,1.08,1.94,2.27,2.24,1.25.32,2.47.08,3.78-.29-2.35-1.58-4.21-3.46-5.78-5.77Z"/>
      <path class="cls-1" d="m19.23,41.85c-1.53.72-2.99,1.42-4.54,2.15,1.88.88,3.66,1.72,5.52,2.6-.34-1.64-.65-3.16-.98-4.74Z"/>
      <path class="cls-1" d="m5.76,46.58c1.85-.87,3.61-1.7,5.47-2.58-1.58-.74-3.03-1.43-4.52-2.13-.32,1.57-.63,3.09-.96,4.71Z"/>
      <path class="cls-1" d="m30.97,25.69c-.81-1.44-1.6-2.83-2.36-4.19-.75,1.32-.42,5.22.64,6.84.58-.9,1.16-1.79,1.72-2.66Z"/>
      <path class="cls-1" d="m38.64,37.78c2.05,1.08,5.42,1.36,6.87.63-1.38-.78-2.77-1.57-4.18-2.37-.86.56-1.77,1.15-2.69,1.74Z"/>
      <path class="cls-1" d="m42.23,40.34c-.14-.07-.19-.11-.25-.12-1.74-.19-3.38-.73-4.95-1.5-.14-.07-.37-.03-.54.01-.81.21-1.61.45-2.42.67-.2.05-.41.07-.61.11,2.81,1.38,5.7,1.65,8.77.83Z"/>
      <path class="cls-1" d="m28.26,30.57c.06-.23.04-.5-.04-.72-.4-1.21-.85-2.4-1.24-3.62-.14-.44-.16-.91-.26-1.47-.96,2.77-.48,6.84.72,8.73.27-.94.56-1.92.81-2.91Z"/>
      <path class="cls-1" d="m18,35.89c-.36-1.76-.7-3.39-1.05-5.1-.98.75-1.87,1.44-2.79,2.15,1.29.99,2.51,1.93,3.84,2.95Z"/>
      <path class="cls-1" d="m11.74,32.93c-.96-.74-1.84-1.41-2.78-2.13-.35,1.7-.67,3.31-1.03,5.06,1.34-1.03,2.55-1.97,3.81-2.93Z"/>
      <path class="cls-1" d="m10.2,24.77c.57-.43,1.03-.78,1.53-1.15-.4-.3-.73-.55-1.13-.85-.14.68-.25,1.28-.4,2Z"/>
      <path class="cls-1" d="m15.71,24.77c-.15-.73-.26-1.32-.4-2.01-.41.31-.75.57-1.13.86.51.39.97.73,1.53,1.15Z"/>
    </g>
  </g>
</svg>