<svg xmlns="http://www.w3.org/2000/svg" width="100" height="100" viewBox="0 0 100 100" fill="none">
  <g clip-path="url(#clip0_726_1774)">
    <path d="M62.3789 79.5558V86.5319C62.7314 86.5507 63.0515 86.5803 63.3717 86.583C64.8138 86.591 66.2586 86.5561 67.7007 86.6045C69.7643 86.6744 71.3221 88.2052 71.3759 90.2607C71.4297 92.273 71.427 94.2881 71.3759 96.3005C71.3275 98.2806 69.8773 99.7683 67.9106 99.9593C67.5769 99.9916 67.2406 99.997 66.9043 99.997C55.6285 99.997 44.3527 99.9997 33.0768 99.9916C32.5091 99.9916 31.9226 99.9728 31.3818 99.8302C29.781 99.4078 28.6752 97.9766 28.6402 96.2628C28.5999 94.3177 28.5999 92.3699 28.6348 90.4248C28.6752 88.1999 30.2303 86.6448 32.458 86.5964C34.1584 86.5588 35.8615 86.5883 37.6238 86.5883V79.5558C37.1933 79.5558 36.8032 79.5558 36.413 79.5558C26.9829 79.5558 17.5527 79.5692 8.12257 79.5504C3.95232 79.5423 0.731804 76.9462 0.147968 73.0398C-0.0726518 71.5574 0.0080628 70.0266 0.0080628 68.52C0.0080628 53.5886 0.0161343 38.6545 0.0349677 23.7231C0.0403486 20.0131 2.00709 17.1748 5.27873 16.0745C5.6258 15.9561 5.98632 15.8028 6.34416 15.792C7.3235 15.7624 8.11988 15.6413 8.39969 14.4307C8.47233 14.1105 9.30369 13.9061 9.82027 13.7635C10.5225 13.5698 11.2651 13.5294 11.97 13.3465C12.5592 13.1931 12.6856 12.7465 12.3466 12.2596C12.0049 11.7699 11.6337 11.2857 11.2059 10.8714C10.17 9.87594 10.1001 9.38361 10.9395 8.19179C12.3897 6.13368 14.2031 4.46029 16.3447 3.14202C17.2648 2.57436 17.9025 2.70887 18.6478 3.50522C19.124 4.01369 19.6379 4.49526 20.1921 4.91495C20.7033 5.30236 21.1903 5.14632 21.349 4.51947C21.5427 3.74735 21.6799 2.9537 21.7418 2.16004C21.8306 1.01934 22.2315 0.440917 23.3077 0.282186C25.8125 -0.0863903 28.3201 -0.145578 30.8088 0.427465C31.9388 0.688428 32.2697 1.22112 32.1917 2.37258C32.1432 3.06131 32.1728 3.78232 32.3316 4.44953C32.5065 5.1813 33.0419 5.41805 33.693 4.89881C34.11 4.5679 34.4974 4.19125 34.8606 3.79846C35.7404 2.84877 36.4642 2.74116 37.4973 3.46755C39.5555 4.91764 41.2021 6.74977 42.55 8.87245C43.1016 9.74143 42.9079 10.4409 42.2164 11.1108C41.759 11.552 41.2747 11.9798 40.9035 12.4883C40.2712 13.3519 40.4057 13.7231 41.4335 13.9518C42.0119 14.0809 42.6496 13.9706 43.22 14.1186C43.7258 14.2504 44.4603 14.4926 44.5975 14.8665C44.9069 15.7059 45.4585 15.6467 46.0988 15.6467C60.3611 15.644 74.6233 15.644 88.8856 15.6467C90.0586 15.6467 91.2371 15.6171 92.4074 15.6763C96.8898 15.8969 99.9623 19.0608 99.9812 23.5536C100.013 32.1116 99.9919 40.6669 99.9919 49.2249C99.9919 56.5399 99.9973 63.855 99.9919 71.17C99.9865 76.3758 96.7956 79.5531 91.5653 79.5558C82.2697 79.5612 72.9741 79.5558 63.6784 79.5558H62.3789ZM3.17208 66.8278H96.8548C96.871 66.4565 96.9006 66.131 96.9006 65.8028C96.9006 51.8776 96.9033 37.9523 96.9006 24.0271C96.9006 20.5808 95.0683 18.7621 91.603 18.7621C76.504 18.7621 61.4023 18.7621 46.3033 18.7621H45.289C45.1544 20.1046 45.0979 21.3126 44.8988 22.4963C44.5733 24.4388 44.2719 24.6271 42.2944 24.4549C42.0953 24.4388 41.8667 24.3876 41.6972 24.4576C41.1295 24.689 40.2147 24.8719 40.1178 25.2512C39.9914 25.7409 40.4918 26.4162 40.7824 26.9811C40.8954 27.2044 41.1671 27.347 41.3716 27.5219C42.3805 28.3882 42.472 29.1226 41.681 30.223C40.2524 32.2085 38.4955 33.8442 36.413 35.1275C35.3987 35.7543 34.7476 35.6198 33.9674 34.7186C33.5584 34.2451 33.1064 33.7742 32.5872 33.4326C31.9065 32.9833 31.3307 33.2308 31.1397 34.0244C30.9944 34.6352 30.9379 35.2808 30.9406 35.9131C30.9406 36.9112 30.5451 37.5515 29.5819 37.8905C26.9694 38.8159 24.357 38.4985 21.7526 37.9039C20.9885 37.729 20.7732 37.0861 20.8001 36.3328C20.8244 35.6333 20.8862 34.9096 20.7517 34.2343C20.5472 33.2093 20.0038 33.0398 19.1751 33.6693C18.7796 33.9706 18.4406 34.3554 18.1016 34.7239C17.2756 35.6198 16.533 35.7274 15.5429 35.0279C13.6031 33.6559 11.9942 31.9636 10.7081 29.9647C9.85524 28.6357 9.93327 28.1918 11.0687 27.1237C11.5503 26.6717 11.9861 26.1417 12.3117 25.5714C12.422 25.3777 12.196 24.7374 12.0023 24.6755C11.2785 24.4388 10.5117 24.3123 9.75031 24.2316C8.57188 24.1052 8.06607 23.6828 7.92886 22.4963C7.78895 21.2776 7.69747 20.0535 7.58716 18.8375C4.86439 18.9585 3.1371 20.8902 3.1371 23.8146C3.12903 37.8394 3.13441 51.8668 3.1371 65.8915C3.1371 66.1848 3.16131 66.4807 3.17746 66.8278H3.17208ZM96.7741 70.0858H3.1936C3.00257 72.039 3.14248 73.82 4.6653 75.219C5.75763 76.2198 7.07597 76.4108 8.49655 76.4081C25.5731 76.3812 42.6496 76.3677 59.7261 76.3651C70.3939 76.3651 81.0617 76.3946 91.7321 76.3973C95.4181 76.3973 97.4709 73.8442 96.7768 70.0858H96.7741ZM10.7646 16.8063V20.909C12.7502 21.2184 14.5367 21.6892 15.3116 23.6236C16.1079 25.6171 15.0075 27.1668 13.7269 28.7352C14.6658 29.7576 15.5806 30.753 16.5061 31.7592C16.8317 31.4928 17.0066 31.3422 17.1922 31.1996C20.063 28.9908 22.7292 29.884 23.679 33.3653C23.8485 33.9814 23.87 34.8638 24.2789 35.1275C24.7955 35.4584 25.6403 35.2835 26.3425 35.3212C26.5094 35.3293 26.6789 35.2997 26.8457 35.3131C27.7416 35.3858 28.1479 35.0952 28.3443 34.0917C29.0626 30.4624 32.2186 29.3244 35.1754 31.5305C35.4418 31.7296 35.7027 31.9341 36.0902 32.2327C37.0964 31.3126 38.0946 30.3979 39.1089 29.4697C37.7018 27.8232 36.9135 26.1095 37.7018 24.159C38.5089 22.1627 40.395 21.7269 42.437 21.5117V17.417C38.5923 17.1641 35.8184 13.9195 39.5663 9.55848C38.6704 8.57651 37.7583 7.57839 36.8301 6.56144C35.2238 7.87433 33.6338 8.87514 31.667 8.00078C29.6895 7.11834 29.3613 5.21089 29.1702 3.23618H25.1291C24.5318 8.37204 20.6979 9.6365 17.0684 6.40271C16.081 7.30129 15.0829 8.21331 14.0847 9.11996C17.4128 13.0559 15.5833 16.5345 10.7646 16.809V16.8063ZM49.9139 96.8816C55.6177 96.8816 61.3216 96.8681 67.0227 96.895C67.9859 96.9004 68.3491 96.5399 68.3222 95.5902C68.2792 94.0809 68.3168 92.5717 68.3088 91.0624C68.3034 89.8517 68.1285 89.6742 66.9043 89.6768C62.309 89.6876 57.7136 89.7226 53.1183 89.7199C46.4755 89.7172 39.8353 89.6876 33.1925 89.6768C31.9953 89.6768 31.7262 89.954 31.7208 91.1592C31.7154 92.6013 31.7154 94.0433 31.7208 95.488C31.7262 96.7363 31.8688 96.8789 33.1037 96.8789C38.7053 96.8789 44.3096 96.8789 49.9112 96.8789L49.9139 96.8816ZM59.1961 79.623H40.8577V86.4538H59.1961V79.623Z" fill="white"/>
    <path d="M71.4459 23.7746C76.7811 23.7746 82.1163 23.7692 87.4489 23.7746C91.342 23.78 93.4594 25.9134 93.4621 29.8332C93.4675 38.8593 93.4675 47.8827 93.4621 56.9088C93.4621 60.5919 91.1133 62.9809 87.4408 62.9863C76.7031 62.9998 65.968 62.9998 55.2303 62.9863C51.5739 62.9809 49.4027 60.7964 49.4 57.159C49.3947 47.9661 49.3947 38.7732 49.4 29.5803C49.4 25.9322 51.5605 23.7853 55.2384 23.7773C60.6409 23.7638 66.0434 23.7746 71.4432 23.7746H71.4459ZM90.3116 37.3931C89.9322 37.3743 89.7008 37.3527 89.4721 37.3527C77.4645 37.3527 65.4569 37.3581 53.4492 37.3366C52.6905 37.3366 52.486 37.5653 52.4887 38.3078C52.5156 44.5117 52.4995 50.7184 52.5075 56.9223C52.5075 58.9885 53.3846 59.8467 55.4509 59.8467C66.0488 59.8467 76.6493 59.8467 87.2471 59.8467C89.4049 59.8467 90.3089 58.9481 90.3116 56.8039C90.3116 51.3694 90.3116 45.9376 90.3116 40.5031V37.3958V37.3931ZM52.5479 34.1781H90.3116C90.3116 32.7738 90.3116 31.4367 90.3116 30.0996C90.3116 27.6433 89.5421 26.8792 87.0561 26.8792C76.6278 26.8792 66.2021 26.8792 55.7738 26.8792C55.4052 26.8792 55.0339 26.8765 54.6707 26.925C53.4923 27.0864 52.634 27.8397 52.5721 29.0073C52.4833 30.7049 52.5479 32.4106 52.5479 34.1754V34.1781Z" fill="white"/>
    <path d="M26.4206 49.561C30.6473 49.561 34.8741 49.5099 39.0981 49.5798C41.8586 49.6256 43.9168 50.9788 45.028 53.5131C46.1472 56.0609 45.7921 58.5091 44.0029 60.6667C42.6819 62.2594 40.8954 62.9804 38.8533 62.9858C30.5693 63.0019 22.2853 63.0288 13.9986 62.9777C10.24 62.9535 7.54412 60.3815 7.2374 56.7469C6.94952 53.3302 9.29024 50.3008 12.7421 49.6632C13.3287 49.5556 13.9448 49.561 14.5448 49.561C18.5025 49.5529 22.4602 49.5556 26.4179 49.5556C26.4179 49.5583 26.4179 49.561 26.4179 49.5664L26.4206 49.561ZM26.3479 59.8435C30.4402 59.8435 34.5351 59.8489 38.6273 59.8435C40.7609 59.8408 42.4828 58.2696 42.5231 56.3138C42.5635 54.3848 40.8604 52.6791 38.7269 52.671C30.5397 52.6414 22.3552 52.6441 14.1681 52.671C12.013 52.6764 10.3395 54.3148 10.3395 56.2707C10.3395 58.2831 12.0453 59.8462 14.2703 59.8489C18.2953 59.8542 22.323 59.8489 26.3479 59.8489V59.8435Z" fill="white"/>
    <path d="M50.0215 71.7272C50.7937 71.7272 51.5659 71.7003 52.338 71.7326C53.3254 71.7729 53.8635 72.3137 53.8931 73.2176C53.9227 74.1512 53.4492 74.7807 52.4726 74.8211C50.8314 74.8883 49.1848 74.8883 47.5436 74.8211C46.5696 74.7807 46.1042 74.1458 46.1392 73.2069C46.1741 72.3029 46.7149 71.7729 47.705 71.7353C48.4745 71.7057 49.2494 71.7299 50.0215 71.7299V71.7272Z" fill="white"/>
    <path d="M26.4071 29.8439C20.6064 29.8386 15.9492 25.1466 15.9707 19.3247C15.9922 13.5943 20.7033 8.90771 26.4394 8.91578C32.1648 8.92385 36.8785 13.6319 36.8973 19.357C36.9162 25.1385 32.2078 29.8466 26.4071 29.8413V29.8439ZM33.7414 19.357C33.7252 15.2623 30.4697 12.0473 26.3614 12.0742C22.3256 12.1011 19.0863 15.3511 19.0782 19.3758C19.0702 23.4221 22.3929 26.7501 26.434 26.7393C30.502 26.7285 33.7575 23.4409 33.7414 19.357Z" fill="white"/>
    <path d="M79.2052 48.5095C78.1048 47.3204 77.0986 46.2066 76.0627 45.1224C75.2233 44.2426 75.1157 43.3575 75.8152 42.6688C76.4905 42.0043 77.3488 42.0688 78.207 42.884C79.6653 44.2668 81.1128 45.6604 82.5549 47.0594C83.3755 47.8558 83.3862 48.6978 82.5791 49.5103C81.1612 50.9362 79.7352 52.3513 78.2985 53.7557C77.4941 54.5413 76.6762 54.5924 75.9982 53.9467C75.2906 53.2714 75.3175 52.3836 76.1219 51.5657C77.1739 50.495 78.2528 49.4511 79.2052 48.5095Z" fill="white"/>
    <path d="M74.4135 42.3998C74.3758 42.5989 74.3462 42.8303 74.287 43.0563C73.3211 46.8174 72.3526 50.5785 71.3867 54.3423C71.3625 54.4391 71.3571 54.5413 71.3248 54.6382C71.0127 55.5637 70.0468 56.1529 69.2074 55.9349C68.3922 55.7224 67.9429 54.8238 68.2065 53.8123C68.75 51.7407 69.3285 49.6772 69.8854 47.6083C70.3912 45.7332 70.8782 43.8526 71.3921 41.9801C71.6315 41.1058 72.2799 40.7076 73.1382 40.7991C74.0153 40.8932 74.3355 41.5524 74.4108 42.3998H74.4135Z" fill="white"/>
    <path d="M63.2721 48.3216C64.3618 49.3923 65.4218 50.412 66.4577 51.4558C67.3267 52.3275 67.4074 53.218 66.7159 53.9148C66.0057 54.6304 65.1824 54.547 64.273 53.6485C62.917 52.3033 61.5637 50.9554 60.2211 49.5941C59.3063 48.6633 59.3063 47.9019 60.2211 47.0033C61.6336 45.6205 63.0542 44.2457 64.4855 42.879C65.3384 42.0639 66.1967 42.002 66.872 42.6772C67.5769 43.3794 67.4935 44.2645 66.611 45.1255C65.5348 46.1747 64.4398 47.2051 63.2694 48.3216H63.2721Z" fill="white"/>
    <path d="M64.612 32.2222C61.9323 32.2222 59.2526 32.2222 56.5702 32.2222C55.7415 32.2222 55.0393 32.015 54.7756 31.103C54.5066 30.1641 54.9855 29.3085 55.9406 29.1256C56.363 29.0449 56.8069 29.0664 57.2428 29.0664C62.3682 29.0637 67.4962 29.0449 72.6216 29.0906C73.2028 29.096 73.9561 29.2978 74.3085 29.6933C74.6179 30.043 74.7094 30.9254 74.478 31.329C74.2224 31.7729 73.4906 32.1684 72.9552 32.1845C70.176 32.2679 67.394 32.2222 64.6147 32.2249L64.612 32.2222Z" fill="white"/>
    <path d="M78.9577 29.0391C80.6231 29.0633 81.2957 29.5583 81.2392 30.7367C81.1854 31.8774 80.545 32.2325 78.5648 32.2217C77.1174 32.2137 76.434 31.7402 76.4205 30.6963C76.4125 29.8596 76.8107 29.2839 77.6582 29.1225C78.0806 29.0418 78.5218 29.0633 78.955 29.0391H78.9577Z" fill="white"/>
    <path d="M85.5574 29.0825C87.2767 29.061 87.9412 29.4942 87.9547 30.6187C87.9681 31.7621 87.2955 32.2222 85.6032 32.2222C85.2696 32.2222 84.9333 32.2383 84.605 32.2033C83.6633 32.0984 83.1306 31.5119 83.1548 30.616C83.1817 29.7094 83.6741 29.2036 84.5593 29.0906C84.8875 29.0503 85.2238 29.0852 85.5574 29.0852V29.0825Z" fill="white"/>
    <path d="M23.0574 57.8236C20.8486 57.8236 18.637 57.8289 16.4281 57.8236C15.2093 57.8182 14.6039 57.3232 14.5663 56.3385C14.5286 55.2866 15.1178 54.7082 16.385 54.7028C20.8378 54.6812 25.2932 54.6839 29.746 54.7028C31.0051 54.7082 31.5944 55.292 31.5513 56.3466C31.511 57.3366 30.9164 57.8209 29.6868 57.8236C27.4779 57.8316 25.2663 57.8236 23.0574 57.8236Z" fill="white"/>
  </g>
  <defs>
    <clipPath id="clip0_726_1774">
      <rect width="100" height="100" fill="white"/>
    </clipPath>
  </defs>
</svg>