<svg xmlns="http://www.w3.org/2000/svg" width="100" height="100" viewBox="0 0 100 100" fill="none">
  <g clip-path="url(#clip0_726_1748)">
    <path d="M100 87.8881C99.2277 89.7667 97.7926 90.3747 95.8175 90.3434C90.9696 90.2651 86.1191 90.3225 81.2686 90.3147C78.602 90.3121 77.4148 89.1066 77.407 86.4296C77.4018 84.6084 77.3965 82.7845 77.3861 80.9633C77.3861 80.9033 77.3496 80.8433 77.2922 80.6554H75.1213C73.8846 80.6554 72.6452 80.705 71.4111 80.6424C70.0517 80.5745 69.0863 80.7572 68.1313 82.0853C66.1431 84.8562 61.984 84.3579 60.3037 81.3338C60.001 80.7859 59.6827 80.6346 59.0983 80.6424C56.6352 80.6737 54.1695 80.6554 51.5968 80.6554C51.5968 81.1042 51.5968 81.4538 51.5968 81.8035C51.5968 86.654 51.602 91.5019 51.5968 96.3523C51.5942 98.7685 50.347 99.9974 47.9126 99.9974C42.8352 100 37.7577 100.003 32.6802 99.9974C30.3188 99.9974 29.056 98.7502 29.0534 96.3915C29.0456 88.0264 29.0456 79.6613 29.0534 71.2962C29.0534 68.9871 30.3136 67.7608 32.6306 67.7556C34.6084 67.7504 36.5887 67.7556 38.6317 67.7556V61.3839H12.9703V67.7556C14.8907 67.7556 16.798 67.7556 18.7079 67.7556C21.4058 67.7556 22.593 68.9271 22.593 71.6041C22.5956 79.7735 22.5956 87.9429 22.593 96.1123C22.593 98.7841 21.3824 99.9948 18.7236 99.9948C13.7113 99.9948 8.69905 99.9974 3.68679 99.9948C1.26546 99.9948 -4.35393e-08 98.7398 -4.35393e-08 96.3393C-0.00260924 88.0395 -0.00260924 79.7396 -4.35393e-08 71.4398C-4.35393e-08 68.9975 1.22632 67.7608 3.64244 67.7556C5.52888 67.7504 7.41794 67.7504 9.30439 67.7451C9.36701 67.7451 9.43224 67.7216 9.61749 67.6825C9.63837 67.312 9.6775 66.9076 9.68011 66.5032C9.68794 64.9403 9.68011 63.3773 9.68533 61.817C9.69577 59.2705 10.9143 58.0441 13.4608 58.0415C25.698 58.0363 37.9377 58.0415 50.1748 58.0415C50.5949 58.0415 51.015 58.0415 51.5159 58.0415V54.8557C51.2107 54.8557 50.8715 54.8557 50.5297 54.8557C47.8292 54.8557 45.126 54.8635 42.4255 54.8557C39.9755 54.8479 38.7022 53.5642 38.697 51.1115C38.6917 48.4423 38.697 45.7731 38.697 43.1039C38.697 42.7543 38.697 42.4072 38.697 41.9559C38.016 41.9559 37.4393 41.9611 36.8653 41.9559C32.962 41.9141 29.0429 42.0759 25.1579 41.7758C20.2656 41.4001 16.4249 37.1236 16.1796 32.2523C15.9213 27.0808 19.2245 22.6113 24.1194 21.5154C25.8728 21.1214 25.9171 21.124 26.0241 19.415C26.4338 12.8946 29.1238 7.59798 34.4362 3.72332C37.1132 1.77164 40.1242 0.610552 43.4118 0.177425C43.5944 0.153942 43.7692 0.0600115 43.9467 0C45.3139 0 46.6811 0 48.0483 0C48.2284 0.0600115 48.4058 0.151333 48.591 0.172207C51.409 0.51923 54.0834 1.362 56.4212 2.95883C58.2868 4.23211 59.9671 5.77415 61.804 7.25878C61.9084 7.18572 62.1928 6.97699 62.4876 6.78391C68.9193 2.5831 75.7058 1.91254 82.5784 5.35146C89.4823 8.80603 93.07 14.6454 93.5188 22.3634C93.5579 23.0183 93.7614 23.3366 94.3302 23.6002C96.8716 24.7873 98.6328 26.6999 99.5251 29.3769C99.7078 29.9275 99.8435 30.4963 100 31.0572V33.596C99.9426 33.7473 99.8643 33.8908 99.8304 34.0474C98.925 38.4387 95.7261 41.4079 91.2644 41.8645C89.9233 42.0028 88.5535 41.8854 87.1001 41.8854C87.1001 42.3759 87.1001 42.6916 87.1001 43.0074C87.1001 45.6426 87.1001 48.2779 87.1001 50.9132C87.1001 53.6503 85.9051 54.8557 83.189 54.8583C77.3652 54.8609 71.5415 54.8583 65.7204 54.8583C65.3421 54.8583 64.9663 54.8583 64.5567 54.8583V61.243H77.3078C78.101 58.6417 78.9151 58.0415 81.6104 58.0415C86.3591 58.0415 91.1105 58.0859 95.8592 58.0207C97.8422 57.992 99.259 58.6521 99.9974 60.5464V87.8907L100 87.8881ZM87.1027 38.6578C88.5561 38.6578 89.8946 38.757 91.2122 38.637C94.0354 38.3839 96.4124 35.9417 96.7046 33.1316C97.0177 30.0997 95.747 27.7566 92.6499 26.4103C90.8626 25.6353 89.8868 24.6804 90.299 22.6739C90.3251 22.5513 90.299 22.4156 90.2886 22.2851C89.8633 15.8326 86.7975 11.0186 81.0259 8.16939C75.3066 5.34624 69.6785 5.94114 64.3662 9.42702C63.226 10.1759 62.1615 11.0369 61.016 11.8823C60.2646 10.9586 59.5627 10.0219 58.7852 9.15045C54.3574 4.18515 48.8389 2.27261 42.3472 3.67636C34.9267 5.28101 29.6926 11.6709 29.2934 19.2532C29.2099 20.8318 29.0403 22.4052 28.9125 23.955C27.5218 24.1925 26.2694 24.3777 25.0248 24.6256C21.5807 25.3118 19.1463 28.5055 19.3654 32.0096C19.5846 35.519 22.4547 38.5587 25.8728 38.6448C30.0684 38.7492 34.2666 38.6683 38.4648 38.6604C38.5169 38.6604 38.5691 38.5978 38.6996 38.5169C38.6996 38.2117 38.6996 37.8594 38.6996 37.5072C38.6996 31.6182 38.697 25.7267 38.6996 19.8377C38.6996 17.4033 39.9363 16.1431 42.3446 16.1431C56.0455 16.1379 69.7438 16.1379 83.4447 16.1431C85.866 16.1431 87.1027 17.3929 87.1027 19.8168C87.108 25.7058 87.1027 31.5973 87.1027 37.4863C87.1027 37.8412 87.1027 38.1934 87.1027 38.6526V38.6578ZM42.0002 67.7582C44.1841 67.7582 46.261 67.7425 48.3406 67.7634C50.2192 67.7817 51.5394 69.0732 51.589 70.9388C51.6203 72.1755 51.5994 73.4123 51.5994 74.6491C51.5994 75.5466 51.5994 76.4416 51.5994 77.4096C54.1277 77.4096 56.5021 77.3861 58.8739 77.4252C59.5914 77.4357 60.0063 77.2635 60.3976 76.5825C62.0806 73.668 66.2762 73.2818 68.1887 76.0215C69.081 77.3 69.9916 77.4905 71.2936 77.4226C72.4939 77.36 73.7019 77.4096 74.9048 77.4096C75.7084 77.4096 76.5094 77.4096 77.3183 77.4096V64.5019H76.1702C72.5591 64.5019 68.9454 64.5019 65.3342 64.5019C62.4093 64.5019 61.3109 63.4139 61.3083 60.5229C61.3083 58.9287 61.3109 57.3344 61.3056 55.7402C61.3056 55.461 61.2691 55.1845 61.2482 54.9183H54.8583C54.8583 55.7846 54.8583 56.5908 54.8583 57.3971C54.8557 60.0637 53.6346 61.3004 50.9993 61.303C48.9824 61.303 46.9629 61.303 44.946 61.303C43.9806 61.303 43.0126 61.303 42.0054 61.303V67.7582H42.0002ZM83.7943 51.5551V29.1317H42.0185V51.5551H83.7943ZM48.3275 96.6994V77.4853H32.3018V96.6994H48.3275ZM3.23018 96.6863H19.3002V77.4983C19.1358 77.4644 19.0132 77.4174 18.888 77.4174C13.9122 77.4122 8.93388 77.4226 3.95815 77.3965C3.20148 77.3913 3.22496 77.814 3.22757 78.3332C3.2354 81.6521 3.23018 84.9684 3.23018 88.2873C3.23018 91.0505 3.23018 93.8136 3.23018 96.6863ZM80.6894 87.0532H96.7124V67.8234H80.6894V87.0532ZM45.1547 22.6791H48.4397V25.7319H51.6203V22.6713H54.8766V25.7397H58.0572V22.6635H61.3135V25.7241H83.7995V19.4072H42.0315V25.7241H45.1547V22.6791ZM32.2992 74.1403H48.3249V71.0249H32.2992V74.1403ZM19.2976 70.944C18.3818 70.944 17.5103 70.944 16.6414 70.944C12.4746 70.944 8.30768 70.944 4.14079 70.9492C3.74941 70.9492 3.23018 70.7953 3.23279 71.4893C3.23279 72.3582 3.23279 73.2271 3.23279 74.1298H19.295V70.9466L19.2976 70.944ZM96.7307 61.3709H80.7128V64.4262H96.7307V61.3709ZM64.5437 77.4226C63.6774 77.407 62.9207 78.1376 62.9051 79.0012C62.8894 79.8544 63.6304 80.6215 64.4862 80.6398C65.3499 80.658 66.0987 79.9301 66.1144 79.056C66.1327 78.1819 65.4151 77.4357 64.541 77.42L64.5437 77.4226Z" fill="white"/>
    <path d="M62.9155 48.4003C58.2659 48.4003 53.6137 48.4003 48.9641 48.4003C46.3941 48.4003 45.1495 47.1427 45.1469 44.5543C45.1443 41.6607 45.1391 38.7645 45.1469 35.8709C45.1547 33.5487 46.4567 32.2468 48.7867 32.2442C58.185 32.2363 67.586 32.2363 76.9843 32.2442C79.3665 32.2442 80.645 33.5461 80.6476 35.9414C80.6528 38.9002 80.6554 41.8616 80.6476 44.8205C80.6398 47.0748 79.3247 48.3951 77.0626 48.4003C72.3478 48.4107 67.6303 48.4029 62.9155 48.4029V48.4003ZM61.337 38.6367H77.347V35.5787H61.337V38.6367ZM61.3422 45.0814H77.3444V42.0365H61.3422V45.0814ZM58.0024 35.5657H48.4606V38.6132H58.0024V35.5657ZM48.4423 45.0788H57.9867V42.0365H48.4423V45.0788Z" fill="white"/>
    <path d="M35.532 83.8442V80.7236H45.0947V83.8442H35.532Z" fill="white"/>
    <path d="M35.579 87.0975H41.8854V90.239H35.579V87.0975Z" fill="white"/>
    <path d="M16.1013 80.7236V83.826H6.52039V80.7236H16.1013Z" fill="white"/>
    <path d="M12.8503 87.121V90.2572H6.52299V87.121H12.8503Z" fill="white"/>
    <path d="M93.5083 71.0302V74.1716H83.9091V71.0302H93.5083Z" fill="white"/>
    <path d="M90.3434 80.6059H83.8439C83.8439 79.6613 83.8073 78.7586 83.8726 77.8636C83.8856 77.6705 84.2639 77.3574 84.4805 77.3522C86.2313 77.3105 87.9873 77.3078 89.738 77.3574C89.9468 77.3626 90.2964 77.7566 90.3147 77.9941C90.3851 78.829 90.3434 79.6744 90.3434 80.6059Z" fill="white"/>
  </g>
  <defs>
    <clipPath id="clip0_726_1748">
      <rect width="100" height="100" fill="white"/>
    </clipPath>
  </defs>
</svg>