<svg xmlns="http://www.w3.org/2000/svg" width="100" height="100" viewBox="0 0 100 100" fill="none">
  <g clip-path="url(#clip0_726_1790)">
    <path d="M0 67.3867C0.320722 65.6675 0.521499 63.9145 0.996063 62.2424C1.51756 60.4085 2.2268 58.6164 2.97515 56.8581C3.63224 55.3112 4.71956 54.8156 5.85122 55.3477C6.98548 55.8799 7.19147 57.0042 6.49005 58.5329C2.82131 66.531 2.8187 74.537 7.03763 82.2638C11.9945 91.3419 19.8665 96.0583 30.2 96.0166C40.5778 95.9748 48.2934 91.0967 53.3206 82.0029C53.4458 81.776 53.5501 81.5386 53.6518 81.2986C53.6727 81.2464 53.644 81.1734 53.6362 81.0977C53.3519 81.0977 53.0677 81.0977 52.7835 81.0977C51.8422 81.0899 51.2451 80.5812 50.9843 79.7282C50.7262 78.8725 50.9009 78.0117 51.7275 77.6021C53.4119 76.7674 55.1355 75.99 56.8929 75.3274C57.7795 74.9935 58.5852 75.4604 58.9972 76.3108C59.7299 77.8317 60.4182 79.376 61.0597 80.9386C61.4404 81.8699 61.0675 82.8403 60.2748 83.3255C59.3857 83.8681 58.4965 83.6516 57.4692 82.6003C57.3388 82.822 57.2032 83.0229 57.0963 83.2368C52.3298 92.5784 44.6898 97.9392 34.4033 99.6348C33.6732 99.7548 32.9457 99.8774 32.2182 100H27.7281C26.7737 99.8565 25.8064 99.7626 24.8625 99.5644C12.5055 96.9818 4.53704 89.6202 1.0091 77.503C0.513676 75.8048 0.331152 74.0152 0.00260749 72.2674C0.00260749 70.6396 0.00260749 69.0118 0.00260749 67.384L0 67.3867Z" fill="white"/>
    <path d="M46.2439 18.9568C46.5542 18.9333 46.7706 18.9099 46.987 18.8994C48.0274 18.8499 48.7836 19.3716 49.0443 20.3159C49.2972 21.2368 48.9192 22.1368 47.9831 22.5802C46.5177 23.2767 45.034 23.9419 43.5321 24.5576C42.39 25.0245 41.407 24.6019 40.875 23.4593C40.244 22.1055 39.6495 20.7333 39.0602 19.3585C38.57 18.2134 38.8151 17.2429 39.6938 16.6847C40.5256 16.1551 41.4617 16.3325 42.3118 17.1803C42.3744 17.2429 42.4474 17.2899 42.5204 17.3499C43.3417 15.9647 44.0901 14.5612 44.9662 13.2465C55.0077 -1.78456 76.436 -4.49495 89.909 7.54397C101.773 18.1429 103.437 36.3748 93.4943 48.805C86.8608 57.1005 78.0423 60.75 67.4689 60.0065C60.1183 59.49 53.8525 56.5579 48.5672 51.3641C40.377 43.3138 28.9145 41.4643 18.5758 46.3659C17.1834 47.0259 16.0986 46.7781 15.5537 45.6772C15.0087 44.5764 15.4833 43.5407 16.847 42.8625C28.1635 37.2304 41.9363 39.4008 51.1355 48.4111C55.0207 52.2171 59.5004 54.7527 64.8327 55.7544C80.3473 58.6631 93.8802 48.1815 95.8123 33.7296C97.6845 19.7264 88.819 7.24398 75.0045 4.40837C63.5967 2.06842 51.8787 7.71875 46.6167 18.0986C46.489 18.3516 46.3847 18.6203 46.2387 18.9568H46.2439Z" fill="white"/>
    <path d="M56.4992 44.4018C55.962 43.9844 55.2606 43.6766 54.9269 43.1392C53.5892 40.9871 52.348 38.775 51.1043 36.5654C50.4915 35.4776 50.7131 34.6011 51.6962 33.8237C51.7483 33.7846 51.7979 33.7377 51.8552 33.7116C53.936 32.7412 54.7391 31.116 54.2984 28.883C54.2307 28.5464 54.0742 28.1499 53.8265 27.9386C53.1355 27.3491 52.3611 26.8586 51.644 26.2978C50.7053 25.5621 50.4993 24.6752 51.0886 23.6265C52.3298 21.417 53.5996 19.2205 54.8877 17.0371C55.4901 16.0171 56.3688 15.7432 57.4744 16.1501C57.5969 16.1945 57.7325 16.2232 57.8342 16.2988C59.7429 17.7518 61.5264 17.2692 63.2369 15.931C63.4586 15.7562 63.6646 15.4536 63.7115 15.1823C63.8601 14.3189 63.9305 13.4397 64.027 12.5685C64.1756 11.2328 64.8692 10.5624 66.1834 10.5546C68.6553 10.5415 71.1272 10.5415 73.5991 10.5546C74.9003 10.5598 75.5886 11.1807 75.7607 12.4459C75.7738 12.5424 75.7998 12.6415 75.7894 12.738C75.513 15.1041 76.8037 16.4214 78.8219 17.2197C79.1061 17.3319 79.5051 17.3319 79.7945 17.2275C80.6472 16.9145 81.4633 16.5049 82.3081 16.1684C83.4189 15.7275 84.3081 15.9936 84.9078 17.0058C86.1985 19.1866 87.4658 21.3831 88.7095 23.5926C89.3145 24.6648 89.0876 25.57 88.1203 26.3421C88.0446 26.4021 87.969 26.4726 87.883 26.5117C85.7839 27.4508 85.1008 29.1073 85.5101 31.2829C85.5727 31.6194 85.7422 32.0107 85.9925 32.2246C86.6835 32.8142 87.4579 33.3046 88.1724 33.8681C89.0981 34.5985 89.3067 35.5141 88.7252 36.5446C87.4814 38.7541 86.2116 40.948 84.9209 43.1314C84.3185 44.1514 83.4372 44.4201 82.3316 44.0105C82.2403 43.9766 82.136 43.9584 82.0604 43.9036C80.183 42.5653 78.376 42.7192 76.6551 44.1853C76.4178 44.3888 76.1675 44.6888 76.1153 44.9809C75.9485 45.907 75.8807 46.8513 75.7555 47.7852C75.6017 48.9357 74.895 49.5983 73.7269 49.6113C71.1898 49.6348 68.6527 49.6348 66.1156 49.6113C64.9109 49.6009 64.1939 48.9122 64.0427 47.7148C64.027 47.587 64.0244 47.4539 64.0114 47.3261C63.6906 44.2453 63.6959 44.2323 60.9032 42.8836C60.6477 42.761 60.2253 42.8549 59.9254 42.9697C58.8433 43.3897 57.7794 43.8592 56.4992 44.3992V44.4018ZM55.2971 36.0359C56.0455 37.3272 56.7391 38.5245 57.4535 39.7584C58.3479 39.3697 59.151 39.0254 59.9515 38.6732C60.7676 38.3132 61.4873 38.4384 62.2435 38.9263C63.4925 39.7271 64.7832 40.4758 66.0974 41.1645C66.8222 41.5427 67.3072 42.0175 67.4115 42.8366C67.5289 43.7653 67.6436 44.6966 67.7662 45.6644H72.045C72.1572 44.7879 72.2954 43.927 72.3684 43.061C72.4492 42.0671 72.9942 41.5245 73.8625 41.0941C75.1036 40.4784 76.3161 39.7793 77.466 39.0045C78.277 38.4567 79.0383 38.3002 79.9249 38.6967C80.715 39.0489 81.5155 39.3828 82.3707 39.7506C83.106 38.4776 83.7996 37.2776 84.5193 36.0307C83.771 35.4776 83.0747 34.9481 82.3603 34.4446C81.5911 33.902 81.359 33.1794 81.4033 32.2507C81.4711 30.8003 81.4711 29.3421 81.4033 27.8891C81.359 26.9526 81.6198 26.2456 82.389 25.7082C83.1008 25.2074 83.7918 24.6778 84.5245 24.1378C83.7918 22.87 83.0982 21.6674 82.3733 20.4153C81.4607 20.8066 80.6289 21.1587 79.8023 21.5161C79.0149 21.8553 78.3213 21.7144 77.599 21.2553C76.3448 20.4596 75.0645 19.7005 73.7477 19.017C72.9525 18.6023 72.4701 18.0727 72.3814 17.1701C72.2954 16.278 72.1598 15.391 72.0477 14.5197H67.7557C67.654 15.4119 67.5419 16.2493 67.4637 17.0919C67.3698 18.1145 66.7936 18.6779 65.8835 19.1136C64.6919 19.6822 63.5212 20.337 62.4469 21.0987C61.5447 21.7379 60.7155 21.884 59.7299 21.4066C59.0076 21.057 58.2566 20.7648 57.4483 20.4153C56.7182 21.6805 56.0246 22.8805 55.3049 24.1274C56.0611 24.6909 56.7521 25.2256 57.4613 25.7343C58.194 26.256 58.447 26.9369 58.4079 27.8369C58.3453 29.3212 58.3375 30.8134 58.4079 32.2977C58.4522 33.2368 58.1914 33.9411 57.4222 34.4785C56.7338 34.9611 56.0663 35.4776 55.2997 36.0463L55.2971 36.0359Z" fill="white"/>
    <path d="M30.1322 89.4532C28.8962 89.4532 27.6603 89.4663 26.4243 89.4506C25.0971 89.4324 24.3722 88.7672 24.2184 87.4707C24.2106 87.4054 24.2106 87.3402 24.2054 87.275C24.0037 85.1863 22.972 83.6681 21.1103 82.7203C20.8756 82.6003 20.4897 82.6473 20.2237 82.749C19.4363 83.049 18.6749 83.4246 17.8978 83.7507C16.5941 84.3011 15.7101 84.0298 15.0061 82.8299C13.7728 80.7273 12.5525 78.6169 11.3504 76.4961C10.6725 75.2987 10.8654 74.4352 11.9527 73.6083C12.6255 73.097 13.353 72.6457 13.9736 72.0796C14.2499 71.8266 14.3986 71.3648 14.4742 70.9736C14.5524 70.5692 14.3881 70.1127 14.4794 69.7136C14.7688 68.4275 14.117 67.744 13.1313 67.0528C10.4013 65.1328 10.4013 64.9632 12.0831 62.0389C13.0401 60.3772 13.9944 58.7129 14.9618 57.0564C15.7075 55.7834 16.555 55.5095 17.9109 56.0729C17.9708 56.099 18.0282 56.1277 18.0882 56.1512C19.9725 56.9651 21.7708 56.8216 23.4831 55.7208C23.7073 55.5747 23.8768 55.2251 23.9211 54.946C24.0593 54.0799 24.1167 53.2008 24.2184 52.3295C24.367 51.0643 25.0789 50.3965 26.3435 50.3887C28.8493 50.373 31.3551 50.373 33.8583 50.3887C35.1021 50.3965 35.767 51.0122 35.9443 52.246C35.9547 52.3113 35.9678 52.3765 35.9652 52.4391C35.7931 54.6982 36.7344 56.2477 38.9012 56.9834C39.2271 57.0955 39.6469 57.166 39.9546 57.059C40.8125 56.7616 41.626 56.3416 42.4682 56.0051C43.6234 55.5434 44.4943 55.8199 45.1279 56.8947C46.4004 59.0494 47.6519 61.2172 48.8827 63.398C49.4928 64.478 49.279 65.3858 48.3247 66.1554C48.2491 66.2154 48.1761 66.2858 48.0874 66.3275C46.0144 67.2745 45.2635 68.8945 45.6911 71.0883C45.7563 71.4301 45.9127 71.8292 46.1605 72.0431C46.8228 72.6144 47.5685 73.0892 48.2647 73.6239C49.2947 74.417 49.5033 75.3196 48.8696 76.4413C47.6389 78.6195 46.3873 80.7899 45.1149 82.9446C44.4865 84.009 43.6103 84.2646 42.4448 83.8107C42.3848 83.7872 42.3144 83.7768 42.2649 83.7403C40.3484 82.3368 38.5231 82.6316 36.7735 84.0507C36.5545 84.2281 36.3459 84.5203 36.3015 84.7864C36.1425 85.715 36.0695 86.6568 35.9417 87.5933C35.7774 88.8011 35.0786 89.4298 33.84 89.4532C32.6041 89.4767 31.3681 89.4584 30.1322 89.4584V89.4532ZM42.5543 60.2311C41.6417 60.6303 40.8646 60.9589 40.0954 61.3033C39.2428 61.6868 38.5049 61.5459 37.7174 61.0294C36.5023 60.2337 35.2351 59.5085 33.9417 58.8433C33.1465 58.4338 32.6536 57.9094 32.565 57.0016C32.4789 56.1095 32.3407 55.2199 32.2286 54.3512H27.9315C27.8454 55.1521 27.7411 55.8929 27.6916 56.6364C27.6134 57.7973 27.0527 58.5016 25.9654 58.9842C24.7894 59.5059 23.6682 60.1868 22.6122 60.9276C21.7465 61.5355 20.946 61.7207 19.9838 61.2589C19.2329 60.8989 18.4558 60.5885 17.6345 60.2311C16.8939 61.5146 16.2004 62.712 15.4885 63.9458C16.2708 64.5328 16.9643 65.0676 17.6762 65.5763C18.3802 66.0797 18.6227 66.7371 18.594 67.5953C18.5419 69.1136 18.5288 70.6396 18.594 72.1579C18.6305 73.0579 18.3802 73.7387 17.6475 74.2631C16.9357 74.7717 16.2447 75.3039 15.4885 75.8648C16.2134 77.1169 16.907 78.3169 17.6371 79.5847C18.4689 79.2221 19.2407 78.8986 20.0021 78.5517C20.9173 78.1343 21.7022 78.2569 22.5522 78.8438C23.6656 79.6134 24.852 80.3047 26.0749 80.8812C27.0371 81.3351 27.5742 81.9612 27.6707 83.0046C27.7463 83.8342 27.8532 84.6611 27.9445 85.4855H32.239C32.3512 84.5959 32.4946 83.7638 32.5493 82.9212C32.6197 81.8751 33.2064 81.3299 34.1034 80.889C35.3185 80.2916 36.5101 79.616 37.6261 78.8491C38.471 78.2673 39.2584 78.1317 40.1763 78.5491C40.9376 78.896 41.7095 79.2195 42.5543 79.5847C43.2844 78.3221 43.978 77.1195 44.7081 75.8569C43.978 75.3196 43.2844 74.7848 42.5673 74.2865C41.7564 73.7231 41.5348 72.9718 41.5895 72.004C41.6704 70.6188 41.6782 69.2205 41.5895 67.8353C41.5243 66.8206 41.7877 66.0641 42.6299 65.485C43.3235 65.0102 43.9884 64.4911 44.7055 63.9615C43.9832 62.7093 43.2896 61.5068 42.5517 60.2337L42.5543 60.2311Z" fill="white"/>
    <path d="M12.1171 50.0104C12.1092 51.0695 11.2618 51.933 10.2188 51.946C9.15233 51.9591 8.21885 51.0356 8.23189 49.9765C8.24492 48.9043 9.17319 48.02 10.2527 48.0565C11.3139 48.0904 12.1275 48.9435 12.1197 50.0104H12.1171Z" fill="white"/>
    <path d="M76.7307 30.1821C76.7229 33.8577 73.6435 36.9098 69.9278 36.9202C66.186 36.9307 63.0466 33.8212 63.0701 30.1273C63.0935 26.23 66.0687 23.264 69.9356 23.2796C73.8129 23.2953 76.7386 26.2691 76.7307 30.1821ZM72.8247 30.096C72.8404 28.5021 71.5418 27.1769 69.946 27.1587C68.3581 27.1404 67.0022 28.4447 66.9761 30.0177C66.9474 31.6638 68.2668 32.9994 69.9147 32.9942C71.5444 32.9864 72.8065 31.729 72.8221 30.096H72.8247Z" fill="white"/>
    <path d="M30.1608 63.0821C33.8739 63.103 36.9247 66.1603 36.9143 69.8516C36.9038 73.7593 33.9495 76.7228 30.0748 76.7097C26.2131 76.6967 23.2458 73.6967 23.251 69.8151C23.2562 66.1108 26.3878 63.0613 30.1582 63.0821H30.1608ZM33.0056 69.8881C32.9874 68.2447 31.7384 67.0029 30.0983 67.0029C28.4347 67.0029 27.1257 68.3255 27.1596 69.9768C27.1909 71.5368 28.5755 72.8698 30.1374 72.8437C31.7253 72.8176 33.0239 71.4794 33.0056 69.8907V69.8881Z" fill="white"/>
  </g>
  <defs>
    <clipPath id="clip0_726_1790">
      <rect width="100" height="100" fill="white"/>
    </clipPath>
  </defs>
</svg>