<svg xmlns="http://www.w3.org/2000/svg" width="100" height="100" viewBox="0 0 100 100" fill="none">
  <g clip-path="url(#clip0_726_1813)">
    <path d="M62.83 70.9987H51.3857C49.6915 74.3514 47.3501 77.1429 44.6091 79.5044C40.796 82.7965 35.314 83.1959 30.9447 80.6726C18.6457 73.5727 8.85 63.909 1.68909 51.6258C-1.3806 46.3616 -0.151715 39.7826 4.50592 35.8432C5.37575 35.1049 6.28097 34.402 7.13058 33.6435C8.78426 32.177 10.5087 30.8571 12.9311 30.7155C12.9311 30.2756 12.9311 29.9216 12.9311 29.5626C12.9311 22.574 12.9311 15.5853 12.9311 8.59671C12.9311 3.4134 16.3295 0 21.4929 0C42.652 0 63.8111 0 84.9702 0C90.1386 0 93.537 3.4134 93.537 8.59671C93.537 26.6397 93.542 44.6827 93.5218 62.7206C93.5218 63.5196 93.714 64.091 94.2905 64.6625C95.9037 66.2655 96.2729 68.1719 95.4283 70.3009C94.8569 71.7421 95.3677 72.9659 96.7837 73.5828C98.9178 74.5133 99.9848 76.1466 99.9899 78.4728C99.9899 79.0796 100.035 79.6865 99.9646 80.2832C99.732 82.2452 98.675 83.6258 96.8696 84.4298C95.3525 85.1024 94.8468 86.2655 95.4283 87.7522C96.2577 89.8761 95.8582 91.737 94.3057 93.4109C92.8795 94.9482 91.327 96.1517 89.0614 95.7876C88.6012 95.7117 88.1511 95.5702 87.7162 95.4033C86.3305 94.8774 85.0612 95.3729 84.4897 96.7231C83.5643 98.9178 81.9106 99.9899 79.5438 99.9848C78.8712 99.9848 78.1885 100.035 77.5311 99.9292C75.6701 99.6258 74.3603 98.5689 73.6118 96.8293C72.9797 95.3729 71.7761 94.8319 70.3651 95.4033C68.1552 96.2984 66.2688 95.823 64.5494 94.2048C63.007 92.7535 61.8843 91.1707 62.2889 88.9153C62.3647 88.4905 62.5164 88.0758 62.6682 87.6713C63.1941 86.3009 62.6732 85.0569 61.3027 84.4652C59.1636 83.5449 58.0864 81.9216 58.0712 79.5954C58.0712 79.1909 58.0662 78.7914 58.0712 78.3868C58.1066 76.1062 59.1635 74.4981 61.2572 73.5879C62.4052 73.0872 62.8502 72.3843 62.83 70.9937V70.9987ZM90.3156 62.0025V60.981C90.3156 43.6106 90.3156 26.2402 90.3156 8.86979C90.3156 5.07206 88.4798 3.2263 84.7122 3.2263C63.72 3.2263 42.7278 3.2263 21.7356 3.2263C21.4322 3.2263 21.1288 3.22124 20.8304 3.23135C18.2917 3.33249 16.193 5.35019 16.1778 7.88369C16.1374 15.4083 16.1525 22.9381 16.1778 30.4627C16.1778 30.756 16.4863 31.1302 16.7493 31.3325C17.5685 31.9595 18.5344 32.4248 19.2728 33.1277C21.412 35.1656 23.4854 37.2743 25.5588 39.3831C28.143 42.0177 28.0722 45.5828 25.4172 48.1416C24.4513 49.0721 23.455 49.9772 22.4841 50.9027C20.532 52.7585 20.4764 55.2061 22.3526 57.1226C23.2679 58.0582 24.1934 58.9836 25.129 59.9039C27.0001 61.7345 29.554 61.6789 31.3745 59.7674C32.3253 58.7712 33.1749 57.6536 34.2318 56.7889C35.1371 56.0455 36.28 55.5954 37.3066 55.0038C37.6656 54.7965 38.0955 54.6245 38.3332 54.3161C40.8769 50.9987 44.2045 49.0822 48.3514 48.5613C48.6599 48.5209 49.0543 48.4147 49.2263 48.1972C49.7522 47.5246 50.1922 46.7813 50.6524 46.0834C47.5675 43.3072 47.1174 42.6549 45.7419 39.2263C45.6458 38.9836 45.2362 38.7358 44.953 38.7105C39.6278 38.2655 37.0385 32.885 39.997 28.4197C40.1588 28.1719 40.2296 27.7118 40.1133 27.4539C37.2762 21.2238 36.8919 14.6245 37.1245 7.9292C37.1245 7.84324 37.1903 7.76233 37.2459 7.6359C39.3143 8.15676 41.3624 8.6574 43.4004 9.18331C46.3184 9.93173 49.2263 9.9115 51.9925 8.70796C56.3467 6.81669 60.8779 6.2402 65.5659 6.43742C68.2512 6.54867 70.7242 7.26675 72.9493 8.7737C79.0533 12.9102 80.798 20.8445 77.0406 27.2061C76.8534 27.5196 76.7928 27.9848 76.8484 28.3489C76.9849 29.2642 77.3693 30.1643 77.3844 31.0746C77.4502 34.5992 77.3339 38.134 77.435 41.6587C77.5311 45.1327 76.9546 48.3489 74.4867 51.0746C76.8534 52.8344 78.6032 54.9937 79.6602 57.689C79.7259 57.8559 79.9939 58.0177 80.181 58.043C82.3556 58.3211 83.7767 59.5044 84.5858 61.5322C85.0157 62.6094 86.3508 63.0746 87.4633 62.7307C88.3483 62.4576 89.2637 62.2604 90.3055 61.9924L90.3156 62.0025ZM44.776 74.6447C40.7859 70.665 36.8464 66.7307 32.8866 62.7762C31.0812 64.1719 29.0179 64.8445 26.641 64.3287C23.6725 63.6865 18.6558 58.7661 17.9782 55.7927C17.9731 55.7623 17.968 55.7269 17.963 55.6915C17.4118 53.2895 18.0894 51.1858 19.4801 49.4008C15.5103 45.421 11.5758 41.4867 7.63123 37.5322C3.28714 40.2073 1.96723 45.78 4.66775 50.3363C11.3634 61.6334 20.3955 70.5891 31.6324 77.3552C36.4721 80.2731 41.5141 79.2667 44.776 74.6397V74.6447ZM92.6317 68.4551C92.6722 66.7863 90.2852 64.981 88.94 65.6536C86.3103 66.9684 82.2595 65.2541 81.4656 62.493C81.2279 61.6587 80.5603 61.2844 79.6905 61.2844C79.2859 61.2844 78.8864 61.2946 78.4818 61.2844C77.5311 61.2541 76.9293 61.6839 76.545 62.5689C75.225 65.6081 72.2565 66.847 69.1565 65.6233C67.877 65.1176 67.1589 65.8104 66.3649 66.5942C65.6063 67.3426 65.2068 68.0759 65.6468 69.1783C66.8504 72.2023 65.6013 75.2516 62.6378 76.5057C61.4949 76.9911 61.2774 77.8255 61.2876 78.9229C61.2977 80.0506 61.3584 81.0164 62.6226 81.5525C65.6013 82.8066 66.8605 85.8559 65.6519 88.8698C65.1866 90.0278 65.6569 90.7611 66.4256 91.5297C67.2348 92.3388 67.9832 92.9203 69.2424 92.4045C72.1806 91.2061 75.2807 92.4855 76.4944 95.3881C76.99 96.5714 77.8446 96.7939 78.9825 96.7889C80.1305 96.7838 81.061 96.6523 81.5768 95.3982C82.7855 92.4855 85.8906 91.201 88.8187 92.3944C90.0728 92.9052 90.8263 92.3439 91.6405 91.5398C92.4497 90.7358 92.8795 89.9722 92.389 88.7838C91.2157 85.9216 92.5104 82.7712 95.3424 81.598C96.5106 81.1125 96.7988 80.2983 96.7938 79.1403C96.7887 77.957 96.6572 77.0013 95.3626 76.4652C92.5154 75.2971 91.2511 72.1568 92.3637 69.2844C92.4851 68.976 92.5761 68.6523 92.6368 68.4652L92.6317 68.4551ZM71.0226 25.8356C71.7407 25.8356 72.474 25.6941 73.1263 25.871C73.9203 26.0834 74.1883 25.7446 74.5069 25.153C77.7486 19.201 74.6131 11.6207 68.0186 10.1037C63.3256 9.02655 58.6022 9.48672 54.1064 11.3881C50.2225 13.0316 46.2678 13.3401 42.1968 12.2124C41.6051 12.0506 41.0033 11.9343 40.351 11.7826C40.2144 16.8546 41.0741 21.5828 43.0515 26.0784C43.805 25.9772 44.4675 25.9014 45.1249 25.7851C45.2918 25.7547 45.5143 25.6384 45.5801 25.4968C46.7381 23.0898 48.761 22.488 51.2491 22.5487C55.3403 22.6498 59.2647 21.7851 62.9109 19.914C64.3623 19.1707 65.6822 19.2819 67.0426 19.8837C69.561 20.9911 70.7697 23.0341 71.0175 25.8306L71.0226 25.8356ZM67.5786 30.9937C67.6343 30.9937 67.6848 30.9937 67.7405 30.9937C67.7405 29.2794 67.7607 27.5651 67.7354 25.8559C67.7101 24.3793 66.8757 23.1909 65.5608 22.7914C65.2119 22.6852 64.7416 22.6802 64.423 22.8319C59.9525 24.9911 55.2341 25.9267 50.2832 25.8154C49.024 25.7901 48.4121 26.4071 48.4019 27.6511C48.3868 30.3717 48.3514 33.0923 48.4171 35.8129C48.5284 40.7231 52.5235 44.8293 57.4087 45.1378C62.3698 45.4513 66.8504 42.0126 67.5331 37.1226C67.8113 35.115 67.5786 33.0417 67.5786 30.9937ZM62.1877 67.6865C63.27 63.3831 66.6279 61.4715 70.709 62.7813C71.685 63.0948 73.0302 62.5841 73.4247 61.6081C74.0164 60.1416 74.9469 59.0291 76.4337 58.3919C75.5335 56.354 74.2035 54.7914 72.4183 53.6384C72.1402 53.4564 71.6345 53.507 71.2704 53.603C69.8544 53.9722 68.4181 54.8167 67.0476 54.7155C64.7112 54.5436 63.447 55.6814 62.1928 57.3097C60.9133 58.9734 59.472 60.5158 58.0662 62.1492C57.8133 61.8609 57.6363 61.6688 57.4643 61.4665C54.9257 58.4273 52.3971 55.378 49.8483 52.354C49.6359 52.1011 49.2667 51.7826 48.9936 51.8028C45.9998 52.0354 43.5117 53.2946 41.6102 55.4589C43.8505 57.6941 45.9796 59.8786 48.1794 61.9924C49.8331 63.5803 51.2339 65.2844 51.5121 67.6966H62.1928L62.1877 67.6865ZM10.3419 35.2667C14.246 39.1707 18.1046 43.0291 22.0036 46.933C22.4638 46.4981 23.005 46.043 23.4702 45.5221C24.4665 44.4147 24.5019 42.9583 23.4601 41.8913C21.1945 39.56 18.9188 37.2339 16.5571 35.0038C14.7618 33.3148 12.0663 33.507 10.3419 35.2617V35.2667ZM46.9556 71.9697C48.7458 70.2453 48.9431 67.5145 47.254 65.7143C45.0238 63.3426 42.6924 61.0619 40.356 58.7965C39.3345 57.8053 37.8426 57.8356 36.7857 58.7712C36.2446 59.2516 35.7793 59.8179 35.3039 60.3135C39.2232 64.2276 43.0667 68.0758 46.9607 71.9646L46.9556 71.9697ZM66.6077 45.1631C69.3082 45.7244 70.6736 47.3375 71.0428 49.8862C75.0228 46.7965 74.0973 42.5487 74.1681 38.7105C73.1061 38.7105 72.1402 38.6801 71.1743 38.7307C70.9113 38.7459 70.4865 38.9482 70.4258 39.1504C69.7178 41.4463 68.4485 43.3831 66.6077 45.158V45.1631ZM60.5846 54.2554C58.41 52.7889 57.6869 50.8622 58.2684 48.4602C57.348 48.354 56.5187 48.2832 55.6893 48.1517C54.9459 48.0405 54.0558 47.5398 53.5198 47.8028C52.8977 48.1112 52.5842 49.0569 52.1442 49.7295C52.1088 49.78 52.1088 49.8508 52.0835 49.9621C54.0558 52.3287 56.0484 54.7155 58.0914 57.1681C58.9562 56.1568 59.735 55.2415 60.5897 54.2453L60.5846 54.2554ZM71.0175 35.4842C71.4221 35.4842 71.7811 35.4842 72.1402 35.4842C73.632 35.4741 74.1782 34.9229 74.1883 33.4159C74.1934 32.5107 74.2136 31.6106 74.1782 30.7054C74.1428 29.6941 73.541 29.0973 72.5397 29.0417C72.0492 29.0114 71.5536 29.0417 71.0124 29.0417V35.4893L71.0175 35.4842ZM64.4837 51.6056C64.9894 51.6056 65.49 51.6056 65.9958 51.6056C66.0615 51.6056 66.1323 51.6056 66.198 51.6005C67.0932 51.5044 67.7202 50.8673 67.7354 50.0278C67.7556 49.153 67.1083 48.4349 66.1626 48.3995C65.0551 48.354 63.9476 48.354 62.8401 48.3995C61.945 48.4399 61.3179 49.1226 61.3027 49.957C61.2825 50.8319 61.9298 51.5246 62.8755 51.5904C63.4116 51.6258 63.9476 51.5954 64.4837 51.5954V51.6056ZM45.1097 35.4387V29.0721C43.2234 29.2137 41.949 30.5183 41.9541 32.2579C41.9541 33.9874 43.2335 35.2971 45.1097 35.4387Z" fill="white"/>
    <path d="M79.0129 67.7421C85.223 67.7371 90.3004 72.8041 90.3105 79.0139C90.3156 85.2238 85.2483 90.306 79.0432 90.3161C72.8431 90.3211 67.7556 85.244 67.7455 79.0443C67.7405 72.8344 72.8077 67.7522 79.0129 67.7472V67.7421ZM79.0786 70.9684C74.6283 70.9482 70.9821 74.5588 70.9669 78.9988C70.9568 83.4033 74.5322 87.0443 78.9218 87.0898C83.3721 87.1353 87.0487 83.5398 87.0841 79.105C87.1144 74.6498 83.5188 70.9886 79.0786 70.9684Z" fill="white"/>
    <path d="M64.4786 35.5402C64.4786 39.1407 61.5 42.0029 57.9043 41.9271C54.4655 41.8563 51.5627 38.898 51.684 35.5352H54.7588C55.2797 37.6489 56.3973 38.7109 58.0864 38.7008C59.7603 38.6907 60.9184 37.5832 61.3482 35.5352H64.4786V35.5402Z" fill="white"/>
    <path d="M53.272 27.4238C54.1469 27.4441 54.8599 28.1975 54.8346 29.0673C54.8144 29.9422 54.0609 30.6552 53.1911 30.635C52.3162 30.6097 51.6031 29.8613 51.6284 28.9915C51.6486 28.1116 52.3971 27.4036 53.272 27.4289V27.4238Z" fill="white"/>
    <path d="M62.9412 30.6346C62.0714 30.6549 61.3229 29.9368 61.3027 29.0619C61.2825 28.1871 61.9955 27.4437 62.8704 27.4235C63.7453 27.4033 64.4887 28.1163 64.5089 28.9912C64.5292 29.8609 63.8111 30.6094 62.9412 30.6296V30.6346Z" fill="white"/>
    <path d="M79.0634 83.8584C76.3882 83.8736 74.1883 81.684 74.1934 79.0089C74.1984 76.3742 76.3578 74.2048 78.9876 74.1897C81.6678 74.1745 83.8627 76.3591 83.8576 79.0392C83.8525 81.6738 81.6931 83.8433 79.0634 83.8635V83.8584ZM78.9774 80.6271C79.8473 80.6524 80.6008 79.9393 80.6311 79.0696C80.6564 78.1998 79.9484 77.4463 79.0735 77.4159C78.2037 77.3907 77.4502 78.0986 77.4198 78.9735C77.3946 79.8433 78.1026 80.6018 78.9724 80.6271H78.9774Z" fill="white"/>
  </g>
  <defs>
    <clipPath id="clip0_726_1813">
      <rect width="100" height="100" fill="white"/>
    </clipPath>
  </defs>
</svg>