<svg xmlns="http://www.w3.org/2000/svg" width="100" height="100" viewBox="0 0 100 100" fill="none">
  <g clip-path="url(#clip0_726_1708)">
    <path d="M100 54.1908C99.412 55.1897 98.5248 55.3962 97.4912 55.3894C93.1954 55.3625 88.8996 55.3782 84.6038 55.3782H83.3483C83.3483 56.9877 83.3483 58.4781 83.3483 59.9686C83.3483 61.1897 83.3546 62.413 83.3483 63.6341C83.3358 65.4702 82.7562 66.1032 81.0697 66.11C78.8893 66.119 76.709 66.11 74.5287 66.11C74.173 66.11 73.8193 66.11 73.3318 66.11C73.3318 66.5948 73.3318 67.0011 73.3318 67.4096C73.3318 73.3109 73.3234 79.2121 73.3339 85.1133C73.3402 89.0191 71.9069 92.0673 68.5631 93.7531C67.3725 94.3547 65.9371 94.6397 64.6126 94.651C54.8827 94.725 45.1529 94.7048 35.423 94.6824C31.1126 94.6734 27.9948 92.1504 26.9507 87.8384C26.7331 86.9405 26.6954 85.9753 26.687 85.0393C26.6577 81.5129 26.6745 77.9865 26.6745 74.4602C26.6745 74.0853 26.6745 73.7082 26.6745 73.2525C23.7283 73.2525 20.9014 73.2525 18.0766 73.2525C17.7188 73.2525 17.361 73.2615 17.0032 73.2525C15.6473 73.2121 15.0363 72.5746 15.0259 71.1246C15.0091 68.6801 15.0217 66.2357 15.0217 63.7912C15.0217 63.4164 15.0217 63.0393 15.0217 62.5342H13.8876C10.1128 62.5342 6.33802 62.5342 2.56325 62.5342C0.493826 62.5342 0.00837907 62.0202 0.00628662 59.8429C0.00628662 53.2795 0.00628662 46.7138 0.00628662 40.1504C0.00628662 38.0157 0.506381 37.468 2.47119 37.468C10.1191 37.468 17.767 37.468 25.4148 37.468H26.6766C26.6766 36.9495 26.6766 36.5387 26.6766 36.1279C26.7017 30.9607 26.6243 25.7912 26.7833 20.6285C26.913 16.4242 30.1438 13.0011 34.0796 12.5387C34.4667 12.4938 34.858 12.4691 35.2493 12.4691C45.0775 12.4646 54.9057 12.4467 64.734 12.4736C68.944 12.4848 72.0512 15.0662 73.0744 19.3625C73.2816 20.229 73.3109 21.1582 73.3234 22.0584C73.3569 24.3973 73.3339 26.7362 73.3339 29.0774C73.3339 29.4545 73.3339 29.8294 73.3339 30.3142H74.5852C82.2645 30.3142 89.9458 30.3255 97.6251 30.3008C98.6567 30.2963 99.4643 30.5881 100.004 31.5578V54.1908H100ZM55.0606 62.4938H69.9065V55.3782C68.4313 55.3782 67.0356 55.385 65.6421 55.3782C63.8781 55.367 63.3216 54.7632 63.3195 52.8462C63.3153 46.1773 63.3153 39.5084 63.3195 32.8395C63.3195 30.9315 63.8886 30.3255 65.6546 30.321C67.0754 30.3165 68.4962 30.321 69.9379 30.321V26.8103H30.0789V37.349C30.2023 37.4007 30.2609 37.4456 30.3195 37.4456C31.6524 37.4568 32.9874 37.4613 34.3203 37.4703C36.0968 37.4815 36.6764 38.0853 36.6785 39.9686C36.6826 46.6375 36.6826 53.3064 36.6785 59.9753C36.6785 61.9394 36.1219 62.5297 34.2805 62.5342C32.8911 62.5387 31.5018 62.5342 30.0852 62.5342V69.7037H49.9278V73.2929H30.0914V80.3053H69.9295V66.0943H55.0606V62.4916V62.4938ZM33.2992 41.1336H3.40023V58.8619H33.2992V41.1336ZM66.6967 51.7015H96.6019V33.9753H66.6967V51.7015ZM30.1228 23.0887H69.9274C70.4945 18.3345 67.6969 15.9237 64.0016 15.9843C54.5082 16.1392 45.0106 16.0314 35.5151 16.0382C31.6671 16.0404 29.4533 18.936 30.1228 23.0887ZM30.1375 84.0224C29.4135 88.1032 31.6461 91.1021 35.4125 91.1089C45.1361 91.1246 54.8597 91.1246 64.5812 91.1089C68.356 91.1021 70.5656 88.1392 69.8667 84.0224H30.1396H30.1375ZM26.6054 62.6105H18.4219V69.6296H26.6054V62.6105ZM73.3799 62.4444H79.9523V55.4456H73.3799V62.4444Z" fill="white"/>
    <path d="M3.32696 78.6465V75.1201H6.61419V78.5545H9.91606V82.1751H6.68533V85.7172H3.36671V82.2133H0.0480957V78.6487H3.32696V78.6465Z" fill="white"/>
    <path d="M8.32999 21.3086V17.8204H5.08252V14.2222H8.32371V10.7228H11.6298V14.211H14.963V17.789H11.6758V21.3086H8.32999Z" fill="white"/>
    <path d="M88.3074 10.5522V7.0954H85.0579V3.50168H88.3074V0H91.6281V3.45679H94.9216V7.02581H91.6993V10.5522H88.3074Z" fill="white"/>
    <path d="M81.6514 89.3849H84.9428V92.9158H88.2656V96.4826H85.0139V99.9977H81.6974V96.5567H78.3955V92.9607H81.6514V89.3827V89.3849Z" fill="white"/>
    <path d="M26.6284 44.6934V48.1165H13.4042V44.6934H26.6284Z" fill="white"/>
    <path d="M10.0583 51.8586H23.2679V55.2975H10.0583V51.8586Z" fill="white"/>
    <path d="M9.93494 44.6981V48.1302H6.7063V44.6981H9.93494Z" fill="white"/>
    <path d="M89.9646 44.7188V48.1284H73.405V44.7188H89.9646Z" fill="white"/>
    <path d="M93.2644 40.9969H80.082V37.5244H93.2644V40.9969Z" fill="white"/>
    <path d="M70.0759 37.5173H76.6044V40.9943H70.0759V37.5173Z" fill="white"/>
    <path d="M43.3931 21.2992V17.8604H49.9529V21.2992H43.3931Z" fill="white"/>
    <path d="M36.7664 17.8672H39.9657V21.306H36.7664V17.8672Z" fill="white"/>
    <path d="M45.0629 85.8429H54.9559V89.2795H45.0629V85.8429Z" fill="white"/>
  </g>
  <defs>
    <clipPath id="clip0_726_1708">
      <rect width="100" height="100" fill="white"/>
    </clipPath>
  </defs>
</svg>