<svg xmlns="http://www.w3.org/2000/svg" width="100" height="100" viewBox="0 0 100 100" fill="none">
  <g clip-path="url(#clip0_726_1801)">
    <path d="M9.75143 87.0469H90.29V35.5702H93.5294V87.0925C95.0704 87.0925 96.5078 87.0884 97.9411 87.0925C99.449 87.1008 99.9917 87.6476 99.9958 89.1678C100.004 90.9821 99.9958 92.7965 99.9958 94.6108C99.9917 98.0407 98.0489 99.9917 94.6313 99.9917C67.6885 99.9917 40.7415 99.9917 13.7987 99.9917C10.9113 99.9917 8.01986 100 5.13254 99.9917C2.05466 99.9793 0.0248324 97.9495 0.00826235 94.8759C-2.26509e-05 92.9953 0.00411985 91.1147 0.00826235 89.2341C0.00826235 87.6061 0.53436 87.1008 2.19965 87.0966C3.57496 87.0966 4.94612 87.0966 6.45814 87.0966C6.45814 86.6534 6.45814 86.264 6.45814 85.8747C6.45814 68.2739 6.45814 50.6731 6.45814 33.0724C6.45814 31.084 6.88482 30.6615 8.8815 30.6615C11.7978 30.6615 14.7141 30.6615 17.7465 30.6615C17.7465 29.1537 17.7423 27.7205 17.7465 26.2872C17.7547 24.7629 18.2891 24.2119 19.797 24.2119C27.0215 24.2078 34.2419 24.2119 41.4664 24.2119C42.9867 24.2119 43.5377 24.7587 43.546 26.2624C43.5542 27.6956 43.546 29.133 43.546 30.6408H57.9909V33.8801H43.5915V35.4708H58.0033V38.6728H43.546C43.546 39.1367 43.546 39.493 43.546 39.8451C43.546 42.5666 43.5542 45.2881 43.546 48.0055C43.5418 49.4429 42.9701 50.0021 41.5161 50.0062C34.2585 50.0104 27.0008 50.0104 19.7473 50.0062C18.3098 50.0062 17.7506 49.4346 17.7465 47.9806C17.7382 44.9319 17.7465 41.8831 17.7465 38.7805H14.5982V82.1963H85.4432V37.194H88.7075V38.2379C88.7075 53.2207 88.7075 68.1993 88.7075 83.1821C88.7075 85.0213 88.2353 85.4894 86.3753 85.4894C62.1168 85.4894 37.8624 85.4894 13.604 85.4894C11.7564 85.4894 11.2924 85.0213 11.2924 83.1656C11.2924 68.0502 11.2924 52.9348 11.2924 37.8195C11.2924 35.9679 11.7564 35.5039 13.6122 35.5039C14.9503 35.5039 16.2883 35.5039 17.6843 35.5039V33.9381H9.75143V87.0552V87.0469ZM96.7647 90.3857H3.23113C3.23113 91.7195 3.23113 92.9912 3.23113 94.2629C3.23113 96.3755 3.62881 96.769 5.7622 96.769C35.2527 96.769 64.739 96.769 94.2295 96.769C94.5319 96.769 94.8343 96.7814 95.1367 96.7607C96.0977 96.6944 96.7315 96.1228 96.7564 95.1742C96.7978 93.6001 96.7688 92.026 96.7688 90.3815L96.7647 90.3857ZM40.2527 46.7379V27.5134H21.0232V46.7379H40.2527Z" fill="white"/>
    <path d="M82.2535 3.9518C82.4192 4.02636 82.5187 4.05536 82.6015 4.10507C84.1052 5.04123 85.3936 5.09094 86.5535 3.463C87.1003 2.69667 88.0986 2.75052 88.7863 3.40915C90.3356 4.90039 91.8559 6.42477 93.3472 7.96986C94.039 8.68648 94.1011 9.70135 93.285 10.2771C91.6612 11.4204 91.7523 12.6797 92.6636 14.1461C92.7299 14.2538 92.7755 14.378 92.8459 14.5355C93.5584 14.5355 94.2626 14.5189 94.9669 14.5355C96.1143 14.5645 96.7399 15.1444 96.7564 16.2628C96.7813 18.3464 96.7854 20.43 96.7564 22.5094C96.7399 23.574 96.1143 24.1539 95.0373 24.2037C94.6686 24.2202 94.2999 24.2037 93.9271 24.2078C93.5584 24.2078 93.1939 24.2078 92.8501 24.2078C92.7755 24.3569 92.7424 24.4522 92.6885 24.535C91.7979 26.0263 91.6446 27.3187 93.3099 28.491C94.1135 29.0585 94.0307 30.0692 93.3264 30.7982C91.8517 32.3185 90.3563 33.8139 88.836 35.2844C88.111 35.9844 87.1127 36.0507 86.5286 35.2512C85.4267 33.7393 84.2295 33.6192 82.7548 34.5636C82.6181 34.6506 82.4565 34.7045 82.2535 34.7956C82.2535 35.5246 82.2742 36.262 82.2494 36.9952C82.208 38.068 81.6156 38.6894 80.5468 38.706C78.4631 38.7349 76.3795 38.7349 74.2958 38.706C73.2229 38.6935 72.6346 38.0763 72.5849 37.0076C72.5684 36.6389 72.5808 36.2703 72.5808 35.8975C72.5808 35.5288 72.5808 35.1643 72.5808 34.7956C72.4151 34.721 72.2908 34.6796 72.179 34.6092C70.7042 33.6813 69.4573 33.644 68.3099 35.243C67.7092 36.0797 66.6984 35.9762 65.9279 35.2264C64.4615 33.7973 63.0116 32.3433 61.5783 30.8811C60.7912 30.0733 60.696 29.0833 61.5783 28.4247C63.0406 27.327 63.1525 26.163 62.2245 24.7297C62.1334 24.5889 62.0878 24.4232 61.9884 24.2037C61.309 24.2037 60.6048 24.2161 59.9047 24.2037C58.6993 24.1788 58.0779 23.5989 58.0655 22.4225C58.0448 20.372 58.0406 18.3257 58.0655 16.2752C58.0779 15.1485 58.6951 14.5769 59.8385 14.5313C59.8716 14.5313 59.9047 14.5313 59.9379 14.5313C62.1665 14.4775 62.1748 14.4816 62.908 12.2945C62.9743 12.0956 62.8583 11.8305 62.7962 11.6027C62.7713 11.5198 62.6595 11.4618 62.5891 11.3873C60.3604 9.09243 60.3604 9.05101 62.6595 6.75202C63.7034 5.70815 64.7432 4.656 65.7995 3.62041C66.7316 2.7091 67.5559 2.71739 68.5087 3.62456C70.1574 5.19036 70.1781 5.20693 72.1873 4.08435C72.3944 3.96837 72.5642 3.56242 72.5477 3.30145C72.353 -0.3148 73.4466 -0.0206948 75.9321 0.0124439C77.411 0.0331555 78.8898 0.00415922 80.3687 0.0207285C81.628 0.0331555 82.2121 0.621366 82.2411 1.87235C82.2577 2.54341 82.2411 3.21447 82.2411 3.94766L82.2535 3.9518ZM89.9917 29.4437C89.5692 29.0916 89.1177 28.7436 88.7034 28.3626C88.0199 27.7329 87.9578 27.0246 88.3472 26.1754C88.9312 24.9037 89.4573 23.5989 89.9586 22.2899C90.2858 21.4324 90.8285 20.9685 91.7606 20.9851C92.324 20.9975 92.8832 20.9851 93.4839 20.9851V17.7582C92.8625 17.7582 92.295 17.754 91.7316 17.7582C90.7954 17.7665 90.2693 17.2818 89.9462 16.4285C89.4491 15.1195 88.9105 13.823 88.3347 12.5471C87.9743 11.7435 88.0033 11.0435 88.6537 10.4387C89.0928 10.0327 89.5816 9.68064 90.0332 9.31612C89.1011 8.40481 88.372 7.68404 87.4731 6.80587C87.208 7.14139 86.9511 7.5432 86.6239 7.87459C85.6172 8.8936 85.1657 8.8936 83.8691 8.25154C82.7921 7.72132 81.6694 7.27809 80.5344 6.88457C79.4408 6.50348 79.0514 6.0851 79.0348 4.93353C79.0265 4.3826 79.0348 3.82753 79.0348 3.3056H75.8078C75.8078 3.92695 75.8037 4.4903 75.8078 5.05366C75.8202 5.98983 75.3314 6.5159 74.4781 6.839C73.169 7.33608 71.8724 7.87459 70.5965 8.45037C69.797 8.81075 69.0928 8.78176 68.488 8.13555C68.082 7.70061 67.7299 7.20767 67.3612 6.75616C66.4416 7.6799 65.7208 8.40895 64.8923 9.24156C65.3024 9.61437 65.7291 9.98717 66.1392 10.3766C66.8103 11.0145 66.8807 11.7228 66.4913 12.5678C65.9072 13.8437 65.3811 15.1444 64.8799 16.4492C64.5526 17.3067 64.01 17.7706 63.0737 17.754C62.5104 17.7458 61.9511 17.754 61.3546 17.754V20.9809C61.9801 20.9809 62.5435 20.9851 63.1069 20.9809C64.0472 20.9685 64.565 21.4614 64.8923 22.3147C65.3894 23.6237 65.9321 24.9203 66.5079 26.1961C66.8683 26.9997 66.831 27.6998 66.1848 28.3046C65.7498 28.7105 65.2568 29.0585 64.8675 29.3691C65.7829 30.3012 66.4996 31.0344 67.3612 31.9167C67.6554 31.5604 67.9412 31.1462 68.2933 30.79C69.1881 29.8869 69.6852 29.8662 70.7954 30.4006C71.9097 30.9349 73.053 31.4196 74.2171 31.8297C75.493 32.2771 75.7995 32.625 75.8078 34.0168C75.8078 34.4766 75.8078 34.9364 75.8078 35.4294H79.0348C79.0348 34.8702 79.0307 34.3731 79.0348 33.876C79.0472 32.6416 79.4076 32.2481 80.5634 31.8463C81.7274 31.4403 82.8791 30.9681 83.9892 30.4296C85.1657 29.8579 85.6421 29.8662 86.5742 30.8148C86.9221 31.1669 87.1873 31.6019 87.4855 31.9954C88.3927 31.0716 89.0928 30.3592 90 29.4354L89.9917 29.4437Z" fill="white"/>
    <path d="M30.5841 79.0318C26.9884 79.0318 23.3927 79.036 19.797 79.0318C18.2933 79.0318 17.7465 78.4726 17.7465 76.9524C17.7465 69.7282 17.7465 62.5081 17.7465 55.2839C17.7465 53.776 18.2974 53.2334 19.8219 53.2334C27.0464 53.2334 34.2709 53.2334 41.4913 53.2334C42.9992 53.2334 43.5418 53.7885 43.546 55.3087C43.546 62.5329 43.5501 69.753 43.546 76.9772C43.546 78.4809 42.9867 79.0277 41.4664 79.0277C37.8376 79.0318 34.2088 79.0277 30.5799 79.0277L30.5841 79.0318ZM40.2527 75.7594V56.5348H21.0232V75.7594H40.2527Z" fill="white"/>
    <path d="M63.1235 42.906C63.5046 43.4031 63.807 43.809 63.9975 44.0534C65.8368 43.2871 67.5186 42.5829 69.3206 41.829C69.3372 41.4976 69.3621 40.9715 69.3911 40.3916H72.5766V41.8248C74.3993 42.5788 76.0853 43.2747 77.8749 44.0161C78.1193 43.7883 78.5087 43.4238 78.9354 43.022C79.6562 43.7842 80.3604 44.5339 81.1102 45.3293C80.7954 45.6772 80.4225 46.0873 80.1864 46.3441C80.9279 48.117 81.6197 49.774 82.3737 51.5842C82.6636 51.6007 83.1897 51.6256 83.7945 51.6546V54.8028C83.2892 54.8276 82.7672 54.8525 82.3612 54.869C81.6404 56.6171 80.9445 58.303 80.1947 60.1257C80.4184 60.3701 80.7912 60.7801 81.1599 61.1944C80.406 61.9566 79.6769 62.6898 78.9271 63.4478C78.5211 63.0626 78.1359 62.6939 77.8749 62.4454C76.1019 63.1827 74.4159 63.8828 72.6139 64.6367C72.5974 64.9722 72.5725 65.4983 72.5435 66.0782H69.3621V64.6449C67.5435 63.891 65.8575 63.1951 64.0679 62.4537C63.8235 62.6856 63.4341 63.0501 63.0033 63.452C62.2867 62.6898 61.5824 61.94 60.8327 61.1405C61.1433 60.8009 61.5162 60.3908 61.7523 60.1298C61.0108 58.361 60.319 56.7041 59.5609 54.8898C59.2709 54.8732 58.7448 54.8483 58.1442 54.8152V51.667C58.6496 51.6422 59.1715 51.6173 59.5733 51.6007C60.2941 49.8527 60.9901 48.1668 61.744 46.3441C61.5244 46.0997 61.1516 45.6896 60.7788 45.2754C61.5369 44.5132 62.266 43.78 63.1317 42.9101L63.1235 42.906ZM62.9039 53.1955C62.8873 57.6444 66.512 61.2897 70.9528 61.2938C75.3563 61.2979 78.9892 57.7107 79.0265 53.3198C79.0638 48.8627 75.4681 45.2008 71.0273 45.1719C66.5742 45.147 62.9205 48.755 62.9039 53.1914V53.1955Z" fill="white"/>
    <path d="M22.9163 38.0804C23.8028 37.4135 24.6189 36.8005 25.4764 36.1543C26.6446 37.6911 27.7548 39.1492 28.9229 40.686C30.1077 38.7888 31.2262 36.9993 32.3447 35.214C33.4631 33.4286 34.5816 31.6433 35.7374 29.7999C36.6694 30.3881 37.5352 30.9349 38.459 31.5149C37.4068 33.2008 36.396 34.8163 35.3894 36.4318C33.8111 38.9628 32.237 41.4937 30.6462 44.0164C29.6976 45.5201 28.546 45.5656 27.4772 44.149C25.9652 42.1482 24.4656 40.1392 22.9205 38.0722L22.9163 38.0804Z" fill="white"/>
    <path d="M77.4192 8.08582C83.6288 8.08582 88.7034 13.1643 88.7034 19.3737C88.7034 25.5789 83.6206 30.6574 77.4151 30.6574C71.2096 30.6574 66.1309 25.5706 66.1309 19.3695C66.1309 13.1643 71.2138 8.08582 77.4192 8.08996V8.08582ZM85.4764 19.4441C85.5095 14.9869 81.9056 11.3293 77.4648 11.3085C73.053 11.2878 69.4076 14.8544 69.3538 19.2411C69.2999 23.7024 72.8791 27.3849 77.3115 27.4264C81.7647 27.4719 85.4433 23.8722 85.4723 19.4441H85.4764Z" fill="white"/>
    <path d="M38.1193 61.0037C37.3363 61.77 36.454 62.6316 35.5675 63.4974C34.7059 64.3383 33.8442 65.1791 32.8044 66.1899C33.7945 67.1136 34.7017 67.9504 35.5965 68.7954C36.4747 69.6197 37.3446 70.4565 38.2643 71.3305C37.3902 72.13 36.6363 72.8218 35.7829 73.6047C35.0124 72.8176 34.1383 71.9394 33.2808 71.0488C32.4482 70.1831 31.628 69.3008 30.7539 68.3729C28.9188 70.2411 27.2121 71.9809 25.4639 73.7621C24.6354 72.8797 23.9354 72.1341 23.1814 71.3264C24.8467 69.6736 26.5783 67.9545 28.372 66.1733C26.541 64.3921 24.7928 62.6938 22.9991 60.954C23.8981 60.1255 24.6479 59.4337 25.4474 58.6964C27.0919 60.3451 28.8152 62.0724 30.5634 63.8288C32.3653 62.0144 34.0803 60.2871 35.8492 58.5059C36.6487 59.3923 37.3363 60.1504 38.1151 61.0078L38.1193 61.0037Z" fill="white"/>
    <path d="M71.0066 46.7872C74.5608 46.8037 77.444 49.7324 77.415 53.2989C77.386 56.8448 74.4449 59.7237 70.8782 59.6823C67.3736 59.645 64.5153 56.7371 64.5194 53.2202C64.5277 49.6661 67.444 46.7706 71.0066 46.7872ZM70.932 50.0141C69.1756 50.0306 67.7423 51.4887 67.7464 53.2451C67.7506 54.9931 69.2046 56.4471 70.9527 56.4554C72.7423 56.4637 74.2212 54.96 74.188 53.1705C74.1549 51.4224 72.6801 49.9933 70.9279 50.0099L70.932 50.0141Z" fill="white"/>
  </g>
  <defs>
    <clipPath id="clip0_726_1801">
      <rect width="100" height="100" fill="white"/>
    </clipPath>
  </defs>
</svg>