<?xml version="1.0" encoding="utf-8"?>
<!-- Generator: Adobe Illustrator 24.2.1, SVG Export Plug-In . SVG Version: 6.00 Build 0)  -->
<svg version="1.1" id="Layer_1" xmlns="http://www.w3.org/2000/svg" xmlns:xlink="http://www.w3.org/1999/xlink" x="0px" y="0px"
	 viewBox="0 0 1018.74 1018.74" style="enable-background:new 0 0 1018.74 1018.74;" xml:space="preserve">
<style type="text/css">
	.st0{fill:#1995CC;}
	.st1{opacity:0.7;}
	.st2{opacity:0.5;}
	.st3{opacity:0.8;}
	.st4{opacity:0.3;}
	.st5{fill:#011226;}
	.st6{fill:#4D55E8;}
	.st7{fill:#3FCD42;}
	.st8{fill:#C92F3D;}
	.st9{fill:#B7A433;}
	.st10{fill:#A3A3A3;}
	.st11{fill:#0C51A3;}
	.st12{fill:#002D6B;}
	.st13{fill:#022044;}
	.st14{fill:#FFFFFF;}
	.st15{fill:#DBD9A5;}
	.st16{fill:#EAEABB;}
	.st17{fill:#5D5D5D;}
	.st18{fill:none;}
</style>
<g>
	<polygon class="st0" points="885.65,934.24 978.64,866.06 880.92,862.33 	"/>
	<polygon class="st0" points="949.86,887.16 1017,932.23 988.25,960.04 917.86,910.63 	"/>
</g>
<g>
	<g>
		<polygon class="st0" points="131.37,949.06 329.57,878.04 187.12,872.68 		"/>
		<polygon class="st0" points="268.4,899.97 332.47,950.6 262.47,978.06 200.2,924.4 		"/>
	</g>
</g>
<g class="st1">
	<polygon class="st0" points="386.07,569.35 501.11,518.25 418,528.39 	"/>
	<polygon class="st0" points="464.68,534.43 499.39,552.76 459.13,571.25 425.06,552.03 	"/>
</g>
<g class="st1">
	<g>
		<polygon class="st0" points="228.81,631.11 302.97,613.7 246.86,611.62 		"/>
		<polygon class="st0" points="279.22,619.28 303.86,632.43 278.06,638.71 253.66,625.28 		"/>
	</g>
</g>
<g>
	<polygon class="st0" points="647.92,997.69 742.5,951.82 655.42,948.53 	"/>
	<polygon class="st0" points="712.6,966.32 764.95,998.42 732.28,1015.35 680.01,982.12 	"/>
</g>
<g>
	<g>
		<polygon class="st0" points="453.42,944 553.15,902.88 470.12,899.75 		"/>
		<polygon class="st0" points="521.57,915.91 565.47,944.89 530.81,960.02 487.21,930.07 		"/>
	</g>
</g>
<g>
	<g>
		<polygon class="st0" points="423.67,822.27 491.45,798.7 435.82,796.62 		"/>
		<polygon class="st0" points="469.73,806.26 497.63,823.14 474.12,831.62 446.38,814.37 		"/>
	</g>
</g>
<g>
	<g>
		<polygon class="st0" points="281.35,733.94 317.09,723.74 289.65,722.71 		"/>
		<polygon class="st0" points="305.5,727.05 317.42,734.46 305.05,738.04 293.18,730.56 		"/>
	</g>
</g>
<g class="st2">
	<g>
		<polygon class="st0" points="309.69,551.07 338.58,544.63 316.38,543.8 		"/>
		<polygon class="st0" points="329.2,546.72 338.79,551.61 328.8,553.88 319.24,548.94 		"/>
	</g>
</g>
<g class="st3">
	<g>
		<polygon class="st0" points="188.58,659.4 222.15,651.3 197.42,650.38 		"/>
		<polygon class="st0" points="211.26,653.92 221.14,659.94 209.52,662.79 199.69,656.72 		"/>
	</g>
</g>
<g>
	<g>
		<polygon class="st0" points="794.42,939.44 828.94,922.44 794.4,921.13 		"/>
		<polygon class="st0" points="817.79,927.93 839.25,939.8 827.36,945.82 805.89,933.79 		"/>
	</g>
</g>
<g>
	<polygon class="st0" points="747.12,723.17 796.56,705.6 748.44,703.81 	"/>
	<polygon class="st0" points="780.67,711.25 810.15,724.1 793.11,730.39 763.64,717.3 	"/>
</g>
<g>
	<g>
		<polygon class="st0" points="486.42,699.82 645.17,652.61 510.8,647.6 		"/>
		<polygon class="st0" points="595.99,667.23 673.03,702.71 617.82,720.91 541.36,683.49 		"/>
	</g>
</g>
<g>
	<g>
		<polygon class="st0" points="506.1,761.58 612.66,726.26 521.57,722.86 		"/>
		<polygon class="st0" points="579.02,737.41 629.35,763.25 592.37,776.36 542.32,749.58 		"/>
	</g>
</g>
<g>
	<g>
		<g>
			<polygon class="st0" points="990.48,784.7 995.11,786.68 991.43,788.37 986.78,786.38 			"/>
		</g>
		<g>
			<path class="st0" d="M746.69,680.73l7.11,3.03l-3.74,1.25l-7.11-3.04L746.69,680.73z M760.97,686.82l7.23,3.08l-3.74,1.27
				l-7.23-3.1L760.97,686.82z M775.49,693.01l7.36,3.14l-3.74,1.3l-7.36-3.16L775.49,693.01z M790.28,699.32l7.49,3.2l-3.75,1.32
				l-7.49-3.21L790.28,699.32z M805.32,705.73l7.63,3.25l-3.74,1.35l-7.62-3.26L805.32,705.73z M820.64,712.27l7.76,3.31l-3.74,1.38
				l-7.76-3.32L820.64,712.27z M836.23,718.92l7.9,3.37l-3.74,1.41l-7.9-3.39L836.23,718.92z M852.11,725.69l8.05,3.43l-3.74,1.43
				l-8.05-3.45L852.11,725.69z M868.29,732.59l8.2,3.5l-3.74,1.46l-8.2-3.51L868.29,732.59z M884.77,739.62l8.35,3.56l-3.73,1.5
				l-8.36-3.58L884.77,739.62z M901.56,746.78l8.51,3.63l-3.72,1.53l-8.52-3.65L901.56,746.78z M918.66,754.07l8.67,3.7l-3.72,1.56
				l-8.68-3.72L918.66,754.07z M936.1,761.51l8.84,3.78l-3.72,1.59l-8.85-3.79L936.1,761.51z M953.88,769.09l9.01,3.85l-3.7,1.62
				l-9.02-3.86L953.88,769.09z M972,776.82l9.2,3.92l-3.7,1.66l-9.2-3.94L972,776.82z"/>
		</g>
		<g>
			<polygon class="st0" points="736.18,676.25 739.64,677.73 735.91,678.95 732.44,677.46 			"/>
		</g>
	</g>
	<g>
		<polygon class="st0" points="713.65,678.89 742.34,669.6 714.95,668.57 		"/>
	</g>
</g>
<g>
	<g>
		<g>
			<polygon class="st0" points="618.29,625.16 620.12,625.95 617.85,626.58 616.02,625.8 			"/>
		</g>
		<g>
			<path class="st0" d="M515.04,581.19l3.22,1.37l-2.24,0.54l-3.21-1.37L515.04,581.19z M521.49,583.93l3.24,1.38l-2.23,0.54
				l-3.24-1.38L521.49,583.93z M527.99,586.7l3.27,1.4l-2.24,0.55l-3.27-1.4L527.99,586.7z M534.55,589.5l3.3,1.4l-2.24,0.56
				l-3.3-1.41L534.55,589.5z M541.17,592.32l3.34,1.42l-2.24,0.57l-3.33-1.42L541.17,592.32z M547.86,595.17l3.36,1.43l-2.25,0.57
				l-3.36-1.44L547.86,595.17z M554.61,598.04l3.39,1.45l-2.25,0.58l-3.4-1.45L554.61,598.04z M561.41,600.94l3.43,1.46l-2.25,0.58
				l-3.43-1.46L561.41,600.94z M568.28,603.87l3.47,1.47l-2.26,0.59l-3.46-1.48L568.28,603.87z M575.23,606.83l3.49,1.48l-2.26,0.6
				l-3.49-1.49L575.23,606.83z M582.23,609.81l3.53,1.5l-2.26,0.6l-3.53-1.51L582.23,609.81z M589.31,612.82l3.56,1.52l-2.27,0.61
				l-3.56-1.52L589.31,612.82z M596.45,615.86l3.59,1.54l-2.27,0.61l-3.59-1.54L596.45,615.86z M603.66,618.93l3.63,1.55l-2.27,0.62
				l-3.63-1.55L603.66,618.93z M610.94,622.04l3.66,1.56l-2.27,0.63l-3.67-1.56L610.94,622.04z"/>
		</g>
		<g>
			<polygon class="st0" points="510.26,579.15 511.84,579.83 509.62,580.36 508.03,579.69 			"/>
		</g>
	</g>
	<g>
		<polygon class="st0" points="497.72,580.27 514.83,576.17 500.27,575.63 		"/>
	</g>
</g>
<g>
	<g>
		<g>
			<path class="st0" d="M775.56,951.14l6.31,3.67l-3.21,1.6l-6.31-3.69L775.56,951.14z M788.23,958.51l6.41,3.72l-3.21,1.63
				l-6.42-3.74L788.23,958.51z M801.1,965.98l6.51,3.78l-3.21,1.65l-6.51-3.79L801.1,965.98z M814.18,973.57l6.61,3.84l-3.21,1.68
				l-6.62-3.85L814.18,973.57z M827.45,981.29l6.72,3.9l-3.22,1.71l-6.71-3.91L827.45,981.29z M840.93,989.12l6.81,3.96l-3.21,1.74
				l-6.82-3.97L840.93,989.12z M854.62,997.07l6.93,4.03l-3.21,1.76l-6.92-4.04L854.62,997.07z M868.52,1005.15l7.05,4.09l-3.21,1.8
				l-7.04-4.11L868.52,1005.15z M882.66,1013.37l7.15,4.16l-3.2,1.83l-7.15-4.18L882.66,1013.37z M897.02,1021.71l7.27,4.22
				l-3.2,1.86l-7.27-4.24L897.02,1021.71z M911.62,1030.19l7.39,4.29l-3.2,1.89l-7.39-4.31L911.62,1030.19z M926.45,1038.8
				l7.51,4.37l-3.19,1.93l-7.51-4.38L926.45,1038.8z M941.54,1047.56l7.63,4.44l-3.19,1.96l-7.63-4.45L941.54,1047.56z
				 M956.87,1056.47l7.77,4.51l-3.18,2l-7.77-4.53L956.87,1056.47z M972.46,1065.53l7.9,4.59l-3.18,2.03l-7.9-4.6L972.46,1065.53z"
				/>
		</g>
		<g>
			<polygon class="st0" points="766.2,945.7 769.29,947.5 766.08,949.07 762.98,947.27 			"/>
		</g>
	</g>
	<g>
		<polygon class="st0" points="746.66,949.29 771.31,937.34 747.32,936.43 		"/>
	</g>
</g>
<g class="st3">
	<g>
		<g>
			<polygon class="st0" points="242.64,702.59 244.23,703.6 241.08,704.45 239.49,703.43 			"/>
		</g>
		<g>
			<path class="st0" d="M153.97,646.32l2.73,1.74l-3.02,0.7l-2.73-1.73L153.97,646.32z M159.45,649.8l2.76,1.75l-3.03,0.71
				l-2.76-1.75L159.45,649.8z M164.98,653.31l2.79,1.77l-3.04,0.72l-2.79-1.78L164.98,653.31z M170.58,656.87l2.82,1.79l-3.05,0.73
				l-2.82-1.79L170.58,656.87z M176.24,660.45l2.85,1.81l-3.06,0.74l-2.84-1.81L176.24,660.45z M181.95,664.07l2.88,1.83l-3.06,0.75
				l-2.87-1.83L181.95,664.07z M187.73,667.74l2.91,1.85l-3.07,0.76l-2.9-1.85L187.73,667.74z M193.57,671.45l2.94,1.87l-3.08,0.76
				l-2.94-1.87L193.57,671.45z M199.47,675.19l2.98,1.89l-3.09,0.78l-2.97-1.9L199.47,675.19z M205.43,678.98l3.01,1.91l-3.1,0.79
				l-3-1.92L205.43,678.98z M211.46,682.81l3.04,1.93l-3.11,0.79l-3.03-1.93L211.46,682.81z M217.56,686.67l3.07,1.96l-3.11,0.8
				l-3.07-1.95L217.56,686.67z M223.73,690.59l3.11,1.97l-3.13,0.81l-3.1-1.98L223.73,690.59z M229.96,694.55l3.15,1.99l-3.14,0.82
				l-3.14-2L229.96,694.55z M236.26,698.54l3.18,2.02l-3.14,0.83l-3.17-2.02L236.26,698.54z"/>
		</g>
		<g>
			<polygon class="st0" points="149.91,643.74 151.25,644.6 148.24,645.29 146.9,644.44 			"/>
		</g>
	</g>
	<g>
		<polygon class="st0" points="134.41,645.23 157.49,639.92 140.88,639.31 		"/>
	</g>
</g>
<g class="st4">
	<g>
		<g>
			<g>
				<g>
					<polygon class="st0" points="39.08,402 113.23,384.58 57.13,382.5 					"/>
					<polygon class="st0" points="89.48,390.16 114.12,403.31 88.33,409.59 63.93,396.16 					"/>
				</g>
			</g>
			<g>
				<g>
					<polygon class="st0" points="199.28,576.77 267.06,553.21 211.43,551.12 					"/>
					<polygon class="st0" points="245.34,560.76 273.24,577.64 249.73,586.12 221.99,568.88 					"/>
				</g>
			</g>
			<g>
				<g>
					<polygon class="st0" points="71.23,505.94 106.98,495.74 79.54,494.71 					"/>
					<polygon class="st0" points="95.39,499.05 107.3,506.46 94.93,510.05 83.07,502.56 					"/>
				</g>
			</g>
			<g>
				<g>
					<polygon class="st0" points="73.39,368.39 102.27,361.95 80.08,361.12 					"/>
					<polygon class="st0" points="92.89,364.04 102.49,368.93 92.5,371.2 82.94,366.26 					"/>
				</g>
			</g>
			<g>
				<g>
					<polygon class="st0" points="-21.54,431.4 12.03,423.3 -12.69,422.38 					"/>
					<polygon class="st0" points="1.14,425.92 11.02,431.94 -0.6,434.79 -10.43,428.72 					"/>
				</g>
			</g>
			<g>
				<polygon class="st0" points="273.2,491.55 322.63,473.99 274.52,472.2 				"/>
				<polygon class="st0" points="306.75,479.64 336.23,492.49 319.19,498.78 289.72,485.69 				"/>
			</g>
			<g>
				<g>
					<g>
						<polygon class="st0" points="326.43,414.22 328.26,415 326,415.64 324.16,414.86 						"/>
					</g>
					<g>
						<path class="st0" d="M223.19,370.24l3.22,1.37l-2.24,0.54l-3.21-1.37L223.19,370.24z M229.63,372.99l3.24,1.38l-2.23,0.54
							l-3.24-1.38L229.63,372.99z M236.13,375.75l3.27,1.4l-2.24,0.55l-3.27-1.4L236.13,375.75z M242.69,378.55l3.3,1.4l-2.24,0.56
							l-3.3-1.41L242.69,378.55z M249.31,381.37l3.34,1.42l-2.24,0.57l-3.34-1.42L249.31,381.37z M256,384.22l3.36,1.43l-2.25,0.57
							l-3.36-1.44L256,384.22z M262.75,387.09l3.39,1.45l-2.25,0.58l-3.4-1.45L262.75,387.09z M269.56,389.99l3.43,1.46l-2.25,0.58
							l-3.43-1.46L269.56,389.99z M276.43,392.93l3.47,1.47l-2.26,0.59l-3.46-1.48L276.43,392.93z M283.37,395.88l3.49,1.48
							l-2.26,0.6l-3.49-1.49L283.37,395.88z M290.37,398.86l3.53,1.5l-2.26,0.6l-3.53-1.51L290.37,398.86z M297.45,401.88l3.56,1.52
							l-2.27,0.61l-3.56-1.52L297.45,401.88z M304.59,404.92l3.59,1.54l-2.27,0.61l-3.59-1.54L304.59,404.92z M311.8,407.98
							l3.63,1.55l-2.27,0.62l-3.63-1.55L311.8,407.98z M319.08,411.09l3.66,1.56l-2.27,0.63l-3.67-1.56L319.08,411.09z"/>
					</g>
					<g>
						<polygon class="st0" points="218.4,368.2 219.99,368.88 217.76,369.41 216.17,368.74 						"/>
					</g>
				</g>
				<g>
					<polygon class="st0" points="205.87,369.32 222.98,365.23 208.41,364.69 					"/>
				</g>
			</g>
			<g>
				<g>
					<g>
						<polygon class="st0" points="92.4,562.06 93.99,563.07 90.84,563.92 89.25,562.9 						"/>
					</g>
					<g>
						<path class="st0" d="M3.73,505.79l2.73,1.74l-3.02,0.7l-2.73-1.73L3.73,505.79z M9.21,509.27l2.76,1.75l-3.03,0.71l-2.76-1.75
							L9.21,509.27z M14.74,512.79l2.79,1.77l-3.04,0.72l-2.79-1.78L14.74,512.79z M20.34,516.34l2.82,1.79l-3.05,0.73l-2.82-1.79
							L20.34,516.34z M25.99,519.92l2.85,1.81l-3.06,0.74l-2.84-1.81L25.99,519.92z M31.71,523.55l2.88,1.83l-3.06,0.75l-2.87-1.83
							L31.71,523.55z M37.48,527.21l2.91,1.85l-3.07,0.76l-2.9-1.85L37.48,527.21z M43.32,530.92l2.94,1.87l-3.08,0.76l-2.94-1.87
							L43.32,530.92z M49.22,534.67l2.98,1.89l-3.09,0.78l-2.97-1.9L49.22,534.67z M55.19,538.45l3.01,1.91l-3.1,0.79l-3-1.92
							L55.19,538.45z M61.22,542.28l3.04,1.93L61.15,545l-3.03-1.93L61.22,542.28z M67.32,546.14l3.07,1.96l-3.11,0.8l-3.07-1.95
							L67.32,546.14z M73.48,550.06l3.11,1.97l-3.13,0.81l-3.1-1.98L73.48,550.06z M79.72,554.02l3.15,1.99l-3.14,0.82l-3.14-2
							L79.72,554.02z M86.02,558.02l3.18,2.02l-3.14,0.83l-3.17-2.02L86.02,558.02z"/>
					</g>
					<g>
						<polygon class="st0" points="-0.33,503.22 1.01,504.07 -2,504.76 -3.34,503.91 						"/>
					</g>
				</g>
				<g>
					<polygon class="st0" points="-15.84,504.71 7.24,499.4 -9.36,498.78 					"/>
				</g>
			</g>
		</g>
	</g>
</g>
<g>
	<g>
		<polygon class="st5" points="432.5,580.22 432.5,594.38 393.54,594.68 391.2,593.47 		"/>
		<g>
			<g>
				<g>
					<g>
						<g>
							<polygon class="st5" points="509.22,714.05 457.27,683.97 644.74,600.84 696.13,619.12 							"/>
						</g>
						<g>
							<polygon class="st5" points="603.54,589.54 737.24,637.65 711.62,589.86 							"/>
						</g>
					</g>
					<g>
						<g>
							<polygon class="st5" points="486.36,671.07 538.62,699.12 225,858.41 183.65,805.3 							"/>
						</g>
						<g>
							<polygon class="st5" points="277.9,901.35 167.53,765.2 56.57,900.01 							"/>
						</g>
					</g>
				</g>
				<g>
					<g>
						<g>
							<polygon class="st5" points="548.54,688.8 487.06,718.89 330.24,623.95 387.42,605.67 							"/>
						</g>
						<g>
							<polygon class="st5" points="283.26,642.48 432.21,594.38 324.03,594.7 							"/>
						</g>
					</g>
					<g>
						<g>
							<polygon class="st5" points="462.39,703.96 523.55,675.91 783.71,810.13 725.52,863.25 							"/>
						</g>
						<g>
							<polygon class="st5" points="812.53,770.04 659.01,906.19 880.76,904.85 							"/>
						</g>
					</g>
				</g>
			</g>
		</g>
		<polygon class="st5" points="56.57,885.86 56.57,900.01 277.9,901.35 277.9,887.2 		"/>
		<polygon class="st5" points="659.01,892.03 659.01,907.13 880.76,904.85 880.76,890.69 		"/>
		<polygon class="st5" points="737.24,623.49 737.24,637.65 691.82,607.15 		"/>
		<polygon class="st5" points="603.54,575.39 603.54,589.54 638.29,589.54 640.35,588.63 		"/>
		<polygon class="st5" points="283.26,628.33 283.26,641.56 333.86,611.99 		"/>
	</g>
	<g>
		<g>
			<g>
				<g>
					<g>
						<polygon class="st6" points="509.22,699.9 457.27,669.81 644.74,586.68 696.13,604.96 						"/>
					</g>
					<g>
						<polygon class="st6" points="603.54,575.39 737.24,623.49 711.62,575.71 						"/>
					</g>
				</g>
				<g>
					<g>
						<polygon class="st7" points="486.36,656.92 538.62,684.96 225,844.26 183.65,791.14 						"/>
					</g>
					<g>
						<polygon class="st7" points="277.9,887.2 167.53,751.04 56.57,885.86 						"/>
					</g>
				</g>
			</g>
			<g>
				<g>
					<g>
						<polygon class="st8" points="548.54,674.65 487.06,704.73 330.24,609.8 387.42,591.52 						"/>
					</g>
					<g>
						<polygon class="st8" points="283.26,628.33 432.21,580.22 324.03,580.54 						"/>
					</g>
				</g>
				<g>
					<g>
						<polygon class="st9" points="462.39,689.8 523.55,661.75 783.71,795.97 725.52,849.09 						"/>
					</g>
					<g>
						<polygon class="st9" points="812.53,755.88 659.01,892.03 880.76,890.69 						"/>
					</g>
				</g>
			</g>
		</g>
	</g>
</g>
<g>
	<path class="st10" d="M564.6,517.79c13.61-7.37,55.47-7.9,55.47,0.03c0.01,2.53-12.52,5.12-19.26,6.86
		c-10.67,2.77-19.35,5.64-22.8,9.28c-3.16,3.33,16.42,3.37,19.57,0.05c3.88-4.08,20.23-6.92,30.7-10.12
		c13.12-4,14.7-8.87,6.83-12.59c-17.33-8.19-70.85-4.36-88.24,5.06C540.93,519.59,558.68,521,564.6,517.79z"/>
	<path class="st10" d="M580.51,542.77c12.62,0.03,16.91-5.13,4.29-5.17C572.18,537.57,567.89,542.74,580.51,542.77z"/>
	<path class="st10" d="M655.62,525.87c18.45-3.14,38.35,1.16,25.16,6.16c-4.2,1.6-14.2,1.83-20.16,2.19
		c-9.45,0.56-18.18,1.41-25.8,3.32c-6.98,1.75,1.85,3.94,8.8,2.2c8.56-2.14,20.7-2.12,30.77-2.97c12.62-1.07,21.43-3.96,24.04-7.17
		c5.75-7.08-24.93-10.59-48.5-6.58C641.89,524.38,647.6,527.23,655.62,525.87z"/>
	<path class="st10" d="M621.3,543.36c5.68,1.42,16.22-1.37,10.54-2.78C626.16,539.17,615.62,541.95,621.3,543.36z"/>
	<path class="st10" d="M750.37,579.13c-7.5-4.73-22.77-7.95-39.48-10.43l1.23-1.48c0.42-0.51-0.8-0.93-2.73-0.93
		s-3.84,0.41-4.26,0.91l-0.5,0.61c-0.51-0.07-1.03-0.14-1.54-0.21c-1.67-0.22-3.47-0.37-5.32-0.44c-5.19-5.22-17.3-9.52-34.38-12.24
		c-6.42-2.55-16.07-5.76-62.41-3.23c-9.24,0.5-17.25,1.25-24.18,2.11c-39.67,4.02-72.96,13.47-82.15,24.54
		c-6.67,8.04,0.73,15.29,17.83,20.26l-3.07,3.7c-56.45,9.27-73.51,32.23-67.82,46.05c0.83,2.01,10.76,2.71,17.99,1.9
		c7.88-0.87,11.42-2.72,11.42-4.56l0.31,0.04c0.6,0.09,1.35,0.09,2.06,0.03l-9.28,11.19h0l-0.5,0.6h0.06l-28.99,34.95
		c-8.55,1.2-15.58,3.28-18.7,5.7l55.86,0.14l5.71-6.89l0,0l28.03-33.8l50.49,0.13l-28.99,34.95c-8.55,1.2-15.58,3.28-18.71,5.7
		l55.86,0.14l5.71-6.89l0,0l28.03-33.8h0l0.5-0.6l0,0l34.54-41.65c40.77,1.76,90.76-7.13,112.38-17.83
		C757.48,591.83,758.74,584.41,750.37,579.13z M470.49,643.92c-0.02-0.09-0.05-0.19-0.07-0.28c-1.49-6.46,3.7-14.45,13.53-21.25
		c3.83-2.65,8.86-5.38,15.3-7.84l-24.84,29.96L470.49,643.92z M720.31,594.82c-12.79,7.6-52.76,15.13-80.77,12.93l7.31-8.81
		c25.28-4.87,44.64-12.05,51.3-20.09c0.57-0.69,1.04-1.37,1.41-2.05c8.42,1.48,15.75,3.22,21.05,5.54
		C727.54,585.38,726.6,591.09,720.31,594.82z"/>
</g>
<g>
	<polygon class="st11" points="545.7,339.34 490.49,368.35 522.31,382.39 562.39,339.34 	"/>
	<polygon class="st11" points="490.49,368.35 438.09,335.13 433.93,337.6 459.56,382.39 	"/>
	<g>
		<g>
			<g>
				<path class="st12" d="M462.79,57.37c6.58-24.66,42.98-26.78,48.77-0.38c1.85,8.42-7.28,17.13-11.92,23
					c-7.36,9.3-12.89,18.96-13.27,31.09c-0.35,11.12,16.88,11.08,17.23,0c0.43-13.63,12.73-23.2,19.6-33.93
					c8.61-13.43,6.46-29.63-3.17-41.95c-21.2-27.12-65.44-13.92-73.85,17.59C443.3,63.54,459.92,68.09,462.79,57.37L462.79,57.37z"
					/>
			</g>
			<g>
				<path class="st12" d="M494.97,140.37c11.11,0,11.11-17.23,0-17.23C483.86,123.14,483.86,140.37,494.97,140.37L494.97,140.37z"/>
			</g>
		</g>
		<g>
			<g>
				<path class="st12" d="M548.66,83.49c13.92-10.6,34.54,3.53,26.59,20.28c-2.53,5.34-11.14,6.23-16.12,7.46
					c-7.89,1.95-14.95,4.86-20.25,11.28c-4.86,5.88,4.5,13.1,9.34,7.24c5.96-7.2,16.64-7.23,24.87-10.16
					c10.31-3.67,15.95-13.35,15.9-24.07c-0.1-23.6-29.62-35.03-47.41-21.48C535.51,78.65,542.6,88.1,548.66,83.49L548.66,83.49z"/>
			</g>
			<g>
				<path class="st12" d="M531.25,142c6.02,4.67,13.26-4.67,7.23-9.34C532.46,127.99,525.22,137.33,531.25,142L531.25,142z"/>
			</g>
		</g>
		<g>
			<g>
				<path class="st12" d="M410.41,120.37c-8.9-15.07,7.55-33.89,23.25-24.04c5.01,3.14,4.88,11.79,5.52,16.89
					c1.01,8.07,3.08,15.41,8.83,21.43c5.27,5.52,13.53-2.93,8.28-8.43c-6.46-6.76-5.23-17.38-7.17-25.89
					c-2.43-10.67-11.39-17.4-22.05-18.61c-23.45-2.66-38.25,25.32-26.88,44.57C404.07,132.87,414.28,126.92,410.41,120.37
					L410.41,120.37z"/>
			</g>
			<g>
				<path class="st12" d="M466.48,144.51c5.34-5.44-3.09-13.71-8.43-8.28C452.71,141.67,461.14,149.95,466.48,144.51L466.48,144.51z
					"/>
			</g>
		</g>
	</g>
	<g>
		<path class="st12" d="M467.99,365.7c-27.16,5.99-38.47,33.13-42.52,58.1c-4.31,26.59-2.39,58.16,5.52,82.3
			c2.38,7.27,0.82,15.12-6.72,18.68c-6.27,2.96-16.29,0.55-18.68-6.72c-19.23-58.63-18.51-163.26,57.38-179.99
			C480.7,334.16,485.61,361.81,467.99,365.7L467.99,365.7z"/>
	</g>
	<rect x="433.87" y="304.41" class="st12" width="128.52" height="244.54"/>
	<rect x="433.87" y="517.45" class="st13" width="128.52" height="33.69"/>
	<g>
		<rect x="433.87" y="508.72" class="st11" width="128.52" height="8.74"/>
		<rect x="481.19" y="505.02" class="st14" width="21.52" height="16.14"/>
	</g>
	<polygon class="st15" points="507.57,342.85 505.93,366.48 490.49,368.35 477.15,365.54 468.67,354.52 479.26,339.34 	"/>
	<path class="st16" d="M400.81,264.48c0,53.75,43.57,97.32,97.32,97.32c53.75,0,97.32-43.57,97.32-97.32
		c0-53.75-43.57-97.32-97.32-97.32C444.38,167.16,400.81,210.73,400.81,264.48z"/>
	<g>
		<path class="st17" d="M477.21,311.31c0,1.68,1.36,3.04,3.04,3.04l0,0c1.68,0,3.04-1.36,3.04-3.04v-7.95
			c0-1.68-1.36-3.04-3.04-3.04l0,0c-1.68,0-3.04,1.36-3.04,3.04V311.31z"/>
		<path class="st17" d="M517.42,311.31c0,1.68,1.37,3.04,3.04,3.04l0,0c1.68,0,3.04-1.36,3.04-3.04v-7.95
			c0-1.68-1.36-3.04-3.04-3.04l0,0c-1.68,0-3.04,1.36-3.04,3.04V311.31z"/>
		<g>
			<path class="st17" d="M482.92,343.69c10.31-9.89,27.87-5.17,34.46,6.74c1.46,2.64-2.58,4.99-4.05,2.36
				c-5.09-9.2-18.92-13.63-27.09-5.79C484.06,349.09,480.75,345.78,482.92,343.69L482.92,343.69z"/>
		</g>
	</g>
	<polygon class="st14" points="500.39,372.72 493.76,383.95 502.19,451.01 491.95,465.05 482.85,450.23 488.12,383.64 
		481.72,372.33 490.49,368.35 	"/>
	<g>
		<rect x="522.31" y="548.49" class="st13" width="40.08" height="137.56"/>
		<rect x="433.93" y="548.49" class="st13" width="40.08" height="137.56"/>
		<path class="st13" d="M508.96,698.52c1.69-14.05,13.64-24.95,28.16-24.95h25.27v24.95H508.96z"/>
		<path class="st13" d="M420.59,698.52c1.7-14.05,13.64-24.95,28.16-24.95h25.27v24.95H420.59z"/>
	</g>
	<path class="st12" d="M543.32,178.28c0,0,4.61,19.41-25.23,27.85c-29.84,8.44-80.49,2.81-87.52,25.32c0,0-0.03-23.92,31.64-26.38
		c0,0-21.15-4.57-31.67,2.46c0,0,8.42-30.8,50.65-40.37C523.42,157.59,535.17,169.13,543.32,178.28z"/>
	<g>
		<path class="st12" d="M539.53,390.23c46.58,26.1,101.51-11.34,116-57.61c6.82-21.77,2.14-48.61-10.03-67.63
			c-12.58-19.67-33.44-31.93-54.26-41.23c-7-3.13-15.06-2.1-19.25,5.05c-3.55,6.07-1.96,16.12,5.05,19.25
			c16.28,7.28,31.38,15.27,42.6,28.84c9.01,10.9,12.64,31.55,9.59,45.11c-6.83,30.42-45.29,60.86-75.51,43.93
			C537.88,357.06,523.7,381.36,539.53,390.23L539.53,390.23z"/>
	</g>
	<g>
		<g>
			<path class="st15" d="M577.05,248.06c4.79,2.14,9.47,4.35,13.98,6.73c4.84-8.04,9.72-16.06,14.9-23.86
				c-4.82-2.59-9.75-4.97-14.68-7.17c-7-3.13-15.06-2.1-19.25,5.05C568.44,234.88,570.04,244.93,577.05,248.06z"/>
		</g>
		<path class="st15" d="M599.57,230.39c0,1.84-1.5,3.34-3.34,3.34l0,0c-1.84,0-3.34-1.5-3.34-3.34v-8.09c0-1.84,1.5-3.34,3.34-3.34
			l0,0c1.84,0,3.34,1.5,3.34,3.34V230.39z"/>
	</g>
	<g>
		<g>
			<path class="st15" d="M429.21,500.13c-8.84,2.7-17.67,5.41-26.52,8.07c0.91,3.4,1.87,6.7,2.91,9.86
				c2.38,7.28,12.41,9.68,18.68,6.72c7.54-3.56,9.11-11.41,6.72-18.68C430.36,504.16,429.76,502.17,429.21,500.13z"/>
		</g>
		<path class="st15" d="M434.07,503.94c1.22,0.61,1.72,2.08,1.11,3.3l0,0c-0.6,1.22-2.08,1.72-3.3,1.11l-4.57-2.26
			c-1.22-0.6-1.72-2.08-1.11-3.3l0,0c0.6-1.22,2.08-1.72,3.3-1.12L434.07,503.94z"/>
	</g>
</g>
<rect y="-50" class="st18" width="1018.74" height="1018.74"/>
</svg>
