<svg width="270" height="270" viewBox="0 0 270 270" fill="none" xmlns="http://www.w3.org/2000/svg">
<circle cx="137.953" cy="136.737" r="68.5026" stroke="url(#paint0_linear_32_153)" stroke-width="5.11782"/>
<path d="M132.551 195.334C132.821 195.356 133.046 195.424 133.294 195.446C165.711 198.845 194.747 175.368 198.151 142.999C201.554 110.631 178.042 81.6388 145.648 78.2398C145.4 78.2173 145.152 78.2173 144.882 78.1948C176.893 81.9989 200.022 110.743 196.64 142.864C193.259 174.963 164.652 198.282 132.551 195.334Z" fill="#19A69A"/>
<path d="M95.783 177.889C83.9254 165.779 77.3654 148.695 79.2815 130.53C82.6855 98.1612 111.721 74.7064 144.138 78.1054C158.024 79.5685 170.242 85.736 179.44 94.8523C170.175 85.3759 157.663 78.9382 143.439 77.4526C111.022 74.0537 81.9867 97.5309 78.5827 129.877C76.6215 148.38 83.4971 165.734 95.783 177.889Z" fill="white"/>
<path d="M225.005 33.7806L201.26 17.0375C196.445 13.6319 190.609 13.4895 187.395 16.6815C187.205 16.8713 187.015 17.0849 186.837 17.2985L182.879 21.1027C178.293 25.5097 171.629 26.8059 165.49 25.1469C159.343 23.4859 154.21 18.9915 152.478 12.8643L150.981 7.56825C150.305 2.79805 144.992 -0.477012 138.671 0.056966L109.73 2.5014C106.432 2.77432 103.384 4.09147 101.368 6.09685C99.6834 7.78184 98.7941 9.84656 98.8416 11.9706L98.2562 17.4296C97.5773 23.7614 93.2729 29.0529 87.4917 31.7235C81.7142 34.3923 74.918 34.2335 69.6566 30.6529L65.1331 27.5746C61.5393 24.3588 55.3717 25.2607 50.8765 29.7342L30.2742 50.2271C25.7671 54.7006 24.83 60.8711 28.0325 64.4784L31.0826 69.0311C34.6268 74.3212 34.7279 81.1317 32.0212 86.8954C29.3139 92.6603 24.0026 96.9254 17.6661 97.5673L12.2219 98.1189C10.0989 98.0478 8.02326 98.9258 6.32716 100.599C4.31082 102.605 2.9824 105.642 2.68588 108.941L0.0646421 137.882C-0.504677 144.208 2.74519 149.535 7.50138 150.247L12.7987 151.784C18.9083 153.558 23.366 158.712 24.986 164.864C26.6073 171.022 25.2706 177.687 20.8316 182.252L17.0019 186.19C16.7884 186.367 16.5749 186.546 16.3733 186.747C13.159 189.94 13.2776 195.766 16.6461 200.607L33.2393 224.47C36.8569 229.679 42.7636 231.673 46.8793 229.157L51.9039 226.935C57.7357 224.355 64.4886 225.446 69.6957 229.127C74.8838 232.795 78.1223 238.745 77.6577 245.082L77.2549 250.575C76.7449 253.008 77.5277 255.606 79.4373 257.778C81.1097 259.665 83.5292 261.112 86.2572 261.848L114.296 269.467C118.768 270.677 123.334 269.787 125.932 267.2C126.786 266.358 127.39 265.385 127.747 264.293L130.171 259.355C132.975 253.647 138.77 250.151 145.107 249.61C151.448 249.069 157.832 251.531 161.554 256.693L164.776 261.16C167.041 265.409 173.15 266.666 178.914 264.008L205.281 251.809C206.906 251.062 208.328 250.077 209.527 248.89C212.457 245.972 213.488 242.293 212.254 239.196L210.969 233.972C209.427 227.712 211.683 221.2 216.264 216.662C216.88 216.057 217.474 215.44 218.078 214.822C221.317 211.425 226.086 209.824 230.637 210.975L238.621 212.995C241.717 214.242 245.394 213.232 248.335 210.314C249.521 209.138 250.542 207.679 251.289 206.077L263.648 179.77C264.846 177.219 265.32 174.431 264.952 171.938C264.549 169.09 263.067 166.8 260.884 165.614L256.44 162.362C251.302 158.603 248.877 152.207 249.453 145.868C250.03 139.527 253.566 133.748 259.298 130.977L264.229 128.591C265.32 128.235 266.305 127.63 267.147 126.788C269.756 124.189 270.67 119.633 269.495 115.159L262.058 87.0597C260.433 80.9249 255.559 77.0328 250.849 77.9939L245.389 78.3619C239.039 78.7899 233.103 75.5073 229.464 70.2858C225.821 65.0593 224.767 58.3037 227.377 52.4922L229.631 47.4742C232.145 43.3566 230.189 37.4353 225.005 33.7806ZM198.923 199.147C164.717 233.156 109.433 232.99 75.4402 198.767C41.447 164.546 41.6131 109.238 75.8198 75.2291C110.027 41.2207 165.297 41.3869 199.302 75.6088C233.296 109.831 233.118 165.128 198.923 199.147Z" fill="url(#paint1_radial_32_153)"/>
<path d="M137.5 223C184.72 223 223 184.496 223 137C223 89.5035 184.72 51 137.5 51C90.2797 51 52 89.5035 52 137C52 184.496 90.2797 223 137.5 223Z" fill="url(#paint2_radial_32_153)"/>
<defs>
<linearGradient id="paint0_linear_32_153" x1="137.953" y1="65.6758" x2="137.953" y2="207.799" gradientUnits="userSpaceOnUse">
<stop stop-color="#2DA79C"/>
<stop offset="1" stop-color="white"/>
</linearGradient>
<radialGradient id="paint1_radial_32_153" cx="0" cy="0" r="1" gradientUnits="userSpaceOnUse" gradientTransform="translate(2.42855 8.03304) rotate(50.6885) scale(562.827 900.163)">
<stop stop-color="#33C0B4"/>
<stop offset="1" stop-color="white" stop-opacity="0"/>
</radialGradient>
<radialGradient id="paint2_radial_32_153" cx="0" cy="0" r="1" gradientUnits="userSpaceOnUse" gradientTransform="translate(53.5381 56.1173) rotate(44.2411) scale(232.88 372.523)">
<stop stop-color="#33C0B4"/>
<stop offset="1" stop-color="white" stop-opacity="0"/>
</radialGradient>
</defs>
</svg>
