<svg xmlns="http://www.w3.org/2000/svg" viewBox="0 0 1689 1071"><defs><style>.cls-1{isolation:isolate;}.cls-2,.cls-4{fill:none;stroke-miterlimit:10;}.cls-2{stroke:#36ceb1;}.cls-3{mix-blend-mode:multiply;}.cls-4{stroke:#40aea8;}</style></defs><g class="cls-1"><g id="Layer_1" data-name="Layer 1"><rect class="cls-2" x="22" y="23" width="1689" height="1001"/><g class="cls-3"><path class="cls-4" d="M982.94-81.55A1220.11,1220.11,0,0,1,931.83,71.16c-9.09,22.2-19.18,44.68-36.74,62.42-44.87,45.34-123.4,46.75-190.42,36.9A866.32,866.32,0,0,1,524.83,124C467.76,102.5,412.57,74.7,351.42,65.57S219.15,71.12,186.2,117.81c-19.61,27.78-22.73,62.94-15.07,95s25.22,61.6,44.7,89.44c22.32,31.88,48.23,64.16,51.57,101.59,3.47,38.74-20.62,78.37-59,97-54.57,26.54-121.38,9.89-182.57,0-77.75-12.61-161.14-12.49-232.17,18.31S-332.24,616.9-324.95,686.85"/><path class="cls-4" d="M969.16-92A1153.17,1153.17,0,0,1,919,57.1c-9,21.66-18.93,43.56-36,60.93-43.75,44.45-119.78,46.94-185,38.52q-20.52-2.66-40.87-6.3a840.13,840.13,0,0,1-134.48-35.79c-55.75-20-109.78-46-169.52-54.41s-127.39,7-161.83,50.31c-14.22,17.9-23,37.44-26,58.28a133.94,133.94,0,0,0-.43,33.78,161.82,161.82,0,0,0,5.66,27.72c6.88,23.39,19.66,46.44,33.35,68.37,21.93,35.22,45,71.41,46.2,110.76,1.13,37.65-21,75.91-58.35,94.26-53.16,26.18-118,11.18-177.25,2.8Q3.7,504.83-7.1,503.67c-68.9-7.28-140.31-3-201.5,25.23-67.58,31-119.23,96.48-111.07,164.42"/><path class="cls-4" d="M955.37-102.48A1083,1083,0,0,1,906.08,43c-8.84,21.11-18.67,42.44-35.31,59.44-42.63,43.57-116.16,47.13-179.59,40.13q-20-2.21-39.76-5.38a817.41,817.41,0,0,1-131.11-32.35C465.88,86.49,413,62.18,354.68,54.53S231.83,62.8,196.25,102.9c-15.75,17.76-27.53,35.54-33.14,55.74a131,131,0,0,0-4.7,33.38A143.39,143.39,0,0,0,161,220.65c4.7,24.84,17.33,50.16,30.77,74.09,21.54,38.56,41.86,78.45,40.82,119.94-.91,36.45-21.47,73.46-57.71,91.5C123.09,532,60.19,518.64,2.91,511.81q-10.33-1.23-20.77-2.1c-66.59-5.49-135,.35-193,28.92C-275,569.91-323.41,633.85-314.39,699.78"/><path class="cls-4" d="M941.58-112.95A1017.61,1017.61,0,0,1,893.21,29c-8.72,20.56-18.41,41.32-34.6,58-41.51,42.68-112.55,47.31-174.18,41.74q-19.38-1.75-38.65-4.46A795.3,795.3,0,0,1,518.05,95.3C464.93,78.49,413.22,55.93,356.31,49s-118.63,9.46-155,46.44c-17.39,17.66-32,33.63-40.25,53.18a129.31,129.31,0,0,0-9,33,127.92,127.92,0,0,0-.55,29.56c2.5,26.3,15,53.87,28.17,79.8,21.17,41.91,38.79,85.31,35.45,129.12-2.67,35.16-21.89,71-57.08,88.73-50.33,25.44-111.27,13.75-166.61,8.46q-10-.94-20-1.54c-64.28-3.68-129.53,3.87-184.55,32.63-60.62,31.68-105.83,94-95.93,157.88"/><path class="cls-4" d="M927.8-123.42A957.22,957.22,0,0,1,880.34,14.92c-8.6,20-18.16,40.19-33.89,56.45-40.39,41.8-108.93,47.51-168.76,43.36q-18.83-1.31-37.54-3.55A772.16,772.16,0,0,1,515.79,85.72c-51.8-15.23-102.35-36-157.85-42.23S243.24,54,206.3,88c-19.1,17.58-36.51,31.71-47.36,50.62a129.41,129.41,0,0,0-13.25,32.59A117.49,117.49,0,0,0,142,201.68c.3,27.77,12.65,57.58,25.59,85.53,20.78,45.24,35.81,92,30.08,138.3-4.2,33.81-22.32,68.53-56.45,86C92.32,536.53,33.34,526.5-20,522.75q-9.64-.66-19.34-1c-62-1.88-124.14,7.27-176.08,36.33-57.14,32-99.13,92.7-88.36,154.61"/><path class="cls-4" d="M914-133.89A897.49,897.49,0,0,1,867.47.86c-8.48,19.47-17.91,39.07-33.18,55C795,96.74,729,103.52,670.94,100.8q-18.24-.87-36.43-2.64a749.13,749.13,0,0,1-121-22c-50.48-13.66-99.87-32.73-154-38.17-53.93-5.47-111,11.41-148.24,42.58-20.91,17.51-41,29.8-54.48,48.07a130.72,130.72,0,0,0-17.52,32.18,110.27,110.27,0,0,0-6.77,31.39c-1.91,29.26,10.32,61.3,23,91.25,20.4,48.59,33,98.63,24.7,147.48-5.49,32.45-22.75,66.07-55.82,83.19-47.51,24.7-104.54,16.32-156,14.11q-9.3-.36-18.63-.42c-59.66-.07-118.76,10.67-167.61,40-53.66,32.25-92.42,91.43-80.79,151.34"/><path class="cls-4" d="M900.22-144.35A840.77,840.77,0,0,1,854.6-13.2c-8.36,18.92-17.65,38-32.47,53.47C784,80.3,720.43,88.15,664.2,86.86q-17.69-.42-35.32-1.72A727.56,727.56,0,0,1,511.27,66.56c-49.16-12.08-97.39-29.4-150.07-34.11C308.71,27.71,253.64,44.6,216.35,73.1c-22.78,17.42-45.48,27.89-61.59,45.51A134,134,0,0,0,133,150.4a105.55,105.55,0,0,0-9.89,32.31c-4.14,30.73,8,65,20.42,97,20,51.93,30.25,105.17,19.33,156.66-6.59,31.08-23.17,63.62-55.18,80.42C61.55,541.09,6.48,534.35-43,533.7q-8.94-.09-17.91.14c-57.35,1.73-113.37,14.06-159.14,43.73-50.18,32.53-85.72,90.18-73.21,148.08"/><path class="cls-4" d="M886.44-154.82A787.44,787.44,0,0,1,841.73-27.26c-8.24,18.38-17.4,36.83-31.76,52-37,39.15-98.08,48.07-152.52,48.2q-17.1,0-34.2-.8A706.38,706.38,0,0,1,509,57c-47.84-10.5-94.9-26.08-146.16-30-51.06-4-104.27,12.74-141.46,38.72-24.75,17.29-50,26-68.71,43a138.28,138.28,0,0,0-26,31.38,103.28,103.28,0,0,0-13,33.23c-6.39,32.21,5.64,68.72,17.83,102.69,19.64,55.27,27.67,111.68,13.95,165.83-7.52,29.72-23.59,61.16-54.55,77.66-44.69,24-97.81,18.78-145.32,19.77q-8.59.18-17.2.7c-55,3.41-108,17.45-150.67,47.43-46.7,32.81-79,88.92-65.64,144.81"/><path class="cls-4" d="M872.65-165.29a736.16,736.16,0,0,1-43.79,124c-8.12,17.83-17.15,35.7-31.05,50.49C761.91,47.43,703.35,57.43,650.7,59q-16.53.48-33.09.12A684.25,684.25,0,0,1,506.74,47.39c-46.52-8.91-92.42-22.75-142.27-26-49.61-3.28-101.12,13.18-138.06,36.78C199.63,75.3,171.94,82.26,150.58,98.6a144.7,144.7,0,0,0-30.32,31,102.74,102.74,0,0,0-16.1,34.14c-8.64,33.68,3.3,72.44,15.24,108.41,19.26,58.62,35.22,122.12,8.59,175-3.09,29.4-24,58.69-53.93,74.88-43.27,23.6-94.44,20.06-140,22.6-5.5.31-11,.72-16.48,1.26C-135.16,551.1-185,566.74-224.61,597c-43.23,33.06-72.32,87.66-58.08,141.54"/><path class="cls-4" d="M858.86-175.75A686.91,686.91,0,0,1,816-55.38c-8,17.28-16.89,34.58-30.34,49C750.87,31,694.8,42.06,644,45.05q-16,.91-32,1a663.51,663.51,0,0,1-107.5-8.27c-45.2-7.34-89.94-19.43-138.38-21.92C317.93,13.34,268,29.38,231.43,50.74c-28.87,16.86-59,22.16-82.94,37.85a151.85,151.85,0,0,0-34.59,30.59,103.64,103.64,0,0,0-19.21,35.07c-10.9,35.15,1,76.15,12.66,114.13,18.87,61.95,33.59,129.36,3.21,184.19-3.9,28.23-24.45,56.23-53.29,72.12C15.4,547.91-33.82,546-77.41,550.11c-5.27.5-10.53,1.1-15.77,1.83-50.44,7-97.2,24.21-133.72,54.83-39.74,33.32-65.62,86.4-50.5,138.27"/><path class="cls-4" d="M845.08-186.22a641.1,641.1,0,0,1-42,116.78C795.24-52.7,786.48-36,773.49-21.94c-33.66,36.5-87.23,48.64-136.28,53.05q-15.39,1.37-30.87,2a641.85,641.85,0,0,1-104.12-4.83c-43.88-5.76-87.46-16.1-134.49-17.86C321,8.55,272.62,24,236.46,43.29c-31,16.51-63.44,20.25-90.05,35.3a159.44,159.44,0,0,0-38.87,30.19,105.3,105.3,0,0,0-22.31,36c-13.17,36.61-1.37,79.87,10.07,119.85,18.49,65.3,32,136.61-2.17,193.37-4.72,27.07-24.87,53.78-52.66,69.35C0,550.19-47.25,549.94-88.88,555.58c-5,.69-10.07,1.48-15.06,2.39-48.13,8.78-91.81,27.58-125.25,58.53-36.26,33.57-58.92,85.15-42.93,135"/><path class="cls-4" d="M831.29-196.69a596.25,596.25,0,0,1-41,113.19c-7.75,16.19-16.38,32.34-28.91,46C728.79-1.88,677.72,11.33,630.47,17.17Q615.64,19,600.71,20A621.78,621.78,0,0,1,500,18.65c-42.56-4.18-85-12.78-130.6-13.8-45.28-1.09-92.2,13.74-127.87,31-33.23,16.06-67.94,18.33-97.17,32.74-15.67,7.71-30.64,17.64-43.14,29.79C90.45,108.8,81.56,121,75.76,135.28c-15.44,38.07-3.71,83.57,7.48,125.56,18.11,68.64,30.35,143.86-7.53,202.55-5.55,25.9-25.3,51.32-52,66.59-39,22.48-84.37,23.88-124,31.08-4.8.87-9.59,1.85-14.34,2.94-45.83,10.59-86.43,30.94-116.78,62.24C-264.26,660-283.69,710.12-266.84,758"/><path class="cls-4" d="M817.5-207.16a553.57,553.57,0,0,1-40.13,109.6c-7.63,15.65-16.12,31.21-28.2,44.52-31.42,34.73-80,49-125.45,56.27Q609.47,5.5,595.07,7A602,602,0,0,1,497.7,9.07C456.45,6.47,415.2-.39,371-.67,327.15-1,281.67,13,246.51,28.39,211,43.88,174.09,44.81,142.23,58.58,125.15,65.94,108.68,75.71,94.82,88,82.9,98.51,72.93,111,66.29,125.79c-17.7,39.53-6,87.29,4.9,131.29,17.73,72,17.53,144.78-12.91,211.72-10.57,23.25-25.72,48.86-51.4,63.82-37.63,22.12-81,25.17-118.71,33.91q-6.87,1.59-13.63,3.5c-43.53,12.39-81,34.28-108.31,65.94-29.3,34-45.51,82.62-27.78,128.47"/><path class="cls-4" d="M803.72-217.62a513.77,513.77,0,0,1-39.22,106c-7.51,15.1-15.87,30.09-27.49,43-30.3,33.84-76.38,49.2-120,57.89Q603.29-8,589.44-6a582.84,582.84,0,0,1-94,5.49c-39.92-1-80-6.13-122.81-5.68-42.4.37-86.47,13.57-121.08,27.13-37.76,14.78-76.91,14.51-111.4,27.63-18.48,7-36.46,16.63-51.68,29C75.35,88.21,64.3,101,56.82,116.3c-20,41-8.38,91,2.31,137C76.48,328.63,75.28,405,40.85,474.22c-11,22-26.15,46.39-50.76,61C-46.13,557-87.56,561.72-123.3,572q-6.53,1.88-12.92,4.07c-41.23,14.19-75.67,37.61-99.83,69.63-25.85,34.25-38.82,81.37-20.22,125.21"/><path class="cls-4" d="M789.93-228.09a475,475,0,0,1-38.3,102.41c-7.39,14.55-15.62,29-26.78,41.54-29.18,33-72.76,49.38-114.62,59.5Q597.12-21.49,583.8-19a562.77,562.77,0,0,1-90.63,8.93c-38.6.55-77.53-2.81-118.92-1.62-40.95,1.1-83.61,13.35-117.69,25.19-40.07,13.93-81.39,12.6-118.51,25.09-19.89,6.67-39.36,16.12-56,28.59C67.8,77.91,55.67,91,47.36,106.82c-22.26,42.43-10.72,94.71-.28,142.73,17,78.66,15,158.81-23.66,230.08-11.33,20.9-26.57,43.93-50.13,58.28-34.81,21.38-74.28,27.75-108.07,39.56-4.11,1.44-8.19,3-12.2,4.63-38.92,16-70.3,40.94-91.36,73.34-22.39,34.44-32.11,80.1-12.65,121.93"/><path class="cls-4" d="M776.14-238.56a439,439,0,0,1-37.38,98.82c-7.27,14-15.36,27.84-26.07,40.05-28.06,32.07-69.15,49.57-109.2,61.11Q590.93-35,578.17-32a544.65,544.65,0,0,1-87.26,12.37c-37.28,2.13-75.05.51-115,2.44C336.37-15.4,295.15-4.18,261.59,6,219.18,18.94,175.7,16.72,136,28.56c-21.3,6.33-42.27,15.62-60.22,28.19C60.25,67.6,47,81,37.89,97.33c-24.53,43.88-13,98.43-2.86,148.45C51.61,327.78,49.14,411.92,6,485c-11.68,19.8-27,41.48-49.5,55.51-33.4,21-70.92,29-102.75,42.4q-5.83,2.44-11.49,5.18c-36.62,17.82-64.95,44.25-82.89,77C-259.58,699.8-266,744-245.71,783.84"/><path class="cls-4" d="M762.36-249a404.58,404.58,0,0,1-36.47,95.23c-7.15,13.46-15.11,26.72-25.36,38.55C673.6-84.06,635-65.48,596.74-52.52q-12,4.05-24.21,7.45a525.55,525.55,0,0,1-83.88,15.82c-36,3.71-72.57,3.83-111.13,6.5-38.08,2.57-77.84,12.68-110.9,21.33-44.76,11.71-90.38,8.78-132.75,20-22.7,6-45.18,15.12-64.49,27.8-16.67,10.95-31,24.61-41,41.49C1.62,133.17,13,190,23,242c16.2,85.35,13.49,173.7-34.4,248.44-12,18.74-27.42,39-48.87,52.75-32,20.64-67.56,30.33-97.43,45.22q-5.47,2.73-10.76,5.75c-34.32,19.63-59.63,47.55-74.43,80.73-15.53,34.82-18.71,77.59,2.5,115.41"/><path class="cls-4" d="M748.57-259.49A371.82,371.82,0,0,1,713-167.86c-7,12.91-14.86,25.6-24.65,37.06-25.81,30.31-61.91,50-98.37,64.35Q578.59-62,566.9-58.09a508.49,508.49,0,0,1-80.51,19.26c-34.65,5.28-70.09,7.16-107.24,10.56C342.52-25,304.27-16,271.64-8.87,224.55,1.45,176.78-2,131.79,8.55,107.67,14.19,83.69,23.15,63,35.94,45.16,47,29.78,61,19,78.36c-29.09,46.76-17.73,105.86-8,159.89C26.74,326.93,24,419.79-28.86,495.87c-12.32,17.72-27.85,36.55-48.23,50-30.58,20.28-64.19,31.64-92.11,48-3.42,2-6.78,4.11-10.05,6.31-32,21.46-54.32,50.86-66,84.44-12.13,35-12,76.33,10.07,112.13"/><path class="cls-4" d="M734.78-270a340.76,340.76,0,0,1-34.63,88c-6.91,12.37-14.6,24.48-23.94,35.57-24.69,29.42-58.29,50.14-93,66q-10.83,4.94-22,9.28a490.94,490.94,0,0,1-77.13,22.69c-33.33,6.87-67.62,10.49-103.35,14.63-35.19,4-71.87,11.76-104.11,17.47-49.42,8.75-99.36,5-147,14.86-25.52,5.31-51,14.06-73,27C37.59,36.66,21.12,50.93,9.49,68.87-22,117-10.57,178.44-1.13,234.48c15.43,92,13,189.69-45.15,266.8-12.66,16.77-28.28,34.09-47.61,47.21-29.16,19.9-60.82,32.94-86.78,50.87-3.19,2.21-6.31,4.49-9.34,6.87a160.68,160.68,0,0,0-57.49,88.14c-8.75,35.18-5.3,75.07,17.64,108.87"/><path class="cls-4" d="M721-280.43A312.11,312.11,0,0,1,687.28-196a242.66,242.66,0,0,1-23.23,34.08c-23.57,28.54-54.68,50.33-87.54,67.57q-10.28,5.39-20.88,10.2A474.4,474.4,0,0,1,481.87-58c-32,8.45-65.14,13.81-99.46,18.69-33.75,4.76-68.79,11.22-100.71,15.53-51.71,7-103.85,3.05-154.09,12.32-26.93,5-53.93,13.56-77.3,26.59C30.05,26.37,12.49,40.93,0,59.38-33.68,109-22.38,172.67-13.19,230.71,1.87,326.09,0,428.9-63.71,506.69c-13,15.87-28.7,31.64-47,44.44-27.76,19.54-57.41,34.29-81.47,53.71q-4.42,3.6-8.62,7.42a156.24,156.24,0,0,0-49,91.85c-5.41,35.37,1.39,73.81,25.21,105.59"/><path class="cls-4" d="M707.21-290.9A284.42,284.42,0,0,1,674.4-210a266.45,266.45,0,0,1-22.51,32.59c-22.45,27.65-51.06,50.51-82.13,69.18q-9.71,5.83-19.77,11.12A459.45,459.45,0,0,1,479.6-67.58C448.91-57.56,417-50.44,384-44.83c-32.3,5.49-65.63,10.64-97.32,13.6-53.94,5-108.33,1.14-161.2,9.76C97.19-16.85,68.7-8.41,44,4.73,22.51,16.07,3.87,30.94-9.45,49.9-45.4,101-34.18,166.9-25.24,227-10.57,325.66-11.72,434-81.14,512.1a290,290,0,0,1-46.34,41.67c-26.34,19.17-54,35.58-76.14,56.54q-4.08,3.88-7.91,8a152.91,152.91,0,0,0-40.54,95.54c-2.08,35.58,8.09,72.55,32.78,102.33"/><path class="cls-4" d="M693.42-301.36c-17.7,77.94-75.11,146.46-149.06,191.19S381.05-43.31,291.75-38.68c-56.12,2.91-112.82-.77-168.32,7.2S11.61-1.55-18.91,40.41C-57.11,92.93-46,161.12-37.3,223.18-23,325.24-23.2,439.49-98.57,517.52c-37.53,38.86-90.65,64.86-123.72,106.81-45.86,58.16-42.3,143.33,8.28,198.31"/></g><g class="cls-3"><path class="cls-4" d="M224.55,1035.6A1376.89,1376.89,0,0,1,338,912.28c18-17.35,37.1-34.63,61-45,61.09-26.42,134.14-.78,191.69,31.32A780.72,780.72,0,0,1,736.43,1003.2c43.29,39.46,82.13,84,134.57,113.46s124.42,40.28,175.1,8.52c30.15-18.89,48.3-50.26,55.17-82.47s3.5-65.48-2.38-97.86c-6.73-37.06-16.61-75.73-3.44-111.4,13.63-36.93,53.06-65.22,96.55-69.27,61.87-5.75,116.26,32.54,168.4,62.7,66.24,38.31,143.21,66.83,222.11,62.8s158.62-46.93,182.28-114"/><path class="cls-4" d="M232.72,1050a1272.79,1272.79,0,0,1,112-120.92c17.84-16.94,36.71-33.77,60.2-43.94,45.12-19.53,96.77-10.92,143.79,7.44a422.92,422.92,0,0,1,44.83,20.79A766.29,766.29,0,0,1,737.91,1013c43.06,37.8,81.72,80.94,133.55,109.23,28.64,15.62,62.45,26.4,95.87,28.62,30.22,2,60.28-3.17,85.3-18.45a113.51,113.51,0,0,0,10.32-7.11c25.29-19.54,40.53-48.34,47.11-77.81a189.4,189.4,0,0,0,3.69-23.88c2.36-25.55.22-51.47-3-76.75-4.94-38-11.58-76.8,3.17-112.4,14.63-35.28,52.41-62.81,94.8-66.94,60.35-5.88,113.6,30.22,164.56,58.33q12.3,6.78,25.07,13c58.73,28.67,124.1,47.69,190.41,42.91,75.94-5.51,152.06-48.27,174-113.85"/><path class="cls-4" d="M240.89,1064.38A1179.29,1179.29,0,0,1,351.36,945.86C369,929.33,387.68,913,410.77,903c44.36-19.22,95-11.52,141.32,5.62a421.73,421.73,0,0,1,44.24,19.51,751.74,751.74,0,0,1,143.06,94.71c42.83,36.14,81.34,77.78,132.54,105,29.78,15.82,64.51,27,99,29.75,31.09,2.41,62.29-2.47,88.24-17.93a114.07,114.07,0,0,0,10.72-7.22c26.33-20,41.9-49.71,49-80.13a210.44,210.44,0,0,0,4.12-24.6c2.87-26.26,1.61-52.93-.46-78.82-3.14-38.86-6.61-77.81,9.79-113.39,15.5-33.64,51.75-60.4,93-64.61,58.82-6,110.92,27.91,160.71,54q12,6.29,24.47,12.07c57.36,26.35,120.66,43.1,184.38,37,73-7,145.51-49.6,165.75-113.72"/><path class="cls-4" d="M249.06,1078.77A1091,1091,0,0,1,358,962.65c17.46-16.12,35.93-32,58.61-41.88,43.59-18.91,93.27-12.13,138.85,3.8a421,421,0,0,1,43.64,18.23,738,738,0,0,1,141.74,89.78c42.61,34.48,81,74.58,131.52,100.74,30.94,16,66.58,27.71,102.12,30.88,32,2.82,64.31-1.78,91.19-17.41a116.75,116.75,0,0,0,11.12-7.34c27.36-20.39,43.25-51.07,50.81-82.45a231.56,231.56,0,0,0,4.55-25.3c3.38-27,3-54.39,2.14-80.9-1.35-39.76-1.7-78.77,16.41-114.39,16.26-32,51.1-58,91.29-62.27,57.3-6.14,108.25,25.59,156.86,49.6q11.74,5.79,23.89,11.07c56,24,117.21,38.52,178.34,31.19,70-8.46,139-50.94,157.49-113.61"/><path class="cls-4" d="M257.23,1093.15A1014,1014,0,0,1,364.69,979.44c17.28-15.71,35.54-31.18,57.82-40.85,42.82-18.6,91.52-12.74,136.38,2a417.24,417.24,0,0,1,43,17,723.11,723.11,0,0,1,140.42,84.85c42.38,32.81,80.64,71.35,130.51,96.5,32.09,16.19,68.64,28.36,105.24,32,32.84,3.23,66.33-1.08,94.13-16.88a119,119,0,0,0,11.53-7.46c28.39-20.82,44.61-52.44,52.66-84.77a254.72,254.72,0,0,0,5-26c3.88-27.69,4.39-55.84,4.73-83,.45-40.66,3.13-79.71,23-115.39,16.93-30.36,50.45-55.58,89.54-59.95,55.78-6.26,105.59,23.29,153,45.24,7.65,3.53,15.41,6.92,23.29,10.08,54.55,21.87,113.77,33.94,172.31,25.34,67.09-9.93,132.4-52.27,149.23-113.5"/><path class="cls-4" d="M265.4,1107.54a940.93,940.93,0,0,1,106-111.31c17.08-15.3,35.14-30.32,57-39.82,42.06-18.29,89.77-13.35,133.91.16a417.41,417.41,0,0,1,42.44,15.68,709.2,709.2,0,0,1,139.09,79.92c42.16,31.15,80.34,68.09,129.5,92.26,33.27,16.36,70.71,29,108.37,33.13,33.72,3.64,68.35-.38,97.07-16.36a117.45,117.45,0,0,0,11.93-7.58c29.43-21.23,46-53.8,54.52-87.09,2.28-8.88,4-17.82,5.4-26.72,4.39-28.4,5.79-57.3,7.33-85,2.24-41.56,7.9-80.61,29.64-116.38,17.48-28.75,49.79-53.17,87.78-57.62,54.27-6.39,102.92,21,149.18,40.88,7.46,3.19,15,6.26,22.69,9.09,53.17,19.58,110.33,29.34,166.29,19.48,64.13-11.41,125.84-53.61,141-113.39"/><path class="cls-4" d="M273.57,1121.93A875.29,875.29,0,0,1,378,1013c16.9-14.89,34.76-29.46,56.22-38.8,41.3-18,88-13.94,131.45-1.65A408.35,408.35,0,0,1,607.53,987a689.51,689.51,0,0,1,137.77,75c41.93,29.49,80,64.8,128.49,88,34.44,16.51,72.76,29.66,111.5,34.25,34.58,4,70.36.32,100-15.84a120.63,120.63,0,0,0,12.33-7.69c30.46-21.66,47.32-55.17,56.37-89.41,2.4-9.13,4.28-18.31,5.82-27.44,4.9-29.11,7.18-58.76,9.93-87.11,4-42.46,12.59-81.51,36.26-117.37,17.93-27.17,49.13-50.76,86-55.29,52.75-6.52,100.26,18.66,145.34,36.51,7.27,2.87,14.63,5.61,22.09,8.1,51.8,17.3,106.89,24.76,160.26,13.63,61.17-12.89,119.28-55,132.69-113.28"/><path class="cls-4" d="M281.74,1136.32a813.43,813.43,0,0,1,102.94-106.51c16.71-14.48,34.37-28.59,55.43-37.77,40.54-17.66,86.27-14.55,129-3.47a404.23,404.23,0,0,1,41.24,13.13,674.67,674.67,0,0,1,136.45,70.06c41.71,27.83,79.76,61.48,127.47,83.78,35.63,16.66,74.83,30.32,114.63,35.38,35.46,4.46,72.37,1,102.95-15.31a124.11,124.11,0,0,0,12.74-7.82c31.49-22.08,48.68-56.53,58.22-91.73,2.53-9.36,4.55-18.79,6.25-28.14,5.4-29.83,8.57-60.22,12.52-89.19,5.84-43.35,17.2-82.41,42.87-118.36,18.31-25.63,48.48-48.35,84.28-53,51.22-6.64,97.58,16.36,141.49,32.15,7.08,2.54,14.24,5,21.49,7.11,50.43,15,103.45,20.18,154.23,7.78,58.22-14.37,112.73-56.29,124.42-113.16"/><path class="cls-4" d="M289.91,1150.71A758.21,758.21,0,0,1,391.35,1046.6c16.52-14.07,34-27.73,54.63-36.74,39.77-17.35,84.52-15.16,126.51-5.3a409.16,409.16,0,0,1,40.65,11.86,661.24,661.24,0,0,1,135.12,65.13c41.48,26.17,79.49,58.14,126.46,79.55,36.82,16.78,76.89,31,117.75,36.5,36.33,4.87,74.39,1.72,105.89-14.79a123.49,123.49,0,0,0,13.14-7.93c32.54-22.5,50-57.91,60.07-94.05,2.66-9.61,4.82-19.28,6.68-28.86,5.92-30.54,10-61.67,15.12-91.25,7.63-44.26,21.73-83.34,49.49-119.36,18.59-24.12,47.82-46,82.52-50.64,49.7-6.77,94.92,14,137.64,27.79,6.9,2.2,13.86,4.29,20.9,6.12,49.06,12.73,100,15.58,148.2,1.91,55.27-15.83,106.17-57.61,116.16-113"/><path class="cls-4" d="M298.08,1165.09A705.84,705.84,0,0,1,398,1063.39c16.34-13.65,33.59-26.87,53.84-35.71,39-17,82.77-15.77,124-7.12a409.19,409.19,0,0,1,40.05,10.58,647.68,647.68,0,0,1,133.8,60.21c41.25,24.5,79.23,54.76,125.44,75.3,38,16.9,79,31.62,120.88,37.63,37.21,5.28,76.41,2.42,108.84-14.27a126.07,126.07,0,0,0,13.54-8c33.57-22.92,51.4-59.27,61.92-96.37,2.79-9.85,5.09-19.75,7.11-29.56,6.42-31.25,11.35-63.13,17.71-93.33,9.43-45.15,26.18-84.3,56.11-120.35,18.8-22.65,47.16-43.54,80.76-48.31,48.18-6.9,92.25,11.73,133.8,23.42,6.71,1.88,13.48,3.64,20.31,5.13,47.68,10.45,96.56,11,142.16-3.94,52.32-17.31,99.62-58.95,107.89-112.93"/><path class="cls-4" d="M306.25,1179.48a657.55,657.55,0,0,1,98.43-99.31c16.14-13.23,33.19-26,53-34.67,38.24-16.73,81-16.38,121.57-8.94,13.48,2.46,26.71,5.65,39.45,9.3a634.82,634.82,0,0,1,132.47,55.28c41,22.84,79,51.38,124.43,71.07,39.24,17,81,32.26,124,38.75,38.08,5.69,78.43,3.11,111.78-13.74a128.46,128.46,0,0,0,14-8.17c34.6-23.35,52.75-60.64,63.77-98.69,2.91-10.09,5.35-20.24,7.53-30.28,6.93-32,12.74-64.58,20.31-95.4,11.22-46,30.54-85.31,62.72-121.34,19-21.23,46.51-41.13,79-46,46.66-7,89.59,9.42,130,19.07,6.52,1.54,13.09,3,19.71,4.14,46.32,8.15,93.12,6.41,136.13-9.8,49.36-18.79,93.06-60.29,99.63-112.82"/><path class="cls-4" d="M314.42,1193.87A613,613,0,0,1,411.34,1097c16-12.82,32.8-25.13,52.24-33.65,37.48-16.41,79.28-17,119.11-10.75,13.24,2,26.27,4.8,38.85,8a621.7,621.7,0,0,1,131.15,50.35c40.81,21.17,78.75,48,123.42,66.82,40.45,17.08,83.09,32.92,127.13,39.88,39,6.1,80.45,3.81,114.72-13.22a130.74,130.74,0,0,0,14.35-8.29c35.64-23.76,54.11-62,65.63-101,3-10.33,5.61-20.72,8-31,7.44-32.68,14.14-66.05,22.91-97.48,13-46.94,34.83-86.38,69.34-122.33,19-19.85,45.85-38.72,77.26-43.66,45.14-7.15,86.91,7.11,126.11,14.7,6.33,1.21,12.7,2.31,19.11,3.15,45,5.86,89.68,1.83,130.1-15.65,46.41-20.27,86.51-61.63,91.36-112.7"/><path class="cls-4" d="M322.59,1208.26c27.5-34.85,59.78-66.48,95.42-94.51,15.76-12.41,32.41-24.27,51.44-32.62,36.72-16.1,77.53-17.58,116.64-12.57,13,1.65,25.83,4,38.25,6.75a609.73,609.73,0,0,1,129.83,45.42c40.58,19.52,78.52,44.54,122.4,62.58,41.68,17.14,85.16,33.58,130.26,41,39.83,6.51,82.46,4.51,117.66-12.7a131.52,131.52,0,0,0,14.76-8.4c36.67-24.19,55.47-63.37,67.47-103.33,3.17-10.58,5.89-21.21,8.39-31.69,7.94-33.39,15.52-67.51,25.5-99.55,14.81-47.85,39-87.56,76-123.33,19.1-18.51,45.19-36.31,75.5-41.33,43.62-7.28,84.25,4.79,122.27,10.34,6.14.87,12.32,1.65,18.51,2.15,43.6,3.56,86.25-2.76,124.08-21.5,43.45-21.75,79.94-63,83.09-112.59"/><path class="cls-4" d="M330.76,1222.64c26.88-34.16,58.69-65,93.91-92.1,15.58-12,32-23.41,50.65-31.59,35.95-15.79,75.78-18.19,114.17-14.39,12.77,1.25,25.39,3.12,37.66,5.47a598.73,598.73,0,0,1,128.5,40.49C796,1148.38,834,1171.61,877,1188.87c42.9,17.18,87.22,34.22,133.38,42.13,40.71,6.92,84.48,5.21,120.61-12.17a133.25,133.25,0,0,0,15.16-8.53c37.7-24.61,56.82-64.73,69.32-105.65,3.3-10.81,6.15-21.69,8.81-32.4,8.45-34.1,16.92-69,28.1-101.62,16.61-48.74,43.14-88.82,82.57-124.32,19.13-17.22,44.54-33.91,73.75-39,42.1-7.4,81.58,2.49,118.42,6,6,.55,11.94,1,17.92,1.17,42.24,1.24,82.85-7.28,118.05-27.36,40.54-23.14,73.39-64.3,74.82-112.48"/><path class="cls-4" d="M338.93,1237c26.25-33.48,57.59-63.51,92.4-89.7,15.39-11.59,31.64-22.55,49.86-30.56,35.19-15.48,74-18.8,111.7-16.21,12.54.84,25,2.28,37.06,4.2a586.84,586.84,0,0,1,127.18,35.56c40.12,16.19,78.08,37.62,120.37,54.1,44.15,17.21,89.29,34.88,136.51,43.26,41.59,7.33,86.5,5.91,123.55-11.65a135.53,135.53,0,0,0,15.56-8.64c38.74-25,58.19-66.1,71.18-108,3.42-11.06,6.41-22.17,9.23-33.11,9-34.82,18.31-70.42,30.7-103.7,18.41-49.64,47.17-90.21,89.19-125.31,19.11-16,43.89-31.5,72-36.68,40.58-7.53,78.91.17,114.58,1.61,5.78.22,11.56.33,17.32.18,40.89-1.07,79.41-11.86,112-33.21,37.6-24.62,66.83-65.64,66.56-112.37"/><path class="cls-4" d="M347.1,1251.42c25.63-32.79,56.5-62,90.9-87.3,15.2-11.18,31.24-21.69,49.06-29.54,34.42-15.16,72.28-19.39,109.23-18,12.3.45,24.51,1.46,36.46,2.93a576.57,576.57,0,0,1,125.86,30.63c39.9,14.53,77.86,34.14,119.36,49.87,45.39,17.2,91.35,35.53,139.63,44.38,42.46,7.74,88.52,6.61,126.49-11.13a136.53,136.53,0,0,0,16-8.76c39.77-25.45,59.54-67.46,73-110.29,3.55-11.3,6.68-22.65,9.66-33.82,9.47-35.53,19.7-71.88,33.29-105.77,20.2-50.54,51.12-91.73,95.81-126.31,19.08-14.76,43.23-29.08,70.24-34.34,39.05-7.66,76.24-2.14,110.73-2.75,5.59-.12,11.17-.34,16.73-.82,39.52-3.39,76-16.45,106-39.07,34.65-26.1,60.28-67,58.29-112.25"/><path class="cls-4" d="M355.27,1265.81c25-32.11,55.4-60.54,89.39-84.9,15-10.77,30.85-20.82,48.27-28.51,33.65-14.85,70.53-20,106.75-19.85,12.08,0,24.07.62,35.87,1.65a566.46,566.46,0,0,1,124.53,25.71c39.68,12.86,77.66,30.64,118.35,45.62,46.65,17.17,93.41,36.18,142.76,45.51,43.34,8.15,90.53,7.31,129.44-10.6a140.52,140.52,0,0,0,16.37-8.88c40.8-25.88,60.89-68.84,74.88-112.61,3.68-11.54,6.94-23.14,10.08-34.53,10-36.24,21.09-73.34,35.89-107.84,22-51.44,55-93.42,102.42-127.31,19.06-13.61,42.58-26.67,68.49-32,37.53-7.79,73.57-4.46,106.89-7.12,5.4-.44,10.78-1,16.13-1.8,38.16-5.73,72.48-21.11,100-44.93,31.64-27.65,53.72-68.31,50-112.13"/><path class="cls-4" d="M363.44,1280.2c24.38-31.43,54.3-59.06,87.89-82.5,14.82-10.36,30.46-20,47.46-27.48,32.9-14.54,68.79-20.61,104.29-21.67,11.84-.36,23.63-.22,35.27.37a557.29,557.29,0,0,1,123.21,20.78c39.45,11.21,77.45,27.14,117.34,41.39,47.9,17.11,95.47,36.83,145.88,46.63,44.21,8.56,92.55,8,132.38-10.08a140.65,140.65,0,0,0,16.77-9c41.84-26.3,62.26-70.2,76.73-114.93,3.81-11.78,7.22-23.62,10.52-35.24,10.48-37,22.48-74.79,38.48-109.91,23.79-52.34,58.82-95.28,109-128.3,19-12.5,41.92-24.26,66.73-29.69,36-7.91,70.91-6.76,103-11.47,5.21-.78,10.4-1.67,15.53-2.8,36.8-8.07,69-25.69,93.92-50.78,28.69-29.12,47.17-69.64,41.77-112"/><path class="cls-4" d="M371.61,1294.58c23.75-30.73,53.21-57.57,86.38-80.09A297.72,297.72,0,0,1,504.66,1188c32.13-14.23,67-21.22,101.82-23.49q17.41-1.15,34.68-.9A548.16,548.16,0,0,1,763,1179.5c39.22,9.54,77.25,23.61,116.32,37.14,49.18,17,97.54,37.49,149,47.75,45.09,9,94.57,8.71,135.32-9.54a144,144,0,0,0,17.18-9.12c42.87-26.72,63.61-71.57,78.58-117.25,3.94-12,7.48-24.11,10.94-36,11-37.67,23.88-76.25,41.08-112,25.59-53.23,62.58-97.32,115.66-129.29,19-11.44,41.26-21.86,65-27.36,34.5-8,68.24-9.07,99.21-15.84,5-1.11,10-2.33,14.93-3.78,35.43-10.44,65.6-30.29,87.89-56.64,25.74-30.6,40.61-71,33.5-111.91"/><path class="cls-4" d="M379.78,1309c23.13-30,52.11-56.09,84.87-77.69a316.36,316.36,0,0,1,45.88-25.42c31.37-13.92,65.28-21.83,99.35-25.31,11.37-1.17,22.75-1.87,34.08-2.18a544.09,544.09,0,0,1,120.56,10.92c39,7.88,77,20.08,115.31,32.91,50.45,16.91,99.6,38.13,152.13,48.87,46,9.39,96.59,9.41,138.27-9a144.07,144.07,0,0,0,17.57-9.24c43.91-27.14,65-72.93,80.44-119.57,4.06-12.26,7.74-24.58,11.36-36.66,11.5-38.38,25.27-77.7,43.68-114,27.38-54.14,66.29-99.57,122.27-130.29a265.14,265.14,0,0,1,63.23-25c33-8.17,65.57-11.39,95.35-20.21,4.84-1.43,9.63-3,14.34-4.77a176.32,176.32,0,0,0,81.87-62.49c22.77-32.08,34.05-72.32,25.23-111.8"/><path class="cls-4" d="M388,1323.36c22.5-29.37,51-54.61,83.37-75.29a341.76,341.76,0,0,1,45.08-24.4c30.6-13.6,63.53-22.42,96.88-27.12q16.71-2.35,33.48-3.46a535.15,535.15,0,0,1,119.24,6c38.77,6.22,76.84,16.53,114.29,28.67,51.74,16.76,101.67,38.79,155.27,50,46.83,9.8,98.6,10.11,141.2-8.5a146,146,0,0,0,18-9.36c44.94-27.56,66.33-74.29,82.29-121.88,4.19-12.51,8-25.07,11.79-37.37,12-39.09,26.66-79.17,46.27-116.13,29.18-55,70-102,128.89-131.28a325.39,325.39,0,0,1,61.47-22.71c31.45-8.3,62.9-13.69,91.51-24.56,4.65-1.77,9.24-3.68,13.74-5.77a172.9,172.9,0,0,0,75.84-68.34c19.82-33.56,27.49-73.66,17-111.68"/><path class="cls-4" d="M396.12,1337.75c50.19-65.82,132.91-109.32,220.56-125.2s179.69-5.62,264.07,20.75c53,16.58,103.74,39.45,158.4,51.13s116.14,10.78,162.53-17.45c58-35.33,77.41-102.06,96.35-162.29,31.15-99,81-204.36,184.38-250.47,51.51-23,111.79-28.72,160.53-56.06,67.56-37.91,101.28-117.7,78.5-185.77"/></g><g class="cls-3"><path class="cls-4" d="M-573-99.29A1467.79,1467.79,0,0,1-436.4-202.39c21.25-14.18,43.52-28.12,69.12-34.45,65.45-16.19,132.1,20.74,182.19,61.53A733.48,733.48,0,0,1-63-49.1C-28.41-3.34.74,46.74,46.36,84.08s114.21,59.57,170.5,36.45c33.49-13.75,57.71-41.69,71-72.28s16.72-63.84,17.51-96.63c.9-37.54-1-77.15,19.22-110.13,20.9-34.14,65.42-55.64,109-52.65,62,4.26,107.75,50.64,152.92,88.66,57.38,48.3,127.3,88.69,205.72,97.38S957.79-45.86,994.67-108"/><path class="cls-4" d="M-567.93-83.82a1354.66,1354.66,0,0,1,134.73-101c21-13.81,43-27.33,68.16-33.57,47.7-11.81,96.09,4.35,138.21,29.38a396.28,396.28,0,0,1,41.55,28.65A719.65,719.65,0,0,1-63.51-39.23C-28.83,4.86.44,53.49,45.69,89.61c24.86,19.85,55.71,35.8,87.93,43.41C163.15,140,194,139.77,222,128.63q5.15-2.05,10-4.54c29.64-15.09,51-41.44,63.65-69.9a194.72,194.72,0,0,0,7.84-20.81c8-25.37,11.24-51.92,13.19-78,2.84-38.09,4.13-77.32,25.86-110C364-186.94,406.84-208,449.39-205.23c60.53,3.89,105.56,47.94,150,83.76,7.29,5.87,14.77,11.62,22.44,17.18C673.62-66.82,733.88-37.74,799.89-31.8,875.75-25.06,959.32-54.95,994.22-116"/><path class="cls-4" d="M-562.82-68.36A1253.7,1253.7,0,0,1-430-167.27c20.74-13.44,42.45-26.55,67.21-32.68,46.88-11.62,94.49,3.51,136.14,27.26a395.91,395.91,0,0,1,41.19,27.25A706.35,706.35,0,0,1-64-29.36C-29.25,13.06.18,60.2,45,95.15c25.95,20.24,57.62,36.78,90.8,45,30.34,7.51,62.33,7.77,91.22-3.44q5.33-2.07,10.39-4.6c30.76-15.37,52.6-42.65,66-72a216.78,216.78,0,0,0,8.33-21.39c8.61-26,12.92-53.13,16.21-79.61,4.78-38.65,9.18-77.44,32.5-109.8,22.06-30.59,63.24-51.12,104.74-48.64,59.05,3.52,103.37,45.24,147,78.85q10.74,8.28,22,16.1c50.9,35,109.58,61.55,173.3,65.87,73.3,4.8,153.33-25.57,186.24-85.47"/><path class="cls-4" d="M-557.7-52.9a1160.91,1160.91,0,0,1,130.91-96.81c20.47-13.06,41.9-25.76,66.24-31.8,46.07-11.43,92.9,2.69,134.08,25.15a395.88,395.88,0,0,1,40.82,25.85,693.83,693.83,0,0,1,121.07,111C-29.67,21.26,0,66.87,44.35,100.69c27.06,20.61,59.54,37.76,93.68,46.63,31.14,8.06,64.24,8.79,94.1-2.49q5.52-2.09,10.75-4.65c31.89-15.65,54.23-43.86,68.27-74.1,3.35-7.23,6.27-14.57,8.84-22,9.25-26.61,14.6-54.34,19.23-81.21,6.71-39.22,14.14-77.55,39.14-109.64,22.48-28.86,62.13-48.86,102.59-46.64,57.56,3.16,101.18,42.53,144.07,74q10.56,7.73,21.62,15c50,32.53,107.07,56.55,168.52,59.25,70.73,2.86,147.22-28,178.15-86.77"/><path class="cls-4" d="M-552.58-37.44a1075.13,1075.13,0,0,1,129-94.71c20.22-12.69,41.36-25,65.28-30.91,45.27-11.24,91.31,1.85,132,23a393.57,393.57,0,0,1,40.45,24.46A680.45,680.45,0,0,1-65.11-9.61c35,39.07,64.85,83.12,108.79,115.84,28.17,21,61.46,38.74,96.55,48.24,32,8.62,66.16,9.81,97-1.54q5.7-2.1,11.12-4.71c33-15.93,55.85-45.07,70.57-76.19,3.51-7.43,6.59-15,9.35-22.54,9.88-27.23,16.27-55.55,22.24-82.82,8.64-39.78,19.05-77.63,45.78-109.47,22.81-27.17,61-46.61,100.45-44.64,56.07,2.79,99,39.83,141.12,69.05,6.92,4.79,14,9.47,21.22,13.92,49,30.18,104.56,51.69,163.72,52.63C891-50.76,963.9-82.25,992.86-139.91"/><path class="cls-4" d="M-547.46-22a999.49,999.49,0,0,1,127.07-92.61c20-12.31,40.83-24.19,64.32-30,44.46-11,89.72,1,130,20.93a392.59,392.59,0,0,1,40.08,23A667.69,667.69,0,0,1-65.65.26C-30.5,37.66-.43,80.13,43,111.77c29.3,21.34,63.37,39.72,99.43,49.85,32.76,9.17,68.08,10.82,99.87-.59,3.92-1.4,7.75-3,11.49-4.77C287.93,140.06,311.26,110,326.68,78c3.66-7.62,6.91-15.36,9.85-23.11C347.05,27,354.47-1.9,361.78-29.57c10.58-40.33,23.88-77.7,52.43-109.31,23-25.5,59.94-44.34,98.3-42.63,54.59,2.42,96.8,37.13,138.18,64.15,6.79,4.43,13.71,8.74,20.8,12.83,48.07,27.74,102.06,46.72,158.94,46,65.61-.83,135-32.83,162-89.37"/><path class="cls-4" d="M-542.35-6.52A928.91,928.91,0,0,1-417.19-97c19.7-11.94,40.29-23.4,63.37-29.14,43.64-10.86,88.12.18,127.89,18.81a395.29,395.29,0,0,1,39.72,21.65,655.92,655.92,0,0,1,120,95.84C-30.92,45.85-.59,86.71,42.34,117.3,72.77,139,107.63,158,144.64,168.78c33.57,9.72,70,11.83,102.76.35a123.72,123.72,0,0,0,11.86-4.83c35.25-16.47,59.08-47.48,75.18-80.38,3.82-7.83,7.24-15.76,10.36-23.69,11.16-28.47,19.62-58,28.27-86,12.51-40.89,28.63-77.78,59.06-109.14C455.31-158.84,491-177,528.3-175.59c53.09,2.07,94.6,34.44,135.22,59.25,6.66,4.07,13.45,8,20.39,11.76,47.15,25.29,99.57,41.74,154.15,39.38C901.12-67.94,967-100.44,992-155.87"/><path class="cls-4" d="M-537.23,9A862.82,862.82,0,0,1-414-79.47c19.45-11.56,39.75-22.62,62.41-28.26,42.83-10.67,86.54-.65,125.83,16.7A389,389,0,0,1-186.4-70.77,637.54,637.54,0,0,1-66.71,20c35.37,34.05,66,73.27,108.38,102.84,31.58,22,67.2,41.69,105.18,53.09,34.38,10.27,71.91,12.85,105.64,1.3a127,127,0,0,0,12.22-4.88c36.38-16.76,60.71-48.7,77.5-82.49,4-8,7.55-16.15,10.85-24.26,11.8-29.1,21.3-59.18,31.29-87.65,14.45-41.45,33.33-77.89,65.7-109,23.25-22.33,57.75-39.83,94-38.64,51.6,1.7,92.41,31.74,132.27,54.35,6.54,3.71,13.19,7.31,20,10.67,46.23,22.84,97.07,36.77,149.35,32.76,60.51-4.65,122.8-37.66,145.81-92"/><path class="cls-4" d="M-532.11,24.41A803.63,803.63,0,0,1-410.79-61.9c19.19-11.2,39.22-21.84,61.45-27.38,42-10.48,84.95-1.48,123.77,14.58a388.12,388.12,0,0,1,39,18.86A625.69,625.69,0,0,1-67.25,29.87C-31.75,62.25-.84,99.81,41,128.38c32.74,22.35,69.12,42.67,108.05,54.7,35.19,10.83,73.83,13.87,108.54,2.25a130.73,130.73,0,0,0,12.58-4.94c37.5-17,62.32-49.91,79.8-84.59,4.13-8.22,7.88-16.54,11.36-24.84,12.44-29.71,23-60.38,34.3-89.25,16.39-42,37.95-78,72.35-108.81,23.25-20.8,56.65-37.56,91.88-36.63,50.12,1.33,90.22,29,129.32,49.45,6.42,3.34,12.93,6.59,19.58,9.58,45.31,20.4,94.58,31.8,144.57,26.14,58-6.56,116.68-40.08,137.72-93.28"/><path class="cls-4" d="M-527,39.87A747.47,747.47,0,0,1-407.58-44.34c18.92-10.82,38.67-21.06,60.48-26.5,41.22-10.29,83.36-2.31,121.7,12.47a390.15,390.15,0,0,1,38.62,17.46,614.27,614.27,0,0,1,119,80.65C-32.17,70.45-.94,106.33,40.33,133.92c33.9,22.66,71,43.64,110.92,56.31,36,11.38,75.75,14.89,111.43,3.2a131.66,131.66,0,0,0,12.95-5c38.62-17.31,63.94-51.11,82.1-86.68,4.29-8.42,8.21-16.94,11.87-25.42C382.67,46,394.25,14.74,406.91-14.53c18.33-42.56,42.5-78.21,79-108.64,23.19-19.34,55.55-35.31,89.74-34.63,48.63,1,88,26.34,126.37,44.54,6.3,3,12.67,5.87,19.17,8.5,44.4,18,92.09,26.82,139.78,19.52,55.41-8.48,110.58-42.5,129.63-94.58"/><path class="cls-4" d="M-521.88,55.33a696.59,696.59,0,0,1,117.5-82.11C-385.71-37.23-366.24-47-344.86-52.4c40.41-10.09,81.77-3.14,119.64,10.37A390.06,390.06,0,0,1-187-26,603.28,603.28,0,0,1-68.31,49.61c35.72,29,67.28,63.22,108,89.84,35.08,23,73,44.63,113.8,57.93,36.81,11.94,77.66,15.91,114.31,4.15a132.11,132.11,0,0,0,13.32-5.06c39.74-17.58,65.56-52.32,84.41-88.78,4.44-8.61,8.52-17.33,12.37-26,13.71-30.95,26.32-62.79,40.33-92.46,20.26-43.13,47-78.47,85.62-108.48,23.08-17.92,54.46-33,87.6-32.63,47.15.6,85.84,23.64,123.42,39.64,6.17,2.63,12.41,5.15,18.76,7.41,43.5,15.5,89.6,21.83,135,12.9,52.86-10.41,104.47-44.92,121.54-95.88"/><path class="cls-4" d="M-516.76,70.79a648.81,648.81,0,0,1,115.58-80c18.41-10.08,37.6-19.49,58.57-24.73,39.59-9.91,80.17-4,117.57,8.25A394.16,394.16,0,0,1-187.15-11,592.49,592.49,0,0,1-68.85,59.48C-33,86.85-1.1,119.3,39,145c36.27,23.25,74.87,45.61,116.67,59.54,37.62,12.49,79.59,16.93,117.2,5.1a135.37,135.37,0,0,0,13.68-5.11c40.87-17.87,67.18-53.53,86.72-90.88,4.6-8.82,8.85-17.73,12.88-26.57,14.35-31.57,28-64,43.34-94.07,22.2-43.69,51.38-78.79,92.27-108.32,22.92-16.55,53.36-30.78,85.45-30.62,45.66.23,83.65,20.94,120.48,34.74,6,2.26,12.15,4.43,18.35,6.33,42.59,13,87.1,16.83,130.2,6.27,50.32-12.34,98.37-47.33,113.46-97.18"/><path class="cls-4" d="M-511.64,86.25c34.29-30,72.68-56,113.66-77.91,18.15-9.7,37.06-18.7,57.61-23.85,38.79-9.71,78.59-4.81,115.51,6.14A395.19,395.19,0,0,1-187.34,3.89a582.49,582.49,0,0,1,118,65.46c35.95,25.7,68.22,56.41,107.7,81.18C75.79,174,115.1,197.12,157.87,211.69c38.43,13,81.5,17.94,120.08,6A136.51,136.51,0,0,0,292,212.56c42-18.14,68.8-54.74,89-93,4.76-9,9.18-18.12,13.38-27.14,15-32.19,29.68-65.21,46.36-95.68,24.14-44.24,55.73-79.21,98.91-108.15C562.41-126.62,591.93-139.92,623-140c44.17-.13,81.46,18.24,117.53,29.84,5.92,1.9,11.89,3.7,17.94,5.24,41.69,10.58,84.62,11.84,125.42-.35,47.78-14.28,92.25-49.75,105.37-98.48"/><path class="cls-4" d="M-506.52,101.72C-473,72.26-435.19,46.94-394.78,25.9c17.9-9.33,36.53-17.92,56.65-23,38-9.52,77-5.64,113.45,4,12.74,3.38,25.19,7.41,37.15,11.86A573.4,573.4,0,0,1-69.91,79.22c36.07,24,68.69,53,107.56,76.85,38.68,23.75,78.7,47.57,122.42,62.77,39.24,13.59,83.42,19,123,7a139.41,139.41,0,0,0,14.42-5.23c43.11-18.41,70.41-55.95,91.33-95.07,4.91-9.22,9.49-18.52,13.88-27.72C418.3,65,434,31.39,452.05.52c26.07-44.8,60-79.74,105.55-108,22.51-14,51.16-26.27,81.16-26.62,42.69-.5,79.27,15.53,114.58,24.93,5.8,1.55,11.63,3,17.53,4.16,40.79,8.11,82.13,6.83,120.63-7,45.24-16.23,86.15-52.17,97.28-99.78"/><path class="cls-4" d="M-501.41,117.18c32.81-28.9,70-53.51,109.83-73.72,17.64-9,36-17.13,55.69-22.08,37.17-9.33,75.41-6.47,111.39,1.91,12.58,2.93,24.89,6.49,36.79,10.47A563.87,563.87,0,0,1-70.44,89.09C-34.26,111.45-1.26,138.63,37,161.61c39.9,24,80.62,48.55,125.3,64.38,40,14.15,85.33,20,125.85,7.94a140.64,140.64,0,0,0,14.79-5.29c44.23-18.69,72-57.15,93.63-97.17,5.08-9.41,9.82-18.91,14.39-28.29,16.27-33.44,33-67.63,52.39-98.9,28-45.36,64.25-80.39,112.19-107.81,22.29-12.75,50.07-24,79-24.62,41.2-.87,77.08,12.83,111.63,20,5.67,1.18,11.38,2.26,17.13,3.07,39.89,5.64,79.63,1.82,115.83-13.59,42.7-18.18,80-54.59,89.2-101.08"/><path class="cls-4" d="M-496.29,132.64c32.06-28.33,68.64-52.25,107.92-71.62,17.37-8.58,35.44-16.34,54.73-21.19,36.35-9.14,73.81-7.31,109.32-.2,12.42,2.48,24.6,5.55,36.42,9.06A556.08,556.08,0,0,1-71,99C-34.68,119.65-1.3,145,36.31,167.14c41.13,24.18,82.53,49.54,128.17,66,40.86,14.7,87.25,21,128.74,8.89a142.5,142.5,0,0,0,15.15-5.34c45.36-19,73.66-58.37,95.94-99.27,5.24-9.62,10.14-19.31,14.9-28.87,16.9-34.06,34.7-68.84,55.4-100.51C504.56-37.87,543-73.14,593.44-99.61c22-11.57,49-21.75,76.89-22.61C710-123.45,745.2-112.09,779-107.09c5.55.82,11.12,1.53,16.72,2,39,3.16,77.14-3.2,111-20.21,40.14-20.15,73.94-57,81.11-102.39"/><path class="cls-4" d="M-491.17,148.1c31.32-27.77,67.29-51,106-69.52C-368,70.38-350.26,63-331.4,58.27c35.55-9,72.22-8.14,107.26-2.31,12.25,2,24.31,4.63,36,7.66A548.87,548.87,0,0,1-71.51,108.83c36.41,19,70.18,42.61,107.15,63.85C78,197,120.09,223.2,166.69,240.29c41.66,15.26,89.17,22,131.62,9.84a144.61,144.61,0,0,0,15.52-5.4c46.48-19.25,75.27-59.58,98.25-101.37,5.39-9.81,10.46-19.7,15.4-29.44C445,79.24,463.85,43.87,485.89,11.8c31.89-46.47,72.58-82.13,125.48-107.48,21.8-10.45,47.87-19.49,74.74-20.61,38.22-1.6,72.68,7.43,105.72,10.23,5.43.45,10.87.8,16.31.9,38.1.65,74.65-8.24,106.26-26.84,37.59-22.12,67.83-59.42,73-103.69"/><path class="cls-4" d="M-486.06,163.56c30.59-27.21,65.95-49.71,104.09-67.42,16.86-7.83,34.37-14.77,52.81-19.42,34.74-8.76,70.64-9,105.2-4.43,12.09,1.59,24,3.71,35.68,6.27A541.78,541.78,0,0,1-72,118.7c36.52,17.35,70.68,39.12,107,59.52,43.64,24.51,86.37,51.5,133.92,69.23,42.47,15.8,91.09,23,134.52,10.78a144.43,144.43,0,0,0,15.88-5.46c47.6-19.52,76.89-60.78,100.55-103.46,5.55-10,10.79-20.1,15.9-30C453.93,84,473.8,48,497.18,15.57c33.82-47,76.68-83.26,132.11-107.32,21.57-9.36,46.78-17.24,72.6-18.61,36.73-2,70.49,4.73,102.77,5.32,5.31.1,10.61.08,15.91-.18,37.2-1.85,72.13-13.27,101.47-33.46,35-24.11,61.72-61.84,64.93-105"/><path class="cls-4" d="M-480.94,179c29.84-26.64,64.6-48.45,102.17-65.32a315.58,315.58,0,0,1,51.85-18.54c33.93-8.57,69.05-9.8,103.14-6.54,11.92,1.14,23.71,2.81,35.32,4.87A539.47,539.47,0,0,1-72.58,128.57c36.65,15.68,71.2,35.62,106.88,55.19,44.91,24.63,88.28,52.48,136.8,70.84,43.28,16.36,93,24,137.4,11.73a146.43,146.43,0,0,0,16.24-5.52c48.73-19.79,78.52-62,102.87-105.56,5.7-10.21,11.1-20.49,16.4-30.59,18.82-35.92,39.73-72.47,64.45-105.33,35.76-47.6,80.76-84.56,138.76-107.16,21.34-8.31,45.67-15,70.45-16.61,35.24-2.32,68.3,2,99.83.43,5.17-.26,10.34-.65,15.49-1.27,36.3-4.36,69.62-18.32,96.68-40.08,32.44-26.1,55.62-64.26,56.85-106.29"/><path class="cls-4" d="M-475.82,194.49c29.1-26.09,63.25-47.19,100.25-63.23a334.79,334.79,0,0,1,50.9-17.65c33.11-8.38,67.45-10.64,101.07-8.65,11.76.69,23.42,1.88,34.95,3.46a533.09,533.09,0,0,1,115.54,30c36.76,14,71.71,32.11,106.74,50.86,46.19,24.72,90.2,53.46,139.67,72.45,44.09,16.91,94.92,25.07,140.29,12.68a150.61,150.61,0,0,0,16.61-5.57c49.85-20.08,80.13-63.2,105.17-107.67,5.86-10.4,11.43-20.88,16.91-31.16,19.46-36.54,41.4-73.68,67.46-106.94,37.7-48.15,84.84-86.06,145.4-107a279.93,279.93,0,0,1,68.31-14.61c33.76-2.69,66.11-.66,96.88-4.47,5-.63,10.08-1.39,15.08-2.36a185.65,185.65,0,0,0,91.9-46.7c29.85-28.1,49.51-66.68,48.76-107.59"/><path class="cls-4" d="M-470.7,210c28.36-25.53,61.91-45.93,98.34-61.12a356.61,356.61,0,0,1,49.93-16.78c32.31-8.19,65.86-11.47,99-10.76,11.59.24,23.13.95,34.58,2.06a526.24,526.24,0,0,1,115.2,25C-36.77,160.65-1.41,176.9,33,194.83c47.49,24.79,92.11,54.45,142.54,74.07,44.9,17.47,96.84,26.09,143.18,13.63a150.72,150.72,0,0,0,17-5.63c51-20.35,81.75-64.41,107.47-109.76,6-10.61,11.76-21.28,17.42-31.75C480.65,98.23,503.63,60.51,531,26.85,570.66-21.86,619.94-60.9,683.06-80a341.75,341.75,0,0,1,66.17-12.61c32.27-3.06,63.92-3.36,93.93-9.37q7.4-1.48,14.68-3.45a183.21,183.21,0,0,0,87.1-53.32c27.24-30.1,43.4-69.1,40.67-108.89"/><path class="cls-4" d="M-465.59,225.41c62.72-56.69,152.91-86.22,242.35-87.79S-45.36,160.9,32.29,200.37c48.8,24.81,94,55.43,145.42,75.68s112.06,29.22,163.41,8.89c64.26-25.44,96.84-88,127.7-144.18C519.55,48.34,589.91-47.27,701-76c55.32-14.33,115.79-10.33,169.27-29.4,74.15-26.46,123.5-99.53,114.9-170.14"/></g><g class="cls-3"><path class="cls-4" d="M-73.39,1046.13C-82.86,978.06-7.27,920.55,69,910s152.71,11.25,228.25,25.23,160.52,18.61,223.62-20.86c80.67-50.47,99.33-156.63,182.32-204,64.69-36.95,148.88-25.89,215.16,1.59,37.47,15.54,69.33,41.68,105.14,59.9,162.43,82.58,173.38,251.35,311.37,276.52,149.41,27.25,230.48-37.51,258.68-82.42,36.12-57.52,96.35-206.79-51.23-310.52-60-42.14-119.14-87.06-163.25-142.54-66-83.08-65.58-210.08,18.86-278.73,57.87-47.05,146.76-64.25,186.08-124.57,26.42-40.54,22.81-92.81.09-135.09s-62.28-75.72-105.26-102.84"/><path class="cls-4" d="M-70,1049.53C-76.51,979.5-1.32,919,77.18,907c76.64-11.75,154.38,9.9,229.92,25.34,74.66,15.26,157.53,22.18,220.43-13.7,80.35-45.91,102.94-146.69,185.83-193.46,66-37.07,148.92-30.17,216.74-6.15,39,13.81,73.49,38.43,111,56.91,158.89,78.25,172.09,241.6,307.08,266.42C1493.4,1069,1574,1007.7,1603.33,963.5c37.11-56,94.73-199.72-44.86-302.37-57.43-42.24-114.5-88-157.89-143.2-64.09-81.1-64.73-203.54,15-271.64,55.1-47,140.83-66.26,180-125.8,26.87-40.71,25.23-92.2,5.37-134.83-20-43-56.57-78.33-97.87-107.44"/><path class="cls-4" d="M-66.54,1052.92C-70.15,981,4.63,917.48,85.4,904c77-12.9,156,8.55,231.58,25.45,73.79,16.52,154.55,25.75,217.25-6.53C614.25,881.52,640.67,786,723.56,740c67.29-37.32,149-34.48,218.33-13.89,40.56,12.06,77.63,35.19,116.91,53.94,155.21,74.11,170.8,231.83,302.79,256.31,141,26,221.12-31.75,251.56-75.25,38.09-54.44,93.13-192.72-38.47-294.21-54.93-42.36-109.76-89.14-152.55-143.86-62-79.25-63.86-197,11.2-264.55,52.34-47.07,134.91-68.27,173.89-127,27.32-40.86,27.65-91.63,10.64-134.55-17.32-43.7-50.85-80.95-90.47-112"/><path class="cls-4" d="M-63.12,1056.32C-63.79,982.39,10.58,916,93.62,901c77.45-14,157.71,7.17,233.25,25.56,72.91,17.76,151.56,29.32,214.06.63,79.69-36.82,110-127.06,192.83-172.34C802.36,717.31,883,716,953.67,733.19c42.18,10.28,81.77,31.95,122.8,51,151.44,70.16,169.51,222.07,298.5,246.2,136.76,25.43,216.42-28.87,248-71.67,39-52.91,91.53-185.83-32.09-286-52.45-42.51-105.06-90.17-147.2-144.51-60-77.35-63-190.59,7.38-257.46,49.59-47.13,128.84-70.39,167.79-128.28,27.67-41.1,30.1-91.11,15.92-134.29-14.62-44.47-45.14-83.55-83.08-116.65"/><path class="cls-4" d="M-59.69,1059.72C-57.43,983.84,16.53,914.51,101.85,898c77.85-15.1,159.36,5.78,234.91,25.68,72,19,148.57,32.89,210.87,7.78C627,899.17,661.21,814.26,744,769.66c69.92-37.69,149.44-43.32,221.5-29.38,43.81,8.48,85.88,28.73,128.68,48,147.57,66.39,168.23,212.31,294.21,236.1,132.55,24.82,211.71-26,244.45-68.08,40-51.39,89.93-179.06-25.72-277.89-50-42.72-100.37-91.22-141.84-145.18-58-75.42-62.14-184.18,3.54-250.37,46.85-47.22,122.88-72.43,161.71-129.51,28.08-41.28,32.57-90.63,21.18-134C1639.79-26,1612.25-66.86,1576-101.95"/><path class="cls-4" d="M-56.27,1063.11c5.19-77.83,78.75-150,166.34-168.15,78.26-16.16,161,4.38,236.58,25.8,71.16,20.16,145.58,36.46,207.68,15,79-27.72,117.16-107.29,199.83-151.21,71.24-37.86,149.69-47.84,223.09-37.12,45.46,6.63,90,25.52,134.56,45,143.61,62.76,166.94,202.55,289.93,226,128.33,24.23,207-23.11,240.88-64.49C1683.5,904,1731,781.46,1623.28,684.14c-47.53-43-95.69-92.24-136.49-145.84-56-73.49-61.28-177.82-.28-243.28,44.11-47.33,116.92-74.47,155.61-130.75,28.5-41.46,35.07-90.17,26.46-133.75-9.13-46.15-33.71-88.78-68.3-125.86"/><path class="cls-4" d="M-52.85,1066.51C-44.72,986.72,28.43,911.62,118.29,892c78.67-17.21,162.68,3,238.25,25.91C426.82,939.21,499.17,958,561,940c78.77-23,120.75-97.38,203.34-140.65,72.56-38,150-52.41,224.67-44.86,47.12,4.76,94.07,22.34,140.44,42,139.58,59.27,165.65,192.78,285.64,215.87,124.12,23.62,202.22-20.25,237.33-60.9,41.76-48.36,86.82-165.91-13-261.58-45.11-43.25-91-93.27-131.15-146.5-53.95-71.55-60.44-171.53-4.1-236.19,41.37-47.49,111-76.5,149.51-132,28.93-41.64,37.62-89.75,31.73-133.49-6.33-47-28-91.39-60.9-130.46"/><path class="cls-4" d="M-49.42,1069.91c11.06-81.74,83.81-159.7,175.93-181,79.09-18.24,164.35,1.51,239.92,26,69.41,22.5,139.64,43.75,201.3,29.27,78.44-18.41,124.34-87.47,206.84-130.08,73.89-38.17,150.26-57,226.26-52.6,48.8,2.85,98.15,19.16,146.32,39,135.49,55.92,164.37,183,281.36,205.77,119.9,23,197.44-17.39,233.76-57.32,42.63-46.86,85.33-159.54-6.58-253.42a1477.11,1477.11,0,0,1-125.8-147.15c-52-69.61-59.62-165.3-7.93-229.11,38.64-47.69,105-78.53,143.43-133.22a205.32,205.32,0,0,0,37-133.21c-3.5-47.94-22.27-94-53.5-135.07"/><path class="cls-4" d="M-46,1073.31c14-83.7,86.35-164.5,180.73-187.35,79.51-19.25,166,0,241.58,26.13,68.55,23.65,136.65,47.33,198.12,36.44C652.54,934.68,702.37,871,784.77,829c75.22-38.31,150.57-61.73,227.85-60.35,50.48.91,102.21,16,152.2,36.07,131.34,52.68,163.08,173.26,277.07,195.66,115.69,22.41,192.66-14.55,230.21-53.74,43.47-45.37,83.9-153.35-.21-245.25-40.26-44-81.66-95.32-120.44-147.82-50-67.66-58.84-159.14-11.76-222,35.89-47.94,99.09-80.55,137.33-134.45,29.79-42,42.83-89,42.27-133-.62-48.86-16.56-96.61-46.11-139.67"/><path class="cls-4" d="M-42.58,1076.7C-25.65,991.06,46.32,907.43,143,883c79.93-20.24,167.69-1.43,243.25,26.24,67.68,24.78,133.65,50.92,194.93,43.6C658.9,943.51,712.67,885.18,795,843.85c76.56-38.45,150.87-66.48,229.44-68.09,52.16-1.07,106.26,12.89,158.08,33.09,127.15,49.53,161.8,163.5,272.78,185.55,111.47,21.8,187.87-11.71,226.65-50.15,44.3-43.91,82.56-147.34,6.17-237.1-37.84-44.47-77-96.34-115.09-148.48-48-65.71-58.09-153-15.59-214.93,33.14-48.23,93.16-82.57,131.24-135.68,30.23-42.16,45.5-88.59,47.54-132.68,2.31-49.79-10.84-99.23-38.71-144.28"/><path class="cls-4" d="M-39.15,1080.1c19.86-87.6,91.44-174,190.32-200.14,80.36-21.22,169.37-2.92,244.92,26.35,66.82,25.89,130.65,54.49,191.74,50.76,77.43-4.72,135.14-57.68,217.34-98.39,77.91-38.58,151.18-71.26,231-75.83,53.84-3.08,110.3,9.81,164,30.11,122.9,46.5,160.5,153.74,268.49,175.45,107.25,21.2,183-8.89,223.09-46.57,45.11-42.45,81.32-141.5,12.55-228.94-35.41-45-72.33-97.35-109.75-149.14-46-63.74-57.39-147-19.41-207.84,30.35-48.58,87.23-84.59,125.15-136.92,30.66-42.33,48.21-88.2,52.81-132.41,5.27-50.72-5.13-101.83-31.32-148.88"/><path class="cls-4" d="M-35.73,1083.5c22.8-89.56,94-178.77,195.12-206.54,80.79-22.19,171.05-4.44,246.59,26.46,66,27,127.65,58.06,188.55,57.93,77.09-.18,138.75-47.74,220.85-87.83C894.62,834.82,966.84,797.43,1048,790c55.51-5.12,114.32,6.75,169.85,27.13,118.63,43.55,159.22,144,264.2,165.34,103,20.59,178.23-6.08,219.53-43,45.9-41,80.22-135.84,18.93-220.78-32.93-45.63-67.67-98.35-104.39-149.79-44.1-61.78-56.77-141.1-23.25-200.75,27.53-49,81.31-86.61,119.06-138.16,31.11-42.5,51-87.82,58.08-132.14,8.29-51.64.59-104.45-23.92-153.49"/><path class="cls-4" d="M-32.31,1086.9C-6.58,995.39,64.24,903.41,167.61,874c81.22-23.14,172.74-6,248.26,26.57,65.12,28.06,124.65,61.63,185.36,65.09C678,970,743.6,927.84,825.58,888.36c80.59-38.82,151.74-81,234.2-91.32,57.18-7.18,118.33,3.73,175.73,24.16,114.33,40.67,157.93,134.21,259.91,155.23,98.83,20,173.39-3.29,216-39.4,46.68-39.59,79.26-130.39,25.3-212.62-30.41-46.35-63-99.36-99-150.46-42.16-59.8-56.21-135.22-27.07-193.66,24.65-49.44,75.39-88.62,113-139.4,31.56-42.65,53.75-87.41,63.36-131.87a253,253,0,0,0-16.53-158.09"/><path class="cls-4" d="M-28.88,1090.29C-.22,996.83,70.23,902.1,175.83,871c81.66-24.08,174.44-7.52,249.92,26.68,64.29,29.13,121.66,65.2,182.18,72.25,76.42,8.92,146-27.81,227.85-66.69s152-85.85,235.79-99.06c58.83-9.28,122.32.75,181.61,21.17,110,37.89,156.65,124.46,255.63,145.13,94.61,19.38,168.53-.51,212.41-35.82,47.45-38.18,78.5-125.1,31.69-204.46C1725.1,683,1694.52,629.8,1659.21,579c-40.22-57.81-55.74-129.41-30.89-186.57,21.7-49.94,69.48-90.63,106.87-140.63,32-42.81,56.56-87,68.62-131.61,14.45-53.42,12-109.67-9.13-162.69"/><path class="cls-4" d="M-25.46,1093.69C6.14,998.27,76.22,900.81,184.05,868c82.1-25,176.15-9.08,251.59,26.79,63.46,30.18,118.66,68.75,179,79.42C690.71,987.62,764.24,956.32,846,918c83.31-39,152.25-90.77,237.38-106.8,60.47-11.39,126.3-2.17,187.49,18.2,105.65,35.16,155.36,114.7,251.34,135,90.39,18.77,163.68,2.25,208.85-32.23,48.21-36.8,78-120,38.07-196.31-25.1-48-53.75-101.35-88.34-151.77-38.3-55.83-55.38-123.65-34.73-179.49,18.68-50.49,63.57-92.63,100.78-141.86,32.47-43,59.4-86.55,73.9-131.34,17.57-54.28,17.73-112.28-1.74-167.3"/><path class="cls-4" d="M-22,1097.09C12.5,999.72,82.22,899.53,192.27,865c82.55-25.94,177.87-10.67,253.26,26.9,62.63,31.21,115.67,72.31,175.8,86.58,75.75,18,153.23-7.86,234.85-45.57,84.67-39.11,152.49-95.72,239-114.54,62.1-13.52,130.26-5,193.37,15.22,101.28,32.5,154.07,104.93,247.06,124.91,86.17,18.17,158.8,5,205.29-28.65,49-35.43,77.65-115,44.44-188.15-22.24-49-49.13-102.33-83-152.43-36.38-53.83-55.13-117.92-38.55-172.4,15.54-51.06,57.67-94.63,94.68-143.1,32.94-43.12,62.26-86.08,79.17-131.07,20.72-55.11,23.45-114.89,5.66-171.9"/><path class="cls-4" d="M-18.61,1100.49C18.85,1001.16,88.22,898.27,200.49,862c83-26.84,179.61-12.26,254.93,27,61.82,32.24,112.67,75.86,172.61,93.74,75.42,22.51,156.86,2.13,238.36-35,86-39.19,152.69-100.68,240.55-122.29,63.72-15.67,134.21-7.84,199.25,12.24C1403.1,867.58,1459,932.84,1549,952.47c82,17.56,153.92,7.72,201.73-25.07,49.7-34.07,77.62-110.09,50.82-180-19.17-50-44.51-103.3-77.64-153.09-34.48-51.82-55-112.2-42.38-165.31,12.28-51.65,51.77-96.62,88.59-144.33,33.4-43.27,65.13-85.6,84.45-130.8,23.89-55.92,29.16-117.51,13-176.51"/><path class="cls-4" d="M-15.19,1103.88C25.21,1002.61,94.23,897,208.72,859c83.45-27.75,181.34-13.87,256.59,27.13C526.33,919.34,575,965.39,634.73,987c75.14,26.9,160.49,12.11,241.86-24.44,87.39-39.26,152.89-105.67,242.13-130,65.34-17.84,138.14-10.56,205.14,9.26,92.53,27.38,151.5,85.41,238.48,104.7,77.75,17,149,10.42,198.18-21.48,50.43-32.75,77.87-105.23,57.2-171.83a618.25,618.25,0,0,0-72.3-153.76c-32.58-49.81-55-106.47-46.2-158.22,8.87-52.24,45.87-98.62,82.5-145.57,33.87-43.41,68-85.09,89.71-130.53C1898.52,108.4,1906.31,45,1891.88-16"/><path class="cls-4" d="M-11.77,1107.28c43.34-103.23,112-211.49,228.71-251.33,83.91-28.64,183.1-15.51,258.26,27.24,60.22,34.26,106.73,82.88,166.23,108.07,74.81,31.45,164.12,22.11,245.36-13.87,88.77-39.33,153.07-110.66,243.72-137.78,66.93-20,142-13.2,211,6.29,88.13,24.89,150.21,75.65,234.19,94.59,73.53,16.35,144.14,13.1,194.61-17.9,51.17-31.43,78.43-100.32,63.58-163.67-12.24-52.19-35.34-105.23-66.94-154.41-30.71-47.8-55.11-100.7-50-151.14,5.32-52.79,40-100.6,76.41-146.8,34.35-43.56,70.88-84.56,95-130.26,30.29-57.44,40.59-122.73,27.85-185.72"/><path class="cls-4" d="M-8.34,1110.68C37.92,1005.49,106.27,894.57,225.16,853,309.53,823.42,410,835.8,485.08,880.3c59.45,35.26,103.75,86.45,163.05,115.23,74.49,36,167.82,32.27,248.86-3.31C987.2,953,1050.22,876.56,1142.3,846.71c68.51-22.21,145.94-15.73,216.91,3.3,83.75,22.47,148.92,65.89,229.9,84.49,69.32,15.74,139.25,15.77,191.06-14.32s79.27-95.27,69.95-155.51c-8.23-53.23-30.77-106.18-61.59-155.07-28.85-45.77-55.33-94.85-53.86-144,1.59-53.3,34.18-102.53,70.31-148,34.91-43.63,73.77-84,100.26-130,33.49-58.16,46.3-125.34,35.24-190.32"/><path class="cls-4" d="M-4.92,1114.08C44.28,1006.94,112.36,893.52,233.38,850,318.26,819.64,420,831.14,495,877.41c58.67,36.24,100.76,90,159.86,122.4,74.16,40.55,171.42,42.2,252.36,7.25,91.56-39.33,153.37-120.68,246.9-153.26,70.08-24.4,149.8-18.13,222.79.33,79.38,20.08,147.64,56.13,225.61,74.38,65.1,15.14,134.35,18.41,187.5-10.73,52.62-28.85,80.39-90,76.33-147.36-3.82-54.15-26.23-107.11-56.24-155.73-27-43.73-55.65-88.89-57.68-137-2.28-53.7,28.25-104.55,64.22-149.28,35.35-43.79,76.65-83.44,105.52-129.73,36.71-58.85,52-127.95,42.64-194.92"/><path class="cls-4" d="M-1.5,1117.47C50.64,1008.38,118.34,892.16,241.6,847c85.31-31.3,188.47-20.49,263.26,27.58,57.91,37.21,97.77,93.58,156.67,129.55,73.84,45.1,175,52.15,255.87,17.82,92.9-39.45,153.49-125.71,248.48-161,71.63-26.62,153.64-20.4,228.67-2.65s146.35,46.36,221.33,64.27c60.88,14.53,129.44,21,183.94-7.15,53.35-27.59,81.71-84.33,82.71-139.19s-21.72-108-50.89-156.39c-25.16-41.7-56.05-82.81-61.52-129.87-6.27-54,22.33-106.56,58.13-150.51s79.54-82.85,110.8-129.46c39.92-59.53,57.73-130.56,50-199.53"/></g><g class="cls-3"><path class="cls-4" d="M891.36,1523.8c-65.62-36.08-68.7-124.48-30.21-183.93s105.53-98.76,165.12-142.33,116.89-99.56,121.8-168c6.29-87.51-75.1-166.95-64.67-254.15,8.13-68,70.57-119.37,136.19-148.06,37.1-16.23,80-21.92,118.39-35.33,174.17-60.79,329,37.35,437.53-42.48,117.5-86.45,111.51-183.19,89.8-230.86-27.81-61.06-121-196.31-304.38-159-74.51,15.14-151,28-227.25,23.8-114.21-6.29-225.3-86.17-232.59-187.68-5-69.57,35.61-141.93,7.35-207-19-43.71-67.09-74-118.39-84.7s-105.42-4.29-156.13,8.5"/><path class="cls-4" d="M896.48,1523.56c-65.5-39.34-71.43-129.35-32.81-191.26,37.72-60.48,105.38-100.74,166.26-143.42,60.14-42.15,118.15-95.25,126.09-161.31,10.07-84.43-64.13-163.22-53.22-249.95,8.86-69,66.77-122,130.39-154,36.5-18.35,79.8-26.87,119.47-41.27,168.39-61.15,319.65,32.13,426-45.85,114.33-83.9,111.1-178.17,90.72-226.14-25.85-60.83-116-190.72-293.23-158.36-73.12,13.35-148.94,24.17-224.49,19.68-111.26-6.41-219-82.75-228.76-180.59-6.74-67.71,30.13-139.09,2.45-203.51-18.86-44.12-65.06-75.25-114.86-88.19-50.23-13.05-104.12-9.89-155.53.5"/><path class="cls-4" d="M901.6,1523.31c-65.37-42.59-74.15-134.18-35.41-198.59,37-61.48,105.2-102.72,167.4-144.5,60.67-40.74,119.41-90.94,130.37-154.61,13.86-81.36-53.37-159.52-41.76-245.76,9.42-70,63-124.78,124.6-160,35.91-20.5,79.6-31.78,120.54-47.21,162.66-61.28,310.28,26.91,414.44-49.2C1892.93,442.1,1892.46,350.32,1873.4,302c-23.9-60.57-111.13-185.19-282.08-157.66-71.75,11.55-146.91,20.32-221.71,15.56-108.31-6.52-212.8-79.37-224.94-173.5-8.5-65.88,24.65-136.24-2.46-200.07-18.72-44.53-63-76.57-111.32-91.67-49.17-15.38-102.83-15.48-154.93-7.51"/><path class="cls-4" d="M906.73,1523.07c-65.25-45.85-76.87-139-38-205.93,36.25-62.46,105-104.72,168.54-145.58,61.18-39.35,120.67-86.64,134.66-147.92,17.65-78.27-42.49-155.8-30.31-241.56,10.09-71,59.21-127.61,118.81-165.92,35.32-22.71,79.4-36.69,121.61-53.15,157-61.21,300.92,21.68,402.89-52.57,108-78.82,110.25-168.1,92.54-216.72-22-60.3-106.31-179.76-270.93-157-70.43,9.74-144.87,16.29-218.94,11.44-105.35-6.91-206.62-76-221.13-166.41-10.28-64.07,19-133.33-7.35-196.62-18.7-44.89-61-77.93-107.78-95.15-48.15-17.74-101.54-21.08-154.34-15.52"/><path class="cls-4" d="M911.85,1522.82c-65.12-49.1-79.55-143.81-40.63-213.25,35.56-63.43,104.83-106.74,169.7-146.67,61.67-38,121.92-82.33,138.93-141.22,21.44-75.2-31.58-152.08-18.85-237.38,10.76-72,55.42-130.51,113-171.86,34.74-25,79.2-41.59,122.68-59.09,151.38-61,291.55,16.45,391.34-55.94,104.81-76.27,109.81-163,93.45-212-20-60-101.55-174.41-259.78-156.28-69.13,7.93-142.83,12.41-216.16,7.33-102.4-7.1-200.5-72.68-217.31-159.32C1176.15-85.16,1201.73-153.34,1176-216c-18.59-45.29-59-79.33-104.24-98.64-47.12-20.13-100.25-26.67-153.74-23.53"/><path class="cls-4" d="M917,1522.58c-65-52.36-82.22-148.6-43.23-220.59,34.88-64.38,104.61-108.75,170.84-147.75,62.16-36.61,123.3-78,143.22-134.53,25.38-72.06-20.67-148.36-7.4-233.18,11.44-73,51.62-133.48,107.22-177.82,34.15-27.22,79-46.45,123.76-65,145.81-60.54,282.19,11.23,379.79-59.29,101.64-73.74,109.36-158,94.37-207.3-18.16-59.7-96.87-169.18-248.63-155.59-67.88,6.08-140.8,8.51-213.39,3.2-99.45-7.27-194.43-69.37-213.5-152.22-13.93-60.54,8-127.62-17.15-189.72-18.49-45.69-57-80.77-100.7-102.13-46.12-22.55-99-32.26-153.15-31.53"/><path class="cls-4" d="M922.1,1522.34c-64.87-55.62-84.87-153.39-45.84-227.92,34.22-65.33,104.39-110.8,172-148.84,62.63-35.26,124.58-73.66,147.5-127.83,29.19-69-9.74-144.64,4.07-229,12.12-74.07,47.77-136.53,101.42-183.77,33.55-29.55,78.81-51.3,124.83-71,140.3-60,272.83,6,368.24-62.66,98.47-71.19,108.89-152.91,95.28-202.58-16.27-59.39-92.24-164.08-237.48-154.9-66.66,4.21-138.76,4.62-210.61-.92-96.5-7.44-188.43-66.09-209.68-145.13-15.81-58.81,2.47-124.76-22-186.27-18.38-46.1-55.06-82.25-97.17-105.61-45.11-25-97.67-37.87-152.55-39.55"/><path class="cls-4" d="M927.22,1522.09c-64.74-58.87-87.5-158.15-48.44-235.25,33.57-66.25,104.15-112.84,173.12-149.93,63.09-33.92,125.85-69.33,151.79-121.12,33-65.88,1.19-140.92,15.52-224.8,12.82-75.09,43.91-139.63,95.63-189.72,32.93-31.9,78.62-56.13,125.9-76.92,134.83-59.28,263.46.79,356.7-66,95.29-68.66,108.41-147.84,96.19-197.88-14.42-59.06-89.26-175.56-226.33-154.2-64.74,10.09-136.73.74-207.85-5-93.54-7.6-182.5-62.82-205.85-138-17.73-57.11-3-121.91-27-182.83-18.26-46.49-53.06-83.76-93.63-109.09-44.09-27.53-96.38-43.46-152-47.55"/><path class="cls-4" d="M932.35,1521.85c-64.62-62.13-90.12-162.91-51.05-242.58,33-67.18,103.9-114.92,174.26-151,63.54-32.6,127.11-65,156.07-114.43,36.78-62.78,12.15-137.19,27-220.61,13.53-76.09,40-142.77,89.83-195.67,32.3-34.28,78.45-60.92,127-82.85,129.41-58.46,254.1-4.44,345.15-69.38,92.12-66.11,107.91-142.74,97.1-193.16C1885.09,193.43,1813.16,80,1682.49,98.64c-63.69,9.07-134.69-3.14-205.07-9.16-90.59-7.75-176.67-59.57-202-130.95-19.7-55.42-8.53-119.06-31.85-179.38-18.14-46.9-51-85.32-90.09-112.58-43.08-30.07-95.09-49.05-151.36-55.56"/><path class="cls-4" d="M937.47,1521.61c-64.49-65.39-92.72-167.67-53.65-249.92,32.34-68.09,103.64-117,175.4-152.1,64-31.3,128.37-60.68,160.36-107.73,40.56-59.69,23.11-133.47,38.43-216.42,14.25-77.11,36.07-146,84-201.62,31.63-36.69,78.27-65.7,128-88.79,124-57.54,244.73-9.67,333.6-72.74,89-63.58,107.4-137.65,98-188.46-10.78-58.37-79.71-168.5-204-152.82-62.75,7.92-132.66-7-202.3-13.27-87.64-7.9-170.92-56.31-198.22-123.86-21.73-53.74-14-116.22-36.76-175.93-18-47.31-49-86.91-86.55-116.06-42-32.66-93.8-54.65-150.76-63.57"/><path class="cls-4" d="M942.59,1521.36c-64.37-68.64-95.29-172.4-56.25-257.25,31.74-69,103.38-119.09,176.54-153.18,64.42-30,129.63-56.36,164.64-101,44.35-56.59,34.09-129.74,49.89-212.22,15-78.12,32.09-149.19,78.25-207.57,30.93-39.12,78.11-70.45,129.12-94.74,118.69-56.51,235.37-14.89,322-76.1,85.78-61,106.86-132.54,98.93-183.74-9-58-74.83-164.72-192.88-152.13C1651,90,1582.26,72.52,1513.36,66c-84.69-8-165.26-53-194.41-116.76-23.81-52.06-19.5-113.37-41.65-172.48a293.41,293.41,0,0,0-83-119.55c-41-35.27-92.5-60.24-150.16-71.58"/><path class="cls-4" d="M947.72,1521.12c-64.25-71.9-97.86-177.14-58.86-264.58,31.16-69.89,103.1-121.21,177.68-154.27,64.84-28.74,130.88-52,168.92-94.34,48.13-53.5,45.08-126,61.36-208,15.7-79.13,28-152.44,72.45-213.52,30.21-41.57,78-75.17,130.19-100.68,113.39-55.39,226-20.11,310.51-79.47,82.6-58.49,106.3-127.42,99.84-179-7.22-57.65-70-140.88-181.73-151.43C1667,70,1599.49,61,1531.33,54.25c-81.74-8.14-159.71-49.77-190.59-109.67-26-50.38-25-110.53-46.55-169-17.75-48.13-44.92-90.16-79.48-123-39.88-37.92-91.22-65.85-149.57-79.59"/><path class="cls-4" d="M952.84,1520.88C888.72,1445.72,852.45,1339,891.38,1249c30.6-70.78,102.82-123.34,178.83-155.35,65.25-27.48,132.12-47.74,173.2-87.65,51.9-50.41,56.06-122.28,72.81-203.84,16.45-80.13,24-155.7,66.65-219.47,29.46-44,77.84-79.84,131.27-106.62,108.13-54.19,216.64-25.33,299-82.82,79.43-55.95,105.73-122.32,100.75-174.32-5.48-57.29-65.68-136.82-170.58-150.74-60.07-8-126.56-18.58-194-25.64-78.79-8.25-154.25-46.45-186.77-102.57-28.21-48.68-30.46-107.7-51.46-165.6-17.61-48.54-42.81-91.83-75.94-126.51-38.76-40.58-89.93-71.44-149-87.59"/><path class="cls-4" d="M958,1520.63c-64-78.41-102.91-186.58-64.06-279.24,30-71.68,102.53-125.5,180-156.44,65.67-26.24,133.36-43.43,177.48-81,55.67-47.34,67.07-118.55,84.27-199.65s19.88-159,60.86-225.42c28.68-46.5,77.73-84.48,132.35-112.56,102.9-52.92,207.38-30.4,287.4-86.19,76.37-53.25,105.13-117.2,101.67-169.6-3.76-56.93-61.36-133-159.43-150-59-10.28-124.53-22.42-191.2-29.76-75.84-8.35-148.88-43.1-183-95.48-30.52-46.93-35.91-104.87-56.35-162.15-17.47-49-40.7-93.51-72.41-130-37.6-43.27-88.63-77-148.37-95.6"/><path class="cls-4" d="M963.09,1520.39c-63.87-81.67-105.42-191.3-66.68-286.58,29.51-72.56,102.24-127.67,181.12-157.52,66.08-25,134.6-39.12,181.77-74.26,59.43-44.26,78.08-114.81,95.72-195.45,18-82.15,15.74-162.26,55.07-231.37,27.86-49,77.64-89.07,133.42-118.51,97.72-51.57,198-35.62,275.85-89.54,73.2-50.72,104.51-112.1,102.58-164.9-2.06-56.57-57-129.37-148.28-149.35-58-12.71-122.49-26.25-188.43-33.88-72.89-8.44-143.59-39.68-179.13-88.39-32.92-45.12-41.38-102-61.26-158.7-17.32-49.38-38.54-95.2-68.86-133.48-36.42-46-87.35-82.63-147.78-103.61"/><path class="cls-4" d="M968.21,1520.15c-63.74-84.93-107.91-196-69.28-293.91,29-73.45,101.94-129.87,182.26-158.61,66.49-23.8,135.85-34.83,186-67.56,63.2-41.2,89.1-111.08,107.18-191.26,18.75-83.15,11.57-165.55,49.27-237.33,27-51.46,77.6-93.6,134.5-124.44,92.58-50.18,188.64-40.85,264.3-92.91,70-48.18,103.87-107,103.5-160.18-.39-56.21-52.61-126-137.13-148.67-56.95-15.28-120.47-30.06-185.66-38C1533.26-1.23,1464.81-28.89,1427.89-74c-35.39-43.25-46.84-99.2-66.16-155.25-17.17-49.8-36.37-96.9-65.33-137-35.19-48.68-86.05-88.22-147.18-111.62"/><path class="cls-4" d="M973.34,1519.9c-63.62-88.18-110.38-200.71-71.89-301.24,28.46-74.33,101.64-132.07,183.4-159.69,66.89-22.6,137.09-30.53,190.34-60.86,67-38.14,100.13-107.34,118.63-187.08,19.54-84.14,7.36-168.82,43.48-243.27,26.17-53.94,77.58-98.09,135.57-130.38,87.47-48.73,179.17-46.23,252.76-96.28,66.75-45.78,103.2-101.88,104.4-155.47,1.26-55.86-48.12-122.83-126-148-55.82-18-118.43-33.87-182.88-42.12-67-8.57-133.25-32.59-171.5-74.2-37.93-41.27-52.28-96.37-71.05-151.81-17-50.21-34.17-98.59-61.79-140.45-33.93-51.4-84.77-93.82-146.59-119.62"/><path class="cls-4" d="M978.46,1519.66C915,1428.22,865.63,1314.25,904,1211.08c27.95-75.2,101.33-134.3,184.54-160.78,67.3-21.41,138.28-26.33,194.62-54.16,70.66-35.21,111.17-103.59,130.1-182.88,20.32-85.14,3.12-172.1,37.68-249.22,25.28-56.42,77.6-102.5,136.64-136.33,82.41-47.22,169.8-51.45,241.21-99.63,63.58-43.24,102.51-96.79,105.32-150.76C1937,121.8,1890.56,57.43,1819.25,30A810.31,810.31,0,0,0,1639.14-16.2c-64.06-8.62-128.15-28.9-167.68-67.11-40.54-39.19-57.73-93.54-76-148.36-16.84-50.64-31.93-100.29-58.25-143.93-32.64-54.13-83.47-99.42-146-127.64"/><path class="cls-4" d="M983.58,1519.42c-63.36-94.7-115.26-210.11-77.09-315.91,27.45-76.08,101-136.55,185.68-161.87,67.7-20.24,139.54-22,198.91-47.46,74.44-32.14,122.2-99.85,141.55-178.69,21.13-86.13-1.14-175.36,31.89-255.18,24.37-58.89,77.68-106.83,137.71-142.26,77.38-45.68,160.44-56.68,229.66-103,60.41-40.7,101.8-91.7,106.23-146,4.5-55.18-38.73-117.12-103.68-146.58C1781.23-1.72,1720.06-19,1657.11-27.94,1596-36.6,1534-53,1493.24-88c-43.19-37-63.16-90.71-80.85-144.91-16.67-51.06-29.69-102-54.72-147.42-31.31-56.84-82.18-105-145.39-135.64"/><path class="cls-4" d="M988.71,1519.17c-63.25-98-117.69-214.8-79.7-323.24,27-77,100.72-138.82,186.83-163,68.1-19.08,140.79-17.72,203.18-40.77,78.23-29.05,133.26-96.1,153-174.49,22-87.12-5.43-178.62,26.09-261.13,23.45-61.37,77.83-111.08,138.79-148.21C1689.31,364.29,1768,346.48,1835,302c57.24-38.16,101.07-86.63,107.15-141.34S1908.46,46.18,1849.63,14.8C1798-12.74,1737.27-30.4,1675.08-39.68c-58.19-8.69-118-21.2-160-52.93-45.88-34.62-68.6-87.88-85.76-141.46-16.49-51.49-27.41-103.67-51.17-150.9-30-59.56-80.9-110.61-144.81-143.66"/><path class="cls-4" d="M993.83,1518.93c-63.12-101.21-119.92-219.43-82.3-330.57,26.6-77.8,100.41-141.11,188-164,68.5-17.94,142-13.41,207.46-34.07,82-26,144.41-92.33,164.47-170.31,22.87-88.07-9.73-181.86,20.3-267.07,22.5-63.84,78-115.22,139.86-154.15,67.46-42.49,141.71-67.13,206.56-109.72,54.07-35.61,100.32-81.56,108.06-136.62,7.68-54.55-28.4-112-81.38-145.21C1815.1-24,1754.48-41.76,1693-51.43c-55.25-8.69-112.87-17.17-156.22-45.83-48.58-32.11-74-85.07-90.66-138-16.25-51.92-25.12-105.34-47.64-154.38-28.59-62.26-79.6-116.2-144.21-151.66"/><path class="cls-4" d="M999,1518.69c-63-104.47-122.48-224.19-84.9-337.91,26-78.71,100.11-143.41,189.11-165.12,68.91-16.81,143.31-9.11,211.75-27.38,85.81-22.9,155.38-88.59,175.92-166.11,23.61-89.08-14.06-185.1,14.51-273,21.53-66.31,78.37-119.23,140.93-160.09s132.34-72.35,195-113.08c50.89-33.08,99.54-76.51,109-131.92C1959.49,89.81,1927.5,34.61,1880-.45s-108.33-52.64-169-62.72c-52.32-8.69-107.71-13-152.41-38.74-51.26-29.47-79.44-82.23-95.56-134.57s-22.81-107-44.1-157.87c-27.18-64.95-78.31-121.8-143.61-159.66"/></g></g></g></svg>