<?xml version="1.0" encoding="utf-8"?>
<!-- Generator: Adobe Illustrator 24.2.1, SVG Export Plug-In . SVG Version: 6.00 Build 0)  -->
<svg version="1.1" id="Layer_1" xmlns="http://www.w3.org/2000/svg" xmlns:xlink="http://www.w3.org/1999/xlink" x="0px" y="0px"
	 viewBox="0 0 1281.1 924.2" style="enable-background:new 0 0 1281.1 924.2;" xml:space="preserve">
<style type="text/css">
	.st0{fill:#185150;}
	.st1{fill:none;stroke:#FFFFFF;stroke-width:2.4216;stroke-miterlimit:10;}
</style>
<path class="st0" d="M902,236.5C803.1,68.4,603-3.3,424.7,53.4c0.7,7.6,1.6,15.2,2.5,22.7c3.5,28.6,7.8,57.3,8.4,86.2
	c137.1-55.1,297.6-3.2,374.8,128c83.2,141.3,39,322.3-98,409.9c0.1,6.9,0,13.8-0.3,20.6c2.3,0.9,4.5,2,6.5,3.2
	c12,7,19.8,18.4,24.1,31.3c4.7,14.2,9.3,28.5,13,43c0.2-0.1,0.5-0.3,0.7-0.4C951.8,683.1,1016.9,431.7,902,236.5z"/>
<path class="st1" d="M765.4,505.2c0,47.3-38.3,85.7-85.7,85.7c-47.3,0-85.7-38.3-85.7-85.7c0-47.3,38.3-85.7,85.7-85.7
	C727,419.6,765.4,457.9,765.4,505.2z"/>
<path class="st0" d="M772.4,832.6c-38,38-99.7,38-137.7,0s-38-99.7,0-137.7c38-38,99.7-38,137.7,0
	C810.5,732.9,810.5,794.6,772.4,832.6z"/>
</svg>
