<?xml version="1.0" encoding="utf-8"?>
<!-- Generator: Adobe Illustrator 24.2.1, SVG Export Plug-In . SVG Version: 6.00 Build 0)  -->
<svg version="1.1" id="Layer_1" xmlns="http://www.w3.org/2000/svg" xmlns:xlink="http://www.w3.org/1999/xlink" x="0px" y="0px"
	 viewBox="0 0 1024 1093.9" style="enable-background:new 0 0 1024 1093.9;" xml:space="preserve">
<style type="text/css">
	.st0{fill:#061738;}
	.st1{opacity:0.15;fill:#9DBDC2;}
	.st2{opacity:0.1;fill:#9DBDC2;}
	.st3{fill:#9DBDC2;}
	.st4{opacity:0.4;fill:#AFD8EC;}
	.st5{opacity:0.3;fill:#AFD8EC;}
	.st6{opacity:0.2;fill:#AFD8EC;}
	.st7{fill:url(#SVGID_1_);}
	.st8{fill:url(#SVGID_2_);}
	.st9{fill:url(#SVGID_3_);}
	.st10{fill:url(#SVGID_4_);}
	.st11{fill:url(#SVGID_5_);}
	.st12{fill:url(#SVGID_6_);}
	.st13{fill:url(#SVGID_7_);}
	.st14{fill:url(#SVGID_8_);}
	.st15{fill:url(#SVGID_9_);}
	.st16{fill:url(#SVGID_10_);}
	.st17{fill:url(#SVGID_11_);}
	.st18{fill:url(#SVGID_12_);}
	.st19{fill:url(#SVGID_13_);}
	.st20{fill:url(#SVGID_14_);}
	.st21{fill:url(#SVGID_15_);}
	.st22{fill:url(#SVGID_16_);}
	.st23{fill:url(#SVGID_17_);}
	.st24{fill:url(#SVGID_18_);}
	.st25{fill:url(#SVGID_19_);}
	.st26{fill:url(#SVGID_20_);}
	.st27{fill:url(#SVGID_21_);}
	.st28{fill:url(#SVGID_22_);}
	.st29{fill:url(#SVGID_23_);}
	.st30{fill:url(#SVGID_24_);}
	.st31{fill:url(#SVGID_25_);}
	.st32{fill:url(#SVGID_26_);}
	.st33{fill:url(#SVGID_27_);}
	.st34{fill:url(#SVGID_28_);}
	.st35{fill:url(#SVGID_29_);}
	.st36{fill:url(#SVGID_30_);}
</style>
<g>
	<g>
		<g>
			<polygon class="st1" points="612.1,132.9 576.5,157.4 590.6,119.4 			"/>
			<polygon class="st2" points="612.1,132.9 613.8,158.6 576.5,157.4 			"/>
			<polygon class="st1" points="613.8,158.6 589.8,186.1 576.5,157.4 			"/>
			<polygon class="st2" points="576.5,157.4 533.7,142.1 590.6,119.4 			"/>
			<polygon class="st2" points="576.5,157.4 589.8,186.1 559.4,204.3 			"/>
			<polygon class="st1" points="559.4,204.3 520,186.8 576.5,157.4 			"/>
			<polygon class="st2" points="559.4,204.3 529,222.7 520,186.8 			"/>
			<polygon class="st1" points="576.5,157.4 520,186.8 533.7,142.1 			"/>
			<polygon class="st2" points="520,186.8 472,171 533.7,142.1 			"/>
			<polygon class="st1" points="520,186.8 442.7,202.9 472,171 			"/>
			<polygon class="st2" points="520,186.8 488.5,231 442.7,202.9 			"/>
			<polygon class="st1" points="520,186.8 488.5,231 529,222.7 			"/>
			<polygon class="st1" points="529,222.7 492.6,267.5 488.5,231 			"/>
			<polygon class="st1" points="492.6,267.5 466.3,313.7 449.7,265.3 			"/>
			<polygon class="st2" points="492.6,267.5 488.5,231 449.7,265.3 			"/>
			<polygon class="st1" points="488.5,231 449.7,265.3 442.7,202.9 			"/>
			<polygon class="st1" points="449.7,265.3 386.6,259.4 418.2,230.3 			"/>
			<polygon class="st2" points="449.7,265.3 418.2,230.3 442.7,202.9 			"/>
			<polygon class="st2" points="449.7,265.3 419.5,342.6 466.3,313.7 			"/>
			<polygon class="st1" points="449.7,265.3 387.8,303.1 419.5,342.6 			"/>
			<polygon class="st2" points="449.7,265.3 387.8,303.1 386.6,259.4 			"/>
			<polygon class="st1" points="387.8,303.1 325.6,321.9 386.6,259.4 			"/>
			<polygon class="st1" points="387.8,303.1 361.2,381.8 325.6,321.9 			"/>
			<polygon class="st2" points="387.8,303.1 419.5,342.6 361.2,381.8 			"/>
			<polygon class="st1" points="419.5,342.6 464.2,373.2 466.3,313.7 			"/>
			<polygon class="st1" points="466.3,313.7 509,331.8 509.1,288.5 			"/>
			<polygon class="st2" points="509,331.8 464.2,373.2 466.3,313.7 			"/>
			<polygon class="st2" points="509,331.8 509.1,288.5 539.6,291.1 			"/>
			<polygon class="st1" points="509,331.8 562.5,315.4 539.6,291.1 			"/>
			<polygon class="st2" points="509,331.8 558.3,341 562.5,315.4 			"/>
			<polygon class="st1" points="509,331.8 537.3,384.2 558.3,341 			"/>
			<polygon class="st2" points="537.3,384.2 501.8,417.1 509,331.8 			"/>
			<polygon class="st1" points="501.8,417.1 464.2,373.2 509,331.8 			"/>
			<polygon class="st2" points="464.2,373.2 420.1,415.7 419.5,342.6 			"/>
			<polygon class="st1" points="464.2,373.2 453,462.5 420.1,415.7 			"/>
			<polygon class="st2" points="464.2,373.2 501.8,417.1 453,462.5 			"/>
			<polygon class="st1" points="420.1,415.7 361.2,381.8 419.5,342.6 			"/>
			<polygon class="st2" points="558.4,388.6 542.9,424.9 537.3,384.2 			"/>
			<polygon class="st1" points="542.9,424.9 501.8,417.1 537.3,384.2 			"/>
			<polygon class="st1" points="542.9,424.9 580.2,417 558.4,388.6 			"/>
			<polygon class="st2" points="542.9,424.9 578.9,437.5 580.2,417 			"/>
			<polygon class="st2" points="578.9,437.5 553.1,465.9 517.8,459.2 			"/>
			<polygon class="st1" points="578.9,437.5 517.8,459.2 542.9,424.9 			"/>
			<polygon class="st2" points="517.8,459.2 501.8,417.1 542.9,424.9 			"/>
			<polygon class="st1" points="517.8,459.2 453,462.5 501.8,417.1 			"/>
			<polygon class="st1" points="558.1,474.8 517.6,514.8 553.1,465.9 			"/>
			<polygon class="st1" points="517.6,514.8 517.8,459.2 553.1,465.9 			"/>
			<polygon class="st1" points="558.1,474.8 574,502.4 573.4,462.7 			"/>
			<polygon class="st2" points="574,502.4 517.6,514.8 558.1,474.8 			"/>
			<polygon class="st2" points="574,502.4 595.4,468.9 573.4,462.7 			"/>
			<polygon class="st1" points="574,502.4 610.3,495.4 595.4,468.9 			"/>
			<polygon class="st1" points="574,502.4 610.3,495.4 600.1,537.1 			"/>
			<polygon class="st1" points="600.1,537.1 573.9,581.9 551.2,542 			"/>
			<polygon class="st2" points="600.1,537.1 551.2,542 574,502.4 			"/>
			<polygon class="st1" points="551.2,542 517.6,514.8 574,502.4 			"/>
			<polygon class="st2" points="517.6,514.8 474.8,519.4 517.8,459.2 			"/>
			<polygon class="st1" points="474.8,519.4 453,462.5 517.8,459.2 			"/>
			<polygon class="st1" points="474.8,519.4 486.6,577 517.6,514.8 			"/>
			<polygon class="st2" points="486.6,577 551.2,542 517.6,514.8 			"/>
			<polygon class="st1" points="486.6,577 525.3,613.1 551.2,542 			"/>
			<polygon class="st2" points="525.3,613.1 573.9,581.9 551.2,542 			"/>
			<polygon class="st1" points="573.9,581.9 531.1,649 525.3,613.1 			"/>
			<polygon class="st2" points="361.2,381.8 323.4,408.6 325.6,321.9 			"/>
			<polygon class="st1" points="323.4,408.6 282.2,397.6 325.6,321.9 			"/>
			<polygon class="st2" points="361.2,381.8 374.5,443.9 323.4,408.6 			"/>
			<polygon class="st1" points="361.2,381.8 374.5,443.9 420.1,415.7 			"/>
			<polygon class="st2" points="323.4,408.6 300.6,464.4 282.2,397.6 			"/>
			<polygon class="st1" points="300.6,464.4 239.6,464.5 282.2,397.6 			"/>
			<polygon class="st1" points="239.6,464.5 247.1,525.7 300.6,464.4 			"/>
			<polygon class="st2" points="239.6,464.5 194.3,520.2 247.1,525.7 			"/>
			<polygon class="st1" points="300.6,464.4 374.5,443.9 323.4,408.6 			"/>
			<polygon class="st1" points="374.5,443.9 453,462.5 420.1,415.7 			"/>
			<polygon class="st1" points="374.5,443.9 376.9,509.5 430.5,490.2 			"/>
			<polygon class="st2" points="374.5,443.9 453,462.5 430.5,490.2 			"/>
			<polygon class="st2" points="374.5,443.9 376.9,509.5 332.5,506.9 			"/>
			<polygon class="st1" points="374.5,443.9 332.5,506.9 300.6,464.4 			"/>
			<polygon class="st2" points="332.5,506.9 247.1,525.7 300.6,464.4 			"/>
			<polygon class="st2" points="430.5,490.2 474.8,519.4 453,462.5 			"/>
			<polygon class="st1" points="430.5,490.2 428.6,548.7 474.8,519.4 			"/>
			<polygon class="st1" points="430.5,490.2 428.6,548.7 376.9,509.5 			"/>
			<polygon class="st2" points="428.6,548.7 486.6,577 474.8,519.4 			"/>
			<polygon class="st2" points="428.6,548.7 366.2,575.9 376.9,509.5 			"/>
			<polygon class="st1" points="428.6,548.7 428.9,606.7 486.6,577 			"/>
			<polygon class="st1" points="428.6,548.7 428.9,606.7 366.2,575.9 			"/>
			<polygon class="st1" points="486.6,577 473.5,650.3 525.3,613.1 			"/>
			<polygon class="st2" points="473.5,650.3 428.9,606.7 486.6,577 			"/>
			<polygon class="st2" points="473.5,650.3 531.1,649 525.3,613.1 			"/>
			<polygon class="st1" points="473.5,650.3 495.4,704.2 531.1,649 			"/>
			<polygon class="st1" points="495.4,704.2 442.1,756.2 438.3,706 			"/>
			<polygon class="st2" points="495.4,704.2 438.3,706 473.5,650.3 			"/>
			<polygon class="st1" points="332.5,506.9 366.2,575.9 376.9,509.5 			"/>
			<polygon class="st1" points="332.5,506.9 297,593.5 366.2,575.9 			"/>
			<polygon class="st2" points="332.5,506.9 297,593.5 247.1,525.7 			"/>
			<polygon class="st1" points="182.5,567.5 247.1,525.7 194.3,520.2 			"/>
			<polygon class="st1" points="182.5,567.5 222.7,607.9 157,621.3 			"/>
			<polygon class="st2" points="182.5,567.5 247.1,525.7 222.7,607.9 			"/>
			<polygon class="st1" points="222.7,607.9 297,593.5 247.1,525.7 			"/>
			<polygon class="st2" points="366.2,575.9 372.9,644.5 428.9,606.7 			"/>
			<polygon class="st1" points="366.2,575.9 372.9,644.5 312.9,657.2 			"/>
			<polygon class="st2" points="366.2,575.9 312.9,657.2 297,593.5 			"/>
			<polygon class="st1" points="372.9,644.5 420,669.6 428.9,606.7 			"/>
			<polygon class="st1" points="420,669.6 473.5,650.3 428.9,606.7 			"/>
			<polygon class="st1" points="420,669.6 438.3,706 473.5,650.3 			"/>
			<polygon class="st1" points="312.9,657.2 247.9,661.8 297,593.5 			"/>
			<polygon class="st2" points="247.9,661.8 222.7,607.9 297,593.5 			"/>
			<polygon class="st1" points="442.1,756.2 398.2,782.4 370.6,725.9 			"/>
			<polygon class="st2" points="442.1,756.2 370.6,725.9 438.3,706 			"/>
			<polygon class="st1" points="438.3,706 420,669.6 370.6,725.9 			"/>
			<polygon class="st2" points="420,669.6 370.6,725.9 372.9,644.5 			"/>
			<polygon class="st1" points="372.9,644.5 324.8,704 312.9,657.2 			"/>
			<polygon class="st1" points="324.8,704 370.6,725.9 372.9,644.5 			"/>
			<polygon class="st2" points="324.8,704 307.1,774.8 370.6,725.9 			"/>
			<polygon class="st2" points="324.8,704 261.2,728 312.9,657.2 			"/>
			<polygon class="st1" points="324.8,704 261.2,728 307.1,774.8 			"/>
			<polygon class="st1" points="261.2,728 247.9,661.8 312.9,657.2 			"/>
			<polygon class="st1" points="398.2,782.4 307.1,774.8 370.6,725.9 			"/>
			<polygon class="st2" points="398.2,782.4 357.5,806.8 307.1,774.8 			"/>
			<polygon class="st1" points="357.5,806.8 320.4,845 307.1,774.8 			"/>
			<polygon class="st1" points="320.4,845 287.8,881.2 271,834.2 			"/>
			<polygon class="st2" points="320.4,845 271,834.2 307.1,774.8 			"/>
			<polygon class="st2" points="271,834.2 219,825.9 248.1,774.8 			"/>
			<polygon class="st1" points="219,825.9 191.4,794.4 248.1,774.8 			"/>
			<polygon class="st2" points="191.4,794.4 145,813.4 139.5,756.1 			"/>
			<polygon class="st1" points="191.4,794.4 204.9,733.6 139.5,756.1 			"/>
			<polygon class="st2" points="139.5,756.1 99.4,752.6 129.6,696.8 			"/>
			<polygon class="st1" points="99.4,752.6 82.7,717.6 129.6,696.8 			"/>
			<polygon class="st2" points="82.7,717.6 51.2,711.2 110.3,664.2 			"/>
			<polygon class="st1" points="82.7,717.6 129.6,696.8 110.3,664.2 			"/>
			<polygon class="st2" points="222.7,607.9 174,668.6 157,621.3 			"/>
			<polygon class="st1" points="174,668.6 110.3,664.2 157,621.3 			"/>
			<polygon class="st2" points="174,668.6 129.6,696.8 110.3,664.2 			"/>
			<polygon class="st1" points="174,668.6 247.9,661.8 222.7,607.9 			"/>
			<polygon class="st1" points="174,668.6 174.4,714.4 129.6,696.8 			"/>
			<polygon class="st1" points="174.4,714.4 139.5,756.1 129.6,696.8 			"/>
			<polygon class="st2" points="174.4,714.4 139.5,756.1 204.9,733.6 			"/>
			<polygon class="st2" points="174.4,714.4 247.9,661.8 174,668.6 			"/>
			<polygon class="st1" points="174.4,714.4 204.9,733.6 247.9,661.8 			"/>
			<polygon class="st2" points="204.9,733.6 261.2,728 247.9,661.8 			"/>
			<polygon class="st2" points="204.9,733.6 248.1,774.8 191.4,794.4 			"/>
			<polygon class="st1" points="204.9,733.6 261.2,728 248.1,774.8 			"/>
			<polygon class="st2" points="248.1,774.8 261.2,728 307.1,774.8 			"/>
			<polygon class="st1" points="248.1,774.8 271,834.2 307.1,774.8 			"/>
			<polygon class="st2" points="281.4,891.7 260.2,913.6 255.8,889.6 			"/>
			<polygon class="st1" points="264.8,847.8 223.1,896.9 215.9,843.2 			"/>
			<polygon class="st2" points="185.8,814.1 203.2,833.2 180.7,839.8 			"/>
			<polygon class="st1" points="164.9,826.1 123.5,834.3 131.1,872.1 			"/>
			<polygon class="st2" points="120.1,783.5 125.4,815.7 91.8,822.8 			"/>
			<polygon class="st1" points="89.1,775.1 106.8,776.3 94,792.3 			"/>
			<polygon class="st2" points="74.1,728.6 87.6,755.8 51.9,767.3 			"/>
			<polygon class="st1" points="43.3,719.3 25.8,734.1 47.7,734.3 			"/>
			<polygon class="st2" points="186.5,859.7 164.6,863.5 177.6,884.6 			"/>
			<polygon class="st1" points="239.6,464.5 216.9,453 194.3,520.2 			"/>
			<polygon class="st1" points="239.6,464.5 245.5,398.6 216.9,453 			"/>
			<polygon class="st2" points="239.6,464.5 245.5,398.6 282.2,397.6 			"/>
		</g>
		<g>
			<path class="st3" d="M576.3,158c-0.1,0-0.2-0.1-0.2-0.1c-0.2-0.2-0.3-0.4-0.2-0.7l14.1-38c0.1-0.2,0.2-0.3,0.4-0.4
				c0.2-0.1,0.4,0,0.5,0.1l21.5,13.5c0.2,0.1,0.3,0.3,0.3,0.5c0,0.2-0.1,0.4-0.3,0.5l-35.7,24.5C576.7,158,576.5,158,576.3,158z
				 M590.9,120.3l-13.2,35.5l33.3-22.9L590.9,120.3z"/>
			<path class="st3" d="M576.3,158c-0.2-0.1-0.4-0.2-0.4-0.4c-0.1-0.3,0-0.5,0.2-0.7l35.7-24.5c0.2-0.1,0.4-0.1,0.6,0
				c0.2,0.1,0.3,0.3,0.3,0.5l1.7,25.8c0,0.2-0.1,0.3-0.2,0.5c-0.1,0.1-0.3,0.2-0.5,0.2l-37.4-1.2C576.4,158,576.4,158,576.3,158z
				 M611.6,134l-33.2,22.9l34.8,1.2L611.6,134z"/>
			<path class="st3" d="M589.6,186.7c-0.2,0-0.3-0.2-0.4-0.3l-13.3-28.7c-0.1-0.2-0.1-0.4,0-0.6c0.1-0.2,0.3-0.3,0.5-0.3l37.4,1.2
				c0.3,0.1,0.4,0.2,0.5,0.4c0.1,0.2,0.1,0.5-0.1,0.6l-24.1,27.5C590.1,186.7,589.9,186.8,589.6,186.7
				C589.7,186.7,589.6,186.7,589.6,186.7z M577.5,158l12.5,27l22.6-25.8L577.5,158z"/>
			<path class="st3" d="M576.3,158C576.3,158,576.3,158,576.3,158l-42.9-15.3c-0.2-0.1-0.4-0.3-0.4-0.6c0-0.3,0.1-0.5,0.4-0.6
				l56.9-22.7c0.2-0.1,0.5,0,0.7,0.1c0.2,0.2,0.2,0.4,0.1,0.7l-14.1,38C576.9,157.9,576.6,158.1,576.3,158z M535.4,142.1l40.7,14.5
				l13.4-36.1L535.4,142.1z"/>
			<path class="st3" d="M559.2,204.9c-0.1,0-0.2-0.1-0.2-0.1c-0.2-0.2-0.3-0.4-0.2-0.7l17.1-46.9c0.1-0.2,0.3-0.4,0.5-0.4
				c0.3,0,0.5,0.1,0.6,0.4l13.3,28.7c0.1,0.3,0,0.6-0.2,0.8l-30.4,18.2C559.5,204.9,559.4,205,559.2,204.9z M576.5,159l-16,43.9
				l28.5-17L576.5,159z"/>
			<path class="st3" d="M559.2,204.9c0,0-0.1,0-0.1,0l-39.3-17.6c-0.2-0.1-0.4-0.3-0.4-0.5c0-0.2,0.1-0.4,0.3-0.6l56.4-29.4
				c0.2-0.1,0.5-0.1,0.7,0.1c0.2,0.2,0.3,0.4,0.2,0.7l-17.1,46.9c-0.1,0.2-0.2,0.3-0.3,0.4C559.5,204.9,559.3,204.9,559.2,204.9z
				 M521.4,186.7l37.6,16.8l16.3-44.8L521.4,186.7z"/>
			<path class="st3" d="M528.8,223.3C528.8,223.2,528.8,223.2,528.8,223.3c-0.3-0.1-0.4-0.3-0.5-0.4l-8.9-35.9
				c-0.1-0.2,0-0.5,0.2-0.6c0.2-0.1,0.4-0.1,0.6-0.1l39.3,17.6c0.2,0.1,0.4,0.3,0.4,0.5c0,0.2-0.1,0.4-0.3,0.6l-30.4,18.3
				C529.2,223.3,529,223.3,528.8,223.3z M520.9,187.8l8.4,33.9l28.7-17.3L520.9,187.8z"/>
			<path class="st3" d="M519.9,187.4c-0.1,0-0.2-0.1-0.2-0.1c-0.2-0.2-0.3-0.4-0.2-0.6l13.6-44.6c0.1-0.2,0.2-0.3,0.3-0.4
				c0.1-0.1,0.3-0.1,0.5,0l42.8,15.2c0.2,0.1,0.4,0.3,0.4,0.5c0,0.2-0.1,0.5-0.3,0.6l-56.4,29.4C520.2,187.4,520,187.4,519.9,187.4z
				 M534,142.9l-13,42.6l53.9-28L534,142.9z"/>
			<path class="st3" d="M519.9,187.4C519.9,187.4,519.9,187.3,519.9,187.4l-48.1-15.8c-0.2-0.1-0.4-0.3-0.4-0.5
				c0-0.3,0.1-0.5,0.3-0.6l61.6-28.9c0.2-0.1,0.5-0.1,0.7,0.1c0.2,0.2,0.3,0.4,0.2,0.6l-13.6,44.6c-0.1,0.2-0.2,0.3-0.3,0.4
				C520.2,187.4,520,187.4,519.9,187.4z M473.7,170.9l45.9,15.1l13-42.7L473.7,170.9z"/>
			<path class="st3" d="M442.6,203.5c-0.2,0-0.3-0.1-0.4-0.3c-0.1-0.2-0.1-0.5,0.1-0.7l29.3-31.9c0.2-0.2,0.5-0.3,0.6-0.2l48,15.7
				c0.3,0.1,0.4,0.3,0.4,0.6c0,0.3-0.2,0.5-0.5,0.6l-77.3,16.2C442.8,203.5,442.7,203.5,442.6,203.5z M472.2,171.7l-27.7,30.2
				l73.2-15.3L472.2,171.7z"/>
			<path class="st3" d="M488.4,231.6c-0.1,0-0.1,0-0.2-0.1l-45.8-28.1c-0.2-0.1-0.3-0.4-0.3-0.6c0-0.3,0.2-0.4,0.5-0.5l77.3-16.2
				c0.2,0,0.5,0.1,0.6,0.3c0.1,0.2,0.1,0.5,0,0.7l-31.5,44.3C488.9,231.6,488.7,231.7,488.4,231.6z M444.4,203.2l44,27l30.2-42.5
				L444.4,203.2z"/>
			<path class="st3" d="M488.4,231.6c-0.2,0-0.3-0.1-0.4-0.3c-0.1-0.2-0.1-0.5,0-0.7l31.5-44.3c0.1-0.2,0.4-0.3,0.6-0.2c0,0,0,0,0,0
				c0.2,0.1,0.4,0.2,0.5,0.4l8.9,35.9c0,0.2,0,0.3-0.1,0.5c-0.1,0.1-0.2,0.2-0.4,0.3l-40.4,8.4C488.6,231.6,488.5,231.6,488.4,231.6
				z M519.8,188.2L490,230.1l38.3-7.9L519.8,188.2z"/>
			<path class="st3" d="M492.5,268.1C492.5,268.1,492.4,268.1,492.5,268.1c-0.3-0.1-0.4-0.3-0.5-0.5l-4.1-36.5
				c0-0.3,0.2-0.6,0.5-0.7l40.4-8.4c0.3,0,0.5,0.1,0.7,0.3c0.1,0.2,0.1,0.5,0,0.7l-36.4,44.9C492.9,268.1,492.7,268.2,492.5,268.1z
				 M489.2,231.5l3.8,34.5l34.4-42.4L489.2,231.5z"/>
			<path class="st3" d="M466.1,314.3c-0.2,0-0.4-0.2-0.4-0.4l-16.6-48.4c-0.1-0.2,0-0.4,0.1-0.6c0.1-0.2,0.3-0.3,0.5-0.2l42.9,2.2
				c0.2,0,0.4,0.1,0.5,0.3c0.1,0.2,0.1,0.4,0,0.6L466.8,314C466.7,314.2,466.5,314.4,466.1,314.3
				C466.2,314.3,466.2,314.3,466.1,314.3z M450.6,266l15.9,46.3l25.2-44.1L450.6,266z"/>
			<path class="st3" d="M449.5,265.9c-0.2,0-0.4-0.2-0.4-0.4c-0.1-0.2,0-0.5,0.2-0.7l38.9-34.3c0.2-0.2,0.4-0.2,0.6-0.1
				c0.2,0.1,0.4,0.3,0.4,0.5l4.1,36.5c0,0.2,0,0.4-0.2,0.5c-0.1,0.1-0.3,0.2-0.5,0.2l-42.9-2.2C449.6,265.9,449.6,265.9,449.5,265.9
				z M488.1,232.3l-36.8,32.5l40.7,2.1L488.1,232.3z"/>
			<path class="st3" d="M449.5,265.9C449.5,265.9,449.5,265.9,449.5,265.9c-0.3-0.1-0.4-0.3-0.5-0.5l-7-62.4c0-0.2,0.1-0.5,0.3-0.6
				c0.2-0.1,0.5-0.1,0.7,0l45.8,28.1c0.2,0.1,0.3,0.3,0.3,0.5c0,0.2-0.1,0.4-0.2,0.5l-38.9,34.3
				C449.9,265.9,449.7,265.9,449.5,265.9z M443.5,204.1l6.7,60l37.4-32.9L443.5,204.1z"/>
			<path class="st3" d="M386.5,260c-0.2,0-0.4-0.2-0.4-0.4c-0.1-0.2,0-0.5,0.2-0.6l31.6-29c0.1-0.1,0.3-0.2,0.4-0.2
				c0.2,0,0.3,0.1,0.4,0.2l31.5,35c0.2,0.2,0.2,0.5,0.1,0.7c-0.1,0.2-0.4,0.4-0.6,0.3L386.5,260C386.5,260,386.5,260,386.5,260z
				 M418.2,231.2l-30.1,27.7l60.1,5.7L418.2,231.2z"/>
			<path class="st3" d="M449.5,265.9c-0.1,0-0.2-0.1-0.3-0.2l-31.5-35c-0.2-0.2-0.2-0.6,0-0.8l24.5-27.4c0.2-0.2,0.5-0.3,0.6-0.2
				c0.2,0.1,0.4,0.3,0.4,0.5l7,62.4c0,0.3-0.1,0.5-0.4,0.6C449.8,265.9,449.7,265.9,449.5,265.9z M419,230.3l29.8,33.1l-6.6-59.1
				L419,230.3z"/>
			<path class="st3" d="M419.3,343.2c-0.1,0-0.2-0.1-0.3-0.1c-0.2-0.2-0.3-0.4-0.2-0.7l30.2-77.3c0.1-0.2,0.3-0.4,0.6-0.4
				c0.2,0,0.5,0.2,0.6,0.4l16.6,48.4c0.1,0.3,0,0.6-0.3,0.7l-46.8,28.9C419.7,343.2,419.5,343.2,419.3,343.2z M449.7,267.1l-28.9,74
				l44.8-27.7L449.7,267.1z"/>
			<path class="st3" d="M419.3,343.2c-0.1,0-0.3-0.1-0.3-0.2l-31.6-39.5c-0.1-0.1-0.2-0.3-0.1-0.5c0-0.2,0.1-0.3,0.3-0.4l61.8-37.8
				c0.2-0.1,0.5-0.1,0.7,0.1c0.2,0.2,0.3,0.4,0.2,0.7L420,342.8c-0.1,0.2-0.3,0.4-0.5,0.4C419.5,343.2,419.4,343.2,419.3,343.2z
				 M388.8,303.3l30.5,38.1l29.2-74.6L388.8,303.3z"/>
			<path class="st3" d="M387.7,303.7c-0.1,0-0.1,0-0.1-0.1c-0.2-0.1-0.3-0.3-0.3-0.5l-1.2-43.8c0-0.2,0.1-0.3,0.2-0.5
				c0.1-0.1,0.3-0.2,0.5-0.2l63.1,5.9c0.2-0.1,0.5,0.2,0.5,0.5c0.1,0.3,0,0.5-0.3,0.7l-61.8,37.8C388,303.7,387.9,303.8,387.7,303.7
				z M387.3,260l1.2,42l59.4-36.3L387.3,260z"/>
			<path class="st3" d="M325.5,322.5c-0.2,0-0.3-0.1-0.4-0.3c-0.1-0.2-0.1-0.5,0.1-0.8l61-62.6c0.2-0.2,0.5-0.2,0.7-0.1
				c0.2,0.1,0.4,0.3,0.4,0.6l1.2,43.8c0,0.3-0.2,0.5-0.4,0.6l-62.2,18.8C325.7,322.6,325.6,322.6,325.5,322.5z M386.1,260.8
				l-58.3,59.8l59.5-18L386.1,260.8z"/>
			<path class="st3" d="M361.1,382.4c-0.2,0-0.3-0.1-0.4-0.3l-35.6-59.8c-0.1-0.2-0.1-0.4,0-0.5c0.1-0.2,0.2-0.3,0.4-0.4l62.2-18.8
				c0.2,0,0.5,0,0.6,0.2c0.2,0.2,0.2,0.4,0.1,0.6L361.8,382c-0.1,0.2-0.3,0.4-0.5,0.4C361.2,382.4,361.1,382.4,361.1,382.4z
				 M326.6,322.3l34.5,58l25.8-76.3L326.6,322.3z"/>
			<path class="st3" d="M361.1,382.4c-0.1,0-0.2-0.1-0.2-0.1c-0.2-0.2-0.3-0.4-0.2-0.7l26.6-78.7c0.1-0.2,0.3-0.4,0.5-0.4
				c0.2,0,0.5,0,0.6,0.2l31.6,39.5c0.1,0.1,0.2,0.3,0.1,0.5c0,0.2-0.1,0.3-0.3,0.4l-58.3,39.2C361.4,382.4,361.2,382.4,361.1,382.4z
				 M388.1,304.4l-25.7,75.9l56.2-37.8L388.1,304.4z"/>
			<path class="st3" d="M464.1,373.8c-0.1,0-0.1,0-0.2-0.1l-44.7-30.6c-0.2-0.1-0.3-0.3-0.3-0.5c0-0.2,0.1-0.4,0.3-0.5l46.8-28.9
				c0.2-0.1,0.5-0.1,0.6,0c0.2,0.1,0.3,0.3,0.3,0.5l-2.1,59.5c0,0.2-0.1,0.4-0.3,0.5C464.4,373.8,464.2,373.8,464.1,373.8z
				 M420.6,342.6l43,29.4l2-57.2L420.6,342.6z"/>
			<path class="st3" d="M508.9,332.4c0,0-0.1,0-0.1,0L466,314.3c-0.2-0.1-0.4-0.3-0.4-0.5c0-0.2,0.1-0.5,0.3-0.6l42.8-25.2
				c0.2-0.1,0.5-0.1,0.6,0c0.2,0.1,0.3,0.3,0.3,0.5l-0.1,43.3c0,0.2-0.1,0.4-0.3,0.5C509.2,332.4,509,332.5,508.9,332.4z
				 M467.7,313.6l40.7,17.3l0.1-41.3L467.7,313.6z"/>
			<path class="st3" d="M464.1,373.8c0,0-0.1,0-0.1,0c-0.2-0.1-0.4-0.3-0.4-0.6l2.1-59.5c0-0.2,0.1-0.4,0.3-0.5
				c0.2-0.1,0.4-0.1,0.6,0l42.7,18.1c0.2,0.1,0.3,0.3,0.4,0.5c0,0.2,0,0.4-0.2,0.6l-44.8,41.4C464.5,373.8,464.3,373.8,464.1,373.8z
				 M466.9,314.6l-2,57.1l43-39.7L466.9,314.6z"/>
			<path class="st3" d="M508.9,332.4C508.8,332.4,508.8,332.4,508.9,332.4c-0.3-0.1-0.5-0.3-0.5-0.6l0.1-43.3c0-0.2,0.1-0.3,0.2-0.5
				c0.1-0.1,0.3-0.2,0.5-0.2l30.5,2.6c0.2,0,0.4,0.2,0.5,0.4c0.1,0.2,0.1,0.4-0.1,0.6l-30.6,40.8
				C509.3,332.4,509.1,332.5,508.9,332.4z M509.7,289.2l-0.1,40.8l28.8-38.4L509.7,289.2z"/>
			<path class="st3" d="M508.9,332.4c-0.1,0-0.3-0.1-0.4-0.2c-0.2-0.2-0.2-0.5,0-0.7l30.6-40.8c0.1-0.1,0.3-0.2,0.5-0.2
				c0.2,0,0.3,0.1,0.5,0.2l23,24.3c0.1,0.2,0.2,0.4,0.1,0.6c-0.1,0.2-0.2,0.4-0.4,0.4l-53.5,16.5C509.1,332.5,509,332.5,508.9,332.4
				z M539.6,292l-29,38.7l50.8-15.6L539.6,292z"/>
			<path class="st3" d="M508.9,332.4c-0.3-0.1-0.5-0.3-0.5-0.6c0-0.3,0.2-0.5,0.4-0.6l53.5-16.5c0.2-0.1,0.4,0,0.6,0.1
				c0.2,0.1,0.2,0.4,0.2,0.6l-4.2,25.6c0,0.2-0.1,0.3-0.3,0.4c-0.1,0.1-0.3,0.1-0.5,0.1L508.9,332.4
				C508.9,332.4,508.9,332.4,508.9,332.4z M561.8,316.2l-50.2,15.5l46.3,8.6L561.8,316.2z"/>
			<path class="st3" d="M537.2,384.8c-0.2,0-0.3-0.2-0.4-0.3l-28.3-52.3c-0.1-0.2-0.1-0.5,0-0.7c0.1-0.2,0.4-0.3,0.6-0.2l49.3,9.1
				c0.1,0.1,0.3,0.2,0.4,0.3c0.1,0.2,0.1,0.4,0,0.5l-21,43.2c-0.1,0.2-0.3,0.3-0.5,0.3C537.3,384.8,537.2,384.8,537.2,384.8z
				 M510.1,332.7l27.1,50.2l20.2-41.4L510.1,332.7z"/>
			<path class="st3" d="M501.6,417.7c0,0-0.1,0-0.1,0c-0.2-0.1-0.4-0.3-0.3-0.6l7.2-85.3c0-0.3,0.2-0.5,0.5-0.5
				c0.2-0.1,0.5,0.1,0.7,0.3l28.3,52.3c0.1,0.2,0.1,0.6-0.1,0.7l-35.5,32.9C502.1,417.7,501.8,417.7,501.6,417.7z M509.4,333.9
				l-6.9,81.6l34-31.5L509.4,333.9z"/>
			<path class="st3" d="M501.6,417.7c-0.1,0-0.2-0.1-0.3-0.2l-37.6-43.9c-0.2-0.3-0.2-0.6,0-0.9l44.8-41.4c0.2-0.2,0.4-0.2,0.7-0.1
				c0.2,0.1,0.4,0.3,0.3,0.6l-7.2,85.3c0,0.2-0.2,0.5-0.4,0.5C501.9,417.7,501.8,417.7,501.6,417.7z M465.1,373.3l36.2,42.3l7-82.2
				L465.1,373.3z"/>
			<path class="st3" d="M420,416.3C420,416.3,419.9,416.3,420,416.3c-0.3-0.1-0.5-0.4-0.5-0.6l-0.7-73.1c0-0.2,0.1-0.4,0.3-0.5
				c0.2-0.1,0.4-0.1,0.6,0l44.7,30.6c0.2,0.1,0.3,0.3,0.3,0.4c0,0.2-0.1,0.4-0.2,0.5l-44.1,42.5C420.4,416.3,420.2,416.4,420,416.3z
				 M420.1,343.8l0.6,70.5l42.5-41L420.1,343.8z"/>
			<path class="st3" d="M452.9,463.1c-0.1,0-0.3-0.1-0.4-0.2l-32.9-46.8c-0.2-0.2-0.1-0.6,0.1-0.8l44.1-42.5
				c0.2-0.2,0.5-0.2,0.7-0.1c0.2,0.1,0.4,0.4,0.3,0.6l-11.2,89.3c0,0.3-0.2,0.5-0.5,0.5C453.1,463.1,453,463.1,452.9,463.1z
				 M420.9,415.8l31.7,45.1l10.8-86L420.9,415.8z"/>
			<path class="st3" d="M452.9,463.1c0,0-0.1,0-0.1,0c-0.2-0.1-0.4-0.4-0.3-0.6l11.2-89.3c0-0.2,0.2-0.4,0.4-0.5
				c0.2-0.1,0.5,0,0.6,0.2l37.6,43.9c0.2,0.3,0.2,0.6,0,0.8L453.5,463C453.3,463.1,453.1,463.2,452.9,463.1z M464.6,374.7
				l-10.8,86.3l47.1-43.9L464.6,374.7z"/>
			<path class="st3" d="M420,416.3c-0.1,0-0.1,0-0.2-0.1l-58.9-34c-0.2-0.1-0.3-0.3-0.3-0.5c0-0.2,0.1-0.4,0.3-0.5l58.3-39.2
				c0.2-0.1,0.5-0.1,0.6,0c0.2,0.1,0.3,0.3,0.3,0.5l0.7,73.1c0,0.2-0.1,0.4-0.3,0.5C420.3,416.4,420.2,416.4,420,416.3z
				 M362.4,381.7l57.1,32.9l-0.6-70.9L362.4,381.7z"/>
			<path class="st3" d="M542.8,425.5c-0.2-0.1-0.4-0.3-0.5-0.5l-5.6-40.7c0-0.2,0-0.4,0.2-0.5c0.1-0.1,0.3-0.2,0.5-0.2l21.1,4.4
				c0.2,0.1,0.3,0.2,0.4,0.3c0.1,0.2,0.1,0.4,0,0.5l-15.5,36.3C543.4,425.3,543.1,425.5,542.8,425.5
				C542.8,425.5,542.8,425.5,542.8,425.5z M538,385l5.2,37.6l14.3-33.5L538,385z"/>
			<path class="st3" d="M501.6,417.7c-0.2-0.1-0.4-0.2-0.4-0.4c-0.1-0.2,0-0.5,0.2-0.6l35.5-32.9c0.2-0.1,0.4-0.2,0.6-0.1
				c0.2,0.1,0.4,0.3,0.4,0.5l5.6,40.7c0,0.2,0,0.4-0.2,0.5c-0.1,0.1-0.3,0.2-0.5,0.2L501.6,417.7
				C501.7,417.7,501.6,417.7,501.6,417.7z M536.9,385.4l-33.8,31.3l39.1,7.4L536.9,385.4z"/>
			<path class="st3" d="M542.8,425.5c-0.1,0-0.2-0.1-0.3-0.2c-0.1-0.2-0.2-0.4-0.1-0.6l15.5-36.3c0.1-0.2,0.3-0.3,0.5-0.4
				c0.2,0,0.4,0.1,0.6,0.2l21.8,28.4c0.1,0.2,0.2,0.4,0.1,0.6c-0.1,0.2-0.2,0.3-0.4,0.4l-37.3,7.8
				C543,425.5,542.9,425.5,542.8,425.5z M558.5,389.8L544,424l35.2-7.4L558.5,389.8z"/>
			<path class="st3" d="M578.8,438.1C578.8,438.1,578.7,438.1,578.8,438.1l-36.1-12.6c-0.3-0.1-0.4-0.3-0.4-0.6
				c0-0.3,0.2-0.5,0.5-0.6l37.3-7.8c0.2,0,0.4,0,0.5,0.1c0.1,0.1,0.2,0.3,0.2,0.5l-1.3,20.5c0,0.2-0.1,0.4-0.3,0.5
				C579.1,438.1,579,438.1,578.8,438.1z M545.2,425l33.2,11.6l1.2-18.9L545.2,425z"/>
			<path class="st3" d="M517.7,459.8c-0.3-0.1-0.4-0.3-0.5-0.6c0-0.3,0.1-0.5,0.4-0.6l61.1-21.7c0.2-0.1,0.6,0,0.7,0.2
				c0.2,0.2,0.1,0.5-0.1,0.8l-25.8,28.5c-0.1,0.2-0.4,0.2-0.6,0.2L517.7,459.8C517.7,459.8,517.7,459.8,517.7,459.8z M576.8,438.9
				L520.2,459l32.7,6.3L576.8,438.9z"/>
			<path class="st3" d="M517.7,459.8c-0.1,0-0.3-0.1-0.4-0.2c-0.2-0.2-0.2-0.5,0-0.7l25.1-34.3c0.1-0.2,0.4-0.3,0.6-0.2
				c0,0,0,0,0.1,0l36,12.6c0.2,0.1,0.4,0.3,0.4,0.6c0,0.3-0.2,0.5-0.4,0.6L518,459.7C517.9,459.8,517.8,459.8,517.7,459.8z
				 M543.2,425.6l-23.6,32.3l57.6-20.4L543.2,425.6z"/>
			<path class="st3" d="M517.7,459.8c-0.2,0-0.4-0.2-0.4-0.4l-16.1-42.1c-0.1-0.2,0-0.4,0.1-0.6c0.1-0.2,0.4-0.2,0.6-0.2l41.2,7.8
				c0,0,0,0,0,0c0.2,0,0.4,0.2,0.4,0.4c0.1,0.2,0,0.4-0.1,0.6l-25.1,34.3C518.2,459.7,518,459.8,517.7,459.8
				C517.7,459.8,517.7,459.8,517.7,459.8z M502.7,417.9l15.3,40l23.9-32.6L502.7,417.9z"/>
			<path class="st3" d="M452.9,463.1c-0.2,0-0.3-0.2-0.4-0.4c-0.1-0.2,0-0.5,0.1-0.7l48.7-45.4c0.1-0.1,0.4-0.2,0.6-0.2l0,0
				c0.2,0,0.4,0.2,0.4,0.4l16.1,42.1c0.1,0.2,0,0.4-0.1,0.6c-0.1,0.2-0.3,0.3-0.5,0.3l-64.8,3.4C453,463.1,453,463.1,452.9,463.1z
				 M501.5,418.2l-46.8,43.7l62.3-3.2L501.5,418.2z"/>
			<path class="st3" d="M517.5,515.4c-0.1,0-0.2-0.1-0.3-0.1c-0.2-0.2-0.3-0.6-0.1-0.8l35.5-48.9c0.1-0.2,0.3-0.3,0.5-0.3
				c0.2,0,0.4,0.1,0.5,0.3l5,8.8c0.1,0.2,0.1,0.5-0.1,0.7l-40.5,40C517.9,515.4,517.7,515.5,517.5,515.4z M553,467.1l-30.5,42
				l34.8-34.4L553,467.1z"/>
			<path class="st3" d="M517.5,515.4C517.5,515.4,517.4,515.4,517.5,515.4c-0.3-0.1-0.5-0.3-0.5-0.6l0.2-55.7c0-0.2,0.1-0.4,0.2-0.5
				c0.1-0.1,0.3-0.2,0.5-0.1l35.3,6.8c0.2,0,0.4,0.2,0.5,0.4c0.1,0.2,0,0.4-0.1,0.6l-35.5,48.9C518,515.4,517.7,515.5,517.5,515.4z
				 M518.4,459.9l-0.2,53l33.8-46.6L518.4,459.9z"/>
			<path class="st3" d="M573.9,503c-0.2,0-0.3-0.1-0.4-0.3l-16-27.7c-0.1-0.3-0.1-0.6,0.2-0.8l15.3-12.1c0.2-0.1,0.4-0.2,0.6-0.1
				c0.2,0.1,0.3,0.3,0.3,0.5l0.7,39.8c0,0.3-0.2,0.5-0.5,0.6C574.1,503.1,574,503.1,573.9,503z M558.9,474.9l14.5,25.1l-0.6-36.1
				L558.9,474.9z"/>
			<path class="st3" d="M517.5,515.4c-0.2,0-0.3-0.2-0.4-0.3c-0.1-0.2-0.1-0.5,0.1-0.7l40.5-40c0.1-0.1,0.3-0.2,0.5-0.2
				c0.2,0,0.4,0.1,0.5,0.3l16,27.7c0.1,0.2,0.1,0.4,0,0.6c-0.1,0.2-0.2,0.3-0.4,0.4l-56.4,12.4C517.7,515.4,517.6,515.4,517.5,515.4
				z M557.9,475.8l-38.4,38l53.5-11.7L557.9,475.8z"/>
			<path class="st3" d="M573.9,503C573.9,503,573.9,503,573.9,503c-0.3-0.1-0.5-0.3-0.5-0.6l-0.7-39.8c0-0.2,0.1-0.4,0.2-0.5
				c0.2-0.1,0.4-0.2,0.5-0.1l22.1,6.2c0.2,0.1,0.3,0.2,0.4,0.4c0.1,0.2,0,0.4-0.1,0.5l-21.4,33.6C574.4,503,574.1,503.1,573.9,503z
				 M574,463.5l0.6,36.9l19.9-31.2L574,463.5z"/>
			<path class="st3" d="M573.9,503c-0.1,0-0.3-0.1-0.4-0.3c-0.1-0.2-0.1-0.5,0-0.7l21.4-33.6c0.1-0.2,0.3-0.3,0.5-0.3
				c0.2,0,0.4,0.1,0.5,0.3l14.9,26.5c0.1,0.2,0.1,0.4,0,0.6c-0.1,0.2-0.2,0.3-0.4,0.4l-36.3,7.1C574.1,503.1,574,503.1,573.9,503z
				 M595.4,470.1l-20.1,31.5l34.1-6.7L595.4,470.1z"/>
			<path class="st3" d="M600,537.7c-0.1,0-0.3-0.1-0.3-0.2l-26.1-34.7c-0.1-0.2-0.2-0.4-0.1-0.6c0.1-0.2,0.2-0.3,0.5-0.4l36.3-7.1
				c0.2,0,0.4,0,0.6,0.2c0.1,0.2,0.2,0.4,0.1,0.6l-10.2,41.8c-0.1,0.2-0.2,0.4-0.5,0.5C600.2,537.7,600.1,537.7,600,537.7z
				 M575.1,502.9l24.7,32.9l9.7-39.6L575.1,502.9z"/>
			<path class="st3" d="M573.8,582.5c-0.2,0-0.3-0.1-0.4-0.3l-22.8-39.9c-0.1-0.2-0.1-0.4,0-0.6c0.1-0.2,0.3-0.3,0.5-0.3l49-4.9
				c0.2,0,0.4,0.1,0.6,0.3c0.1,0.2,0.1,0.4,0,0.6l-26.2,44.8c-0.1,0.2-0.3,0.3-0.5,0.3C573.9,582.5,573.8,582.5,573.8,582.5z
				 M552.2,542.5l21.8,38.1l25-42.8L552.2,542.5z"/>
			<path class="st3" d="M551,542.6c-0.2,0-0.3-0.1-0.4-0.3c-0.1-0.2-0.1-0.4,0-0.6l22.9-39.6c0.1-0.2,0.3-0.3,0.5-0.3
				c0.2,0,0.4,0.1,0.5,0.2l26.1,34.7c0.1,0.2,0.2,0.4,0.1,0.6c-0.1,0.2-0.3,0.3-0.5,0.4l-49,4.9C551.2,542.6,551.1,542.6,551,542.6z
				 M574.1,503.6l-21.8,37.7l46.7-4.7L574.1,503.6z"/>
			<path class="st3" d="M551,542.6c-0.1,0-0.2-0.1-0.2-0.1l-33.5-27.2c-0.2-0.2-0.3-0.4-0.2-0.6c0.1-0.2,0.2-0.4,0.5-0.5l56.4-12.4
				c0.3-0.1,0.5,0,0.6,0.2c0.1,0.2,0.2,0.5,0,0.7l-22.9,39.6c-0.1,0.2-0.2,0.3-0.4,0.3C551.2,542.6,551.1,542.6,551,542.6z
				 M519,515.1l32,25.9l21.8-37.7L519,515.1z"/>
			<path class="st3" d="M474.7,520c-0.2,0-0.3-0.1-0.4-0.3c-0.1-0.2-0.1-0.5,0-0.7l43-60.3c0.2-0.2,0.4-0.3,0.7-0.2
				c0.3,0.1,0.4,0.3,0.4,0.6l-0.2,55.7c0,0.3-0.2,0.6-0.6,0.6l-42.8,4.6C474.8,520,474.7,520,474.7,520z M517.2,461.1l-41.1,57.6
				l40.9-4.4L517.2,461.1z"/>
			<path class="st3" d="M474.7,520c-0.2,0-0.4-0.2-0.4-0.4l-21.8-56.9c-0.1-0.2,0-0.4,0.1-0.6c0.1-0.2,0.3-0.3,0.5-0.3l64.8-3.4
				c0.2,0,0.5,0.1,0.6,0.3c0.1,0.2,0.1,0.5,0,0.7l-43,60.3C475.2,520,474.9,520.1,474.7,520C474.7,520,474.7,520,474.7,520z
				 M453.9,463.1l21,55l41.6-58.3L453.9,463.1z"/>
			<path class="st3" d="M486.5,577.6c-0.2-0.1-0.4-0.2-0.5-0.5l-11.8-57.5c0-0.2,0-0.3,0.1-0.5c0.1-0.1,0.3-0.2,0.4-0.2l42.8-4.6
				c0.2,0,0.4,0.1,0.6,0.3c0.1,0.2,0.1,0.4,0,0.6l-31,62.1C487.1,577.5,486.8,577.6,486.5,577.6
				C486.5,577.6,486.5,577.6,486.5,577.6z M475.5,520l11.4,55.1l29.7-59.5L475.5,520z"/>
			<path class="st3" d="M486.5,577.6c-0.1,0-0.2-0.1-0.3-0.2c-0.2-0.2-0.2-0.5-0.1-0.7l31-62.1c0.1-0.2,0.2-0.3,0.4-0.3
				c0.2,0,0.4,0,0.5,0.1l33.5,27.2c0.2,0.1,0.2,0.3,0.2,0.5c0,0.2-0.1,0.4-0.3,0.5l-64.5,34.9C486.8,577.6,486.6,577.6,486.5,577.6z
				 M517.8,515.8l-29.8,59.7l62-33.6L517.8,515.8z"/>
			<path class="st3" d="M525.2,613.7c-0.1,0-0.2-0.1-0.3-0.2l-38.7-36.2c-0.1-0.1-0.2-0.3-0.2-0.5c0-0.2,0.1-0.4,0.3-0.5l64.5-34.9
				c0.2-0.1,0.5-0.1,0.7,0.1c0.2,0.2,0.3,0.4,0.2,0.7l-25.8,71.1c-0.1,0.2-0.2,0.3-0.4,0.4C525.4,613.7,525.3,613.7,525.2,613.7z
				 M487.7,577.1l37.4,34.9l25-68.7L487.7,577.1z"/>
			<path class="st3" d="M525.2,613.7c-0.1,0-0.2-0.1-0.2-0.1c-0.2-0.2-0.3-0.4-0.2-0.7l25.8-71.1c0.1-0.2,0.3-0.4,0.5-0.4
				c0.3,0,0.5,0.1,0.6,0.3l22.8,39.9c0.2,0.3,0.1,0.6-0.2,0.8l-48.6,31.2C525.5,613.7,525.3,613.7,525.2,613.7z M551.3,543.5
				l-24.8,68.1l46.6-29.9L551.3,543.5z"/>
			<path class="st3" d="M530.9,649.6c-0.2-0.1-0.4-0.3-0.5-0.5l-5.7-35.9c0-0.2,0.1-0.5,0.3-0.6l48.6-31.2c0.2-0.1,0.6-0.1,0.8,0.1
				c0.2,0.2,0.2,0.5,0.1,0.8l-42.9,67.1C531.4,649.5,531.2,649.6,530.9,649.6L530.9,649.6z M526,613.4l5.4,33.9l40.5-63.3L526,613.4
				z"/>
			<path class="st3" d="M323.2,409.2c-0.1,0-0.1,0-0.1-0.1c-0.2-0.1-0.3-0.3-0.3-0.6l2.3-86.6c0-0.3,0.2-0.5,0.5-0.6
				c0.3-0.1,0.5,0,0.7,0.3l35.6,59.8c0.2,0.3,0.1,0.6-0.2,0.8l-37.8,26.8C323.6,409.2,323.4,409.2,323.2,409.2z M326.2,324.1
				l-2.2,83.3l36.4-25.7L326.2,324.1z"/>
			<path class="st3" d="M323.2,409.2C323.2,409.2,323.2,409.2,323.2,409.2l-41.2-11c-0.2-0.1-0.3-0.2-0.4-0.4
				c-0.1-0.2-0.1-0.4,0-0.5l43.5-75.6c0.1-0.2,0.4-0.4,0.7-0.3c0,0,0,0,0,0c0.3,0.1,0.5,0.3,0.4,0.6l-2.3,86.6
				c0,0.2-0.1,0.4-0.2,0.5C323.6,409.2,323.4,409.2,323.2,409.2z M283.1,397.2l39.7,10.6l2.2-83.4L283.1,397.2z"/>
			<path class="st3" d="M374.3,444.5c-0.1,0-0.1,0-0.2-0.1L323,409.1c-0.2-0.1-0.3-0.3-0.3-0.5c0-0.2,0.1-0.4,0.3-0.5l37.8-26.8
				c0.2-0.1,0.4-0.1,0.6-0.1c0.2,0.1,0.3,0.2,0.4,0.4l13.3,62.1c0,0.2,0,0.5-0.3,0.6C374.7,444.5,374.5,444.5,374.3,444.5z
				 M324.4,408.6l49.1,34l-12.7-59.7L324.4,408.6z"/>
			<path class="st3" d="M374.3,444.5c0,0-0.1,0-0.1,0c-0.2-0.1-0.3-0.2-0.4-0.4l-13.3-62.1c-0.1-0.2,0-0.5,0.2-0.6
				c0.2-0.1,0.5-0.2,0.7,0l58.9,34c0.2,0.1,0.3,0.3,0.3,0.5c0,0.2-0.1,0.4-0.3,0.5l-45.7,28.2C374.7,444.5,374.5,444.5,374.3,444.5z
				 M362.1,383l12.8,59.9l44.1-27.2L362.1,383z"/>
			<path class="st3" d="M300.5,465c-0.2-0.1-0.4-0.2-0.5-0.4l-18.5-66.8c-0.1-0.2,0-0.4,0.2-0.6c0.2-0.1,0.4-0.2,0.6-0.2
				c0,0,0,0,0,0l41.2,11c0.2,0,0.3,0.2,0.4,0.3c0.1,0.2,0.1,0.3,0,0.5l-22.7,55.8c-0.1,0.2-0.3,0.4-0.6,0.4
				C300.6,465,300.5,465,300.5,465z M283,398.4l17.7,64.1l21.8-53.5L283,398.4z"/>
			<path class="st3" d="M239.5,465.1c-0.2,0-0.3-0.2-0.4-0.3c-0.1-0.2-0.1-0.4,0-0.6l42.5-66.9c0.1-0.2,0.4-0.3,0.6-0.3
				c0.2,0,0.4,0.2,0.5,0.5l18.5,66.8c0,0.2,0,0.4-0.1,0.5c-0.1,0.2-0.3,0.2-0.5,0.2l-61,0.1C239.6,465.1,239.5,465.1,239.5,465.1z
				 M281.9,399l-41.2,64.8l59.1-0.1L281.9,399z"/>
			<path class="st3" d="M247,526.3C247,526.3,247,526.3,247,526.3c-0.3-0.1-0.4-0.3-0.5-0.5l-7.5-61.2c0-0.2,0-0.3,0.2-0.5
				c0.1-0.1,0.3-0.2,0.5-0.2l61-0.1c0.2,0,0.5,0.1,0.6,0.4c0.1,0.2,0.1,0.5-0.1,0.7l-53.5,61.3C247.4,526.3,247.2,526.3,247,526.3z
				 M240.3,465.1l7.3,59.1l51.7-59.2L240.3,465.1z"/>
			<path class="st3" d="M194.1,520.8c-0.2,0-0.3-0.2-0.4-0.4c-0.1-0.2-0.1-0.5,0.1-0.6l45.4-55.7c0.2-0.2,0.4-0.2,0.6-0.2
				c0.2,0.1,0.4,0.3,0.4,0.5l7.5,61.2c0,0.2,0,0.4-0.2,0.5c-0.1,0.1-0.3,0.2-0.5,0.2L194.1,520.8
				C194.2,520.8,194.2,520.8,194.1,520.8z M239.2,466l-43.7,53.7l51,5.3L239.2,466z"/>
			<path class="st3" d="M300.5,465c-0.1,0-0.2-0.1-0.3-0.2c-0.2-0.2-0.2-0.4-0.1-0.6l22.7-55.8c0.1-0.2,0.2-0.3,0.4-0.4
				c0.2-0.1,0.4,0,0.5,0.1l51.1,35.3c0.2,0.1,0.3,0.4,0.3,0.6c0,0.2-0.2,0.4-0.4,0.5L300.8,465C300.7,465,300.6,465,300.5,465z
				 M323.7,409.5l-22,54l71.4-19.8L323.7,409.5z"/>
			<path class="st3" d="M452.9,463.1l-78.6-18.6c-0.2-0.1-0.4-0.3-0.5-0.5c0-0.2,0.1-0.5,0.3-0.6l45.7-28.2c0.3-0.2,0.6-0.1,0.8,0.2
				l32.9,46.8c0.2,0.2,0.2,0.5,0,0.7C453.4,463.1,453.1,463.2,452.9,463.1z M376.1,443.6l75.5,17.9l-31.6-45L376.1,443.6z"/>
			<path class="st3" d="M376.8,510.1c-0.1,0-0.1,0-0.2-0.1c-0.2-0.1-0.3-0.3-0.3-0.5l-2.5-65.6c0-0.2,0.1-0.5,0.3-0.6
				c0.2-0.1,0.5-0.1,0.7,0.1l56,46.3c0.2,0.1,0.3,0.4,0.2,0.6c0,0.2-0.2,0.4-0.4,0.5L377.1,510C377,510.1,376.9,510.1,376.8,510.1z
				 M375.1,445.3l2.4,63.4l51.8-18.6L375.1,445.3z"/>
			<path class="st3" d="M430.3,490.8c-0.1,0-0.2-0.1-0.2-0.1l-56-46.3c-0.2-0.2-0.3-0.5-0.2-0.7c0.1-0.3,0.4-0.4,0.7-0.3l78.6,18.6
				c0.2,0,0.4,0.2,0.4,0.4c0.1,0.2,0,0.4-0.1,0.6L431,490.6c-0.1,0.1-0.3,0.2-0.4,0.2C430.5,490.8,430.4,490.8,430.3,490.8z
				 M376.9,445.1l53.5,44.2l21.5-26.4L376.9,445.1z"/>
			<path class="st3" d="M332.4,507.5c-0.2,0-0.3-0.2-0.4-0.3c-0.1-0.2-0.1-0.4,0-0.6l41.9-63c0.1-0.2,0.4-0.3,0.7-0.3c0,0,0,0,0,0
				c0.3,0.1,0.4,0.3,0.5,0.6l2.5,65.6c0,0.2-0.1,0.3-0.2,0.5c-0.1,0.1-0.3,0.2-0.5,0.2l-44.4-2.5
				C332.5,507.6,332.4,507.6,332.4,507.5z M373.9,445.8l-40.3,60.6l42.6,2.4L373.9,445.8z"/>
			<path class="st3" d="M332.4,507.5c-0.1,0-0.3-0.1-0.3-0.2l-31.9-42.5c-0.1-0.2-0.2-0.4-0.1-0.6c0.1-0.2,0.2-0.3,0.4-0.4
				l73.8-20.5c0.3-0.1,0.5,0,0.7,0.2c0.2,0.2,0.2,0.5,0,0.7l-41.9,63c-0.1,0.2-0.3,0.3-0.5,0.3C332.5,507.6,332.5,507.6,332.4,507.5
				z M301.7,464.8l30.8,41.1l40.5-60.9L301.7,464.8z"/>
			<path class="st3" d="M247,526.3c-0.2,0-0.3-0.1-0.4-0.3c-0.1-0.2-0.1-0.5,0.1-0.7l53.5-61.3c0.1-0.1,0.3-0.2,0.5-0.2
				c0.2,0,0.4,0.1,0.5,0.2l31.9,42.5c0.1,0.2,0.2,0.4,0.1,0.6c-0.1,0.2-0.2,0.3-0.4,0.4l-85.4,18.7
				C247.2,526.3,247.1,526.3,247,526.3z M300.6,465.4l-51.8,59.3l82.7-18.1L300.6,465.4z"/>
			<path class="st3" d="M474.7,520c-0.1,0-0.1,0-0.2-0.1l-44.3-29.2c-0.1-0.1-0.2-0.3-0.3-0.4c0-0.2,0-0.3,0.1-0.5l22.5-27.6
				c0.2-0.2,0.4-0.4,0.6-0.2c0.2,0,0.4,0.2,0.4,0.4l21.8,56.9c0.1,0.2,0,0.5-0.2,0.7C475,520,474.8,520.1,474.7,520z M431.4,490
				l42.1,27.8l-20.7-54.1L431.4,490z"/>
			<path class="st3" d="M428.5,549.3c-0.1,0-0.1,0-0.2-0.1c-0.2-0.1-0.3-0.3-0.3-0.6l1.9-58.5c0-0.2,0.1-0.4,0.3-0.5
				c0.2-0.1,0.5-0.1,0.6,0l44.3,29.2c0.2,0.1,0.3,0.3,0.3,0.5c0,0.2-0.1,0.4-0.3,0.5l-46.2,29.3
				C428.8,549.3,428.6,549.3,428.5,549.3z M431.1,491.3l-1.8,56.3l44.4-28.2L431.1,491.3z"/>
			<path class="st3" d="M428.5,549.3c-0.1,0-0.2-0.1-0.2-0.1L376.6,510c-0.2-0.1-0.3-0.4-0.2-0.6c0-0.2,0.2-0.4,0.4-0.5l53.6-19.3
				c0.2-0.1,0.4,0,0.6,0.1c0.2,0.1,0.3,0.3,0.2,0.5l-1.9,58.5c0,0.2-0.1,0.4-0.4,0.5C428.8,549.3,428.6,549.3,428.5,549.3z
				 M378.2,509.7l49.8,37.8l1.8-56.4L378.2,509.7z"/>
			<path class="st3" d="M486.5,577.6c0,0-0.1,0-0.1,0l-58-28.2c-0.2-0.1-0.3-0.3-0.3-0.5c0-0.2,0.1-0.4,0.3-0.5l46.2-29.3
				c0.2-0.1,0.4-0.1,0.6,0c0.2,0.1,0.3,0.2,0.4,0.4l11.8,57.5c0,0.2,0,0.5-0.2,0.6C486.9,577.6,486.7,577.6,486.5,577.6z
				 M429.9,548.6l55.9,27.2l-11.4-55.4L429.9,548.6z"/>
			<path class="st3" d="M366,576.5c-0.1,0-0.2-0.1-0.2-0.1c-0.2-0.1-0.3-0.4-0.2-0.6l10.7-66.4c0-0.2,0.2-0.4,0.4-0.5
				c0.2-0.1,0.4-0.1,0.6,0.1l51.7,39.2c0.2,0.1,0.3,0.3,0.2,0.6c0,0.2-0.2,0.4-0.4,0.5l-62.4,27.2
				C366.3,576.5,366.2,576.5,366,576.5z M377.4,510.6L367,574.9l60.4-26.3L377.4,510.6z"/>
			<path class="st3" d="M428.7,607.3c-0.1,0-0.1,0-0.2-0.1c-0.2-0.1-0.3-0.3-0.3-0.5l-0.2-58c0-0.2,0.1-0.4,0.3-0.5
				c0.2-0.1,0.4-0.1,0.6,0l58,28.2c0.2,0.1,0.3,0.3,0.3,0.5c0,0.2-0.1,0.4-0.3,0.6l-57.8,29.8C429,607.4,428.8,607.4,428.7,607.3z
				 M429.2,549.7l0.2,56l55.8-28.8L429.2,549.7z"/>
			<path class="st3" d="M428.7,607.3c0,0-0.1,0-0.1,0l-62.7-30.8c-0.2-0.1-0.3-0.3-0.3-0.6c0-0.2,0.1-0.5,0.4-0.6l62.4-27.2
				c0.2-0.1,0.4-0.1,0.6,0.1c0.2,0.1,0.3,0.3,0.3,0.5l0.2,58c0,0.2-0.1,0.4-0.3,0.5C429,607.3,428.9,607.4,428.7,607.3z
				 M367.7,575.9l60.6,29.8l-0.2-56.1L367.7,575.9z"/>
			<path class="st3" d="M473.4,650.9c-0.1,0-0.1,0-0.2-0.1c-0.2-0.1-0.3-0.4-0.3-0.6l13.1-73.4c0-0.2,0.2-0.4,0.4-0.5
				c0.2-0.1,0.5,0,0.6,0.1l38.7,36.2c0.1,0.1,0.2,0.3,0.2,0.5c0,0.2-0.1,0.4-0.3,0.5l-51.8,37.2C473.7,650.9,473.5,651,473.4,650.9z
				 M487,578.2l-12.7,70.8l50-35.9L487,578.2z"/>
			<path class="st3" d="M473.4,650.9c-0.1,0-0.2-0.1-0.3-0.2l-44.7-43.6c-0.1-0.1-0.2-0.3-0.2-0.5c0-0.2,0.2-0.4,0.3-0.5l57.8-29.8
				c0.2-0.1,0.5-0.1,0.6,0.1c0.2,0.1,0.3,0.4,0.2,0.6l-13.1,73.4c0,0.2-0.2,0.4-0.4,0.5C473.6,650.9,473.5,650.9,473.4,650.9z
				 M429.9,606.9l43.2,42.2l12.7-71L429.9,606.9z"/>
			<path class="st3" d="M473.4,650.9c-0.2,0-0.4-0.2-0.4-0.4c-0.1-0.3,0-0.5,0.2-0.7l51.8-37.2c0.2-0.1,0.4-0.2,0.6-0.1
				c0.2,0.1,0.3,0.3,0.4,0.5l5.7,35.9c0,0.2,0,0.3-0.1,0.5c-0.1,0.1-0.3,0.2-0.5,0.2l-57.5,1.4C473.5,650.9,473.4,650.9,473.4,650.9
				z M524.9,614.2l-49.4,35.5l54.9-1.3L524.9,614.2z"/>
			<path class="st3" d="M495.2,704.8c-0.2,0-0.3-0.2-0.4-0.4l-21.8-53.9c-0.1-0.2-0.1-0.4,0.1-0.6c0.1-0.2,0.3-0.3,0.5-0.3l57.5-1.4
				c0.3,0,0.5,0.1,0.5,0.3c0.1,0.2,0.1,0.4,0,0.6l-35.7,55.2C495.7,704.7,495.5,704.8,495.2,704.8
				C495.3,704.8,495.2,704.8,495.2,704.8z M474.4,650.9l21.1,51.9l34.4-53.3L474.4,650.9z"/>
			<path class="st3" d="M442,756.8C441.9,756.8,441.9,756.8,442,756.8c-0.3-0.1-0.4-0.3-0.5-0.6l-3.8-50.3c0-0.2,0-0.3,0.2-0.5
				c0.1-0.1,0.3-0.2,0.4-0.2l57-1.8c0.2,0,0.5,0.1,0.6,0.4c0.1,0.2,0,0.5-0.1,0.7l-53.2,52C442.4,756.8,442.2,756.9,442,756.8z
				 M439,706.5l3.6,48.3l51.2-50L439,706.5z"/>
			<path class="st3" d="M438.2,706.6c-0.2,0-0.3-0.1-0.4-0.3c-0.1-0.2-0.1-0.4,0-0.6L473,650c0.1-0.2,0.3-0.3,0.6-0.3
				c0.2,0,0.4,0.2,0.5,0.4l21.8,53.9c0.1,0.2,0.1,0.4-0.1,0.6c-0.1,0.2-0.3,0.3-0.5,0.3l-57,1.8
				C438.3,706.6,438.2,706.6,438.2,706.6z M473.4,651.6l-33.9,53.7l55-1.7L473.4,651.6z"/>
			<path class="st3" d="M366,576.5c-0.2,0-0.3-0.2-0.4-0.3l-33.6-69c-0.1-0.2-0.1-0.4,0-0.6c0.1-0.2,0.3-0.3,0.6-0.3l44.4,2.5
				c0.1,0,0.3,0.1,0.4,0.2c0.1,0.1,0.2,0.3,0.1,0.5L366.8,576c0,0.3-0.3,0.5-0.5,0.5C366.2,576.5,366.1,576.5,366,576.5z
				 M333.6,507.6l32.3,66.3l10.3-63.8L333.6,507.6z"/>
			<path class="st3" d="M296.9,594.1c-0.1,0-0.2-0.1-0.3-0.2c-0.1-0.2-0.2-0.4-0.1-0.6l35.5-86.6c0.1-0.2,0.3-0.4,0.6-0.4
				c0.3,0,0.5,0.1,0.6,0.3l33.6,69c0.1,0.2,0.1,0.4,0,0.5c-0.1,0.2-0.2,0.3-0.4,0.3l-69.1,17.6C297.1,594.1,297,594.1,296.9,594.1z
				 M332.6,508.4l-34.5,84.2l67.2-17.1L332.6,508.4z"/>
			<path class="st3" d="M296.9,594.1c-0.1,0-0.3-0.1-0.4-0.2l-49.9-67.8c-0.1-0.2-0.2-0.4-0.1-0.6c0.1-0.2,0.2-0.3,0.4-0.4
				l85.4-18.7c0.2,0,0.4,0,0.6,0.2c0.1,0.2,0.2,0.4,0.1,0.6l-35.5,86.6c-0.1,0.2-0.3,0.4-0.5,0.4C297,594.1,297,594.1,296.9,594.1z
				 M248.2,526.1l48.7,66.2l34.6-84.5L248.2,526.1z"/>
			<path class="st3" d="M182.4,568.1c-0.1,0-0.1-0.1-0.2-0.1c-0.2-0.1-0.3-0.4-0.2-0.6l11.7-47.3c0.1-0.3,0.4-0.5,0.7-0.5l52.9,5.5
				c0.3,0,0.5,0.2,0.5,0.5c0.1,0.3,0,0.5-0.3,0.7L182.9,568C182.7,568.1,182.5,568.2,182.4,568.1z M194.7,520.9l-11.2,45.3l61.8-40
				L194.7,520.9z"/>
			<path class="st3" d="M156.9,621.9c-0.1,0-0.3-0.1-0.3-0.2c-0.1-0.2-0.2-0.4-0.1-0.6l25.5-53.8c0.1-0.2,0.3-0.3,0.5-0.3
				c0.2,0,0.4,0,0.5,0.2l40.1,40.3c0.2,0.2,0.2,0.4,0.2,0.6c-0.1,0.2-0.2,0.4-0.5,0.4l-65.7,13.4C157,621.9,156.9,621.9,156.9,621.9
				z M182.7,568.6l-24.6,51.9l63.3-13L182.7,568.6z"/>
			<path class="st3" d="M222.5,608.5c-0.1,0-0.2-0.1-0.3-0.2L182.1,568c-0.1-0.1-0.2-0.3-0.2-0.5c0-0.2,0.1-0.3,0.3-0.5l64.6-41.8
				c0.2-0.1,0.5-0.2,0.7,0c0.2,0.2,0.3,0.4,0.2,0.7L223.2,608c-0.1,0.2-0.2,0.4-0.4,0.4C222.7,608.5,222.6,608.5,222.5,608.5z
				 M183.5,567.6l38.9,39.1l23.7-79.6L183.5,567.6z"/>
			<path class="st3" d="M222.5,608.5c-0.1,0-0.2-0.1-0.3-0.2c-0.1-0.2-0.2-0.4-0.1-0.6l24.5-82.2c0.1-0.2,0.3-0.4,0.5-0.4
				c0.2-0.1,0.5,0.1,0.6,0.2l49.9,67.8c0.1,0.2,0.2,0.4,0.1,0.6c-0.1,0.2-0.3,0.3-0.5,0.4l-74.4,14.4
				C222.7,608.5,222.6,608.5,222.5,608.5z M247.4,527.1l-23.8,80l72.4-14L247.4,527.1z"/>
			<path class="st3" d="M372.8,645.1c0,0-0.1,0-0.1,0c-0.2-0.1-0.3-0.3-0.3-0.5l-6.7-68.6c0-0.2,0.1-0.4,0.3-0.6
				c0.2-0.1,0.4-0.1,0.6,0l62.7,30.8c0.2,0.1,0.3,0.3,0.3,0.5c0,0.2-0.1,0.4-0.3,0.6L373.3,645C373.1,645.1,373,645.1,372.8,645.1z
				 M366.9,576.9l6.5,66.4l54.2-36.6L366.9,576.9z"/>
			<path class="st3" d="M312.8,657.8c-0.1,0-0.3-0.1-0.4-0.2c-0.1-0.2-0.1-0.5,0-0.7l53.3-81.3c0.1-0.2,0.4-0.3,0.7-0.3l0,0
				c0.2,0.1,0.4,0.3,0.5,0.5l6.7,68.6c0,0.3-0.2,0.6-0.5,0.7l-60,12.8C313,657.9,312.9,657.9,312.8,657.8z M365.8,577.7l-51.5,78.6
				l58-12.3L365.8,577.7z"/>
			<path class="st3" d="M312.8,657.8c-0.2-0.1-0.4-0.2-0.5-0.4l-15.9-63.7c-0.1-0.3,0.1-0.7,0.4-0.7l69.1-17.6c0.2,0,0.5,0,0.7,0.2
				c0.1,0.2,0.2,0.5,0,0.7l-53.3,81.3C313.3,657.8,313.1,657.9,312.8,657.8C312.8,657.8,312.8,657.8,312.8,657.8z M297.8,593.9
				l15.4,61.8l51.6-78.9L297.8,593.9z"/>
			<path class="st3" d="M419.8,670.2c-0.1,0-0.1,0-0.1-0.1l-47-25.1c-0.2-0.1-0.3-0.3-0.3-0.5c0-0.2,0.1-0.4,0.3-0.5l55.9-37.7
				c0.2-0.1,0.5-0.2,0.7,0c0.2,0.1,0.3,0.4,0.3,0.6l-8.9,62.9c0,0.2-0.2,0.4-0.3,0.5C420.1,670.2,420,670.2,419.8,670.2z
				 M374.1,644.4l45.4,24.2L428,608L374.1,644.4z"/>
			<path class="st3" d="M419.8,670.2c-0.1,0-0.2-0.1-0.2-0.1c-0.2-0.1-0.2-0.4-0.2-0.6l8.9-62.9c0-0.2,0.2-0.4,0.4-0.5
				c0.2-0.1,0.5,0,0.6,0.1l44.7,43.6c0.2,0.1,0.2,0.4,0.2,0.6c-0.1,0.2-0.2,0.4-0.4,0.5l-53.6,19.3
				C420,670.2,419.9,670.2,419.8,670.2z M429.3,608l-8.6,60.7l51.7-18.6L429.3,608z"/>
			<path class="st3" d="M438.2,706.6c-0.2,0-0.3-0.2-0.4-0.3l-18.4-36.3c-0.1-0.2-0.1-0.3,0-0.5c0.1-0.2,0.2-0.3,0.4-0.4l53.6-19.3
				c0.3-0.1,0.5,0,0.7,0.2c0.2,0.2,0.2,0.5,0,0.7l-35.2,55.6c-0.1,0.2-0.3,0.3-0.5,0.3C438.3,706.6,438.2,706.6,438.2,706.6z
				 M420.8,670l17.6,34.8l33.7-53.2L420.8,670z"/>
			<path class="st3" d="M247.7,662.4c-0.2,0-0.3-0.1-0.4-0.3c-0.1-0.2-0.1-0.5,0-0.7l49.2-68.3c0.1-0.2,0.5-0.3,0.6-0.2
				c0.2,0.1,0.4,0.2,0.5,0.4l15.9,63.7c0,0.2,0,0.4-0.1,0.5c-0.1,0.1-0.3,0.2-0.5,0.2l-65.1,4.6
				C247.8,662.4,247.8,662.4,247.7,662.4z M296.8,594.9l-47.6,66.2l63-4.4L296.8,594.9z"/>
			<path class="st3" d="M247.7,662.4c-0.2,0-0.3-0.2-0.4-0.3l-25.2-54c-0.1-0.2-0.1-0.4,0-0.5c0.1-0.2,0.2-0.3,0.4-0.3l74.4-14.4
				c0.2,0,0.5,0.1,0.6,0.3c0.1,0.2,0.1,0.5,0,0.7l-49.2,68.3C248.2,662.4,248,662.4,247.7,662.4
				C247.8,662.4,247.7,662.4,247.7,662.4z M223.5,608.3l24.4,52.3l47.7-66.2L223.5,608.3z"/>
			<path class="st3" d="M398.1,783c-0.2,0-0.3-0.2-0.4-0.3l-27.6-56.5c-0.1-0.2-0.1-0.5,0.1-0.7c0.2-0.2,0.5-0.2,0.7-0.1l71.5,30.3
				c0.2,0.1,0.4,0.3,0.4,0.5c0,0.2-0.1,0.4-0.3,0.6l-43.9,26.2C398.4,783,398.2,783.1,398.1,783z M371.9,727.1l26.6,54.4l42.3-25.2
				L371.9,727.1z"/>
			<path class="st3" d="M442,756.8c0,0-0.1,0-0.1,0l-71.5-30.3c-0.2-0.1-0.4-0.3-0.4-0.6c0-0.3,0.2-0.5,0.4-0.6l67.7-19.9
				c0.2,0,0.4,0,0.5,0.1c0.2,0.1,0.3,0.3,0.3,0.5l3.8,50.3c0,0.2-0.1,0.4-0.3,0.5C442.3,756.8,442.1,756.8,442,756.8z M372.4,726
				l69,29.2l-3.6-48.5L372.4,726z"/>
			<path class="st3" d="M370.5,726.5c-0.2,0-0.3-0.1-0.4-0.3c-0.1-0.2-0.1-0.5,0.1-0.7l49.3-56.3c0.1-0.2,0.4-0.2,0.6-0.2
				c0.2,0,0.3,0.2,0.4,0.3l18.4,36.3c0.1,0.2,0.1,0.4,0,0.5c-0.1,0.2-0.2,0.3-0.4,0.3l-67.7,19.9
				C370.7,726.5,370.6,726.5,370.5,726.5z M419.8,670.7l-47.3,54l65-19.1L419.8,670.7z"/>
			<path class="st3" d="M370.5,726.5C370.5,726.5,370.4,726.5,370.5,726.5c-0.3-0.1-0.5-0.4-0.5-0.6l2.3-81.4c0-0.2,0.1-0.4,0.3-0.5
				c0.2-0.1,0.4-0.1,0.6,0l47,25.1c0.2,0.1,0.3,0.2,0.3,0.4c0,0.2,0,0.4-0.1,0.5l-49.3,56.3C370.9,726.5,370.7,726.6,370.5,726.5z
				 M373.5,645.5l-2.2,78.7l47.7-54.4L373.5,645.5z"/>
			<path class="st3" d="M324.7,704.6c-0.2-0.1-0.4-0.2-0.5-0.4l-11.9-46.8c0-0.2,0-0.3,0.1-0.5c0.1-0.1,0.2-0.2,0.4-0.3l60-12.8
				c0.3,0,0.5,0.1,0.7,0.3c0.1,0.2,0.1,0.5,0,0.7l-48.1,59.6C325.1,704.6,324.9,704.7,324.7,704.6L324.7,704.6z M313.7,657.7
				l11.4,45l46.2-57.3L313.7,657.7z"/>
			<path class="st3" d="M370.5,726.5c0,0-0.1,0-0.1,0l-45.8-21.9c-0.2-0.1-0.3-0.2-0.3-0.4c0-0.2,0-0.4,0.1-0.5l48.1-59.6
				c0.2-0.2,0.4-0.3,0.7-0.2c0.2,0.1,0.4,0.3,0.4,0.6l-2.3,81.4c0,0.2-0.1,0.4-0.3,0.5C370.8,726.5,370.6,726.5,370.5,726.5z
				 M325.8,703.8l44.3,21.1l2.2-78.7L325.8,703.8z"/>
			<path class="st3" d="M306.9,775.4c-0.1,0-0.1,0-0.2-0.1c-0.2-0.1-0.3-0.4-0.3-0.7l17.8-70.8c0-0.2,0.2-0.3,0.3-0.4
				c0.2-0.1,0.4-0.1,0.5,0l45.8,21.9c0.2,0.1,0.3,0.3,0.3,0.5c0,0.2-0.1,0.4-0.2,0.6l-63.6,48.9
				C307.3,775.4,307.1,775.5,306.9,775.4z M325.2,704.9l-17.2,68.3l61.4-47.2L325.2,704.9z"/>
			<path class="st3" d="M261,728.6c-0.1,0-0.3-0.1-0.3-0.2c-0.2-0.2-0.2-0.5,0-0.7l51.7-70.7c0.1-0.2,0.4-0.3,0.6-0.2l0,0
				c0.2,0.1,0.4,0.2,0.5,0.4l11.9,46.8c0.1,0.3-0.1,0.6-0.4,0.7l-63.6,23.9C261.3,728.6,261.2,728.6,261,728.6z M312.6,658.7
				l-49.8,68l61.2-23L312.6,658.7z"/>
			<path class="st3" d="M306.9,775.4c-0.1,0-0.2-0.1-0.3-0.2l-45.9-46.9c-0.1-0.1-0.2-0.4-0.2-0.6s0.2-0.4,0.4-0.4l63.6-23.9
				c0.2-0.1,0.5,0,0.6,0.1c0.2,0.1,0.2,0.4,0.2,0.6L307.7,775c-0.1,0.2-0.2,0.4-0.4,0.4C307.1,775.4,307,775.4,306.9,775.4z
				 M262.3,728.2l44.4,45.4l17.2-68.6L262.3,728.2z"/>
			<path class="st3" d="M261,728.6c-0.2-0.1-0.4-0.2-0.5-0.5l-13.3-66.1c0-0.2,0-0.4,0.1-0.5c0.1-0.1,0.3-0.2,0.4-0.2l65.1-4.6
				c0.3,0,0.5,0.1,0.6,0.3c0.1,0.2,0.1,0.5,0,0.7l-51.7,70.7C261.5,728.5,261.3,728.6,261,728.6L261,728.6z M248.6,662.4l12.9,64.1
				l50.1-68.5L248.6,662.4z"/>
			<path class="st3" d="M306.9,775.4c-0.2-0.1-0.4-0.2-0.4-0.4c-0.1-0.2,0-0.5,0.2-0.7l63.6-48.9c0.1-0.1,0.3-0.2,0.5-0.1l0,0
				c0.2,0,0.3,0.2,0.4,0.3l27.6,56.5c0.1,0.2,0.1,0.4,0,0.6c-0.1,0.2-0.3,0.3-0.6,0.3L306.9,775.4
				C307,775.4,306.9,775.4,306.9,775.4z M370.4,726.9l-61.7,47.5l88.5,7.4L370.4,726.9z"/>
			<path class="st3" d="M357.3,807.3c-0.1,0-0.1,0-0.2-0.1l-50.4-31.9c-0.2-0.1-0.3-0.4-0.3-0.7c0.1-0.3,0.4-0.4,0.6-0.4l91.2,7.6
				c0.3,0,0.5,0.2,0.5,0.5c0.1,0.3,0,0.5-0.3,0.7l-40.8,24.3C357.6,807.4,357.5,807.4,357.3,807.3z M309.5,775.6l48,30.4l38.8-23.2
				L309.5,775.6z"/>
			<path class="st3" d="M320.3,845.6c-0.2-0.1-0.4-0.2-0.5-0.5l-13.4-70.1c0-0.2,0.1-0.5,0.3-0.6c0.2-0.1,0.5-0.1,0.7,0l50.4,31.9
				c0.2,0.1,0.3,0.3,0.3,0.4c0,0.2,0,0.4-0.2,0.5l-37,38.2C320.7,845.5,320.5,845.6,320.3,845.6z M307.9,776.1l12.9,67.6l35.7-36.8
				L307.9,776.1z"/>
			<path class="st3" d="M287.7,881.8c-0.2,0-0.4-0.2-0.4-0.4l-16.9-47c-0.1-0.2,0-0.4,0.1-0.6c0.1-0.2,0.4-0.2,0.6-0.2l49.4,10.7
				c0,0,0,0,0,0c0.2,0.1,0.4,0.2,0.4,0.4c0.1,0.2,0,0.4-0.1,0.6l-32.6,36.3C288.1,881.8,287.9,881.9,287.7,881.8
				C287.7,881.8,287.7,881.8,287.7,881.8z M271.9,835.1l16.1,45l31.2-34.7L271.9,835.1z"/>
			<path class="st3" d="M270.8,834.8c-0.2,0-0.3-0.2-0.4-0.4c-0.1-0.2-0.1-0.4,0-0.6l36.1-59.4c0.1-0.2,0.4-0.3,0.6-0.3c0,0,0,0,0,0
				c0.2,0.1,0.4,0.2,0.5,0.5l13.4,70.1c0,0.2,0,0.4-0.2,0.6c-0.1,0.1-0.4,0.2-0.6,0.2L270.8,834.8
				C270.9,834.8,270.8,834.8,270.8,834.8z M306.7,776.5l-34.8,57.3l47.7,10.3L306.7,776.5z"/>
			<path class="st3" d="M218.8,826.5c-0.2,0-0.3-0.2-0.4-0.3c-0.1-0.2-0.1-0.4,0-0.6l29.1-51.1c0.1-0.2,0.3-0.3,0.6-0.3
				c0.2,0,0.4,0.2,0.5,0.4l22.9,59.4c0.1,0.2,0,0.4-0.1,0.6c-0.1,0.2-0.4,0.3-0.6,0.2L218.8,826.5
				C218.9,826.5,218.8,826.5,218.8,826.5z M248,776.3l-28,49.2l50.1,8L248,776.3z"/>
			<path class="st3" d="M218.8,826.5c-0.1,0-0.2-0.1-0.3-0.2L191,794.8c-0.1-0.2-0.2-0.4-0.1-0.6c0.1-0.2,0.2-0.4,0.4-0.4l56.6-19.6
				c0.3-0.1,0.5,0,0.7,0.2c0.2,0.2,0.2,0.5,0.1,0.7l-29.1,51.1c-0.1,0.2-0.3,0.3-0.5,0.3C219,826.5,218.9,826.5,218.8,826.5z
				 M192.5,794.7l26.3,30.2l27.9-48.9L192.5,794.7z"/>
			<path class="st3" d="M144.8,814c-0.1,0-0.1,0-0.2-0.1c-0.2-0.1-0.3-0.3-0.3-0.5l-5.4-57.3c0-0.2,0.1-0.5,0.3-0.6
				c0.2-0.1,0.5-0.1,0.7,0l51.9,38.3c0.2,0.1,0.3,0.3,0.2,0.6c0,0.2-0.2,0.4-0.4,0.5l-46.5,19C145.1,814,144.9,814,144.8,814z
				 M140.3,757.4l5.2,55.1l44.7-18.2L140.3,757.4z"/>
			<path class="st3" d="M191.3,795c-0.1,0-0.2-0.1-0.2-0.1l-51.9-38.3c-0.2-0.1-0.3-0.4-0.2-0.6c0-0.2,0.2-0.4,0.4-0.5l65.3-22.5
				c0.2-0.1,0.5,0,0.6,0.1c0.2,0.1,0.2,0.4,0.2,0.6L192,794.5c0,0.2-0.2,0.4-0.4,0.4C191.5,795,191.4,795,191.3,795z M140.9,756.3
				l50.2,37l13-58.8L140.9,756.3z"/>
			<path class="st3" d="M99.2,753.2c-0.2,0-0.3-0.2-0.4-0.3c-0.1-0.2-0.1-0.4,0-0.6l30.2-55.8c0.1-0.2,0.4-0.4,0.6-0.3
				c0.3,0.1,0.5,0.2,0.5,0.5l9.9,59.3c0,0.2,0,0.4-0.2,0.5c-0.1,0.1-0.3,0.2-0.5,0.2L99.2,753.2C99.3,753.2,99.3,753.2,99.2,753.2z
				 M129.3,698.6l-28.9,53.4l38.4,3.4L129.3,698.6z"/>
			<path class="st3" d="M99.2,753.2c-0.2,0-0.3-0.2-0.4-0.3l-16.7-34.9c-0.1-0.1-0.1-0.3,0-0.5c0.1-0.2,0.2-0.3,0.3-0.3l46.9-20.9
				c0.2-0.1,0.5,0,0.7,0.1c0.2,0.2,0.2,0.5,0.1,0.7l-30.2,55.8c-0.1,0.2-0.3,0.3-0.6,0.3C99.3,753.2,99.3,753.2,99.2,753.2z
				 M83.5,717.9l15.9,33.3l28.8-53.2L83.5,717.9z"/>
			<path class="st3" d="M51.1,711.8c-0.2-0.1-0.4-0.2-0.5-0.5c-0.1-0.2,0-0.5,0.2-0.6l59.1-47c0.2-0.2,0.5-0.2,0.8,0
				c0.2,0.2,0.3,0.5,0.2,0.8l-27.7,53.4c-0.1,0.2-0.4,0.4-0.7,0.3L51.1,711.8C51.1,711.8,51.1,711.8,51.1,711.8z M108.5,666.5
				l-55.8,44.4l29.7,6.1L108.5,666.5z M82.7,717.6L82.7,717.6L82.7,717.6z"/>
			<path class="st3" d="M82.5,718.2c-0.1,0-0.2-0.1-0.3-0.2c-0.2-0.2-0.2-0.5-0.1-0.7l27.7-53.4c0.1-0.2,0.3-0.3,0.5-0.3
				c0.2,0,0.4,0.1,0.5,0.3l19.3,32.6c0.1,0.2,0.1,0.3,0.1,0.5c-0.1,0.2-0.2,0.3-0.3,0.4l-46.9,20.9
				C82.8,718.3,82.7,718.3,82.5,718.2z M110.4,665.5L84,716.4l44.7-19.9L110.4,665.5z"/>
			<path class="st3" d="M173.9,669.2c-0.2,0-0.4-0.2-0.4-0.4l-17-47.3c-0.1-0.2,0-0.4,0-0.5c0.1-0.1,0.2-0.3,0.4-0.3l65.7-13.4
				c0.2,0,0.5,0.1,0.6,0.3c0.1,0.2,0.1,0.5,0,0.7l-48.6,60.7C174.4,669.1,174.1,669.1,173.9,669.2z M157.8,621.7l16.4,45.6
				l46.9-58.5L157.8,621.7z"/>
			<path class="st3" d="M110.2,664.8c-0.2,0-0.4-0.2-0.4-0.4c-0.1-0.2,0-0.5,0.2-0.7l46.7-42.9c0.1-0.1,0.4-0.2,0.6-0.1c0,0,0,0,0,0
				c0.2,0,0.4,0.2,0.4,0.4l17,47.3c0.1,0.2,0,0.4-0.1,0.6c-0.1,0.2-0.3,0.3-0.5,0.2L110.2,664.8
				C110.3,664.8,110.2,664.8,110.2,664.8z M156.7,622.4l-44.9,41.3l61.3,4.2L156.7,622.4z"/>
			<path class="st3" d="M129.5,697.4L129.5,697.4c-0.2,0-0.3-0.1-0.4-0.3l-19.3-32.6c-0.1-0.2-0.1-0.4,0-0.6
				c0.1-0.2,0.3-0.3,0.6-0.3l63.7,4.3c0.2,0,0.5,0.2,0.6,0.5c0.1,0.3,0,0.5-0.3,0.7l-44.4,28.2C129.8,697.4,129.6,697.4,129.5,697.4
				z M111.5,664.9l18.4,31l42.3-26.9L111.5,664.9z"/>
			<path class="st3" d="M173.9,669.2c-0.2,0-0.3-0.2-0.4-0.3c-0.1-0.2-0.1-0.5,0.1-0.7l48.6-60.7c0.1-0.2,0.3-0.2,0.6-0.2
				c0.2,0,0.4,0.1,0.5,0.3l25.2,54c0.1,0.2,0.1,0.4,0,0.6c-0.1,0.2-0.3,0.3-0.5,0.3l-73.8,6.7C174,669.2,174,669.2,173.9,669.2z
				 M222.5,609l-47.1,58.8l71.5-6.5L222.5,609z"/>
			<path class="st3" d="M174.3,715C174.3,715,174.2,715,174.3,715l-44.9-17.6c-0.2-0.1-0.4-0.3-0.4-0.5c0-0.2,0.1-0.4,0.3-0.6
				l44.4-28.2c0.2-0.1,0.4-0.1,0.6,0c0.2,0.1,0.3,0.3,0.3,0.5l0.4,45.8c0,0.2-0.1,0.4-0.3,0.5C174.6,715,174.4,715,174.3,715z
				 M131,696.6l42.8,16.8l-0.4-43.8L131,696.6z"/>
			<path class="st3" d="M139.4,756.7c-0.3,0-0.4-0.3-0.5-0.5l-9.9-59.3c0-0.2,0-0.4,0.2-0.6c0.2-0.1,0.4-0.2,0.6-0.1l44.8,17.6
				c0.2,0.1,0.3,0.2,0.4,0.4c0,0.2,0,0.4-0.1,0.5L140,756.5C139.9,756.7,139.6,756.8,139.4,756.7z M130.4,697.7l9.5,56.9l33.5-40
				L130.4,697.7z"/>
			<path class="st3" d="M139.4,756.7c-0.1,0-0.3-0.1-0.4-0.2c-0.2-0.2-0.1-0.5,0-0.7L174,714c0.2-0.2,0.5-0.3,0.8-0.1l30.4,19.2
				c0.2,0.1,0.3,0.4,0.3,0.6c0,0.2-0.2,0.4-0.4,0.5l-65.3,22.5C139.6,756.7,139.5,756.7,139.4,756.7z M174.5,715.2l-33.1,39.6
				l62-21.4L174.5,715.2z"/>
			<path class="st3" d="M174.3,715c0,0-0.1,0-0.1,0c-0.2-0.1-0.3-0.3-0.3-0.5l-0.4-45.8c0-0.3,0.2-0.6,0.6-0.6l73.8-6.7
				c0.3,0,0.5,0.1,0.6,0.4c0.1,0.3,0,0.5-0.2,0.7l-73.4,52.6C174.6,715,174.4,715,174.3,715z M174.7,669.1l0.4,44.1l70.6-50.6
				L174.7,669.1z"/>
			<path class="st3" d="M204.7,734.2c-0.1,0-0.1,0-0.2-0.1l-30.4-19.2c-0.2-0.1-0.3-0.3-0.3-0.5c0-0.2,0.1-0.4,0.3-0.5l73.4-52.6
				c0.2-0.2,0.6-0.1,0.8,0.1c0.2,0.2,0.3,0.5,0.1,0.8l-43,71.8c-0.1,0.1-0.2,0.2-0.4,0.3C204.9,734.2,204.8,734.2,204.7,734.2z
				 M175.5,714.4l29.1,18.4l41.2-68.7L175.5,714.4z"/>
			<path class="st3" d="M204.7,734.2c-0.2,0-0.3-0.1-0.4-0.3c-0.1-0.2-0.1-0.4,0-0.6l43-71.8c0.1-0.2,0.4-0.3,0.7-0.3
				c0.2,0.1,0.4,0.2,0.5,0.5l13.3,66.1c0,0.2,0,0.3-0.1,0.5c-0.1,0.1-0.3,0.2-0.4,0.2l-56.3,5.6
				C204.8,734.2,204.8,734.2,204.7,734.2z M247.6,663.5L206,732.9l54.4-5.5L247.6,663.5z"/>
			<path class="st3" d="M191.3,795c-0.1,0-0.2-0.1-0.3-0.1c-0.2-0.1-0.2-0.4-0.2-0.6l13.4-60.8c0.1-0.2,0.2-0.4,0.4-0.5
				c0.2-0.1,0.4,0,0.6,0.1l43.2,41.2c0.2,0.2,0.2,0.4,0.2,0.6c0,0.2-0.2,0.4-0.4,0.4L191.7,795C191.5,795,191.4,795,191.3,795z
				 M205.2,734.8l-12.9,58.7l54.6-18.9L205.2,734.8z"/>
			<path class="st3" d="M247.9,775.4c-0.1,0-0.2-0.1-0.3-0.2L204.4,734c-0.2-0.2-0.2-0.4-0.2-0.6c0.1-0.2,0.3-0.4,0.5-0.4l56.3-5.6
				c0.2,0,0.4,0.1,0.5,0.2c0.1,0.2,0.2,0.4,0.1,0.6L248.7,775c-0.1,0.2-0.2,0.4-0.4,0.4C248.1,775.4,248,775.4,247.9,775.4z
				 M206.2,734.1l41.5,39.6l12.6-45L206.2,734.1z"/>
			<path class="st3" d="M247.9,775.4c-0.1,0-0.3-0.1-0.3-0.2c-0.1-0.2-0.2-0.4-0.1-0.5l13.1-46.9c0.1-0.2,0.2-0.4,0.4-0.4
				c0.2,0,0.4,0,0.6,0.2l45.9,46.9c0.2,0.2,0.2,0.4,0.1,0.7c-0.1,0.2-0.3,0.4-0.6,0.4l-59,0C248,775.4,248,775.4,247.9,775.4z
				 M261.5,729.1l-12.6,45.1l56.7,0L261.5,729.1z"/>
			<path class="st3" d="M270.8,834.8c-0.2,0-0.4-0.2-0.4-0.4L247.5,775c-0.1-0.2,0-0.4,0.1-0.6c0.1-0.2,0.3-0.3,0.5-0.3l59,0
				c0.2,0,0.4,0.1,0.5,0.3c0.1,0.2,0.1,0.4,0,0.6l-36.1,59.4C271.4,834.8,271.2,834.9,270.8,834.8
				C270.9,834.9,270.9,834.8,270.8,834.8z M249,775.4l22.1,57.4l34.9-57.4L249,775.4z"/>
			<path class="st3" d="M260,914.2c-0.3,0-0.4-0.2-0.5-0.5l-4.3-24c0-0.2,0-0.4,0.1-0.5c0.1-0.1,0.3-0.2,0.5-0.2l25.5,2
				c0.3,0,0.4,0.2,0.5,0.4c0.1,0.2,0,0.5-0.1,0.6l-21.2,22C260.4,914.2,260.2,914.3,260,914.2z M256.6,890.3l4,22l19.5-20.2
				L256.6,890.3z"/>
			<path class="st3" d="M223,897.5c-0.3-0.1-0.4-0.3-0.5-0.5l-7.3-53.7c0-0.2,0-0.4,0.2-0.5c0.1-0.1,0.3-0.2,0.5-0.2l48.9,4.6
				c0.2,0,0.4,0.2,0.5,0.4c0.1,0.2,0,0.5-0.1,0.6l-41.6,49.1C223.5,897.5,223.2,897.5,223,897.5z M216.6,843.9l7,51.6l40-47.2
				L216.6,843.9z"/>
			<path class="st3" d="M180.5,840.4c-0.1,0-0.2-0.1-0.3-0.1c-0.2-0.1-0.2-0.4-0.2-0.6l5.1-25.8c0-0.2,0.2-0.4,0.4-0.5
				c0.2-0.1,0.5,0,0.6,0.2l17.5,19.1c0.1,0.2,0.2,0.4,0.1,0.6c-0.1,0.2-0.2,0.4-0.4,0.4l-22.6,6.6
				C180.8,840.4,180.6,840.5,180.5,840.4z M186.2,815.4l-4.7,23.6l20.7-6.1L186.2,815.4z"/>
			<path class="st3" d="M130.9,872.6c-0.2-0.1-0.4-0.2-0.5-0.5l-7.5-37.8c0-0.2,0-0.3,0.1-0.5c0.1-0.1,0.2-0.2,0.4-0.3l41.4-8.2
				c0.2,0,0.5,0.1,0.6,0.3c0.1,0.2,0.1,0.5,0,0.7l-33.9,45.9C131.4,872.6,131.2,872.7,130.9,872.6L130.9,872.6z M124.2,834.8
				l7.1,35.8l32.1-43.6L124.2,834.8z"/>
			<path class="st3" d="M91.6,823.4c-0.2,0-0.3-0.1-0.4-0.3c-0.1-0.2-0.1-0.5,0-0.7l28.3-39.3c0.1-0.2,0.4-0.3,0.6-0.2l0,0
				c0.2,0.1,0.4,0.3,0.5,0.5l5.4,32.3c0.1,0.3-0.2,0.6-0.5,0.7l-33.7,7C91.8,823.4,91.7,823.4,91.6,823.4z M119.7,785l-26.5,36.8
				l31.5-6.6L119.7,785z"/>
			<path class="st3" d="M93.8,792.9c-0.2-0.1-0.4-0.2-0.4-0.4l-4.9-17.2c-0.1-0.2,0-0.4,0.1-0.6c0.1-0.2,0.3-0.2,0.5-0.2l17.7,1.2
				c0.2,0,0.4,0.2,0.5,0.4c0.1,0.2,0.1,0.5-0.1,0.6l-12.8,16C94.3,792.9,94.1,792.9,93.8,792.9z M89.9,775.8l4.4,15.2l11.3-14.1
				L89.9,775.8z"/>
			<path class="st3" d="M51.8,767.9c-0.1,0-0.2-0.1-0.3-0.2c-0.2-0.2-0.2-0.5-0.1-0.7l22.2-38.7c0.1-0.2,0.3-0.3,0.6-0.3
				c0.2,0,0.4,0.1,0.5,0.3l13.5,27.2c0.1,0.2,0.1,0.3,0,0.5c-0.1,0.2-0.2,0.3-0.4,0.3l-35.7,11.5C52,768,51.9,768,51.8,767.9z
				 M74.1,729.9l-20.8,36.4l33.5-10.8L74.1,729.9z"/>
			<path class="st3" d="M25.6,734.7c-0.2,0-0.4-0.2-0.4-0.4c-0.1-0.2,0-0.5,0.2-0.7l17.5-14.8c0.2-0.1,0.3-0.2,0.5-0.1
				c0.2,0.1,0.4,0.2,0.4,0.4l4.4,15c0.1,0.2,0,0.4-0.1,0.5c-0.1,0.2-0.3,0.2-0.5,0.2l-21.9-0.2C25.7,734.8,25.7,734.8,25.6,734.7z
				 M43,720.4l-15.5,13.2l19.5,0.2L43,720.4z"/>
			<path class="st3" d="M177.4,885.2c-0.2,0-0.3-0.1-0.4-0.3l-13-21.1c-0.1-0.2-0.1-0.4,0-0.6c0.1-0.2,0.3-0.3,0.5-0.4l21.9-3.8
				c0.2-0.1,0.4,0,0.6,0.2c0.1,0.2,0.2,0.4,0.1,0.6l-8.9,24.9c-0.1,0.2-0.3,0.4-0.5,0.4C177.6,885.2,177.5,885.2,177.4,885.2z
				 M165.6,864l11.8,19.2l8.1-22.7L165.6,864z"/>
			<path class="st3" d="M194.1,520.8c-0.1,0-0.1,0-0.2-0.1c-0.3-0.1-0.4-0.5-0.3-0.7l22.6-67.2c0.1-0.2,0.2-0.3,0.4-0.4
				c0.2-0.1,0.3-0.1,0.5,0l22.8,11.4c0.2,0.1,0.3,0.2,0.3,0.4c0,0.2,0,0.4-0.1,0.5l-45.4,55.7C194.6,520.8,194.4,520.9,194.1,520.8z
				 M217.2,453.9l-21.3,63.3l42.7-52.5L217.2,453.9z"/>
			<path class="st3" d="M239.5,465.1c0,0-0.1,0-0.1,0l-22.8-11.4c-0.1-0.1-0.3-0.2-0.3-0.4c0-0.2,0-0.3,0-0.5l28.6-54.5
				c0.1-0.3,0.4-0.4,0.7-0.3c0.3,0,0.5,0.4,0.5,0.7l-5.9,65.9c0,0.2-0.1,0.4-0.3,0.5C239.8,465.1,239.6,465.1,239.5,465.1z
				 M217.7,452.8l21.4,10.8l5.5-62L217.7,452.8z"/>
			<path class="st3" d="M239.5,465.1C239.5,465.1,239.4,465.1,239.5,465.1c-0.3-0.1-0.5-0.4-0.5-0.7l5.9-65.9c0-0.3,0.3-0.5,0.6-0.6
				l36.7-1c0.2,0,0.4,0.1,0.6,0.3c0.1,0.2,0.1,0.4,0,0.6l-42.5,66.9C240,465,239.7,465.2,239.5,465.1z M246.1,399.2l-5.6,62.9
				l40.6-63.8L246.1,399.2z"/>
			<circle class="st3" cx="374" cy="443.6" r="6.8"/>
			
				<ellipse transform="matrix(0.5854 -0.8107 0.8107 0.5854 -126.5517 397.6128)" class="st3" cx="325.5" cy="322.5" rx="6.8" ry="6.8"/>
			
				<ellipse transform="matrix(0.5854 -0.8107 0.8107 0.5854 -115.1171 651.2109)" class="st3" cx="579.2" cy="438.2" rx="6.8" ry="6.8"/>
			<path class="st3" d="M532.2,613.3c-0.9,3.7-4.6,6-8.2,5.1c-3.7-0.9-6-4.6-5.1-8.2c0.9-3.7,4.6-6,8.2-5.1
				C530.8,605.9,533.1,609.6,532.2,613.3z"/>
			<circle class="st3" cx="575.6" cy="157.8" r="6.8"/>
			
				<ellipse transform="matrix(0.5871 -0.8095 0.8095 0.5871 -276.3681 385.5848)" class="st3" cx="239.8" cy="463.7" rx="6.8" ry="6.8"/>
			<circle class="st3" cx="324.8" cy="704.3" r="6.8"/>
			<path class="st3" d="M162.1,623.8c-0.9,3.7-4.6,6-8.2,5.1c-3.7-0.9-6-4.6-5.1-8.2s4.6-6,8.2-5.1
				C160.7,616.5,163,620.2,162.1,623.8z"/>
			<circle class="st3" cx="248.3" cy="662.6" r="4.5"/>
			
				<ellipse transform="matrix(0.383 -0.9237 0.9237 0.383 -162.2164 844.1481)" class="st3" cx="550.8" cy="543.5" rx="4.5" ry="4.5"/>
			<circle class="st3" cx="486.4" cy="578" r="4.5"/>
			<circle class="st3" cx="452.9" cy="463.1" r="4.5"/>
			<circle class="st3" cx="109.5" cy="663.4" r="4.5"/>
			<circle class="st3" cx="332.1" cy="507.5" r="4.5"/>
			<circle class="st3" cx="282" cy="398.2" r="4.5"/>
			<circle class="st3" cx="466.9" cy="313.9" r="4.5"/>
			<circle class="st3" cx="509.9" cy="332.1" r="4.5"/>
			<circle class="st3" cx="471.9" cy="171.6" r="4.5"/>
		</g>
		<g>
			<polygon class="st4" points="282.2,397.6 243.9,415.8 216.9,453 245.5,398.6 			"/>
			<polygon class="st4" points="613.8,158.6 605.7,137.2 584.9,135.7 530.7,151.6 472,171 533.7,142.1 590.6,119.4 612.1,132.9 			
				"/>
			<polygon class="st5" points="325.6,321.9 400.1,261.3 425.6,239.5 442.7,202.9 418.2,230.3 386.6,259.4 			"/>
			<polygon class="st5" points="419,343.6 465,313.7 509.1,288.5 539.6,291.1 562.5,315.4 534,299.8 509.2,301.1 466,323.5 			"/>
			<polygon class="st5" points="501.8,417.1 537.3,384.2 558.4,388.6 580.2,417 555.8,396.2 538.6,394 			"/>
			<polygon class="st5" points="558.1,474.8 573.4,462.7 595.4,468.9 610.3,495.4 590.6,476.4 573.2,472.8 			"/>
			<polygon class="st5" points="320.4,845 346.2,799.6 392.7,770.3 441,745.8 495.4,704.2 442.1,756.2 398.2,782.4 357.5,806.8 			
				"/>
			<polygon class="st6" points="110.3,664.2 162.5,635.8 189.1,575.2 194.3,520.2 182.5,567.5 157,621.3 			"/>
			<polygon class="st6" points="610.3,495.4 600.1,537.1 573.9,581.9 531.1,649 568.8,572.1 595.4,530.8 			"/>
			<polygon class="st6" points="517.6,514.8 553.1,465.9 578.9,437.5 544.4,464.5 			"/>
			<polygon class="st6" points="562.5,315.4 558.3,341 537.3,384.2 501.8,417.1 533.1,376.4 551.5,339.4 			"/>
		</g>
	</g>
</g>
<g>
	<g>
		
			<linearGradient id="SVGID_1_" gradientUnits="userSpaceOnUse" x1="31.602" y1="296.8625" x2="475.8064" y2="529.2153" gradientTransform="matrix(0.973 0.2306 -0.2306 0.973 104.7881 -45.8722)">
			<stop  offset="0" style="stop-color:#FFFFFF"/>
			<stop  offset="1" style="stop-color:#000000;stop-opacity:0"/>
		</linearGradient>
		<path class="st7" d="M146.3,324.9c-2.7-0.6-4.3-3.3-3.7-6c0.6-2.7,3.3-4.3,6-3.7c2.7,0.6,4.3,3.3,3.7,6
			C151.7,323.8,149,325.5,146.3,324.9z M146.7,323.4c1.9,0.4,3.8-0.7,4.2-2.6c0.4-1.9-0.7-3.8-2.6-4.2c-1.9-0.4-3.8,0.7-4.2,2.6
			C143.6,321.1,144.8,323,146.7,323.4z"/>
		<g>
			
				<linearGradient id="SVGID_2_" gradientUnits="userSpaceOnUse" x1="-3147.8848" y1="-2905.1694" x2="-2703.6863" y2="-2672.8198" gradientTransform="matrix(0.973 0.2306 -0.2306 0.973 2543.2346 3698.5518)">
				<stop  offset="0" style="stop-color:#FFFFFF"/>
				<stop  offset="1" style="stop-color:#000000;stop-opacity:0"/>
			</linearGradient>
			<polygon class="st8" points="281.9,265.8 284.3,255.6 282.8,255.3 280.5,265.4 			"/>
			
				<linearGradient id="SVGID_3_" gradientUnits="userSpaceOnUse" x1="-3146.7224" y1="-2907.3906" x2="-2702.5237" y2="-2675.041" gradientTransform="matrix(0.973 0.2306 -0.2306 0.973 2543.2346 3698.5518)">
				<stop  offset="0" style="stop-color:#FFFFFF"/>
				<stop  offset="1" style="stop-color:#000000;stop-opacity:0"/>
			</linearGradient>
			<polygon class="st9" points="287.1,267 289.5,256.9 288.1,256.6 285.7,266.7 			"/>
			
				<linearGradient id="SVGID_4_" gradientUnits="userSpaceOnUse" x1="-3145.5605" y1="-2909.6123" x2="-2701.3618" y2="-2677.2627" gradientTransform="matrix(0.973 0.2306 -0.2306 0.973 2543.2346 3698.5518)">
				<stop  offset="0" style="stop-color:#FFFFFF"/>
				<stop  offset="1" style="stop-color:#000000;stop-opacity:0"/>
			</linearGradient>
			<polygon class="st10" points="292.4,268.2 294.8,258.1 293.4,257.8 291,267.9 			"/>
		</g>
		
			<linearGradient id="SVGID_5_" gradientUnits="userSpaceOnUse" x1="-3137.9207" y1="-2911.7866" x2="-2693.7146" y2="-2679.4329" gradientTransform="matrix(0.973 0.2306 -0.2306 0.973 2543.2346 3698.5518)">
			<stop  offset="0" style="stop-color:#FFFFFF"/>
			<stop  offset="1" style="stop-color:#000000;stop-opacity:0"/>
		</linearGradient>
		<path class="st11" d="M360.9,308.6c1.5-6.1-2.4-12.3-8.5-13.8l-0.3,1.4c5.4,1.3,8.7,6.7,7.4,12c-1.3,5.4-6.7,8.7-12,7.4l-0.3,1.4
			C353.2,318.6,359.4,314.7,360.9,308.6z"/>
		
			<linearGradient id="SVGID_6_" gradientUnits="userSpaceOnUse" x1="-3154.4941" y1="-2880.1013" x2="-2710.2898" y2="-2647.7485" gradientTransform="matrix(0.973 0.2306 -0.2306 0.973 2543.2346 3698.5518)">
			<stop  offset="0" style="stop-color:#FFFFFF"/>
			<stop  offset="1" style="stop-color:#000000;stop-opacity:0"/>
		</linearGradient>
		<path class="st12" d="M211.6,225.6c1.5-6.1-2.4-12.3-8.5-13.8c-6.1-1.5-12.3,2.4-13.8,8.5c-1.5,6.1,2.4,12.3,8.5,13.8l0.3-1.4
			c-5.4-1.3-8.7-6.7-7.4-12c1.3-5.4,6.7-8.7,12-7.4c5.4,1.3,8.7,6.7,7.4,12L211.6,225.6z"/>
		
			<linearGradient id="SVGID_7_" gradientUnits="userSpaceOnUse" x1="-3140.9172" y1="-2918.4951" x2="-2696.7124" y2="-2686.1423" gradientTransform="matrix(0.973 0.2306 -0.2306 0.973 2543.2346 3698.5518)">
			<stop  offset="0" style="stop-color:#FFFFFF"/>
			<stop  offset="1" style="stop-color:#000000;stop-opacity:0"/>
		</linearGradient>
		<path class="st13" d="M331.9,286.9l0.3-1.4c-6.9-1.6-11.1-8.5-9.5-15.4l-1.4-0.3C319.4,277.4,324.2,285.1,331.9,286.9z"/>
		<g>
			
				<linearGradient id="SVGID_8_" gradientUnits="userSpaceOnUse" x1="70.5412" y1="209.9833" x2="514.7466" y2="442.3367" gradientTransform="matrix(0.973 0.2306 -0.2306 0.973 104.7881 -45.8722)">
				<stop  offset="0" style="stop-color:#FFFFFF"/>
				<stop  offset="1" style="stop-color:#000000;stop-opacity:0"/>
			</linearGradient>
			<path class="st14" d="M234.4,274.1c-5.4,3.3-12.4,1.6-15.7-3.7c-1.6-2.6-2.1-5.7-1.4-8.6c0.7-3,2.5-5.5,5.1-7.1
				c2.6-1.6,5.7-2.1,8.6-1.4c3,0.7,5.5,2.5,7.1,5.1l0,0l0,0c1.6,2.6,2.1,5.7,1.4,8.6C238.8,270,237,272.5,234.4,274.1z M219.9,269.6
				c2.9,4.7,9,6.1,13.7,3.2c2.3-1.4,3.8-3.6,4.5-6.2c0.6-2.6,0.2-5.3-1.2-7.5l0,0c-1.4-2.3-3.6-3.8-6.2-4.5
				c-2.6-0.6-5.3-0.2-7.5,1.2c-2.3,1.4-3.8,3.6-4.5,6.2C218.1,264.7,218.5,267.4,219.9,269.6z"/>
			
				<linearGradient id="SVGID_9_" gradientUnits="userSpaceOnUse" x1="-3160.9182" y1="-2880.2556" x2="-2716.7156" y2="-2647.9038" gradientTransform="matrix(0.973 0.2306 -0.2306 0.973 2543.2346 3698.5518)">
				<stop  offset="0" style="stop-color:#FFFFFF"/>
				<stop  offset="1" style="stop-color:#000000;stop-opacity:0"/>
			</linearGradient>
			<path class="st15" d="M240.8,256.8c-1.1-1.8-3.5-2.4-5.4-1.3c-1.8,1.1-2.4,3.5-1.3,5.4c1.1,1.8,3.5,2.4,5.4,1.3
				C241.4,261,242,258.6,240.8,256.8z"/>
			
				<linearGradient id="SVGID_10_" gradientUnits="userSpaceOnUse" x1="-3170.3694" y1="-2862.1899" x2="-2726.1643" y2="-2629.8367" gradientTransform="matrix(0.973 0.2306 -0.2306 0.973 2543.2346 3698.5518)">
				<stop  offset="0" style="stop-color:#FFFFFF"/>
				<stop  offset="1" style="stop-color:#000000;stop-opacity:0"/>
			</linearGradient>
			<path class="st16" d="M222.6,268c-1.1-1.8-3.5-2.4-5.4-1.3c-1.8,1.1-2.4,3.5-1.3,5.4c1.1,1.8,3.5,2.4,5.4,1.3
				C223.2,272.2,223.8,269.8,222.6,268z"/>
		</g>
		
			<linearGradient id="SVGID_11_" gradientUnits="userSpaceOnUse" x1="-3163.7537" y1="-2862.3994" x2="-2719.5498" y2="-2630.0471" gradientTransform="matrix(0.973 0.2306 -0.2306 0.973 2543.2346 3698.5518)">
			<stop  offset="0" style="stop-color:#FFFFFF"/>
			<stop  offset="1" style="stop-color:#000000;stop-opacity:0"/>
		</linearGradient>
		<polygon class="st17" points="406.1,431.8 343.5,330.3 354,286 334.3,253.9 199.1,221.9 180.9,298.3 150.6,317.1 151.3,318.3 
			182.2,299.3 200.2,223.6 333.3,255.2 352.5,286.2 341.9,330.6 404.9,432.5 		"/>
		
			<linearGradient id="SVGID_12_" gradientUnits="userSpaceOnUse" x1="-3195.1152" y1="-2884.5383" x2="-2707.093" y2="-2629.2656" gradientTransform="matrix(0.973 0.2306 -0.2306 0.973 2543.2346 3698.5518)">
			<stop  offset="0" style="stop-color:#FFFFFF"/>
			<stop  offset="1" style="stop-color:#000000;stop-opacity:0"/>
		</linearGradient>
		<polygon class="st18" points="368.9,393.1 324.5,321.1 336,272.5 248.1,251.7 247.9,251.8 209.9,275.2 112.1,252 111.7,253.5 
			210.2,276.8 210.4,276.6 248.4,253.2 334.3,273.6 322.9,321.4 367.6,393.9 		"/>
		
			<linearGradient id="SVGID_13_" gradientUnits="userSpaceOnUse" x1="15.464" y1="259.7997" x2="459.6704" y2="492.1535" gradientTransform="matrix(0.973 0.2306 -0.2306 0.973 104.7881 -45.8722)">
			<stop  offset="0" style="stop-color:#FFFFFF"/>
			<stop  offset="1" style="stop-color:#000000;stop-opacity:0"/>
		</linearGradient>
		<path class="st19" d="M106.6,256.8c-2.7-0.6-4.3-3.3-3.7-6c0.6-2.7,3.3-4.3,6-3.7c2.7,0.6,4.3,3.3,3.7,6
			C112,255.8,109.3,257.5,106.6,256.8z M106.9,255.4c1.9,0.4,3.8-0.7,4.2-2.6c0.4-1.9-0.7-3.8-2.6-4.2c-1.9-0.4-3.8,0.7-4.2,2.6
			C103.9,253,105,254.9,106.9,255.4z"/>
	</g>
	<g>
		
			<linearGradient id="SVGID_14_" gradientUnits="userSpaceOnUse" x1="69.3118" y1="224.771" x2="513.5175" y2="457.1244" gradientTransform="matrix(0.973 0.2306 -0.2306 0.973 104.7881 -45.8722)">
			<stop  offset="0" style="stop-color:#FFFFFF"/>
			<stop  offset="1" style="stop-color:#000000;stop-opacity:0"/>
		</linearGradient>
		<path class="st20" d="M257,325.1l4.6-19.4l19.4,4.6l-4.6,19.4L257,325.1z M262.3,307l-4.1,17.4l17.4,4.1l4.1-17.4L262.3,307z"/>
		
			<linearGradient id="SVGID_15_" gradientUnits="userSpaceOnUse" x1="67.2687" y1="228.6779" x2="511.4732" y2="461.0308" gradientTransform="matrix(0.973 0.2306 -0.2306 0.973 104.7881 -45.8722)">
			<stop  offset="0" style="stop-color:#FFFFFF"/>
			<stop  offset="1" style="stop-color:#000000;stop-opacity:0"/>
		</linearGradient>
		<path class="st21" d="M264.8,337.7l4.6-19.4l19.4,4.6l-4.6,19.4L264.8,337.7z M270.1,319.5L266,337l17.4,4.1l4.1-17.4L270.1,319.5
			z"/>
	</g>
</g>
<g>
	<g>
		
			<linearGradient id="SVGID_16_" gradientUnits="userSpaceOnUse" x1="485.4997" y1="744.7446" x2="929.7054" y2="977.0981" gradientTransform="matrix(0.973 0.2306 -0.2306 0.973 104.7881 -45.8722)">
			<stop  offset="0" style="stop-color:#FFFFFF"/>
			<stop  offset="1" style="stop-color:#000000;stop-opacity:0"/>
		</linearGradient>
		<path class="st22" d="M487,855.7c2.7,0.6,4.3,3.3,3.7,6c-0.6,2.7-3.3,4.3-6,3.7c-2.7-0.6-4.3-3.3-3.7-6
			C481.6,856.7,484.3,855,487,855.7z M486.7,857.1c-1.9-0.4-3.8,0.7-4.2,2.6c-0.4,1.9,0.7,3.8,2.6,4.2c1.9,0.4,3.8-0.7,4.2-2.6
			C489.7,859.4,488.5,857.5,486.7,857.1z"/>
		<g>
			
				<linearGradient id="SVGID_17_" gradientUnits="userSpaceOnUse" x1="-3222.4038" y1="-2882.5078" x2="-2778.1931" y2="-2650.1516" gradientTransform="matrix(-0.973 -0.2306 0.2306 -0.973 -1987.6414 -2513.1567)">
				<stop  offset="0" style="stop-color:#FFFFFF"/>
				<stop  offset="1" style="stop-color:#000000;stop-opacity:0"/>
			</linearGradient>
			<polygon class="st23" points="351.4,914.8 349,924.9 350.5,925.2 352.9,915.1 			"/>
			
				<linearGradient id="SVGID_18_" gradientUnits="userSpaceOnUse" x1="-3221.2417" y1="-2884.729" x2="-2777.0308" y2="-2652.3728" gradientTransform="matrix(-0.973 -0.2306 0.2306 -0.973 -1987.6414 -2513.1567)">
				<stop  offset="0" style="stop-color:#FFFFFF"/>
				<stop  offset="1" style="stop-color:#000000;stop-opacity:0"/>
			</linearGradient>
			<polygon class="st24" points="346.2,913.5 343.8,923.6 345.2,924 347.6,913.9 			"/>
			
				<linearGradient id="SVGID_19_" gradientUnits="userSpaceOnUse" x1="-3220.0798" y1="-2886.9507" x2="-2775.8689" y2="-2654.5945" gradientTransform="matrix(-0.973 -0.2306 0.2306 -0.973 -1987.6414 -2513.1567)">
				<stop  offset="0" style="stop-color:#FFFFFF"/>
				<stop  offset="1" style="stop-color:#000000;stop-opacity:0"/>
			</linearGradient>
			<polygon class="st25" points="340.9,912.3 338.5,922.4 340,922.7 342.3,912.6 			"/>
		</g>
		
			<linearGradient id="SVGID_20_" gradientUnits="userSpaceOnUse" x1="-3212.4348" y1="-2889.1223" x2="-2768.23" y2="-2656.7693" gradientTransform="matrix(-0.973 -0.2306 0.2306 -0.973 -1987.6414 -2513.1567)">
			<stop  offset="0" style="stop-color:#FFFFFF"/>
			<stop  offset="1" style="stop-color:#000000;stop-opacity:0"/>
		</linearGradient>
		<path class="st26" d="M272.4,871.9c-1.5,6.1,2.4,12.3,8.5,13.8l0.3-1.4c-5.4-1.3-8.7-6.7-7.4-12c1.3-5.4,6.7-8.7,12-7.4l0.3-1.4
			C280.1,862,273.9,865.8,272.4,871.9z"/>
		
			<linearGradient id="SVGID_21_" gradientUnits="userSpaceOnUse" x1="-3229.0095" y1="-2857.4377" x2="-2784.802" y2="-2625.0833" gradientTransform="matrix(-0.973 -0.2306 0.2306 -0.973 -1987.6414 -2513.1567)">
			<stop  offset="0" style="stop-color:#FFFFFF"/>
			<stop  offset="1" style="stop-color:#000000;stop-opacity:0"/>
		</linearGradient>
		<path class="st27" d="M421.7,954.9c-1.5,6.1,2.4,12.3,8.5,13.8c6.1,1.5,12.3-2.4,13.8-8.5s-2.4-12.3-8.5-13.8l-0.3,1.4
			c5.4,1.3,8.7,6.7,7.4,12c-1.3,5.4-6.7,8.7-12,7.4c-5.4-1.3-8.7-6.7-7.4-12L421.7,954.9z"/>
		
			<linearGradient id="SVGID_22_" gradientUnits="userSpaceOnUse" x1="-3215.4329" y1="-2895.8318" x2="-2771.2263" y2="-2663.4778" gradientTransform="matrix(-0.973 -0.2306 0.2306 -0.973 -1987.6414 -2513.1567)">
			<stop  offset="0" style="stop-color:#FFFFFF"/>
			<stop  offset="1" style="stop-color:#000000;stop-opacity:0"/>
		</linearGradient>
		<path class="st28" d="M301.5,893.6l-0.3,1.4c6.9,1.6,11.1,8.5,9.5,15.4l1.4,0.3C313.9,903.1,309.1,895.4,301.5,893.6z"/>
		<g>
			
				<linearGradient id="SVGID_23_" gradientUnits="userSpaceOnUse" x1="392.5945" y1="803.3954" x2="836.7983" y2="1035.7479" gradientTransform="matrix(0.973 0.2306 -0.2306 0.973 104.7881 -45.8722)">
				<stop  offset="0" style="stop-color:#FFFFFF"/>
				<stop  offset="1" style="stop-color:#000000;stop-opacity:0"/>
			</linearGradient>
			<path class="st29" d="M398.9,906.4c5.4-3.3,12.4-1.6,15.7,3.7c1.6,2.6,2.1,5.7,1.4,8.6c-0.7,3-2.5,5.5-5.1,7.1
				c-2.6,1.6-5.7,2.1-8.6,1.4c-3-0.7-5.5-2.5-7.1-5.1l0,0l0,0c-1.6-2.6-2.1-5.7-1.4-8.6C394.5,910.5,396.3,908,398.9,906.4z
				 M413.4,910.9c-2.9-4.7-9-6.1-13.7-3.2c-2.3,1.4-3.8,3.6-4.5,6.2c-0.6,2.6-0.2,5.3,1.2,7.5l0,0c1.4,2.3,3.6,3.8,6.2,4.5
				c2.6,0.6,5.3,0.2,7.5-1.2c2.3-1.4,3.8-3.6,4.5-6.2C415.2,915.8,414.8,913.1,413.4,910.9z"/>
			
				<linearGradient id="SVGID_24_" gradientUnits="userSpaceOnUse" x1="-3235.4346" y1="-2857.5928" x2="-2791.2266" y2="-2625.2378" gradientTransform="matrix(-0.973 -0.2306 0.2306 -0.973 -1987.6414 -2513.1567)">
				<stop  offset="0" style="stop-color:#FFFFFF"/>
				<stop  offset="1" style="stop-color:#000000;stop-opacity:0"/>
			</linearGradient>
			<path class="st30" d="M392.5,923.8c1.1,1.8,3.5,2.4,5.4,1.3c1.8-1.1,2.4-3.5,1.3-5.4c-1.1-1.8-3.5-2.4-5.4-1.3
				C391.9,919.5,391.4,921.9,392.5,923.8z"/>
			
				<linearGradient id="SVGID_25_" gradientUnits="userSpaceOnUse" x1="-3244.884" y1="-2839.5259" x2="-2800.6792" y2="-2607.1729" gradientTransform="matrix(-0.973 -0.2306 0.2306 -0.973 -1987.6414 -2513.1567)">
				<stop  offset="0" style="stop-color:#FFFFFF"/>
				<stop  offset="1" style="stop-color:#000000;stop-opacity:0"/>
			</linearGradient>
			<path class="st31" d="M410.7,912.5c1.1,1.8,3.5,2.4,5.4,1.3c1.8-1.1,2.4-3.5,1.3-5.4c-1.1-1.8-3.5-2.4-5.4-1.3
				C410.1,908.3,409.6,910.7,410.7,912.5z"/>
		</g>
		
			<linearGradient id="SVGID_26_" gradientUnits="userSpaceOnUse" x1="-3238.2686" y1="-2839.7356" x2="-2794.0647" y2="-2607.3831" gradientTransform="matrix(-0.973 -0.2306 0.2306 -0.973 -1987.6414 -2513.1567)">
			<stop  offset="0" style="stop-color:#FFFFFF"/>
			<stop  offset="1" style="stop-color:#000000;stop-opacity:0"/>
		</linearGradient>
		<polygon class="st32" points="227.2,748.8 289.8,850.2 279.3,894.6 299.1,926.6 434.3,958.7 452.4,882.2 482.8,863.5 482,862.2 
			451.1,881.3 433.2,956.9 300,925.3 280.9,894.3 291.4,850 228.5,748 		"/>
		
			<linearGradient id="SVGID_27_" gradientUnits="userSpaceOnUse" x1="-3269.6301" y1="-2861.8745" x2="-2781.6082" y2="-2606.6016" gradientTransform="matrix(-0.973 -0.2306 0.2306 -0.973 -1987.6414 -2513.1567)">
			<stop  offset="0" style="stop-color:#FFFFFF"/>
			<stop  offset="1" style="stop-color:#000000;stop-opacity:0"/>
		</linearGradient>
		<polygon class="st33" points="264.4,787.4 308.8,859.4 297.3,908 385.2,928.9 385.5,928.7 423.4,905.3 521.2,928.5 521.6,927.1 
			423.2,903.7 422.9,903.9 384.9,927.3 299.1,906.9 310.4,859.1 265.7,786.7 		"/>
		
			<linearGradient id="SVGID_28_" gradientUnits="userSpaceOnUse" x1="578.0663" y1="821.7854" x2="1022.2725" y2="1054.1392" gradientTransform="matrix(0.973 0.2306 -0.2306 0.973 104.7881 -45.8722)">
			<stop  offset="0" style="stop-color:#FFFFFF"/>
			<stop  offset="1" style="stop-color:#000000;stop-opacity:0"/>
		</linearGradient>
		<path class="st34" d="M526.7,923.7c2.7,0.6,4.3,3.3,3.7,6c-0.6,2.7-3.3,4.3-6,3.7s-4.3-3.3-3.7-6
			C521.4,924.7,524.1,923.1,526.7,923.7z M526.4,925.1c-1.9-0.4-3.8,0.7-4.2,2.6c-0.4,1.9,0.7,3.8,2.6,4.2c1.9,0.4,3.8-0.7,4.2-2.6
			C529.4,927.5,528.3,925.6,526.4,925.1z"/>
	</g>
	<g>
		
			<linearGradient id="SVGID_29_" gradientUnits="userSpaceOnUse" x1="287.746" y1="733.121" x2="731.9507" y2="965.4739" gradientTransform="matrix(0.973 0.2306 -0.2306 0.973 104.7881 -45.8722)">
			<stop  offset="0" style="stop-color:#FFFFFF"/>
			<stop  offset="1" style="stop-color:#000000;stop-opacity:0"/>
		</linearGradient>
		<path class="st35" d="M376.3,855.4l-4.6,19.4l-19.4-4.6l4.6-19.4L376.3,855.4z M371,873.6l4.1-17.4l-17.4-4.1l-4.1,17.4L371,873.6
			z"/>
		
			<linearGradient id="SVGID_30_" gradientUnits="userSpaceOnUse" x1="264.835" y1="716.1611" x2="709.0385" y2="948.5134" gradientTransform="matrix(0.973 0.2306 -0.2306 0.973 104.7881 -45.8722)">
			<stop  offset="0" style="stop-color:#FFFFFF"/>
			<stop  offset="1" style="stop-color:#000000;stop-opacity:0"/>
		</linearGradient>
		<path class="st36" d="M368.6,842.8l-4.6,19.4l-19.4-4.6l4.6-19.4L368.6,842.8z M363.2,861l4.1-17.4l-17.4-4.1l-4.1,17.4L363.2,861
			z"/>
	</g>
</g>
</svg>
