<?xml version="1.0" encoding="utf-8"?>
<!-- Generator: Adobe Illustrator 24.2.1, SVG Export Plug-In . SVG Version: 6.00 Build 0)  -->
<svg version="1.1" id="Layer_1" xmlns="http://www.w3.org/2000/svg" xmlns:xlink="http://www.w3.org/1999/xlink" x="0px" y="0px"
	 viewBox="0 0 1689 1071" style="enable-background:new 0 0 1689 1071;" xml:space="preserve">
<style type="text/css">
	.st0{fill:none;}
	.st1{fill:#FFFFFF;}
	.st2{clip-path:url(#SVGID_2_);}
	.st3{clip-path:url(#SVGID_4_);fill:url(#SVGID_5_);}
	.st4{clip-path:url(#SVGID_4_);}
	.st5{fill:url(#SVGID_6_);}
	.st6{fill:url(#SVGID_7_);}
	.st7{fill:url(#SVGID_8_);}
	.st8{fill:url(#SVGID_9_);}
	.st9{fill:url(#SVGID_10_);}
	.st10{fill:url(#SVGID_11_);}
	.st11{fill:url(#SVGID_12_);}
	.st12{fill:url(#SVGID_13_);}
	.st13{fill:url(#SVGID_14_);}
	.st14{fill:url(#SVGID_15_);}
	.st15{fill:url(#SVGID_16_);}
	.st16{fill:url(#SVGID_17_);}
	.st17{fill:url(#SVGID_18_);}
	.st18{fill:none;stroke:#A8A8A8;stroke-miterlimit:10;}
	.st19{clip-path:url(#SVGID_20_);}
	.st20{fill:none;stroke:#FFFFFF;stroke-miterlimit:10;}
	.st21{fill:none;stroke:#F9F9F9;stroke-miterlimit:10;}
	.st22{fill:none;stroke:#F4F4F4;stroke-miterlimit:10;}
	.st23{fill:none;stroke:#EEEEEE;stroke-miterlimit:10;}
	.st24{fill:none;stroke:#E9E9E9;stroke-miterlimit:10;}
	.st25{fill:none;stroke:#E3E3E3;stroke-miterlimit:10;}
	.st26{fill:none;stroke:#DEDEDE;stroke-miterlimit:10;}
	.st27{fill:none;stroke:#D8D8D8;stroke-miterlimit:10;}
	.st28{fill:none;stroke:#D2D2D2;stroke-miterlimit:10;}
	.st29{fill:none;stroke:#CDCDCD;stroke-miterlimit:10;}
	.st30{fill:none;stroke:#C7C7C7;stroke-miterlimit:10;}
	.st31{fill:none;stroke:#C2C2C2;stroke-miterlimit:10;}
	.st32{fill:none;stroke:#BCBCBC;stroke-miterlimit:10;}
	.st33{fill:none;stroke:#B7B7B7;stroke-miterlimit:10;}
	.st34{fill:none;stroke:#B1B1B1;stroke-miterlimit:10;}
	.st35{fill:none;stroke:#ABABAB;stroke-miterlimit:10;}
	.st36{fill:none;stroke:#A6A6A6;stroke-miterlimit:10;}
	.st37{fill:none;stroke:#A0A0A0;stroke-miterlimit:10;}
	.st38{fill:none;stroke:#9B9B9B;stroke-miterlimit:10;}
	.st39{fill:none;stroke:#959595;stroke-miterlimit:10;}
	.st40{fill:none;stroke:#909090;stroke-miterlimit:10;}
	.st41{fill:none;stroke:#8A8A8A;stroke-miterlimit:10;}
	.st42{fill:none;stroke:#FBFBFB;stroke-miterlimit:10;}
	.st43{fill:none;stroke:#F6F6F6;stroke-miterlimit:10;}
	.st44{fill:none;stroke:#F2F2F2;stroke-miterlimit:10;}
	.st45{fill:none;stroke:#E5E5E5;stroke-miterlimit:10;}
	.st46{fill:none;stroke:#E1E1E1;stroke-miterlimit:10;}
	.st47{fill:none;stroke:#DCDCDC;stroke-miterlimit:10;}
	.st48{fill:none;stroke:#D4D4D4;stroke-miterlimit:10;}
	.st49{fill:none;stroke:#CFCFCF;stroke-miterlimit:10;}
	.st50{fill:none;stroke:#CBCBCB;stroke-miterlimit:10;}
	.st51{fill:none;stroke:#BEBEBE;stroke-miterlimit:10;}
	.st52{fill:none;stroke:#BABABA;stroke-miterlimit:10;}
	.st53{fill:none;stroke:#B5B5B5;stroke-miterlimit:10;}
	.st54{fill:none;stroke:#ADADAD;stroke-miterlimit:10;}
	.st55{fill:none;stroke:#A4A4A4;stroke-miterlimit:10;}
</style>
<rect x="-114" y="-53.57" class="st0" width="1917" height="1136.13"/>
<rect x="-114" y="-53.4" class="st1" width="1917" height="1136.02"/>
<g>
	<defs>
		<rect id="SVGID_1_" x="-114" y="-53.57" width="1916.88" height="1136.1"/>
	</defs>
	<clipPath id="SVGID_2_">
		<use xlink:href="#SVGID_1_"  style="overflow:visible;"/>
	</clipPath>
	<g class="st2">
		<g>
			<defs>
				<rect id="SVGID_3_" x="-114" y="-53.57" width="1917" height="1136.1"/>
			</defs>
			<clipPath id="SVGID_4_">
				<use xlink:href="#SVGID_3_"  style="overflow:visible;"/>
			</clipPath>
			<linearGradient id="SVGID_5_" gradientUnits="userSpaceOnUse" x1="-92.1039" y1="1089.675" x2="1757.2209" y2="-46.0359">
				<stop  offset="0" style="stop-color:#CCCCCC"/>
				<stop  offset="1" style="stop-color:#E6E6E6"/>
			</linearGradient>
			<rect x="-114" y="-53.57" class="st3" width="1917" height="1136.1"/>
			<g class="st4">
				
					<radialGradient id="SVGID_6_" cx="2493.4351" cy="-11139.7559" r="364.0215" gradientTransform="matrix(0.9332 -0.8849 0.0972 0.0921 -1301.8347 4303.666)" gradientUnits="userSpaceOnUse">
					<stop  offset="0.0487" style="stop-color:#000000"/>
					<stop  offset="0.1788" style="stop-color:#333333"/>
					<stop  offset="0.3408" style="stop-color:#6D6D6D"/>
					<stop  offset="0.498" style="stop-color:#9C9C9C"/>
					<stop  offset="0.6463" style="stop-color:#C2C2C2"/>
					<stop  offset="0.7835" style="stop-color:#DCDCDC"/>
					<stop  offset="0.9055" style="stop-color:#ECECEC"/>
					<stop  offset="1" style="stop-color:#F2F2F2"/>
				</radialGradient>
				<path class="st5" d="M282.2,748.68c19.53,18.52-116.73,177.77-304.36,355.68s-355.56,307.13-375.1,288.6
					c-19.53-18.52,116.73-177.77,304.36-355.68S262.67,730.15,282.2,748.68z"/>
				
					<linearGradient id="SVGID_7_" gradientUnits="userSpaceOnUse" x1="7136.6372" y1="-14021.2061" x2="7136.6372" y2="-13060.1357" gradientTransform="matrix(-0.7071 -0.7071 0.7071 -0.7071 14660.4951 -3470.322)">
					<stop  offset="0" style="stop-color:#999999"/>
					<stop  offset="1" style="stop-color:#F2F2F2"/>
				</linearGradient>
				<path class="st6" d="M307.72,754.4l53.16,50.41c14.68,13.92,14.68,36.49,0,50.41l-579.27,549.29
					c-14.68,13.92-38.48,13.92-53.16,0l-53.16-50.41c-14.68-13.92-14.68-36.49,0-50.41L254.56,754.4
					C269.24,740.48,293.04,740.48,307.72,754.4z"/>
			</g>
			<g class="st4">
				
					<radialGradient id="SVGID_8_" cx="7961.8994" cy="-13305.8066" r="364.0215" gradientTransform="matrix(-0.9332 0.8849 -0.0972 -0.0921 7719.959 -8333.2949)" gradientUnits="userSpaceOnUse">
					<stop  offset="0.0487" style="stop-color:#000000"/>
					<stop  offset="0.1788" style="stop-color:#333333"/>
					<stop  offset="0.3408" style="stop-color:#6D6D6D"/>
					<stop  offset="0.498" style="stop-color:#9C9C9C"/>
					<stop  offset="0.6463" style="stop-color:#C2C2C2"/>
					<stop  offset="0.7835" style="stop-color:#DCDCDC"/>
					<stop  offset="0.9055" style="stop-color:#ECECEC"/>
					<stop  offset="1" style="stop-color:#F2F2F2"/>
				</radialGradient>
				<path class="st7" d="M1243.36,260.18c-19.53-18.52,116.73-177.77,304.36-355.68s355.56-307.13,375.1-288.6
					c19.53,18.52-116.73,177.77-304.36,355.68S1262.89,278.7,1243.36,260.18z"/>
				
					<linearGradient id="SVGID_9_" gradientUnits="userSpaceOnUse" x1="7299.7764" y1="2534.8435" x2="7299.7764" y2="3263.2307" gradientTransform="matrix(0.7071 0.7071 -0.7071 0.7071 -1550.2343 -7299.873)">
					<stop  offset="0" style="stop-color:#999999"/>
					<stop  offset="1" style="stop-color:#F2F2F2"/>
				</linearGradient>
				<path class="st8" d="M1280.64,213.59l-36.01-34.14c-9.94-9.43-9.94-24.71,0-34.14l508.32-482.01c9.94-9.43,26.06-9.43,36.01,0
					l36.01,34.14c9.94,9.43,9.94,24.71,0,34.14l-508.32,482.01C1306.7,223.01,1290.58,223.01,1280.64,213.59z"/>
			</g>
			<g class="st4">
				
					<radialGradient id="SVGID_10_" cx="7507.1431" cy="-5480.2876" r="364.0215" gradientTransform="matrix(-0.9332 0.8849 -0.0972 -0.0921 7082.9087 -7257.8267)" gradientUnits="userSpaceOnUse">
					<stop  offset="0.0487" style="stop-color:#000000"/>
					<stop  offset="0.1788" style="stop-color:#333333"/>
					<stop  offset="0.3408" style="stop-color:#6D6D6D"/>
					<stop  offset="0.498" style="stop-color:#9C9C9C"/>
					<stop  offset="0.6463" style="stop-color:#C2C2C2"/>
					<stop  offset="0.7835" style="stop-color:#DCDCDC"/>
					<stop  offset="0.9055" style="stop-color:#ECECEC"/>
					<stop  offset="1" style="stop-color:#F2F2F2"/>
				</radialGradient>
				<path class="st9" d="M270.23,212.16C250.69,193.64,386.96,34.4,574.59-143.52s355.56-307.13,375.1-288.6
					c19.53,18.52-116.73,177.77-304.36,355.68S289.76,230.69,270.23,212.16z"/>
				
					<linearGradient id="SVGID_11_" gradientUnits="userSpaceOnUse" x1="5833.9375" y1="595.3826" x2="5833.9375" y2="1556.4529" gradientTransform="matrix(0.7071 0.7071 -0.7071 0.7071 -2851.5352 -4983.0898)">
					<stop  offset="0" style="stop-color:#999999"/>
					<stop  offset="1" style="stop-color:#F2F2F2"/>
				</linearGradient>
				<path class="st10" d="M244.71,206.44l-53.16-50.41c-14.68-13.92-14.68-36.49,0-50.41l579.27-549.29
					c14.68-13.92,38.48-13.92,53.16,0l53.16,50.41c14.68,13.92,14.68,36.49,0,50.41L297.87,206.44
					C283.19,220.36,259.39,220.36,244.71,206.44z"/>
			</g>
			<g class="st4">
				
					<radialGradient id="SVGID_12_" cx="3520.6987" cy="-11844.1572" r="364.0215" gradientTransform="matrix(0.9332 -0.8849 0.0972 0.0921 -2152.0461 4881.606)" gradientUnits="userSpaceOnUse">
					<stop  offset="0.0487" style="stop-color:#000000"/>
					<stop  offset="0.1788" style="stop-color:#333333"/>
					<stop  offset="0.3408" style="stop-color:#6D6D6D"/>
					<stop  offset="0.498" style="stop-color:#9C9C9C"/>
					<stop  offset="0.6463" style="stop-color:#C2C2C2"/>
					<stop  offset="0.7835" style="stop-color:#DCDCDC"/>
					<stop  offset="0.9055" style="stop-color:#ECECEC"/>
					<stop  offset="1" style="stop-color:#F2F2F2"/>
				</radialGradient>
				<path class="st11" d="M322.16,352.71c19.53,18.52-116.73,177.77-304.36,355.68S-337.76,1015.52-357.3,997
					c-19.53-18.52,116.73-177.77,304.36-355.68S302.62,334.19,322.16,352.71z"/>
				
					<linearGradient id="SVGID_13_" gradientUnits="userSpaceOnUse" x1="7011.1714" y1="-11611.2617" x2="7011.1714" y2="-10741.8545" gradientTransform="matrix(-0.7071 -0.7071 0.7071 -0.7071 12923.7705 -2225.3188)">
					<stop  offset="0" style="stop-color:#999999"/>
					<stop  offset="1" style="stop-color:#F2F2F2"/>
				</linearGradient>
				<path class="st12" d="M331.58,394.59l75.19,71.3c20.76,19.69,20.76,51.61,0,71.3l-549.2,520.77
					c-20.76,19.69-54.43,19.69-75.19,0l-75.19-71.3c-20.76-19.69-20.76-51.61,0-71.3l549.2-520.77
					C277.16,374.9,310.82,374.9,331.58,394.59z"/>
			</g>
		</g>
		
			<radialGradient id="SVGID_14_" cx="3146.2515" cy="-215.9447" r="181.7199" gradientTransform="matrix(0.4895 0 0 0.4849 5.731532e-03 466.5554)" gradientUnits="userSpaceOnUse">
			<stop  offset="0.1399" style="stop-color:#E6E6E6"/>
			<stop  offset="0.8349" style="stop-color:#CCCCCC"/>
		</radialGradient>
		<ellipse class="st13" cx="1581.84" cy="327.52" rx="88.96" ry="88.11"/>
		
			<radialGradient id="SVGID_15_" cx="1092.0835" cy="875.9594" r="162.1406" gradientTransform="matrix(0.4895 0 0 0.4849 5.731532e-03 466.5554)" gradientUnits="userSpaceOnUse">
			<stop  offset="0.1399" style="stop-color:#E6E6E6"/>
			<stop  offset="0.8349" style="stop-color:#CCCCCC"/>
		</radialGradient>
		<ellipse class="st14" cx="520.77" cy="909.6" rx="79.38" ry="78.62"/>
		
			<radialGradient id="SVGID_16_" cx="2.1108" cy="-652.8605" r="151.1273" gradientTransform="matrix(0.4895 0 0 0.4849 5.731532e-03 466.5554)" gradientUnits="userSpaceOnUse">
			<stop  offset="0.1399" style="stop-color:#E6E6E6"/>
			<stop  offset="0.8349" style="stop-color:#CCCCCC"/>
		</radialGradient>
		<ellipse class="st15" cx="33.39" cy="133.21" rx="73.98" ry="73.28"/>
		
			<radialGradient id="SVGID_17_" cx="2295.2773" cy="680.0076" r="237.3986" gradientTransform="matrix(0.4895 0 0 0.4849 5.731532e-03 466.5554)" gradientUnits="userSpaceOnUse">
			<stop  offset="0.1399" style="stop-color:#E6E6E6"/>
			<stop  offset="0.8349" style="stop-color:#CCCCCC"/>
		</radialGradient>
		<ellipse class="st16" cx="1092.85" cy="845.1" rx="116.22" ry="115.11"/>
		
			<radialGradient id="SVGID_18_" cx="1245.8738" cy="-499.083" r="166.4236" gradientTransform="matrix(0.4895 0 0 0.4849 5.731532e-03 466.5554)" gradientUnits="userSpaceOnUse">
			<stop  offset="0.1399" style="stop-color:#E6E6E6"/>
			<stop  offset="0.8349" style="stop-color:#CCCCCC"/>
		</radialGradient>
		<ellipse class="st17" cx="645.55" cy="206.08" rx="81.47" ry="80.7"/>
		<rect x="-114" y="-53.57" class="st18" width="1917" height="1136.1"/>
	</g>
</g>
<g>
	<defs>
		<rect id="SVGID_19_" x="-114" y="-53.4" width="1917" height="1136.02"/>
	</defs>
	<clipPath id="SVGID_20_">
		<use xlink:href="#SVGID_19_"  style="overflow:visible;"/>
	</clipPath>
	<g class="st19">
		<g>
			<path class="st20" d="M976.66-172.23C961.24-113.49,941.85-55.58,918.64,1.1c-10.32,25.2-21.77,50.71-41.69,70.84
				c-50.93,51.46-140.06,53.06-216.13,41.88c-70.07-10.3-138.74-28.03-204.11-52.71C391.94,36.66,329.29,5.11,259.89-5.25
				c-69.4-10.36-150.13,6.3-187.52,59.29c-22.25,31.53-25.79,71.44-17.1,107.85S83.88,231.8,106,263.4
				c25.32,36.18,54.73,72.82,58.53,115.3c3.93,43.98-23.4,88.95-66.94,110.13c-61.94,30.13-137.76,11.23-207.22-0.03
				c-88.24-14.31-182.89-14.18-263.5,20.78c-80.61,34.96-142.93,110.93-134.66,190.32"/>
			<path class="st21" d="M961.02-184.11c-15.02,57.4-34.08,113.96-56.98,169.25c-10.18,24.58-21.48,49.44-40.89,69.15
				c-49.66,50.45-135.95,53.28-209.98,43.71c-15.53-2.01-31-4.39-46.39-7.15c-52.13-9.35-103.3-22.97-152.63-40.62
				C390.87,27.58,329.54-1.99,261.74-11.51c-67.77-9.53-144.58,7.89-183.67,57.1c-16.14,20.32-26.15,42.5-29.53,66.15
				c-1.81,12.63-1.92,25.55-0.49,38.34c1.17,10.49,3.33,20.95,6.42,31.46c7.81,26.54,22.32,52.71,37.85,77.6
				c24.89,39.98,51.09,81.06,52.43,125.72c1.29,42.74-23.89,86.16-66.22,106.99c-60.33,29.71-133.94,12.69-201.18,3.18
				c-8.08-1.14-16.22-2.15-24.38-3.02c-78.2-8.27-159.25-3.41-228.69,28.63c-76.71,35.23-135.32,109.5-126.07,186.61"/>
			<path class="st22" d="M945.37-195.99c-14.62,56.07-33.34,111.28-55.94,165.17c-10.04,23.95-21.19,48.16-40.08,67.46
				C800.96,86.09,717.5,90.13,645.51,82.19c-15.1-1.67-30.15-3.71-45.13-6.11c-50.73-8.16-100.61-20.47-148.81-36.71
				C389.8,18.5,329.79-9.09,263.59-17.78c-66.13-8.7-139.43,9.38-179.82,54.9c-17.88,20.15-31.25,40.33-37.61,63.25
				c-3.41,12.24-5.17,24.99-5.34,37.89c-0.14,10.62,0.79,21.41,2.89,32.5c5.34,28.19,19.66,56.93,34.92,84.09
				c24.46,43.77,47.51,89.04,46.33,136.13c-1.03,41.36-24.37,83.37-65.5,103.85c-58.73,29.29-130.12,14.15-195.14,6.39
				c-7.82-0.92-15.68-1.72-23.57-2.38c-75.58-6.22-153.17,0.41-219.08,32.83c-72.8,35.5-127.72,108.07-117.47,182.9"/>
			<path class="st23" d="M929.72-207.87c-14.22,54.74-32.61,108.59-54.9,161.1c-9.91,23.33-20.9,46.89-39.27,65.76
				c-47.11,48.44-127.74,53.7-197.69,47.37c-14.67-1.33-29.3-3.02-43.86-5.07c-49.33-6.96-97.92-17.97-144.98-32.81
				C388.73,9.41,330.04-16.19,265.44-24.05c-64.49-7.87-134.65,10.74-175.96,52.71C69.75,48.71,53.13,66.83,43.79,89.02
				c-5,11.85-8.43,24.44-10.18,37.44c-1.45,10.76-1.75,21.88-0.63,33.54c2.85,29.85,17.01,61.14,31.98,90.58
				c24.02,47.56,44.02,96.82,40.24,146.55c-3.04,39.9-24.85,80.58-64.79,100.7c-57.13,28.87-126.3,15.6-189.1,9.6
				c-7.56-0.71-15.15-1.3-22.76-1.75c-72.96-4.18-147.01,4.39-209.46,37.03c-68.8,35.96-120.11,106.64-108.88,179.19"/>
			<path class="st24" d="M914.07-219.75c-13.82,53.41-31.88,105.9-53.86,157.02c-9.77,22.71-20.62,45.62-38.47,64.07
				C775.9,48.79,698.1,55.26,630.2,50.55c-14.24-1-28.45-2.34-42.6-4.03c-47.92-5.77-95.24-15.47-141.15-28.9
				C387.66,0.33,330.29-23.3,267.29-30.31C204.44-37.35,137.1-18.38,95.18,20.21C73.5,40.17,53.74,56.2,41.42,77.67
				c-6.6,11.47-11.7,23.89-15.03,36.98c-2.77,10.9-4.3,22.35-4.16,34.59c0.35,31.52,14.36,65.36,29.05,97.07
				c23.59,51.35,40.65,104.44,34.14,156.97c-4.76,38.38-25.33,77.79-64.07,97.56c-55.53,28.45-122.48,17.06-183.06,12.81
				c-7.29-0.49-14.62-0.87-21.95-1.11c-70.34-2.13-140.9,8.25-199.85,41.23c-64.85,36.29-112.51,105.21-100.29,175.48"/>
			<path class="st25" d="M898.42-231.63c-13.42,52.08-31.15,103.22-52.83,152.95c-9.63,22.09-20.33,44.34-37.66,62.38
				c-44.57,46.44-119.53,54.12-185.4,51.03c-13.81-0.66-27.59-1.65-41.34-2.99c-46.52-4.57-92.55-12.97-137.32-25
				C386.59-8.75,330.53-30.4,269.14-36.58c-61.22-6.21-126.02,12.95-168.26,48.33C77.16,31.62,54.35,45.57,39.05,66.31
				c-8.2,11.08-14.98,23.35-19.88,36.53c-4.1,11.04-6.85,22.82-7.69,35.63c-2.17,33.2,11.71,69.57,26.11,103.56
				c23.16,55.15,37.41,111.94,28.04,167.39c-6.23,36.83-25.82,74.99-63.35,94.42c-53.93,28.03-118.65,18.52-177.02,16.02
				c-7.03-0.28-14.08-0.44-21.14-0.47c-67.71-0.08-134.79,12.11-190.23,45.43c-60.91,36.61-104.9,103.78-91.69,171.78"/>
			<path class="st26" d="M882.78-243.51c-13.01,50.74-30.41,100.53-51.79,148.87c-9.49,21.47-20.04,43.07-36.85,60.69
				c-43.3,45.43-115.42,54.34-179.25,52.87c-13.38-0.32-26.74-0.97-40.08-1.95c-45.11-3.38-89.86-10.48-133.49-21.09
				c-55.79-13.7-110.53-33.37-170.32-38.71c-59.58-5.38-122.08,13.79-164.4,46.13C80.73,23.06,54.96,34.95,36.68,54.95
				c-9.8,10.69-18.27,22.8-24.73,36.08c-5.44,11.18-9.41,23.29-11.22,36.67c-4.71,34.88,9.06,73.79,23.17,110.06
				c22.72,58.94,34.33,119.36,21.94,177.8c-7.48,35.28-26.3,72.2-62.64,91.28c-52.32,27.62-114.83,19.98-170.98,19.23
				c-6.77-0.07-13.55-0.02-20.33,0.16c-65.09,1.96-128.68,15.96-180.62,49.63c-56.96,36.92-97.29,102.35-83.1,168.07"/>
			<path class="st27" d="M867.13-255.39c-12.61,49.41-29.68,97.85-50.75,144.8c-9.36,20.85-19.75,41.79-36.05,58.99
				C738.31-7.18,669.01,2.95,607.23,3.09c-12.94,0.02-25.89-0.28-38.82-0.91C524.7,0,481.23-5.79,438.74-15
				c-54.3-11.91-107.71-29.6-165.9-34.1C214.9-53.66,154.5-34.65,112.3-5.16C84.21,14.46,55.57,24.32,34.31,43.6
				C22.92,53.9,12.75,65.85,4.74,79.22C-2.04,90.54-7.24,102.98-10,116.93c-7.25,36.55,6.4,78,20.24,116.55
				c22.29,62.73,31.41,126.75,15.84,188.22c-8.54,33.73-26.78,69.41-61.92,88.14c-50.72,27.2-111.01,21.32-164.94,22.44
				c-6.51,0.14-13.02,0.39-19.52,0.8c-62.48,3.87-122.56,19.81-171,53.83c-53.01,37.23-89.69,100.92-74.51,164.36"/>
			<path class="st28" d="M851.48-267.27c-12.21,48.08-28.95,95.16-49.71,140.72c-9.22,20.23-19.46,40.52-35.24,57.3
				c-40.75,43.42-107.21,54.76-166.95,56.53c-12.51,0.36-25.04,0.4-37.56,0.13c-42.31-0.99-84.49-5.48-125.83-13.29
				C383.38-36,331.28-51.7,274.7-55.37C218.39-59.1,159.93-40.41,118-13.62C87.61,5.8,56.18,13.69,31.94,32.24
				C18.95,42.15,7.08,53.94-2.48,67.41c-8.13,11.45-14.54,24.23-18.27,38.76c-9.81,38.22,3.75,82.22,17.3,123.04
				c21.86,66.53,39.97,138.6,9.74,198.64c-3.5,33.37-27.26,66.62-61.2,85c-49.12,26.78-107.2,22.76-158.9,25.65
				c-6.24,0.35-12.49,0.82-18.71,1.43c-59.86,5.9-116.44,23.65-161.39,58.04c-49.06,37.53-82.08,99.49-65.91,160.65"/>
			<path class="st29" d="M835.83-279.15c-11.81,46.75-28.22,92.47-48.67,136.64c-9.08,19.61-19.17,39.25-34.43,55.61
				c-39.48,42.42-103.11,54.97-160.81,58.36c-12.08,0.69-24.19,1.08-36.3,1.17c-40.9,0.21-81.8-2.98-122-9.38
				c-51.3-8.33-102.08-22.05-157.06-24.88c-54.67-2.89-111.31,15.31-152.84,39.56C90.94-2.95,56.79,3.07,29.57,20.88
				C14.98,30.4,1.41,42.02-9.7,55.6c-9.48,11.59-17.11,24.7-21.8,39.8c-12.37,39.89,1.1,86.43,14.37,129.53
				C4.29,295.25,21,371.76-13.49,433.99c-4.43,32.05-27.75,63.83-60.48,81.85c-47.52,26.36-103.38,24.21-152.86,28.86
				c-5.98,0.56-11.95,1.25-17.9,2.07c-57.25,7.93-110.33,27.48-151.77,62.24c-45.1,37.82-74.48,98.07-57.32,156.94"/>
			<path class="st30" d="M820.18-291.03c-11.41,45.42-27.49,89.79-47.63,132.57c-8.94,18.99-18.89,37.97-33.63,53.92
				c-38.21,41.41-99,55.18-154.66,60.19c-11.65,1.03-23.34,1.77-35.04,2.21c-39.5,1.4-79.11-0.48-118.18-5.48
				c-49.81-6.54-99.27-18.28-152.64-20.27c-53.03-2.06-107.94,15.52-148.99,37.37C94.2-11.8,57.4-7.56,27.2,9.53
				C11.01,18.66-4.27,30.11-16.91,43.79C-27.74,55.5-36.6,68.96-42.24,84.63c-14.94,41.55-1.55,90.64,11.43,136.03
				c20.99,74.11,36.28,155.05-2.46,219.47c-5.36,30.72-28.23,61.03-59.77,78.71c-45.92,25.94-99.57,25.66-146.82,32.07
				c-5.72,0.78-11.42,1.67-17.09,2.71c-54.63,9.97-104.21,31.3-142.16,66.44c-41.15,38.1-66.87,96.64-48.73,153.23"/>
			<path class="st31" d="M804.54-302.91c-11.01,44.08-26.75,87.1-46.6,128.49c-8.81,18.37-18.6,36.7-32.82,52.22
				c-36.93,40.41-94.89,55.4-148.51,62.02c-11.22,1.37-22.49,2.45-33.78,3.25c-38.09,2.6-76.42,2.01-114.35-1.57
				c-48.31-4.75-96.45-14.51-148.23-15.67c-51.4-1.23-104.64,15.6-145.14,35.17C97.4-20.76,58.01-18.19,24.83-1.83
				C7.05,6.91-9.94,18.18-24.13,31.98C-36.31,43.82-46.4,57.61-52.98,73.87c-17.52,43.21-4.21,94.86,8.49,142.52
				c20.56,77.9,34.44,163.27-8.55,229.89c-6.29,29.39-28.71,58.24-59.05,75.57c-44.31,25.52-95.75,27.11-140.78,35.28
				c-5.46,0.99-10.89,2.1-16.28,3.34c-52.02,12.01-98.1,35.11-132.54,70.64c-37.21,38.37-59.27,95.21-40.13,149.52"/>
			<path class="st32" d="M788.89-314.79c-10.6,42.75-26.02,84.41-45.56,124.42c-8.67,17.75-18.31,35.42-32.01,50.53
				c-35.66,39.4-90.79,55.61-142.37,63.85c-10.79,1.71-21.64,3.14-32.52,4.29c-36.69,3.79-73.74,4.51-110.52,2.33
				c-46.81-2.96-93.63-10.73-143.81-11.06c-49.76-0.41-101.39,15.56-141.28,32.98c-40.26,17.58-82.2,18.64-118.36,34.27
				C3.08-4.83-15.61,6.26-31.35,20.17C-44.88,32.13-56.19,46.26-63.73,63.1c-20.09,44.87-6.86,99.07,5.56,149.01
				c20.12,81.7,19.9,164.32-14.65,240.31c-12,26.38-29.2,55.45-58.33,72.43c-42.71,25.11-91.94,28.57-134.74,38.49
				c-5.2,1.2-10.36,2.52-15.47,3.98c-49.41,14.06-91.99,38.91-122.93,74.84c-33.26,38.63-51.66,93.78-31.54,145.81"/>
			<path class="st33" d="M773.24-326.67c-10.2,41.42-25.29,81.73-44.52,120.34c-8.53,17.13-18.02,34.15-31.21,48.84
				c-34.39,38.4-86.68,55.82-136.22,65.68c-10.36,2.04-20.78,3.82-31.26,5.33c-35.29,4.99-71.05,7.01-106.69,6.23
				c-45.31-1.16-90.82-6.96-139.39-6.45c-48.12,0.42-98.14,15.4-137.43,30.79C103.66-39.13,59.23-39.44,20.09-24.54
				C-0.89-16.58-21.29-5.67-38.57,8.36c-14.88,12.08-27.42,26.56-35.91,43.97c-22.68,46.51-9.51,103.29,2.62,155.5
				c19.69,85.49,18.32,172.19-20.75,250.73c-12.45,25.03-29.68,52.66-57.62,69.29c-41.11,24.69-88.13,30.03-128.7,41.7
				c-4.93,1.42-9.82,2.95-14.65,4.61c-46.8,16.11-85.89,42.69-113.32,79.04c-29.33,38.87-44.05,92.35-22.95,142.11"/>
			<path class="st34" d="M757.59-338.55c-9.8,40.09-24.56,79.04-43.48,116.26c-8.39,16.51-17.73,32.88-30.4,47.15
				c-33.12,37.39-82.58,56.03-130.07,67.51c-9.93,2.38-19.93,4.51-30,6.38c-33.88,6.18-68.36,9.51-102.86,10.14
				c-43.82,0.63-88-3.19-134.97-1.84c-46.49,1.25-94.9,15.15-133.58,28.6C106.74-48.56,59.84-50.07,17.72-35.9
				c-22.58,7.58-44.68,18.3-63.5,32.45c-16.23,12.2-30,27.02-39.43,45.01c-25.26,48.16-12.16,107.5-0.31,162
				c19.26,89.28,17.02,180.26-26.85,261.14c-12.87,23.72-30.16,49.87-56.9,66.15c-39.51,24.27-84.31,31.49-122.66,44.91
				c-4.67,1.63-9.29,3.38-13.84,5.25c-44.18,18.16-79.8,46.46-103.7,83.24c-25.41,39.09-36.45,90.92-14.35,138.4"/>
			<path class="st35" d="M741.95-350.43c-9.4,38.76-23.82,76.36-42.44,112.19c-8.26,15.89-17.45,31.6-29.59,45.45
				c-31.84,36.39-78.47,56.24-123.92,69.34c-9.5,2.72-19.08,5.19-28.74,7.42c-32.48,7.38-65.67,12.01-99.03,14.04
				c-42.32,2.42-85.19,0.58-130.55,2.77c-44.85,2.08-91.64,14.81-129.72,26.4C109.79-58.18,60.45-60.69,15.35-47.26
				c-24.17,7.19-47.98,17.73-68.35,32C-70.58-2.94-85.58,12.22-95.96,30.8c-27.84,49.8-14.82,111.72-3.25,168.49
				c18.82,93.07,16.02,188.56-32.95,271.56c-13.26,22.47-30.64,47.07-56.18,63c-37.91,23.85-80.5,32.96-116.62,48.12
				c-4.41,1.85-8.76,3.81-13.03,5.89c-41.57,20.22-73.72,50.23-94.09,87.44c-21.51,39.31-28.84,89.49-5.76,134.69"/>
			<path class="st36" d="M726.3-362.31c-9,37.43-23.09,73.67-41.4,108.11c-8.12,15.27-17.16,30.33-28.79,43.76
				c-30.57,35.39-74.36,56.46-117.78,71.17c-9.07,3.06-18.23,5.88-27.48,8.46c-31.07,8.57-62.98,14.5-95.2,17.95
				c-40.82,4.21-82.37,4.36-126.14,7.38c-43.21,2.91-88.34,14.39-125.87,24.21c-50.8,13.29-102.58,9.96-150.66,22.67
				c-25.77,6.8-51.29,17.15-73.2,31.54c-18.93,12.43-35.15,27.93-46.49,47.1c-30.43,51.44-17.47,115.93-6.19,174.98
				c18.39,96.87,15.3,197.15-39.05,281.98c-13.63,21.27-31.13,44.28-55.46,59.86c-36.3,23.43-76.68,34.43-110.58,51.33
				c-4.15,2.07-8.23,4.24-12.22,6.52c-38.95,22.29-67.67,53.98-84.47,91.64c-17.63,39.51-21.24,88.06,2.83,130.98"/>
			<path class="st37" d="M710.65-374.2c-8.6,36.09-22.36,70.98-40.37,104.04c-7.98,14.65-16.87,29.06-27.98,42.07
				c-29.3,34.38-70.26,56.67-111.63,73c-8.63,3.39-17.38,6.56-26.22,9.5c-29.67,9.77-60.3,17-91.38,21.85
				c-39.33,6-79.56,8.13-121.72,11.99c-41.58,3.74-84.99,13.9-122.02,22.02c-53.46,11.72-107.67,7.8-158.74,19.77
				c-27.37,6.41-54.59,16.58-78.04,31.09c-20.28,12.55-37.73,28.39-50.02,48.14c-33.01,53.08-20.12,120.15-9.12,181.47
				c17.95,100.66,14.89,206.05-45.15,292.4c-13.99,20.12-31.61,41.49-54.75,56.72c-34.7,23.01-72.86,35.91-104.54,54.54
				c-3.88,2.28-7.69,4.67-11.41,7.16c-36.33,24.36-61.64,57.73-74.86,95.84c-13.77,39.72-13.63,86.63,11.43,127.27"/>
			<path class="st38" d="M695-386.08c-8.19,34.76-21.63,68.3-39.33,99.96c-7.84,14.03-16.58,27.78-27.17,40.38
				c-28.03,33.38-66.15,56.88-105.48,74.83c-8.2,3.73-16.53,7.25-24.96,10.54c-28.27,10.97-57.61,19.5-87.55,25.75
				c-37.83,7.79-76.74,11.9-117.3,16.6c-39.94,4.57-81.57,13.35-118.16,19.83C118.96-88.27,62.28-92.57,8.24-81.33
				c-28.97,6.02-57.91,15.96-82.89,30.64C-96.3-38.06-115-21.86-128.2-1.5c-35.7,54.65-22.77,124.36-12.06,187.97
				c17.52,104.45,14.77,215.3-51.25,302.81c-14.36,19.03-32.09,38.7-54.03,53.58c-33.1,22.59-69.03,37.39-98.5,57.75
				c-3.62,2.5-7.16,5.09-10.6,7.79c-33.69,26.43-55.64,61.48-65.24,100.04c-9.94,39.93-6.02,85.2,20.02,123.56"/>
			<path class="st39" d="M679.35-397.96c-7.79,33.43-20.89,65.61-38.29,95.88c-7.71,13.41-16.29,26.51-26.37,38.68
				c-26.75,32.37-62.05,57.09-99.34,76.66c-7.77,4.07-15.68,7.93-23.7,11.58c-26.86,12.16-54.92,22-83.72,29.66
				c-36.33,9.58-73.92,15.67-112.88,21.21c-38.3,5.4-78.08,12.74-114.31,17.63C122.07-98.73,62.89-103.2,5.87-92.68
				c-30.56,5.63-61.2,15.39-87.74,30.19c-22.99,12.75-42.92,29.29-57.07,50.23c-38.25,56.3-25.42,128.58-14.99,194.46
				c17.09,108.25,14.93,224.94-57.34,313.23c-14.74,18.01-32.57,35.91-53.31,50.44c-31.5,22.18-65.15,38.92-92.46,60.96
				c-3.35,2.72-6.62,5.53-9.79,8.43c-31,28.57-49.67,65.25-55.63,104.24c-6.14,40.14,1.58,83.77,28.61,119.85"/>
			<path class="st40" d="M663.71-409.84c-7.39,32.1-20.16,62.92-37.25,91.81c-7.57,12.79-16,25.23-25.56,36.99
				c-25.48,31.37-57.94,57.3-93.19,78.49c-7.34,4.41-14.83,8.62-22.44,12.62c-25.46,13.36-52.23,24.5-79.89,33.56
				c-34.84,11.38-71.11,19.45-108.46,25.82c-36.67,6.23-74.5,12.08-110.46,15.44c-61.23,5.72-122.96,1.29-182.96,11.07
				C-28.67-98.8-61-89.21-89.09-74.31c-24.33,12.88-45.48,29.75-60.6,51.27c-40.8,57.95-28.08,132.79-17.93,200.95
				c16.65,112.04,15.35,235-63.44,323.65c-15.15,17.04-33.06,33.11-52.6,47.3c-29.9,21.76-61.33,40.38-86.42,64.17
				c-3.09,2.94-6.08,5.96-8.98,9.07c-28.38,30.61-43.71,69.03-46.01,108.44c-2.35,40.38,9.19,82.34,37.21,116.14"/>
			<path class="st41" d="M648.06-421.72c-20.1,88.46-85.25,166.23-169.19,217c-83.94,50.77-185.36,75.89-286.71,81.14
				c-63.7,3.3-128.05-0.88-191.04,8.18c-62.99,9.06-126.92,33.96-161.56,81.59c-43.36,59.61-30.73,137.01-20.86,207.44
				c16.22,115.83,15.99,245.5-69.54,334.07c-42.6,44.11-102.89,73.62-140.43,121.23c-52.05,66.01-48.01,162.68,9.4,225.08"/>
		</g>
		<g>
			<path class="st20" d="M115.89,1095.73c39.74-48.89,82.78-95.65,128.81-139.97c20.46-19.7,42.11-39.31,69.23-51.04
				c69.33-29.98,152.25-0.87,217.56,35.55c60.16,33.55,115.81,73.48,165.38,118.68c49.13,44.79,93.21,95.4,152.73,128.78
				c59.52,33.38,141.22,45.72,198.73,9.67c34.22-21.45,54.83-57.04,62.62-93.61c7.8-36.57,3.97-74.32-2.7-111.06
				c-7.64-42.07-18.85-85.96-3.91-126.45c15.47-41.92,60.23-74.02,109.59-78.61c70.22-6.53,131.96,36.92,191.13,71.15
				c75.18,43.49,162.54,75.85,252.09,71.28c89.55-4.58,180.03-53.27,206.89-129.34"/>
			<path class="st21" d="M125.16,1112.06c39.03-48.11,81.54-93.97,127.1-137.24c20.25-19.23,41.67-38.33,68.33-49.87
				c51.21-22.17,109.83-12.39,163.2,8.44c17.69,6.9,34.8,15.02,50.88,23.59c59.41,31.72,114.55,69.79,163.88,113.08
				c48.87,42.9,92.75,91.86,151.58,123.97c32.51,17.74,70.89,29.97,108.82,32.49c34.29,2.26,68.4-3.61,96.8-20.94
				c4.1-2.5,8.01-5.2,11.74-8.08c28.69-22.18,45.99-54.85,53.45-88.29c2.01-9,3.36-18.07,4.2-27.16
				c2.67-28.98,0.24-58.39-3.47-87.06c-5.6-43.09-13.14-87.17,3.6-127.57c16.6-40.04,59.48-71.29,107.6-75.97
				c68.49-6.68,128.93,34.3,186.77,66.2c9.31,5.13,18.8,10.09,28.46,14.81c66.65,32.53,140.85,54.13,216.11,48.7
				c86.2-6.25,172.59-54.78,197.51-129.21"/>
			<path class="st22" d="M134.43,1128.39c38.32-47.33,80.29-92.29,125.39-134.52c20.03-18.76,41.22-37.35,67.43-48.7
				c50.34-21.81,107.84-13.08,160.4,6.38c17.42,6.45,34.3,14.07,50.2,22.14c58.65,29.9,113.29,66.1,162.38,107.49
				c48.62,41.02,92.32,88.28,150.43,119.15c33.81,17.96,73.23,30.71,112.37,33.77c35.28,2.73,70.69-2.81,100.13-20.35
				c4.25-2.53,8.32-5.27,12.19-8.22c29.86-22.66,47.53-56.4,55.55-90.92c2.15-9.28,3.66-18.62,4.68-27.97
				c3.25-29.79,1.82-60.04-0.53-89.42c-3.57-44.11-7.5-88.31,11.11-128.7c17.59-38.17,58.74-68.55,105.61-73.33
				c66.77-6.82,125.9,31.68,182.41,61.25c9.1,4.76,18.37,9.34,27.78,13.69c65.1,29.91,136.94,48.92,209.27,42.05
				c82.84-7.93,165.15-56.3,188.13-129.08"/>
			<path class="st23" d="M143.71,1144.72c37.61-46.55,79.05-90.6,123.68-131.79c19.82-18.3,40.78-36.37,66.52-47.53
				c49.48-21.46,105.86-13.77,157.6,4.31c17.16,5.99,33.81,13.12,49.53,20.7c57.9,28.07,112.03,62.4,160.87,101.9
				c48.36,39.13,91.91,84.65,149.28,114.34c35.12,18.17,75.57,31.45,115.92,35.05c36.27,3.2,72.98-2.02,103.47-19.75
				c4.41-2.56,8.63-5.35,12.65-8.35c31.04-23.14,49.07-57.95,57.65-93.56c2.3-9.55,3.97-19.17,5.17-28.77
				c3.82-30.6,3.4-61.7,2.42-91.77c-1.53-45.13-1.93-89.41,18.62-129.83c18.46-36.31,58-65.82,103.61-70.69
				c65.04-6.96,122.87,29.05,178.04,56.3c8.89,4.38,17.93,8.59,27.11,12.57c63.54,27.29,133.03,43.72,202.42,35.4
				c79.49-9.6,157.71-57.82,178.75-128.95"/>
			<path class="st24" d="M152.98,1161.05c36.9-45.78,77.81-88.92,121.97-129.07c19.61-17.83,40.34-35.39,65.62-46.37
				c48.61-21.11,103.87-14.46,154.79,2.25c16.89,5.53,33.31,12.16,48.85,19.25c57.15,26.25,110.77,58.71,159.37,96.3
				c48.1,37.24,91.53,80.98,148.13,109.53c36.43,18.38,77.91,32.19,119.47,36.32c37.27,3.66,75.26-1.23,106.81-19.16
				c4.56-2.59,8.94-5.42,13.11-8.49c32.21-23.62,50.61-59.5,59.75-96.19c2.44-9.83,4.27-19.72,5.65-29.58
				c4.4-31.41,4.98-63.36,5.37-94.13c0.51-46.15,3.56-90.46,26.13-130.96c19.21-34.46,57.25-63.09,101.62-68.04
				c63.31-7.11,119.84,26.43,173.68,51.35c8.67,4.01,17.48,7.86,26.43,11.44c61.92,24.81,129.13,38.51,195.58,28.76
				c76.14-11.28,150.27-59.33,169.36-128.82"/>
			<path class="st25" d="M162.25,1177.38c36.19-45,76.56-87.24,120.26-126.34c19.39-17.36,39.89-34.41,64.72-45.2
				c47.74-20.75,101.89-15.14,151.99,0.18c16.63,5.07,32.81,11.21,48.17,17.8c56.4,24.42,109.51,55.02,157.87,90.71
				c47.85,35.36,91.18,77.28,146.98,104.72c37.76,18.57,80.26,32.93,123.01,37.6c38.26,4.13,77.55-0.43,110.15-18.56
				c4.72-2.62,9.25-5.5,13.57-8.62c33.38-24.1,52.15-61.05,61.85-98.82c2.59-10.1,4.57-20.27,6.14-30.39
				c4.98-32.22,6.56-65.01,8.32-96.48c2.55-47.17,8.96-91.49,33.64-132.08c19.84-32.63,56.51-60.35,99.63-65.4
				c61.59-7.25,116.81,23.81,169.32,46.4c8.46,3.63,17.04,7.11,25.75,10.32c60.35,22.23,125.22,33.31,188.73,22.11
				c72.79-12.95,142.83-60.85,159.98-128.69"/>
			<path class="st26" d="M171.53,1193.71c35.48-44.22,75.32-85.55,118.55-123.62c19.18-16.89,39.45-33.43,63.81-44.03
				c46.87-20.4,99.9-15.83,149.19-1.88c16.36,4.62,32.32,10.23,47.49,16.35c55.69,22.48,108.25,51.33,156.37,85.12
				c47.59,33.47,90.84,73.54,145.83,99.91c39.1,18.74,82.6,33.67,126.56,38.88c39.25,4.59,79.84,0.36,113.49-17.97
				c4.88-2.65,9.56-5.57,14.03-8.76c34.56-24.58,53.69-62.6,63.95-101.45c2.73-10.37,4.87-20.82,6.62-31.19
				c5.55-33.03,8.14-66.67,11.26-98.84c4.59-48.19,14.29-92.51,41.15-133.21c20.36-30.84,55.76-57.62,97.64-62.76
				c59.86-7.4,113.79,21.18,164.95,41.44c8.25,3.25,16.6,6.36,25.08,9.19c58.79,19.64,121.32,28.1,181.89,15.47
				c69.43-14.63,135.38-62.36,150.6-128.56"/>
			<path class="st27" d="M180.8,1210.04c34.77-43.44,74.07-83.87,116.84-120.89c18.96-16.43,39.01-32.45,62.91-42.86
				c46.01-20.04,97.92-16.52,146.39-3.95c16.09,4.16,31.82,9.27,46.81,14.9c54.94,20.64,106.99,47.64,154.86,79.52
				c47.34,31.58,90.52,69.78,144.68,95.09c40.44,18.9,84.94,34.41,130.11,40.15c40.24,5.06,82.13,1.15,116.83-17.37
				c5.03-2.68,9.87-5.65,14.49-8.89c35.73-25.05,55.23-64.15,66.05-104.08c2.88-10.65,5.18-21.37,7.11-32
				c6.13-33.84,9.72-68.32,14.21-101.19c6.63-49.21,19.52-93.54,48.66-134.34c20.77-29.09,55.02-54.88,95.65-60.12
				c58.14-7.54,110.76,18.56,160.59,36.49c8.04,2.88,16.17,5.62,24.4,8.07c57.23,17.05,117.41,22.9,175.04,8.82
				c66.08-16.3,127.94-63.88,141.22-128.43"/>
			<path class="st28" d="M190.07,1226.37c34.06-42.66,72.83-82.18,115.13-118.16c18.75-15.96,38.56-31.47,62.01-41.7
				c45.14-19.69,95.93-17.21,143.59-6.01c15.83,3.7,31.32,8.32,46.13,13.45c54.19,18.8,105.73,43.95,153.36,73.93
				c47.08,29.7,90.22,65.98,143.53,90.28c41.8,19.05,87.28,35.15,133.66,41.43c41.23,5.52,84.42,1.95,120.16-16.78
				c5.19-2.71,10.18-5.72,14.95-9.03c36.91-25.53,56.77-65.69,68.15-106.71c3.02-10.92,5.48-21.91,7.59-32.81
				c6.71-34.65,11.3-69.98,17.16-103.55c8.66-50.23,24.66-94.59,56.17-135.47c21.1-27.38,54.27-52.15,93.66-57.48
				c56.41-7.69,107.73,15.94,156.23,31.54c7.83,2.5,15.73,4.87,23.72,6.95c55.67,14.45,113.51,17.69,168.2,2.18
				c62.73-17.98,120.5-65.4,131.84-128.31"/>
			<path class="st29" d="M199.35,1242.7c33.35-41.89,71.59-80.5,113.42-115.44c18.54-15.49,38.12-30.49,61.1-40.53
				c44.27-19.34,93.95-17.89,140.78-8.08c15.56,3.25,30.82,7.36,45.46,12.01c53.44,16.97,104.47,40.25,151.86,68.33
				c46.82,27.81,89.93,62.16,142.38,85.47c43.16,19.18,89.63,35.89,137.2,42.71c42.22,5.99,86.7,2.74,123.5-16.18
				c5.34-2.74,10.49-5.8,15.41-9.16c38.08-26.01,58.31-67.24,70.25-109.34c3.17-11.2,5.78-22.46,8.08-33.61
				c7.29-35.46,12.88-71.63,20.1-105.9c10.7-51.25,29.71-95.68,63.68-136.6c21.34-25.71,53.53-49.42,91.67-54.83
				c54.68-7.83,104.7,13.31,151.86,26.59c7.61,2.13,15.29,4.12,23.04,5.82c54.12,11.86,109.6,12.48,161.36-4.47
				c59.38-19.65,113.06-66.91,122.45-128.18"/>
			<path class="st30" d="M208.62,1259.03c32.64-41.11,70.34-78.82,111.71-112.71c18.32-15.03,37.67-29.51,60.2-39.36
				c43.41-18.98,91.96-18.58,137.98-10.14c15.3,2.79,30.32,6.41,44.78,10.56c52.68,15.14,103.21,36.56,150.36,62.74
				c46.57,25.92,89.65,58.31,141.23,80.66c44.53,19.29,91.97,36.63,140.75,43.98c43.22,6.45,88.99,3.53,126.84-15.59
				c5.5-2.77,10.8-5.87,15.87-9.29c39.25-26.49,59.85-68.79,72.36-111.97c3.31-11.47,6.08-23.01,8.56-34.42
				c7.86-36.27,14.46-73.29,23.05-108.26c12.74-52.27,34.67-96.82,71.19-137.72c21.51-24.09,52.79-46.68,89.68-52.19
				c52.96-7.97,101.67,10.69,147.5,21.64c7.4,1.75,14.85,3.38,22.37,4.7c52.57,9.25,105.7,7.28,154.51-11.12
				c56.02-21.33,105.62-68.43,113.07-128.05"/>
			<path class="st31" d="M217.89,1275.36c31.93-40.33,69.1-77.13,110.01-109.99c18.11-14.56,37.23-28.53,59.3-38.19
				c42.54-18.63,89.98-19.27,135.18-12.2c15.03,2.33,29.82,5.45,44.1,9.11c51.93,13.31,101.96,32.87,148.86,57.15
				c46.31,24.04,89.38,54.44,140.08,75.84c45.91,19.38,94.31,37.37,144.3,45.26c44.21,6.92,91.28,4.33,130.18-14.99
				c5.66-2.81,11.11-5.95,16.32-9.43c40.43-26.97,61.39-70.34,74.46-114.6c3.46-11.75,6.39-23.56,9.05-35.23
				c8.44-37.08,16.04-74.95,26-110.61c14.78-53.29,39.53-98.05,78.7-138.85c21.62-22.52,52.04-43.95,87.69-49.55
				c51.23-8.12,98.65,8.07,143.14,16.69c7.19,1.37,14.42,2.63,21.69,3.57c51.03,6.65,101.79,2.07,147.67-17.76
				c52.67-23,98.18-69.95,103.69-127.92"/>
			<path class="st32" d="M227.17,1291.69c31.22-39.55,67.85-75.45,108.3-107.26c17.9-14.09,36.79-27.55,58.39-37.03
				c41.67-18.27,87.99-19.96,132.38-14.27c14.76,1.87,29.32,4.5,43.42,7.66c51.17,11.48,100.7,29.18,147.35,51.55
				c46.05,22.15,89.12,50.55,138.93,71.03c47.3,19.45,96.65,38.11,147.85,46.54c45.2,7.39,93.57,5.12,133.52-14.39
				c5.81-2.84,11.42-6.02,16.78-9.56c41.6-27.44,62.93-71.89,76.56-117.23c3.6-12.02,6.69-24.11,9.53-36.03
				c9.02-37.89,17.62-76.6,28.94-112.97c16.82-54.3,44.29-99.37,86.21-139.98c21.68-21,51.3-41.21,85.69-46.91
				c49.51-8.26,95.62,5.44,138.77,11.73c6.98,1,13.98,1.88,21.01,2.45c49.48,4.03,97.89-3.13,140.82-24.41
				c49.32-24.68,90.74-71.46,94.31-127.79"/>
			<path class="st33" d="M236.44,1308.02c30.51-38.78,66.61-73.77,106.59-104.54c17.68-13.62,36.34-26.57,57.49-35.86
				c40.8-17.92,86.01-20.64,129.58-16.33c14.5,1.42,28.82,3.55,42.74,6.21c50.41,9.66,99.44,25.49,145.85,45.96
				c45.8,20.26,88.87,46.63,137.78,66.22c48.7,19.5,99,38.85,151.39,47.81c46.19,7.85,95.86,5.92,136.85-13.8
				c5.97-2.87,11.73-6.09,17.24-9.7c42.77-27.92,64.47-73.44,78.66-119.86c3.75-12.3,6.99-24.66,10.01-36.84
				c9.59-38.7,19.2-78.26,31.89-115.32c18.85-55.32,48.96-100.81,93.72-141.11c21.7-19.54,50.55-38.48,83.7-44.27
				c47.78-8.41,92.59,2.82,134.41,6.78c6.76,0.62,13.55,1.13,20.34,1.33c47.94,1.41,94.03-8.26,133.98-31.05
				c46.02-26.26,83.3-72.98,84.93-127.66"/>
			<path class="st34" d="M245.71,1324.35c29.8-38,65.36-72.08,104.88-101.81c17.47-13.16,35.9-25.59,56.58-34.69
				c39.94-17.57,84.02-21.33,126.77-18.4c14.23,0.96,28.32,2.6,42.07,4.77c49.65,7.84,98.18,21.79,144.35,40.36
				c45.54,18.38,88.62,42.7,136.63,61.41c50.1,19.52,101.34,39.59,154.94,49.09c47.18,8.32,98.15,6.71,140.19-13.2
				c6.12-2.9,12.03-6.17,17.7-9.83c43.95-28.4,66.01-74.99,80.76-122.49c3.9-12.57,7.29-25.21,10.5-37.65
				c10.17-39.51,20.78-79.91,34.84-117.68c20.89-56.34,53.54-102.39,101.23-142.23c21.69-18.12,49.81-35.75,81.71-41.62
				c46.05-8.55,89.56,0.2,130.05,1.83c6.55,0.25,13.11,0.37,19.66,0.2c46.4-1.22,90.13-13.47,127.13-37.7
				c42.67-27.94,75.86-74.5,75.55-127.53"/>
			<path class="st35" d="M254.99,1340.68c29.09-37.22,64.12-70.4,103.17-99.08c17.25-12.69,35.46-24.61,55.68-33.52
				c39.07-17.21,82.04-22.02,123.97-20.46c13.97,0.5,27.82,1.65,41.39,3.32c48.89,6.02,96.92,18.1,142.85,34.77
				c45.29,16.49,88.38,38.75,135.48,56.6c51.52,19.52,103.68,40.33,158.49,50.37c48.18,8.78,100.43,7.5,143.53-12.61
				c6.28-2.93,12.34-6.24,18.16-9.97c45.12-28.88,67.56-76.53,82.86-125.12c4.04-12.84,7.6-25.76,10.98-38.45
				c10.75-40.32,22.36-81.57,37.78-120.03c22.93-57.36,58.03-104.12,108.74-143.36c21.66-16.76,49.06-33.01,79.72-38.98
				c44.33-8.7,86.53-2.43,125.68-3.12c6.34-0.13,12.68-0.38,18.98-0.92c44.86-3.86,86.22-18.68,120.29-44.34
				c39.32-29.62,68.41-76.01,66.16-127.4"/>
			<path class="st36" d="M264.26,1357.01c28.38-36.44,62.88-68.71,101.46-96.36c17.04-12.22,35.01-23.63,54.78-32.35
				c38.2-16.86,80.05-22.71,121.17-22.53c13.7,0.04,27.32,0.7,40.71,1.87c48.14,4.21,95.66,14.41,141.34,29.18
				c45.03,14.6,88.14,34.78,134.32,51.78c52.94,19.49,106.02,41.07,162.04,51.65c49.17,9.25,102.72,8.3,146.87-12.01
				c6.44-2.96,12.65-6.32,18.62-10.1c46.29-29.36,69.1-78.08,84.96-127.75c4.19-13.12,7.9-26.31,11.47-39.26
				c11.32-41.13,23.94-83.23,40.73-122.39c24.97-58.38,62.43-106.03,116.25-144.49c21.62-15.45,48.32-30.28,77.73-36.34
				c42.6-8.84,83.51-5.05,121.32-8.07c6.13-0.51,12.24-1.14,18.31-2.05c43.32-6.51,82.26-23.96,113.45-50.99
				c35.91-31.38,60.97-77.53,56.78-127.27"/>
			<path class="st37" d="M273.53,1373.34c27.66-35.66,61.63-67.03,99.75-93.63c16.83-11.75,34.57-22.65,53.87-31.19
				c37.34-16.51,78.07-23.39,118.37-24.59c13.43-0.41,26.82-0.25,40.03,0.42c47.38,2.4,94.4,10.72,139.84,23.58
				c44.77,12.72,87.91,30.8,133.17,46.97c54.37,19.43,108.37,41.81,165.58,52.92c50.16,9.71,105.01,9.09,150.21-11.42
				c6.59-2.99,12.96-6.39,19.08-10.24c47.47-29.83,70.64-79.63,87.06-130.38c4.33-13.39,8.2-26.86,11.95-40.07
				c11.9-41.94,25.52-84.88,43.68-124.74c27.01-59.4,66.76-108.14,123.76-145.62c21.59-14.19,47.58-27.54,75.74-33.7
				c40.88-8.98,80.48-7.67,116.96-13.02c5.91-0.88,11.8-1.89,17.63-3.17c41.77-9.17,78.36-29.16,106.6-57.64
				c32.56-33.06,53.53-79.05,47.4-127.14"/>
			<path class="st38" d="M282.81,1389.67c26.95-34.89,60.39-65.35,98.04-90.91c16.61-11.29,34.13-21.67,52.97-30.02
				c36.47-16.15,76.08-24.08,115.57-26.66c13.17-0.87,26.32-1.19,39.35-1.03c46.62,0.6,93.14,7.03,138.34,17.99
				c44.52,10.83,87.67,26.8,132.02,42.16c55.81,19.33,110.71,42.55,169.13,54.2c51.15,10.18,107.3,9.88,153.54-10.82
				c6.75-3.02,13.27-6.47,19.54-10.37c48.64-30.31,72.18-81.18,89.17-133.01c4.48-13.67,8.5-27.41,12.44-40.87
				c12.48-42.75,27.1-86.54,46.62-127.09c29.05-60.42,71.03-110.46,131.27-146.74c21.56-12.98,46.83-24.81,73.75-31.06
				c39.15-9.13,77.45-10.3,112.59-17.98c5.7-1.26,11.37-2.65,16.95-4.29c40.22-11.84,74.45-34.37,99.76-64.28
				c29.2-34.73,46.09-80.56,38.02-127.02"/>
			<path class="st39" d="M292.08,1406c26.24-34.11,59.14-63.66,96.33-88.18c16.4-10.82,33.68-20.7,52.07-28.85
				c35.6-15.8,74.1-24.77,112.77-28.72c12.9-1.33,25.82-2.12,38.67-2.47c45.87-1.13,91.88,3.34,136.84,12.39
				c44.26,8.94,87.44,22.79,130.87,37.35c57.26,19.2,113.05,43.29,172.68,55.48c52.14,10.64,109.59,10.68,156.88-10.23
				c6.9-3.05,13.58-6.54,20-10.51c49.81-30.79,73.72-82.73,91.27-135.64c4.62-13.94,8.81-27.95,12.92-41.68
				c13.05-43.56,28.68-88.19,49.57-129.45c31.08-61.44,75.24-113.01,138.78-147.87c21.55-11.82,46.09-22.08,71.76-28.41
				c37.42-9.27,74.42-12.92,108.23-22.93c5.49-1.63,10.93-3.41,16.28-5.42c38.65-14.52,70.55-39.57,92.91-70.93
				c25.85-36.41,38.65-82.08,28.64-126.89"/>
			<path class="st40" d="M301.35,1422.33c25.53-33.33,57.9-61.98,94.62-85.46c16.18-10.35,33.24-19.72,51.16-27.68
				c34.73-15.44,72.11-25.46,109.96-30.79c12.64-1.78,25.32-3.07,38-3.92c45.11-2.95,90.62-0.36,135.33,6.8
				c44.01,7.06,87.21,18.76,129.72,32.54c58.72,19.03,115.4,44.03,176.23,56.75c53.14,11.11,111.87,11.47,160.22-9.63
				c7.06-3.08,13.89-6.62,20.45-10.64c50.99-31.27,75.26-84.28,93.37-138.27c4.77-14.22,9.11-28.5,13.41-42.49
				c13.63-44.37,30.26-89.85,52.52-131.8c33.12-62.46,79.43-115.79,146.29-149c21.56-10.71,45.34-19.34,69.77-25.77
				c35.7-9.42,71.39-15.54,103.87-27.88c5.28-2.01,10.48-4.18,15.6-6.54c37.04-17.28,66.64-44.78,86.07-77.57
				c22.5-38.08,31.21-83.6,19.25-126.76"/>
			<path class="st41" d="M310.63,1438.66c56.97-74.7,150.85-124.08,250.33-142.1s203.94-6.38,299.72,23.56
				c60.19,18.82,117.74,44.76,179.77,58.03c62.03,13.27,131.83,12.23,184.47-19.81c65.89-40.1,87.86-115.83,109.36-184.19
				c35.35-112.41,91.89-231.95,209.27-284.29c58.46-26.07,126.89-32.6,182.2-63.63c76.69-43.02,114.96-133.59,89.1-210.85"/>
		</g>
		<g>
			<path class="st41" d="M-789.38-192.36c49.01-41.71,100.83-80.82,155.1-117.02c24.12-16.1,49.39-31.91,78.45-39.1
				c74.28-18.38,149.93,23.55,206.78,69.84c52.37,42.64,99,90.84,138.59,143.25c39.24,51.93,72.33,108.78,124.1,151.15
				c51.77,42.37,129.63,67.61,193.51,41.37c38.01-15.61,65.5-47.32,80.59-82.04c15.09-34.72,18.98-72.46,19.87-109.67
				c1.02-42.61-1.11-87.57,21.81-125c23.72-38.75,74.26-63.15,123.74-59.76c70.39,4.83,122.3,57.47,173.56,100.63
				c65.12,54.82,144.49,100.67,233.5,110.52c89.01,9.85,187.89-23.53,229.74-94.05"/>
			<path class="st40" d="M-783.57-174.81c48.17-41.08,99.3-79.38,152.92-114.64c23.83-15.67,48.78-31.02,77.36-38.1
				c54.13-13.4,109.05,4.94,156.86,33.34c16.7,9.92,32.53,21.07,47.16,32.52c51.98,40.73,98.48,87.01,138.2,137.5
				c39.37,50.04,72.59,105.23,123.94,146.23c28.21,22.53,63.23,40.63,99.8,49.26c33.51,7.9,68.56,7.66,100.25-4.98
				c3.9-1.55,7.69-3.27,11.37-5.15c33.64-17.13,57.87-47.04,72.25-79.33c3.45-7.75,6.38-15.64,8.89-23.62
				c9.04-28.79,12.76-58.93,14.98-88.53c3.22-43.24,4.69-87.76,29.35-124.81c24.44-36.73,73.01-60.59,121.31-57.48
				c68.7,4.42,119.81,54.41,170.21,95.06c8.27,6.67,16.76,13.19,25.47,19.5c58.81,42.53,127.21,75.54,202.13,82.28
				c86.1,7.65,180.96-26.28,220.56-95.53"/>
			<path class="st39" d="M-777.76-157.26c47.33-40.44,97.77-77.95,150.75-112.26c23.54-15.25,48.17-30.13,76.27-37.09
				c53.21-13.19,107.25,3.99,154.52,30.94c16.51,9.41,32.2,20.02,46.75,30.93c51.59,38.82,97.95,83.18,137.81,131.75
				c39.5,48.14,72.9,101.64,123.79,141.32c29.46,22.96,65.4,41.74,103.06,51.09c34.43,8.52,70.74,8.82,103.53-3.9
				c4.03-1.56,7.97-3.31,11.79-5.22c34.91-17.45,59.71-48.41,74.86-81.71c3.63-7.98,6.75-16.09,9.46-24.27
				c9.77-29.5,14.66-60.3,18.4-90.35c5.42-43.87,10.41-87.9,36.89-124.62c25.04-34.73,71.77-58.02,118.88-55.21
				c67.02,4,117.33,51.34,166.87,89.5c8.13,6.26,16.47,12.37,25,18.27c57.78,39.72,124.37,69.86,196.7,74.76
				c83.19,5.45,174.02-29.02,211.38-97"/>
			<path class="st38" d="M-771.95-139.71c46.49-39.8,96.25-76.51,148.57-109.88c23.24-14.82,47.56-29.24,75.19-36.09
				c52.3-12.97,105.44,3.05,152.18,28.55c16.33,8.91,31.87,18.96,46.33,29.34c51.21,36.9,97.43,79.35,137.41,126.01
				c39.63,46.24,73.24,98.01,123.63,136.4C-57.92,58-21.06,77.47,17.69,87.54c35.35,9.15,72.92,9.97,106.8-2.83
				c4.17-1.57,8.24-3.34,12.21-5.28c36.19-17.76,61.55-49.78,77.48-84.1c3.8-8.2,7.11-16.54,10.03-24.93
				c10.49-30.2,16.56-61.67,21.82-92.18c7.61-44.51,16.06-88.01,44.42-124.44c25.51-32.76,70.52-55.46,116.44-52.94
				c65.33,3.59,114.84,48.28,163.52,83.94c7.99,5.85,16.17,11.55,24.54,17.03c56.74,36.92,121.52,64.18,191.26,67.25
				c80.28,3.24,167.09-31.76,202.2-98.48"/>
			<path class="st37" d="M-766.14-122.16c45.64-39.17,94.72-75.08,146.4-107.49c22.95-14.4,46.95-28.35,74.1-35.09
				c51.38-12.76,103.64,2.1,149.84,26.15c16.14,8.4,31.54,17.91,45.91,27.75c50.82,34.99,96.91,75.51,137.02,120.26
				C-173.11-46.24-139.26,3.76-89.4,40.9c31.98,23.81,69.75,43.97,109.59,54.76c36.27,9.78,75.09,11.13,110.08-1.75
				c4.31-1.59,8.52-3.37,12.62-5.35c37.46-18.08,63.38-51.15,80.1-86.48c3.98-8.43,7.48-16.99,10.61-25.58
				c11.22-30.91,18.47-63.04,25.24-94c9.81-45.14,21.62-88.1,51.96-124.25c25.88-30.83,69.28-52.89,114.01-50.67
				c63.64,3.17,112.35,45.21,160.17,78.37c7.85,5.44,15.86,10.74,24.08,15.8c55.62,34.25,118.68,58.67,185.83,59.73
				c77.37,1.22,160.16-34.51,193.02-99.96"/>
			<path class="st36" d="M-760.34-104.62c44.8-38.53,93.19-73.64,144.23-105.11c22.66-13.98,46.34-27.46,73.01-34.09
				c50.46-12.54,101.83,1.16,147.5,23.75c15.95,7.89,31.21,16.86,45.5,26.16c50.43,33.08,96.38,71.68,136.63,114.52
				c39.89,42.45,74.02,90.65,123.32,126.56C-56.9,71.4-18.23,92.27,22.69,103.77c37.19,10.41,77.27,12.28,113.36-0.67
				c4.45-1.6,8.8-3.4,13.04-5.41c38.74-18.39,65.22-52.52,82.72-88.86c4.16-8.65,7.85-17.43,11.18-26.23
				c11.94-31.61,20.37-64.42,28.66-95.83c12.01-45.77,27.1-88.19,59.5-124.06c26.15-28.95,68.03-50.33,111.58-48.39
				c61.95,2.76,109.86,42.15,156.82,72.81c7.71,5.03,15.56,9.93,23.61,14.57c54.56,31.48,115.84,53.03,180.39,52.21
				c74.47-0.94,153.23-37.25,183.85-101.43"/>
			<path class="st35" d="M-754.53-87.07c43.96-37.89,91.66-72.21,142.05-102.73c22.36-13.55,45.73-26.57,71.92-33.08
				c49.54-12.32,100.03,0.21,145.15,21.35c15.77,7.38,30.88,15.81,45.08,24.58c50.05,31.17,95.86,67.85,136.24,108.77
				c40.02,40.55,74.45,86.92,123.17,121.64c34.54,24.62,74.1,46.2,116.11,58.42c38.11,11.04,79.44,13.44,116.63,0.4
				c4.59-1.61,9.08-3.43,13.45-5.48c40.01-18.7,67.06-53.9,85.33-91.24c4.34-8.88,8.21-17.88,11.75-26.89
				c12.67-32.31,22.27-65.79,32.09-97.65c14.21-46.41,32.51-88.28,67.04-123.87c26.31-27.12,66.79-47.77,109.15-46.12
				c60.26,2.34,107.38,39.09,153.48,67.25c7.56,4.62,15.27,9.11,23.15,13.34c53.52,28.71,113.01,47.38,174.96,44.7
				c71.57-3.1,146.3-40,174.67-102.91"/>
			<path class="st34" d="M-748.72-69.52c43.12-37.25,90.13-70.77,139.88-100.35c22.07-13.13,45.12-25.68,70.83-32.08
				c48.62-12.11,98.22-0.73,142.81,18.95c15.58,6.88,30.57,14.73,44.67,22.99c49.73,29.14,95.34,64.02,135.84,103.03
				c40.15,38.65,74.9,83.17,123.01,116.73c35.85,25,76.28,47.31,119.38,60.25c39.02,11.66,81.62,14.59,119.91,1.48
				c4.73-1.62,9.35-3.47,13.87-5.55c41.29-19.02,68.9-55.27,87.95-93.62c4.51-9.1,8.58-18.33,12.32-27.54
				c13.39-33.02,24.17-67.16,35.51-99.48c16.41-47.04,37.83-88.4,74.57-123.68c26.39-25.34,65.54-45.2,106.72-43.85
				c58.57,1.93,104.89,36.02,150.13,61.68c7.42,4.21,14.97,8.3,22.68,12.11c52.47,25.93,110.17,41.74,169.52,37.18
				c68.68-5.27,139.37-42.74,165.49-104.39"/>
			<path class="st33" d="M-742.91-51.97c42.28-36.62,88.61-69.34,137.7-97.96c21.78-12.7,44.51-24.79,69.74-31.08
				c47.7-11.89,96.42-1.68,140.47,16.56c15.39,6.37,30.24,13.67,44.25,21.4c49.34,27.22,94.81,60.19,135.45,97.28
				c40.28,36.76,75.37,79.39,122.86,111.81c37.16,25.37,78.45,48.43,122.64,62.08c39.94,12.29,83.8,15.75,123.19,2.56
				c4.87-1.63,9.63-3.5,14.28-5.61c42.56-19.33,70.73-56.64,90.57-96c4.69-9.33,8.94-18.78,12.9-28.19
				c14.12-33.72,26.07-68.53,38.93-101.3c18.6-47.68,43.07-88.56,82.11-123.5c26.39-23.61,64.3-42.64,104.28-41.58
				c56.89,1.51,102.4,32.96,146.78,56.12c7.28,3.8,14.68,7.48,22.22,10.88c51.43,23.15,107.34,36.09,164.09,29.67
				c65.78-7.45,132.44-45.49,156.31-105.87"/>
			<path class="st32" d="M-737.1-34.42c41.44-35.98,87.08-67.9,135.53-95.58c21.48-12.28,43.9-23.9,68.65-30.07
				c46.78-11.67,94.61-2.62,138.13,14.16c15.21,5.86,29.91,12.62,43.83,19.81c48.96,25.3,94.29,56.36,135.06,91.53
				c40.41,34.86,75.86,75.58,122.7,106.89c38.48,25.73,80.63,49.54,125.9,63.92c40.86,12.92,85.97,16.9,126.46,3.63
				c5.01-1.64,9.91-3.53,14.7-5.68c43.83-19.64,72.57-58.01,93.19-98.38c4.87-9.56,9.31-19.23,13.47-28.85
				c14.84-34.43,27.97-69.9,42.35-103.13c20.8-48.31,48.23-88.77,89.65-123.31c26.32-21.95,63.05-40.07,101.85-39.3
				c55.2,1.09,99.91,29.89,143.43,50.56c7.14,3.39,14.38,6.66,21.76,9.64c50.4,20.38,104.52,30.43,158.65,22.15
				c62.89-9.63,125.51-48.23,147.13-107.34"/>
			<path class="st31" d="M-731.3-16.87c40.6-35.34,85.55-66.47,133.36-93.2c21.19-11.86,43.29-23.01,67.56-29.07
				c45.86-11.46,92.81-3.57,135.79,11.76c15.02,5.35,29.58,11.56,43.42,18.22c48.57,23.38,93.77,52.53,134.67,85.79
				C-175.96,9.6-140.13,48.39-93.96,78.61c39.82,26.06,82.8,50.65,129.16,65.75c41.78,13.55,88.15,18.06,129.74,4.71
				c5.15-1.65,10.19-3.56,15.12-5.74c45.11-19.96,74.41-59.38,95.81-100.76c5.05-9.78,9.68-19.67,14.04-29.5
				c15.57-35.13,29.88-71.27,45.77-104.95c23-48.94,53.31-89.05,97.19-123.12c26.19-20.34,61.81-37.51,99.42-37.03
				c53.51,0.68,97.43,26.83,140.09,44.99c7,2.98,14.09,5.84,21.29,8.41c49.36,17.59,101.69,24.78,153.21,14.63
				c60-11.81,118.58-50.98,137.95-108.82"/>
			<path class="st30" d="M-725.49,0.68c39.76-34.71,84.02-65.04,131.18-90.82c20.9-11.43,42.68-22.11,66.47-28.07
				c44.94-11.24,91-4.51,133.45,9.36c14.84,4.85,29.25,10.51,43,16.64c48.18,21.46,93.24,48.7,134.28,80.04
				c40.67,31.07,76.89,67.9,122.39,97.06c41.17,26.38,84.98,51.77,132.43,67.58c42.7,14.17,90.33,19.21,133.02,5.79
				c5.28-1.66,10.47-3.59,15.53-5.81c46.38-20.27,76.25-60.76,98.42-103.15c5.23-10.01,10.04-20.12,14.61-30.15
				c16.29-35.84,31.78-72.65,49.2-106.77c25.2-49.58,58.32-89.42,104.72-122.93c26.02-18.79,60.56-34.94,96.99-34.76
				c51.82,0.26,94.94,23.76,136.74,39.43c6.86,2.57,13.79,5.02,20.83,7.18c48.34,14.8,98.86,19.11,147.78,7.12
				c57.12-14,111.64-53.72,128.77-110.3"/>
			<path class="st29" d="M-719.68,18.23c38.92-34.07,82.49-63.6,129.01-88.43c20.6-11.01,42.06-21.22,65.38-27.06
				c44.02-11.02,89.2-5.46,131.11,6.97c14.65,4.34,28.92,9.46,42.58,15.05c47.79,19.55,92.72,44.86,133.88,74.3
				c40.81,29.17,77.42,64.03,122.23,92.14c42.53,26.68,87.15,52.88,135.69,69.41c43.61,14.8,92.5,20.37,136.29,6.86
				c5.42-1.67,10.74-3.62,15.95-5.87c47.66-20.59,78.08-62.13,101.04-105.53c5.4-10.23,10.41-20.57,15.19-30.81
				c17.01-36.54,33.68-74.02,52.62-108.6c27.4-50.21,63.26-89.9,112.26-122.75c25.8-17.29,59.32-32.38,94.56-32.49
				c50.13-0.15,92.45,20.7,133.39,33.87c6.72,2.16,13.5,4.21,20.37,5.95c47.31,12.01,96.04,13.44,142.34-0.4
				c54.23-16.2,104.71-56.46,119.6-111.77"/>
			<path class="st28" d="M-713.87,35.78c38.07-33.43,80.96-62.17,126.83-86.05c20.31-10.59,41.45-20.33,64.3-26.06
				c43.1-10.81,87.39-6.4,128.77,4.57c14.46,3.83,28.58,8.41,42.17,13.46c47.4,17.64,92.2,41.03,133.49,68.55
				c40.94,27.27,77.97,60.14,122.08,87.22c43.9,26.96,89.33,54,138.95,71.24c44.53,15.43,94.68,21.52,139.57,7.94
				c5.56-1.68,11.02-3.66,16.36-5.94c48.93-20.9,79.92-63.5,103.66-107.91c5.58-10.46,10.78-21.02,15.76-31.46
				C335.8-5.9,353.64-44.05,374.1-79.08c29.59-50.85,68.12-90.5,119.8-122.56c25.56-15.85,58.07-29.81,92.12-30.21
				c48.44-0.57,89.96,17.63,130.04,28.3c6.58,1.75,13.21,3.38,19.9,4.72c46.29,9.21,93.22,7.75,136.91-7.91
				c51.34-18.41,97.78-59.21,110.42-113.25"/>
			<path class="st27" d="M-708.06,53.32c37.23-32.79,79.44-60.73,124.66-83.67c20.02-10.16,40.84-19.44,63.21-25.06
				c42.18-10.59,85.59-7.35,126.42,2.17c14.28,3.32,28.25,7.36,41.75,11.87c47,15.73,91.67,37.2,133.1,62.81
				c41.07,25.38,78.52,56.23,121.92,82.3c45.29,27.21,91.5,55.11,142.21,73.08c45.45,16.06,96.85,22.68,142.84,9.01
				c5.7-1.69,11.3-3.69,16.78-6c50.21-21.21,81.76-64.87,106.28-110.29c5.76-10.68,11.14-21.47,16.33-32.11
				c18.46-37.95,37.48-76.76,59.46-112.25c31.79-51.48,72.93-91.24,127.34-122.37c25.29-14.47,56.82-27.25,89.69-27.94
				c46.76-0.98,87.47,14.57,126.69,22.74c6.44,1.34,12.91,2.56,19.44,3.48c45.28,6.4,90.39,2.06,131.47-15.43
				c48.45-20.63,90.85-61.95,101.24-114.73"/>
			<path class="st26" d="M-702.25,70.87c36.39-32.16,77.91-59.3,122.48-81.29c19.72-9.74,40.23-18.55,62.12-24.05
				c41.27-10.38,83.78-8.29,124.08-0.23c14.09,2.82,27.92,6.31,41.34,10.29c46.61,13.82,91.15,33.37,132.71,57.06
				c41.2,23.48,79.09,52.3,121.77,77.39c46.69,27.44,93.68,56.22,145.48,74.91c46.37,16.68,99.03,23.83,146.12,10.09
				c5.84-1.7,11.58-3.72,17.19-6.07c51.48-21.53,83.6-66.24,108.89-112.67c5.94-10.91,11.51-21.91,16.9-32.76
				c19.19-38.65,39.39-78.13,62.88-114.07c33.99-52.11,77.67-92.15,134.87-122.18c25.02-13.14,55.58-24.69,87.26-25.67
				c45.07-1.4,84.99,11.5,123.35,17.17c6.3,0.93,12.62,1.74,18.98,2.25c44.26,3.58,87.56-3.64,126.04-22.95
				c45.56-22.86,83.92-64.7,92.06-116.2"/>
			<path class="st25" d="M-696.45,88.42c35.55-31.52,76.38-57.86,120.31-78.9c19.43-9.31,39.62-17.66,61.03-23.05
				c40.35-10.16,81.97-9.24,121.74-2.63c13.9,2.31,27.59,5.26,40.92,8.7c46.21,11.92,90.63,29.54,132.31,51.31
				c41.33,21.58,79.66,48.36,121.61,72.47c48.1,27.64,95.85,57.34,148.74,76.74c47.29,17.31,101.21,24.99,149.4,11.17
				c5.98-1.71,11.86-3.75,17.61-6.13c52.75-21.84,85.44-67.62,111.51-115.05c6.11-11.13,11.87-22.36,17.48-33.42
				c19.91-39.36,41.29-79.5,66.3-115.9c36.19-52.75,82.37-93.22,142.41-121.99c24.74-11.86,54.33-22.12,84.83-23.4
				c43.38-1.81,82.5,8.44,120,11.61c6.16,0.52,12.33,0.91,18.51,1.02c43.24,0.75,84.72-9.35,120.6-30.46
				c42.66-25.11,76.99-67.44,82.88-117.68"/>
			<path class="st24" d="M-690.64,105.97c34.71-30.88,74.85-56.43,118.14-76.52c19.14-8.89,39.01-16.77,59.94-22.05
				c39.43-9.94,80.17-10.18,119.4-5.02c13.72,1.8,27.25,4.21,40.5,7.11c45.82,10.03,90.1,25.71,131.92,45.57
				c41.46,19.69,80.23,44.4,121.46,67.55c49.53,27.81,98.03,58.45,152,78.57c48.21,17.94,103.38,26.14,152.67,12.24
				c6.12-1.72,12.13-3.78,18.03-6.2c54.03-22.16,87.27-68.99,114.13-117.43c6.29-11.36,12.24-22.81,18.05-34.07
				C376.23,15.66,398.78-25.16,425.32-62c38.39-53.38,87.03-94.5,149.95-121.81c24.47-10.62,53.09-19.56,82.4-21.12
				c41.69-2.23,80.01,5.38,116.65,6.05c6.02,0.11,12.04,0.09,18.05-0.21c42.22-2.1,81.87-15.06,115.17-37.98
				c39.75-27.36,70.06-70.19,73.7-119.16"/>
			<path class="st23" d="M-684.83,123.52c33.87-30.25,73.32-54.99,115.96-74.14c18.84-8.47,38.4-15.88,58.85-21.05
				c38.51-9.73,78.36-11.13,117.06-7.42c13.53,1.29,26.92,3.19,40.09,5.52c45.41,8.22,89.58,21.88,131.53,39.82
				c41.59,17.79,80.81,40.43,121.3,62.63c50.97,27.95,100.2,59.56,155.26,80.4c49.12,18.57,105.56,27.29,155.95,13.32
				c6.26-1.73,12.41-3.82,18.44-6.27c55.3-22.47,89.11-70.36,116.75-119.81c6.47-11.59,12.61-23.26,18.62-34.72
				c21.36-40.77,45.09-82.25,73.15-119.55c40.58-54.02,91.66-95.97,157.49-121.62c24.22-9.44,51.84-16.99,79.96-18.85
				c40-2.64,77.52,2.31,113.3,0.48c5.88-0.3,11.74-0.74,17.58-1.44c41.2-4.95,79.02-20.79,109.73-45.49
				c36.82-29.62,63.13-72.93,64.52-120.63"/>
			<path class="st22" d="M-679.02,141.07c33.03-29.61,71.79-53.56,113.79-71.76c18.55-8.04,37.79-14.99,57.76-20.04
				c37.59-9.51,76.56-12.07,114.72-9.82c13.34,0.79,26.59,2.14,39.67,3.93c45.02,6.31,89.06,18.05,131.14,34.08
				c41.72,15.89,81.39,36.44,121.15,57.72c52.43,28.06,102.38,60.68,158.53,82.23c50.04,19.2,107.74,28.45,159.23,14.4
				c6.4-1.74,12.69-3.85,18.86-6.33c56.58-22.78,90.95-71.73,119.36-122.2c6.65-11.81,12.97-23.71,19.19-35.38
				c22.09-41.47,46.99-83.62,76.57-121.37c42.78-54.65,96.29-97.67,165.02-121.43c23.99-8.29,50.6-14.43,77.53-16.58
				c38.31-3.06,75.04-0.75,109.96-5.08c5.73-0.71,11.45-1.57,17.12-2.67c40.16-7.82,76.15-26.52,104.3-53.01
				c33.88-31.89,56.2-75.67,55.34-122.11"/>
			<path class="st21" d="M-673.21,158.62c32.19-28.97,70.27-52.12,111.61-69.37c18.26-7.62,37.18-14.1,56.67-19.04
				c36.67-9.29,74.75-13.02,112.38-12.22c13.16,0.28,26.26,1.09,39.25,2.35c44.64,4.39,88.54,14.21,130.74,28.33
				c41.85,14,81.98,32.44,120.99,52.8c53.9,28.13,104.55,61.79,161.79,84.07c50.96,19.82,109.91,29.6,162.5,15.47
				c6.53-1.76,12.97-3.88,19.27-6.4c57.85-23.1,92.79-73.1,121.98-124.58c6.83-12.04,13.34-24.15,19.76-36.03
				c22.81-42.18,48.89-84.99,79.99-123.2c44.98-55.28,100.91-99.59,172.56-121.24c23.8-7.19,49.35-11.86,75.1-14.31
				c36.63-3.47,72.55-3.82,106.61-10.64c5.59-1.12,11.15-2.41,16.66-3.91c39.1-10.77,73.26-32.25,98.86-60.53
				c30.92-34.16,49.26-78.42,46.17-123.59"/>
			<path class="st20" d="M-667.41,176.17c71.19-64.35,173.55-97.86,275.06-99.64c101.51-1.78,201.89,26.42,290.03,71.22
				c55.39,28.16,106.73,62.91,165.05,85.9c58.33,22.99,127.18,33.17,185.47,10.09c72.94-28.88,109.92-99.85,144.94-163.64
				c57.58-104.9,137.45-213.42,263.51-246.08c62.79-16.27,131.42-11.72,192.12-33.38c84.16-30.02,140.17-112.97,130.41-193.11"/>
		</g>
		<g>
			<path class="st41" d="M-222.26,1107.67c-10.75-77.26,75.04-142.53,161.57-154.54c86.53-12.01,173.32,12.76,259.06,28.64
				c85.73,15.88,182.2,21.12,253.81-23.68c91.56-57.28,112.74-177.77,206.93-231.57c73.42-41.93,168.98-29.39,244.2,1.81
				c42.53,17.64,78.69,47.31,119.34,67.98c184.35,93.73,196.78,285.29,353.4,313.85c169.58,30.93,261.6-42.57,293.6-93.54
				c41-65.29,109.35-234.71-58.15-352.45c-68.05-47.83-135.23-98.8-185.28-161.78c-74.95-94.29-74.44-238.44,21.4-316.35
				c65.69-53.4,166.57-72.92,211.19-141.38c29.99-46.02,25.89-105.34,0.11-153.33c-25.78-47.99-70.69-85.94-119.48-116.72"/>
			<path class="st40" d="M-218.38,1111.53c-7.42-79.47,77.91-148.14,167.01-161.8c86.99-13.34,175.22,11.24,260.95,28.77
				c84.74,17.32,178.8,25.17,250.19-15.55c91.19-52.11,116.83-166.49,210.91-219.58c74.94-42.07,169.03-34.23,246-6.98
				c44.27,15.68,83.41,43.62,126.02,64.6c180.33,88.81,195.32,274.21,348.53,302.38c164.8,30.24,256.3-39.3,289.56-89.47
				c42.13-63.54,107.53-226.67-50.91-343.19c-65.18-47.94-129.96-99.94-179.21-162.53c-72.74-92.05-73.46-231.01,17.06-308.31
				c62.54-53.4,159.84-75.21,204.28-142.79c30.5-46.2,28.63-104.65,6.09-153.03c-22.72-48.77-64.2-88.91-111.08-121.95"/>
			<path class="st39" d="M-214.49,1115.39c-4.09-81.69,80.78-153.72,172.46-169.06c87.44-14.63,177.11,9.7,262.84,28.89
				c83.75,18.75,175.41,29.23,246.57-7.42c90.82-46.95,120.81-155.41,214.88-207.59c76.37-42.37,169.16-39.14,247.8-15.77
				c46.05,13.69,88.11,39.93,132.69,61.22c176.17,84.12,193.86,263.13,343.66,290.91c160.01,29.55,250.98-36.03,285.52-85.4
				c43.24-61.79,105.7-218.74-43.67-333.93c-62.34-48.08-124.57-101.17-173.14-163.28c-70.35-89.96-72.48-223.64,12.72-300.26
				c59.41-53.43,153.12-77.49,197.36-144.19c31.01-46.38,31.39-104.01,12.08-152.72c-19.66-49.6-57.72-91.87-102.69-127.17"/>
			<path class="st38" d="M-210.61,1119.24c-0.76-83.91,83.65-159.28,177.9-176.32c87.9-15.9,178.99,8.14,264.74,29.02
				c82.75,20.15,172.02,33.28,242.95,0.71c90.45-41.78,124.86-144.21,218.86-195.6c77.86-42.57,169.36-44.12,249.6-24.55
				c47.87,11.67,92.8,36.26,139.37,57.84c171.89,79.64,192.4,252.05,338.8,279.43c155.23,28.87,245.64-32.76,281.48-81.33
				c44.32-60.05,103.88-210.92-36.43-324.67c-59.53-48.26-119.25-102.35-167.07-164.03c-68.06-87.78-71.5-216.31,8.37-292.21
				c56.28-53.49,146.23-79.89,190.45-145.59c31.4-46.65,34.16-103.41,18.06-152.42c-16.59-50.48-51.23-94.83-94.3-132.4"/>
			<path class="st37" d="M-206.72,1123.1c2.57-86.12,86.51-164.81,183.35-183.59c88.36-17.14,180.88,6.57,266.63,29.15
				c81.76,21.53,168.63,37.33,239.34,8.84c90.08-36.62,128.91-132.99,222.83-183.61c79.36-42.77,169.61-49.17,251.4-33.34
				c49.72,9.62,97.47,32.61,146.04,54.46c167.49,75.35,190.94,240.97,333.93,267.96c150.44,28.18,240.28-29.5,277.44-77.27
				c45.37-58.32,102.07-203.23-29.19-315.41c-56.73-48.48-113.93-103.52-160.99-164.78c-65.78-85.6-70.52-209.04,4.03-284.17
				c53.17-53.59,139.46-82.21,183.53-146.99c31.87-46.85,36.97-102.86,24.04-152.11c-13.49-51.41-44.74-97.8-85.9-137.63"/>
			<path class="st36" d="M-202.84,1126.95c5.9-88.34,89.38-170.31,188.79-190.85c88.83-18.35,182.76,4.97,268.52,29.27
				c80.77,22.89,165.24,41.38,235.72,16.97C579.9,950.89,623.17,860.58,717,810.72c80.85-42.96,169.9-54.29,253.2-42.13
				c51.59,7.53,102.13,28.97,152.72,51.08c163,71.24,189.48,229.89,329.07,256.49c145.66,27.49,234.91-26.24,273.4-73.2
				c46.4-56.6,100.29-195.68-21.95-306.15c-53.95-48.76-108.61-104.7-154.92-165.52c-63.5-83.41-69.56-201.83-0.32-276.12
				c50.07-53.72,132.7-84.52,176.62-148.4c32.35-47.06,39.81-102.35,30.03-151.81c-10.36-52.38-38.26-100.76-77.51-142.85"/>
			<path class="st35" d="M-198.95,1130.81c9.23-90.56,92.25-175.8,194.24-198.11c89.3-19.54,184.65,3.35,270.41,29.4
				c79.77,24.23,161.89,45.59,232.1,25.1c89.4-26.09,137.05-110.53,230.78-159.63c82.36-43.14,170.22-59.48,255.01-50.92
				c53.48,5.4,106.77,25.35,159.4,47.7c158.42,67.28,188.02,218.81,324.2,245.02c140.87,26.81,229.51-22.99,269.36-69.13
				c47.4-54.89,98.54-188.3-14.71-296.89c-51.19-49.09-103.3-105.86-148.85-166.27c-61.24-81.21-68.61-194.68-4.66-268.08
				c46.96-53.9,125.95-86.82,169.7-149.8c32.83-47.26,42.69-101.87,36.01-151.5c-7.19-53.38-31.77-103.73-69.12-148.08"/>
			<path class="st34" d="M-195.07,1134.67c12.56-92.78,95.13-181.26,199.68-205.37c89.77-20.7,186.54,1.71,272.31,29.53
				c78.78,25.55,158.49,49.66,228.48,33.23c89.03-20.9,141.12-99.28,234.76-147.64c83.86-43.32,170.55-64.74,256.81-59.7
				c55.38,3.24,111.4,21.75,166.07,44.32c153.78,63.47,186.56,207.73,319.33,233.55c136.09,26.12,224.1-19.75,265.32-65.06
				c48.38-53.19,96.85-181.08-7.47-287.63c-48.45-49.48-97.99-107.03-142.78-167.02c-58.98-79.01-67.68-187.61-9-260.03
				c43.86-54.13,119.21-89.13,162.79-151.2c33.32-47.46,45.63-101.41,41.99-151.2c-3.97-54.41-25.28-106.69-60.72-153.3"/>
			<path class="st33" d="M-191.18,1138.52c15.89-94.99,98.01-186.7,205.13-212.63c90.24-21.85,188.43,0.06,274.2,29.65
				c77.8,26.84,155.09,53.73,224.86,41.36c88.65-15.72,145.21-88.02,238.73-135.65c85.38-43.48,170.89-70.07,258.61-68.49
				c57.29,1.03,116.01,18.18,172.75,40.94c149.07,59.79,185.1,196.65,314.47,222.08c131.3,25.43,218.67-16.51,261.28-60.99
				c49.34-51.5,95.23-174.05-0.23-278.37c-45.7-49.94-92.68-108.19-136.7-167.77c-56.74-76.8-66.79-180.62-13.35-251.99
				c40.74-54.41,112.47-91.43,155.87-152.6c33.81-47.66,48.61-100.98,47.98-150.89c-0.71-55.46-18.8-109.65-52.33-158.53"/>
			<path class="st32" d="M-187.3,1142.38c19.22-97.21,100.89-192.12,210.57-219.9c90.72-22.98,190.33-1.62,276.09,29.78
				c76.82,28.12,151.69,57.79,221.24,49.49C608.88,991.21,669.9,925,763.32,878.09c86.9-43.64,171.24-75.45,260.41-77.28
				c59.2-1.22,120.61,14.64,179.42,37.55c144.31,56.23,183.63,185.57,309.6,210.6c126.52,24.74,213.23-13.3,257.24-56.93
				c50.28-49.84,93.71-167.22,7.01-269.11c-42.95-50.47-87.38-109.34-130.63-168.52c-54.5-74.58-65.94-173.71-17.69-243.94
				c37.61-54.75,105.73-93.72,148.96-154c34.31-47.85,51.64-100.55,53.96-150.59c2.61-56.51-12.31-112.62-43.94-163.75"/>
			<path class="st31" d="M-183.41,1146.23c22.54-99.43,103.78-197.52,216.02-227.16c91.2-24.09,192.23-3.32,277.98,29.91
				c75.84,29.38,148.29,61.85,217.62,57.62c87.88-5.37,153.39-65.47,246.68-111.67c88.42-43.79,171.58-80.88,262.21-86.07
				c61.11-3.5,125.19,11.13,186.1,34.17c139.5,52.77,182.17,174.49,304.74,199.13c121.73,24.06,207.76-10.09,253.21-52.86
				c51.2-48.18,92.3-160.6,14.25-259.85c-40.18-51.09-82.09-110.49-124.56-169.27c-52.27-72.35-65.15-166.89-22.04-235.9
				c34.45-55.14,99.01-96.01,142.04-155.41c34.81-48.04,54.72-100.11,59.94-150.28c5.99-57.57-5.82-115.58-35.54-168.98"/>
			<path class="st30" d="M-179.52,1150.09c25.87-101.65,106.68-202.9,221.46-234.42c91.69-25.18,194.14-5.03,279.87,30.03
				c74.88,30.62,144.89,65.9,214,65.75c87.5-0.2,157.49-54.18,250.66-99.68c89.94-43.93,171.91-86.36,264.01-94.86
				c63.01-5.81,129.75,7.66,192.78,30.79c134.65,49.43,180.71,163.42,299.87,187.66c116.95,23.37,202.28-6.9,249.17-48.79
				c52.1-46.55,91.05-154.19,21.48-250.59c-37.38-51.8-76.81-111.63-118.49-170.02c-50.05-70.12-64.43-160.14-26.38-227.85
				c31.24-55.6,92.29-98.3,135.13-156.81c35.31-48.23,57.85-99.67,65.92-149.98c9.41-58.61,0.66-118.55-27.15-174.21"/>
			<path class="st29" d="M-175.64,1153.95c29.2-103.86,109.58-208.26,226.91-241.68c92.18-26.26,196.06-6.77,281.77,30.16
				c73.92,31.85,141.48,69.95,210.38,73.88c87.12,4.96,161.59-42.88,254.63-87.69c91.48-44.06,172.23-91.88,265.82-103.64
				c64.9-8.16,134.3,4.23,199.45,27.41c129.76,46.17,179.25,152.34,295,176.19c112.16,22.68,196.79-3.73,245.13-44.72
				c52.98-44.93,89.97-147.99,28.72-241.33c-34.51-52.6-71.53-112.77-112.41-170.76c-47.85-67.87-63.8-153.48-30.72-219.81
				c27.98-56.11,85.57-100.58,128.21-158.21c35.82-48.41,61.01-99.21,71.91-149.68c12.88-59.63,7.15-121.51-18.76-179.43"/>
			<path class="st28" d="M-171.75,1157.8c32.53-106.08,112.49-213.6,232.35-248.94c92.68-27.33,197.99-8.53,283.66,30.29
				c72.96,33.06,138.08,74,206.77,82.01c86.73,10.12,165.69-31.57,258.61-75.7c93.01-44.18,172.52-97.44,267.62-112.43
				c66.78-10.53,138.84,0.86,206.13,24.03c124.85,43,177.79,141.26,290.14,164.72c107.38,22,191.29-0.58,241.09-40.65
				c53.86-43.34,89.1-141.99,35.96-232.07c-31.56-53.5-66.26-113.9-106.34-171.51c-45.65-65.62-63.27-146.88-35.07-211.76
				c24.64-56.68,78.86-102.86,121.3-159.61c36.34-48.59,64.2-98.73,77.89-149.37c16.39-60.64,13.64-124.48-10.36-184.66"/>
			<path class="st27" d="M-167.87,1161.66c35.86-108.3,115.4-218.92,237.8-256.21c93.18-28.39,199.93-10.31,285.55,30.41
				c72.02,34.25,134.68,78.03,203.15,90.14c86.35,15.26,169.8-20.25,262.58-63.71c94.55-44.29,172.81-103.03,269.42-121.22
				c68.64-12.93,143.35-2.46,212.8,20.65c119.91,39.91,176.33,130.18,285.27,153.25c102.59,21.31,185.77,2.56,237.05-36.59
				c54.71-41.76,88.48-136.17,43.2-222.81c-28.49-54.5-61.01-115.03-100.27-172.26c-43.47-63.36-62.85-140.34-39.41-203.72
				c21.2-57.3,72.15-105.13,114.38-161.01c36.86-48.77,67.42-98.23,83.87-149.07c19.94-61.61,20.12-127.44-1.97-189.88"/>
			<path class="st26" d="M-163.98,1165.51C-124.79,1055-45.66,941.29,79.26,902.05c93.69-29.43,201.88-12.1,287.44,30.54
				c71.09,35.43,131.28,82.07,199.53,98.27c85.97,20.41,173.92-8.93,266.56-51.72c96.09-44.39,173.07-108.64,271.22-130.01
				c70.49-15.35,147.85-5.72,219.48,17.27c114.96,36.9,174.87,119.1,280.4,141.77c97.81,20.62,180.24,5.67,233.01-32.52
				c55.56-40.21,88.14-130.51,50.44-213.55c-25.24-55.59-55.76-116.14-94.2-173.01c-41.29-61.1-62.57-133.84-43.75-195.67
				c17.64-57.96,65.45-107.4,107.47-162.42c37.38-48.94,70.66-97.71,89.86-148.76c23.52-62.55,26.61-130.4,6.42-195.11"/>
			<path class="st25" d="M-160.1,1169.37c42.52-112.73,121.26-229.51,248.69-270.73c94.2-30.47,203.85-13.92,289.34,30.66
				c70.17,36.59,127.89,86.1,195.91,106.4c85.6,25.54,178.03,2.41,270.53-39.73c97.64-44.48,173.31-114.27,273.02-138.79
				c72.33-17.79,152.33-8.9,226.16,13.89c109.99,33.95,173.41,108.02,275.54,130.3c93.03,19.94,174.7,8.76,228.97-28.45
				c56.4-38.68,88.1-124.96,57.68-204.29c-21.77-56.77-50.53-117.25-88.12-173.76c-39.13-58.82-62.42-127.35-48.1-187.62
				c13.93-58.63,58.76-109.67,100.55-163.82c37.91-49.11,73.91-97.15,95.84-148.46c27.12-63.46,33.1-133.37,14.82-200.33"/>
			<path class="st24" d="M-156.21,1173.23c45.85-114.95,124.19-234.79,254.13-277.99c94.72-31.5,205.83-15.75,291.23,30.79
				c69.25,37.74,124.54,90.01,192.29,114.53c85.29,30.53,182.15,13.75,274.51-27.74c99.19-44.56,173.53-119.93,274.82-147.58
				c74.15-20.24,156.79-11.99,232.83,10.51c105.01,31.07,171.95,96.94,270.67,118.83c88.24,19.25,169.16,11.83,224.93-24.38
				c57.24-37.16,88.39-119.44,64.92-195.03c-18-57.99-45.31-118.35-82.05-174.51c-36.99-56.54-62.41-120.85-52.44-179.58
				c10.07-59.3,52.06-111.93,93.64-165.22c38.44-49.28,77.18-96.58,101.82-148.15c30.74-64.34,39.58-136.33,23.21-205.56"/>
			<path class="st23" d="M-152.33,1177.08c49.18-117.17,127.14-240.04,259.58-285.25c95.24-32.51,207.82-17.6,293.12,30.92
				c68.35,38.88,121.14,94.06,188.67,122.66c84.92,35.69,186.28,25.1,278.48-15.75c100.75-44.63,173.73-125.6,276.62-156.37
				c75.96-22.72,161.22-14.98,239.51,7.13c100.03,28.25,170.49,85.86,265.81,107.36c83.46,18.56,163.6,14.87,220.89-20.31
				c58.07-35.67,89.01-113.87,72.16-185.77c-13.89-59.23-40.11-119.44-75.98-175.26c-34.86-54.24-62.54-114.29-56.79-171.53
				c6.03-59.93,45.38-114.19,86.72-166.62c38.98-49.44,80.45-95.97,107.81-147.85c34.38-65.19,46.07-139.3,31.6-210.79"/>
			<path class="st22" d="M-148.44,1180.94c52.51-119.38,130.09-245.28,265.02-292.52c95.76-33.52,209.84-19.47,295.01,31.04
				c67.47,40.01,117.75,98.11,185.05,130.79c84.55,40.86,190.47,36.62,282.46-3.76c102.39-44.51,173.91-131.28,278.43-165.16
				c77.75-25.2,165.63-17.85,246.18,3.75c95.06,25.5,169.03,74.78,260.94,95.89c78.67,17.87,158.04,17.9,216.85-16.24
				c58.9-34.2,89.97-108.14,79.4-176.51c-9.35-60.42-34.93-120.51-69.91-176c-32.74-51.95-62.8-107.65-61.13-163.49
				c1.81-60.49,38.79-116.37,79.81-168.02c39.62-49.52,83.73-95.35,113.79-147.54c38.02-66.01,52.56-142.26,40-216.01"/>
			<path class="st21" d="M-144.55,1184.79c55.84-121.6,133.11-250.33,270.47-299.78c96.34-34.4,211.87-21.36,296.91,31.17
				c66.59,41.13,114.36,102.17,181.43,138.92c84.18,46.02,194.56,47.9,286.43,8.23c103.91-44.64,174.07-136.97,280.23-173.95
				c79.53-27.7,170.02-20.59,252.86,0.37c90.1,22.79,167.57,63.7,256.07,84.42c73.89,17.19,152.48,20.9,212.81-12.18
				c59.73-32.74,91.24-102.14,86.64-167.25c-4.34-61.46-29.78-121.58-63.83-176.75c-30.64-49.64-63.16-100.89-65.47-155.44
				c-2.58-60.94,32.07-118.66,72.89-169.43c40.13-49.7,87-94.7,119.77-147.24c41.66-66.8,59.04-145.22,48.39-221.24"/>
			<path class="st20" d="M-140.67,1188.65c59.17-123.82,136.02-255.72,275.91-307.04c96.83-35.52,213.91-23.26,298.8,31.3
				c65.73,42.24,110.97,106.22,177.82,147.05c83.81,51.19,198.66,59.19,290.41,20.22c105.44-44.78,174.22-142.67,282.03-182.73
				c81.3-30.21,174.38-23.15,259.54-3.01c85.15,20.14,166.11,52.62,251.21,72.94c69.1,16.5,146.92,23.87,208.77-8.11
				c60.56-31.31,92.75-95.72,93.88-157.99c1.13-62.26-24.65-122.62-57.76-177.5c-28.55-47.33-63.61-93.98-69.82-147.4
				c-7.12-61.26,25.34-120.94,65.97-170.83c40.63-49.89,90.28-94.03,125.75-146.93c45.31-67.57,65.53-148.19,56.78-226.46"/>
		</g>
		<g>
			<path class="st20" d="M872.71,1649.83c-74.48-40.95-77.97-141.29-34.28-208.76c43.68-67.47,119.78-112.09,187.41-161.54
				c67.63-49.45,132.67-113,138.25-190.69c7.14-99.32-85.25-189.48-73.41-288.45c9.23-77.13,80.1-135.48,154.58-168.05
				c42.11-18.42,90.78-24.88,134.37-40.09c197.68-69,373.43,42.39,496.6-48.22c133.36-98.11,126.57-207.91,101.92-262.02
				c-31.57-69.31-137.3-222.81-345.47-180.52c-84.57,17.18-171.35,31.79-257.94,27.02c-129.63-7.15-255.71-97.81-263.98-213.02
				c-5.67-78.96,40.42-161.09,8.34-234.9c-21.56-49.61-76.15-83.93-134.38-96.14c-58.23-12.2-119.64-4.87-177.2,9.65"/>
			<path class="st42" d="M878.53,1649.55c-74.34-44.65-81.08-146.8-37.24-217.08c42.81-68.63,119.6-114.33,188.71-162.77
				c68.25-47.84,134.09-108.11,143.11-183.08c11.43-95.83-72.79-185.25-60.41-283.69c10.06-78.28,75.79-138.51,148-174.81
				c41.42-20.82,90.57-30.49,135.59-46.84c191.12-69.41,362.8,36.47,483.49-52.04c129.76-95.23,126.1-202.22,102.96-256.67
				c-29.34-69.04-131.68-216.46-332.81-179.73c-82.98,15.15-169.05,27.43-254.79,22.34c-126.28-7.27-248.6-93.93-259.65-204.97
				c-7.65-76.85,34.2-157.86,2.78-230.99c-21.4-50.07-73.83-85.4-130.36-100.09c-57.01-14.81-118.18-11.22-176.52,0.56"/>
			<path class="st43" d="M884.34,1649.27c-74.19-48.34-84.17-152.29-40.2-225.4c41.97-69.77,119.41-116.59,190-164.01
				c68.85-46.24,135.52-103.22,147.97-175.48c15.73-92.34-60.58-181.05-47.4-278.93c10.7-79.44,71.49-141.63,141.42-181.56
				c40.75-23.27,90.34-36.08,136.81-53.58c184.62-69.55,352.17,30.54,470.38-55.85c126.16-92.35,125.62-196.52,103.99-251.32
				c-27.13-68.75-126.13-210.19-320.16-178.95c-81.44,13.11-166.75,23.07-251.64,17.66c-122.94-7.4-241.53-90.08-255.31-196.92
				c-9.65-74.77,27.98-154.64-2.78-227.07c-21.25-50.54-71.54-86.91-126.35-104.05c-55.82-17.46-116.71-17.57-175.85-8.53"/>
			<path class="st44" d="M890.16,1649c-74.05-52.04-87.24-157.77-43.15-233.72c41.15-70.89,119.2-118.86,191.3-165.24
				c69.44-44.66,136.95-98.33,152.83-167.88c20.03-88.84-48.23-176.83-34.4-274.18c11.45-80.6,67.2-144.83,134.84-188.31
				c40.09-25.77,90.12-41.65,138.03-60.32c178.19-69.47,341.54,24.61,457.28-59.67c122.56-89.46,125.13-190.8,105.03-245.98
				c-24.93-68.44-120.66-204.02-307.5-178.16c-79.93,11.06-164.43,18.5-248.49,12.99c-119.57-7.84-234.52-86.27-250.98-188.87
				c-11.67-72.72,21.57-151.33-8.35-223.16c-21.22-50.95-69.27-88.45-122.33-108c-54.64-20.13-115.25-23.92-175.17-17.62"/>
			<path class="st23" d="M895.97,1648.72c-73.91-55.73-90.29-163.23-46.11-242.04c40.35-71.99,118.97-121.14,192.6-166.47
				c70-43.1,138.38-93.44,157.69-160.28c24.33-85.35-35.85-172.61-21.39-269.42c12.21-81.76,62.9-148.13,128.27-195.07
				c39.43-28.31,89.9-47.19,139.25-67.07c171.81-69.19,330.91,18.68,444.17-63.48c118.96-86.58,124.63-185.06,106.07-240.63
				c-22.76-68.11-115.26-197.96-294.85-177.38c-78.46,8.99-162.12,14.08-245.34,8.31c-116.22-8.05-227.56-82.49-246.65-180.82
				c-13.72-70.7,15.31-148.09-13.91-219.25c-21.1-51.4-67.01-90.04-118.31-111.96c-53.49-22.85-113.78-30.27-174.49-26.7"/>
			<path class="st24" d="M901.79,1648.45c-73.77-59.43-93.32-168.67-49.07-250.37c39.58-73.08,118.73-123.44,193.89-167.7
				c70.55-41.55,139.95-88.5,162.55-152.68c28.81-81.8-23.46-168.39-8.39-264.66c12.98-82.91,58.58-151.51,121.69-201.82
				c38.76-30.9,89.67-52.72,140.46-73.81c165.5-68.72,320.28,12.75,431.06-67.3c115.36-83.69,124.12-179.32,107.1-235.28
				c-20.6-67.76-109.94-192.02-282.19-176.59c-77.04,6.9-159.81,9.66-242.2,3.63c-112.87-8.25-220.68-78.74-242.31-172.77
				c-15.81-68.71,9.05-144.84-19.47-215.33c-20.98-51.86-64.75-91.67-114.3-115.91c-52.34-25.6-112.32-36.62-173.82-35.79"/>
			<path class="st45" d="M907.6,1648.17c-73.63-63.13-96.33-174.09-52.02-258.69c38.83-74.14,118.48-125.75,195.19-168.93
				c71.09-40.02,141.4-83.6,167.42-145.08c33.13-78.28-11.06-164.17,4.61-259.9c13.76-84.06,54.23-154.96,115.11-208.58
				c38.08-33.53,89.45-58.23,141.68-80.55c159.24-68.08,309.65,6.82,417.95-71.11c111.76-80.81,123.59-173.56,108.14-229.93
				c-18.47-67.4-104.7-186.22-269.54-175.81c-75.66,4.78-157.5,5.25-239.05-1.04c-109.52-8.45-213.87-75.01-237.98-164.72
				c-17.94-66.75,2.8-141.61-25.03-211.42c-20.85-52.32-62.49-93.35-110.28-119.86c-51.2-28.4-110.85-42.97-173.14-44.88"/>
			<path class="st46" d="M913.42,1647.89c-73.48-66.82-99.32-179.51-54.98-267.01c38.1-75.2,118.21-128.08,196.49-170.16
				c71.61-38.5,142.84-78.69,172.28-137.48c37.44-74.77,1.36-159.94,17.62-255.14c14.55-85.22,49.84-158.48,108.54-215.33
				c37.38-36.2,89.24-63.7,142.9-87.3c153.03-67.28,299.02,0.89,404.85-74.93c108.16-77.92,123.04-167.79,109.18-224.59
				c-16.37-67.03-101.31-199.27-256.88-175.02c-73.48,11.45-155.19,0.84-235.9-5.72c-106.17-8.63-207.15-71.3-233.65-156.67
				c-20.12-64.82-3.45-138.37-30.59-207.51c-20.72-52.77-60.22-95.07-106.27-123.82c-50.05-31.25-109.39-49.32-172.46-53.97"/>
			<path class="st47" d="M919.23,1647.62c-73.34-70.52-102.29-184.91-57.94-275.33c37.39-76.24,117.93-130.42,197.78-171.4
				c72.12-37,144.27-73.78,177.14-129.88c41.75-71.25,13.79-155.72,30.62-250.39c15.36-86.37,45.41-162.05,101.96-222.08
				c36.65-38.91,89.03-69.15,144.12-94.04c146.87-66.35,288.39-5.04,391.74-78.74c104.56-75.04,122.48-162.01,110.21-219.24
				c-14.28-66.64-95.92-195.35-244.23-174.23c-72.29,10.29-152.88-3.56-232.75-10.39c-102.82-8.8-200.52-67.61-229.31-148.62
				c-22.36-62.9-9.68-135.14-36.15-203.6c-20.59-53.24-57.94-96.83-102.25-127.77c-48.89-34.14-107.93-55.68-171.79-63.06"/>
			<path class="st27" d="M925.05,1647.34c-73.2-74.21-105.23-190.3-60.89-283.66c36.7-77.28,117.63-132.79,199.08-172.63
				c72.62-35.52,145.7-68.88,182-122.28c46.05-67.74,26.23-151.49,43.63-245.63c16.17-87.52,40.93-165.67,95.38-228.84
				c35.9-41.64,88.84-74.57,145.34-100.78c140.77-65.3,277.76-10.97,378.63-82.56c100.96-72.15,121.89-156.22,111.25-213.89
				C2007.23,130.83,1929,5.82,1787.89,23.63c-71.22,8.99-150.57-7.95-229.6-15.07c-99.47-8.96-193.99-63.91-224.98-140.57
				c-24.66-61-15.91-131.91-41.72-199.68c-20.44-53.7-55.65-98.64-98.24-131.73c-47.71-37.06-106.46-62.03-171.11-72.15"/>
			<path class="st48" d="M930.86,1647.06c-73.06-77.91-108.16-195.68-63.85-291.98c36.03-78.31,117.33-135.17,200.38-173.86
				c73.11-34.06,147.12-63.97,186.86-114.68c50.34-64.23,38.69-147.26,56.63-240.87c16.99-88.67,36.41-169.33,88.81-235.59
				c35.11-44.4,88.66-79.96,146.56-107.53c134.71-64.13,267.14-16.9,365.52-86.37c97.36-69.27,121.29-150.43,112.28-208.54
				c-10.2-65.85-84.94-186.96-218.92-172.66c-70.26,7.5-148.26-12.34-226.46-19.75c-96.12-9.11-187.57-60.21-220.65-132.52
				c-27.03-59.1-22.14-128.68-47.28-195.77c-20.3-54.16-53.32-100.47-94.22-135.68c-46.5-40.03-105-68.38-170.44-81.24"/>
			<path class="st49" d="M936.68,1646.79c-72.92-81.61-111.06-201.05-66.8-300.3c35.37-79.33,117.02-137.57,201.67-175.09
				c73.59-32.62,148.54-59.07,191.72-107.08c54.62-60.72,51.16-143.02,69.63-236.11c17.83-89.81,31.84-173.02,82.23-242.34
				c34.29-47.18,88.49-85.31,147.77-114.27c128.69-62.87,256.51-22.83,352.42-90.19c93.76-66.38,120.66-144.63,113.32-203.2
				c-8.2-65.44-79.47-159.9-206.26-171.88c-69.35-6.55-145.95-16.72-223.31-24.42c-92.77-9.24-181.26-56.49-216.32-124.47
				c-29.48-57.18-28.35-125.46-52.84-191.86c-20.15-54.63-50.97-102.34-90.21-139.64c-45.26-43.03-103.53-74.73-169.76-90.33"/>
			<path class="st50" d="M942.5,1646.51c-72.77-85.3-113.94-206.41-69.76-308.62c34.73-80.34,116.7-139.99,202.97-176.32
				c74.07-31.19,149.96-54.18,196.58-99.48c58.9-57.22,63.63-138.79,82.64-231.36c18.67-90.96,27.23-176.72,75.65-249.1
				c33.44-49.97,88.34-90.62,148.99-121.01c122.72-61.51,245.88-28.75,339.31-94.01c90.16-63.5,120-138.83,114.36-197.85
				c-6.22-65.03-74.55-155.29-193.61-171.09c-68.18-9.05-143.64-21.09-220.16-29.1c-89.42-9.37-175.06-52.73-211.98-116.42
				c-32.02-55.24-34.56-122.24-58.4-187.95c-19.99-55.1-48.6-104.23-86.19-143.59c-43.99-46.06-102.07-81.08-169.08-99.42"/>
			<path class="st30" d="M948.31,1646.23c-72.63-89-116.81-211.77-72.72-316.94c34.1-81.35,116.37-142.44,204.27-177.56
				c74.54-29.78,151.37-49.29,201.44-91.88c63.18-53.73,76.12-134.55,95.64-226.6c19.53-92.1,22.57-180.44,69.08-255.85
				c32.55-52.78,88.22-95.88,150.21-127.76c116.8-60.06,235.38-34.5,326.2-97.82c86.68-60.44,119.32-133.02,115.39-192.5
				c-4.27-64.62-69.64-150.93-180.95-170.3c-67.02-11.66-141.33-25.44-217.01-33.78c-86.08-9.48-168.97-48.91-207.65-108.37
				c-34.64-53.26-40.77-119.02-63.96-184.03c-19.83-55.57-46.19-106.13-82.18-147.55c-42.68-49.11-100.6-87.43-168.41-108.51"/>
			<path class="st31" d="M954.13,1645.96c-72.49-92.7-119.65-217.12-75.67-325.27c33.49-82.36,116.04-144.9,205.56-178.79
				c75-28.39,152.77-44.4,206.31-84.28c67.45-50.24,88.62-130.31,108.64-221.84c20.4-93.23,17.87-184.16,62.5-262.61
				c31.63-55.59,88.13-101.09,151.43-134.5c110.92-58.54,224.74-40.43,313.09-101.64c83.08-57.56,118.62-127.22,116.43-187.15
				c-2.34-64.21-64.71-146.83-168.3-169.52c-65.84-14.42-139.03-29.79-213.86-38.45c-82.73-9.57-162.98-45.03-203.32-100.32
				c-37.36-51.21-46.96-115.8-69.52-180.12c-19.66-56.04-43.75-108.05-78.16-151.5c-41.33-52.18-99.14-93.78-167.73-117.6"/>
			<path class="st51" d="M959.94,1645.68c-72.35-96.39-122.47-222.47-78.63-333.59c32.89-83.36,115.7-147.39,206.86-180.02
				c75.46-27.01,154.18-39.52,211.17-76.68c71.72-46.76,101.13-126.07,121.65-217.08c21.28-94.37,13.13-187.89,55.92-269.36
				c30.68-58.41,88.07-106.24,152.65-141.24c105.08-56.95,214.11-46.36,299.99-105.45c79.47-54.68,117.89-121.43,117.47-181.81
				c-0.45-63.8-59.71-142.99-155.64-168.73c-64.64-17.34-136.72-34.12-210.72-43.13c-79.39-9.66-157.07-41.06-198.98-92.27
				c-40.16-49.08-53.15-112.59-75.09-176.21c-19.48-56.52-41.27-109.98-74.15-155.45c-39.94-55.26-97.67-100.13-167.05-126.69"/>
			<path class="st52" d="M965.76,1645.41c-72.21-100.09-125.28-227.81-81.59-341.91c32.3-84.36,115.36-149.9,208.16-181.25
				c75.92-25.65,155.59-34.65,216.03-69.08c76-43.29,113.65-121.83,134.65-212.33c22.17-95.5,8.35-191.61,49.35-276.11
				c29.7-61.22,88.05-111.33,153.87-147.98c99.28-55.3,203.36-52.47,286.88-109.27c75.76-51.96,117.13-115.63,118.5-176.46
				c1.43-63.4-54.63-139.41-142.99-167.95c-63.36-20.46-134.42-38.44-207.57-47.8c-76.05-9.73-151.24-36.99-194.65-84.22
				c-43.05-46.84-59.34-109.37-80.65-172.3c-19.3-56.99-38.77-111.91-70.13-159.41c-38.51-58.34-96.21-106.48-166.38-135.77"/>
			<path class="st53" d="M971.57,1645.13c-72.06-103.78-128.06-233.14-84.54-350.23c31.72-85.36,115.01-152.43,209.45-182.48
				c76.38-24.3,156.94-29.89,220.89-61.47c80.2-39.96,126.17-117.58,147.66-207.57c23.07-96.63,3.54-195.33,42.77-282.87
				c28.7-64.04,88.08-116.33,155.09-154.73c93.53-53.59,192.73-58.4,273.77-113.08c72.16-49.08,116.35-109.85,119.54-171.11
				c3.28-63.01-49.39-136.07-130.33-167.16c-61.96-23.8-132.12-42.75-204.42-52.48c-72.71-9.79-145.45-32.81-190.32-76.17
				c-46.01-44.47-65.52-106.16-86.21-168.38c-19.11-57.47-36.24-113.83-66.11-163.36c-37.04-61.43-94.74-112.84-165.7-144.86"/>
			<path class="st34" d="M977.39,1644.85c-71.92-107.48-130.83-238.47-87.5-358.55c31.16-86.35,114.67-154.98,210.75-183.71
				c76.84-22.98,158.37-25,225.75-53.87c84.5-36.47,138.71-113.33,160.66-202.81c23.98-97.75-1.29-199.03,36.19-289.62
				c27.66-66.85,88.17-121.25,156.3-161.47c87.83-51.84,182.1-64.33,260.66-116.9c68.56-46.19,115.54-104.08,120.57-165.76
				c5.11-62.63-43.96-132.94-117.68-166.38c-60.39-27.39-129.82-47.03-201.27-57.16c-69.37-9.83-139.69-28.5-185.98-68.12
				c-49.03-41.96-71.69-102.95-91.77-164.47c-18.92-57.95-33.69-115.75-62.1-167.32c-35.54-64.51-93.28-119.19-165.03-153.95"/>
			<path class="st54" d="M983.2,1644.58c-71.78-111.18-133.57-243.8-90.46-366.88c30.6-87.35,114.32-157.56,212.05-184.95
				c77.29-21.66,159.8-20.12,230.61-46.27c88.8-32.98,151.25-109.07,173.66-198.05c24.91-98.88-6.16-202.73,29.62-296.37
				c26.61-69.66,88.34-126.07,157.52-168.21c82.17-50.05,171.47-70.26,247.56-120.71c64.96-43.31,114.71-98.32,121.61-160.42
				c6.92-62.26-38.26-129.97-105.03-165.59c-58.58-31.25-127.53-51.3-198.12-61.83c-66.04-9.86-133.92-24.06-181.65-60.07
				c-52.08-39.29-77.86-99.74-97.33-160.56c-18.72-58.44-31.11-117.66-58.08-171.27c-34.01-67.59-91.81-125.54-164.35-163.04"/>
			<path class="st18" d="M989.02,1644.3c-71.64-114.87-136.11-249.06-93.41-375.2c30.19-88.3,113.97-160.16,213.34-186.18
				c77.75-20.36,161.23-15.23,235.47-38.67c93.09-29.49,163.9-104.79,186.67-193.29c25.96-99.96-11.05-206.41,23.04-303.13
				c25.54-72.46,88.59-130.77,158.74-174.96c76.56-48.23,160.84-76.19,234.45-124.53c61.36-40.42,113.85-92.57,122.65-155.07
				c8.71-61.91-32.24-127.1-92.37-164.8c-56.44-35.39-125.24-55.53-194.98-66.51c-62.71-9.87-128.12-19.5-177.32-52.02
				c-55.14-36.45-83.95-96.55-102.9-156.65c-18.44-58.94-28.51-119.57-54.07-175.23c-32.45-70.66-90.35-131.89-163.67-172.13"/>
			<path class="st55" d="M994.83,1644.02c-71.5-118.57-139.01-254.45-96.37-383.52c29.52-89.34,113.62-162.78,214.64-187.41
				c78.21-19.07,162.66-10.34,240.34-31.07c97.39-26,176.35-100.56,199.67-188.54c26.8-101.1-15.96-210.09,16.46-309.88
				c24.45-75.25,88.95-135.32,159.96-181.7c71.01-46.38,150.21-82.12,221.34-128.34c57.76-37.54,112.98-86.83,123.68-149.72
				c10.48-61.57-25.83-124.23-79.72-164.02c-53.89-39.79-122.96-59.75-191.83-71.19c-59.39-9.87-122.26-14.81-172.98-43.97
				c-58.18-33.45-90.17-93.33-108.46-152.73c-18.29-59.41-25.89-121.46-50.05-179.18c-30.86-73.72-88.88-138.24-163-181.22"/>
		</g>
	</g>
</g>
</svg>
