<?xml version="1.0" encoding="utf-8"?>
<!-- Generator: Adobe Illustrator 24.2.1, SVG Export Plug-In . SVG Version: 6.00 Build 0)  -->
<svg version="1.1" id="Layer_3" xmlns="http://www.w3.org/2000/svg" xmlns:xlink="http://www.w3.org/1999/xlink" x="0px" y="0px"
	 viewBox="0 0 392.2 375" style="enable-background:new 0 0 392.2 375;" xml:space="preserve">
<style type="text/css">
	.st0{fill:#396361;}
</style>
<g>
	<g>
		<path class="st0" d="M36.4,21.8c0,7.3-5.9,13.2-13.2,13.2S10,29.1,10,21.8S15.9,8.6,23.2,8.6C30.5,8.7,36.4,14.6,36.4,21.8z"/>
	</g>
	<g>
		<path class="st0" d="M152.2,21.8c0,7.3-5.9,13.2-13.2,13.2s-13.2-5.9-13.2-13.2S131.7,8.6,139,8.6
			C146.3,8.7,152.2,14.6,152.2,21.8z"/>
	</g>
	<g>
		<path class="st0" d="M268,21.8c0,7.3-5.9,13.2-13.2,13.2s-13.2-5.9-13.2-13.2s5.9-13.2,13.2-13.2C262.1,8.7,268,14.6,268,21.8z"/>
	</g>
	<g>
		
			<ellipse transform="matrix(2.632250e-02 -0.9997 0.9997 2.632250e-02 338.981 391.6269)" class="st0" cx="370.5" cy="21.8" rx="13.2" ry="13.2"/>
	</g>
	<g>
		<path class="st0" d="M36.4,131.8c0,7.3-5.9,13.2-13.2,13.2S10,139.1,10,131.8s5.9-13.2,13.2-13.2
			C30.5,118.6,36.4,124.5,36.4,131.8z"/>
	</g>
	<g>
		<path class="st0" d="M152.2,131.8c0,7.3-5.9,13.2-13.2,13.2s-13.2-5.9-13.2-13.2s5.9-13.2,13.2-13.2
			C146.3,118.6,152.2,124.5,152.2,131.8z"/>
	</g>
	<g>
		<path class="st0" d="M268,131.8c0,7.3-5.9,13.2-13.2,13.2s-13.2-5.9-13.2-13.2s5.9-13.2,13.2-13.2
			C262.1,118.6,268,124.5,268,131.8z"/>
	</g>
	<g>
		<path class="st0" d="M383.8,131.8c0,7.3-5.9,13.2-13.2,13.2s-13.2-5.9-13.2-13.2s5.9-13.2,13.2-13.2S383.8,124.5,383.8,131.8z"/>
	</g>
	<g>
		<path class="st0" d="M36.4,241.7c0,7.3-5.9,13.2-13.2,13.2S10,249,10,241.7s5.9-13.2,13.2-13.2S36.4,234.4,36.4,241.7z"/>
	</g>
	<g>
		<path class="st0" d="M152.2,241.7c0,7.3-5.9,13.2-13.2,13.2s-13.2-5.9-13.2-13.2s5.9-13.2,13.2-13.2S152.2,234.4,152.2,241.7z"/>
	</g>
	<g>
		<path class="st0" d="M268,241.7c0,7.3-5.9,13.2-13.2,13.2s-13.2-5.9-13.2-13.2s5.9-13.2,13.2-13.2S268,234.4,268,241.7z"/>
	</g>
	<g>
		<path class="st0" d="M383.8,241.7c0,7.3-5.9,13.2-13.2,13.2s-13.2-5.9-13.2-13.2s5.9-13.2,13.2-13.2S383.8,234.4,383.8,241.7z"/>
	</g>
	<g>
		<path class="st0" d="M36.4,351.7c0,7.3-5.9,13.2-13.2,13.2S10,359,10,351.7c0-7.3,5.9-13.2,13.2-13.2S36.4,344.4,36.4,351.7z"/>
	</g>
	<g>
		<path class="st0" d="M152.2,351.7c0,7.3-5.9,13.2-13.2,13.2s-13.2-5.9-13.2-13.2c0-7.3,5.9-13.2,13.2-13.2
			S152.2,344.4,152.2,351.7z"/>
	</g>
	<g>
		<path class="st0" d="M268,351.7c0,7.3-5.9,13.2-13.2,13.2s-13.2-5.9-13.2-13.2c0-7.3,5.9-13.2,13.2-13.2S268,344.4,268,351.7z"/>
	</g>
	<g>
		<path class="st0" d="M383.8,351.7c0,7.3-5.9,13.2-13.2,13.2s-13.2-5.9-13.2-13.2c0-7.3,5.9-13.2,13.2-13.2
			S383.8,344.4,383.8,351.7z"/>
	</g>
</g>
</svg>
