<?xml version="1.0" encoding="utf-8"?>
<!-- Generator: Adobe Illustrator 24.2.1, SVG Export Plug-In . SVG Version: 6.00 Build 0)  -->
<svg version="1.1" id="Layer_1" xmlns="http://www.w3.org/2000/svg" xmlns:xlink="http://www.w3.org/1999/xlink" x="0px" y="0px"
	 viewBox="0 0 841.8 595.18" style="enable-background:new 0 0 841.8 595.18;" xml:space="preserve">
<style type="text/css">
	.st0{fill:#FFFFFF;}
</style>
<g>
	<g>
		<path class="st0" d="M152.81,510.28l-22-1.4l-7.66-26.8l12.21-30.81l19.62-40.7l16.27-37.42l-4.35-9.44l-5.96-8.08l-4.35-23.56
			l12.58-15.92l4.48-11.38l-11.66-2.51l-8.82-10.28l-9.93-7.14l-19.93-7.28l-1.42-9.38l-7.69-15.38l0.22,8.03l3.2,6.36l-3.29,1.64
			l-6.45-10.74l-0.02-10.7l-3.89-5.86l0.19-11.42l7.95-16.94l0.25,0c0,0,0.37,0.01,0.91,0.01c2.4,0,3.42-0.11,3.85-0.19
			c-1.13-1.21-6.07-5.44-9.23-8.08l-0.09-0.12l-4.52-8.75l-7.93-7.43l-13.13-2.19l-12.82,6.11l1.43-3.28l-6.98,4.84l-24.85,8.07
			l11.28-17.99l20.44-19.94l16.04-2.4l0.05,0l29.48,2.96l18.09-5.96l15.82-15.6l25.55-9.16l20.47-6.69l29.49-9.05l37.53-0.94
			l-28.6,13.98l-12.09,12.05l14.49,10.61l10.5,12.68l-10.57,11.27l8.86,15.99l7.41,7.66l-1.25,6.34l0.46,9.43l-14.43-2.74
			l-10.29,7.07l-21.61,9.69l-21.75,21.04L181,266.36l8.32,15.88l16.46,8.46l-23.11-4.74l-8.59-14.02l-1.17-15.36l-11.82,0.6
			l-15.39,8.98l-3.86,9.64l4.62,4.75l6.65-1.71c4.66-4.94,4.77-4.95,4.94-4.97c0.15-0.02,5.89-0.15,8.34-0.2l0.89-0.02l-10.78,11.85
			l11.08,1.75l-3.29,8.26l1.71,4.96l8.86,0.2l7.29-3.66l10.94-3.72l13.84,3.73l6.26,1.93l7.43,8.65l8.41,2.3l3.24,5.78l4.78,4.23
			l3,5.29l14.41,4.5l7.85,5.08l5.12-1.12l-1.07,6.58l-1.64,5.34l-10.45,8.29l-5.33,20.79l-6.07,1.86l-7.1,7.5l-8.19,4.1l-8.9,14.24
			l-21.13,21.17l-5.06-0.24l-0.75,5.18l-12.55,3.06l-6.84,8.04l-0.25,7.44l-7.29,1.76l-11.17,19.05v4.97l-0.01,0.11l-11.98,11.94
			l-2.44,14.66L152.81,510.28z M131.39,508.14l19.02,1.21l-12.02-9.54l2.58-15.35l-0.14-0.09l11.78-11.91v-4.85l0.28-0.09
			l11.4-19.42l7-1.7l0.27-7.13l7.19-8.43l12.3-2.99l0.78-5.36l5.42,0.26l20.86-20.9l8.93-14.31l8.33-4.16l7.09-7.52l5.85-1.79
			l5.29-20.63l10.46-8.31l1.56-5.07l0.88-5.41l-4.33,0.95l-8.07-5.23l-14.55-4.53l-3.12-5.49l-4.79-4.23l-3.11-5.56l-8.32-2.27
			l-7.44-8.66l-6.03-1.86l-13.6-3.67l-10.67,3.62l-7.42,3.72l-9.58-0.22l-1.98-5.74l3.04-7.63l-11.54-1.82l10.54-11.58
			c-2.91,0.07-6.6,0.15-7.28,0.17c-0.5,0.46-3.06,3.14-4.65,4.82l-0.08,0.08l-7.29,1.88l-5.28-5.43l4.15-10.34l15.78-9.21
			l12.76-0.65l1.21,15.92l8.32,13.58l17.31,3.55l-11.71-6.02l-8.57-16.35l3.48-14.42l22.07-21.32l21.61-9.68l10.5-7.22l13.79,2.62
			l-0.41-8.56l1.19-6.04l-7.23-7.48l-9.16-16.52l10.49-11.18l-10.04-12.12l-15.1-11.04l12.88-12.8l25.51-12.46l-33.97,0.85
			l-29.33,9.02l-20.45,6.68l-25.38,9.1l-15.83,15.61l-0.09,0.03l-18.33,6.04l-0.08-0.01l-29.51-2.97l-15.7,2.35l-20.23,19.73
			l-10.08,16.09l22.79-7.41l9.06-6.3l-1.7,3.88l11.18-5.33l13.6,2.27l8.23,7.74l4.51,8.74c9.64,8.06,9.64,8.55,9.64,8.76
			c0,0.42,0,0.82-4.81,0.82c-0.28,0-0.51,0-0.67,0l-7.71,16.41l-0.15,10.94l3.89,5.85l0.02,10.72l5.98,9.95l1.97-0.98l-2.94-5.91
			l-0.32-11.57l9.3,18.64l1.36,8.99l19.64,7.19l10.07,7.26l8.68,10.12l12.28,2.65l-4.88,12.37l-12.4,15.69l4.26,23.04l5.91,8.04
			l4.51,9.79l-16.41,37.75l-19.61,40.69l-12.1,30.55L131.39,508.14z"/>
	</g>
	<g>
		<path class="st0" d="M819.8,455.72l-6.22-7.75l3.1-10.43l2.71-13.14l-14.61-20.49l24.7,8.74l-0.02,15.14l-4.83,14.84L819.8,455.72
			z M814.43,447.81l5.12,6.38l4.15-11.81l4.61-14.76v-14.42l-21.7-7.75l13.5,18.79l0.01,0.16l-2.72,13.34L814.43,447.81z"/>
	</g>
	<g>
		<path class="st0" d="M756.45,446.15l-10.38-11.86l13.59-4.92l5.12,5.04L756.45,446.15z M747.38,434.63l9.01,10.28l7.39-10.41
			l-4.31-4.25L747.38,434.63z"/>
	</g>
	<g>
		<path class="st0" d="M740.12,425.95l-17.9-9.13l-6.7-10.32l-4.28,5.28l-8.95-5.53l-12.96,0.63l-10.14,5.21l-9.11,5.03l-8.55,1.69
			l-5.94-3.55l1.68-6.19l-9.7-13.44l-6.83-17.71l15.45-7.83l-1.36-7.17l8.69-9.38l7.81,2.38l1.25-7.54l7.19-1.56l5.7,0.9l0.9,5.84
			c5.21,3.28,13.34,8.26,15.4,9.24c-0.39-2.05-2.52-9.79-3.91-14.71l-0.01-0.11l-0.01-8.89l9.72,12.4l9.46,6.71l9.79,11.81
			l17.25,13.03l7.25,13.58l1.5,15.26l2.15,9.02l-4.49,4.43L740.12,425.95z M722.76,416.24l17.53,8.94l9.86-0.58l3.98-3.92
			l-2.05-8.65l-1.5-15.24l-7.09-13.23l-17.22-13.02l-9.78-11.81l-9.47-6.72l-8.38-10.7l0.01,6.62c4.25,14.96,4.02,15.4,3.94,15.57
			l-0.11,0.21l-0.28,0.02c-0.97,0-12.76-7.36-16.34-9.62l-0.15-0.09l-0.87-5.63l-5.01-0.79l-6.55,1.42l-1.3,7.89l-8.19-2.49
			l-8.11,8.74l1.39,7.36l-15.35,7.78l6.56,17.02l9.83,13.61l-1.62,5.98l5.19,3.1l8.2-1.62l8.96-4.97l10.38-5.29l13.28-0.64l8.58,5.3
			l4.52-5.58L722.76,416.24z"/>
	</g>
	<g>
		<path class="st0" d="M720.69,346.05l-22.64-10.41l-3.46,6.26l-9.39-1.36l-1.5-6.31c-1.29-0.55-9.1-3.86-9.56-4.04
			c-0.52-0.21-5.05-3.78-6.43-4.88l-5.94-6.86L672.7,323l24.37,4.91L720.69,346.05z M697.73,334.65l17.09,7.86l-18.08-13.88
			l-24.27-4.89l-8-3.33l3.77,4.36c2.15,1.69,5.78,4.53,6.19,4.72c0.5,0.2,9.37,3.97,9.75,4.13l0.18,0.08l1.47,6.18l8.36,1.21
			L697.73,334.65z"/>
	</g>
	<g>
		<path class="st0" d="M650.18,346.68l-19.46-3.04l-32.58-8.06l-0.08,0.02l-28.64-28.69h10.74l13.53,10.43l8.83,12.36l10.35,3.31
			l18.04,4.15l12.4,4.05l17.4-1.74L650.18,346.68z M598.53,335.11l32.34,7.89l19.13,2.93l7.83-5.39l-14.58,1.44l-0.08-0.03
			l-12.45-4.07l-18.04-4.17l-10.63-3.42l-8.95-12.34l-13.2-10.03h-8.64L598.53,335.11z"/>
	</g>
	<g>
		<path class="st0" d="M630.9,331.09l-5.61-1.1l-10.66-0.57l-0.11-0.13c-1.49-1.81-4.35-5.29-4.52-5.48
			c-0.22-0.25-3.67-5.49-4.35-6.54l-0.24-0.36l9.17-4.63l8.16-9.04l4.22,7.66l3.89,8.19L630.9,331.09z M615,328.68l10.38,0.56
			l4.75,0.92l-0.05-10.97l-3.81-7.93l-3.69-6.7l-7.6,8.38l-8.47,4.27c1.61,2.45,3.87,5.87,4.06,6.1
			C610.77,323.54,614.32,327.85,615,328.68z"/>
	</g>
	<g>
		<path class="st0" d="M643.27,339.1l-7.29-4.52v-8.81l-1.63-8.46l11.41-0.41l7.02-1.44l3.98,8.04l10.43,6.94l-12.43,0.24
			l-5.25-1.99l-0.93,6.5L643.27,339.1z M636.43,334.14l6.64,4.04l4.72-3.44l1.1-7.12l5.99,2.27l9.83-0.19l-8.57-5.7l-0.04-0.09
			l-3.78-7.6l-6.55,1.33l-10.67,0.38l1.33,7.66L636.43,334.14z"/>
	</g>
	<g>
		<path class="st0" d="M633.32,308.24l-2.55-6.36l-3.94-6.71v-4.12l-5.31-3.19l-2.12-9.46h4.97l0.48,3.09l6.91,6.42l8.51,7.34
			l7.39,11.93L633.32,308.24z M627.84,294.98l3.74,6.59l2.21,5.87l12.52-0.91l-6.69-10.81l-8.39-7.23l-7.12-6.48l-0.41-2.58h-3.34
			l1.94,8.07l5.54,3.12V294.98z"/>
	</g>
	<g>
		<path class="st0" d="M629.62,254.8l-2.64-4.59l1.37-4.3l6.23-3.25l4.6-2.33l1.52-3.76l-2.74-5.87l1.01-3.32l-1.06-8.45l-8.4-21.46
			l11.59,12.23l0.02,8.72l2,3.87l5.02-0.26l2.97,3.2l-5.05,3.57l-2.25,0.4l2.75,6.43l2.42,8.89l-6.11,1.23l-4.82,2.4L629.62,254.8z
			 M627.81,250.12l2.03,3.53l7.85-6.18l5-2.47l5.36-1.08l-2.19-8.04l-3.11-7.27l3.11-0.55l4.12-2.95l-2.14-2.3l-5.16,0.27
			l-2.31-4.48l-0.02-8.6l-8.68-9.16l7.01,17.95l1.08,8.65l-0.97,3.2l2.76,5.91l-1.75,4.34l-4.85,2.46l-5.95,3.1L627.81,250.12z"/>
	</g>
	<g>
		<path class="st0" d="M400.54,424.55l-3.73-7.94l-3.7-10.57l-4.74-6.95l-2.89-13.19l-5.77-14.49l1.26-10.96l2.39-8.94l-3.49-14.49
			l-7.53-9.64l1.66-6.14l-1.69-7.49l-5.7-1.02l-3.64-4.03l-15.73,3.15l-0.07-0.01l-3.69-0.54l-10.4,0.98l-8.34-5.75l-7.58-12.45
			l-0.44-6.09l0.01-0.05c0.36-1.74,1.26-6.49,1.09-7.56c-0.21-1.36-1.06-8.14-1.09-8.42l-0.02-0.16l7.1-9.23l8.18-6.49l3.23-6.44
			l5.25-3.43l8.08-3.64l5.47-2.17l11.71-2.51l10.03-0.27l2.46,4.2l-0.4,4.93l12.97,5.95l5.13-0.78l5.43-3.12l11.29,2.72l10.01,1.37
			l5.14-5.64l2.1-6.99l-4.65-0.68l-9.95,0.93l-4.62-4.21l5.71-9.92l8.61-0.43l0.04,0.01c4.11,0.79,12.2,2.28,13.36,2.28
			c0.23-0.24,0.28-2.07,0.1-4.02l-3.48-2.35l-7.47-1.04l-0.09-0.11c-2.55-2.95-3.24-3.94-3.43-4.33c-0.64-0.21-3.95-0.54-7.01-0.76
			l-4.05,5.58l1.09,5.97l-3.67,6.15l-0.35-0.42c-0.29-0.36-2.8-3.41-3.28-4.35c-0.93,0.03-3.37,1.19-4.55,1.8l3.12,9.47l-5.73-2.21
			l-3.66-6.81l-2.03-7.5c-2.62-1.67-6.72-4.25-7.34-4.57c-0.33,0.1-1.48,0.88-2.52,1.65l7.85,9.69l2.16,4.07l0.43,1.08l-10.26,3.17
			l3.79-6.28l-13.53-9.05l-9.97,0.09l-5.39,5.59l-5.67,9.23l-12.79,4.11l-5.92-2.54l1.76-8.56l2.02-9.38l14.61-0.84l-2.45-4.31
			l-3.05-7.49l6.24-1.65l-0.68-2.54l-12.04,1.66l4.1-4.68l-4.42,0.23l-8.99,0.14l1.29-6.89l6.48-5.03l5.46-7.86l8.42,0.86
			l-1.65,5.12l5,5.72l3.58,7.9l4.73,0.34l9.29-7.29l-2.23-5.01l1.35-4.38l-7.32-0.25l-0.7-9.43l8.98-2.38l10.54-9.53l10.46-8.06
			l12.7-5.03l10.17,3.45l15.81,5.48l-7.79,5.49l-7-0.56l5,4.3l9.77-3.84l7.18-2.62l12.73-3.29l8.12-1.41l-5.43-3.58l-9.43-3.48
			l4.23-7.16l6.68-6.23l14.01-5.15l7.46,2.59l-7.96,3.54l-10.34,4.37l-2.57,6.77l9.22,5.56l10.25,1.63l-3.73-3.62l1.4-8.12
			l9.41,0.14l-1.6,10.01l3.93,2.55l-1.53-10.6l4.08,1.05l6.69,2.57l2.9-1.81l-1.75-3.84l11.65-0.22l-1.89-4.88l7.37-1.89l13.46-0.74
			l0.9-1.45l-0.58-3.47l-6.84-2.98l-9-2.4l-10.22-1.9l2.99-5.35l9.14,0.03l10.34,4.1l7.62,3.25l2.86,6.94l5.97,1.36l8.06,1.06
			l4.87,4.11l-7.15,3.63l-3.59,4.23l4.41,0.19l14.13,0.26l8.72-1.05l6.39-0.53l9.25,3.49l3.11,6.05l4.81-1.14l9.09-0.13l-2.4-3.06
			l-3.38-3.51l-4-2.79l-0.89-4.32l8.59-1.8l12.66,3.69l8.01,1.57l-2.44,2.4l-1.39,0c-8.34,0-8.91-0.28-9.08-0.41
			c0.01,0.01-0.07-0.01-0.27,0c-1.13,0-3.96,0.49-5.6,0.78l6.15,2.7l5.8,3.25l11.65,5.63l3.77-1.67l13.72,1.6l4.56,4.52l8.73-1.42
			l3.48,2.91l3.03,0.01l-1.74-3.07l25.19,5.42l24.64,5.72l-5.69,3.36l-1.98,2.88l-6.69-2.32l-9.45-3.32l-2.99,3.3l6.86,5.12
			l-4.28,0.13l-6.04,1.55l-7.61,2.78l-5.79-0.27l-6.15,3.02l4.06,6.17l-1.57,4.2l-1.39,6.78l-5.8-4.07
			c-1.62-2.59-5.95-9.45-6.49-10.05c-0.18-0.2-0.23-0.43-0.14-0.65c0.26-0.63,1.9-0.9,3.27-1l5-2.56l2.94-4.73l-0.81-2.18
			l-4.19,2.62l-1.4-2.14l-5.63,0.42l-2.27,5.78l-5.32,0.13l-5.11-0.79l-11.82,0l-8.94,9.49l6.97,0.49l6,4.83l1.84,11.03l-6.2,12.81
			l-3.18-0.52l-2.6,2.31l-3.03,5.07l5.3,6.49l1.8,6.71l-5.62,0.76l-1.18-5.2l-0.83-2.69c-0.82-0.66-2.08-1.55-2.48-1.61
			c-0.75-0.11-1.96-2.11-2.67-3.41l-4.32-0.82l-2.87-2.01l-6.74,3.24l0.93,1.98l10.06,2.14l-4.54,4.86l5.8,6l4.17,6.61l-1.78,9.57
			l-7.26,6.36l-5.69,2.28l0.86,2.33l-2.33,3.38l-4.95-1.14l2.14-4.2l-1.86-1.21l-4.93,2.97l-0.41,3.04l8.3,6.4l4.29,3.9v7.17
			l-7.53,6l-0.72-3.81c-0.92-1.56-2.05-3.33-2.37-3.59c-0.31-0.09-1.41-0.6-6.3-3.54l-2.89-0.56l-0.48,3.47l4.46,5.55l6.09,3.89
			l0.05,0.08l5.19,8.79l2.54,6.09l-7.09-6.85c-2.56-2.62-6.46-6.59-6.75-6.82c-0.35-0.23-4.31-1.78-6.72-2.7l-0.18-0.07l-1.32-4.87
			l-5.56-8.62l-2.18-7.86l-4.48,4.69l-1.1-4.74l-8.39-8.23l-5.56,0.27l-4.27,1.66l-4.08,5l-6.96,8.82l2.35,4.52l9.07,9.93
			l-3.65,5.77l-6.47-4.93l-0.78-4.54l-3.46,3.01l-9.62-9.25l-6.02-11.73l-3.47-7.93l-7.27-1.53l-4.09-5.64l-5.83-2.03l-10.84,0.78
			l-0.05-0.01l-9.67-1.74l-8.9-4.71l-4.94-3.71l-2.91,2.11l5.38,10.3l10.02-0.12c6.6,1.04,10.08,1.74,10.39,2.08
			c0.4,0.44,1.59,3.57,1.94,4.52l0.08,0.2l-6.23,7.66l-9.32,5.18l-9.76,2.58l-8.4,2.63l-3.64-9.09l-6.35-7l-7.81-10.64l-5.4-7.79
			l-2.55,0.89l5.04,7.53l4.75,10.9l5.68,9.29l7.08,3.95l2.39,3.86l3.55,3.33l16.65-2.7l-7.21,18.81l-9.66,10.95l-7.8,13.42
			l4.8,11.05l1.65,11.19l-4.69,7.23l-7.08,6.31l2.3,13.51l-7.3,5.29l-0.38,7.63l-0.05,0.08l-9.5,15.5l-8.14,5.5L400.54,424.55z
			 M389.1,398.85l4.72,6.88l3.7,10.59l3.47,7.38l16.4-2.62l7.78-5.29l9.37-15.28l0.39-7.8l7.21-5.23l-2.29-13.45l7.36-6.55
			l4.44-6.87l-1.6-10.85l-4.91-11.26l8.04-13.82l9.66-10.96l6.64-17.38l-15.71,2.55l-3.93-3.7l-2.31-3.74l-7.08-3.95l-5.81-9.51
			l-4.74-10.89l-5.56-8.29l4.03-1.41l5.73,8.26l7.78,10.61l6.44,7.13l3.4,8.49l7.75-2.42l9.73-2.57l9.12-5.08l5.8-7.17
			c-0.69-1.84-1.51-3.82-1.71-4.07c-0.43-0.23-5.42-1.13-9.88-1.83l-10.42,0.13l-5.9-11.31l3.9-2.84l5.34,4.02l8.8,4.65l9.45,1.68
			l10.9-0.79l6.21,2.16l4.05,5.59l7.36,1.55l3.62,8.27l5.98,11.66l9,8.62l3.96-3.45l0.96,5.59l5.57,4.24l2.89-4.57l-8.76-9.62
			l-2.6-5l7.27-9.21l4.22-5.16l4.64-1.78l5.95-0.29l8.79,8.62l0.83,3.58l4.43-4.64l2.52,9.11l5.56,8.62l1.23,4.55
			c1.7,0.65,6.36,2.43,6.75,2.74c0.4,0.32,6.16,6.2,6.81,6.87l4.43,4.27l-1.1-2.63l-5.12-8.66l-6.08-3.91l-4.71-5.86l0.64-4.6
			l3.87,0.78c2.69,1.61,5.75,3.38,6.14,3.49c0.17-0.01,0.56,0,2.9,4l0.05,0.12l0.35,2.64l6.13-4.99v-6.45l-3.89-3.65l-8.58-6.65
			l0.55-3.84l5.68-3.41l2.85,1.85l-2.01,3.94l3.49,0.81l1.81-2.62l-0.98-2.65l6.32-2.53l6.9-6.07l1.68-9.02l-3.99-6.32l-6.24-6.43
			l4.11-4.4l-9.11-1.93l-1.42-3.01l7.83-3.76l3.17,2.21l4.45,0.81l0.09,0.16c0.78,1.44,1.85,3.06,2.2,3.18
			c0.75,0.11,2.57,1.56,2.93,1.84l0.09,0.07l0.91,2.94l1.03,4.55l4.07-0.55l-1.56-5.79l-5.51-6.7l3.4-5.68l2.92-2.59l2.97,0.49
			l5.85-12.08l-1.75-10.5l-5.58-4.49l-8.34-0.79l10.27-11.1h12.21l5.1,0.98l4.74-0.03l2.26-5.7l6.56-0.47l1.23,1.9l4.35-2.71
			l1.27,3.42l-3.26,5.23l-5.41,2.73c-1.12,0.08-2.24,0.3-2.61,0.49c0.95,1.24,5.89,9.11,6.44,9.98l4.68,3.26l1.17-5.7l1.45-3.89
			l-4.33-6.57l7.11-3.49l5.84,0.27l7.5-2.74l6.2-1.58l2.13-0.07l-5.78-4.31l3.89-4.3l16.07,5.62l1.82-2.58l4.12-2.43l-22.77-5.28
			l-23.51-5.06l1.55,2.73l-4.62-0.02l-3.43-2.87l-8.77,1.43l-4.65-4.61l-13.25-1.54l-3.91,1.73l-11.99-5.79l-5.79-3.25l-8.37-3.67
			l1.2-0.23c0.21-0.04,5.27-1.03,6.96-1.03c0.37,0,0.57,0.04,0.71,0.15c0.28,0.11,2.74,0.26,8.64,0.26l1.08,0l1.18-1.16l-6.62-1.3
			l-12.51-3.65l-7.65,1.6l0.68,3.27l3.81,2.66l3.46,3.58l3.39,4.3l-10.6,0.15l-5.27,1.26l-3.25-6.32l-8.82-3.32l-6.2,0.52
			l-8.76,1.05l-14.2-0.26l-5.98-0.25l4.77-5.58l6.19-3.14l-3.82-3.22l-7.88-1.03l-6.39-1.46l-2.89-7.01l-7.32-3.07l-10.27-4.01
			h-8.48l-2.25,3.97l9.2,1.68l9.09,2.41l7.27,3.16l0.7,4.16l-1.26,2.03l-13.78,0.75l-6.46,1.67l1.97,5.1l-11.58,0.21l1.55,3.39
			l-3.79,2.37l-7-2.7l-2.92-0.75l1.61,11.13l-5.76-3.74l1.54-9.63l-7.87-0.12l-1.22,7.07l5.18,5.02l-12.86-2.07l-9.83-5.93
			l2.92-7.67l10.63-4.5l6.18-2.75l-5.37-1.86l-13.68,5.03l-6.45,6.06l-3.67,6.24l8.69,3.21l7.08,4.66l-9.99,1.73l-12.66,3.27
			l-7.14,2.61l-10.19,4.01l-7.13-6.14l9.06,0.72l6.35-4.47l-14.4-4.99l-9.9-3.36l-12.39,4.9l-10.3,7.95l-10.66,9.64l-8.55,2.26
			l0.61,8.11l7.63,0.26l-1.56,5.06l2.36,5.3l-9.99,7.84l-5.48-0.39l-3.74-8.26l-5.19-5.91l1.49-4.63l-7.03-0.72l-5.32,7.62
			l-6.3,4.89l-1.07,5.68l8.04-0.12l6.22-0.32l-3.94,4.5l10.68-1.47l1.05,3.93l-6.14,1.62l2.7,6.64l3.03,5.34l-15.26,0.88l-1.89,8.8
			l-1.64,7.94l5.08,2.18l12.25-3.94l5.59-9.08l5.64-5.85l10.53-0.09l14.33,9.59l-3.13,5.19l7.55-2.33l-0.11-0.27l-2.1-3.97
			l-8.31-10.24l0.31-0.24c1-0.76,2.77-2.05,3.33-2.05l0.16,0.03c0.41,0.13,5.98,3.67,7.68,4.75l0.13,0.08l2.09,7.74l3.48,6.44
			l3.96,1.52l-2.81-8.55l0.29-0.15c0.4-0.21,3.92-2.04,5.17-2.04c0.46,0,0.62,0.23,0.68,0.37c0.2,0.47,1.72,2.42,2.88,3.84
			l2.96-4.97l-1.1-6.01l4.49-6.19l0.21,0.01c7.52,0.52,7.85,0.86,7.87,1.24c0.18,0.4,1.75,2.31,3.22,4.01l7.36,1.02l3.93,2.65
			l0.02,0.18c0.31,3.17,0.1,4.86-0.64,5.02c-0.05,0.01-0.12,0.02-0.2,0.02c-1.49,0-12.53-2.1-13.46-2.28l-8.1,0.4l-5.2,9.02
			l3.92,3.57l9.71-0.91l5.62,0.82l-2.47,8.07l-5.47,6l-10.45-1.43l-11.03-2.66l-5.36,3.05l-5.42,0.83l-0.1-0.05l-13.56-6.22
			l0.42-5.22l-2.11-3.6l-9.51,0.25l-11.58,2.48l-5.39,2.15l-8.02,3.61l-5.03,3.29l-3.28,6.46l-8.21,6.52l-6.82,8.87
			c0.13,1.05,0.88,7.01,1.07,8.25c0.21,1.37-0.91,6.92-1.09,7.78l0.42,5.79l7.44,12.22l7.94,5.43l10.22-0.96l3.71,0.55l16.03-3.21
			l3.75,4.16l5.95,1.06l1.85,8.17l-1.61,5.96l7.42,9.55l3.56,14.76l-2.43,9.08l-1.22,10.72l5.71,14.37L389.1,398.85z"/>
	</g>
	<g>
		<path class="st0" d="M475.11,391.37h-10.23l-4.42-7.6l2.97-9.04l-2.5-7.81l7.42-4.12l6.52-12.31l2.37,20.88L475.11,391.37z
			 M465.33,391.37h9.09l2.06-19.6l-2.08-18.61l-5.46,10.27l-7.07,3.93l2.38,7.48l-2.95,9.24L465.33,391.37z"/>
	</g>
	<g>
		<path class="st0" d="M271.78,182.53l-6.71-4.08l-2.55-14.38l2.48-7.36l-2.27-5.12l0.11-7.6l-4.34-5.62l-15.57-1.24l-5.83-4.42
			l16.57-7.61l15.6-5.61l16.01-1.49l-3.85-2.72l16.33-1.88l29.38,1.7l-1.98,3.7l20.14-1.54l-16.65,8.35v16.71l-8.14,5.26v8.21
			l-18.63,6.28l-3.16,5.09l-10.49,1.72l-8.7,12.85L271.78,182.53z M265.76,177.97l6.19,3.77l7.12-0.73l8.65-12.83l10.41-1.71
			l3.11-5.03l18.25-6.2v-8.08l8.14-5.26v-16.76l13.69-6.81l-17.52,1.35l2.09-3.88l-28.11-1.63l-14.26,1.65l3.91,2.76l-18.03,1.67
			l-15.43,5.56l-15.37,7.06l4.64,3.51l15.69,1.25l4.71,6.1l-0.11,7.7l2.32,5.24l-2.52,7.45L265.76,177.97z"/>
	</g>
	<g>
		<path class="st0" d="M320.11,175.09l-9.55-6.64l4.67-3.35l3.75,3.76l4.64-3.31l7.48-1.47l5.15,2.18l-1.22,4.79L320.11,175.09z
			 M311.89,168.45l8.37,5.81l14.15-3.82l0.95-3.72l-4.33-1.83l-7.16,1.41l-4.95,3.58l-3.75-3.76L311.89,168.45z"/>
	</g>
	<g>
		<polygon class="st0" points="64.27,193.49 49.73,184.37 74.46,172.97 72.09,188.19 71.33,188.07 73.49,174.26 51.34,184.47 
			64.68,192.84 		"/>
	</g>
	<g>
		<polygon class="st0" points="82.48,186.18 81.81,185.81 89.94,171.14 100.24,162.92 104.86,173.46 104.16,173.77 99.94,164.14 
			90.47,171.69 		"/>
	</g>
	<g>
		
			<rect x="94.22" y="180.88" transform="matrix(0.9702 -0.2425 0.2425 0.9702 -41.9416 28.4506)" class="st0" width="0.77" height="7.46"/>
	</g>
	<g>
		
			<rect x="102.22" y="175.54" transform="matrix(0.9954 -0.0963 0.0963 0.9954 -17.4065 10.7446)" class="st0" width="0.77" height="20.3"/>
	</g>
	<g>
		<polygon class="st0" points="139.9,205.02 139.23,204.65 156.31,173.13 144.21,176.02 134.05,160 116.94,183.88 101.12,176.15 
			101.46,175.47 116.7,182.9 134.09,158.63 144.56,175.15 157.81,171.98 		"/>
	</g>
	<g>
		
			<rect x="128.06" y="178.37" transform="matrix(0.6859 -0.7277 0.7277 0.6859 -101.0829 154.5105)" class="st0" width="0.77" height="31.96"/>
	</g>
	<g>
		
			<rect x="127.33" y="189.63" transform="matrix(0.166 -0.9861 0.9861 0.166 -68.9801 298.4713)" class="st0" width="29.27" height="0.77"/>
	</g>
	<g>
		
			<rect x="116.95" y="180.95" transform="matrix(0.969 -0.2472 0.2472 0.969 -40.882 37.0195)" class="st0" width="20.08" height="0.77"/>
	</g>
	<g>
		<polygon class="st0" points="156.58,173.15 161.7,139.3 162.46,139.41 157.54,171.96 174.56,165.41 221.6,143.19 225.33,118.63 
			226.09,118.75 222.29,143.7 174.86,166.11 		"/>
	</g>
	<g>
		<polygon class="st0" points="207.07,204.69 174.74,166.71 175.32,166.21 206.69,203.06 221.52,143.59 200.13,126.79 200.6,126.18 
			222.38,143.3 222.32,143.54 		"/>
	</g>
	<g>
		
			<rect x="192.78" y="217.09" transform="matrix(0.0363 -0.9993 0.9993 0.0363 -18.4268 415.8299)" class="st0" width="27.21" height="0.77"/>
	</g>
	<g>
		<polygon class="st0" points="247.01,167.06 226.29,166.53 236.43,154.01 237.02,154.49 227.86,165.81 247.02,166.29 		"/>
	</g>
	<g>
		<path class="st0" d="M145.95,266.76l-6.64-60.77l-21.99,7.65l-1.38-47.36l-22.42,15.3l-6.92-18.73L73.8,174.29l-3.28-9.6
			l0.72-0.25l2.9,8.5l12.77-11.41l6.97,18.86l22.77-15.53l1.39,47.71l21.17-7.37l-5.11-46.78l51.25,30.56l-23.91-50.06l60.81,4.15
			l5.17,22.92l9.58,11.94l-5.75,5.04l7.18,31.82l-32.32-10.78l24.29-21.32l-8.78-38.9l-58.93-4.03l43.9,91.9l-37-11.07
			L145.95,266.76z M140.05,205.73l6.38,58.4l22.78-44.44l35.96,10.76l-19.41-40.63L140.05,205.73z M207.64,203.72l29.76,9.92
			l-6.79-30.08L207.64,203.72z M135.04,159.87l4.93,45.08l44.63-15.53L135.04,159.87z M227.81,167.7l3.26,14.43l4.88-4.28
			L227.81,167.7z"/>
	</g>
	<g>
		<polygon class="st0" points="237.23,214.96 245.15,194.04 245.87,194.31 238.61,213.48 251.44,207.56 251.76,208.26 		"/>
	</g>
	<g>
		
			<rect x="216.81" y="199.1" transform="matrix(0.6474 -0.7621 0.7621 0.6474 -85.474 240.4988)" class="st0" width="0.77" height="27.05"/>
	</g>
	<g>
		<polygon class="st0" points="169.58,220.66 139.47,205.81 139.81,205.12 169.25,219.64 185.16,189.33 185.84,189.69 		"/>
	</g>
	<g>
		<polygon class="st0" points="161.35,256.9 160.61,256.73 169.55,217.84 173.65,256.14 172.89,256.23 169.27,222.46 		"/>
	</g>
	<g>
		
			<rect x="176.33" y="218.57" transform="matrix(0.9102 -0.4142 0.4142 0.9102 -81.9646 94.4167)" class="st0" width="0.77" height="35.25"/>
	</g>
	<g>
		<polygon class="st0" points="182.53,285.67 180.3,267.18 174.71,272.11 174.2,271.54 180.88,265.64 183.29,285.58 		"/>
	</g>
	<g>
		<path class="st0" d="M145.85,265.63l-19.61-36l-12.53,21.34l-9.67-19.94l13.69-18.63l8.54,15.68l13.48-22.95l0.66,0.39
			l-13.71,23.35l19.83,36.41L145.85,265.63z M104.93,231.11l8.85,18.24l12.04-20.5l-8.18-15.02L104.93,231.11z"/>
	</g>
	<g>
		
			<rect x="110.61" y="245.58" transform="matrix(0.4668 -0.8844 0.8844 0.4668 -160.7607 230.7779)" class="st0" width="0.77" height="6.23"/>
	</g>
	<g>
		
			<rect x="108.54" y="238.97" transform="matrix(0.69 -0.7238 0.7238 0.69 -143.7755 154.8817)" class="st0" width="0.77" height="12.64"/>
	</g>
	<g>
		<polygon class="st0" points="113.85,261.24 107.7,258.1 113.18,249.81 113.82,250.24 108.81,257.81 114.2,260.56 		"/>
	</g>
	<g>
		<polygon class="st0" points="123.67,277.63 123.61,276.87 139.75,275.64 121.83,268.28 125.88,228.81 126.64,228.89 
			122.66,267.79 143.03,276.16 		"/>
	</g>
	<g>
		
			<rect x="133.6" y="228.28" transform="matrix(0.9528 -0.3037 0.3037 0.9528 -70.4077 52.6255)" class="st0" width="0.77" height="48.77"/>
	</g>
	<g>
		
			<rect x="141.66" y="275.69" transform="matrix(0.9531 -0.3028 0.3028 0.9531 -78.1722 56.1659)" class="st0" width="0.77" height="8.99"/>
	</g>
	<g>
		<polygon class="st0" points="155.85,286.99 152.55,279.45 153.25,279.14 155.62,284.55 157.99,274.16 158.73,274.33 		"/>
	</g>
	<g>
		<polygon class="st0" points="152.79,292.27 155.27,285.41 155.99,285.67 154.04,291.07 166.51,287.12 166.74,287.85 		"/>
	</g>
	<g>
		
			<rect x="149.61" y="279.4" transform="matrix(0.8111 -0.5849 0.5849 0.8111 -139.0561 141.8046)" class="st0" width="0.77" height="13.56"/>
	</g>
	<g>
		
			<rect x="158.37" y="288.28" transform="matrix(0.3298 -0.9441 0.9441 0.3298 -170.8761 346.7308)" class="st0" width="0.77" height="10.86"/>
	</g>
	<g>
		<path class="st0" d="M130.69,509.57l0.71-25.85l-10.76-1.44l10.89-3.34l0.33-11.84l-5.75-1.58l5.78,0.38l0.18-6.55l8.02-2.79
			l-0.44-14.37l7.74-4.5l-1.76-9.32l6.44,6.6l17.06-9.92l-16.75-9.46l23.17-5.37l-1.38-6.67l-12.48-10.8l10.52,1.33l-3.35-16.19
			l27.16,7.72l-0.76-28.29L171,374.04l10.13-36.14l-25.48-5.66l28.76-10.97l-10.58-16.6l0.65-0.41l10.67,16.73l0.83-0.32l8.27-29.51
			l0.7,26.09l25.8-9.84l2.56,29.65l17.28-11.91l14.04,29.05l-30.42-6.75l3.62,41.9l-24.12-37.84l-7.69,5.3l0.78,29.02l27.74,7.89
			l-9.84,5.73l6.93,0.88l-14.04,3.26l-10.16,5.91l0.39,14.51l-10.18-8.81l-9.15,5.32l2.3,11.12l-10.87-6.14l-17.29,10.05
			l12.74,13.06l-14.19,4.93l2.76,14.6l-12.74-0.84l0.05,1.59l13.6,3.73l-13.36,4.09l0.26,8.39l-9.57-1.28l-0.65,23.64l7.01-8.04
			l0.58,0.5L130.69,509.57z M132.18,483.05l8.75,1.17l-0.22-7.28l-8.43,2.58L132.18,483.05z M124.22,481.98l7.2,0.96l0.09-3.19
			L124.22,481.98z M132.62,467.31l-0.31,11.4l8.38-2.57l-0.2-6.67L132.62,467.31z M141.26,469.68l0.19,6.23l10.63-3.26
			L141.26,469.68z M133.61,466.79l6.84,1.88l-0.04-1.43L133.61,466.79z M141.16,466.52l11.83,0.78l-2.56-13.52l-9.56,3.32
			L141.16,466.52z M132.65,465.96l7.74,0.51l-0.28-9.1l-7.29,2.53L132.65,465.96z M140.43,442.63l0.42,13.68l9.44-3.28l-2.75-14.53
			L140.43,442.63z M148.24,438.09l2.78,14.69l12.94-4.5l-12.03-12.33L148.24,438.09z M146.84,430.74l1.24,6.56l3.29-1.91
			L146.84,430.74z M170.66,425.05l9.01,5.09l-1.91-9.22L170.66,425.05z M154.46,415.9l15.43,8.72l7.71-4.48l-1.9-9.16L154.46,415.9z
			 M188.31,414.78l8.67,7.5l-0.33-12.35L188.31,414.78z M176.44,410.8l1.85,8.93l8.71-5.06l-5.75-4.97L176.44,410.8z M182.17,409.47
			l5.53,4.78l8.93-5.19l-0.08-2.92L182.17,409.47z M175.11,404.37l1.18,5.67l4.24-0.98L175.11,404.37z M174.86,403.14l6.6,5.71
			l15.07-3.5l-0.2-7.45l-23.16-2.93L174.86,403.14z M197.31,405.96l0.07,2.66l7.65-4.45L197.31,405.96z M197.1,398l0.19,7.18
			l9.99-2.32l5.04-2.93L197.1,398z M164.1,393.83l9.81,8.49l-1.54-7.44L164.1,393.83z M213.58,400.08l-3.76,2.19l7.44-1.72
			L213.58,400.08z M197.08,397.23l16.34,2.07l9.15-5.32l-25.78-7.33L197.08,397.23z M173,394.18l23.31,2.95l-0.29-10.71l-26.17-7.44
			L173,394.18z M204.32,351.08l22.46,35.23l-3.37-39.03L213.13,345L204.32,351.08z M181.88,338.07l-9.57,34.14l22.91-15.79
			l-0.41-15.49L181.88,338.07z M195.58,341.1l0.4,14.8l7.3-5.03l-5.98-9.38L195.58,341.1z M224.12,346.66l29.11,6.46l-12.96-26.82
			l-16.9,11.65L224.12,346.66z M198.35,341.72l5.55,8.71l8.21-5.66L198.35,341.72z M213.99,344.41l9.35,2.07l-0.69-8.04
			L213.99,344.41z M197.77,340.81l15.2,3.37l9.6-6.62l-2.51-29.08l-25.1,9.58l0.51,19.14L197.77,340.81z M195.55,340.32l1.16,0.26
			l-1.2-1.88L195.55,340.32z M182.09,337.33l12.69,2.82l-0.07-2.71l-8.79-13.78L182.09,337.33z M158.31,332.05l23.03,5.11
			l4.03-14.38l-0.55-0.86L158.31,332.05z M186.2,322.66l8.47,13.28l-0.47-17.59l-7.6,2.9L186.2,322.66z M193.61,296.25l-6.75,24.09
			l7.32-2.79L193.61,296.25z"/>
	</g>
	<g>
		
			<rect x="212.39" y="322.94" transform="matrix(0.2205 -0.9754 0.9754 0.2205 -139.338 472.2899)" class="st0" width="26.83" height="0.77"/>
	</g>
	<g>
		<polygon class="st0" points="248.56,342.83 222.64,338.15 193.67,318.38 194.11,317.75 223,337.47 248.43,342.03 262.05,334.86 
			262.41,335.53 		"/>
	</g>
	<g>
		
			<rect x="244.53" y="335.85" transform="matrix(0.4192 -0.9079 0.9079 0.4192 -159.2629 423.5018)" class="st0" width="13.67" height="0.77"/>
	</g>
	<g>
		
			<rect x="256.08" y="336.4" transform="matrix(0.1642 -0.9864 0.9864 0.1642 -125.2084 540.6816)" class="st0" width="0.77" height="15.65"/>
	</g>
	<g>
		<polygon class="st0" points="212.66,344.45 194.08,318.02 212.7,299.03 213.24,299.56 195.07,318.1 213.28,344.01 		"/>
	</g>
	<g>
		<polygon class="st0" points="195.3,356.84 181.55,338.18 161.54,355.74 161.03,355.16 181.67,337.05 195.92,356.39 		"/>
	</g>
	<g>
		<polygon class="st0" points="196.77,386.21 196.02,386.05 203.47,350.65 223.95,346.54 242.97,375.99 242.33,376.4 223.59,347.4 
			204.12,351.3 		"/>
	</g>
	<g>
		
			<rect x="213.29" y="348.81" transform="matrix(0.9083 -0.4183 0.4183 0.9083 -136.1945 123.5343)" class="st0" width="0.77" height="47.2"/>
	</g>
	<g>
		<polygon class="st0" points="196.18,397.84 169.13,378.75 169.57,378.12 192.81,394.52 171.39,373.4 171.92,372.85 196.67,397.25 
					"/>
	</g>
	<g>
		<polygon class="st0" points="165.02,448.53 164.28,448.35 170.25,423.03 172.33,439.59 171.57,439.68 170.02,427.35 		"/>
	</g>
	<g>
		
			<rect x="146.21" y="426.83" transform="matrix(0.9858 -0.168 0.168 0.9858 -69.5297 32.6638)" class="st0" width="24.1" height="0.77"/>
	</g>
	<g>
		<path class="st0" d="M280.49,183.19l-18.28-19.28l8.16-2.41l-7.58-17.71l10.89-12.03l-4.36-11.57l-10.64,18.68l-5.56-13.09
			l0.7-0.3l4.96,11.67l10.69-18.75l4.8,12.72l11.95-13.21l15.15,0.38l0.94-1.34l-0.1,1.36l22.94,0.57l-5.57,10.26l9.25-4.53
			l-8.84,23.08l-12.48,3.68l-5.8,10.68l-2.68,1.35l-0.24,3.45l-0.76-0.05l0.21-2.99l-10.46,5.27l-4.04-10.7l-12.3,3.62
			L280.49,183.19z M263.62,164.29l14.48,15.27l-7.43-17.35L263.62,164.29z M284.45,158.15l3.72,9.85l10.11-5.09l0.64-9.02
			L284.45,158.15z M299.7,153.66l-0.62,8.85l2.06-1.04l5.32-9.8L299.7,153.66z M263.68,143.94l7.43,17.34l12.33-3.63l-3.18-8.43
			l-0.96,0.47l0.74-1.05l-6.07-16.08L263.68,143.94z M280.95,148.88l3.23,8.55l14.79-4.36l0.95-13.47L280.95,148.88z M300.71,139.21
			l-0.96,13.63l7.22-2.13l10.78-19.84L300.71,139.21z M318.93,130.29l-10.93,20.12l11.38-3.35l8.01-20.91L318.93,130.29z
			 M274.55,131.92l6.02,15.96l20.24-28.84l-14.29-0.36L274.55,131.92z M301.33,119.64l-19.69,28.05l18.34-8.98L301.33,119.64z
			 M302.14,119.07l-1.36,19.26l17.6-8.62l5.49-10.1L302.14,119.07z"/>
	</g>
	<g>
		<polygon class="st0" points="310.31,145.33 299.88,139.39 289.99,131.28 289.99,133.25 289.34,130.63 285.95,118.4 286.71,118.19 
			290.11,130.23 300.41,138.77 310.69,144.67 		"/>
	</g>
	<g>
		<polygon class="st0" points="319.41,147.1 318.28,130.21 301.94,119 302.38,118.37 319.02,129.79 320.18,147.05 		"/>
	</g>
	<g>
		<path class="st0" d="M363.95,308.93l-46.92-14.75l15.2-38.74L363.95,308.93z M318.04,293.7l44.22,13.9l-29.9-50.42L318.04,293.7z"
			/>
	</g>
	<g>
		<polygon class="st0" points="441.54,288.11 406.68,277.95 376.9,248.35 377.44,247.81 407.08,277.27 441.76,287.37 		"/>
	</g>
	<g>
		<path class="st0" d="M446.27,338.92l-66.06-1.69l0.02-0.77l62.85,1.61l-71.55-24.57l34.63-35.7l-16.2-25.26l35.74,6.22
			l-18.57,19.14L446.27,338.92z M372.92,313.17l71.72,24.63l-38.06-59.34L372.92,313.17z M391.55,253.59l15.16,23.64l17.43-17.97
			L391.55,253.59z"/>
	</g>
	<g>
		<polygon class="st0" points="444.67,339.67 439.27,287.2 440.03,287.12 444.96,335.04 453.51,298.39 454.26,298.57 		"/>
	</g>
	<g>
		
			<rect x="364.7" y="249.77" transform="matrix(0.9176 -0.3975 0.3975 0.9176 -74.6954 166.8192)" class="st0" width="0.77" height="27.67"/>
	</g>
	<g>
		<path class="st0" d="M362.51,309.15l7.63-32.65l-37.06-19.34l-0.71,0.16l-6.93,49.05l-0.76-0.11l7-49.58l0.34-0.07l-0.46-0.24
			l22.52-16.05l23.35,6.25l0.5-0.11l-6.89,29.48l36.74,1.58L362.51,309.15z M370.88,276.69l-7.17,30.69l41.79-29.2L370.88,276.69z
			 M334.24,256.9l36.07,18.83l6.61-28.26L334.24,256.9z M333.03,256.27l0.16,0.08l42.63-9.43l-21.58-5.77L333.03,256.27z"/>
	</g>
	<g>
		
			<rect x="337.7" y="256.33" transform="matrix(0.9758 -0.2186 0.2186 0.9758 -53.9084 80.7796)" class="st0" width="0.77" height="55.33"/>
	</g>
	<g>
		<polygon class="st0" points="440.57,374.72 440.1,374.52 383.29,350.53 383.58,349.83 439.93,373.62 444.43,337.31 445.19,337.4 
					"/>
	</g>
	<g>
		
			<rect x="376.17" y="354.56" transform="matrix(0.891 -0.4541 0.4541 0.891 -116.2029 225.9489)" class="st0" width="72.44" height="0.77"/>
	</g>
	<g>
		<polygon class="st0" points="390.55,401.23 389.82,400.99 404.21,358.28 435.58,392.65 435.02,393.17 404.52,359.76 		"/>
	</g>
	<g>
		<polygon class="st0" points="401.14,424.22 400.4,424.03 409.94,386.28 425.79,415.88 425.11,416.24 410.2,388.39 		"/>
	</g>
	<g>
		<polygon class="st0" points="434.73,400.96 409.73,387.59 404.02,359.21 381.09,337.15 381.62,336.6 404.72,358.83 410.41,387.08 
			435.09,400.29 		"/>
	</g>
	<g>
		
			<rect x="389.02" y="393.6" transform="matrix(0.8184 -0.5746 0.5746 0.8184 -153.646 301.7034)" class="st0" width="23.15" height="0.77"/>
	</g>
	<g>
		<path class="st0" d="M475.92,392.41l-15.72-8.43l5.91-5.03l-2.7-4.09l5.32-12.85l8.7,8.29l-10.31,8.79L475.92,392.41z
			 M461.55,383.84l12.05,6.46l-7.07-10.71L461.55,383.84z M466.69,378.45l9.59-8.18l-7.28-6.94l-4.74,11.44L466.69,378.45z"/>
	</g>
	<g>
		<path class="st0" d="M656.61,409.47l29.11-26.29l-44.52-4.69l0.08-0.76l44.63,4.7l-14.58-25.83l0.67-0.38l14.84,26.3l0.11,0.01
			l0.03,0.23l0.11,0.2l-0.08,0.07l2.65,23.81l-0.39,0.03L656.61,409.47z M686.31,383.67l-27.52,24.86l30.02-2.38L686.31,383.67z"/>
	</g>
	<g>
		<polygon class="st0" points="715.2,405.97 702.08,364.13 686.25,383.95 685.67,353.79 686.43,353.78 686.97,381.82 702.38,362.53 
			715.93,405.74 		"/>
	</g>
	<g>
		
			<rect x="721.07" y="358.89" transform="matrix(0.8534 -0.5213 0.5213 0.8534 -100.059 433.9932)" class="st0" width="0.77" height="71.95"/>
	</g>
	<g>
		<polygon class="st0" points="750.9,397.05 719.05,393.59 743.63,382.95 743.93,383.66 722.02,393.15 750.99,396.29 		"/>
	</g>
	<g>
		
			<rect x="737.16" y="385.24" transform="matrix(0.6278 -0.7784 0.7784 0.6278 -42.3343 725.644)" class="st0" width="0.77" height="43.7"/>
	</g>
	<g>
		<polygon class="st0" points="703.15,405.62 702.13,405.62 702.13,363.67 726.94,370.02 720.86,392.61 720.14,392.41 
			726.11,370.57 703.15,364.66 		"/>
	</g>
	<g>
		<polygon class="st0" points="598.13,336.06 594,319.12 581.39,319.12 579.73,307.28 580.49,307.09 582.05,318.1 594.6,318.1 
			598.55,334.42 602.65,330.33 603.19,330.92 		"/>
	</g>
	<g>
		<polygon class="st0" points="652.63,347.56 612.65,333.7 612.9,332.98 647.55,344.99 643.07,341.9 643.51,341.27 		"/>
	</g>
	<g>
		<polygon class="st0" points="756.13,445.78 745.65,434.11 757.12,436.59 759.41,429.9 760.14,430.15 757.62,437.48 747.8,435.36 
			756.7,445.27 		"/>
	</g>
	<g>
		
			<rect x="757.14" y="435.36" transform="matrix(0.9372 -0.3487 0.3487 0.9372 -104.1964 292.682)" class="st0" width="7.37" height="0.77"/>
	</g>
	<g>
		<polygon class="st0" points="828.73,427.79 825.03,416.76 820.12,424.52 819.47,424.11 825.24,414.98 829.45,427.55 		"/>
	</g>
	<g>
		
			<rect x="815.08" y="399.1" transform="matrix(0.501 -0.8654 0.8654 0.501 51.8343 910.447)" class="st0" width="0.77" height="22.35"/>
	</g>
	<g>
		
			<rect x="802.47" y="435.27" transform="matrix(0.1466 -0.9892 0.9892 0.1466 270.5561 1184.903)" class="st0" width="39.02" height="0.77"/>
	</g>
	<g>
		<polygon class="st0" points="683.77,334.24 671.89,323.47 672.4,322.91 684.28,333.67 		"/>
	</g>
	<g>
		<polygon class="st0" points="697.52,335.2 696.6,328.82 683.16,334.58 684.51,325.79 685.27,325.9 684.12,333.33 697.21,327.72 
			698.27,335.09 		"/>
	</g>
	<g>
		
			<rect x="688.82" y="331.58" transform="matrix(0.5704 -0.8213 0.8213 0.5704 18.5313 711.2078)" class="st0" width="0.77" height="12.62"/>
	</g>
	<g>
		<polygon class="st0" points="649.41,328.63 641.22,323.63 636.22,326.1 635.88,325.42 641.26,322.75 649.81,327.98 		"/>
	</g>
	<g>
		
			<rect x="639.64" y="319.85" transform="matrix(0.5475 -0.8368 0.8368 0.5475 23.0782 683.137)" class="st0" width="7.08" height="0.77"/>
	</g>
	<g>
		<polygon class="st0" points="642.71,338.67 641.16,322.25 656.47,323.37 656.42,324.13 642.01,323.08 643.48,338.6 		"/>
	</g>
	<g>
		<polygon class="st0" points="615.16,329.66 614.47,329.34 618.95,319.46 614.63,312.66 615.27,312.25 619.82,319.4 		"/>
	</g>
	<g>
		<polygon class="st0" points="618.91,319.83 622.29,303.83 623.03,303.99 619.86,319.03 630.45,318.72 630.48,319.49 		"/>
	</g>
	<g>
		
			<rect x="624.57" y="317.14" transform="matrix(0.7093 -0.7049 0.7049 0.7093 -47.4424 535.0143)" class="st0" width="0.77" height="15.78"/>
	</g>
	<g>
		<path class="st0" d="M633.53,308.39l-1.44-13.95l4.74,6.08l2.57-4.85l-12.07-4.54l-3.2-9.33l0.72-0.25l3.08,8.99l12.55,4.72
			l-3.14,5.93l4.11,5.28l1.77-5.24l0.73,0.25l-2.22,6.59l-4.78-6.13L633.53,308.39z M633.12,297.02l0.91,8.78l2.4-4.53
			L633.12,297.02z"/>
	</g>
	<g>
		
			<rect x="629.73" y="289.79" transform="matrix(0.7009 -0.7133 0.7133 0.7009 -20.716 537.1699)" class="st0" width="0.77" height="6.98"/>
	</g>
	<g>
		<polygon class="st0" points="637.48,248.78 628.58,246.54 628.76,245.8 636.94,247.85 638.87,240.51 646,235.45 646.45,236.08 
			639.54,240.97 		"/>
	</g>
	<g>
		
			<rect x="640.6" y="240.13" transform="matrix(0.7932 -0.609 0.609 0.7932 -15.4448 440.6238)" class="st0" width="0.77" height="5.83"/>
	</g>
	<g>
		
			<rect x="641.05" y="235.57" transform="matrix(0.9723 -0.2336 0.2336 0.9723 -37.3094 156.8384)" class="st0" width="5.07" height="0.77"/>
	</g>
	<g>
		
			<rect x="638.19" y="231.98" transform="matrix(0.3183 -0.948 0.948 0.3183 217.5686 767.2855)" class="st0" width="8.19" height="0.77"/>
	</g>
	<g>
		<polygon class="st0" points="643.47,229.19 638.74,227.58 642.94,221.98 646.11,227.31 647.63,222.29 648.36,222.51 
			646.34,229.19 642.87,223.35 639.99,227.2 643.71,228.47 		"/>
	</g>
	<g>
		<polygon class="st0" points="637.8,219.27 639.94,210.1 635.37,211.42 635.15,210.69 640.99,209 638.79,218.36 640.7,218.11 
			640.8,218.87 		"/>
	</g>
	<g>
		<polygon class="st0" points="568.64,280.18 565.62,233.09 511.78,272.46 511.33,271.85 566.3,231.64 569.4,280.13 		"/>
	</g>
	<g>
		<polygon class="st0" points="593.23,274.29 565.21,231.92 597.07,234.38 597.01,235.15 566.71,232.81 593.02,272.58 603.11,243.8 
			603.83,244.05 		"/>
	</g>
	<g>
		<path class="st0" d="M599.56,297.76l-8.18-4.29l-1.17,2.3l-0.68-0.35l1.18-2.31l-5.85-3.07l-5.42,2.07l1.99-3.87l-13.72-7.19
			l20.86-5l-6.11,11.87l2.45,1.28l10.75-4.11l-3.92,7.69l8.19,4.29L599.56,297.76z M585.8,289.68l5.25,2.75l3.01-5.91L585.8,289.68z
			 M582.1,288.61l-1.07,2.08l2.91-1.12L582.1,288.61z M569.86,281.33l11.91,6.24l5.34-10.38L569.86,281.33z"/>
	</g>
	<g>
		<path class="st0" d="M576.35,297.74c-0.61-0.4-0.67-6.6-0.17-18.43l0.77,0.03c-0.27,6.43-0.53,16.96-0.09,17.83
			c0,0-0.02-0.04-0.08-0.08L576.35,297.74z"/>
	</g>
	<g>
		<polygon class="st0" points="584.28,305.72 583.93,301.67 578.06,303.38 577.85,302.64 584.61,300.67 585.04,305.66 		"/>
	</g>
	<g>
		<polygon class="st0" points="590.79,293.26 584.1,283.47 584.74,283.04 591.1,292.36 599.62,289.71 599.85,290.45 		"/>
	</g>
	<g>
		
			<rect x="591.47" y="292.89" transform="matrix(0.9809 -0.1943 0.1943 0.9809 -46.2768 120.6702)" class="st0" width="0.76" height="6.59"/>
	</g>
	<g>
		<polygon class="st0" points="599.14,274.57 598.39,274.46 603.09,243.09 612.2,265.76 611.49,266.04 603.43,245.99 		"/>
	</g>
	<g>
		<path class="st0" d="M427.78,258.24l2.32-18.99l27.83,18.82L427.78,258.24z M430.71,240.58l-2.06,16.89l26.8-0.16L430.71,240.58z"
			/>
	</g>
	<g>
		<polygon class="st0" points="544.6,276.06 494.33,197.68 438.79,228.88 430.72,240.14 430.09,239.69 438.34,228.25 494.59,196.66 
			494.78,196.96 544.51,274.51 565.66,232.12 589.52,202.53 630.51,202.61 622.37,225.92 604.44,231.63 604.21,230.9 621.77,225.31 
			629.43,203.37 589.88,203.3 566.28,232.57 		"/>
	</g>
	<g>
		<path class="st0" d="M446.54,282.55c-0.2-0.22-0.74-0.82,9.8-25.01l0.7,0.31c-3.83,8.8-9.9,23.2-9.85,24.35c0,0,0-0.08-0.08-0.16
			L446.54,282.55z"/>
	</g>
	<g>
		<polygon class="st0" points="460.76,289.59 450.95,268.46 478.73,281.77 478.39,282.46 452.54,270.07 461.45,289.27 		"/>
	</g>
	<g>
		
			<rect x="439.6" y="250.49" transform="matrix(0.4363 -0.8998 0.8998 0.4363 10.8513 544.4428)" class="st0" width="0.77" height="26.15"/>
	</g>
	<g>
		<polygon class="st0" points="470.8,210.9 422.45,168.34 493.27,196.29 462.94,158.35 463.54,157.87 495.66,198.05 426.25,170.66 
			470.9,209.96 472.23,209.22 472.61,209.88 		"/>
	</g>
	<g>
		<polygon class="st0" points="438.51,224.07 424.22,170.51 394.57,223.25 393.9,222.87 424.48,168.49 439.25,223.87 		"/>
	</g>
	<g>
		<path class="st0" d="M416.87,215.91l-10.82-15.12l25.24-9.31L416.87,215.91z M407.25,201.16l9.55,13.34l12.72-21.56L407.25,201.16
			z"/>
	</g>
	<g>
		<polygon class="st0" points="457.03,258.96 438.21,228.79 438.86,228.38 456.34,256.42 457.55,217.85 430.18,192.52 416.4,184.62 
			396.93,178.24 395.29,156.31 396.05,156.25 397.66,177.67 416.74,183.94 430.67,191.93 458.33,217.52 458.32,217.7 		"/>
	</g>
	<g>
		<polygon class="st0" points="393.9,222.06 373.52,184.99 424.23,169.14 424.46,169.87 374.64,185.44 394.57,221.69 		"/>
	</g>
	<g>
		<polygon class="st0" points="396.47,178.95 407.89,151.16 408.6,151.45 398.12,176.97 418.07,163.96 418.49,164.6 		"/>
	</g>
	<g>
		
			<rect x="385.87" y="163.67" transform="matrix(0.1242 -0.9923 0.9923 0.1242 164.3282 536.7885)" class="st0" width="0.77" height="23.26"/>
	</g>
	<g>
		<polygon class="st0" points="373.98,224.71 377.55,192.17 378.31,192.25 375.2,220.62 396.95,177.78 397.64,178.13 		"/>
	</g>
	<g>
		<polygon class="st0" points="384.65,203.31 384.58,202.54 406.1,200.64 397.12,178.55 374.77,194.56 374.33,193.94 397.47,177.36 
			407.2,201.31 		"/>
	</g>
	<g>
		<path class="st0" d="M374.29,222.9l-14.76-19.41l-5.46,4.86l-2.43-18.17l-6.03,12.01l-6.29-12.01l12.04-2.15l0.13,0.75l0.58-1.16
			l2.56,19.21l5-4.45l15.26,20.07L374.29,222.9z M340.47,190.74l5.11,9.76l5.9-11.73L340.47,190.74z"/>
	</g>
	<g>
		<polygon class="st0" points="363.97,222.84 359.53,204.35 354.14,221.21 353.41,220.98 359.63,201.5 364.71,222.67 		"/>
	</g>
	<g>
		<polygon class="st0" points="335.41,239.26 335.1,238.56 358.25,228.31 353.61,220.79 354.26,220.39 359.37,228.66 		"/>
	</g>
	<g>
		
			<rect x="345.63" y="219.16" transform="matrix(0.7371 -0.6757 0.6757 0.7371 -64.3259 294.217)" class="st0" width="0.77" height="21.26"/>
	</g>
	<g>
		<rect x="347.99" y="221.43" class="st0" width="1.02" height="12.21"/>
	</g>
	<g>
		
			<rect x="338.49" y="236.77" transform="matrix(0.6983 -0.7158 0.7158 0.6983 -65.8052 318.1913)" class="st0" width="12.13" height="0.77"/>
	</g>
	<g>
		
			<rect x="433.24" y="165.87" transform="matrix(0.8516 -0.5242 0.5242 0.8516 -20.7089 259.3622)" class="st0" width="29" height="0.77"/>
	</g>
	<g>
		<path class="st0" d="M470.97,211.6l-13.43-28.78l0.01-0.1l2.27-25.45l16.2,32.41L470.97,211.6z M458.33,182.69l12.4,26.57
			l4.5-19.48l-14.87-29.75L458.33,182.69z"/>
	</g>
	<g>
		<polygon class="st0" points="477.4,229.72 457.58,217.12 455.43,197.49 430.33,192.59 430.48,191.83 456.13,196.85 458.3,216.67 
			476.03,227.94 470.48,210.55 471.22,210.32 		"/>
	</g>
	<g>
		
			<rect x="449.57" y="189.58" transform="matrix(0.1473 -0.9891 0.9891 0.1473 201.6826 613.864)" class="st0" width="14.57" height="0.77"/>
	</g>
	<g>
		<path class="st0" d="M483.51,266.61l-7.64-38.06h27.14L483.51,266.61z M476.8,229.57l7.02,34.99l17.93-34.99H476.8z"/>
	</g>
	<g>
		<polygon class="st0" points="500.9,266.96 500.21,266.62 506.51,253.76 484.23,265.05 483.89,264.37 508.21,252.04 		"/>
	</g>
	<g>
		
			<rect x="519.48" y="241.97" transform="matrix(0.1333 -0.9911 0.9911 0.1333 198.2748 735.8775)" class="st0" width="0.77" height="25.22"/>
	</g>
	<g>
		<polygon class="st0" points="508.69,252.99 507.94,252.81 513.94,228.73 502.4,229.34 502.36,228.58 514.93,227.91 		"/>
	</g>
	<g>
		
			<rect x="490.97" y="158.25" transform="matrix(0.9863 -0.1648 0.1648 0.9863 -22.4672 83.3977)" class="st0" width="0.77" height="37.7"/>
	</g>
	<g>
		
			<rect x="538.56" y="194.48" transform="matrix(0.3033 -0.9529 0.9529 0.3033 216.9441 686.4521)" class="st0" width="78.74" height="0.77"/>
	</g>
	<g>
		<path class="st0" d="M522.01,210.94v-41.22l32.86,17.31L522.01,210.94z M522.01,170.99v38.45l30.65-22.3L522.01,170.99z"/>
	</g>
	<g>
		<path class="st0" d="M553.14,187.66l9.31-40.69l21.76,30.32L553.14,187.66z M562.82,148.8l-8.63,37.7l28.79-9.61L562.82,148.8z"/>
	</g>
	<g>
		<polygon class="st0" points="532.26,259.02 521.54,210.27 522.29,210.11 532.46,256.36 545.58,222.26 553.29,187 554.04,187.16 
			546.31,222.48 		"/>
	</g>
	<g>
		<path class="st0" d="M566.55,233.09l-71.49-35.57l0.34-0.69l69.97,34.81l-22.27-82.05l-49.44,48.92l16.41-53.68l27.54,3.02
			l-29.28-7.22l0.18-0.74l34.68,8.55l0.31-0.31L566.55,233.09z M510.61,145.66l-15.33,50.17l47.18-46.68L510.61,145.66z"/>
	</g>
	<g>
		<polygon class="st0" points="543.05,149.16 528.7,138.04 529.17,137.43 543.52,148.55 		"/>
	</g>
	<g>
		
			<rect x="516.95" y="144.33" transform="matrix(0.9204 -0.391 0.391 0.9204 -20.6316 214.8846)" class="st0" width="0.77" height="27.55"/>
	</g>
	<g>
		<path class="st0" d="M597.28,236.67l-14.27-60.39l34.01,21.38l-0.16,0.31L597.28,236.67z M584.19,177.92l13.36,56.53l18.48-36.52
			L584.19,177.92z"/>
	</g>
	<g>
		<polygon class="st0" points="616.57,239.35 616.18,233.04 612.05,235.69 611.64,235.05 616.87,231.69 617.34,239.31 		"/>
	</g>
	<g>
		<polygon class="st0" points="662.49,181.37 649.03,164.88 649.62,164.4 662.08,179.65 664.98,166.04 665.73,166.2 		"/>
	</g>
	<g>
		<polygon class="st0" points="658.72,203.82 651.74,193.02 652.38,192.6 658.45,202 662.03,189.77 662.77,189.99 		"/>
	</g>
	<g>
		<rect x="665.03" y="178.66" transform="matrix(0.6 -0.8 0.8 0.6 119.5308 605.6371)" class="st0" width="0.77" height="9.26"/>
	</g>
	<g>
		
			<rect x="674.85" y="159.8" transform="matrix(0.5133 -0.8582 0.8582 0.5133 181.2923 663.0156)" class="st0" width="0.77" height="23.73"/>
	</g>
	<g>
		
			<rect x="669.72" y="165.09" transform="matrix(0.9096 -0.4155 0.4155 0.9096 -12.7599 294.3634)" class="st0" width="0.77" height="22.84"/>
	</g>
	<g>
		
			<rect x="676.92" y="157.85" transform="matrix(0.3064 -0.9519 0.9519 0.3064 308.1683 762.4802)" class="st0" width="0.77" height="23.83"/>
	</g>
	<g>
		
			<rect x="688.33" y="171.77" transform="matrix(0.9271 -0.3749 0.3749 0.9271 -14.0116 272.2797)" class="st0" width="8.84" height="0.77"/>
	</g>
	<g>
		<path class="st0" d="M621.96,194.41l-39.16-17.25l15.68-10.15l-7.72-9.41l0.59-0.49l7.78,9.48l8.59-5.56l-3.24-4.8l0.63-0.43
			l3.25,4.81l9.13-5.91l8.38,30.46l1.18-25.42l23.07,4.67l-23.6,23.35l-0.05,1l-0.39-0.57l-0.14,0.14l-0.16-0.57l-17.64-26.1
			l-8.53,5.52L621.96,194.41z M584.4,177.03l34.93,15.39l-20.37-24.82L584.4,177.03z M627.76,160.67l-1.2,25.96l21.99-21.76
			L627.76,160.67z M608.78,161.24l16.36,24.21l-8.12-29.54L608.78,161.24z"/>
	</g>
	<g>
		
			<rect x="548.37" y="254.94" transform="matrix(0.7748 -0.6323 0.6323 0.7748 -31.5222 422.1715)" class="st0" width="56.79" height="0.77"/>
	</g>
	<g>
		<polygon class="st0" points="521.64,294.13 521.37,293.41 532.53,289.25 511.7,272.45 512.18,271.86 534.06,289.5 		"/>
	</g>
	<g>
		<polygon class="st0" points="534.36,300.47 511.59,274.12 511.57,274.03 495.06,198.19 460.42,255.41 459.76,255.02 495.4,196.15 
			512.3,273.77 534.94,299.97 		"/>
	</g>
	<g>
		<polygon class="st0" points="533.97,288.06 531.97,257.63 532.55,256.12 533.27,256.4 532.74,257.75 534.74,288.01 		"/>
	</g>
	<g>
		<path class="st0" d="M585.52,177.1c0,1.06-0.86,1.92-1.92,1.92c-1.06,0-1.92-0.86-1.92-1.92c0-1.06,0.86-1.92,1.92-1.92
			C584.66,175.17,585.52,176.03,585.52,177.1z"/>
	</g>
	<g>
		<path class="st0" d="M591.62,202.92c0,1.06-0.86,1.92-1.92,1.92c-1.06,0-1.92-0.86-1.92-1.92c0-1.06,0.86-1.92,1.92-1.92
			C590.76,200.99,591.62,201.85,591.62,202.92z"/>
	</g>
	<g>
		<path class="st0" d="M556.38,187.08c0,1.5-1.22,2.72-2.72,2.72c-1.5,0-2.72-1.22-2.72-2.72c0-1.5,1.22-2.72,2.72-2.72
			C555.17,184.37,556.38,185.58,556.38,187.08z"/>
	</g>
	<g>
		<circle class="st0" cx="564.88" cy="232.36" r="2.72"/>
	</g>
	<g>
		<circle class="st0" cx="502.38" cy="229.65" r="2.72"/>
	</g>
	<g>
		<path class="st0" d="M459.4,257.69c0,1.5-1.22,2.72-2.72,2.72c-1.5,0-2.72-1.22-2.72-2.72c0-1.5,1.22-2.72,2.72-2.72
			C458.19,254.97,459.4,256.19,459.4,257.69z"/>
	</g>
	<g>
		<path class="st0" d="M460.66,182.76c0,1.5-1.22,2.72-2.72,2.72c-1.5,0-2.72-1.22-2.72-2.72c0-1.5,1.22-2.72,2.72-2.72
			C459.44,180.04,460.66,181.25,460.66,182.76z"/>
	</g>
	<g>
		<path class="st0" d="M497.18,196.39c0,1.5-1.22,2.72-2.72,2.72c-1.5,0-2.72-1.22-2.72-2.72c0-1.5,1.22-2.72,2.72-2.72
			C495.96,193.68,497.18,194.89,497.18,196.39z"/>
	</g>
	<g>
		<path class="st0" d="M410.5,278.75c0,1.5-1.22,2.72-2.72,2.72c-1.5,0-2.72-1.22-2.72-2.72c0-1.5,1.22-2.72,2.72-2.72
			C409.29,276.04,410.5,277.25,410.5,278.75z"/>
	</g>
	<g>
		<path class="st0" d="M373.3,276.62c0,1.5-1.22,2.72-2.72,2.72c-1.5,0-2.72-1.22-2.72-2.72c0-1.5,1.22-2.72,2.72-2.72
			C372.08,273.91,373.3,275.12,373.3,276.62z"/>
	</g>
	<g>
		<path class="st0" d="M334.75,257c0,1.5-1.22,2.72-2.72,2.72s-2.72-1.22-2.72-2.72c0-1.5,1.22-2.72,2.72-2.72
			S334.75,255.5,334.75,257z"/>
	</g>
	<g>
		<circle class="st0" cx="394.23" cy="223.06" r="2.72"/>
	</g>
	<g>
		<path class="st0" d="M400.01,177.96c0,1.5-1.22,2.72-2.72,2.72c-1.5,0-2.72-1.22-2.72-2.72c0-1.5,1.22-2.72,2.72-2.72
			C398.79,175.24,400.01,176.46,400.01,177.96z"/>
	</g>
	<g>
		<circle class="st0" cx="444.81" cy="337.36" r="2.72"/>
	</g>
	<g>
		<path class="st0" d="M407.09,359.02c0,1.5-1.22,2.72-2.72,2.72c-1.5,0-2.72-1.22-2.72-2.72c0-1.5,1.22-2.72,2.72-2.72
			C405.87,356.3,407.09,357.52,407.09,359.02z"/>
	</g>
	<g>
		<path class="st0" d="M412.79,387.34c0,1.5-1.22,2.72-2.72,2.72c-1.5,0-2.72-1.22-2.72-2.72c0-1.5,1.22-2.72,2.72-2.72
			C411.57,384.62,412.79,385.83,412.79,387.34z"/>
	</g>
	<g>
		<circle class="st0" cx="363.11" cy="308.27" r="2.72"/>
	</g>
	<g>
		<path class="st0" d="M320.25,293.77c0,1.5-1.22,2.72-2.72,2.72c-1.5,0-2.72-1.22-2.72-2.72c0-1.5,1.22-2.72,2.72-2.72
			C319.04,291.05,320.25,292.26,320.25,293.77z"/>
	</g>
	<g>
		<path class="st0" d="M479.57,371.36c0,1.5-1.22,2.72-2.72,2.72c-1.5,0-2.72-1.22-2.72-2.72c0-1.5,1.22-2.72,2.72-2.72
			C478.36,368.64,479.57,369.86,479.57,371.36z"/>
	</g>
	<g>
		<circle class="st0" cx="461.35" cy="383.62" r="2.72"/>
	</g>
	<g>
		<path class="st0" d="M472.06,362.68c0,1.5-1.22,2.72-2.72,2.72c-1.5,0-2.72-1.22-2.72-2.72c0-1.5,1.22-2.72,2.72-2.72
			C470.84,359.96,472.06,361.18,472.06,362.68z"/>
	</g>
	<g>
		<path class="st0" d="M477.9,391.36c0,1.5-1.22,2.72-2.72,2.72s-2.72-1.22-2.72-2.72c0-1.5,1.22-2.72,2.72-2.72
			S477.9,389.86,477.9,391.36z"/>
	</g>
	<g>
		<path class="st0" d="M438.02,392.25c0,1.5-1.22,2.72-2.72,2.72c-1.5,0-2.72-1.22-2.72-2.72c0-1.5,1.22-2.72,2.72-2.72
			C436.8,389.54,438.02,390.75,438.02,392.25z"/>
	</g>
	<g>
		<path class="st0" d="M443,374.08c0,1.5-1.22,2.72-2.72,2.72c-1.5,0-2.72-1.22-2.72-2.72c0-1.5,1.22-2.72,2.72-2.72
			C441.78,371.36,443,372.58,443,374.08z"/>
	</g>
	<g>
		<path class="st0" d="M514.27,272.15c0,1.5-1.22,2.72-2.72,2.72c-1.5,0-2.72-1.22-2.72-2.72c0-1.5,1.22-2.72,2.72-2.72
			C513.05,269.44,514.27,270.65,514.27,272.15z"/>
	</g>
	<g>
		<path class="st0" d="M535.07,256.26c0,1.5-1.22,2.72-2.72,2.72c-1.5,0-2.72-1.22-2.72-2.72c0-1.5,1.22-2.72,2.72-2.72
			C533.86,253.54,535.07,254.76,535.07,256.26z"/>
	</g>
	<g>
		<path class="st0" d="M525.43,209.55c0,1.5-1.22,2.72-2.72,2.72c-1.5,0-2.72-1.22-2.72-2.72c0-1.5,1.22-2.72,2.72-2.72
			C524.22,206.83,525.43,208.05,525.43,209.55z"/>
	</g>
	<g>
		<path class="st0" d="M525.43,170.78c0,1.5-1.22,2.72-2.72,2.72c-1.5,0-2.72-1.22-2.72-2.72c0-1.5,1.22-2.72,2.72-2.72
			C524.22,168.07,525.43,169.28,525.43,170.78z"/>
	</g>
	<g>
		<path class="st0" d="M630.11,186.89c0,1.5-1.22,2.72-2.72,2.72c-1.5,0-2.72-1.22-2.72-2.72c0-1.5,1.22-2.72,2.72-2.72
			C628.9,184.17,630.11,185.39,630.11,186.89z"/>
	</g>
	<g>
		<path class="st0" d="M593.21,158.1c0,1.5-1.22,2.72-2.72,2.72c-1.5,0-2.72-1.22-2.72-2.72c0-1.5,1.22-2.72,2.72-2.72
			C591.99,155.39,593.21,156.6,593.21,158.1z"/>
	</g>
	<g>
		<path class="st0" d="M672.31,186.31c0,1.5-1.22,2.72-2.72,2.72c-1.5,0-2.72-1.22-2.72-2.72c0-1.5,1.22-2.72,2.72-2.72
			C671.09,183.59,672.31,184.81,672.31,186.31z"/>
	</g>
	<g>
		<circle class="st0" cx="658.58" cy="202.91" r="2.72"/>
	</g>
	<g>
		<circle class="st0" cx="562.16" cy="148.86" r="2.72"/>
	</g>
	<g>
		<path class="st0" d="M546.01,148.86c0,1.5-1.22,2.72-2.72,2.72c-1.5,0-2.72-1.22-2.72-2.72c0-1.5,1.22-2.72,2.72-2.72
			C544.79,146.14,546.01,147.35,546.01,148.86z"/>
	</g>
	<g>
		<circle class="st0" cx="460.66" cy="158.11" r="2.72"/>
	</g>
	<g>
		<path class="st0" d="M427.06,169.5c0,1.5-1.22,2.72-2.72,2.72c-1.5,0-2.72-1.22-2.72-2.72c0-1.5,1.22-2.72,2.72-2.72
			C425.85,166.79,427.06,168,427.06,169.5z"/>
	</g>
	<g>
		<path class="st0" d="M433.12,192.21c0,1.5-1.22,2.72-2.72,2.72c-1.5,0-2.72-1.22-2.72-2.72c0-1.5,1.22-2.72,2.72-2.72
			C431.91,189.49,433.12,190.71,433.12,192.21z"/>
	</g>
	<g>
		<path class="st0" d="M362.3,202.4c0,1.5-1.22,2.72-2.72,2.72s-2.72-1.22-2.72-2.72c0-1.5,1.22-2.72,2.72-2.72
			S362.3,200.9,362.3,202.4z"/>
	</g>
	<g>
		<path class="st0" d="M376.8,222.66c0,1.5-1.22,2.72-2.72,2.72c-1.5,0-2.72-1.22-2.72-2.72c0-1.5,1.22-2.72,2.72-2.72
			C375.58,219.95,376.8,221.16,376.8,222.66z"/>
	</g>
	<g>
		<path class="st0" d="M352.47,233.17c0,1.5-1.22,2.72-2.72,2.72c-1.5,0-2.72-1.22-2.72-2.72c0-1.5,1.22-2.72,2.72-2.72
			C351.25,230.46,352.47,231.67,352.47,233.17z"/>
	</g>
	<g>
		<path class="st0" d="M348.73,202.4c0,1.5-1.22,2.72-2.72,2.72c-1.5,0-2.72-1.22-2.72-2.72c0-1.5,1.22-2.72,2.72-2.72
			C347.52,199.68,348.73,200.9,348.73,202.4z"/>
	</g>
	<g>
		<path class="st0" d="M473.53,209.55c0,1.5-1.22,2.72-2.72,2.72s-2.72-1.22-2.72-2.72c0-1.5,1.22-2.72,2.72-2.72
			S473.53,208.05,473.53,209.55z"/>
	</g>
	<g>
		<path class="st0" d="M441.59,228.96c0,1.5-1.22,2.72-2.72,2.72c-1.5,0-2.72-1.22-2.72-2.72c0-1.5,1.22-2.72,2.72-2.72
			C440.38,226.24,441.59,227.46,441.59,228.96z"/>
	</g>
	<g>
		<circle class="st0" cx="597.41" cy="235.56" r="2.72"/>
	</g>
	<g>
		<path class="st0" d="M590.49,289.43c0,1.5-1.22,2.72-2.72,2.72c-1.5,0-2.72-1.22-2.72-2.72c0-1.5,1.22-2.72,2.72-2.72
			C589.28,286.71,590.49,287.93,590.49,289.43z"/>
	</g>
	<g>
		<path class="st0" d="M595.37,273.28c0,1.5-1.22,2.72-2.72,2.72c-1.5,0-2.72-1.22-2.72-2.72c0-1.5,1.22-2.72,2.72-2.72
			C594.15,270.56,595.37,271.78,595.37,273.28z"/>
	</g>
	<g>
		<path class="st0" d="M536.07,288.37c0,1.5-1.22,2.72-2.72,2.72s-2.72-1.22-2.72-2.72c0-1.5,1.22-2.72,2.72-2.72
			S536.07,286.87,536.07,288.37z"/>
	</g>
	<g>
		<path class="st0" d="M642.44,236.23c0,0.72-0.59,1.31-1.31,1.31c-0.72,0-1.31-0.59-1.31-1.31c0-0.73,0.59-1.31,1.31-1.31
			C641.85,234.91,642.44,235.5,642.44,236.23z"/>
	</g>
	<g>
		<path class="st0" d="M647.37,227.99c0,0.72-0.59,1.31-1.31,1.31c-0.72,0-1.31-0.59-1.31-1.31c0-0.73,0.59-1.31,1.31-1.31
			C646.78,226.68,647.37,227.26,647.37,227.99z"/>
	</g>
	<g>
		<path class="st0" d="M639.32,218.82c0,0.72-0.59,1.31-1.31,1.31c-0.72,0-1.31-0.59-1.31-1.31c0-0.73,0.59-1.31,1.31-1.31
			C638.73,217.5,639.32,218.09,639.32,218.82z"/>
	</g>
	<g>
		<path class="st0" d="M642.06,209.81c0,0.72-0.59,1.31-1.31,1.31c-0.72,0-1.31-0.59-1.31-1.31c0-0.73,0.59-1.31,1.31-1.31
			C641.48,208.5,642.06,209.08,642.06,209.81z"/>
	</g>
	<g>
		<path class="st0" d="M631.28,202.91c0,0.72-0.59,1.31-1.31,1.31c-0.72,0-1.31-0.59-1.31-1.31c0-0.73,0.59-1.31,1.31-1.31
			C630.7,201.6,631.28,202.18,631.28,202.91z"/>
	</g>
	<g>
		<path class="st0" d="M617.78,197.71c0,0.72-0.59,1.31-1.31,1.31c-0.73,0-1.31-0.59-1.31-1.31c0-0.73,0.59-1.31,1.31-1.31
			C617.19,196.39,617.78,196.98,617.78,197.71z"/>
	</g>
	<g>
		<path class="st0" d="M663.6,180.51c0,0.72-0.59,1.31-1.31,1.31c-0.72,0-1.31-0.59-1.31-1.31c0-0.73,0.59-1.31,1.31-1.31
			C663.01,179.2,663.6,179.78,663.6,180.51z"/>
	</g>
	<g>
		<path class="st0" d="M592.65,292.95c0,0.8-0.64,1.44-1.44,1.44c-0.8,0-1.44-0.65-1.44-1.44c0-0.8,0.64-1.44,1.44-1.44
			C592.01,291.51,592.65,292.16,592.65,292.95z"/>
	</g>
	<g>
		<path class="st0" d="M630.34,290.84c0,1.5-1.22,2.72-2.72,2.72c-1.5,0-2.72-1.22-2.72-2.72c0-1.5,1.22-2.72,2.72-2.72
			C629.12,288.12,630.34,289.34,630.34,290.84z"/>
	</g>
	<g>
		<path class="st0" d="M622.6,320.23c0,1.5-1.22,2.72-2.72,2.72c-1.5,0-2.72-1.22-2.72-2.72c0-1.5,1.22-2.72,2.72-2.72
			C621.38,317.51,622.6,318.73,622.6,320.23z"/>
	</g>
	<g>
		<path class="st0" d="M584.02,317.51c0,1.5-1.22,2.72-2.72,2.72c-1.5,0-2.72-1.22-2.72-2.72c0-1.5,1.22-2.72,2.72-2.72
			C582.81,314.8,584.02,316.01,584.02,317.51z"/>
	</g>
	<g>
		<path class="st0" d="M645.55,323.19c0,1.5-1.22,2.72-2.72,2.72c-1.5,0-2.72-1.22-2.72-2.72c0-1.5,1.22-2.72,2.72-2.72
			C644.33,320.47,645.55,321.69,645.55,323.19z"/>
	</g>
	<g>
		<path class="st0" d="M689.33,382.88c0,1.5-1.22,2.72-2.72,2.72c-1.5,0-2.72-1.22-2.72-2.72c0-1.5,1.22-2.72,2.72-2.72
			C688.11,380.17,689.33,381.38,689.33,382.88z"/>
	</g>
	<g>
		<path class="st0" d="M718.28,405.53c0,1.5-1.22,2.72-2.72,2.72c-1.5,0-2.72-1.22-2.72-2.72c0-1.5,1.22-2.72,2.72-2.72
			C717.06,402.81,718.28,404.03,718.28,405.53z"/>
	</g>
	<g>
		<path class="st0" d="M705.41,405.53c0,1.5-1.22,2.72-2.72,2.72c-1.5,0-2.72-1.22-2.72-2.72c0-1.5,1.22-2.72,2.72-2.72
			C704.2,402.81,705.41,404.03,705.41,405.53z"/>
	</g>
	<g>
		<circle class="st0" cx="721.45" cy="393.37" r="2.72"/>
	</g>
	<g>
		<path class="st0" d="M827.85,416.35c0,1.5-1.22,2.72-2.72,2.72c-1.5,0-2.72-1.22-2.72-2.72c0-1.5,1.22-2.72,2.72-2.72
			C826.63,413.63,827.85,414.85,827.85,416.35z"/>
	</g>
	<g>
		<path class="st0" d="M817.44,448.24c0,1.5-1.22,2.72-2.72,2.72s-2.72-1.22-2.72-2.72c0-1.5,1.22-2.72,2.72-2.72
			S817.44,446.74,817.44,448.24z"/>
	</g>
	<g>
		<circle class="st0" cx="757.37" cy="437.03" r="2.72"/>
	</g>
	<g>
		<circle class="st0" cx="702.7" cy="364.16" r="2.72"/>
	</g>
	<g>
		<circle class="st0" cx="641.59" cy="378.53" r="2.72"/>
	</g>
	<g>
		<circle class="st0" cx="685.27" cy="348.08" r="2.72"/>
	</g>
	<g>
		<path class="st0" d="M652.81,346.27c0,1.5-1.22,2.72-2.72,2.72c-1.5,0-2.72-1.22-2.72-2.72c0-1.5,1.22-2.72,2.72-2.72
			C651.59,343.56,652.81,344.77,652.81,346.27z"/>
	</g>
	<g>
		<path class="st0" d="M601.05,335.23c0,1.5-1.22,2.72-2.72,2.72c-1.5,0-2.72-1.22-2.72-2.72c0-1.5,1.22-2.72,2.72-2.72
			C599.84,332.51,601.05,333.73,601.05,335.23z"/>
	</g>
	<g>
		<circle class="st0" cx="683.64" cy="333.96" r="2.72"/>
	</g>
	<g>
		<path class="st0" d="M698.22,328.27c0,0.73-0.59,1.32-1.32,1.32c-0.73,0-1.32-0.59-1.32-1.32c0-0.73,0.59-1.32,1.32-1.32
			C697.63,326.95,698.22,327.54,698.22,328.27z"/>
	</g>
	<g>
		<path class="st0" d="M659.09,409c0,0.73-0.59,1.32-1.32,1.32c-0.73,0-1.32-0.59-1.32-1.32c0-0.73,0.59-1.32,1.32-1.32
			C658.5,407.68,659.09,408.27,659.09,409z"/>
	</g>
	<g>
		<path class="st0" d="M582.83,253.07c0,1.5-1.22,2.72-2.72,2.72c-1.5,0-2.72-1.22-2.72-2.72c0-1.5,1.22-2.72,2.72-2.72
			C581.61,250.35,582.83,251.56,582.83,253.07z"/>
	</g>
	<g>
		<path class="st0" d="M288.51,168.13l-18.24-6.19l10.4-14.2l0.62,0.45l-0.18,0.25l18.92,4.06L288.51,168.13z M271.51,161.55
			l16.72,5.67L298.72,153l-18.1-3.89L271.51,161.55z"/>
	</g>
	<g>
		<path class="st0" d="M290.57,167.68c0,1.5-1.22,2.72-2.72,2.72c-1.5,0-2.72-1.22-2.72-2.72c0-1.5,1.22-2.72,2.72-2.72
			C289.35,164.96,290.57,166.18,290.57,167.68z"/>
	</g>
	<g>
		<path class="st0" d="M283.55,148.34c0,1.5-1.22,2.72-2.72,2.72c-1.5,0-2.72-1.22-2.72-2.72c0-1.5,1.22-2.72,2.72-2.72
			C282.33,145.62,283.55,146.84,283.55,148.34z"/>
	</g>
	<g>
		<path class="st0" d="M293.5,131.65c0,1.5-1.22,2.72-2.72,2.72c-1.5,0-2.72-1.22-2.72-2.72c0-1.5,1.22-2.72,2.72-2.72
			C292.28,128.93,293.5,130.14,293.5,131.65z"/>
	</g>
	<g>
		<path class="st0" d="M261.96,137.9c0,1.5-1.22,2.72-2.72,2.72c-1.5,0-2.72-1.22-2.72-2.72c0-1.5,1.22-2.72,2.72-2.72
			C260.75,135.19,261.96,136.4,261.96,137.9z"/>
	</g>
	<g>
		<path class="st0" d="M321.2,130.16c0,1.5-1.22,2.72-2.72,2.72c-1.5,0-2.72-1.22-2.72-2.72c0-1.5,1.22-2.72,2.72-2.72
			C319.99,127.45,321.2,128.66,321.2,130.16z"/>
	</g>
	<g>
		<path class="st0" d="M302.09,153.77c0,1.5-1.22,2.72-2.72,2.72c-1.5,0-2.72-1.22-2.72-2.72c0-1.5,1.22-2.72,2.72-2.72
			C300.88,151.06,302.09,152.27,302.09,153.77z"/>
	</g>
	<g>
		<path class="st0" d="M224.66,143.34c0,1.5-1.22,2.72-2.72,2.72c-1.5,0-2.72-1.22-2.72-2.72c0-1.5,1.22-2.72,2.72-2.72
			C223.45,140.62,224.66,141.83,224.66,143.34z"/>
	</g>
	<g>
		<circle class="st0" cx="175.03" cy="164.96" r="2.72"/>
	</g>
	<g>
		<path class="st0" d="M188.21,189.51c0,1.5-1.22,2.72-2.72,2.72c-1.5,0-2.72-1.22-2.72-2.72c0-1.5,1.22-2.72,2.72-2.72
			C187,186.79,188.21,188.01,188.21,189.51z"/>
	</g>
	<g>
		<path class="st0" d="M209.6,203.87c0,1.5-1.22,2.72-2.72,2.72s-2.72-1.22-2.72-2.72c0-1.5,1.22-2.72,2.72-2.72
			S209.6,202.37,209.6,203.87z"/>
	</g>
	<g>
		<path class="st0" d="M230.22,166.67c0,1.5-1.22,2.72-2.72,2.72s-2.72-1.22-2.72-2.72c0-1.5,1.22-2.72,2.72-2.72
			S230.22,165.17,230.22,166.67z"/>
	</g>
	<g>
		<path class="st0" d="M172.56,220.15c0,1.5-1.22,2.72-2.72,2.72s-2.72-1.22-2.72-2.72c0-1.5,1.22-2.72,2.72-2.72
			S172.56,218.65,172.56,220.15z"/>
	</g>
	<g>
		<circle class="st0" cx="117.27" cy="183.81" r="2.72"/>
	</g>
	<g>
		<path class="st0" d="M142.79,205.31c0,1.5-1.22,2.72-2.72,2.72c-1.5,0-2.72-1.22-2.72-2.72c0-1.5,1.22-2.72,2.72-2.72
			C141.58,202.6,142.79,203.81,142.79,205.31z"/>
	</g>
	<g>
		<path class="st0" d="M128.05,228.85c0,1.5-1.22,2.72-2.72,2.72c-1.5,0-2.72-1.22-2.72-2.72c0-1.5,1.22-2.72,2.72-2.72
			C126.84,226.13,128.05,227.35,128.05,228.85z"/>
	</g>
	<g>
		<path class="st0" d="M77.46,172.55c0,1.5-1.22,2.72-2.72,2.72s-2.72-1.22-2.72-2.72c0-1.5,1.22-2.72,2.72-2.72
			S77.46,171.05,77.46,172.55z"/>
	</g>
	<g>
		<path class="st0" d="M42.59,201.16c0,1.5-1.22,2.72-2.72,2.72c-1.5,0-2.72-1.22-2.72-2.72c0-1.5,1.22-2.72,2.72-2.72
			C41.37,198.44,42.59,199.65,42.59,201.16z"/>
	</g>
	<g>
		<path class="st0" d="M84.86,186c0,1.5-1.22,2.72-2.72,2.72c-1.5,0-2.72-1.22-2.72-2.72c0-1.5,1.22-2.72,2.72-2.72
			C83.64,183.28,84.86,184.49,84.86,186z"/>
	</g>
	<g>
		<circle class="st0" cx="116.22" cy="164.96" r="2.72"/>
	</g>
	<g>
		<path class="st0" d="M116.22,250.03c0,1.5-1.22,2.72-2.72,2.72c-1.5,0-2.72-1.22-2.72-2.72c0-1.5,1.22-2.72,2.72-2.72
			C115,247.31,116.22,248.52,116.22,250.03z"/>
	</g>
	<g>
		<path class="st0" d="M148.66,265.32c0,1.5-1.22,2.72-2.72,2.72c-1.5,0-2.72-1.22-2.72-2.72c0-1.5,1.22-2.72,2.72-2.72
			C147.45,262.6,148.66,263.81,148.66,265.32z"/>
	</g>
	<g>
		<path class="st0" d="M158.21,285.64c0,1.5-1.22,2.72-2.72,2.72c-1.5,0-2.72-1.22-2.72-2.72c0-1.5,1.22-2.72,2.72-2.72
			C156.99,282.92,158.21,284.14,158.21,285.64z"/>
	</g>
	<g>
		<path class="st0" d="M184.12,266.41c0,1.5-1.22,2.72-2.72,2.72c-1.5,0-2.72-1.22-2.72-2.72c0-1.5,1.22-2.72,2.72-2.72
			C182.9,263.69,184.12,264.91,184.12,266.41z"/>
	</g>
	<g>
		<circle class="st0" cx="193.92" cy="293.71" r="2.72"/>
	</g>
	<g>
		<path class="st0" d="M197.29,318.06c0,1.5-1.22,2.72-2.72,2.72c-1.5,0-2.72-1.22-2.72-2.72c0-1.5,1.22-2.72,2.72-2.72
			C196.08,315.35,197.29,316.56,197.29,318.06z"/>
	</g>
	<g>
		<path class="st0" d="M183.88,337.61c0,1.5-1.22,2.72-2.72,2.72c-1.5,0-2.72-1.22-2.72-2.72c0-1.5,1.22-2.72,2.72-2.72
			C182.66,334.9,183.88,336.11,183.88,337.61z"/>
	</g>
	<g>
		<path class="st0" d="M160.02,332.74c0,1.5-1.22,2.72-2.72,2.72s-2.72-1.22-2.72-2.72c0-1.5,1.22-2.72,2.72-2.72
			S160.02,331.24,160.02,332.74z"/>
	</g>
	<g>
		<circle class="st0" cx="222.86" cy="337.83" r="2.72"/>
	</g>
	<g>
		<path class="st0" d="M199.11,386.13c0,1.5-1.22,2.72-2.72,2.72c-1.5,0-2.72-1.22-2.72-2.72c0-1.5,1.22-2.72,2.72-2.72
			C197.9,383.41,199.11,384.63,199.11,386.13z"/>
	</g>
	<g>
		<path class="st0" d="M206.51,350.97c0,1.5-1.22,2.72-2.72,2.72c-1.5,0-2.72-1.22-2.72-2.72c0-1.5,1.22-2.72,2.72-2.72
			C205.3,348.25,206.51,349.47,206.51,350.97z"/>
	</g>
	<g>
		<path class="st0" d="M251.46,342.94c0,1.5-1.22,2.72-2.72,2.72c-1.5,0-2.72-1.22-2.72-2.72c0-1.5,1.22-2.72,2.72-2.72
			C250.24,340.23,251.46,341.44,251.46,342.94z"/>
	</g>
	<g>
		<path class="st0" d="M174.78,373.13c0,1.5-1.22,2.72-2.72,2.72c-1.5,0-2.72-1.22-2.72-2.72c0-1.5,1.22-2.72,2.72-2.72
			C173.57,370.41,174.78,371.62,174.78,373.13z"/>
	</g>
	<g>
		<path class="st0" d="M171.93,424.96c0,1.5-1.22,2.72-2.72,2.72s-2.72-1.22-2.72-2.72c0-1.5,1.22-2.72,2.72-2.72
			S171.93,423.46,171.93,424.96z"/>
	</g>
	<g>
		<path class="st0" d="M222.15,400.44c0,1.5-1.22,2.72-2.72,2.72c-1.5,0-2.72-1.22-2.72-2.72c0-1.5,1.22-2.72,2.72-2.72
			C220.93,397.72,222.15,398.93,222.15,400.44z"/>
	</g>
	<g>
		<circle class="st0" cx="196.4" cy="397.53" r="2.72"/>
	</g>
	<g>
		<path class="st0" d="M149.1,429.24c0,1.5-1.22,2.72-2.72,2.72c-1.5,0-2.72-1.22-2.72-2.72c0-1.5,1.22-2.72,2.72-2.72
			C147.89,426.53,149.1,427.74,149.1,429.24z"/>
	</g>
	<g>
		<circle class="st0" cx="164.65" cy="448.44" r="2.72"/>
	</g>
	<g>
		<path class="st0" d="M136.34,460.12c0,1.5-1.22,2.72-2.72,2.72c-1.5,0-2.72-1.22-2.72-2.72c0-1.5,1.22-2.72,2.72-2.72
			C135.13,457.41,136.34,458.62,136.34,460.12z"/>
	</g>
	<g>
		<path class="st0" d="M126.9,482.62c0,1.5-1.22,2.72-2.72,2.72c-1.5,0-2.72-1.22-2.72-2.72c0-1.5,1.22-2.72,2.72-2.72
			C125.68,479.91,126.9,481.12,126.9,482.62z"/>
	</g>
	<g>
		<path class="st0" d="M156.13,473.05c0,1.5-1.22,2.72-2.72,2.72c-1.5,0-2.72-1.22-2.72-2.72c0-1.5,1.22-2.72,2.72-2.72
			C154.92,470.33,156.13,471.55,156.13,473.05z"/>
	</g>
	<g>
		<path class="st0" d="M141.78,500.05c0,1.5-1.22,2.72-2.72,2.72c-1.5,0-2.72-1.22-2.72-2.72c0-1.5,1.22-2.72,2.72-2.72
			C140.56,497.33,141.78,498.55,141.78,500.05z"/>
	</g>
	<g>
		<path class="st0" d="M153.41,508.51c0,1.5-1.22,2.72-2.72,2.72c-1.5,0-2.72-1.22-2.72-2.72c0-1.5,1.22-2.72,2.72-2.72
			C152.2,505.79,153.41,507.01,153.41,508.51z"/>
	</g>
</g>
</svg>
