<svg width="314" height="350" viewBox="0 0 314 350" fill="none" xmlns="http://www.w3.org/2000/svg">
<path d="M267.55 189.601L211.035 168.226C207.126 166.749 205.16 162.381 206.637 158.479L236.223 80.2383C237.699 76.3286 242.067 74.3621 245.968 75.8389L281.81 89.3946L298.745 128.492L277.303 185.202C275.819 189.104 271.451 191.078 267.55 189.601Z" fill="#F5F5F5"/>
<path d="M281.81 89.3945L273.487 111.415C272.112 115.045 273.946 119.11 277.575 120.478L298.745 128.492L281.81 89.3945Z" fill="#EBEBEB"/>
<path d="M273.036 113.451C273.036 113.451 270.736 118.69 276.153 122.74C276.355 122.895 276.573 123.027 276.79 123.159C279.37 124.698 296.343 134.819 296.499 134.399C296.67 133.948 298.737 128.484 298.737 128.484L277.567 120.478C277.567 120.486 272.353 118.301 273.036 113.451Z" fill="#E0E0E0"/>
<path d="M269.081 108.725C268.972 109.005 263.034 107.023 255.815 104.295C248.595 101.567 242.829 99.1182 242.937 98.8383C243.046 98.5585 248.984 100.541 256.203 103.269C263.423 105.997 269.189 108.438 269.081 108.725Z" fill="#E0E0E0"/>
<path d="M281.259 127.559C281.15 127.839 271.428 124.426 259.545 119.934C247.663 115.441 238.111 111.562 238.22 111.283C238.329 111.003 248.043 114.415 259.934 118.908C271.824 123.4 281.368 127.279 281.259 127.559Z" fill="#E0E0E0"/>
<path d="M281.204 139.42C281.096 139.7 270.511 135.961 257.556 131.064C244.601 126.168 234.187 121.963 234.296 121.683C234.404 121.403 244.989 125.142 257.944 130.046C270.899 134.935 281.313 139.14 281.204 139.42Z" fill="#E0E0E0"/>
<path d="M277.497 149.229C277.389 149.509 266.804 145.77 253.849 140.874C240.894 135.977 230.48 131.772 230.588 131.492C230.697 131.212 241.282 134.951 254.237 139.855C267.192 144.744 277.606 148.949 277.497 149.229Z" fill="#E0E0E0"/>
<path d="M273.79 159.039C273.681 159.318 263.097 155.58 250.142 150.683C237.186 145.778 226.773 141.581 226.881 141.301C226.99 141.021 237.575 144.76 250.53 149.665C263.477 154.554 273.899 158.759 273.79 159.039Z" fill="#E0E0E0"/>
<path d="M270.083 168.848C269.974 169.127 259.39 165.389 246.435 160.492C233.479 155.595 223.066 151.39 223.174 151.11C223.283 150.83 233.868 154.569 246.823 159.474C259.77 164.363 270.184 168.568 270.083 168.848Z" fill="#E0E0E0"/>
<path d="M119.744 224.478L45.2382 250.571C42.6581 251.472 39.837 250.112 38.9355 247.539L1.55458 140.773C0.65309 138.192 2.0131 135.371 4.58547 134.469L79.0909 108.376C81.6711 107.474 84.4921 108.834 85.3936 111.407L122.775 218.182C123.676 220.754 122.324 223.576 119.744 224.478Z" fill="#EBEBEB"/>
<path d="M80.0554 115.012L7.97559 140.252L45.0339 246.079L117.114 220.838L80.0554 115.012Z" fill="#E0E0E0"/>
<path d="M78.7681 114.507L6.68823 139.748L43.0401 243.557L115.12 218.316L78.7681 114.507Z" fill="#FAFAFA"/>
<path d="M115.104 218.322C114.801 217.451 100.167 175.781 78.6633 114.547L78.7954 114.61C56.9342 122.266 32.4772 130.839 6.73022 139.856H6.72245L6.79239 139.708C20.377 178.704 33.0212 214.715 43.1164 243.521L42.9998 243.467C86.8389 228.177 114.397 218.563 115.104 218.322C114.397 218.57 86.8622 228.247 43.062 243.653L42.9765 243.684L42.9454 243.599C32.8503 214.785 20.2371 178.774 6.58256 139.793L6.5437 139.685L6.6525 139.646H6.66027C32.4073 130.629 56.872 122.071 78.7332 114.415L78.8343 114.384L78.8654 114.485C100.245 175.75 114.809 217.451 115.104 218.322Z" fill="#E0E0E0"/>
<path d="M89.5435 227.276C89.5435 227.276 105.592 213.736 108.374 199.636C108.374 199.636 103.921 206.624 94.6493 207.898C94.6493 207.898 94.3307 222.698 89.5435 227.276Z" fill="#E0E0E0"/>
<path d="M34.4124 171.693L30.6199 173.022C29.2365 173.504 27.7211 172.781 27.2315 171.389L25.9026 167.596C25.4207 166.213 26.1435 164.697 27.5346 164.207L31.3271 162.878C32.7104 162.396 34.2259 163.119 34.7155 164.511L36.0444 168.304C36.5262 169.695 35.7957 171.211 34.4124 171.693Z" fill="#EBEBEB"/>
<path d="M30.8615 169.415C30.8615 169.415 30.8538 169.423 30.8615 169.415C30.7993 169.439 30.7294 169.431 30.6828 169.4L28.9417 168.389C28.8406 168.327 28.8017 168.195 28.8639 168.094C28.9261 167.993 29.0582 167.954 29.1593 168.016L30.6905 168.902L32.5249 164.977C32.5793 164.868 32.7037 164.822 32.8125 164.876C32.9213 164.93 32.9679 165.055 32.9135 165.164L30.9781 169.306C30.9626 169.361 30.9159 169.4 30.8615 169.415Z" fill="white"/>
<path d="M80.6294 146.82C80.6528 146.882 71.2881 150.209 59.7241 154.258C48.1523 158.308 38.7643 161.549 38.741 161.487C38.7177 161.425 48.0824 158.098 59.6464 154.049C71.2181 149.991 80.6139 146.758 80.6294 146.82Z" fill="#E0E0E0"/>
<path d="M58.6518 161.751C58.6595 161.767 58.4186 161.868 57.9756 162.039C57.4938 162.218 56.8643 162.451 56.0949 162.738C54.5018 163.314 52.3024 164.099 49.87 164.954C47.4297 165.809 45.2226 166.57 43.6217 167.107C42.8445 167.363 42.2072 167.573 41.7176 167.736C41.2669 167.876 41.0182 167.954 41.0104 167.938C41.0027 167.923 41.2436 167.822 41.6866 167.651C42.1684 167.472 42.7979 167.239 43.5673 166.951C45.1604 166.376 47.3598 165.591 49.8 164.736C52.2325 163.881 54.4474 163.119 56.0483 162.583C56.8255 162.326 57.4627 162.117 57.9523 161.953C58.3953 161.806 58.644 161.736 58.6518 161.751Z" fill="#E0E0E0"/>
<path d="M81.6321 149.672C81.6554 149.734 72.2908 153.061 60.7268 157.111C49.155 161.16 39.767 164.402 39.7437 164.339C39.7204 164.277 49.085 160.95 60.6491 156.901C72.2208 152.851 81.6166 149.618 81.6321 149.672Z" fill="#E0E0E0"/>
<path d="M39.8213 187.161L36.0288 188.49C34.6455 188.972 33.13 188.249 32.6404 186.857L31.3115 183.064C30.8297 181.681 31.5524 180.165 32.9435 179.675L36.736 178.346C38.1193 177.864 39.6348 178.587 40.1244 179.978L41.4533 183.772C41.9352 185.163 41.2124 186.679 39.8213 187.161Z" fill="#EBEBEB"/>
<path d="M36.2783 184.883C36.2783 184.883 36.2705 184.891 36.2783 184.883C36.2161 184.907 36.1461 184.899 36.0995 184.868L34.3584 183.857C34.2574 183.795 34.2185 183.663 34.2807 183.562C34.3429 183.461 34.475 183.422 34.576 183.484L36.1073 184.37L37.9417 180.445C37.9961 180.336 38.1204 180.289 38.2292 180.336C38.3381 180.391 38.3847 180.515 38.3303 180.624L36.3949 184.767C36.3793 184.829 36.3327 184.868 36.2783 184.883Z" fill="white"/>
<path d="M86.0462 162.288C86.0695 162.35 76.7048 165.677 65.1408 169.726C53.5691 173.776 44.1811 177.017 44.1578 176.955C44.1344 176.893 53.4991 173.566 65.0631 169.516C76.6349 165.459 86.0306 162.225 86.0462 162.288Z" fill="#E0E0E0"/>
<path d="M64.0685 177.219C64.0763 177.235 63.8354 177.336 63.3924 177.507C62.9106 177.686 62.2811 177.919 61.5117 178.206C59.9185 178.782 57.7192 179.567 55.2867 180.422C52.8464 181.277 50.6393 182.038 49.0384 182.575C48.2613 182.831 47.624 183.041 47.1344 183.204C46.6836 183.344 46.435 183.422 46.4272 183.406C46.4194 183.391 46.6603 183.29 47.1033 183.119C47.5851 182.94 48.2146 182.707 48.984 182.419C50.5772 181.844 52.7765 181.059 55.2168 180.204C57.6492 179.349 59.8641 178.587 61.465 178.051C62.2422 177.794 62.8795 177.585 63.3691 177.421C63.812 177.274 64.0607 177.204 64.0685 177.219Z" fill="#E0E0E0"/>
<path d="M87.0489 165.14C87.0722 165.202 77.7075 168.529 66.1435 172.579C54.5717 176.628 45.1838 179.87 45.1604 179.807C45.1371 179.745 54.5018 176.418 66.0658 172.369C77.6376 168.319 87.0256 165.078 87.0489 165.14Z" fill="#E0E0E0"/>
<path d="M45.2381 202.628L41.4456 203.957C40.0622 204.439 38.5468 203.716 38.0572 202.325L36.7283 198.532C36.2464 197.148 36.9692 195.633 38.3603 195.143L42.1528 193.814C43.5361 193.332 45.0515 194.055 45.5411 195.446L46.8701 199.239C47.3519 200.631 46.6214 202.146 45.2381 202.628Z" fill="#EBEBEB"/>
<path d="M41.695 200.351C41.6873 200.351 41.6873 200.351 41.695 200.351C41.6328 200.374 41.5629 200.366 41.5163 200.335L39.7752 199.325C39.6741 199.263 39.6352 199.131 39.6974 199.03C39.7596 198.928 39.8917 198.89 39.9928 198.952L41.524 199.838L43.3584 195.913C43.4128 195.804 43.5372 195.757 43.646 195.812C43.7548 195.866 43.8014 195.99 43.7548 196.099L41.8194 200.242C41.7961 200.296 41.7494 200.335 41.695 200.351Z" fill="white"/>
<path d="M91.4629 177.755C91.4863 177.818 82.1216 181.144 70.5576 185.194C58.9858 189.244 49.5978 192.485 49.5745 192.423C49.5512 192.36 58.9159 189.034 70.4799 184.984C82.0516 180.927 91.4396 177.693 91.4629 177.755Z" fill="#E0E0E0"/>
<path d="M69.485 192.687C69.4928 192.703 69.2519 192.804 68.8089 192.975C68.3271 193.153 67.6976 193.387 66.9282 193.674C65.335 194.249 63.1357 195.034 60.7032 195.889C58.263 196.744 56.0558 197.506 54.4549 198.042C53.6778 198.299 53.0405 198.509 52.5509 198.672C52.1002 198.812 51.8515 198.89 51.8437 198.874C51.8359 198.859 52.0768 198.758 52.5198 198.587C53.0016 198.408 53.6311 198.175 54.4005 197.887C55.9937 197.312 58.193 196.527 60.6333 195.672C63.0657 194.817 65.2806 194.055 66.8816 193.519C67.6587 193.262 68.296 193.052 68.7856 192.889C69.2286 192.741 69.4772 192.672 69.485 192.687Z" fill="#E0E0E0"/>
<path d="M92.4656 180.608C92.4889 180.67 83.1243 183.997 71.5603 188.046C59.9885 192.096 50.6005 195.337 50.5772 195.275C50.5539 195.213 59.9185 191.886 71.4825 187.837C83.0466 183.787 92.4423 180.546 92.4656 180.608Z" fill="#E0E0E0"/>
<path d="M50.6548 218.096L46.8623 219.425C45.479 219.907 43.9635 219.184 43.4739 217.793L42.145 214C41.6632 212.616 42.3859 211.101 43.777 210.611L47.5695 209.282C48.9528 208.8 50.4683 209.523 50.9579 210.914L52.2868 214.707C52.7687 216.099 52.0381 217.614 50.6548 218.096Z" fill="#EBEBEB"/>
<path d="M47.104 215.819C47.0418 215.842 46.9718 215.834 46.9252 215.803L45.1841 214.793C45.083 214.73 45.0442 214.598 45.1064 214.497C45.1685 214.396 45.3007 214.357 45.4017 214.42L46.9407 215.306L48.7751 211.38C48.8295 211.272 48.9539 211.225 49.0627 211.279C49.1715 211.334 49.2182 211.458 49.1637 211.567L47.2283 215.71C47.205 215.756 47.1661 215.803 47.104 215.819Z" fill="white"/>
<path d="M96.8797 193.216C96.903 193.278 87.5383 196.605 75.9743 200.654C64.4025 204.704 55.0146 207.945 54.9913 207.883C54.9679 207.821 64.3326 204.494 75.8966 200.444C87.4684 196.395 96.8564 193.161 96.8797 193.216Z" fill="#E0E0E0"/>
<path d="M74.9018 208.155C74.9095 208.17 74.6686 208.271 74.2256 208.442C73.7438 208.621 73.1143 208.854 72.3449 209.142C70.7518 209.717 68.5524 210.502 66.12 211.357C63.6797 212.212 61.4726 212.974 59.8717 213.51C59.0945 213.767 58.4572 213.977 57.9676 214.14C57.5169 214.28 57.2682 214.358 57.2604 214.342C57.2527 214.326 57.4936 214.225 57.9366 214.054C58.4184 213.876 59.0479 213.642 59.8173 213.355C61.4104 212.78 63.6098 211.995 66.05 211.14C68.4825 210.285 70.6974 209.523 72.2983 208.987C73.0755 208.73 73.7127 208.52 74.2023 208.357C74.6375 208.209 74.894 208.139 74.9018 208.155Z" fill="#E0E0E0"/>
<path d="M97.8824 196.076C97.9057 196.138 88.541 199.465 76.977 203.514C65.4052 207.564 56.0173 210.805 55.9939 210.743C55.9706 210.681 65.3353 207.354 76.8993 203.305C88.4633 199.255 97.859 196.014 97.8824 196.076Z" fill="#E0E0E0"/>
<path d="M14.8516 129.642L16.7556 135.075C17.8591 138.231 21.3097 139.886 24.4649 138.783L64.3327 124.823C67.488 123.719 69.1433 120.268 68.0398 117.112L66.1435 111.687L14.8516 129.642Z" fill="#E0E0E0"/>
<path d="M41.0259 122.274C38.0727 123.307 34.832 121.745 33.7984 118.791C32.7648 115.838 34.3269 112.597 37.2801 111.563C40.2332 110.529 43.4739 112.091 44.5076 115.045C45.5334 117.999 43.9713 121.24 41.0259 122.274ZM37.995 113.623C36.1765 114.26 35.2128 116.258 35.8501 118.076C36.4874 119.895 38.4846 120.859 40.3032 120.222C42.1217 119.584 43.0854 117.587 42.4481 115.768C41.8108 113.941 39.8136 112.985 37.995 113.623Z" fill="#E0E0E0"/>
<path d="M72.8889 136.373C72.9278 136.474 62.413 140.252 49.4112 144.807C36.4095 149.362 25.8402 152.968 25.8014 152.867C25.7625 152.766 36.2774 148.989 49.2791 144.434C62.2808 139.871 72.8501 136.265 72.8889 136.373Z" fill="#E0E0E0"/>
<path d="M59.4288 138.301C59.4677 138.402 54.8359 140.12 49.0927 142.133C43.3496 144.146 38.6634 145.693 38.6245 145.592C38.5857 145.491 43.2175 143.773 48.9606 141.76C54.7038 139.747 59.39 138.2 59.4288 138.301Z" fill="#E0E0E0"/>
<path d="M266.539 295.808C269.329 294.37 272.617 294.184 275.717 294.697C277.38 294.969 279.121 295.466 280.248 296.717C281.383 297.969 281.593 300.169 280.295 301.241C279.518 301.879 278.437 301.98 277.435 301.964C275.01 301.933 272.321 301.506 270.378 302.967C269.275 303.798 268.536 305.182 267.215 305.594C265.925 305.998 264.464 305.229 263.78 304.063C263.096 302.897 263.073 301.436 263.392 300.122C263.392 300.122 263.734 297.254 266.539 295.808Z" fill="#FF725E"/>
<path d="M260.151 283.457C261.861 285.898 265.171 285.089 266.71 283.597C268.249 282.112 268.902 279.952 269.492 277.892C270.845 273.189 272.205 268.261 271.202 263.473C270.899 262.043 270.363 260.613 269.36 259.556C268.358 258.491 266.811 257.861 265.397 258.235C263.726 258.678 262.685 260.318 261.931 261.872C259.724 266.45 258.55 271.534 258.535 276.617C258.527 279.003 258.807 281.498 260.151 283.457Z" fill="#FF725E"/>
<path d="M255.457 286.955C257.307 284.755 257.664 281.545 256.84 278.793C256.017 276.034 254.151 273.694 252.006 271.782C249.488 269.536 246.528 267.795 243.349 266.676C242.098 266.233 240.777 265.891 239.455 266.015C238.134 266.139 236.805 266.816 236.191 267.989C235.282 269.73 236.153 271.837 237.101 273.555C238.764 276.586 240.668 279.485 242.789 282.213C244.491 284.413 246.442 286.582 249.045 287.569C251.641 288.564 254.338 288.447 255.721 286.644" fill="#FF725E"/>
<path d="M260.034 320.238C260.066 320.238 260.12 319.841 260.19 319.126C260.268 318.318 260.369 317.308 260.485 316.103C260.625 314.828 260.812 313.32 261.169 311.665C261.519 310.017 262.071 308.237 262.778 306.433C263.508 304.638 264.402 303.006 265.451 301.7C266.485 300.386 267.697 299.438 268.832 298.894C269.959 298.334 270.977 298.109 271.676 298.008C272.383 297.938 272.78 297.876 272.78 297.845C272.78 297.813 272.383 297.806 271.661 297.829C270.938 297.876 269.889 298.062 268.692 298.598C267.495 299.127 266.213 300.091 265.125 301.436C264.029 302.772 263.104 304.436 262.358 306.27C261.635 308.112 261.091 309.908 260.757 311.587C260.423 313.266 260.268 314.797 260.167 316.079C260.073 317.362 260.034 318.403 260.019 319.119C259.996 319.834 260.003 320.23 260.034 320.238Z" fill="#263238"/>
<path d="M260.237 317.906C260.252 317.906 260.26 317.727 260.268 317.393C260.268 317.004 260.268 316.522 260.26 315.924C260.26 314.649 260.26 312.799 260.322 310.522C260.439 305.959 260.827 301.055 261.589 294.137C262.304 287.631 263.268 280.06 264.286 275.14C264.504 274.021 264.722 273.01 264.931 272.132C265.126 271.246 265.297 270.484 265.46 269.87C265.6 269.287 265.716 268.813 265.802 268.44C265.872 268.114 265.911 267.935 265.895 267.935C265.88 267.927 265.817 268.098 265.716 268.417C265.608 268.79 265.46 269.256 265.289 269.824C265.102 270.438 264.908 271.192 264.683 272.07C264.449 272.948 264.209 273.951 263.968 275.07C262.965 279.532 261.892 285.766 261.13 292.699C260.369 299.632 260.027 305.944 259.996 310.514C259.972 312.799 260.019 314.649 260.073 315.924C260.112 316.522 260.143 317.004 260.167 317.393C260.206 317.735 260.221 317.906 260.237 317.906Z" fill="#263238"/>
<path d="M260.268 305.734C260.299 305.734 260.291 305.19 260.26 304.195C260.205 303.208 260.066 301.786 259.786 300.037C259.49 298.296 259.079 296.22 258.434 293.974C258.154 292.948 257.493 290.484 255.9 286.8C253.802 281.81 250.942 277.737 248.455 275.21C247.872 274.542 247.227 274.06 246.706 273.586C246.434 273.361 246.201 273.135 245.96 272.956C245.719 272.785 245.494 272.63 245.284 272.49C244.468 271.93 244.01 271.635 243.994 271.666C243.924 271.767 245.828 272.886 248.23 275.444C250.623 278.001 253.398 282.05 255.488 286.994C256.654 289.676 257.462 292.07 258.037 294.098C258.706 296.329 259.141 298.373 259.475 300.099C259.794 301.832 259.972 303.239 260.089 304.218C260.174 305.19 260.237 305.734 260.268 305.734Z" fill="#263238"/>
<path d="M248.509 327.21L249.722 343.922H271.194L272.414 327.21H248.509Z" fill="#263238"/>
<path d="M274.979 320.619H246.434V327.21H274.979V320.619Z" fill="#263238"/>
<path d="M246.434 343.284V345.111H247.771H274.505V343.284H246.434Z" fill="#455A64"/>
<path d="M249.084 348.321L247.771 345.111H273.479L271.948 348.321H249.084Z" fill="#455A64"/>
<path d="M272.01 332.675C272.018 332.682 271.979 332.729 271.909 332.83C271.824 332.947 271.715 333.086 271.591 333.257C271.287 333.646 270.868 334.182 270.339 334.859L270.285 334.929L270.231 334.851C269.446 333.763 268.396 332.309 267.161 330.599H267.34C266.423 331.897 265.404 333.335 264.316 334.882L264.223 335.014L264.114 334.89C262.995 333.561 261.783 332.123 260.524 330.622H260.734C260.672 330.7 260.602 330.786 260.539 330.871C259.428 332.263 258.348 333.615 257.33 334.89L257.221 335.022L257.12 334.882C256.032 333.343 255.014 331.905 254.097 330.599L254.276 330.607C252.784 332.309 251.517 333.747 250.545 334.851L250.475 334.929L250.429 334.843C249.939 334.019 249.543 333.359 249.263 332.884C249.139 332.675 249.045 332.496 248.96 332.364C248.898 332.247 248.867 332.177 248.867 332.177C248.874 332.177 248.913 332.231 248.991 332.34C249.077 332.472 249.185 332.636 249.325 332.846C249.621 333.312 250.032 333.957 250.553 334.773L250.437 334.765C251.392 333.646 252.636 332.185 254.105 330.467L254.198 330.358L254.283 330.475C255.208 331.773 256.242 333.203 257.338 334.734L257.136 334.727C258.154 333.444 259.226 332.099 260.337 330.7C260.407 330.615 260.47 330.529 260.532 330.452L260.633 330.327L260.742 330.452C262.001 331.952 263.205 333.397 264.316 334.727L264.114 334.734C265.218 333.195 266.244 331.757 267.169 330.475L267.262 330.35L267.347 330.475C268.56 332.2 269.586 333.669 270.355 334.773H270.246C270.798 334.112 271.233 333.592 271.544 333.211C271.684 333.048 271.8 332.915 271.894 332.807C271.964 332.713 272.01 332.667 272.01 332.675Z" fill="#E0E0E0"/>
<path d="M272.71 327.101C272.71 327.179 267.332 327.234 260.695 327.234C254.058 327.234 248.68 327.171 248.68 327.101C248.68 327.031 254.058 326.969 260.695 326.969C267.332 326.969 272.71 327.024 272.71 327.101Z" fill="#455A64"/>
<path d="M273.798 345.29C273.798 345.367 267.954 345.422 260.742 345.422C253.53 345.422 247.686 345.36 247.686 345.29C247.686 345.22 253.53 345.157 260.742 345.157C267.946 345.157 273.798 345.212 273.798 345.29Z" fill="#263238"/>
<path d="M62.0325 291.968C61.9703 292.038 61.4806 291.751 60.9365 291.308C60.3924 290.872 59.996 290.46 60.0582 290.383C60.1204 290.313 60.6101 290.608 61.1541 291.043C61.6982 291.486 62.0869 291.898 62.0325 291.968Z" fill="#263238"/>
<path d="M76.9225 269.715C77.0158 267.632 77.0702 265.502 76.4174 263.528C75.7646 261.554 74.2413 259.735 72.1974 259.315C69.8738 258.833 67.4879 260.302 66.1823 262.284C64.8767 264.266 64.4337 266.684 64.0451 269.023C61.395 285.175 60.4158 301.599 61.1308 317.953L70.6509 319.29C74.8242 302.213 76.1609 287.281 76.9225 269.715Z" fill="#455A64"/>
<path d="M70.8766 259.237C70.8844 259.237 70.8689 259.292 70.83 259.393C70.7912 259.509 70.7368 259.649 70.6746 259.828C70.5192 260.232 70.3093 260.776 70.0373 261.476C69.9052 261.833 69.7265 262.222 69.5866 262.665C69.4467 263.108 69.2912 263.59 69.128 264.103C68.9648 264.624 68.7861 265.176 68.5918 265.759C68.4364 266.357 68.2732 266.987 68.1022 267.647C67.3872 270.282 66.7888 273.492 66.2604 277.068C65.7474 280.651 65.4055 284.615 65.1413 288.781C64.6517 297.122 64.5817 304.692 64.3641 310.164C64.2631 312.9 64.1698 315.116 64.061 316.647C64.0144 317.385 63.9678 317.976 63.9445 318.404C63.9289 318.59 63.9134 318.738 63.9056 318.862C63.8978 318.963 63.8901 319.018 63.8823 319.018C63.8745 319.018 63.8745 318.963 63.8745 318.862C63.8745 318.738 63.8745 318.59 63.8823 318.404C63.8978 317.976 63.9134 317.385 63.9367 316.639C63.9989 315.108 64.061 312.893 64.131 310.157C64.2864 304.685 64.3253 297.114 64.8071 288.758C65.0713 284.584 65.421 280.612 65.9573 277.021C66.5013 273.438 67.123 270.228 67.8768 267.585C68.0556 266.924 68.2266 266.295 68.3898 265.696C68.584 265.113 68.7783 264.562 68.9493 264.041C69.128 263.528 69.2912 263.046 69.4389 262.603C69.5866 262.16 69.7731 261.779 69.9207 261.421C70.2161 260.737 70.4414 260.193 70.6124 259.797C70.6901 259.626 70.7523 259.494 70.7989 259.377C70.8456 259.284 70.8689 259.237 70.8766 259.237Z" fill="#263238"/>
<path d="M71.7545 259.245C71.7545 259.245 72.3375 259.843 72.9204 261.211C73.5189 262.572 73.892 264.732 73.791 267.367C73.5345 272.63 73.0681 279.874 72.4385 287.88C71.8089 295.886 71.1094 303.114 70.5497 308.345C70.2699 310.957 70.029 313.071 69.8502 314.533C69.7569 315.24 69.687 315.8 69.6325 316.211C69.6092 316.382 69.5859 316.53 69.5704 316.647C69.5548 316.748 69.5393 316.794 69.5393 316.794C69.5315 316.794 69.5315 316.74 69.5393 316.647C69.547 316.53 69.5548 316.382 69.5704 316.204C69.6092 315.792 69.6559 315.224 69.7258 314.517C69.8657 313.025 70.0756 310.91 70.3243 308.314C70.8218 303.083 71.4825 295.847 72.1121 287.841C72.7339 279.843 73.2469 272.591 73.5578 267.352C73.6899 264.732 73.3635 262.61 72.8038 261.25C72.2597 259.898 71.7157 259.268 71.7545 259.245Z" fill="#263238"/>
<path d="M78.3527 283.877C78.3216 283.962 77.5133 283.76 76.5494 283.411C75.5856 283.061 74.8317 282.711 74.8627 282.626C74.8938 282.54 75.7022 282.742 76.666 283.092C77.6298 283.442 78.3838 283.791 78.3527 283.877Z" fill="#263238"/>
<path d="M79.5029 274.176C79.5418 274.262 78.7723 274.689 77.7851 275.132C76.798 275.576 75.9663 275.863 75.9274 275.778C75.8886 275.692 76.6581 275.265 77.6452 274.822C78.6324 274.379 79.464 274.091 79.5029 274.176Z" fill="#263238"/>
<path d="M78.9043 266.264C78.8965 266.357 78.2591 266.388 77.4819 266.334C76.7046 266.279 76.0828 266.163 76.0828 266.069C76.0905 265.976 76.7279 265.945 77.5052 265.999C78.2902 266.046 78.912 266.17 78.9043 266.264Z" fill="#263238"/>
<path d="M69.081 261.188C69.0033 261.235 68.5836 260.722 68.1483 260.03C67.713 259.338 67.4254 258.74 67.5032 258.685C67.5809 258.639 68.0006 259.152 68.4359 259.843C68.8789 260.535 69.1665 261.142 69.081 261.188Z" fill="#263238"/>
<path d="M65.8412 265.976C65.8412 266.069 65.2349 266.132 64.4887 266.116C63.7425 266.101 63.144 266.015 63.144 265.914C63.144 265.821 63.7503 265.759 64.4965 265.774C65.2427 265.79 65.8412 265.883 65.8412 265.976Z" fill="#263238"/>
<path d="M63.5093 275.552C63.4704 275.638 62.8408 275.467 62.0869 275.164C61.3329 274.861 60.7577 274.542 60.7888 274.456C60.8277 274.371 61.4573 274.542 62.2112 274.845C62.9652 275.156 63.5481 275.467 63.5093 275.552Z" fill="#263238"/>
<path d="M63.2605 283.613C63.2761 283.706 62.7397 283.892 62.048 284.04C61.3562 284.188 60.7888 284.227 60.7655 284.133C60.7499 284.04 61.2862 283.854 61.978 283.706C62.6698 283.558 63.245 283.519 63.2605 283.613Z" fill="#263238"/>
<path d="M62.1646 296.788C62.1802 296.881 61.605 297.06 60.8821 297.192C60.1515 297.324 59.553 297.355 59.5374 297.262C59.5219 297.168 60.0971 296.99 60.8199 296.857C61.5428 296.725 62.1491 296.694 62.1646 296.788Z" fill="#263238"/>
<path d="M61.434 304.063C61.4806 304.148 60.9987 304.483 60.3613 304.825C59.724 305.159 59.1721 305.369 59.1332 305.283C59.0866 305.198 59.5685 304.863 60.2059 304.521C60.8433 304.187 61.3951 303.977 61.434 304.063Z" fill="#263238"/>
<path d="M67.3713 312.317C67.2936 312.364 66.8738 311.789 66.4386 311.027C66.0033 310.265 65.7157 309.613 65.8012 309.566C65.8789 309.519 66.2986 310.094 66.7339 310.856C67.1692 311.618 67.4568 312.271 67.3713 312.317Z" fill="#263238"/>
<path d="M69.089 298.599C69.1512 298.669 68.6926 299.228 68.0474 299.858C67.4101 300.487 66.8349 300.938 66.7649 300.876C66.7027 300.806 67.1613 300.246 67.8065 299.617C68.4516 298.987 69.019 298.529 69.089 298.599Z" fill="#263238"/>
<path d="M68.7081 291.401C68.6381 291.463 68.2106 291.113 67.7443 290.608C67.2779 290.111 66.9592 289.652 67.0292 289.582C67.0991 289.52 67.5266 289.87 67.993 290.375C68.4593 290.88 68.778 291.339 68.7081 291.401Z" fill="#263238"/>
<path d="M69.8893 282.198C69.9593 282.26 69.5706 282.812 69.0188 283.418C68.4669 284.032 67.9695 284.475 67.8995 284.413C67.8295 284.351 68.2182 283.807 68.77 283.193C69.3141 282.587 69.8194 282.136 69.8893 282.198Z" fill="#263238"/>
<path d="M70.5499 275.529C70.4877 275.599 69.9436 275.171 69.3374 274.581C68.7311 273.99 68.2958 273.454 68.3658 273.384C68.428 273.314 68.9721 273.741 69.5783 274.332C70.1846 274.923 70.6199 275.459 70.5499 275.529Z" fill="#263238"/>
<path d="M71.8554 266.505C71.9331 266.551 71.6611 267.158 71.2491 267.857C70.8294 268.557 70.433 269.085 70.3475 269.031C70.2698 268.984 70.5418 268.378 70.9538 267.679C71.3735 266.979 71.7699 266.45 71.8554 266.505Z" fill="#263238"/>
<path d="M74.3034 258.141C74.3889 258.188 74.148 258.794 73.7671 259.494C73.3862 260.193 73.0131 260.73 72.9276 260.683C72.8421 260.636 73.0831 260.03 73.464 259.331C73.8448 258.631 74.2179 258.095 74.3034 258.141Z" fill="#263238"/>
<path d="M77.0858 261.934C77.1247 262.02 76.7438 262.284 76.2386 262.533C75.7256 262.774 75.2826 262.906 75.2437 262.821C75.2048 262.735 75.5857 262.471 76.0909 262.222C76.5962 261.981 77.047 261.857 77.0858 261.934Z" fill="#263238"/>
<path d="M77.1558 291.968C77.1403 292.054 76.2775 291.937 75.2904 291.517C74.311 291.098 73.627 290.561 73.6736 290.484C73.728 290.398 74.4742 290.802 75.4225 291.207C76.3708 291.611 77.1714 291.875 77.1558 291.968Z" fill="#263238"/>
<path d="M76.0135 298.334C76.029 298.428 75.4616 298.614 74.731 298.754C74.0081 298.894 73.4018 298.933 73.3863 298.84C73.3708 298.746 73.9382 298.56 74.6688 298.42C75.3994 298.28 75.9979 298.241 76.0135 298.334Z" fill="#263238"/>
<path d="M74.6222 309.239C74.5678 309.309 73.8372 308.812 73.1765 307.965C72.5081 307.125 72.1894 306.301 72.2671 306.262C72.3526 306.216 72.7956 306.939 73.4408 307.755C74.0781 308.571 74.6844 309.162 74.6222 309.239Z" fill="#263238"/>
<path d="M59.3198 314.229C59.2576 314.16 59.6462 313.724 60.1825 313.266C60.7189 312.807 61.2085 312.488 61.2707 312.558C61.3329 312.628 60.9443 313.064 60.408 313.522C59.8639 313.981 59.382 314.299 59.3198 314.229Z" fill="#263238"/>
<path d="M54.9211 290.422C54.2994 288.486 53.1414 286.232 51.1053 286.201C49.9007 286.185 48.8127 287.048 48.2531 288.113C47.6858 289.178 47.4449 290.414 47.4838 291.619C47.7169 299.578 49.0925 308.68 51.8514 316.973H59.2809C59.1799 307.755 57.7344 299.197 54.9211 290.422Z" fill="#455A64"/>
<path d="M41.4846 278.241C40.4432 274.083 37.3501 271.845 33.7519 271.635C30.4646 272.21 29.1901 275.443 28.8015 278.755C28.4129 282.066 29.4387 285.361 30.4568 288.54C33.7208 298.738 36.9771 308.936 40.2411 319.142C43.3187 318.808 46.4039 318.466 49.4815 318.131C46.5516 304.467 44.873 291.805 41.4846 278.241Z" fill="#455A64"/>
<path d="M51.1133 286.201C51.1444 286.224 50.8101 286.535 50.4837 287.25C50.165 287.973 50.0095 289.124 50.1339 290.538C50.2816 291.953 50.437 293.655 50.678 295.513C50.919 297.378 51.2532 299.422 51.6729 301.56C52.5124 305.827 53.4607 309.659 54.0592 312.45C54.3623 313.849 54.5955 314.976 54.7354 315.761C54.7976 316.118 54.852 316.421 54.8908 316.67C54.9219 316.88 54.9375 316.989 54.9219 316.989C54.9064 316.989 54.8753 316.888 54.8209 316.686C54.7587 316.445 54.6888 316.149 54.6033 315.792C54.4089 314.96 54.1447 313.856 53.8182 312.504C53.1575 309.729 52.1704 305.905 51.3309 301.622C50.9112 299.485 50.5847 297.425 50.3593 295.552C50.2427 294.611 50.165 293.717 50.0873 292.878C50.0173 292.046 49.9318 291.269 49.8852 290.546C49.7841 289.116 49.9785 287.919 50.3515 287.188C50.7324 286.473 51.1133 286.201 51.1133 286.201Z" fill="#263238"/>
<path d="M33.8845 271.37C33.9156 271.402 33.3949 271.837 32.7654 272.871C32.1437 273.889 31.4831 275.552 31.3588 277.705C31.2189 279.858 31.7007 282.408 32.5012 285.152C33.3094 287.903 34.2032 290.919 35.1357 294.09C36.9776 300.425 38.6485 306.161 39.8686 310.359C40.4515 312.418 40.9255 314.097 41.2675 315.302C41.4151 315.862 41.5395 316.313 41.6327 316.647C41.7104 316.958 41.7493 317.121 41.7338 317.121C41.726 317.121 41.6638 316.966 41.5628 316.662C41.454 316.328 41.3141 315.885 41.1353 315.333C40.7701 314.136 40.2572 312.473 39.6354 310.421C38.392 306.231 36.69 300.511 34.8093 294.184C33.8845 291.012 32.9986 287.989 32.1981 285.229C31.4054 282.478 30.9391 279.874 31.1179 277.682C31.2733 275.49 31.9805 273.803 32.6489 272.793C33.325 271.775 33.8845 271.37 33.8845 271.37Z" fill="#263238"/>
<path d="M47.4604 317.144C47.4527 317.152 47.3749 316.997 47.2506 316.701C47.1262 316.406 46.932 315.971 46.7221 315.403C46.2792 314.268 45.7196 312.597 45.129 310.491C44.5383 308.392 43.9632 305.858 43.4037 303.037C42.8675 300.207 42.2768 297.098 41.6629 293.842C41.0178 290.585 40.3029 287.507 39.4713 284.755C38.6398 282.004 37.715 279.586 36.7746 277.635C35.842 275.677 34.9483 274.161 34.2799 273.143C33.9613 272.622 33.6738 272.249 33.5028 271.977C33.3241 271.712 33.2386 271.565 33.2463 271.557C33.2541 271.549 33.3629 271.681 33.5572 271.93C33.7437 272.187 34.0546 272.552 34.3887 273.057C35.096 274.052 36.0208 275.56 36.9844 277.519C37.9559 279.477 38.9118 281.895 39.7589 284.654C40.6137 287.413 41.3365 290.499 41.9815 293.764C42.5877 297.028 43.1706 300.137 43.699 302.967C44.243 305.788 44.787 308.322 45.3466 310.421C45.8983 312.519 46.4268 314.198 46.8309 315.349C47.0174 315.924 47.1962 316.367 47.2972 316.67C47.4216 316.981 47.476 317.136 47.4604 317.144Z" fill="#263238"/>
<path d="M30.6202 287.017C30.6435 287.11 30.1383 287.312 29.4932 287.468C28.848 287.623 28.3117 287.678 28.2884 287.584C28.2651 287.491 28.7703 287.289 29.4154 287.134C30.0606 286.978 30.5969 286.924 30.6202 287.017Z" fill="#263238"/>
<path d="M29.641 280.706C29.6332 280.799 28.9337 280.838 28.0787 280.877C27.2236 280.908 26.5241 280.923 26.5086 280.83C26.493 280.737 27.1926 280.566 28.0631 280.535C28.9414 280.504 29.6488 280.612 29.641 280.706Z" fill="#263238"/>
<path d="M30.6825 274.946C30.6203 275.016 30.1229 274.69 29.5632 274.215C29.0036 273.741 28.5994 273.298 28.6616 273.228C28.7238 273.158 29.2212 273.485 29.7809 273.959C30.3405 274.433 30.7447 274.876 30.6825 274.946Z" fill="#263238"/>
<path d="M33.5029 269.606C33.5961 269.629 33.5728 270.08 33.5573 270.617C33.5417 271.161 33.5417 271.611 33.4485 271.627C33.3552 271.643 33.1997 271.192 33.2231 270.609C33.2308 270.034 33.4096 269.591 33.5029 269.606Z" fill="#263238"/>
<path d="M39.2617 272.125C39.3394 272.179 39.114 272.638 38.7564 273.143C38.3989 273.648 38.0491 274.021 37.9714 273.967C37.8937 273.912 38.1191 273.454 38.4766 272.948C38.8342 272.435 39.1839 272.07 39.2617 272.125Z" fill="#263238"/>
<path d="M43.0077 278.623C43.0465 278.708 42.5646 278.988 41.935 279.244C41.3054 279.501 40.7691 279.633 40.738 279.548C40.6992 279.462 41.1811 279.182 41.8107 278.926C42.4325 278.669 42.9688 278.537 43.0077 278.623Z" fill="#263238"/>
<path d="M45.2693 285.307C45.3081 285.393 44.6708 285.75 43.8002 285.944C42.9297 286.147 42.2068 286.092 42.199 285.999C42.1913 285.906 42.8908 285.805 43.7225 285.61C44.5697 285.424 45.2382 285.214 45.2693 285.307Z" fill="#263238"/>
<path d="M34.855 283.411C34.7618 283.379 34.8317 282.921 35.0027 282.377C35.1737 281.833 35.3836 281.421 35.4691 281.444C35.5624 281.475 35.4924 281.934 35.3214 282.478C35.1582 283.022 34.9483 283.434 34.855 283.411Z" fill="#263238"/>
<path d="M36.3083 291.797C36.2228 291.758 36.4094 291.137 36.7281 290.406C37.0467 289.675 37.3732 289.116 37.4587 289.154C37.5442 289.193 37.3577 289.815 37.039 290.546C36.7203 291.276 36.3938 291.836 36.3083 291.797Z" fill="#263238"/>
<path d="M32.7189 294.098C32.68 294.184 32.0971 294.028 31.3898 293.803C30.6824 293.577 30.1072 293.375 30.1306 293.282C30.1461 293.189 30.7679 293.251 31.4908 293.476C32.2137 293.71 32.7578 294.013 32.7189 294.098Z" fill="#263238"/>
<path d="M34.7933 300.938C34.8477 301.016 34.4513 301.389 33.9072 301.778C33.3631 302.166 32.8812 302.415 32.8268 302.337C32.7724 302.26 33.1688 301.887 33.7129 301.498C34.2492 301.117 34.7389 300.868 34.7933 300.938Z" fill="#263238"/>
<path d="M36.4487 307.763C36.472 307.856 35.9823 308.05 35.3527 308.206C34.7231 308.361 34.2023 308.408 34.179 308.314C34.1557 308.221 34.6454 308.027 35.275 307.871C35.9046 307.724 36.4254 307.669 36.4487 307.763Z" fill="#263238"/>
<path d="M45.4558 291.005C45.5024 291.082 45.0827 291.416 44.4764 291.65C43.8701 291.883 43.3338 291.906 43.3182 291.813C43.3027 291.72 43.7768 291.549 44.3598 291.331C44.935 291.113 45.4091 290.919 45.4558 291.005Z" fill="#263238"/>
<path d="M46.7459 301.622C46.7071 301.708 46.2096 301.56 45.6344 301.288C45.0592 301.016 44.6239 300.728 44.6628 300.643C44.7017 300.557 45.1991 300.705 45.7743 300.977C46.3495 301.249 46.7848 301.537 46.7459 301.622Z" fill="#263238"/>
<path d="M49.0152 309.216C48.9841 309.302 48.3234 309.131 47.5462 308.82C46.7689 308.516 46.1626 308.198 46.2015 308.112C46.2326 308.027 46.8933 308.198 47.6705 308.509C48.4478 308.812 49.0463 309.131 49.0152 309.216Z" fill="#263238"/>
<path d="M36.8136 315.162C36.7669 315.077 37.3732 314.673 38.0728 314.113C38.7723 313.561 39.3164 313.071 39.3863 313.134C39.4563 313.196 39.0133 313.81 38.2826 314.377C37.5597 314.96 36.8524 315.248 36.8136 315.162Z" fill="#263238"/>
<path d="M42.821 311.307C42.7277 311.315 42.5955 310.81 42.3624 310.211C42.137 309.613 41.8882 309.154 41.966 309.092C42.0359 309.037 42.4323 309.442 42.681 310.087C42.922 310.732 42.9065 311.299 42.821 311.307Z" fill="#263238"/>
<path d="M41.2281 302.166C41.1737 302.244 40.7851 302.057 40.3653 301.754C39.9378 301.451 39.6425 301.14 39.6969 301.063C39.7513 300.985 40.1399 301.171 40.5597 301.475C40.9794 301.785 41.2825 302.089 41.2281 302.166Z" fill="#263238"/>
<path d="M55.2246 287.849C55.279 287.926 54.9059 288.3 54.3773 288.68C53.8566 289.069 53.3902 289.318 53.328 289.24C53.2736 289.162 53.6467 288.789 54.1752 288.408C54.696 288.027 55.1702 287.779 55.2246 287.849Z" fill="#263238"/>
<path d="M57.3308 293.624C57.3386 293.717 56.7479 293.842 56.0172 293.756C55.2866 293.678 54.7347 293.43 54.758 293.344C54.7891 293.251 55.3565 293.344 56.0483 293.422C56.7479 293.492 57.323 293.523 57.3308 293.624Z" fill="#263238"/>
<path d="M48.269 294.914C48.2923 295.007 47.7405 295.202 47.0332 295.248C46.3258 295.295 45.7584 295.178 45.7662 295.085C45.774 294.992 46.3336 294.961 47.0098 294.914C47.6861 294.86 48.2457 294.821 48.269 294.914Z" fill="#263238"/>
<path d="M49.0461 289.458C49.0384 289.551 48.4865 289.559 47.8802 289.279C47.2739 288.999 46.9242 288.572 46.9864 288.509C47.0485 288.439 47.4683 288.719 48.0201 288.968C48.572 289.232 49.0539 289.364 49.0461 289.458Z" fill="#263238"/>
<path d="M58.1078 299.811C58.0611 299.889 57.4937 299.625 56.8408 299.213C56.1879 298.801 55.706 298.412 55.7526 298.327C55.7993 298.249 56.3667 298.513 57.0196 298.925C57.6725 299.337 58.1622 299.733 58.1078 299.811Z" fill="#263238"/>
<path d="M80.2338 316.002H31.8562V324.575H80.2338V316.002Z" fill="#FF725E"/>
<path d="M35.469 322.873L41.352 348.5H70.1843L76.6269 322.873H35.469Z" fill="#FF725E"/>
<path d="M80.2104 324.583C80.2104 324.676 69.2992 324.754 55.839 324.754C42.3787 324.754 31.4675 324.676 31.4675 324.583C31.4675 324.49 42.3787 324.412 55.839 324.412C69.2992 324.42 80.2104 324.49 80.2104 324.583Z" fill="#263238"/>
<path d="M53.305 295.101C53.2273 295.147 52.893 294.767 52.5666 294.238C52.2401 293.709 52.038 293.243 52.1158 293.196C52.1935 293.15 52.5277 293.531 52.8542 294.059C53.1806 294.588 53.3827 295.054 53.305 295.101Z" fill="#263238"/>
<path d="M53.3203 302.003C53.2348 301.972 53.3436 301.389 53.5768 300.697C53.8022 300.005 54.0665 299.469 54.152 299.5C54.2375 299.531 54.1286 300.114 53.8955 300.806C53.67 301.498 53.4135 302.034 53.3203 302.003Z" fill="#263238"/>
<path d="M55.6831 309.247C55.5976 309.286 55.24 308.711 54.8747 307.957C54.5172 307.203 54.2918 306.558 54.3773 306.519C54.4628 306.48 54.8203 307.055 55.1856 307.809C55.5432 308.563 55.7686 309.208 55.6831 309.247Z" fill="#263238"/>
<path d="M50.5769 315.077C50.5069 315.014 50.7945 314.564 51.222 314.074C51.6495 313.584 52.0537 313.235 52.1237 313.297C52.1936 313.359 51.906 313.81 51.4785 314.299C51.051 314.789 50.6468 315.131 50.5769 315.077Z" fill="#263238"/>
<path d="M49.5047 304.49C49.4892 304.583 49.0228 304.576 48.4632 304.482C47.9035 304.381 47.4683 304.226 47.4838 304.14C47.4993 304.047 47.9657 304.055 48.5254 304.148C49.0772 304.241 49.5203 304.397 49.5047 304.49Z" fill="#263238"/>
<path d="M217.812 257.061H103.089V348.562H217.812V257.061Z" fill="#E0E0E0"/>
<g opacity="0.3">
<g opacity="0.3">
<path opacity="0.3" d="M111.443 257.255C124.95 262.075 139.848 263.101 154.342 263.373C157.342 263.427 160.381 263.427 163.287 264.181C166.194 264.935 169.007 266.567 170.499 269.171C172.123 272.008 171.952 275.56 171.028 278.693C170.103 281.825 168.51 284.717 167.352 287.779C165.323 293.142 164.694 299.034 165.541 304.7C165.898 307.11 166.543 309.535 167.934 311.54C169.326 313.538 171.572 315.062 174.012 315.1C178.372 315.163 181.356 310.88 183.516 307.087C192.384 291.549 201.974 273.889 207.647 256.929L111.443 257.255Z" fill="black"/>
</g>
</g>
<path d="M142.18 348.072C142.071 348.072 141.978 327.793 141.978 302.78C141.978 277.76 142.071 257.481 142.18 257.481C142.288 257.481 142.382 277.76 142.382 302.78C142.382 327.793 142.288 348.072 142.18 348.072Z" fill="#455A64"/>
<path d="M189.189 189.438C188.848 187.161 182.032 179.613 182.032 179.613C182.032 179.613 178.62 165.925 177.602 161.891C177.346 160.881 176.802 159.738 176.118 158.588C173.74 154.554 170.25 151.282 166.162 148.981L156.728 143.672L154.466 138.651L131.797 126.999L125.65 137.85C125.65 137.85 110.721 142.599 108.747 145.988C106.773 149.377 109.726 194.801 109.726 194.801C109.726 194.801 103.478 221.011 102.156 226.436C100.843 231.862 102.584 238.329 102.584 238.329L113.705 224.369C117.163 220.032 124.748 218.042 130.196 218.12L176.755 218.322L174.905 205.279L212.551 212.601C212.551 212.601 219.032 199.97 219.537 199.714C220.042 199.457 189.189 189.438 189.189 189.438Z" fill="#FF725E"/>
<path d="M130.825 142.11C130.499 141.775 133.46 151.771 137.167 161.946C139.164 167.426 140.167 173.24 140.167 179.1V201.501V215.943L162.494 214.427L159.16 190.161C159.16 190.161 156.44 174.506 155.679 168.553C154.979 163.104 152.586 148.32 152.586 148.32C152.586 148.32 140.175 151.631 130.825 142.11Z" fill="white"/>
<path d="M180.361 198.594C180.338 198.594 180.33 198.392 180.361 198.035C180.392 197.677 180.478 197.156 180.656 196.535C180.998 195.291 181.799 193.62 183.205 192.205C184.62 190.791 186.291 189.99 187.534 189.64C188.156 189.461 188.677 189.376 189.034 189.345C189.392 189.314 189.594 189.322 189.594 189.345C189.601 189.415 188.809 189.5 187.62 189.912C186.431 190.316 184.845 191.125 183.493 192.485C182.141 193.845 181.333 195.431 180.928 196.62C180.517 197.809 180.431 198.602 180.361 198.594Z" fill="#263238"/>
<path d="M181.511 189.757C181.465 189.671 182.926 188.925 184.923 188.77C186.913 188.599 188.482 189.088 188.444 189.189C188.42 189.314 186.866 189.011 184.954 189.174C183.042 189.322 181.558 189.873 181.511 189.757Z" fill="#263238"/>
<g opacity="0.3">
<g opacity="0.3">
<path opacity="0.3" d="M107.472 209.857L105.537 212.057C107.612 214.474 110.309 216.495 113.402 217.257C116.495 218.019 119.704 218.104 122.891 218.12C124.181 218.12 125.486 218.112 126.73 217.754C127.989 217.389 129.17 216.674 130.483 216.596C131.362 216.542 132.224 216.783 133.087 216.969C133.949 217.156 134.859 217.28 135.698 217.008C136.537 216.736 137.268 215.959 137.214 215.081C127.53 212.251 117.536 210.502 107.472 209.857Z" fill="black"/>
</g>
</g>
<path d="M171.198 212.679L165.719 206.857L154.451 204.004C154.451 204.004 144.122 207.098 143.881 207.09C143.633 207.082 134.897 204.704 134.897 204.704L131.843 215.904L147.581 216.985L165.548 216.262C165.548 216.262 166.489 215.391 165.929 214.793C165.377 214.194 168.937 215.803 169.356 215.819C169.768 215.834 170.592 216.161 171.144 215.492C171.525 215.034 172.037 213.565 171.198 212.679Z" fill="#FFBE9D"/>
<path d="M165.937 214.793C165.914 214.847 165.237 214.63 164.149 214.28C163.054 213.93 161.546 213.472 159.86 213.036C158.165 212.601 156.619 212.282 155.5 212.057C154.373 211.831 153.681 211.692 153.689 211.637C153.697 211.583 154.412 211.622 155.546 211.777C156.689 211.933 158.259 212.212 159.961 212.648C161.663 213.083 163.178 213.596 164.251 214.016C165.315 214.435 165.952 214.746 165.937 214.793Z" fill="#EB996E"/>
<path d="M171.198 212.679C171.175 212.733 170.235 212.383 168.696 211.87C167.165 211.35 165.02 210.72 162.634 210.051C160.256 209.344 158.135 208.637 156.526 208.544C154.925 208.411 153.946 208.722 153.93 208.645C153.922 208.621 154.155 208.528 154.606 208.419C155.049 208.31 155.718 208.233 156.541 208.256C158.204 208.279 160.388 208.963 162.743 209.663C165.129 210.331 167.274 211.008 168.789 211.598C169.551 211.886 170.157 212.15 170.569 212.337C170.989 212.531 171.206 212.648 171.198 212.679Z" fill="#EB996E"/>
<path d="M108.739 145.98C108.739 145.98 100.618 151.631 98.6436 159.762C96.6697 167.9 88.1055 201.113 89.8618 206.087C91.6182 211.062 125.774 215.935 125.774 215.935L129.823 198.859L112.477 194.109C112.477 194.109 112.695 178.292 112.92 171.739C113.13 165.187 108.739 145.98 108.739 145.98Z" fill="#FF725E"/>
<path d="M129.59 201.408L135.177 202.784L131.82 215.679L126.326 214.793L129.59 201.408Z" fill="white"/>
<path d="M89.7298 204.338C89.7609 204.338 89.7143 204.626 89.8153 205.147C89.9241 205.66 90.2583 206.406 91.0044 207.082C92.4887 208.466 95.3253 209.616 98.9158 210.261H98.9313L98.9468 210.269C100.587 210.805 102.46 211.241 104.465 211.692C106.47 212.142 108.622 212.601 110.892 213.059C115.438 213.992 120.466 214.964 125.79 215.967L125.556 216.114C125.945 214.529 126.349 212.857 126.761 211.155C127.717 207.238 128.65 203.437 129.528 199.838L129.668 200.071C123.932 198.431 118.694 196.939 114.257 195.672H114.249H114.241C111.886 194.708 109.547 194.358 107.519 194.498C105.483 194.591 103.773 195.135 102.444 195.687C101.115 196.255 100.167 196.877 99.5297 197.304C99.2344 197.522 99.0012 197.685 98.8225 197.817C98.6593 197.934 98.5738 197.988 98.5738 197.98C98.566 197.973 98.6438 197.903 98.7914 197.778C98.9468 197.654 99.1644 197.46 99.4753 197.226C100.097 196.776 101.037 196.123 102.374 195.524C103.703 194.941 105.428 194.358 107.503 194.242C109.563 194.078 111.956 194.413 114.366 195.376L114.35 195.369C118.803 196.62 124.041 198.089 129.784 199.698L129.963 199.753L129.916 199.939C129.038 203.538 128.113 207.339 127.165 211.256C126.753 212.951 126.341 214.63 125.953 216.215L125.898 216.394L125.712 216.355C120.381 215.352 115.352 214.358 110.814 213.409C108.545 212.935 106.392 212.461 104.387 212.002C102.382 211.536 100.524 211.093 98.8536 210.526L98.8769 210.533C95.2398 209.842 92.4032 208.645 90.9033 207.191C90.1495 206.476 89.8309 205.691 89.7376 205.155C89.6599 204.618 89.7298 204.338 89.7298 204.338Z" fill="#263238"/>
<path d="M113.41 195.252C113.363 195.306 112.78 194.77 111.739 194.071C110.697 193.371 109.159 192.547 107.332 192.011C105.498 191.482 103.757 191.35 102.506 191.381C101.255 191.412 100.478 191.544 100.47 191.482C100.462 191.443 101.216 191.202 102.498 191.101C103.773 190.993 105.568 191.086 107.449 191.63C109.33 192.182 110.892 193.068 111.91 193.845C112.928 194.607 113.441 195.221 113.41 195.252Z" fill="#263238"/>
<path d="M115.687 167.426C115.718 167.426 115.718 167.799 115.695 168.467C115.68 169.136 115.625 170.107 115.532 171.296C115.338 173.683 114.988 176.978 114.358 180.577C113.744 184.184 112.959 187.409 112.205 189.687C112.011 190.254 111.816 190.767 111.653 191.21C111.467 191.63 111.303 192.003 111.156 192.329C110.837 192.92 110.651 193.239 110.627 193.231C110.604 193.216 110.744 192.874 111.016 192.267C111.14 191.933 111.288 191.552 111.443 191.132C111.591 190.682 111.762 190.176 111.933 189.601C112.617 187.316 113.348 184.098 113.962 180.507C114.584 176.916 114.98 173.644 115.244 171.265C115.361 170.138 115.462 169.198 115.54 168.452C115.61 167.791 115.656 167.418 115.687 167.426Z" fill="#263238"/>
<path d="M135.488 158.611C135.465 158.619 135.411 158.402 135.216 158.036C135.022 157.679 134.68 157.173 134.051 156.761C133.437 156.357 132.496 156.062 131.525 156.388C130.569 156.699 129.629 157.593 129.395 158.806L129.287 159.358L129.046 158.845C128.23 157.08 127.39 155.051 126.668 152.844C125.354 148.841 124.787 145.009 124.911 142.242C124.911 141.55 125.005 140.928 125.051 140.384C125.144 139.84 125.214 139.374 125.3 139.001C125.494 138.255 125.618 137.843 125.642 137.85C125.743 137.866 125.183 139.506 125.199 142.25C125.152 144.978 125.751 148.756 127.056 152.72C127.771 154.904 128.587 156.932 129.38 158.689L129.03 158.728C129.318 157.368 130.375 156.412 131.432 156.093C132.52 155.759 133.545 156.109 134.175 156.575C134.828 157.041 135.162 157.601 135.325 157.982C135.403 158.176 135.457 158.332 135.473 158.44C135.496 158.557 135.504 158.611 135.488 158.611Z" fill="#263238"/>
<path d="M154.435 160.36C154.412 160.36 154.358 160.034 154.257 159.435C154.171 158.837 153.977 157.958 154.093 156.831C154.249 155.728 154.77 154.383 155.966 153.388C156.557 152.898 157.365 152.572 158.228 152.58C159.075 152.58 160 152.906 160.606 153.645L160.264 153.839C160.031 153.24 159.782 152.619 159.526 151.981C158.072 148.32 156.782 144.993 155.873 142.584C155.446 141.434 155.088 140.47 154.808 139.724C154.567 139.047 154.443 138.666 154.466 138.651C154.49 138.643 154.661 139.001 154.956 139.661C155.267 140.4 155.663 141.348 156.137 142.483C157.124 144.869 158.453 148.173 159.906 151.841C160.155 152.479 160.404 153.1 160.637 153.699L161.111 154.896L160.295 153.893C159.79 153.271 158.982 152.968 158.228 152.961C157.458 152.953 156.743 153.225 156.192 153.668C155.08 154.554 154.536 155.836 154.365 156.87C154.218 157.935 154.373 158.821 154.412 159.42C154.459 160.026 154.466 160.36 154.435 160.36Z" fill="#263238"/>
<path d="M168.851 162.288C168.96 162.272 170.717 174.087 172.776 188.676C174.836 203.274 176.405 215.111 176.297 215.127C176.188 215.143 174.431 203.328 172.372 188.731C170.32 174.149 168.743 162.303 168.851 162.288Z" fill="#263238"/>
<g opacity="0.3">
<g opacity="0.3">
<path opacity="0.3" d="M126.909 152.976C127.002 155.992 127.663 158.992 128.844 161.751C129.691 160.71 130.631 159.598 131.914 159.295C133.522 158.914 135.139 159.901 136.304 161.106C136.056 159.901 135.652 158.712 134.906 157.756C134.152 156.8 133.017 156.116 131.828 156.147C130.631 156.178 129.45 157.057 129.232 158.261L127.002 153.03" fill="black"/>
</g>
</g>
<path d="M113.79 161.511C113.713 161.511 113.744 160.694 113.503 159.427C113.27 158.16 112.702 156.443 111.614 154.803C111.063 153.987 110.449 153.287 109.835 152.688C109.205 152.113 108.607 151.639 108.055 151.305C106.967 150.613 106.198 150.349 106.221 150.279C106.229 150.256 106.423 150.302 106.781 150.419C106.959 150.473 107.169 150.551 107.41 150.66C107.651 150.769 107.923 150.885 108.21 151.056C108.793 151.367 109.438 151.841 110.099 152.416C110.744 153.015 111.389 153.738 111.956 154.577C113.083 156.272 113.627 158.067 113.79 159.381C113.876 160.034 113.899 160.57 113.868 160.943C113.837 161.316 113.814 161.518 113.79 161.511Z" fill="#263238"/>
<path d="M158.896 106.044C157.979 97.4161 150.581 90.9414 141.908 91.1668L141.045 91.1902C131.766 91.9752 127.243 100.292 128.284 109.549L130.833 142.11L131.914 143.431C136.903 149.556 145.389 151.561 152.594 148.304L151.879 137.827C151.879 137.827 160.777 136.21 160.66 127.271C160.59 122.957 159.751 114.073 158.896 106.044Z" fill="#FFBE9D"/>
<path d="M151.941 137.819C151.941 137.819 146.244 138.309 140.144 134.694C140.144 134.694 143.066 141.052 151.956 140.019L151.941 137.819Z" fill="#EB996E"/>
<path d="M156.068 113.436C156.107 114.112 155.57 114.703 154.871 114.757C154.171 114.812 153.565 114.314 153.526 113.638C153.487 112.962 154.024 112.371 154.723 112.317C155.423 112.262 156.029 112.767 156.068 113.436Z" fill="#263238"/>
<path d="M156.635 108.578C156.534 108.733 155.524 108.842 154.311 109.495C153.099 110.14 152.376 110.964 152.205 110.949C152.127 110.949 152.197 110.723 152.508 110.358C152.819 110 153.394 109.495 154.148 109.091C154.902 108.687 155.609 108.5 156.045 108.461C156.496 108.423 156.69 108.508 156.635 108.578Z" fill="#263238"/>
<path d="M143.167 114.112C143.206 114.788 142.67 115.379 141.97 115.433C141.271 115.488 140.664 114.99 140.626 114.314C140.587 113.638 141.123 113.047 141.823 112.993C142.53 112.938 143.128 113.444 143.167 114.112Z" fill="#263238"/>
<path d="M142.973 110.459C142.795 110.498 141.963 109.938 140.634 109.604C139.305 109.27 138.224 109.355 138.1 109.239C138.038 109.184 138.24 109.083 138.714 109.044C139.18 108.998 139.942 109.037 140.774 109.239C141.605 109.449 142.25 109.767 142.608 110.016C142.966 110.265 143.059 110.443 142.973 110.459Z" fill="#263238"/>
<path d="M148.358 121.131C148.35 121.053 149.198 120.882 150.581 120.672C150.931 120.626 151.257 120.548 151.312 120.307C151.39 120.051 151.234 119.678 151.048 119.273C150.698 118.434 150.325 117.556 149.944 116.631C148.405 112.869 147.286 109.767 147.433 109.705C147.589 109.643 148.957 112.643 150.496 116.413C150.869 117.338 151.219 118.224 151.561 119.071C151.7 119.468 151.941 119.911 151.778 120.439C151.693 120.704 151.436 120.898 151.219 120.968C150.993 121.046 150.799 121.053 150.628 121.069C149.229 121.178 148.366 121.209 148.358 121.131Z" fill="#263238"/>
<path d="M142.996 105.15C142.84 105.515 141.48 105.274 139.864 105.391C138.24 105.476 136.918 105.881 136.724 105.539C136.639 105.375 136.88 105.033 137.424 104.699C137.96 104.365 138.807 104.062 139.778 104C140.75 103.937 141.628 104.14 142.203 104.404C142.778 104.668 143.058 104.979 142.996 105.15Z" fill="#263238"/>
<path d="M156.605 105.453C156.309 105.772 155.12 105.453 153.705 105.453C152.283 105.414 151.086 105.686 150.806 105.368C150.682 105.212 150.868 104.893 151.389 104.598C151.902 104.295 152.765 104.046 153.744 104.062C154.716 104.077 155.571 104.349 156.061 104.668C156.566 104.979 156.737 105.305 156.605 105.453Z" fill="#263238"/>
<path d="M161.501 98.139C161.33 97.3307 160.529 96.6389 159.713 96.7633C160.148 96.6078 160.599 96.4446 160.949 96.1337C161.298 95.8227 161.516 95.3253 161.368 94.89C161.143 94.1982 160.257 94.0583 159.558 93.8562C158.641 93.5997 157.817 93.0479 157.226 92.3017C156.379 91.229 156.053 89.8299 155.314 88.6796C154.366 87.1872 152.711 86.1534 150.955 85.9591C149.19 85.7648 147.356 86.4099 146.105 87.6613C144.737 86.2622 142.678 85.5705 140.743 85.8658C138.808 86.1612 137.051 87.4359 136.165 89.177C133.795 88.1899 130.896 88.5941 128.891 90.203C126.886 91.8042 125.853 94.5402 126.288 97.0742L131.852 100.486C131.946 98.7686 133.865 97.4006 135.52 97.8748C137.199 98.3567 138.272 100.308 140.02 100.44C141.38 100.541 142.53 99.4915 143.851 99.1417C145.445 98.7142 147.131 99.3516 148.569 100.168C150.006 100.976 151.374 101.987 152.975 102.391C154.856 102.865 156.853 102.453 158.648 101.715C159.418 101.404 160.179 101.015 160.747 100.416C161.314 99.8024 161.672 98.9474 161.501 98.139Z" fill="#263238"/>
<path d="M132.823 97.8592L158.314 97.7115C157.475 95.9782 156.021 94.6102 154.452 93.4831C151.071 91.0658 146.96 89.6123 142.802 89.6512C138.644 89.69 130.329 94.991 127.399 97.9369C125.052 100.3 125.122 102.282 125.122 102.282C124.834 105.593 126.785 109.301 127.609 112.519C128.036 114.182 128.907 119.219 128.907 119.219C130.313 119.172 130.803 118.045 130.546 116.662L130.135 111.221C130.135 111.221 134.813 107.692 132.381 101.551C132 101.077 131.16 98.8308 132.823 97.8592Z" fill="#263238"/>
<path d="M129.738 110.871C128.44 106.355 127.251 101.52 128.626 97.0274C128.378 97.0197 128.121 97.0041 127.872 96.9963L127.554 97.2295C126.132 96.7476 124.422 97.2917 123.536 98.512C122.65 99.7246 122.658 101.52 123.544 102.733C122.036 102.663 120.583 103.922 120.451 105.43C120.357 106.471 120.808 107.474 121.274 108.407C121.741 109.339 122.238 110.311 122.246 111.353C122.254 112.394 121.585 113.529 120.552 113.653C121.018 114.726 122.308 115.356 123.435 115.052C123.077 115.939 122.463 116.708 121.686 117.26C123.349 118.387 125.626 118.006 127.429 117.128C128.502 116.607 129.551 115.861 129.986 114.757C130.468 113.521 130.103 112.138 129.738 110.871Z" fill="#263238"/>
<path d="M129.318 116.125C129.163 116.063 123.132 114.47 123.482 120.571C123.832 126.673 129.886 125.064 129.886 124.885C129.893 124.714 129.318 116.125 129.318 116.125Z" fill="#FFBE9D"/>
<path d="M128.433 122.67C128.402 122.654 128.332 122.748 128.153 122.841C127.982 122.934 127.687 123.004 127.36 122.903C126.7 122.701 126.101 121.714 126.008 120.61C125.961 120.058 126.047 119.522 126.218 119.071C126.381 118.613 126.645 118.286 126.972 118.208C127.291 118.115 127.531 118.294 127.617 118.465C127.71 118.628 127.679 118.752 127.71 118.76C127.726 118.776 127.835 118.651 127.772 118.403C127.741 118.286 127.664 118.146 127.508 118.037C127.353 117.929 127.135 117.882 126.91 117.913C126.443 117.975 126.039 118.434 125.853 118.923C125.635 119.421 125.526 120.027 125.581 120.649C125.689 121.877 126.389 122.989 127.283 123.199C127.718 123.284 128.068 123.136 128.247 122.981C128.433 122.818 128.456 122.678 128.433 122.67Z" fill="#EB996E"/>
<path d="M122.984 111.065C122.969 111.081 122.814 110.832 122.876 110.358C122.93 109.891 123.272 109.215 124.018 108.764C124.756 108.314 125.774 108.205 126.816 108.088C127.842 107.979 129.015 107.684 129.598 106.673C130.189 105.686 130.204 104.482 130.072 103.471C129.924 102.445 129.652 101.512 129.52 100.712C129.194 99.0951 129.505 98.0613 129.559 98.0924C129.629 98.1001 129.45 99.095 129.847 100.642C130.018 101.419 130.321 102.329 130.5 103.409C130.647 104.474 130.671 105.764 129.994 106.922C129.652 107.49 129.116 107.925 128.541 108.15C127.966 108.384 127.391 108.461 126.855 108.523C125.79 108.617 124.85 108.694 124.174 109.06C123.505 109.41 123.155 109.985 123.054 110.389C122.946 110.809 123.023 111.057 122.984 111.065Z" fill="#455A64"/>
<path d="M121.508 108.399C121.484 108.407 121.375 108.228 121.321 107.847C121.274 107.474 121.298 106.891 121.624 106.277C121.787 105.974 122.02 105.663 122.347 105.407C122.665 105.142 123.101 104.971 123.52 104.862C123.932 104.738 124.367 104.637 124.678 104.388C124.989 104.14 125.129 103.735 125.137 103.269C125.152 102.803 125.082 102.313 125.098 101.823C125.106 101.341 125.16 100.875 125.253 100.44C125.44 99.5692 125.759 98.8308 126.132 98.2556C126.497 97.6649 127.087 97.3773 127.484 97.3928C127.888 97.3928 128.059 97.5794 128.036 97.5949C128.02 97.6338 127.834 97.5249 127.492 97.5794C127.15 97.6182 126.714 97.8825 126.411 98.4344C126.108 98.9785 125.836 99.7013 125.681 100.525C125.603 100.937 125.564 101.372 125.564 101.831C125.556 102.282 125.634 102.756 125.619 103.292C125.619 103.813 125.424 104.419 124.974 104.754C124.531 105.088 124.049 105.173 123.645 105.29C122.805 105.453 122.246 105.92 121.919 106.456C121.267 107.544 121.601 108.407 121.508 108.399Z" fill="#455A64"/>
<path d="M157.225 92.3094C157.264 92.3172 156.767 92.6436 155.966 92.2627C155.578 92.0917 155.189 91.7187 154.816 91.2834C154.443 90.8403 154.016 90.3662 153.402 90.0242C152.213 89.348 150.278 89.1692 148.801 90.3273C148.047 90.8714 147.379 91.6409 146.501 92.2783C146.065 92.5892 145.552 92.869 144.97 92.9856C144.395 93.1022 143.781 93.0167 143.229 92.8224C142.125 92.426 141.263 91.7497 140.307 91.4077C139.359 91.0424 138.372 90.8792 137.439 90.8947C135.558 90.9025 133.926 91.6098 132.815 92.4882C131.68 93.3665 131.02 94.3458 130.631 95.0454C130.25 95.7527 130.11 96.188 130.072 96.1725C130.056 96.1647 130.079 96.0559 130.134 95.846C130.188 95.6361 130.297 95.333 130.468 94.9599C130.818 94.2215 131.455 93.1722 132.605 92.2239C133.732 91.2756 135.442 90.4828 137.431 90.4595C138.418 90.4361 139.46 90.5916 140.47 90.9802C141.496 91.3533 142.382 92.0296 143.376 92.3793C143.874 92.5581 144.379 92.6203 144.869 92.527C145.358 92.4337 145.801 92.1928 146.213 91.9052C147.037 91.3222 147.721 90.5527 148.529 89.9776C149.329 89.379 150.309 89.0837 151.195 89.0915C152.088 89.0992 152.904 89.348 153.557 89.7288C154.218 90.1097 154.668 90.6538 155.01 91.1046C155.368 91.5554 155.694 91.9052 156.044 92.0917C156.751 92.4959 157.225 92.2627 157.225 92.3094Z" fill="#455A64"/>
<path d="M144.97 122.732C145.164 122.685 145.382 123.991 146.657 124.73C147.931 125.468 149.291 125.087 149.338 125.274C149.369 125.351 149.074 125.577 148.483 125.693C147.908 125.81 147.037 125.763 146.26 125.312C145.483 124.862 145.063 124.154 144.931 123.626C144.783 123.082 144.877 122.74 144.97 122.732Z" fill="#263238"/>
<path d="M225.397 244.174C223.089 242.114 219.895 241.158 216.809 241.337L211.556 258.033C215.403 258.204 219.242 260.186 222.957 259.168C225.941 258.351 228.202 255.545 228.614 252.483C229.034 249.42 227.705 246.234 225.397 244.174Z" fill="#FF725E"/>
<path d="M216.903 240.948C216.91 240.816 217.47 240.707 218.496 240.722C219.506 240.754 221.014 240.862 222.793 241.531C224.581 242.191 226.524 243.544 228.024 245.596C228.777 246.622 229.407 247.842 229.772 249.218C230.145 250.586 230.207 252.117 229.904 253.594C229.601 255.079 228.948 256.47 227.993 257.582C227.037 258.701 225.817 259.47 224.604 259.929C222.156 260.846 219.801 260.698 217.998 260.356C216.18 259.999 214.812 259.47 213.879 259.082C212.955 258.685 212.473 258.39 212.512 258.258C212.551 258.126 213.118 258.165 214.105 258.328C215.092 258.483 216.491 258.786 218.2 258.942C219.895 259.097 221.946 259.043 223.905 258.203C224.876 257.784 225.778 257.162 226.477 256.307C227.184 255.452 227.682 254.364 227.923 253.19C228.428 250.819 227.705 248.449 226.5 246.661C225.288 244.858 223.71 243.567 222.218 242.837C220.718 242.09 219.335 241.756 218.387 241.5C217.431 241.259 216.887 241.096 216.903 240.948Z" fill="#F5F5F5"/>
<path d="M168.238 303.565L156.813 335.581L196.565 350C197.707 346.121 179.91 331.034 179.91 331.034L188.07 310.825L168.238 303.565Z" fill="#FF725E"/>
<g opacity="0.6">
<g opacity="0.6">
<g opacity="0.6">
<g opacity="0.6">
<g opacity="0.6">
<g opacity="0.6">
<g opacity="0.6">
<g opacity="0.6">
<g opacity="0.6">
<g opacity="0.6">
<path opacity="0.6" d="M168.238 324.847C167.391 324.777 166.543 325.453 166.442 326.293C166.341 327.132 167.018 328.003 167.857 328.081C168.704 328.166 169.738 327.389 169.746 326.542C169.754 325.694 168.906 324.723 168.067 324.839" fill="white"/>
</g>
</g>
</g>
</g>
</g>
</g>
</g>
</g>
</g>
</g>
<path d="M156.813 335.581L157.964 332.348L195.725 347.412C195.725 347.412 197.218 348.826 196.565 350L156.813 335.581Z" fill="white"/>
<path d="M180.626 331.066C180.548 331.26 179.546 330.996 178.364 331.268C177.175 331.516 176.374 332.177 176.227 332.037C176.063 331.936 176.771 330.879 178.209 330.568C179.639 330.242 180.727 330.902 180.626 331.066Z" fill="#263238"/>
<path d="M184.17 334.299C184.146 334.501 183.183 334.524 182.227 335.107C181.255 335.659 180.765 336.491 180.571 336.413C180.377 336.374 180.656 335.193 181.861 334.493C183.058 333.778 184.232 334.113 184.17 334.299Z" fill="#263238"/>
<path d="M184.729 340.152C184.535 340.128 184.62 339.064 185.506 338.177C186.384 337.291 187.449 337.198 187.473 337.392C187.527 337.595 186.726 337.952 186.011 338.683C185.281 339.406 184.923 340.198 184.729 340.152Z" fill="#263238"/>
<path d="M181.971 326.246C181.823 326.394 181.03 325.803 179.911 325.477C178.791 325.127 177.804 325.189 177.765 324.987C177.703 324.808 178.799 324.389 180.121 324.793C181.434 325.182 182.126 326.13 181.971 326.246Z" fill="#263238"/>
<path d="M182.74 321.186C182.717 321.264 181.901 321.109 180.75 320.456C180.175 320.129 179.53 319.671 178.9 319.057C178.582 318.753 178.271 318.411 177.975 318.038C177.836 317.852 177.665 317.657 177.548 317.354C177.408 317.075 177.47 316.515 177.836 316.289C178.146 316.056 178.558 316.056 178.846 316.157C179.141 316.251 179.359 316.398 179.553 316.53C179.957 316.795 180.323 317.098 180.634 317.401C181.271 318.023 181.73 318.683 182.033 319.274C182.647 320.463 182.693 321.303 182.616 321.318C182.507 321.35 182.274 320.58 181.59 319.531C181.248 319.01 180.781 318.427 180.175 317.883C179.872 317.611 179.53 317.354 179.157 317.113C178.776 316.849 178.418 316.717 178.24 316.865C178.178 316.919 178.162 316.95 178.201 317.106C178.247 317.253 178.38 317.424 178.52 317.611C178.792 317.968 179.071 318.295 179.351 318.59C179.919 319.189 180.502 319.663 181.007 320.028C182.048 320.759 182.779 321.085 182.74 321.186Z" fill="#263238"/>
<path d="M182.382 321.373C182.304 321.381 182.172 320.541 182.553 319.259C182.747 318.621 183.081 317.891 183.618 317.176C183.882 316.818 184.201 316.476 184.566 316.149C184.939 315.839 185.413 315.419 186.198 315.605C186.595 315.73 186.812 316.157 186.828 316.46C186.859 316.779 186.804 317.02 186.766 317.261C186.672 317.751 186.494 318.202 186.284 318.606C185.848 319.406 185.25 319.981 184.69 320.355C183.54 321.101 182.646 321.039 182.654 320.969C182.623 320.844 183.439 320.72 184.387 319.943C184.853 319.562 185.351 319.01 185.693 318.303C185.864 317.945 186.004 317.556 186.074 317.137C186.167 316.694 186.128 316.289 185.957 316.282C185.763 316.204 185.312 316.406 185.024 316.678C184.69 316.958 184.395 317.269 184.138 317.58C183.625 318.209 183.268 318.854 183.035 319.43C182.553 320.58 182.498 321.388 182.382 321.373Z" fill="#263238"/>
<path d="M129.722 218.057C123.691 218.197 117.971 219.052 113.821 223.42C108.311 229.219 101.504 237.489 101.115 243.218C100.54 251.783 105.7 254.333 109.477 256.416C111.148 257.341 113.052 257.753 114.956 257.683L184.651 257.154L186.842 245.347L141.768 234.24L143.641 217.272L129.722 218.057Z" fill="#263238"/>
<path d="M143.625 217.272L165.549 216.262C165.549 216.262 203.419 218.368 211.502 225.776C219.584 233.183 218.574 241.601 215.877 249.677C213.18 257.761 189.454 309.434 189.454 309.434C189.454 309.434 191.381 312.722 190.293 316.002C188.614 321.077 184.107 321.894 184.107 321.894L163.031 314.144C163.031 314.144 160.171 313.134 162.191 310.444C164.212 307.747 165.556 307.25 165.556 307.25V301.863C165.556 301.863 172.963 288.393 173.639 286.543C174.315 284.693 181.41 257.286 181.41 257.286L186.128 249.179C186.128 249.179 174.727 243.816 164.841 239.93L141.76 234.24L143.625 217.272Z" fill="#263238"/>
<path d="M179.188 313.18C179.149 313.235 178.48 312.706 177.338 311.968C176.196 311.229 174.556 310.312 172.621 309.574C170.686 308.843 168.844 308.431 167.499 308.229C166.155 308.019 165.308 307.972 165.315 307.91C165.315 307.864 166.17 307.809 167.538 307.949C168.906 308.081 170.794 308.454 172.768 309.201C174.742 309.954 176.39 310.926 177.509 311.734C178.613 312.535 179.219 313.141 179.188 313.18Z" fill="#455A64"/>
<path d="M189.718 309.473C189.679 309.504 189.205 309.022 188.49 308.182C187.783 307.351 186.835 306.162 185.84 304.817C184.845 303.472 183.998 302.213 183.415 301.288C182.832 300.363 182.506 299.765 182.545 299.733C182.591 299.702 183.003 300.239 183.648 301.125C184.387 302.135 185.226 303.293 186.159 304.576C187.107 305.851 187.962 307.001 188.708 308.004C189.376 308.89 189.765 309.442 189.718 309.473Z" fill="#455A64"/>
<path d="M197.443 241.78C197.458 241.842 196.666 242.013 195.446 242.417C194.226 242.821 192.578 243.505 190.907 244.547C189.244 245.588 187.9 246.77 187.006 247.687C186.104 248.604 185.607 249.242 185.553 249.203C185.514 249.179 185.933 248.48 186.796 247.493C187.651 246.506 188.995 245.262 190.697 244.197C192.399 243.14 194.101 242.479 195.368 242.137C196.627 241.803 197.443 241.741 197.443 241.78Z" fill="#455A64"/>
<path d="M175.885 278.374C175.869 278.374 175.9 278.211 175.97 277.915C176.056 277.581 176.164 277.154 176.296 276.633C176.607 275.467 177.035 273.873 177.555 271.93C178.675 267.919 180.19 262.471 181.869 256.455C182.747 253.439 183.493 250.555 184.34 247.951C185.319 245.363 186.873 243.373 188.311 241.896C189.757 240.419 191.117 239.425 192.08 238.787C192.57 238.476 192.951 238.243 193.215 238.103C193.479 237.955 193.627 237.886 193.627 237.901C193.642 237.932 193.098 238.259 192.166 238.919C191.233 239.588 189.92 240.606 188.513 242.091C187.122 243.567 185.622 245.549 184.69 248.076C183.881 250.648 183.128 253.555 182.257 256.563C180.532 262.572 178.978 268.005 177.827 272.008C177.252 273.943 176.786 275.521 176.444 276.679C176.281 277.192 176.149 277.612 176.048 277.946C175.954 278.234 175.9 278.382 175.885 278.374Z" fill="#455A64"/>
<path d="M156.495 238.896C156.386 238.904 155.92 234.807 155.469 229.74C155.01 224.672 154.731 220.552 154.839 220.544C154.948 220.537 155.415 224.633 155.865 229.701C156.324 234.776 156.604 238.888 156.495 238.896Z" fill="#455A64"/>
<path d="M120 249.848C119.938 249.879 119.604 249.218 118.912 248.239C118.228 247.267 117.156 246.008 115.726 244.897C114.296 243.785 112.819 243.039 111.708 242.619C110.596 242.192 109.874 242.021 109.889 241.951C109.897 241.912 110.651 241.974 111.809 242.347C112.967 242.712 114.505 243.435 115.982 244.578C117.451 245.728 118.523 247.05 119.153 248.083C119.79 249.117 120.039 249.825 120 249.848Z" fill="#455A64"/>
<path d="M133.437 234.963C133.398 235.025 132.465 234.427 130.857 233.696C129.248 232.958 126.924 232.157 124.259 231.768C121.585 231.388 119.129 231.512 117.381 231.761C115.632 232.009 114.567 232.32 114.552 232.25C114.544 232.227 114.801 232.126 115.275 231.971C115.749 231.807 116.456 231.636 117.334 231.473C119.09 231.147 121.593 230.976 124.313 231.356C127.025 231.753 129.38 232.616 130.973 233.432C131.774 233.836 132.395 234.201 132.807 234.489C133.227 234.769 133.452 234.94 133.437 234.963Z" fill="#455A64"/>
<path d="M185.933 245.34C185.933 245.355 185.739 245.324 185.389 245.246C184.993 245.161 184.48 245.052 183.843 244.912C182.459 244.601 180.524 244.166 178.162 243.637C173.367 242.565 166.73 241.119 159.37 239.665C152.011 238.212 145.327 237.015 140.478 236.175C138.092 235.764 136.141 235.429 134.742 235.188C134.097 235.072 133.577 234.978 133.18 234.909C132.823 234.839 132.636 234.8 132.644 234.784C132.652 234.769 132.838 234.784 133.196 234.831C133.592 234.885 134.113 234.947 134.766 235.033C136.126 235.219 138.1 235.507 140.524 235.888C145.382 236.65 152.081 237.8 159.448 239.261C166.808 240.723 173.444 242.207 178.224 243.35C180.618 243.925 182.545 244.399 183.874 244.749C184.503 244.92 185.016 245.052 185.405 245.161C185.755 245.27 185.933 245.332 185.933 245.34Z" fill="#455A64"/>
<path d="M141.752 236.245C141.674 236.269 141.511 235.321 140.788 234.015C140.423 233.37 139.895 232.647 139.195 231.955C138.504 231.255 137.657 230.548 136.755 229.841C134.937 228.449 133.087 227.462 131.766 226.739C130.429 226.024 129.605 225.581 129.636 225.527C129.66 225.48 130.53 225.83 131.898 226.483C133.258 227.144 135.154 228.1 137.004 229.514C137.921 230.229 138.768 230.944 139.467 231.683C140.175 232.414 140.703 233.183 141.045 233.867C141.387 234.559 141.573 235.157 141.667 235.569C141.76 236.005 141.775 236.238 141.752 236.245Z" fill="#455A64"/>
<path d="M219.382 246.785C219.476 246.871 218.302 248.052 217.4 249.84C216.475 251.62 216.195 253.26 216.071 253.237C215.97 253.237 216.079 251.511 217.035 249.661C217.983 247.796 219.32 246.7 219.382 246.785Z" fill="#263238"/>
<g opacity="0.3">
<g opacity="0.3">
<path opacity="0.3" d="M169.497 167.13L174.487 202.279L174.735 202.838C175.917 190.744 174.098 178.377 169.497 167.13Z" fill="black"/>
</g>
</g>
<path d="M196.363 187.332L180.143 215.71L140.175 216.58L140.073 218.392L178.776 218.104L180.003 218.065L220.874 218.143L229.135 203.895L239.689 188.769C240.38 187.775 239.665 186.422 238.461 186.422L197.668 186.578C197.124 186.578 196.627 186.865 196.363 187.332Z" fill="#E0E0E0"/>
<path d="M229.127 203.887C229.127 203.887 231.225 205.815 230.899 207.447C230.565 209.08 230.681 210.3 229.127 210.409C229.127 210.409 229.236 212.507 227.029 212.842C227.029 212.842 227.503 215.407 224.519 215.85C224.519 215.85 223.602 218.594 221.721 217.925C219.84 217.264 218.628 216.487 218.628 216.487L218.076 215.492C218.076 215.492 215.309 214.451 215.993 212.888C216.405 211.94 217.843 211.691 217.843 211.691C217.843 211.691 217.244 210.3 218.022 209.258C218.682 208.365 220.85 209.103 220.85 209.103C220.85 209.103 220.726 207.953 221.534 206.989C222.273 206.118 225.708 208.489 225.708 208.489L227.588 206.25L229.127 203.887Z" fill="#FFBE9D"/>
<path d="M224.519 215.85C224.457 215.943 222.918 215.088 221.068 213.945C219.219 212.795 217.773 211.792 217.835 211.699C217.898 211.606 219.436 212.453 221.286 213.603C223.128 214.746 224.573 215.757 224.519 215.85Z" fill="#EB996E"/>
<path d="M227.029 212.842C226.975 212.935 225.537 212.181 223.828 211.147C222.118 210.114 220.781 209.204 220.836 209.111C220.89 209.018 222.328 209.772 224.037 210.805C225.747 211.839 227.084 212.748 227.029 212.842Z" fill="#EB996E"/>
<path d="M223.609 207.214C223.671 207.098 224.954 207.774 226.446 208.722C227.939 209.678 229.143 210.417 229.112 210.494C229.058 210.626 227.721 210.02 226.229 209.064C224.729 208.116 223.563 207.3 223.609 207.214Z" fill="#EB996E"/>
<path d="M239.681 187.495C239.681 187.502 239.611 187.51 239.487 187.518C239.331 187.526 239.145 187.534 238.912 187.541C238.375 187.549 237.637 187.565 236.704 187.58C234.754 187.596 231.987 187.619 228.591 187.642C221.705 187.658 212.255 187.681 201.818 187.705C201.165 187.705 200.513 187.705 199.867 187.705C199.254 187.658 198.702 187.93 198.383 188.404C197.769 189.516 197.163 190.604 196.565 191.684C195.368 193.837 194.218 195.92 193.122 197.902C190.922 201.859 188.941 205.419 187.27 208.419C185.607 211.38 184.247 213.79 183.291 215.492C182.825 216.301 182.459 216.938 182.195 217.404C182.079 217.606 181.977 217.762 181.9 217.894C181.83 218.003 181.791 218.057 181.791 218.057C181.783 218.057 181.814 217.995 181.869 217.878C181.939 217.739 182.024 217.575 182.125 217.365C182.374 216.891 182.724 216.238 183.159 215.414C184.091 213.697 185.405 211.272 187.021 208.279C188.669 205.263 190.627 201.688 192.803 197.716C193.891 195.726 195.041 193.643 196.23 191.482C196.829 190.402 197.435 189.298 198.057 188.179C198.438 187.572 199.199 187.238 199.875 187.293C200.52 187.293 201.173 187.293 201.826 187.293C212.271 187.316 221.721 187.339 228.599 187.355C232.003 187.378 234.762 187.401 236.712 187.417C237.645 187.433 238.383 187.448 238.919 187.456C239.152 187.464 239.339 187.471 239.494 187.479C239.619 187.479 239.681 187.487 239.681 187.495Z" fill="#263238"/>
<path d="M210.927 201.758C210.204 202.558 210.188 203.717 210.888 204.354C211.587 204.984 212.745 204.851 213.468 204.051C214.191 203.25 214.207 202.092 213.507 201.455C212.8 200.825 211.649 200.957 210.927 201.758Z" fill="white"/>
<g opacity="0.3">
<g opacity="0.3">
<path opacity="0.3" d="M97.4702 190.79C97.1205 190.93 96.7319 191.164 96.7241 191.537C96.7241 191.84 97.0039 192.081 97.2992 192.143C97.5945 192.205 98.667 191.762 98.9623 191.7C103.167 190.775 106.625 191.661 110.627 193.231L110.759 193.099C109.159 189.726 101.985 188.964 97.4702 190.79Z" fill="black"/>
</g>
</g>
<path d="M314 348.562C314 348.671 243.699 348.764 157.008 348.764C70.2855 348.764 0 348.679 0 348.562C0 348.445 70.2855 348.36 157.008 348.36C243.707 348.36 314 348.453 314 348.562Z" fill="#263238"/>
<path d="M75.7255 100.805C75.8576 100.937 101.667 92.0684 101.667 92.0684L91.7426 69.2942L68.77 78.0774L81.4065 85.3372L75.7255 100.805Z" fill="#455A64"/>
<path d="M87.8335 76.1576V45.1442C87.8335 45.1442 123.435 38.6384 149.081 39.0193C174.727 39.4001 201.142 43.613 201.142 43.613V73.3827C201.142 73.3827 120.754 66.2006 87.8335 76.1576Z" fill="#455A64"/>
<path d="M87.647 76.1808L101.667 92.2004V73.3826C101.667 73.3826 89.9396 74.7894 87.647 76.1808Z" fill="#263238"/>
<path d="M87.8336 45.144C87.9424 45.144 87.9968 52.0929 87.9424 60.6663C87.888 69.2396 87.7558 76.1885 87.647 76.1885C87.5382 76.1885 87.4838 69.2396 87.5382 60.6663C87.5848 52.0929 87.717 45.144 87.8336 45.144Z" fill="#263238"/>
<path d="M213.203 98.4263C213.071 98.5585 187.262 89.6897 187.262 89.6897L197.186 66.9155L220.159 75.6988L207.523 82.9585L213.203 98.4263Z" fill="#455A64"/>
<path d="M201.282 73.8022L187.262 89.8219V72.3643C191.941 72.5197 196.611 73.0016 201.282 73.8022Z" fill="#263238"/>
<path d="M201.142 43.6128C201.251 43.6128 201.375 50.3673 201.414 58.7075C201.453 67.0477 201.399 73.8022 201.282 73.8022C201.173 73.8022 201.049 67.0477 201.01 58.7075C200.971 50.3751 201.026 43.6128 201.142 43.6128Z" fill="#263238"/>
<path d="M107.907 58.7389C107.565 56.2671 109.221 54.2307 111.77 53.8809C113.184 53.6866 114.443 54.0364 115.345 54.868L114.28 56.1583C113.643 55.5987 112.904 55.3733 112.088 55.4821C110.557 55.692 109.617 56.9201 109.827 58.4746C110.045 60.0214 111.28 60.9463 112.819 60.7365C113.643 60.6199 114.288 60.2002 114.746 59.4773L116.122 60.4333C115.477 61.4904 114.366 62.1667 112.936 62.3688C110.394 62.7185 108.249 61.2184 107.907 58.7389Z" fill="white"/>
<path d="M116.386 57.5729C116.137 55.1245 117.855 53.1191 120.451 52.8471C123.039 52.5828 125.145 54.184 125.393 56.6402C125.65 59.0964 123.917 61.094 121.329 61.366C118.733 61.6381 116.643 60.0213 116.386 57.5729ZM123.474 56.8423C123.311 55.2799 122.098 54.3239 120.629 54.4716C119.161 54.6192 118.166 55.8085 118.321 57.3708C118.484 58.9331 119.697 59.8892 121.166 59.7415C122.634 59.5938 123.629 58.4124 123.474 56.8423Z" fill="white"/>
<path d="M134.704 60.1612L134.369 55.2022L132.201 59.4384L131.339 59.4928L128.665 55.6686L128.976 60.5188L127.181 60.6354L126.652 52.3729L128.23 52.2719L131.649 57.2076L134.362 51.8755L135.932 51.7744L136.483 60.0369L134.704 60.1612Z" fill="white"/>
<path d="M145.405 54.5105C145.459 56.3527 144.107 57.5419 141.892 57.6041L140.221 57.6507L140.284 59.9359L138.372 59.9903L138.139 51.7123L141.721 51.6113C143.936 51.5413 145.351 52.6528 145.405 54.5105ZM143.462 54.5649C143.439 53.6555 142.833 53.1425 141.659 53.1736L140.097 53.2202L140.175 56.0962L141.737 56.0495C142.91 56.0107 143.485 55.4588 143.462 54.5649Z" fill="white"/>
<path d="M146.858 51.5024H148.77V58.2181H152.921V59.7804H146.858V51.5024Z" fill="white"/>
<path d="M160.388 58.4512L160.342 59.9902L153.93 59.8036L154.171 51.5256L160.427 51.7044L160.381 53.2434L156.028 53.119L155.974 54.9146L159.813 55.0234L159.767 56.5157L155.927 56.4069L155.873 58.319L160.388 58.4512Z" fill="white"/>
<path d="M163.925 53.469L161.282 53.3058L161.375 51.7512L168.572 52.1865L168.479 53.741L165.836 53.5778L165.432 60.2779L163.52 60.1614L163.925 53.469Z" fill="white"/>
<path d="M175.543 59.5859L175.403 61.1172L169.022 60.5264L169.784 52.2795L176.017 52.8547L175.877 54.386L171.54 53.9818L171.377 55.7695L175.201 56.1271L175.061 57.6117L171.237 57.2541L171.059 59.1584L175.543 59.5859Z" fill="white"/>
<path d="M177.937 53.0647L181.659 53.5622C184.34 53.9197 185.965 55.7852 185.63 58.2647C185.296 60.752 183.245 62.12 180.563 61.7624L176.841 61.265L177.937 53.0647ZM180.68 60.1923C182.312 60.41 183.501 59.5783 183.711 58.0082C183.921 56.4381 182.988 55.3188 181.356 55.1089L179.623 54.8758L178.947 59.9591L180.68 60.1923Z" fill="white"/>
<path d="M217.066 46.4344L219.102 48.8207L224.837 46.4344L223.159 43.9238L217.066 46.4344Z" fill="#455A64"/>
<path d="M214.44 35.0863C214.44 36.7342 213.103 38.0711 211.455 38.0711C209.808 38.0711 208.471 36.7342 208.471 35.0863C208.471 33.4385 209.808 32.1016 211.455 32.1016C213.103 32.0938 214.44 33.4307 214.44 35.0863Z" fill="#FF725E"/>
<path d="M147.589 79.601C147.589 80.4249 146.921 81.0934 146.097 81.0934C145.273 81.0934 144.604 80.4249 144.604 79.601C144.604 78.7771 145.273 78.1086 146.097 78.1086C146.921 78.1086 147.589 78.7771 147.589 79.601Z" fill="#FF725E"/>
<path d="M78.0729 57.1688C78.0729 57.7984 77.5676 58.3036 76.938 58.3036C76.3085 58.3036 75.8032 57.7984 75.8032 57.1688C75.8032 56.5392 76.3085 56.0339 76.938 56.0339C77.5599 56.0417 78.0729 56.5469 78.0729 57.1688Z" fill="#FF725E"/>
<path d="M73.8604 44.6779L77.2026 44.88L78.7961 38.312L75.6714 38.4364L73.8604 44.6779Z" fill="#455A64"/>
<path d="M178.309 97.1674L179.436 100.323L186.104 99.2116L184.76 96.3823L178.309 97.1674Z" fill="#FF725E"/>
<path d="M110.868 78.9558L108.809 81.6063L113.324 86.6275L114.987 83.9848L110.868 78.9558Z" fill="#455A64"/>
<path d="M102.887 16.8746L110.775 24.9272L121.888 20.7222L122.323 23.4815L117.513 33.3374L121.95 40.6904L121.577 42.8823L110.829 41.0713L104.472 48.0512L102.988 46.9164L101.667 38.0477L91.6415 32.8244L91.1985 30.8034L101.294 28.0363L102.887 16.8746Z" fill="#FF725E"/>
<g opacity="0.3">
<path opacity="0.3" d="M102.887 16.8746L110.775 24.9272L121.888 20.7222L122.323 23.4815L117.513 33.3374L121.95 40.6904L121.577 42.8823L110.829 41.0713L104.472 48.0512L102.988 46.9164L101.667 38.0477L91.6415 32.8244L91.1985 30.8034L101.294 28.0363L102.887 16.8746Z" fill="black"/>
</g>
<path d="M102.887 14.6128L110.775 22.6654L121.888 20.7222L116.673 30.7257L121.95 40.6904L110.829 38.8172L102.988 46.9164L101.325 35.7625L91.1985 30.8035L101.294 25.7823L102.887 14.6128Z" fill="#FF725E"/>
<path d="M184.682 16.8746L176.786 24.9272L165.681 20.7222L165.238 23.4815L170.048 33.3374L165.619 40.6904L165.984 42.8823L176.732 41.0713L183.089 48.0512L184.581 46.9164L185.894 38.0477L195.92 32.8244L196.363 30.8034L186.267 28.0363L184.682 16.8746Z" fill="#FF725E"/>
<g opacity="0.3">
<path opacity="0.3" d="M184.682 16.8746L176.786 24.9272L165.681 20.7222L165.238 23.4815L170.048 33.3374L165.619 40.6904L165.984 42.8823L176.732 41.0713L183.089 48.0512L184.581 46.9164L185.894 38.0477L195.92 32.8244L196.363 30.8034L186.267 28.0363L184.682 16.8746Z" fill="black"/>
</g>
<path d="M184.682 14.6128L176.786 22.6654L165.681 20.7222L170.896 30.7257L165.619 40.6904L176.732 38.8172L184.581 46.9164L186.236 35.7625L196.363 30.8035L186.268 25.7823L184.682 14.6128Z" fill="#FF725E"/>
<path d="M143.524 2.75159L150.091 15.5844L165.238 14.6906L164.725 18.2194L155.104 28.4095L157.715 39.0737L156.425 41.6077L143.998 35.3039L133.592 41.3978L132.201 39.4468L133.973 28.1219L123.73 17.9318L123.963 15.2968L137.338 15.771L143.524 2.75159Z" fill="#FF725E"/>
<g opacity="0.3">
<path opacity="0.3" d="M143.524 2.75159L150.091 15.5844L165.238 14.6906L164.725 18.2194L155.104 28.4095L157.715 39.0737L156.425 41.6077L143.998 35.3039L133.592 41.3978L132.201 39.4468L133.973 28.1219L123.73 17.9318L123.963 15.2968L137.338 15.771L143.524 2.75159Z" fill="black"/>
</g>
<path d="M144.379 0L150.946 12.8328L165.238 14.6905L155.065 24.9039L157.715 39.0737L144.861 32.5524L132.201 39.4468L134.432 25.2071L123.963 15.2968L138.193 13.0194L144.379 0Z" fill="#FF725E"/>
<path d="M170.546 115.122L181.519 116.335C184.161 112.573 187.845 109.472 192.376 107.521C205.409 101.909 220.516 107.933 226.127 120.968C231.739 134.002 225.716 149.113 212.683 154.725C199.65 160.337 184.542 154.313 178.931 141.278C176.592 135.837 176.281 130.031 177.657 124.706L177.649 124.722L170.546 115.122Z" fill="#FAFAFA"/>
<path d="M170.546 115.122C170.973 115.69 173.196 118.636 177.734 124.66L177.563 124.667L177.571 124.652C177.594 124.605 177.657 124.582 177.711 124.613C177.75 124.636 177.773 124.683 177.758 124.73C176.848 128.282 176.499 132.953 177.929 137.998C178.294 139.249 178.737 140.532 179.351 141.775C179.662 142.397 179.957 143.034 180.299 143.664C180.68 144.27 181.061 144.884 181.449 145.506C183.12 147.924 185.288 150.185 187.938 152.02C190.581 153.862 193.705 155.277 197.101 156.015C200.497 156.761 204.173 156.847 207.794 156.062C211.408 155.277 214.952 153.683 218.03 151.32C221.092 148.957 223.749 145.864 225.451 142.211C227.208 138.503 228.14 134.446 228 130.481C227.892 126.525 226.85 122.693 225.125 119.351C223.4 116.009 220.991 113.125 218.177 110.972C215.379 108.803 212.232 107.311 209.077 106.464C205.914 105.616 202.751 105.422 199.798 105.717C196.837 106.028 194.156 106.914 191.754 107.94C186.975 110.132 183.68 113.444 181.597 116.374C181.573 116.405 181.542 116.421 181.503 116.413C174.564 115.604 171.222 115.208 170.546 115.122C171.23 115.192 174.571 115.527 181.535 116.234L181.441 116.273C183.509 113.304 186.811 109.938 191.638 107.692C194.054 106.635 196.774 105.725 199.767 105.407C202.751 105.096 205.96 105.282 209.17 106.137C212.372 106.984 215.558 108.492 218.41 110.684C221.263 112.861 223.711 115.783 225.475 119.172C227.239 122.561 228.296 126.447 228.412 130.474C228.56 134.5 227.612 138.62 225.832 142.389C224.099 146.105 221.402 149.245 218.286 151.647C215.162 154.049 211.556 155.665 207.888 156.45C204.212 157.235 200.474 157.142 197.031 156.38C193.58 155.619 190.425 154.181 187.744 152.307C185.063 150.434 182.871 148.133 181.193 145.685C180.804 145.055 180.415 144.434 180.035 143.82C179.693 143.182 179.397 142.537 179.087 141.907C178.473 140.648 178.03 139.35 177.664 138.083C176.242 132.977 176.631 128.258 177.571 124.683L177.758 124.761L177.75 124.776C177.727 124.823 177.664 124.846 177.61 124.815C177.594 124.807 177.587 124.8 177.579 124.784C173.134 118.682 170.965 115.705 170.546 115.122Z" fill="#263238"/>
<path d="M193.06 121.978C193.067 121.986 193.075 122.102 193.083 122.336C193.091 122.592 193.099 122.919 193.106 123.331C193.114 124.224 193.13 125.484 193.153 127.069C193.176 130.295 193.207 134.834 193.238 140.275L193.06 140.096C198.383 140.089 204.655 140.081 211.346 140.065C211.393 140.019 210.965 140.446 211.144 140.267V140.26V140.252V140.229V140.19V140.112V139.957V139.646V139.024C211.144 138.612 211.144 138.192 211.144 137.78C211.144 136.956 211.144 136.14 211.144 135.332C211.144 133.715 211.144 132.137 211.152 130.606C211.159 127.536 211.167 124.636 211.175 121.978L211.354 122.157C205.914 122.118 201.375 122.087 198.15 122.071C196.565 122.056 195.313 122.04 194.412 122.025C194 122.017 193.674 122.009 193.417 122.001C193.192 121.986 193.067 121.986 193.06 121.978C193.052 121.97 193.161 121.963 193.378 121.955C193.627 121.947 193.946 121.939 194.342 121.931C195.228 121.924 196.471 121.908 198.041 121.885C201.29 121.861 205.875 121.83 211.354 121.799H211.525V121.978C211.533 124.636 211.54 127.536 211.548 130.606C211.548 132.145 211.548 133.723 211.556 135.332C211.556 136.14 211.556 136.956 211.556 137.78C211.556 138.192 211.556 138.604 211.556 139.024V139.646V139.957V140.112V140.19V140.229V140.252V140.26V140.267C211.735 140.089 211.307 140.516 211.354 140.47C204.663 140.462 198.391 140.454 193.067 140.438H192.889V140.267C192.928 134.78 192.959 130.202 192.974 126.953C192.99 125.39 193.005 124.147 193.021 123.253C193.029 122.856 193.036 122.538 193.044 122.289C193.052 122.079 193.052 121.97 193.06 121.978Z" fill="#263238"/>
<path d="M209.381 125.002C209.645 125.211 207.181 128.756 203.886 132.914C203.225 133.746 202.588 134.539 201.99 135.262L201.601 135.736L201.166 135.339C198.306 132.767 196.371 130.792 196.55 130.59C196.729 130.388 198.959 132.02 201.92 134.469L201.088 134.547C201.656 133.8 202.277 132.992 202.938 132.16C206.225 128.002 209.116 124.792 209.381 125.002Z" fill="#FF725E"/>
</svg>
