<svg width="353" height="350" viewBox="0 0 353 350" fill="none" xmlns="http://www.w3.org/2000/svg">
<path d="M57.7375 319.071V343.08H92.8715H131.617V319.071H57.7375Z" fill="#F5F5F5"/>
<path d="M54.6372 312.363V319.071H134.198V312.363H92.8715H54.6372Z" fill="#E0E0E0"/>
<path d="M94.4217 343.08H131.617V319.071H134.198V312.363H92.8716V318.45L94.4217 343.08Z" fill="#E0E0E0"/>
<path d="M83.0512 322.948H68.0691V326.566H83.0512V322.948Z" fill="#E0E0E0"/>
<path d="M85.3805 331.079H66.1414V338.707H85.3805V331.079Z" fill="white"/>
<path d="M69.1001 288.386V312.395H104.234H142.98V288.386H69.1001Z" fill="#F5F5F5"/>
<path d="M65.9998 281.67V288.386H145.569V281.67H104.234H65.9998Z" fill="#E0E0E0"/>
<path d="M105.784 312.395H142.98V288.386H145.569V281.67H104.234V287.765L105.784 312.395Z" fill="#E0E0E0"/>
<path d="M94.4218 292.255H79.4397V295.873H94.4218V292.255Z" fill="#E0E0E0"/>
<path d="M96.743 300.386H77.5039V308.014H96.743V300.386Z" fill="white"/>
<path d="M69.4934 23.7018C71.5078 22.4829 73.6481 21.5628 75.8592 20.9337L77.1733 14.6347L87.8197 14.4459L89.3541 20.6977C91.5889 21.2482 93.7606 22.0897 95.8144 23.2378L101.197 19.7148L108.861 27.1069L105.524 32.6037C106.744 34.6169 107.665 36.7559 108.294 38.9657L114.597 40.2789L114.786 50.9188L108.53 52.4523C107.979 54.6857 107.138 56.8561 105.989 58.9086L109.514 64.2875L102.117 71.947L96.617 68.6127C94.6026 69.8316 92.4623 70.7517 90.2512 71.3808L88.9371 77.6798L78.2907 77.8685L76.7563 71.6167C74.5215 71.0662 72.3498 70.2169 70.296 69.0767L64.9138 72.5997L57.2496 65.2076L60.586 59.7107C59.3663 57.6975 58.4457 55.5586 57.8162 53.3488L51.5133 52.0355L51.3245 41.3956L57.5801 39.8622C58.1309 37.6288 58.9808 35.4583 60.1217 33.4059L56.5965 28.0269L63.9932 20.3675L69.4934 23.7018ZM75.1668 37.8804C70.7839 42.4179 70.9098 49.6449 75.4501 54.0251C79.9903 58.4053 87.2217 58.2795 91.6046 53.742C95.9875 49.2045 95.8616 41.9776 91.3213 37.5973C86.7811 33.2171 79.5497 33.343 75.1668 37.8804Z" fill="#EBEBEB"/>
<path d="M240.804 11.0174C243.204 9.57041 245.754 8.46945 248.39 7.72238L249.956 0.22019L262.632 0L264.458 7.43928C267.117 8.09199 269.706 9.09857 272.153 10.4669L278.566 6.26755L287.694 15.0752L283.72 21.6258C285.168 24.0243 286.27 26.5722 287.017 29.2066L294.524 30.7716L294.744 43.4482L287.301 45.2727C286.648 47.9307 285.64 50.5179 284.271 52.9636L288.473 59.3727L279.66 68.4948L273.105 64.5236C270.705 65.9705 268.156 67.0715 265.52 67.8185L263.954 75.3207L251.27 75.5409L249.444 68.1016C246.784 67.4489 244.196 66.4424 241.748 65.074L235.335 69.2734L226.208 60.4658L230.181 53.9151C228.734 51.5166 227.632 48.9687 226.884 46.3343L219.378 44.7694L219.157 32.0927L226.601 30.2683C227.254 27.6103 228.261 25.023 229.631 22.5773L225.429 16.1682L234.242 7.04608L240.804 11.0174ZM247.563 27.9012C242.346 33.3037 242.496 41.9148 247.902 47.1285C253.308 52.3423 261.924 52.1929 267.141 46.7904C272.358 41.3879 272.208 32.7769 266.803 27.5631C261.397 22.3493 252.78 22.4987 247.563 27.9012Z" fill="#EBEBEB"/>
<path d="M242.724 113.933C244.597 112.8 246.587 111.943 248.649 111.361L249.869 105.502L259.776 105.329L261.2 111.141C263.277 111.652 265.299 112.438 267.211 113.508L272.216 110.229L279.345 117.11L276.245 122.221C277.378 124.093 278.236 126.09 278.818 128.143L284.68 129.362L284.853 139.262L279.038 140.686C278.527 142.762 277.74 144.783 276.67 146.694L279.951 151.695L273.066 158.82L267.943 155.722C266.07 156.854 264.072 157.711 262.018 158.293L260.798 164.152L250.892 164.325L249.467 158.513C247.39 158.002 245.368 157.216 243.456 156.146L238.451 159.425L231.322 152.544L234.422 147.433C233.289 145.561 232.432 143.564 231.849 141.511L225.987 140.292L225.814 130.392L231.629 128.968C232.14 126.892 232.927 124.871 233.997 122.96L230.716 117.959L237.601 110.834L242.724 113.933ZM248.004 127.12C243.928 131.343 244.046 138.067 248.271 142.141C252.497 146.214 259.225 146.096 263.301 141.873C267.377 137.65 267.259 130.927 263.033 126.853C258.808 122.787 252.08 122.905 248.004 127.12Z" fill="white"/>
<path d="M295.602 83.4678C296.641 82.8387 297.75 82.359 298.891 82.0366L299.568 78.7809L305.068 78.6865L305.863 81.9186C307.02 82.2017 308.137 82.6421 309.199 83.2319L311.985 81.4074L315.943 85.2293L314.219 88.0682C314.849 89.1062 315.329 90.215 315.652 91.3553L318.909 92.0316L319.004 97.5285L315.77 98.3228C315.486 99.4788 315.046 100.595 314.456 101.657L316.281 104.441L312.457 108.396L309.616 106.674C308.578 107.303 307.468 107.783 306.327 108.105L305.65 111.361L300.15 111.456L299.355 108.223C298.199 107.94 297.081 107.5 296.019 106.91L293.234 108.735L289.276 104.913L290.999 102.074C290.369 101.036 289.889 99.927 289.567 98.7867L286.309 98.1104L286.215 92.6135L289.449 91.8193C289.732 90.6633 290.173 89.5466 290.763 88.485L288.937 85.7012L292.761 81.7456L295.602 83.4678ZM298.537 90.797C296.271 93.1404 296.334 96.8758 298.687 99.1406C301.031 101.405 304.769 101.343 307.035 98.9912C309.302 96.6477 309.239 92.9124 306.886 90.6476C304.541 88.3828 300.803 88.4535 298.537 90.797Z" fill="#F5F5F5"/>
<path d="M138.353 11.0331C139.392 10.404 140.501 9.92429 141.642 9.60187L142.319 6.3462L147.819 6.25183L148.614 9.48391C149.771 9.76701 150.888 10.2074 151.95 10.7972L154.736 8.97275L158.694 12.7946L156.97 15.6335C157.6 16.6715 158.08 17.7804 158.403 18.9206L161.66 19.5969L161.755 25.0938L158.521 25.8881C158.237 27.0441 157.797 28.1607 157.207 29.2224L159.032 32.0062L155.208 35.9618L152.367 34.2396C151.329 34.8687 150.219 35.3484 149.078 35.6708L148.401 38.9265L142.901 39.0208L142.106 35.7888C140.95 35.5056 139.832 35.0653 138.77 34.4755L135.985 36.2999L132.027 32.478L133.75 29.6392C133.12 28.6011 132.64 27.4923 132.318 26.352L129.06 25.6757L128.966 20.1789L132.2 19.3846C132.483 18.2286 132.924 17.1119 133.514 16.0503L131.688 13.2665L135.512 9.3109L138.353 11.0331ZM141.288 18.3623C139.022 20.7057 139.085 24.4411 141.438 26.7059C143.782 28.9707 147.52 28.9078 149.786 26.5565C152.053 24.213 151.99 20.4777 149.637 18.2129C147.284 15.9481 143.554 16.0188 141.288 18.3623Z" fill="#F5F5F5"/>
<path d="M88.7876 99.8562C89.8262 99.2271 90.9357 98.7474 92.0767 98.425L92.7534 95.1693L98.2537 95.075L99.0484 98.307C100.205 98.5901 101.322 99.0305 102.385 99.6203L105.17 97.7959L109.128 101.618L107.405 104.457C108.035 105.495 108.515 106.603 108.837 107.744L112.095 108.42L112.189 113.917L108.955 114.711C108.672 115.867 108.231 116.984 107.641 118.045L109.467 120.829L105.642 124.785L102.802 123.063C101.763 123.692 100.654 124.171 99.5127 124.494L98.836 127.75L93.3357 127.844L92.541 124.612C91.3843 124.329 90.2669 123.888 89.2046 123.299L86.4191 125.123L82.4611 121.301L84.1843 118.462C83.5548 117.424 83.0748 116.315 82.7522 115.175L79.4946 114.499L79.4001 109.002L82.6342 108.208C82.9175 107.052 83.3581 105.935 83.9483 104.873L82.1227 102.09L85.9469 98.134L88.7876 99.8562ZM91.7226 107.185C89.4564 109.529 89.5194 113.264 91.8721 115.529C94.217 117.794 97.9547 117.731 100.221 115.38C102.487 113.036 102.424 109.301 100.071 107.036C97.7265 104.771 93.9888 104.842 91.7226 107.185Z" fill="#F5F5F5"/>
<path d="M337.259 343.85C337.259 343.961 262.333 344.055 169.922 344.055C77.4803 344.055 2.56982 343.961 2.56982 343.85C2.56982 343.74 77.4803 343.646 169.922 343.646C262.333 343.646 337.259 343.74 337.259 343.85Z" fill="#263238"/>
<path d="M226.774 343.709L124.732 343.646C112.457 343.638 102.511 333.187 102.519 320.298L102.566 51.611C102.566 38.7142 112.528 28.263 124.811 28.2709L226.861 28.3338C239.136 28.3417 249.082 38.7928 249.074 51.6818L249.027 320.369C249.011 333.258 239.057 343.717 226.774 343.709Z" fill="#263238"/>
<path d="M226.743 37.8255L206.961 37.8098C204.309 37.8098 202.153 40.169 202.153 43.0786V46.8455C202.153 49.7551 200.005 52.1222 197.345 52.1143L158.78 52.0907C156.128 52.0907 153.98 49.7237 153.98 46.814V43.0472C153.98 40.1375 151.832 37.7705 149.18 37.7705L142.224 37.7626L124.905 37.7548C116.305 37.7469 109.333 45.0682 109.325 54.1039L109.278 316.366C109.278 325.394 116.242 332.715 124.834 332.723L226.68 332.786C235.28 332.794 242.252 325.472 242.26 316.437L242.307 54.1747C242.299 45.1547 235.335 37.8334 226.743 37.8255Z" fill="white"/>
<path d="M154 292.867H156.058V288.846H160.017V287.149H156.058V284.83H160.445V283.133H154V292.867Z" fill="#E0E0E0"/>
<path d="M163.887 283.133H161.829V292.867H163.887V283.133Z" fill="#E0E0E0"/>
<path d="M167.51 283.133H165.176L168.166 288L165.119 292.867H167.477L169.473 289.545H169.549L171.545 292.867H173.912L170.875 288L173.846 283.133H171.521L169.549 286.451H169.473L167.51 283.133Z" fill="#E0E0E0"/>
<path d="M177.206 283.133H175.148V292.867H177.206V283.133Z" fill="#E0E0E0"/>
<path d="M187.041 283.133H184.992V289.255H184.907L180.705 283.133H178.899V292.867H180.957V286.74H181.028L185.263 292.867H187.041V283.133Z" fill="#E0E0E0"/>
<path d="M195.195 286.279H197.287C197.02 284.355 195.324 283 193.123 283C190.552 283 188.57 284.854 188.57 288.01C188.57 291.089 190.423 293 193.166 293C195.623 293 197.377 291.446 197.377 288.884V287.658H193.304V289.207H195.395C195.366 290.414 194.544 291.18 193.175 291.18C191.631 291.18 190.656 290.025 190.656 287.99C190.656 285.966 191.669 284.82 193.156 284.82C194.216 284.82 194.934 285.367 195.195 286.279Z" fill="#E0E0E0"/>
<path d="M194.496 166.613C194.496 170.537 191.317 173.714 187.407 173.714C183.488 173.714 180.317 170.537 180.317 166.613C180.317 162.689 183.496 159.512 187.407 159.512C191.325 159.512 194.496 162.697 194.496 166.613Z" fill="#B688F5"/>
<path d="M166.35 174.178C170.522 174.178 173.904 170.791 173.904 166.613C173.904 162.435 170.522 159.048 166.35 159.048C162.178 159.048 158.796 162.435 158.796 166.613C158.796 170.791 162.178 174.178 166.35 174.178Z" fill="#B688F5"/>
<path d="M150.164 161.258C154.592 161.258 158.182 157.663 158.182 153.229C158.182 148.794 154.592 145.2 150.164 145.2C145.736 145.2 142.146 148.794 142.146 153.229C142.146 157.663 145.736 161.258 150.164 161.258Z" fill="#B688F5"/>
<path d="M146.875 141.032C151.499 141.032 155.247 137.275 155.247 132.641C155.247 128.007 151.499 124.25 146.875 124.25C142.251 124.25 138.502 128.007 138.502 132.641C138.502 137.275 142.251 141.032 146.875 141.032Z" fill="#B688F5"/>
<path d="M157.136 123.299C161.916 123.299 165.791 119.415 165.791 114.625C165.791 109.834 161.916 105.951 157.136 105.951C152.355 105.951 148.48 109.834 148.48 114.625C148.48 119.415 152.355 123.299 157.136 123.299Z" fill="#B688F5"/>
<path d="M176.847 116.952C182.057 116.952 186.281 112.72 186.281 107.5C186.281 102.28 182.057 98.0476 176.847 98.0476C171.636 98.0476 167.412 102.28 167.412 107.5C167.412 112.72 171.636 116.952 176.847 116.952Z" fill="#B688F5"/>
<path d="M209.903 153.064C209.903 156.854 206.835 159.929 203.05 159.929C199.265 159.929 196.196 156.854 196.196 153.064C196.196 149.273 199.265 146.198 203.05 146.198C206.842 146.198 209.903 149.273 209.903 153.064Z" fill="#B688F5"/>
<path d="M206.725 138.783C210.236 138.783 213.083 135.931 213.083 132.413C213.083 128.895 210.236 126.043 206.725 126.043C203.213 126.043 200.367 128.895 200.367 132.413C200.367 135.931 203.213 138.783 206.725 138.783Z" fill="#B688F5"/>
<path d="M196.149 120.208C199.356 120.208 201.956 117.603 201.956 114.389C201.956 111.175 199.356 108.57 196.149 108.57C192.942 108.57 190.342 111.175 190.342 114.389C190.342 117.603 192.942 120.208 196.149 120.208Z" fill="#B688F5"/>
<g opacity="0.5">
<path opacity="0.5" d="M194.496 166.613C194.496 170.537 191.317 173.714 187.407 173.714C183.488 173.714 180.317 170.537 180.317 166.613C180.317 162.689 183.496 159.512 187.407 159.512C191.325 159.512 194.496 162.697 194.496 166.613Z" fill="white"/>
</g>
<g opacity="0.4">
<path opacity="0.4" d="M166.35 174.178C170.522 174.178 173.904 170.791 173.904 166.613C173.904 162.435 170.522 159.048 166.35 159.048C162.178 159.048 158.796 162.435 158.796 166.613C158.796 170.791 162.178 174.178 166.35 174.178Z" fill="white"/>
</g>
<g opacity="0.3">
<path opacity="0.3" d="M150.164 161.258C154.592 161.258 158.182 157.663 158.182 153.229C158.182 148.794 154.592 145.2 150.164 145.2C145.736 145.2 142.146 148.794 142.146 153.229C142.146 157.663 145.736 161.258 150.164 161.258Z" fill="white"/>
</g>
<g opacity="0.2">
<path opacity="0.2" d="M146.875 141.032C151.499 141.032 155.247 137.275 155.247 132.641C155.247 128.007 151.499 124.25 146.875 124.25C142.251 124.25 138.502 128.007 138.502 132.641C138.502 137.275 142.251 141.032 146.875 141.032Z" fill="white"/>
</g>
<g opacity="0.1">
<path opacity="0.1" d="M157.136 123.299C161.916 123.299 165.791 119.415 165.791 114.625C165.791 109.834 161.916 105.951 157.136 105.951C152.355 105.951 148.48 109.834 148.48 114.625C148.48 119.415 152.355 123.299 157.136 123.299Z" fill="white"/>
</g>
<g opacity="0.2">
<path opacity="0.2" d="M176.847 116.952C182.057 116.952 186.281 112.72 186.281 107.5C186.281 102.28 182.057 98.0476 176.847 98.0476C171.636 98.0476 167.412 102.28 167.412 107.5C167.412 112.72 171.636 116.952 176.847 116.952Z" fill="white"/>
</g>
<g opacity="0.6">
<path opacity="0.6" d="M209.903 153.064C209.903 156.854 206.835 159.929 203.05 159.929C199.265 159.929 196.196 156.854 196.196 153.064C196.196 149.273 199.265 146.198 203.05 146.198C206.842 146.198 209.903 149.273 209.903 153.064Z" fill="white"/>
</g>
<g opacity="0.7">
<path opacity="0.7" d="M206.725 138.783C210.236 138.783 213.083 135.931 213.083 132.413C213.083 128.895 210.236 126.043 206.725 126.043C203.213 126.043 200.367 128.895 200.367 132.413C200.367 135.931 203.213 138.783 206.725 138.783Z" fill="white"/>
</g>
<g opacity="0.8">
<path opacity="0.8" d="M196.149 120.208C199.356 120.208 201.956 117.603 201.956 114.389C201.956 111.175 199.356 108.57 196.149 108.57C192.942 108.57 190.342 111.175 190.342 114.389C190.342 117.603 192.942 120.208 196.149 120.208Z" fill="white"/>
</g>
<path d="M154.224 234.62C154.224 233.158 155.334 232.08 156.837 232.08C157.56 232.08 158.221 232.324 158.662 232.804L158.324 233.142C157.915 232.725 157.419 232.552 156.852 232.552C155.648 232.552 154.743 233.441 154.743 234.62C154.743 235.808 155.648 236.689 156.852 236.689C157.419 236.689 157.922 236.508 158.324 236.091L158.662 236.429C158.221 236.917 157.568 237.161 156.829 237.161C155.334 237.161 154.224 236.083 154.224 234.62Z" fill="#263238"/>
<path d="M163.95 232.128V237.121H163.431V234.817H160.315V237.121H159.787V232.128H160.315V234.353H163.431V232.128H163.95Z" fill="#263238"/>
<path d="M169.104 236.665V237.121H165.579V232.128H168.994V232.584H166.106V234.361H168.687V234.809H166.106V236.665H169.104Z" fill="#263238"/>
<path d="M169.867 234.62C169.867 233.158 170.977 232.08 172.48 232.08C173.204 232.08 173.865 232.324 174.305 232.804L173.967 233.142C173.558 232.725 173.062 232.552 172.495 232.552C171.291 232.552 170.387 233.441 170.387 234.62C170.387 235.808 171.291 236.689 172.495 236.689C173.062 236.689 173.565 236.508 173.967 236.091L174.305 236.429C173.865 236.917 173.211 237.161 172.472 237.161C170.977 237.161 169.867 236.083 169.867 234.62Z" fill="#263238"/>
<path d="M176.973 234.77L175.958 235.808V237.121H175.43V232.128H175.958V235.147L178.885 232.128H179.491L177.335 234.393L179.64 237.121H179.011L176.973 234.77Z" fill="#263238"/>
<path d="M180.49 232.128H181.017V237.121H180.49V232.128Z" fill="#263238"/>
<path d="M186.809 232.128V237.121H186.376L183.173 233.071V237.121H182.646V232.128H183.079L186.289 236.178V232.128H186.809Z" fill="#263238"/>
<path d="M191.939 234.62H192.443V236.524C191.97 236.948 191.302 237.161 190.609 237.161C189.09 237.161 187.981 236.083 187.981 234.62C187.981 233.158 189.09 232.08 190.617 232.08C191.372 232.08 192.025 232.324 192.466 232.804L192.136 233.142C191.719 232.725 191.215 232.56 190.633 232.56C189.397 232.56 188.492 233.441 188.492 234.628C188.492 235.816 189.397 236.697 190.625 236.697C191.105 236.697 191.545 236.586 191.931 236.311V234.62H191.939Z" fill="#263238"/>
<path d="M193.576 236.76C193.576 236.539 193.749 236.374 193.953 236.374C194.158 236.374 194.338 236.539 194.338 236.76C194.338 236.98 194.158 237.153 193.953 237.153C193.741 237.153 193.576 236.98 193.576 236.76Z" fill="#263238"/>
<path d="M195.079 236.76C195.079 236.539 195.252 236.374 195.456 236.374C195.661 236.374 195.841 236.539 195.841 236.76C195.841 236.98 195.661 237.153 195.456 237.153C195.252 237.153 195.079 236.98 195.079 236.76Z" fill="#263238"/>
<path d="M196.589 236.76C196.589 236.539 196.762 236.374 196.967 236.374C197.171 236.374 197.352 236.539 197.352 236.76C197.352 236.98 197.171 237.153 196.967 237.153C196.762 237.153 196.589 236.98 196.589 236.76Z" fill="#263238"/>
<path d="M215.026 222.337H136.637C131.758 222.337 127.808 218.389 127.808 213.514V212.059C127.808 207.183 131.766 203.236 136.637 203.236H215.026C219.904 203.236 223.854 207.183 223.854 212.059V213.514C223.854 218.389 219.904 222.337 215.026 222.337Z" fill="#F5F5F5"/>
<path d="M172.361 222.337H136.629C131.751 222.337 127.801 218.389 127.801 213.514V212.059C127.801 207.183 131.759 203.236 136.629 203.236H172.361C177.24 203.236 181.19 207.183 181.19 212.059V213.514C181.198 218.389 177.24 222.337 172.361 222.337Z" fill="#B688F5"/>
<path d="M204.167 214.182C204.167 215.173 203.482 215.936 202.097 215.936C201.24 215.936 200.437 215.613 200.02 215.141L200.24 214.811C200.594 215.228 201.295 215.535 202.09 215.535C203.175 215.535 203.734 214.984 203.734 214.198C203.734 213.349 203.223 212.837 201.617 212.837H200.421L200.736 209.967H203.868V210.352H201.098L200.87 212.444H201.712C203.506 212.444 204.167 213.136 204.167 214.182Z" fill="#B688F5"/>
<path d="M208.841 214.182C208.841 215.173 208.156 215.936 206.771 215.936C205.914 215.936 205.111 215.613 204.694 215.141L204.914 214.811C205.269 215.228 205.969 215.535 206.764 215.535C207.849 215.535 208.408 214.984 208.408 214.198C208.408 213.349 207.897 212.837 206.291 212.837H205.095L205.41 209.967H208.542V210.352H205.772L205.544 212.444H206.386C208.18 212.444 208.841 213.136 208.841 214.182Z" fill="#B688F5"/>
<path d="M209.486 211.532C209.486 210.565 210.021 209.936 210.784 209.936C211.556 209.936 212.091 210.573 212.091 211.532C212.091 212.499 211.548 213.128 210.784 213.128C210.013 213.136 209.486 212.499 209.486 211.532ZM211.768 211.532C211.768 210.714 211.375 210.219 210.777 210.219C210.194 210.219 209.801 210.714 209.801 211.532C209.801 212.342 210.194 212.845 210.777 212.845C211.375 212.845 211.768 212.358 211.768 211.532ZM214.388 209.967H214.75L210.714 215.889H210.352L214.388 209.967ZM213.011 214.324C213.011 213.356 213.554 212.727 214.317 212.727C215.089 212.727 215.616 213.364 215.616 214.324C215.616 215.291 215.081 215.92 214.317 215.92C213.554 215.92 213.011 215.291 213.011 214.324ZM215.301 214.324C215.301 213.514 214.908 213.01 214.325 213.01C213.735 213.01 213.334 213.498 213.334 214.324C213.334 215.141 213.727 215.637 214.325 215.637C214.908 215.637 215.301 215.134 215.301 214.324Z" fill="#B688F5"/>
<g opacity="0.2">
<path opacity="0.2" d="M151.029 203.228L143.845 222.109H149.125L155.814 203.228H151.029Z" fill="white"/>
</g>
<g opacity="0.2">
<path opacity="0.2" d="M163.973 203.228L156.797 222.109H162.069L168.765 203.228H163.973Z" fill="white"/>
</g>
<g opacity="0.2">
<path opacity="0.2" d="M176.658 204.651L169.969 222.227H173.109C173.975 222.109 175.533 221.417 175.533 221.417L180.144 208.418C179.286 206.837 178.114 205.587 176.658 204.651Z" fill="white"/>
</g>
<g opacity="0.2">
<path opacity="0.2" d="M138.447 203.228L131.845 220.591C133.183 221.48 134.749 221.991 136.543 222.109L143.231 203.228H138.447Z" fill="white"/>
</g>
<path d="M214.853 222.337C214.845 222.29 215.616 222.361 217.001 222.022C218.354 221.684 220.424 220.796 222.037 218.602C222.84 217.524 223.461 216.109 223.674 214.481C223.768 213.671 223.768 212.806 223.729 211.909C223.713 211.021 223.524 210.109 223.194 209.212C222.556 207.419 221.234 205.713 219.369 204.612C218.441 204.061 217.386 203.668 216.261 203.495C215.144 203.314 213.948 203.393 212.736 203.377C193.292 203.393 166.444 203.416 136.803 203.44C135.898 203.456 135.001 203.589 134.135 203.857C133.277 204.132 132.475 204.549 131.735 205.052C130.279 206.09 129.131 207.553 128.548 209.22C127.486 212.531 127.832 216.526 130.161 219.089C131.279 220.387 132.766 221.33 134.379 221.787C135.992 222.274 137.7 222.101 139.391 222.133C142.751 222.133 146.048 222.14 149.259 222.14C162.109 222.156 173.676 222.172 183.401 222.188C193.111 222.219 200.972 222.235 206.417 222.251C209.124 222.266 211.233 222.282 212.673 222.29C213.381 222.298 213.916 222.306 214.302 222.313C214.672 222.329 214.853 222.337 214.853 222.337C214.853 222.337 214.664 222.353 214.302 222.361C213.924 222.369 213.381 222.369 212.673 222.384C211.225 222.392 209.124 222.408 206.417 222.424C200.972 222.439 193.111 222.463 183.401 222.486C173.683 222.502 162.109 222.518 149.259 222.534C146.048 222.534 142.751 222.542 139.391 222.542C138.549 222.542 137.708 222.542 136.858 222.542C135.992 222.518 135.111 222.439 134.277 222.18C132.593 221.7 131.027 220.717 129.862 219.365C128.69 218.02 127.911 216.298 127.683 214.489C127.58 213.569 127.58 212.688 127.628 211.776C127.659 210.856 127.848 209.943 128.171 209.078C128.784 207.333 129.988 205.791 131.507 204.706C132.278 204.171 133.12 203.739 134.017 203.448C134.922 203.173 135.858 203.031 136.81 203.015C166.46 203.039 193.3 203.063 212.744 203.078C213.956 203.102 215.144 203.023 216.316 203.212C217.473 203.401 218.559 203.81 219.511 204.384C221.423 205.524 222.777 207.285 223.414 209.134C224.563 212.877 223.886 216.533 222.171 218.696C220.502 220.922 218.394 221.787 217.024 222.109C216.678 222.211 216.364 222.235 216.096 222.274C215.828 222.321 215.6 222.329 215.411 222.329C215.042 222.345 214.853 222.337 214.853 222.337Z" fill="#263238"/>
<path d="M137.102 308.038V314.463C137.102 315.021 136.488 315.36 136.016 315.061L130.964 311.852C130.531 311.577 130.531 310.94 130.964 310.657L136.016 307.448C136.488 307.142 137.102 307.48 137.102 308.038Z" fill="#E0E0E0"/>
<path d="M178.601 311.184C178.601 313.637 176.619 315.619 174.171 315.619C171.724 315.619 169.741 313.629 169.741 311.184C169.741 308.73 171.724 306.749 174.171 306.749C176.619 306.749 178.601 308.738 178.601 311.184Z" fill="#E0E0E0"/>
<path d="M217.095 315.517H211.863C211.052 315.517 210.391 314.857 210.391 314.047V308.801C210.391 307.991 211.052 307.331 211.863 307.331H217.095C217.906 307.331 218.567 307.991 218.567 308.801V314.047C218.567 314.857 217.914 315.517 217.095 315.517Z" fill="#E0E0E0"/>
<path d="M311.206 202.331C311.576 199.099 311.93 195.851 311.741 192.603C311.552 189.356 310.789 186.084 309.073 183.324C308.814 182.907 306.76 180.155 306.288 180.304C305.949 180.406 307.413 183.064 307.295 183.395C306.209 186.58 306.453 190.095 307.389 193.327C308.318 196.559 309.6 199.374 311.206 202.331Z" fill="#263238"/>
<path d="M296.9 223.611C296.42 221.362 296.035 219.592 296.019 219.6C296.019 219.6 288.135 220.387 286.073 212.837C285.081 209.188 283.642 201.513 282.43 194.546C281.124 187.059 285.782 179.832 293.147 177.929L293.879 177.741C301.881 176.16 307.696 182.074 309.058 190.111L314.707 218.083L302.283 231.255L296.9 223.611Z" fill="#FFBE9D"/>
<path d="M296.011 219.6C296.011 219.6 300.858 218.641 305.123 214.127C305.123 214.127 304.21 220.363 296.468 221.637L296.011 219.6Z" fill="#EB996E"/>
<path d="M286.349 200.538C286.474 201.112 287.072 201.482 287.678 201.356C288.284 201.23 288.67 200.672 288.544 200.09C288.418 199.516 287.82 199.146 287.222 199.264C286.6 199.398 286.215 199.964 286.349 200.538Z" fill="#263238"/>
<path d="M284.861 197.267C285.034 197.377 285.695 196.551 286.86 196.252C288.017 195.938 289.032 196.315 289.118 196.142C289.165 196.064 288.961 195.843 288.52 195.67C288.087 195.497 287.395 195.395 286.663 195.584C285.939 195.773 285.396 196.197 285.121 196.567C284.838 196.936 284.775 197.22 284.861 197.267Z" fill="#263238"/>
<path d="M296.916 198.43C297.042 199.004 297.64 199.374 298.246 199.248C298.852 199.122 299.237 198.564 299.112 197.982C298.986 197.408 298.388 197.038 297.79 197.156C297.176 197.29 296.79 197.856 296.916 198.43Z" fill="#263238"/>
<path d="M296.389 194.79C296.562 194.9 297.223 194.074 298.387 193.775C299.544 193.461 300.559 193.838 300.646 193.665C300.693 193.586 300.488 193.366 300.048 193.193C299.615 193.02 298.923 192.918 298.191 193.107C297.467 193.295 296.924 193.72 296.648 194.09C296.365 194.451 296.31 194.742 296.389 194.79Z" fill="#263238"/>
<path d="M294.532 204.816C294.524 204.745 293.761 204.808 292.549 204.965C292.242 205.013 291.943 205.028 291.841 204.84C291.715 204.643 291.754 204.289 291.809 203.904C291.904 203.11 291.998 202.284 292.101 201.411C292.486 197.872 292.683 194.994 292.541 194.978C292.4 194.962 291.967 197.817 291.581 201.356C291.495 202.229 291.408 203.054 291.329 203.849C291.306 204.218 291.211 204.651 291.479 205.052C291.613 205.256 291.88 205.359 292.077 205.359C292.282 205.366 292.455 205.327 292.604 205.296C293.808 205.068 294.548 204.879 294.532 204.816Z" fill="#263238"/>
<path d="M298.167 204.73C297.978 204.769 298.301 206.035 297.451 207.207C296.601 208.386 295.216 208.591 295.256 208.772C295.256 208.858 295.618 208.937 296.192 208.811C296.759 208.685 297.522 208.292 298.041 207.576C298.561 206.853 298.655 206.051 298.561 205.516C298.474 204.981 298.254 204.698 298.167 204.73Z" fill="#263238"/>
<path d="M295.232 190.048C295.429 190.331 296.554 189.882 297.963 189.694C299.371 189.474 300.575 189.592 300.685 189.261C300.732 189.104 300.465 188.86 299.938 188.664C299.418 188.475 298.639 188.365 297.789 188.483C296.948 188.609 296.231 188.931 295.783 189.261C295.334 189.592 295.146 189.906 295.232 190.048Z" fill="#263238"/>
<path d="M284.342 193.272C284.617 193.484 285.349 193.004 286.309 192.737C287.261 192.438 288.135 192.454 288.253 192.132C288.3 191.974 288.103 191.746 287.678 191.589C287.261 191.432 286.624 191.377 285.963 191.573C285.302 191.762 284.79 192.155 284.531 192.509C284.255 192.871 284.216 193.17 284.342 193.272Z" fill="#263238"/>
<path d="M309.884 195.875C310.002 195.788 314.692 192.989 315.872 198.21C317.052 203.432 311.56 203.534 311.52 203.385C311.473 203.235 309.884 195.875 309.884 195.875Z" fill="#FFBE9D"/>
<path d="M312.669 201.049C312.685 201.026 312.772 201.089 312.945 201.128C313.11 201.159 313.378 201.151 313.629 200.986C314.133 200.656 314.401 199.681 314.22 198.729C314.125 198.25 313.921 197.825 313.669 197.487C313.425 197.141 313.118 196.929 312.827 196.944C312.536 196.944 312.378 197.157 312.347 197.314C312.307 197.479 312.363 197.573 312.339 197.589C312.331 197.605 312.205 197.526 312.197 197.298C312.197 197.188 312.229 197.054 312.331 196.929C312.433 196.795 312.606 196.708 312.803 196.685C313.212 196.622 313.661 196.913 313.936 197.282C314.235 197.652 314.471 198.132 314.582 198.666C314.786 199.728 314.471 200.829 313.763 201.222C313.417 201.403 313.086 201.356 312.898 201.269C312.709 201.175 312.654 201.065 312.669 201.049Z" fill="#EB996E"/>
<path d="M283.94 185.148C282.995 184.865 284.939 181.57 286.819 180.178C289.66 178.071 294.271 176.16 297.356 176.356C301.062 176.592 304.343 177.701 306.783 180.501C309.222 183.3 310.685 186.863 311.362 190.512C311.567 191.628 311.708 192.8 311.315 193.869C310.835 195.183 309.592 196.213 309.993 197.794C310.142 198.375 310.103 198.997 309.796 199.508C309.057 200.735 307.68 200.027 306.932 199.185C305.343 197.385 304.682 194.963 304.076 192.643C303.643 190.991 303.21 189.301 303.328 187.594C303.399 186.666 303.627 185.754 303.643 184.826C303.659 183.898 303.415 182.899 302.707 182.294C302.588 182.199 302.408 182.081 302.187 181.956C300.425 180.98 298.269 181.036 296.545 182.097C293.823 183.772 289.125 186.422 287.591 185.707C285.387 184.677 284.734 183.835 284.734 183.835L283.94 185.148Z" fill="#263238"/>
<path d="M296.224 173.439C296.586 173.4 305.438 173.172 309.121 178.881C312.795 184.59 312.669 186.658 312.669 186.658C312.669 186.658 313.228 186.831 313.732 187.185C314.18 187.508 314.172 189.599 313.024 189.654C303.919 188.105 294.139 190.189 283.429 193.256L275.136 195.246C272.893 196.103 271.925 195.694 272.751 194.86C273.389 194.223 279.29 189.93 279.29 189.93L280.345 188.664L282.564 183.072C282.564 183.072 281.973 182.522 282.674 181.759C283.358 181.004 289.142 174.218 296.224 173.439Z" fill="#B688F5"/>
<path d="M280.337 188.671C280.337 188.671 280.447 188.648 280.659 188.593C280.911 188.522 281.21 188.443 281.58 188.341C282.375 188.105 283.531 187.822 284.971 187.492C287.851 186.863 291.896 186.218 296.405 186.053C300.913 185.864 304.997 186.092 307.94 186.304C309.412 186.407 310.608 186.517 311.426 186.58C311.804 186.611 312.119 186.635 312.378 186.658C312.599 186.674 312.709 186.674 312.709 186.674C312.709 186.674 312.599 186.65 312.378 186.627C312.119 186.595 311.812 186.564 311.434 186.525C310.616 186.438 309.42 186.32 307.948 186.202C305.005 185.966 300.913 185.722 296.397 185.911C291.88 186.068 287.828 186.737 284.948 187.39C282.068 188.058 280.337 188.671 280.337 188.671Z" fill="#263238"/>
<g opacity="0.3">
<g opacity="0.3">
<g opacity="0.3">
<g opacity="0.3">
<path opacity="0.3" d="M304.809 175.177C304.809 175.177 295.405 176.003 291.857 178.968C291.99 178.85 292.132 178.732 292.266 178.614C291.133 179.495 289.999 180.375 288.866 181.256C288.292 181.704 287.607 182.176 286.899 182.003C286.899 182.003 288.473 179.652 291.927 177.419C295.39 175.201 301.244 173.133 304.809 175.177Z" fill="black"/>
</g>
</g>
</g>
</g>
<path d="M304.95 175.193C304.95 175.193 304.628 175.044 304.006 174.871C303.384 174.698 302.472 174.493 301.315 174.446C300.166 174.391 298.781 174.493 297.302 174.871C295.83 175.24 294.233 175.862 292.848 176.97C292.156 177.513 291.542 178.119 290.96 178.701C290.385 179.298 289.803 179.833 289.299 180.415C288.796 180.989 288.347 181.547 287.828 181.972C287.316 182.412 286.726 182.617 286.175 182.766C283.964 183.356 282.485 183.246 282.548 183.081C282.548 183.073 282.595 183.167 282.768 183.214C282.933 183.254 283.185 183.285 283.508 183.269C284.153 183.254 285.082 183.152 286.199 182.868C286.75 182.727 287.379 182.522 287.906 182.066C288.442 181.642 288.906 181.075 289.402 180.509C289.897 179.943 290.487 179.4 291.062 178.811C291.644 178.229 292.25 177.631 292.942 177.096C294.304 176.003 295.885 175.382 297.341 175.012C298.805 174.635 300.174 174.517 301.315 174.564C302.456 174.596 303.369 174.784 303.99 174.942C304.297 175.02 304.541 175.091 304.698 175.146C304.864 175.177 304.95 175.193 304.95 175.193Z" fill="#263238"/>
<g opacity="0.3">
<g opacity="0.3">
<g opacity="0.3">
<g opacity="0.3">
<path opacity="0.3" d="M310.561 181.287C308.94 181.688 307.602 181.578 305.91 181.633C304.1 181.696 302.33 181.822 300.52 181.798C299.151 181.775 297.554 181.853 296.476 181.138C296.523 181.838 296.877 182.396 297.491 182.742C298.104 183.088 299.843 183.245 300.544 183.261C304.557 183.332 307.327 183.363 311.285 182.648C311.151 182.254 310.561 181.287 310.561 181.287Z" fill="black"/>
</g>
</g>
</g>
</g>
<path d="M308.68 178.268C309.821 178.456 310.521 178.59 310.773 179.455C310.986 180.178 311.056 181.099 310.372 181.413C310.159 181.507 309.931 181.523 309.703 181.531C305.784 181.728 301.873 181.916 297.955 182.113C297.561 182.129 297.121 182.144 296.806 181.901C296.318 181.531 296.397 180.721 296.806 180.265C297.215 179.809 297.829 179.612 298.419 179.455C301.779 178.527 305.202 178.26 308.68 178.268Z" fill="#B688F5"/>
<path d="M297.026 182.011C297.042 181.995 296.798 181.94 296.601 181.602C296.413 181.287 296.302 180.642 296.704 180.076C297.129 179.534 297.931 179.188 298.828 179.007C299.733 178.826 300.74 178.637 301.795 178.48C303.911 178.15 305.847 178.039 307.248 178.087C307.948 178.102 308.515 178.15 308.9 178.189C309.058 178.205 309.207 178.22 309.349 178.236C309.451 178.244 309.506 178.244 309.506 178.244C309.506 178.236 309.451 178.228 309.349 178.212C309.207 178.189 309.066 178.165 308.9 178.142C308.515 178.087 307.948 178.024 307.24 178C305.831 177.929 303.888 178.024 301.763 178.354C300.701 178.511 299.702 178.708 298.789 178.897C297.884 179.085 297.058 179.447 296.609 180.029C296.184 180.642 296.334 181.319 296.538 181.641C296.649 181.814 296.775 181.909 296.861 181.964C296.971 182.003 297.026 182.019 297.026 182.011Z" fill="#263238"/>
<path d="M281.855 184.834L288.851 182.907L288.756 185.031L281.076 186.808L281.855 184.834Z" fill="white"/>
<path d="M294.076 188.373C294.068 188.333 290.826 188.679 286.821 189.151C282.815 189.615 279.581 190.032 279.581 190.071C279.589 190.11 282.831 189.764 286.836 189.293C290.834 188.821 294.076 188.412 294.076 188.373Z" fill="#263238"/>
<path d="M273.884 231.255L280.99 248.43L284.114 235.234C284.79 232.702 286.01 230.319 287.82 228.416C288.449 227.755 289.134 227.15 289.858 226.591L295.429 252.055C295.429 252.055 290.731 266.556 279.495 266.886C276.229 266.981 271.272 264.92 269.714 261.287C268.943 259.494 258.957 235.839 258.957 235.839L273.884 231.255Z" fill="#E0E0E0"/>
<path d="M276.906 244.985L277.315 242.445L268.966 235.367L267.479 237.035L262.719 242.484L280.706 257.064L285.05 251.85L276.906 244.985Z" fill="#263238"/>
<path d="M344.357 276.803C344.593 273.256 340.297 232.772 340.297 232.772L331.082 219.168L313.511 216.069C313.244 218.208 311.867 223.8 304.62 225.86C300.89 226.922 296.837 223.202 296.837 223.202L289.858 226.591L292.51 245.559L295.933 267.209L344.538 281.018C344.538 281.01 344.121 280.349 344.357 276.803Z" fill="#E0E0E0"/>
<path d="M298.112 269.442L295.94 243.334L321.356 238.191L344.192 271.982L344.86 283.526L309.734 282.425L298.112 269.442Z" fill="#B688F5"/>
<path d="M291.558 235.517C291.589 235.509 291.684 235.949 291.849 236.744C292.014 237.538 292.219 238.694 292.447 240.125C292.919 242.988 293.438 246.951 293.95 251.339C294.461 255.727 294.933 259.699 295.335 262.561C295.523 263.937 295.689 265.085 295.807 265.958C295.917 266.76 295.964 267.209 295.941 267.209C295.909 267.216 295.815 266.776 295.649 265.982C295.484 265.188 295.28 264.032 295.051 262.6C294.579 259.738 294.06 255.774 293.548 251.386C293.037 246.998 292.565 243.035 292.163 240.165C291.975 238.788 291.809 237.64 291.691 236.767C291.581 235.973 291.526 235.525 291.558 235.517Z" fill="#263238"/>
<path d="M276.914 244.938C276.914 244.938 280.321 245.37 281.525 245.984C282.721 246.605 286.199 248.917 286.199 248.917L293.226 250.246L291.55 261.838L286.852 259.51L276.497 260.54C276.497 260.54 274.246 260.029 274.238 258.417C274.238 258.417 272.421 257.387 272.232 255.381C272.232 255.381 269.462 251.748 269.21 251.04C268.959 250.341 270.367 248.681 270.367 248.681C270.367 248.681 273.326 251.19 275.12 251.575C276.922 251.968 278.543 251.261 278.692 250.105C279.007 247.761 276.914 244.938 276.914 244.938Z" fill="#FFBE9D"/>
<g opacity="0.3">
<path opacity="0.3" d="M295.555 264.936C295.555 264.936 319.13 273.382 327.046 272.886C333.75 272.462 337.047 269.324 337.574 264.936C338.109 260.556 338.841 241.926 338.841 241.926L326.188 263.843L295.429 262.876L295.555 264.936Z" fill="black"/>
</g>
<path d="M333.828 263.748C335.52 258.904 337.385 249.593 337.385 249.593L340.328 234.078C340.399 230.036 339.1 226.057 336.504 222.95C334.576 220.638 331.869 218.665 328.273 218.68C320.64 218.712 320.916 232.772 320.916 232.772L318.838 252.896L288.984 248.036L287.088 262.38L322.198 269.953C325.173 270.653 328.352 270.11 330.807 268.294C332.207 267.256 333.144 265.714 333.828 263.748Z" fill="#E0E0E0"/>
<path d="M329.115 219.931C329.115 220.002 328.509 220.026 327.573 220.277C326.644 220.521 325.393 221.048 324.284 222.007C323.174 222.967 322.474 224.123 322.096 225.004C321.711 225.892 321.593 226.49 321.53 226.474C321.482 226.466 321.498 225.845 321.829 224.894C322.151 223.95 322.852 222.699 324.024 221.693C325.197 220.686 326.534 220.175 327.51 219.994C328.494 219.806 329.115 219.884 329.115 219.931Z" fill="#263238"/>
<path d="M340.328 234.078C340.328 234.078 340.32 234.204 340.281 234.455C340.234 234.715 340.171 235.077 340.092 235.548C339.919 236.524 339.667 237.931 339.337 239.732C338.998 241.549 338.589 243.774 338.117 246.346C337.653 248.925 337.086 251.858 336.339 255.075C335.969 256.687 335.567 258.362 335.095 260.107C334.867 260.98 334.607 261.861 334.332 262.758C334.049 263.646 333.75 264.566 333.309 265.447C332.876 266.328 332.31 267.185 331.562 267.893C330.815 268.608 329.918 269.143 328.958 269.576C327.03 270.417 324.779 270.661 322.6 270.244C314.062 268.412 304.683 266.391 294.839 264.275C292.203 263.709 289.598 263.143 287.041 262.592L286.86 262.553L286.883 262.364C287.537 257.41 288.174 252.613 288.788 248.021L288.811 247.824L289.008 247.855C300.52 249.751 310.749 251.434 318.854 252.77L318.689 252.896C319.358 246.66 319.901 241.635 320.278 238.151C320.475 236.437 320.625 235.1 320.727 234.172C320.782 233.732 320.821 233.394 320.853 233.142C320.884 232.914 320.908 232.796 320.908 232.796C320.908 232.796 320.908 232.914 320.892 233.15C320.869 233.402 320.845 233.748 320.806 234.188C320.719 235.116 320.593 236.453 320.428 238.175C320.082 241.659 319.586 246.692 318.964 252.936L318.949 253.085L318.799 253.061C310.686 251.756 300.457 250.105 288.937 248.249L289.165 248.083C288.56 252.676 287.93 257.473 287.277 262.427L287.12 262.199C289.677 262.75 292.281 263.308 294.917 263.882C304.761 266.005 314.133 268.034 322.663 269.874C324.772 270.283 326.935 270.055 328.8 269.253C329.721 268.844 330.602 268.317 331.31 267.649C332.026 266.981 332.569 266.163 332.994 265.305C333.427 264.456 333.718 263.552 334.009 262.663C334.285 261.775 334.552 260.894 334.781 260.029C335.253 258.299 335.67 256.616 336.047 255.012C336.811 251.803 337.401 248.886 337.881 246.306C338.384 243.743 338.809 241.525 339.163 239.708C339.518 237.915 339.801 236.516 339.99 235.541C340.084 235.077 340.163 234.723 340.218 234.455C340.289 234.204 340.328 234.078 340.328 234.078Z" fill="#263238"/>
<path d="M322.309 258C322.214 258.063 321.325 256.883 320.318 255.366C319.814 254.619 319.381 253.887 319.075 253.415C318.752 252.928 318.382 252.92 318.374 252.865C318.374 252.841 318.469 252.794 318.658 252.826C318.846 252.857 319.09 252.999 319.295 253.234C319.704 253.714 320.145 254.383 320.656 255.145C321.663 256.655 322.403 257.937 322.309 258Z" fill="#263238"/>
<path d="M317.202 239.575C317.202 239.575 311.891 226.12 317.43 219.538C318.728 217.996 320.711 217.21 322.718 217.367C324.465 217.501 326.786 217.839 328.273 218.696C328.273 218.696 323.56 217.855 321.585 219.939C320.137 221.472 316.651 226.473 320.326 238.403L317.202 239.575Z" fill="#B688F5"/>
<path d="M296.035 243.971L290.621 226.23C291.156 224.987 292.746 224.5 293.879 224.704L299.112 243.971H296.035Z" fill="#B688F5"/>
<path d="M278.377 250.238C278.307 250.325 275.372 248.115 271.815 245.308C268.258 242.492 265.441 240.141 265.512 240.055C265.583 239.968 268.518 242.178 272.075 244.993C275.631 247.801 278.448 250.152 278.377 250.238Z" fill="#455A64"/>
<path d="M264.261 240.715L262.648 239.229L263.427 238.277L265.292 239.536L264.261 240.715Z" fill="#455A64"/>
<path d="M249.098 217.516C248.72 216.054 249.57 214.56 251.018 214.135C253.937 213.278 258.461 212.2 259.689 213.325C261.554 215.024 266.008 219.152 266.008 219.152L272.161 231.923L262.191 234.856L259.366 225.144C259.366 225.144 254.834 225.388 255.235 222.958C255.235 222.958 252.969 222.07 253.292 220.694C253.614 219.317 255.479 218.995 255.479 218.995L255.078 216.565L249.129 217.603L249.098 217.516Z" fill="#FFBE9D"/>
<path d="M253.992 220.89H248.98V214.976H253.992C255.629 214.976 256.951 216.298 256.951 217.933C256.951 219.561 255.629 220.89 253.992 220.89Z" fill="#455A64"/>
<path d="M257.816 217.831L250.286 215.889C250.286 215.889 248.264 215.323 249.31 217.509C250.365 219.695 253.52 219.207 254.74 220.505C255.951 221.802 256.644 223.989 261.664 224.799" fill="#FFBE9D"/>
<path d="M261.664 224.791C261.656 224.814 261.302 224.783 260.673 224.681C260.043 224.555 259.122 224.35 258.068 223.847C257.549 223.588 256.998 223.242 256.479 222.785C255.959 222.329 255.503 221.74 255.039 221.15C254.252 219.797 252.395 219.86 250.766 219.113C250.357 218.916 249.963 218.665 249.649 218.334C249.342 217.996 249.121 217.587 248.964 217.194C248.893 216.982 248.83 216.769 248.814 216.541C248.807 216.313 248.862 216.022 249.082 215.842C249.538 215.519 249.995 215.629 250.38 215.716C251.82 216.101 253.134 216.455 254.267 216.762C255.306 217.06 256.18 217.304 256.88 217.501C257.494 217.682 257.832 217.8 257.824 217.823C257.816 217.847 257.47 217.792 256.841 217.65C256.132 217.485 255.251 217.281 254.197 217.037C253.056 216.754 251.734 216.431 250.286 216.077C249.963 215.991 249.546 215.967 249.342 216.14C249.145 216.298 249.208 216.707 249.342 217.06C249.491 217.43 249.672 217.768 249.94 218.059C250.215 218.342 250.561 218.57 250.939 218.743C251.702 219.097 252.544 219.262 253.339 219.514C253.74 219.64 254.134 219.797 254.488 220.041C254.85 220.293 255.102 220.615 255.338 220.914C255.794 221.527 256.219 222.086 256.707 222.534C257.187 222.982 257.698 223.32 258.194 223.588C260.224 224.586 261.696 224.688 261.664 224.791Z" fill="#EB996E"/>
<path d="M261.216 261.484C259.54 261.484 257.816 260.508 256.841 258.881C255.676 256.946 255.558 254.241 256.526 251.984C256.589 251.835 256.66 251.693 256.73 251.559C256.699 251.496 256.675 251.434 256.652 251.378C256.124 250.073 256.038 248.634 255.943 247.25C255.66 242.642 255.393 238.364 255.133 234.078C254.873 229.784 254.606 225.498 254.323 220.882L254.716 220.859C254.999 225.475 255.267 229.768 255.526 234.054C255.786 238.34 256.046 242.618 256.337 247.226C256.416 248.547 256.502 249.908 256.974 251.127C257.58 250.144 258.383 249.483 259.248 249.271C259.901 249.114 260.633 249.263 261.223 249.68C261.79 250.081 262.144 250.663 262.207 251.323C262.278 252.015 262.018 252.707 261.491 253.242C260.964 253.769 260.256 254.052 259.579 253.989C258.391 253.871 257.494 252.975 256.951 252.008C256.927 252.055 256.911 252.102 256.888 252.149C255.967 254.288 256.077 256.86 257.179 258.684C258.328 260.603 260.594 261.554 262.443 260.886C264.276 260.233 265.709 258.016 265.921 255.499C266.094 253.439 265.591 251.205 264.379 248.65C263.875 247.596 263.301 246.566 262.742 245.567C262.168 244.545 261.577 243.491 261.058 242.398C260.688 241.611 260.342 240.762 260.342 239.858C260.342 239.008 260.743 237.939 261.625 237.601C262.042 237.444 262.545 237.53 262.939 237.829C263.332 238.128 263.545 238.584 263.497 239.048L263.104 239.008C263.136 238.686 262.986 238.356 262.695 238.136C262.404 237.915 262.05 237.852 261.758 237.955C261.082 238.214 260.736 239.095 260.736 239.842C260.736 240.668 261.066 241.47 261.412 242.217C261.924 243.294 262.514 244.34 263.08 245.363C263.639 246.369 264.229 247.399 264.733 248.469C265.976 251.087 266.495 253.392 266.315 255.523C266.126 257.772 264.898 260.414 262.577 261.248C262.136 261.413 261.68 261.484 261.216 261.484ZM257.171 251.575C257.738 252.723 258.674 253.51 259.626 253.596C260.177 253.651 260.775 253.415 261.216 252.967C261.656 252.519 261.877 251.937 261.821 251.371C261.766 250.828 261.475 250.34 261.003 250.01C260.507 249.664 259.886 249.53 259.351 249.664C258.509 249.853 257.738 250.545 257.171 251.575Z" fill="#455A64"/>
<path d="M307.02 333.816L325.212 327.596C325.212 327.596 337.645 343.992 341.123 343.166L330.327 307.48L301.582 316.004L307.02 333.816Z" fill="#455A64"/>
<path d="M320.333 317.026C320.31 316.279 320.947 315.564 321.695 315.517C322.442 315.469 323.174 316.106 323.206 316.853C323.237 317.6 322.505 318.481 321.758 318.442C321.01 318.41 320.192 317.616 320.341 316.877" fill="#E0E0E0"/>
<path d="M331.074 307.228L328.289 308.054L338.888 342.309C338.888 342.309 340.06 343.685 341.123 343.174L331.074 307.228Z" fill="#E0E0E0"/>
<path d="M325.212 328.233C325.385 328.178 325.196 327.281 325.503 326.251C325.779 325.213 326.4 324.545 326.282 324.403C326.204 324.254 325.236 324.828 324.89 326.078C324.536 327.32 325.063 328.311 325.212 328.233Z" fill="#263238"/>
<path d="M327.895 331.504C328.076 331.496 328.147 330.647 328.706 329.837C329.241 329.003 329.996 328.618 329.933 328.445C329.91 328.272 328.855 328.461 328.179 329.491C327.486 330.505 327.722 331.551 327.895 331.504Z" fill="#263238"/>
<path d="M333.018 332.275C333.01 332.102 332.066 332.125 331.24 332.864C330.413 333.596 330.287 334.532 330.453 334.563C330.626 334.618 330.98 333.934 331.657 333.336C332.333 332.723 333.049 332.456 333.018 332.275Z" fill="#263238"/>
<path d="M320.908 329.184C321.042 329.066 320.562 328.335 320.334 327.328C320.082 326.329 320.184 325.464 320.003 325.417C319.846 325.354 319.429 326.298 319.72 327.478C319.995 328.665 320.798 329.31 320.908 329.184Z" fill="#263238"/>
<path d="M304.808 285.327C304.108 285.13 273.294 318.167 272.594 323.624C271.893 329.082 273.011 333.839 276.654 336.922C280.297 340.005 321.75 329.923 321.75 329.923L317.831 312.567L332.813 307.527L319.421 283.031L304.808 285.327Z" fill="#B688F5"/>
<g opacity="0.3">
<path opacity="0.3" d="M297.522 292.648L296.539 293.71C296.539 293.71 314.196 312.229 319.618 311.97L328.289 309.037L298.954 291.044L297.522 292.648Z" fill="black"/>
</g>
<path d="M317.942 313.024C317.973 313.134 311.544 315.116 303.589 317.451C295.626 319.787 289.15 321.595 289.118 321.485C289.087 321.375 295.516 319.394 303.479 317.058C311.426 314.722 317.902 312.914 317.942 313.024Z" fill="#263238"/>
<path d="M279.455 314.935L285.443 333.926C285.443 333.926 268.14 346.39 268.911 350L306.17 339.714L298.049 309.744L279.455 314.935Z" fill="#455A64"/>
<path d="M296.523 329.129C297.302 329.129 298.018 329.798 298.057 330.576C298.089 331.347 297.412 332.094 296.641 332.102C295.862 332.117 294.973 331.339 295.028 330.56C295.083 329.79 295.925 328.964 296.68 329.129" fill="#E0E0E0"/>
<path d="M306.406 340.492L305.619 337.591L269.855 347.704C269.855 347.704 268.4 348.883 268.903 350L306.406 340.492Z" fill="#E0E0E0"/>
<path d="M284.79 333.895C284.846 334.076 285.782 333.903 286.836 334.241C287.899 334.547 288.583 335.208 288.725 335.09C288.882 335.011 288.308 333.997 287.025 333.612C285.743 333.218 284.704 333.745 284.79 333.895Z" fill="#263238"/>
<path d="M281.328 336.592C281.336 336.781 282.209 336.875 283.036 337.473C283.885 338.047 284.271 338.833 284.452 338.778C284.633 338.762 284.46 337.661 283.413 336.938C282.375 336.199 281.281 336.419 281.328 336.592Z" fill="#263238"/>
<path d="M280.4 341.876C280.573 341.869 280.581 340.893 279.833 340.028C279.093 339.156 278.133 338.998 278.094 339.171C278.031 339.352 278.731 339.73 279.329 340.453C279.951 341.161 280.219 341.908 280.4 341.876Z" fill="#263238"/>
<path d="M283.909 329.421C284.027 329.563 284.798 329.083 285.845 328.87C286.891 328.634 287.781 328.76 287.836 328.579C287.907 328.422 286.939 327.957 285.703 328.233C284.468 328.485 283.775 329.303 283.909 329.421Z" fill="#263238"/>
<g opacity="0.3">
<path opacity="0.3" d="M306.43 333.383L304.14 324.379L305.847 323.585L295.429 295.235L293.438 296.966L301.63 322.932L304.557 333.777L306.43 333.383Z" fill="black"/>
</g>
<path d="M281.84 263.19C277.756 262.349 273.451 263.198 270.115 265.699C267.322 267.798 264.985 271.164 265.74 276.449C267.424 288.205 282.453 328.343 282.453 328.343L303.258 322.091C303.376 322.052 303.494 321.713 303.431 321.816C303.258 322.091 292.879 288.653 293.139 289.047C293.422 289.463 314.133 306.166 322.741 309.241C331.586 312.403 340.336 308.62 344.546 302.738C346.56 299.915 346.702 287.545 344.546 281.002C344.546 281.002 284.507 263.992 283.39 263.575C283.075 263.465 282.5 263.332 281.84 263.19Z" fill="#B688F5"/>
<path d="M280.99 275.426C287.647 279.862 292.226 287.293 293.186 295.228L280.99 275.426Z" fill="#B688F5"/>
<path d="M345.356 302.337C345.356 302.337 345.277 302.47 345.104 302.73C344.947 302.997 344.648 303.351 344.262 303.831C343.452 304.743 342.146 306.017 340.163 307.26C338.188 308.494 335.536 309.776 332.2 310.287C330.539 310.531 328.714 310.641 326.81 310.358C324.913 310.106 322.907 309.595 320.995 308.612C320.011 308.187 319.067 307.621 318.067 307.118C317.107 306.544 316.1 305.993 315.109 305.364C313.118 304.13 311.064 302.793 308.987 301.338C304.809 298.444 300.433 295.181 295.893 291.571C295.327 291.115 294.76 290.659 294.194 290.195L293.344 289.487L293.116 289.283L293.005 289.172C293.076 289.196 292.809 289.078 293.155 289.22C293.422 288.937 293.234 289.078 293.289 289.047L293.304 289.11L293.454 289.636C293.895 291.06 294.335 292.499 294.792 293.954C295.712 296.863 296.656 299.852 297.624 302.903C299.568 309.005 301.606 315.367 303.707 321.957L303.77 322.146L303.581 322.201C296.814 324.238 289.756 326.361 282.508 328.539L282.327 328.594L282.265 328.414C280.927 324.812 279.526 320.982 278.133 317.089C275.112 308.644 272.248 300.363 269.714 292.294C268.447 288.26 267.267 284.273 266.322 280.302C266.212 279.807 266.079 279.311 265.976 278.816C265.882 278.312 265.795 277.817 265.701 277.322C265.488 276.339 265.402 275.316 265.41 274.31C265.418 272.289 266 270.283 267.078 268.624C269.273 265.298 272.979 263.347 276.646 262.844C278.495 262.577 280.352 262.679 282.115 263.08C282.556 263.19 282.996 263.3 283.429 263.41C283.854 263.536 284.279 263.662 284.696 263.788C285.538 264.039 286.372 264.291 287.198 264.535C293.824 266.509 299.993 268.349 305.627 270.032C316.879 273.405 325.991 276.134 332.302 278.021C335.442 278.973 337.881 279.712 339.549 280.215C340.367 280.467 340.997 280.664 341.43 280.797C341.855 280.931 342.067 281.01 342.067 281.01C342.067 281.01 341.847 280.955 341.422 280.837C340.981 280.711 340.352 280.53 339.525 280.294C337.849 279.807 335.402 279.091 332.255 278.179C325.936 276.315 316.808 273.633 305.532 270.307C299.891 268.64 293.714 266.815 287.08 264.857C286.254 264.613 285.412 264.362 284.57 264.118C284.145 263.992 283.728 263.866 283.303 263.741C282.878 263.638 282.453 263.528 282.028 263.426C280.313 263.041 278.488 262.946 276.686 263.206C273.105 263.701 269.501 265.62 267.385 268.836C266.346 270.441 265.78 272.359 265.78 274.318C265.78 275.3 265.858 276.283 266.071 277.266C266.165 277.762 266.252 278.249 266.346 278.745C266.44 279.24 266.574 279.728 266.692 280.223C267.637 284.171 268.817 288.15 270.084 292.184C272.617 300.245 275.49 308.518 278.503 316.964C279.896 320.848 281.289 324.686 282.634 328.28L282.383 328.154C289.63 325.976 296.688 323.86 303.455 321.831L303.321 322.083C301.228 315.493 299.206 309.123 297.262 303.021C296.302 299.97 295.358 296.981 294.445 294.064C293.997 292.601 293.556 291.162 293.116 289.739L292.966 289.196L292.95 289.117C293.013 289.07 292.801 289.18 293.084 288.882C293.454 289.039 293.202 288.937 293.289 288.976L293.383 289.055L293.572 289.22L294.414 289.927C294.98 290.391 295.547 290.847 296.114 291.304C300.638 294.913 305.005 298.192 309.168 301.094C311.245 302.557 313.283 303.894 315.266 305.136C316.25 305.765 317.249 306.316 318.209 306.89C319.2 307.401 320.137 307.967 321.113 308.384C323.001 309.367 324.968 309.87 326.849 310.138C328.73 310.421 330.531 310.326 332.176 310.091C335.481 309.603 338.125 308.353 340.092 307.142C342.075 305.923 343.389 304.664 344.207 303.776C344.601 303.312 344.9 302.966 345.073 302.706C345.254 302.463 345.356 302.337 345.356 302.337Z" fill="#263238"/>
<path d="M283.626 279.854C283.65 279.806 284.334 280.137 285.357 280.789C286.38 281.442 287.741 282.449 289.087 283.73C290.432 285.012 291.495 286.333 292.171 287.34C292.848 288.347 293.171 289.031 293.131 289.054C293.076 289.086 292.667 288.457 291.935 287.505C291.203 286.546 290.125 285.288 288.804 284.021C287.474 282.755 286.167 281.733 285.192 281.025C284.216 280.318 283.594 279.909 283.626 279.854Z" fill="#263238"/>
<path d="M290.723 277.542C290.771 277.518 291.085 278.108 291.479 279.107C291.872 280.105 292.344 281.513 292.698 283.117C293.053 284.714 293.234 286.192 293.297 287.262C293.359 288.331 293.328 288.999 293.273 288.999C293.147 289.007 293.013 286.365 292.305 283.204C291.605 280.035 290.605 277.589 290.723 277.542Z" fill="#263238"/>
<path d="M336.732 276.716L344.341 274.522L349.298 275.426L351.659 283.715C353.98 291.044 353.485 295.251 348.629 298.467C347.205 299.411 345.852 299.922 344.868 299.513C341.422 298.059 336.732 276.716 336.732 276.716Z" fill="#455A64"/>
<path d="M344.341 274.53L295.83 266.556L295.94 267.201L344.341 281.67V274.53Z" fill="#455A64"/>
<path d="M41.5673 312.253L36.7988 328.988C36.7988 328.988 51.9934 339.517 51.4111 342.694L19.0391 334.492L25.4127 308.109L41.5673 312.253Z" fill="#455A64"/>
<path d="M27.136 325.032C26.4671 325.048 25.8613 325.653 25.8455 326.329C25.8298 327.006 26.4357 327.643 27.1045 327.635C27.7734 327.635 28.5288 326.927 28.4658 326.251C28.4029 325.574 27.6553 324.875 27.0101 325.04" fill="#E0E0E0"/>
<g opacity="0.6">
<g opacity="0.6">
<g opacity="0.6">
<g opacity="0.6">
<g opacity="0.6">
<g opacity="0.6">
<g opacity="0.6">
<g opacity="0.6">
<g opacity="0.6">
<g opacity="0.6">
<g opacity="0.6">
<path opacity="0.6" d="M19.0312 334.492L19.7788 331.858L50.5456 340.705C50.5456 340.705 51.8282 341.703 51.4112 342.694L19.0312 334.492Z" fill="white"/>
</g>
</g>
</g>
</g>
</g>
</g>
</g>
</g>
</g>
</g>
</g>
<path d="M37.3576 328.948C37.3104 329.106 36.5078 328.98 35.6029 329.294C34.6901 329.586 34.1157 330.184 33.9898 330.081C33.8482 330.01 34.3203 329.113 35.4298 328.751C36.5235 328.382 37.4285 328.814 37.3576 328.948Z" fill="#263238"/>
<path d="M40.4029 331.237C40.4029 331.402 39.6475 331.496 38.9472 332.039C38.2311 332.558 37.9085 333.258 37.759 333.21C37.6016 333.195 37.7275 332.235 38.6167 331.575C39.4901 330.914 40.4422 331.079 40.4029 331.237Z" fill="#263238"/>
<path d="M41.3155 335.837C41.166 335.837 41.1424 334.98 41.764 334.209C42.3778 333.431 43.2119 333.273 43.2434 333.423C43.2984 333.58 42.7004 333.926 42.2047 334.571C41.6932 335.2 41.4808 335.861 41.3155 335.837Z" fill="#263238"/>
<path d="M38.0343 325.017C37.932 325.143 37.2632 324.741 36.3504 324.576C35.4455 324.395 34.6744 324.521 34.6272 324.364C34.5642 324.222 35.3904 323.805 36.4606 324.01C37.5229 324.214 38.1366 324.907 38.0343 325.017Z" fill="#263238"/>
<path d="M30.2127 316.193L29.4651 333.596C29.4651 333.596 46.682 340.217 46.8472 343.442L13.4758 343.182L13.5466 316.02L30.2127 316.193Z" fill="#455A64"/>
<path d="M19.1571 332.047C18.5119 332.22 18.0555 332.951 18.205 333.611C18.3467 334.272 19.0785 334.744 19.7316 334.587C20.3847 334.421 20.9512 333.564 20.7309 332.919C20.5106 332.275 19.6293 331.771 19.0312 332.086" fill="#E0E0E0"/>
<g opacity="0.6">
<g opacity="0.6">
<g opacity="0.6">
<g opacity="0.6">
<g opacity="0.6">
<g opacity="0.6">
<g opacity="0.6">
<g opacity="0.6">
<g opacity="0.6">
<g opacity="0.6">
<g opacity="0.6">
<path opacity="0.6" d="M13.4758 343.174L13.586 340.437L45.541 341.711C45.541 341.711 47.0203 342.38 46.8472 343.434L13.4758 343.174Z" fill="white"/>
</g>
</g>
</g>
</g>
</g>
</g>
</g>
</g>
</g>
</g>
</g>
<path d="M30.0082 333.423C30.0003 333.588 29.1898 333.659 28.3793 334.178C27.561 334.681 27.1439 335.389 26.9944 335.326C26.8449 335.294 27.0967 334.311 28.0803 333.69C29.0639 333.069 30.0475 333.273 30.0082 333.423Z" fill="#263238"/>
<path d="M33.4938 334.917C33.5332 335.074 32.825 335.349 32.2663 336.049C31.684 336.726 31.5424 337.481 31.3771 337.473C31.2276 337.496 31.1175 336.529 31.8335 335.68C32.5338 334.823 33.4938 334.76 33.4938 334.917Z" fill="#263238"/>
<path d="M35.4533 339.179C35.3038 339.211 35.0835 338.385 35.5084 337.489C35.9254 336.584 36.6966 336.238 36.7674 336.372C36.8618 336.506 36.3582 336.993 36.0199 337.732C35.6658 338.464 35.6107 339.164 35.4533 339.179Z" fill="#263238"/>
<path d="M29.7404 329.444C29.6696 329.594 28.9221 329.357 28.0015 329.413C27.0808 329.452 26.3569 329.759 26.2782 329.617C26.1838 329.499 26.892 328.893 27.9778 328.838C29.0637 328.783 29.827 329.31 29.7404 329.444Z" fill="#263238"/>
<path d="M9.573 188.852V202.614L13.2241 256.223C13.2241 256.223 10.95 282.229 9.55727 296.903C8.34548 309.65 10.3284 331.85 10.3284 331.85H31.574L39.1752 257.811L43.8886 211.634L52.0879 190.622L9.573 188.852Z" fill="#263238"/>
<path d="M61.7506 188.852L63.8044 244.726C63.6627 255.208 60.767 274.781 57.0215 284.556L39.9542 322.028L38.9706 325.402L26.2783 322.295L35.7129 189.796L61.7506 188.852Z" fill="#263238"/>
<path d="M47.0518 203.652C47.0597 203.652 47.0676 203.762 47.0754 203.99C47.0833 204.234 47.0912 204.557 47.099 204.973C47.1069 205.854 47.1148 207.128 47.1305 208.748C47.1384 212.027 47.1226 216.769 47.0282 222.628C46.9181 228.487 46.7449 235.462 46.3279 243.2C45.8715 250.922 45.3522 259.47 43.5345 268.247C41.8585 277.031 40.0722 285.366 38.4906 292.947C36.9011 300.528 35.5162 307.362 34.4697 313.126C33.4232 318.89 32.6835 323.569 32.2507 326.817C32.0068 328.437 31.8809 329.703 31.755 330.552C31.6999 330.961 31.6527 331.284 31.6212 331.528C31.5897 331.748 31.5661 331.858 31.5583 331.858C31.5504 331.858 31.5583 331.748 31.574 331.52C31.5976 331.284 31.6291 330.954 31.6684 330.545C31.7628 329.687 31.8651 328.421 32.0855 326.794C32.471 323.538 33.1714 318.843 34.1786 313.071C35.1858 307.299 36.5392 300.449 38.1129 292.869C39.6788 285.28 41.4493 276.952 43.1253 268.168C44.9351 259.415 45.4623 250.899 45.9423 243.176C46.383 235.446 46.5876 228.471 46.7292 222.62C46.863 216.761 46.9259 212.027 46.9653 208.748C46.981 207.128 46.9967 205.862 47.0125 204.973C47.0204 204.557 47.0282 204.234 47.0282 203.99C47.0361 203.77 47.044 203.652 47.0518 203.652Z" fill="#455A64"/>
<path d="M73.7977 174.579C73.7977 174.579 74.2698 176.144 74.1124 177.796C73.9551 179.439 73.8764 183.497 69.4856 184.881C65.0949 186.265 60.9559 182.97 59.6103 181.484C58.2648 179.998 58.4222 175.138 58.4222 175.138L65.6378 171.921L73.7977 174.579Z" fill="#B688F5"/>
<path d="M23.9176 112.659L20.2586 118.525L5.45752 124.824L9.1637 185.542L11.8233 196.543L61.1053 194.908L62.325 186.383V145.436C61.2076 134.929 56.1323 128.402 51.4268 125.815L48.3422 123.708L47.1776 119.846L42.8341 115.781L28.9143 112.171L23.9176 112.659Z" fill="#B688F5"/>
<g opacity="0.3">
<g opacity="0.3">
<path opacity="0.3" d="M7.5271 180.918C10.6195 185.77 16.7414 188.491 22.4226 187.539C27.3721 186.705 31.5504 183.442 36.2953 181.806C44.5496 178.967 53.9685 181.224 62.1048 178.063C62.2621 176.663 62.1677 174.941 62.2621 173.989C58.1861 173.777 53.8504 173.557 50.2544 171.63L46.9889 170.427L7.5271 180.918Z" fill="black"/>
</g>
</g>
<path d="M5.45751 124.824C5.45751 124.824 -1.56928 130.84 0.468727 146.497C2.35723 161.045 5.70931 181.319 10.1788 183.67C14.6482 186.021 24.2953 184.85 31.3536 180.847C38.4118 176.844 58.8863 166.031 58.8863 166.031L50.4117 150.98L23.115 161.565C23.115 161.565 19.5819 137.43 17.4652 133.27" fill="#B688F5"/>
<path d="M17.481 133.27C17.481 133.27 17.5597 133.419 17.6935 133.734C17.7564 133.891 17.8509 134.08 17.9374 134.308C18.0161 134.544 18.1027 134.819 18.205 135.134C18.6063 136.384 19.0863 138.264 19.6056 140.701C20.66 145.577 21.9269 152.694 23.2724 161.549L23.0757 161.431C30.7871 158.427 40.0722 154.809 50.3567 150.807L50.5062 150.744L50.5849 150.885C53.2681 155.643 56.1166 160.699 59.0674 165.929L59.1697 166.11L58.9887 166.204C53.3625 169.232 47.5003 172.393 41.4886 175.625C38.5929 177.182 35.7287 178.724 32.9038 180.241C31.4953 180.996 30.0946 181.783 28.6311 182.412C27.1675 183.033 25.6724 183.536 24.1695 183.953C21.1557 184.747 18.0791 185.188 15.0653 185.007C13.5624 184.912 12.0673 184.669 10.6903 184.087L10.1788 183.859C10.0057 183.78 9.84835 183.654 9.69097 183.552C9.39196 183.308 9.12442 183.041 8.89623 182.75C8.43984 182.168 8.06214 181.539 7.73952 180.894C6.45691 178.307 5.70152 175.609 5.0012 172.999C4.31662 170.38 3.77367 167.808 3.27794 165.323C2.31008 160.338 1.59403 155.667 0.996002 151.396C0.397977 147.134 -0.129229 143.234 0.0281462 139.797C0.146177 136.361 0.75994 133.435 1.57829 131.155C2.40451 128.874 3.40384 127.262 4.16711 126.24C4.54481 125.729 4.8753 125.367 5.10349 125.139C5.33168 124.911 5.46545 124.808 5.46545 124.808C5.46545 124.808 5.34742 124.926 5.1271 125.17C4.91464 125.414 4.59202 125.776 4.23006 126.295C3.4904 127.317 2.53041 128.937 1.7278 131.21C0.940921 133.482 0.350765 136.392 0.25634 139.805C0.122571 143.226 0.665515 147.095 1.27928 151.357C1.89304 155.619 2.6327 160.291 3.60843 165.261C4.10416 167.746 4.65497 170.309 5.33955 172.912C6.03987 175.507 6.80314 178.197 8.06214 180.729C8.37689 181.358 8.74672 181.964 9.1795 182.514C9.39983 182.789 9.64376 183.033 9.9113 183.253C10.0608 183.34 10.1867 183.45 10.3441 183.521L10.8319 183.741C12.146 184.299 13.6096 184.535 15.0811 184.622C18.0397 184.795 21.0771 184.354 24.0593 183.568C25.5465 183.151 27.018 182.656 28.4658 182.042C29.9058 181.421 31.2828 180.642 32.6992 179.887C35.5241 178.37 38.3883 176.828 41.284 175.263C47.2957 172.031 53.1658 168.878 58.7998 165.842L58.7212 166.118C55.7782 160.88 52.9376 155.824 50.2622 151.058L50.4983 151.145C40.206 155.116 30.913 158.71 23.1859 161.69L23.0128 161.753L22.9892 161.572C21.6829 152.718 20.4554 145.601 19.4561 140.717C18.9604 138.272 18.5118 136.392 18.1341 135.142C18.0397 134.827 17.961 134.552 17.8902 134.316C17.8037 134.088 17.725 133.891 17.6699 133.734C17.5282 133.435 17.481 133.27 17.481 133.27Z" fill="#263238"/>
<path d="M19.8337 142.188L37.5542 141.024L41.4807 148.392L21.6042 151.963L19.8337 142.188Z" fill="#B688F5"/>
<path d="M19.8338 142.188C19.8495 142.196 19.9046 142.439 19.9912 142.895C20.0935 143.383 20.2194 144.036 20.3846 144.861C20.7151 146.584 21.1872 148.99 21.7538 151.939L21.5728 151.813C26.357 150.94 32.6127 149.8 39.4585 148.55C40.1273 148.432 40.7804 148.314 41.4335 148.196L41.2919 148.495C39.9149 145.9 38.6008 143.422 37.3811 141.118L37.5621 141.22C32.4159 141.519 28.0252 141.779 24.8619 141.96C23.3197 142.038 22.0764 142.101 21.1794 142.148C20.7781 142.164 20.4476 142.18 20.1879 142.188C19.9597 142.196 19.8417 142.196 19.8338 142.188C19.8259 142.18 19.9282 142.164 20.1407 142.148C20.3925 142.125 20.7072 142.101 21.0928 142.062C21.982 141.991 23.2016 141.897 24.7203 141.771C27.915 141.535 32.353 141.213 37.5464 140.835L37.6723 140.827L37.7273 140.937C38.9549 143.234 40.2768 145.711 41.6617 148.298L41.7955 148.542L41.5201 148.589C40.867 148.707 40.206 148.825 39.545 148.943C32.6992 150.154 26.4278 151.263 21.6436 152.112L21.4862 152.136L21.4626 151.986C20.9512 148.982 20.5341 146.529 20.2351 144.775C20.1013 143.965 19.999 143.32 19.9204 142.833C19.8495 142.408 19.8181 142.18 19.8338 142.188Z" fill="#263238"/>
<path d="M23.123 161.564C23.2331 161.651 21.6437 163.515 20.3217 166.181C19.0076 168.846 18.4332 171.229 18.2994 171.19C18.2522 171.174 18.3388 170.569 18.5906 169.617C18.8424 168.666 19.283 167.36 19.9519 166C20.6286 164.639 21.4076 163.507 22.0214 162.736C22.6509 161.958 23.0836 161.533 23.123 161.564Z" fill="#263238"/>
<path d="M40.9299 127.812C40.9141 127.836 40.56 127.584 39.9463 127.105C39.2774 126.57 38.4119 125.886 37.3732 125.068L37.6014 125.037C36.7752 126.381 35.6106 127.938 34.0841 129.448L33.9582 129.574L33.8165 129.456C32.9588 128.748 32.0461 127.986 31.1018 127.199C28.1904 124.816 25.4678 122.764 23.4849 121.301C22.5406 120.609 21.7537 120.027 21.1321 119.571C20.5734 119.162 20.2744 118.926 20.2901 118.903C20.3059 118.879 20.6364 119.076 21.2187 119.445C21.8009 119.815 22.635 120.365 23.6501 121.073C25.6802 122.481 28.4343 124.51 31.3536 126.892C32.3057 127.671 33.2264 128.442 34.0683 129.165L33.8008 129.173C35.3116 127.702 36.484 126.185 37.3417 124.879L37.4361 124.73L37.562 124.84C38.5614 125.705 39.3955 126.421 40.0486 126.987C40.6387 127.49 40.9535 127.789 40.9299 127.812Z" fill="#263238"/>
<path d="M48.2241 124.085C48.2635 124.085 48.3264 124.439 48.3658 125.076C48.4051 125.705 48.4051 126.617 48.2792 127.702L48.2241 128.166L47.9566 127.773C47.39 126.947 46.674 125.996 45.8478 125.044C45.533 124.675 45.2104 124.329 44.8956 123.998C44.7461 123.841 44.573 123.652 44.4393 123.534C44.2819 123.44 44.2976 123.432 44.1639 123.582C43.6917 124.234 43.2589 124.848 42.8576 125.406C42.1022 126.436 41.6144 127.065 41.5672 127.034C41.52 127.002 41.9291 126.318 42.6216 125.249C42.9993 124.675 43.4163 124.046 43.8648 123.369C43.9278 123.283 44.0301 123.141 44.2268 123.102C44.4235 123.063 44.5809 123.165 44.6832 123.244C44.8878 123.417 45.0137 123.566 45.1868 123.739C45.5094 124.069 45.832 124.423 46.1546 124.793C46.9887 125.76 47.6969 126.735 48.2477 127.592L47.9251 127.663C48.2399 125.532 48.1297 124.085 48.2241 124.085Z" fill="#263238"/>
<path d="M16.6706 130.887C16.6155 130.919 16.23 130.4 15.569 129.582C14.908 128.78 13.9638 127.663 12.6654 126.767C11.3592 125.878 9.95856 125.485 8.93562 125.312C7.90481 125.147 7.25171 125.123 7.25171 125.052C7.25171 125.013 7.90481 124.926 8.97496 125.021C10.0294 125.123 11.5244 125.493 12.8936 126.428C14.2549 127.364 15.1913 128.544 15.7972 129.401C16.4031 130.274 16.7099 130.856 16.6706 130.887Z" fill="#263238"/>
<path d="M55.1881 141.763C55.078 141.795 54.4485 140.104 53.7875 137.988C53.1187 135.865 52.6701 134.127 52.7803 134.088C52.8905 134.057 53.5121 135.747 54.1809 137.863C54.8419 139.978 55.2904 141.724 55.1881 141.763Z" fill="#263238"/>
<path d="M62.1598 176.443C62.2228 176.443 62.2543 177.041 62.3172 178C62.3802 178.959 62.4825 180.281 62.5533 181.751C62.6162 183.222 62.5926 184.566 62.4746 185.534C62.3644 186.501 62.1913 187.075 62.1362 187.067C62.0733 187.051 62.1441 186.469 62.1834 185.51C62.2228 184.559 62.2071 183.237 62.1441 181.767C62.0812 180.304 62.0182 178.975 62.0339 178.008C62.0339 177.041 62.1048 176.443 62.1598 176.443Z" fill="#263238"/>
<path d="M29.9923 147.354C29.5517 147.811 29.7641 148.699 30.3621 148.911C30.9602 149.124 31.6841 148.573 31.6369 147.936C31.5897 147.307 30.787 146.867 30.2284 147.174" fill="#E0E0E0"/>
<g opacity="0.3">
<path opacity="0.3" d="M18.6455 136.887L23.6186 151.601L40.017 148.66L24.2087 154.849L22.8868 159.952L18.6455 136.887Z" fill="black"/>
</g>
<g opacity="0.3">
<path opacity="0.3" d="M20.7151 119.178L35.3746 132.452L37.6408 126.256L40.0171 127.042L37.4755 124.942C37.4755 124.942 34.69 129.22 33.9425 129.291L20.7151 119.178Z" fill="black"/>
</g>
<path d="M48.6414 150.917C48.6177 150.925 48.5076 150.602 48.3423 150.028C48.1535 149.368 47.9253 148.542 47.6499 147.567C47.0676 145.491 46.2256 142.628 45.1948 139.506C44.1562 136.384 43.1254 133.585 42.3542 131.571C41.9923 130.628 41.6854 129.826 41.4414 129.181C41.229 128.615 41.1267 128.3 41.1503 128.284C41.1739 128.276 41.3313 128.567 41.591 129.118C41.8506 129.661 42.2047 130.463 42.6218 131.461C43.4637 133.451 44.5417 136.243 45.5804 139.372C46.6191 142.502 47.4138 145.388 47.9253 147.488C48.185 148.534 48.3738 149.391 48.4918 149.981C48.6177 150.586 48.665 150.917 48.6414 150.917Z" fill="#263238"/>
<path d="M48.4209 134.568C51.1907 137.336 58.2175 144.531 58.2175 144.531L60.0981 143.399L50.1992 132.845C49.7822 132.405 49.1134 132.326 48.6098 132.657C47.9645 133.089 47.8701 134.009 48.4209 134.568Z" fill="#263238"/>
<path d="M50.4194 150.98L52.7801 144.342C53.2994 142.888 54.6371 141.802 56.1794 141.795C56.2974 141.795 56.4233 141.802 56.5413 141.81C57.9498 141.968 65.1655 142.439 65.1655 142.439L67.9589 145.569C68.4389 146.104 68.4467 146.906 67.9904 147.457L68.793 153.103L67.2035 154.172L67.3609 158.12C67.3609 158.12 65.9523 159.064 65.3228 158.749C64.6933 158.435 64.6933 158.435 64.6933 158.435L63.7491 157.491L61.0816 161.25L57.3911 163.381L50.4194 150.98Z" fill="#FFBE9D"/>
<path d="M67.9983 147.756C67.9353 147.787 67.6914 147.252 66.9911 146.655C66.6449 146.371 66.1806 146.041 65.6455 145.845C65.1026 145.664 64.4101 145.656 63.6941 145.577C60.8377 145.31 58.5322 145.003 58.5401 144.885C58.5479 144.775 60.8771 144.901 63.7256 145.168C64.4338 145.247 65.1262 145.255 65.7636 145.483C66.3852 145.734 66.8337 146.104 67.1799 146.434C67.8803 147.134 68.0455 147.748 67.9983 147.756Z" fill="#EB996E"/>
<path d="M67.8408 152.946C67.7699 152.954 67.7385 152.332 67.2585 151.499C66.8021 150.673 65.8185 149.698 64.4651 149.163C63.1038 148.628 61.7425 148.565 60.7746 148.542C59.7989 148.526 59.193 148.55 59.1851 148.487C59.1773 148.44 59.7753 148.306 60.7668 148.251C61.7504 148.196 63.1667 148.212 64.6146 148.778C66.0703 149.352 67.0854 150.445 67.5103 151.357C67.9588 152.293 67.8801 152.954 67.8408 152.946Z" fill="#EB996E"/>
<path d="M67.1327 157.79C67.0776 157.821 66.8258 157.216 66.755 156.233C66.6999 155.745 66.6527 155.171 66.4009 154.613C66.1648 154.039 65.6298 153.653 64.9216 153.488C63.5052 153.111 62.1439 153.087 61.1682 152.946C60.1846 152.828 59.5944 152.631 59.6102 152.584C59.6259 152.529 60.2161 152.615 61.1918 152.655C62.1596 152.725 63.5367 152.694 65.0317 153.087C65.4016 153.189 65.7793 153.331 66.0861 153.575C66.4009 153.811 66.6133 154.141 66.7471 154.455C67.0147 155.1 67.0225 155.714 67.0461 156.201C67.0461 157.192 67.1799 157.766 67.1327 157.79Z" fill="#EB996E"/>
<path d="M71.0671 145.325L39.9541 177.442L41.1502 178.653L63.4423 176.144L93.438 147.59L93.4065 146.214L71.0671 145.325Z" fill="#455A64"/>
<g opacity="0.3">
<g opacity="0.3">
<path opacity="0.3" d="M73.0814 165.504C71.909 164.372 70.2093 163.869 68.5884 164.002C66.9674 164.136 65.4251 164.852 64.1583 165.874C63.1353 166.692 62.2462 167.753 61.955 169.027C61.4357 171.253 62.915 173.581 64.9294 174.658L65.2127 174.336C67.77 172.283 70.3195 170.238 72.8768 168.186C73.2624 167.879 73.6637 167.533 73.766 167.054C73.8762 166.48 73.5063 165.913 73.0814 165.504Z" fill="black"/>
</g>
</g>
<path d="M69.7924 162.508C69.7924 162.508 72.814 162.563 73.7898 163.059C74.7734 163.546 77.4723 166.432 77.4723 166.432C77.4723 166.432 77.4723 168.39 76.6855 168.469C76.6855 168.469 76.7642 168.705 76.8428 169.798C76.9215 170.899 77.0789 171.52 75.5917 172.464C75.5917 172.464 75.7491 174.265 75.1983 174.736C74.6475 175.208 74.018 175.602 74.018 175.602C74.018 175.602 72.2947 177.717 71.2718 177.56C70.2488 177.402 68.7774 178.661 68.7774 178.661C68.7774 178.661 63.2378 176.364 63.8201 175.712C64.4023 175.059 65.7322 173.58 65.7322 173.58C65.7322 173.58 61.9316 170.812 62.0102 169.955C62.0889 169.09 62.4037 169.012 62.4037 169.012C62.4037 169.012 62.2463 167.368 63.584 167.211C63.584 167.211 64.6069 165.174 65.622 165.095C66.6449 165.017 73.5458 167.525 73.5458 167.525L70.957 165.331C70.957 165.331 68.3682 164.938 68.4469 164.081C68.5413 163.208 69.7924 162.508 69.7924 162.508Z" fill="#FFBE9D"/>
<path d="M69.336 172.833C69.273 172.936 67.7622 172.063 65.8344 171.135C63.9065 170.199 62.2856 169.562 62.3249 169.452C62.3564 169.35 64.056 169.822 66.0075 170.765C67.9668 171.701 69.3989 172.739 69.336 172.833Z" fill="#EB996E"/>
<path d="M72.9321 170.435C72.8928 170.537 70.8784 169.884 68.4312 168.972C65.984 168.06 64.0325 167.234 64.0719 167.132C64.1112 167.03 66.1256 167.683 68.5728 168.595C71.02 169.499 72.9714 170.325 72.9321 170.435Z" fill="#EB996E"/>
<path d="M93.3122 147.527C93.3122 147.535 93.1706 147.543 92.903 147.551C92.5961 147.551 92.2027 147.551 91.7148 147.551C90.6368 147.535 89.1339 147.52 87.2533 147.496C83.3976 147.425 78.0232 147.315 71.744 147.197L71.8856 147.142C69.4778 149.643 66.8417 152.372 64.0877 155.218C57.7848 161.698 52.0878 167.565 47.9252 171.843C45.8636 173.935 44.1876 175.641 42.9915 176.852C42.425 177.418 41.9686 177.866 41.6381 178.197C41.3234 178.503 41.1581 178.653 41.1424 178.645C41.1345 178.637 41.284 178.464 41.5752 178.134C41.8978 177.788 42.3306 177.324 42.8735 176.734C44.046 175.499 45.6905 173.769 47.7128 171.638C51.8518 167.337 57.5251 161.439 63.7886 154.927C66.5427 152.081 69.1866 149.36 71.6023 146.867L71.6653 146.804H71.7518C78.0232 146.985 83.4054 147.142 87.2533 147.252C89.126 147.323 90.6368 147.378 91.707 147.417C92.1948 147.441 92.5883 147.465 92.8951 147.48C93.1784 147.504 93.3122 147.512 93.3122 147.527Z" fill="#263238"/>
<path d="M55.196 83.57C54.3225 82.3904 52.8196 81.8635 51.3718 81.604C50.5377 81.4546 49.6249 81.3838 48.8852 81.7927C47.9174 82.3275 47.5239 83.5542 47.6184 84.6552C47.7049 85.7561 48.1849 86.7785 48.5705 87.8086C48.9561 88.8388 49.2708 89.9633 49.019 91.0407L51.8439 97.7644C52.8117 97.4026 53.5986 96.6005 53.9448 95.6254C54.2911 94.6502 54.1888 93.5336 53.6694 92.6371C54.5586 92.1574 55.2196 91.2609 55.4163 90.27C55.613 89.2792 55.3376 88.2018 54.6924 87.4233C55.975 86.7155 56.0694 84.7496 55.196 83.57Z" fill="#263238"/>
<path d="M29.1347 101.122C29.0246 96.5926 28.9144 92.063 28.8042 87.5255L20.2037 87.1323C19.165 87.3997 18.3073 88.2883 18.0949 89.3421C17.8824 90.3959 18.3152 91.5518 19.1729 92.2046C17.8588 92.7943 16.9854 94.2649 17.0955 95.704C17.2057 97.1431 18.2916 98.4564 19.6844 98.8417C18.8975 99.8168 18.6929 101.217 19.1493 102.38C19.6135 103.544 20.7309 104.417 21.9663 104.582C22.0056 106.187 22.8555 107.917 24.3977 108.357C26.0266 108.821 27.7577 107.626 28.4816 106.1C29.1977 104.582 29.1741 102.813 29.1347 101.122Z" fill="#263238"/>
<path d="M19.9597 85.6382C19.9597 85.6382 20.8095 96.8758 21.9112 100.304C23.0128 103.733 25.4364 107.429 25.4364 107.429L51.6865 99.2821C52.5757 93.2112 53.4885 87.1087 53.1186 82.3275L44.7463 79.347L19.9597 85.6382Z" fill="#263238"/>
<path d="M25.5152 100.312C24.4844 97.2847 23.4614 94.2256 22.9578 91.0643C22.4621 87.903 22.5093 84.5923 23.5795 81.5725C23.7447 81.1164 25.1375 78.0416 25.6253 78.0809C25.9716 78.1124 25.1217 80.9749 25.3027 81.2658C27.0102 84.1047 27.5138 87.5412 27.2935 90.8441C27.0811 94.1469 26.4358 97.1274 25.5152 100.312Z" fill="#263238"/>
<path d="M43.7392 121.365C43.7392 121.365 43.7392 113.752 43.7549 113.752C43.7549 113.752 51.5135 112.856 51.9069 105.157C52.0958 101.437 51.8676 93.7464 51.5843 86.7868C51.2774 79.3082 45.2657 73.3238 37.7825 73.0328L37.0428 73.0013C29.0089 73.1586 24.6496 80.0632 25.0273 88.0844L25.0037 114.161L40.8985 125.611L43.7392 121.365Z" fill="#FFBE9D"/>
<path d="M43.7548 113.752C43.7548 113.752 38.884 113.846 33.8323 110.394C33.8323 110.394 36.0591 116.095 43.7784 115.702L43.7548 113.752Z" fill="#EB996E"/>
<path d="M49.0663 93.3841C49.0663 93.966 48.5706 94.4457 47.9647 94.4536C47.3588 94.4614 46.8631 93.9975 46.8709 93.4155C46.8709 92.8336 47.3667 92.3539 47.9726 92.346C48.5785 92.3382 49.0663 92.8022 49.0663 93.3841Z" fill="#263238"/>
<path d="M49.8059 89.9248C49.6642 90.0664 48.8537 89.4133 47.6656 89.3661C46.4853 89.3031 45.5882 89.8776 45.4702 89.7281C45.4072 89.6651 45.5567 89.4054 45.9502 89.1458C46.3357 88.8861 46.981 88.6422 47.7206 88.6736C48.4603 88.7051 49.0662 89.0041 49.4124 89.2953C49.7665 89.6022 49.8767 89.8618 49.8059 89.9248Z" fill="#263238"/>
<path d="M38.4513 93.565C38.4513 94.1469 37.9556 94.6266 37.3497 94.6345C36.7438 94.6424 36.2481 94.1784 36.256 93.5964C36.256 93.0145 36.7517 92.5348 37.3576 92.527C37.9635 92.5191 38.4513 92.9831 38.4513 93.565Z" fill="#263238"/>
<path d="M38.1916 89.9483C38.05 90.0899 37.2395 89.4368 36.0513 89.3975C34.871 89.3345 33.974 89.909 33.8559 89.7594C33.793 89.6965 33.9425 89.4368 34.3359 89.1772C34.7215 88.9175 35.3667 88.6735 36.1064 88.705C36.8461 88.7365 37.4519 89.0355 37.7982 89.3267C38.1444 89.6257 38.2546 89.8853 38.1916 89.9483Z" fill="#263238"/>
<path d="M42.0789 99.2113C42.0789 99.1405 42.8185 99.0462 44.0146 98.9361C44.3215 98.9203 44.6047 98.8653 44.6677 98.6608C44.7464 98.4485 44.6362 98.1182 44.5024 97.7565C44.2428 97.0173 43.9752 96.2387 43.6998 95.4209C42.5825 92.0945 41.7956 89.3657 41.9294 89.3185C42.0631 89.2713 43.0782 91.9372 44.1877 95.2636C44.4552 96.0815 44.707 96.8679 44.951 97.6149C45.0533 97.9609 45.2342 98.362 45.0611 98.8103C44.9746 99.0304 44.7464 99.1877 44.5497 99.2349C44.3529 99.29 44.1798 99.2821 44.0303 99.29C42.8264 99.3057 42.0789 99.2821 42.0789 99.2113Z" fill="#263238"/>
<path d="M38.5615 99.8955C38.7582 99.8955 38.7032 101.177 39.7733 102.129C40.8356 103.088 42.2126 102.994 42.2126 103.175C42.2284 103.253 41.8979 103.411 41.3156 103.403C40.749 103.403 39.9228 103.183 39.2776 102.601C38.6245 102.019 38.3727 101.256 38.3491 100.729C38.3176 100.194 38.475 99.8797 38.5615 99.8955Z" fill="#263238"/>
<path d="M38.7346 85.8825C38.6087 86.1973 37.4284 86.0005 36.0356 86.1107C34.635 86.1973 33.5019 86.5592 33.3288 86.2602C33.2501 86.1186 33.4626 85.8196 33.9268 85.5284C34.3911 85.2373 35.115 84.9697 35.957 84.9068C36.791 84.8517 37.5543 85.0091 38.05 85.2373C38.5458 85.4655 38.7897 85.733 38.7346 85.8825Z" fill="#263238"/>
<path d="M49.4754 85.9693C49.2551 86.2289 48.4525 85.922 47.4689 85.867C46.4932 85.7804 45.6512 85.9771 45.4703 85.686C45.3916 85.5443 45.5332 85.2847 45.903 85.0407C46.2729 84.8047 46.8788 84.6158 47.5476 84.663C48.2243 84.7103 48.7987 84.9778 49.1292 85.2689C49.4676 85.5601 49.5699 85.8434 49.4754 85.9693Z" fill="#263238"/>
<path d="M25.4285 93.8245C25.3026 93.7616 20.1958 92.0551 20.1565 97.324C20.1171 102.593 25.4207 101.547 25.4364 101.397C25.4443 101.248 25.4285 93.8245 25.4285 93.8245Z" fill="#FFBE9D"/>
<path d="M23.8313 99.3842C23.8077 99.3685 23.7368 99.4471 23.5795 99.5179C23.43 99.5887 23.1703 99.6359 22.8949 99.5258C22.3362 99.3213 21.8798 98.4327 21.8562 97.4811C21.8483 97.0014 21.9506 96.5453 22.1237 96.1679C22.289 95.7825 22.5408 95.5152 22.8241 95.468C23.1073 95.4051 23.3041 95.5781 23.367 95.7275C23.4378 95.8769 23.3985 95.9791 23.43 95.987C23.4457 96.0027 23.5401 95.9005 23.5008 95.6803C23.4772 95.5781 23.4221 95.4522 23.2962 95.35C23.1703 95.2478 22.9814 95.1927 22.7926 95.2085C22.3834 95.2321 22.0136 95.6017 21.8247 96.0184C21.6123 96.4352 21.4864 96.9464 21.4942 97.489C21.5179 98.5506 22.0608 99.5494 22.8162 99.7774C23.186 99.8796 23.5008 99.7695 23.6582 99.6437C23.8234 99.51 23.8549 99.3921 23.8313 99.3842Z" fill="#EB996E"/>
<path d="M48.1535 78.0651C49.0033 77.5933 46.4381 74.8331 44.3371 73.8894C41.166 72.4582 36.3189 71.5774 33.3996 72.411C29.8823 73.4176 26.9551 75.1712 25.2003 78.3718C23.4377 81.5803 22.7768 85.3078 22.8869 88.9646C22.9184 90.0812 23.0364 91.2451 23.6345 92.1809C24.3741 93.3448 25.7905 94.0761 25.7275 95.6882C25.7039 96.278 25.8771 96.8678 26.2784 97.3003C27.2462 98.3226 28.4265 97.3554 28.9695 96.3881C30.1262 94.3199 30.2521 91.8585 30.3465 89.4914C30.4173 87.8086 30.4803 86.0942 30.0081 84.4742C29.7485 83.5935 29.3314 82.7678 29.119 81.8713C28.9065 80.9827 28.9301 79.9682 29.4888 79.2369C29.5754 79.1189 29.7249 78.9695 29.9137 78.8044C31.4088 77.4911 33.494 77.0979 35.3668 77.7584C38.3412 78.8044 43.4165 80.3614 44.7385 79.3548C46.6427 77.9 47.0991 76.9563 47.0991 76.9563L48.1535 78.0651Z" fill="#263238"/>
<path d="M33.2337 66.9534C32.8638 66.9928 23.8384 68.715 21.3676 75.3128C18.9047 81.9106 19.4948 83.9789 19.4948 83.9789C19.4948 83.9789 18.9676 84.2777 18.5348 84.7495C18.1493 85.1742 18.6214 87.2974 19.8017 87.093C28.6855 83.5149 39.0565 83.4756 50.5764 84.2148L59.413 84.4035C61.8759 84.7731 62.7651 84.144 61.7421 83.4913C60.9553 82.988 54.0308 79.9368 54.0308 79.9368L52.6852 78.883L49.2072 73.7086C49.2072 73.7086 49.6793 73.0165 48.8059 72.4031C47.9403 71.7898 40.5752 66.1828 33.2337 66.9534Z" fill="#B688F5"/>
<path d="M52.6861 78.8909C52.6861 78.8909 52.5681 78.8909 52.3399 78.883C52.0723 78.8673 51.7497 78.8515 51.3563 78.828C50.4986 78.765 49.2632 78.7336 47.7288 78.7179C44.6678 78.7179 40.4266 78.9538 35.8234 79.7874C31.2201 80.5895 27.1284 81.7219 24.1933 82.5869C22.7219 83.0116 21.5416 83.389 20.7232 83.6407C20.3455 83.7586 20.0386 83.853 19.779 83.9317C19.5665 83.9946 19.4485 84.026 19.4485 84.026C19.4485 84.026 19.5586 83.9788 19.7711 83.9081C20.0229 83.8216 20.3377 83.7193 20.7075 83.5935C21.518 83.3261 22.6983 82.9408 24.1697 82.5004C27.1048 81.6118 31.1887 80.4637 35.8076 79.6615C40.4187 78.828 44.6678 78.6078 47.7366 78.6392C50.8055 78.6471 52.6861 78.8909 52.6861 78.8909Z" fill="#263238"/>
<g opacity="0.3">
<g opacity="0.3">
<g opacity="0.3">
<g opacity="0.3">
<g opacity="0.3">
<path opacity="0.3" d="M24.9172 70.6102C24.9172 70.6102 34.6273 69.3755 38.8764 71.5931C38.7112 71.5066 38.5459 71.4123 38.3807 71.3258C39.7262 71.9706 41.0639 72.6155 42.4016 73.2603C43.0783 73.5827 43.8809 73.913 44.5576 73.5906C44.5576 73.5906 42.4409 71.5617 38.4515 70.0597C34.462 68.5577 28.0726 67.7555 24.9172 70.6102Z" fill="black"/>
</g>
</g>
</g>
</g>
</g>
<path d="M24.7756 70.6573C24.7756 70.6573 25.0668 70.4293 25.6569 70.1226C26.2471 69.808 27.1284 69.3991 28.2851 69.1003C29.4339 68.7936 30.8582 68.597 32.4398 68.6442C34.0135 68.6992 35.7761 68.9745 37.4128 69.7923C38.2391 70.1855 38.9866 70.6652 39.7105 71.1292C40.4266 71.601 41.1348 72.0257 41.7721 72.4975C42.4016 72.9693 42.9839 73.4412 43.6056 73.7479C44.2193 74.086 44.8646 74.1568 45.4547 74.1883C47.8232 74.2983 49.3025 73.858 49.2002 73.7086C49.2002 73.7007 49.1688 73.8108 49.0035 73.8894C48.8461 73.9681 48.5943 74.0467 48.2639 74.1096C47.6108 74.2354 46.6429 74.3377 45.4468 74.2984C44.8567 74.2748 44.1721 74.204 43.5426 73.8658C42.9052 73.5513 42.3151 73.0794 41.6856 72.6155C41.0561 72.1515 40.34 71.7347 39.6318 71.2629C38.9079 70.7989 38.1604 70.3271 37.3499 69.9339C35.7289 69.1239 33.9899 68.8486 32.4319 68.7857C30.866 68.7228 29.4497 68.9116 28.3087 69.2025C27.1599 69.4856 26.2707 69.8788 25.6805 70.1698C25.3815 70.3192 25.1533 70.445 25.0038 70.5315C24.8622 70.618 24.7756 70.6573 24.7756 70.6573Z" fill="#263238"/>
<g opacity="0.3">
<g opacity="0.3">
<g opacity="0.3">
<g opacity="0.3">
<g opacity="0.3">
<path opacity="0.3" d="M20.4319 78.0652C22.163 78.1123 23.4929 77.7034 25.224 77.3889C27.0653 77.0507 28.8908 76.7912 30.7164 76.3666C32.1013 76.0441 33.738 75.7689 34.6665 74.8016C34.7688 75.5251 34.5327 76.1621 33.9898 76.6497C33.4468 77.1372 31.7236 77.6798 31.0075 77.845C26.963 78.8044 24.1538 79.4414 19.9834 79.5908C20.0463 79.174 20.4319 78.0652 20.4319 78.0652Z" fill="black"/>
</g>
</g>
</g>
</g>
</g>
<path d="M21.6752 74.5893C20.5657 75.0297 19.8811 75.3285 19.8182 76.2565C19.7631 77.035 19.889 77.9866 20.6523 78.1517C20.8883 78.1989 21.1244 78.1596 21.3605 78.1202C25.3735 77.4518 29.3787 76.7834 33.3918 76.1149C33.801 76.0442 34.2416 75.9577 34.5091 75.6431C34.9183 75.1555 34.6665 74.3613 34.1472 73.9838C33.6357 73.6142 32.9669 73.5513 32.3295 73.5198C28.7256 73.339 25.1925 73.8187 21.6752 74.5893Z" fill="#B688F5"/>
<path d="M34.3124 75.8239C34.2967 75.8082 34.5249 75.6981 34.6508 75.3128C34.7688 74.951 34.7452 74.2747 34.2101 73.7872C33.6593 73.3311 32.7701 73.1581 31.8259 73.1738C30.8659 73.1895 29.8115 73.221 28.702 73.2917C26.4909 73.4254 24.5001 73.74 23.0916 74.0939C22.3834 74.2669 21.8247 74.4399 21.4391 74.5578C21.2818 74.6129 21.1323 74.6601 20.9906 74.6994C20.8883 74.7308 20.8333 74.7466 20.8333 74.7387C20.8333 74.7308 20.8805 74.7072 20.9828 74.6679C21.1165 74.6129 21.266 74.5578 21.4155 74.4949C21.8011 74.3534 22.3598 74.1646 23.0601 73.9838C24.4686 73.5984 26.4673 73.2681 28.6863 73.1345C29.7958 73.0637 30.858 73.0401 31.818 73.0322C32.778 73.0244 33.6908 73.2052 34.2731 73.7007C34.8396 74.2354 34.8396 74.9432 34.698 75.3206C34.6272 75.5172 34.517 75.6431 34.4383 75.7217C34.3596 75.8003 34.3124 75.8239 34.3124 75.8239Z" fill="#263238"/>
<path d="M50.3018 75.3365L42.7871 74.9197L43.3537 77.0587L51.5293 77.1688L50.3018 75.3365Z" fill="white"/>
<path d="M38.7031 81.6127C38.6953 81.5734 42.0631 81.2036 46.2257 80.7944C50.3804 80.3852 53.7561 80.0862 53.7639 80.1255C53.7718 80.1649 50.404 80.5347 46.2414 80.9439C42.0867 81.3609 38.711 81.66 38.7031 81.6127Z" fill="#263238"/>
<path d="M63.8044 187.728H5.99268V197.377H63.8044V187.728Z" fill="#455A64"/>
<path d="M29.0876 224.956H13.2005C10.1947 224.956 7.75537 222.518 7.75537 219.514V192.399H34.5249V219.514C34.5249 222.518 32.0934 224.956 29.0876 224.956Z" fill="#455A64"/>
<path d="M34.5247 201.206C34.4933 201.206 34.4539 200.609 34.4146 199.531C34.3438 198.462 34.3516 196.873 33.8244 195.049C33.6749 194.601 33.4861 194.145 33.132 193.807C32.7621 193.445 32.3372 193.115 31.873 192.816C30.9287 192.242 29.772 191.888 28.5209 191.754C26.0108 191.565 23.178 191.652 20.243 191.675C17.2922 191.778 14.4594 191.439 11.9965 191.974C10.7847 192.234 9.62015 192.69 8.9277 193.523C8.24312 194.373 8.05427 195.442 7.95198 196.378C7.771 198.281 7.81034 199.854 7.77887 200.931C7.76313 201.435 7.75526 201.843 7.73952 202.174C7.72378 202.457 7.71592 202.606 7.70018 202.606C7.68444 202.606 7.6687 202.457 7.66083 202.174C7.65297 201.843 7.63723 201.435 7.62149 200.931C7.61362 199.854 7.52707 198.289 7.6687 196.347C7.75526 195.395 7.9205 194.255 8.66803 193.303C9.43917 192.36 10.6746 191.88 11.9257 191.597C13.1926 191.314 14.5539 191.235 15.9545 191.251C17.3394 191.274 18.7794 191.274 20.2508 191.251C23.2016 191.227 25.995 191.149 28.576 191.361C29.8664 191.502 31.0782 191.888 32.0618 192.509C32.5497 192.824 32.9903 193.177 33.368 193.563C33.7693 193.964 33.9661 194.483 34.1156 194.947C34.6192 196.85 34.5641 198.438 34.5877 199.516C34.5798 200.019 34.572 200.428 34.5641 200.758C34.5484 201.057 34.5405 201.206 34.5247 201.206Z" fill="#263238"/>
<path d="M34.3359 204.061C34.3359 204.171 28.4501 204.266 21.1873 204.266C13.9244 204.266 8.03857 204.171 8.03857 204.061C8.03857 203.951 13.9244 203.857 21.1873 203.857C28.4422 203.857 34.3359 203.951 34.3359 204.061Z" fill="#263238"/>
<path d="M15.4194 225.254C15.3093 225.254 15.2148 220.497 15.2148 214.63C15.2148 208.764 15.3093 204.006 15.4194 204.006C15.5296 204.006 15.624 208.764 15.624 214.63C15.624 220.497 15.5375 225.254 15.4194 225.254Z" fill="#263238"/>
<path d="M27.49 225.16C27.3798 225.16 27.2854 220.45 27.2854 214.63C27.2854 208.811 27.3798 204.1 27.49 204.1C27.6002 204.1 27.6946 208.811 27.6946 214.63C27.6946 220.442 27.6002 225.16 27.49 225.16Z" fill="#263238"/>
<path d="M63.8045 187.728L67.1409 192.391C67.1409 192.391 70.1231 220.174 68.8012 221.456C67.4792 222.738 63.0019 222.738 63.0019 222.738L61.7822 189.458L63.8045 187.728Z" fill="#455A64"/>
<path d="M53.331 196.991C53.2208 196.999 52.9375 194.907 52.8982 192.312C52.8588 189.709 53.0949 187.61 53.2051 187.618C53.3231 187.625 53.2759 189.725 53.3152 192.304C53.3388 194.884 53.449 196.984 53.331 196.991Z" fill="#263238"/>
<path d="M63.8594 187.885C63.9144 187.877 64.064 188.475 64.2135 189.45C64.3708 190.425 64.5282 191.785 64.6069 193.287C64.6462 194.035 64.6698 194.782 64.5203 195.45C64.3787 196.118 64.0246 196.685 63.6154 197.015C63.2063 197.353 62.7813 197.471 62.4902 197.471C62.1991 197.471 62.0496 197.4 62.0574 197.377C62.0496 197.306 62.7341 197.463 63.4266 196.795C63.7649 196.48 64.0403 195.985 64.1505 195.371C64.2685 194.758 64.2449 194.058 64.1977 193.311C64.0482 190.315 63.7492 187.901 63.8594 187.885Z" fill="#263238"/>
<path d="M329.264 192.273L332.947 188.797C335.803 189.238 338.809 188.915 341.666 187.712C349.881 184.244 353.736 174.784 350.266 166.566C346.796 158.356 337.33 154.503 329.107 157.971C320.892 161.439 317.036 170.899 320.507 179.117C321.954 182.545 324.449 185.211 327.463 186.902H327.455L329.264 192.273Z" fill="white"/>
<path d="M329.265 192.273C329.265 192.273 329.225 192.147 329.154 191.911C329.076 191.668 328.966 191.329 328.816 190.873C328.517 189.961 328.076 188.624 327.51 186.886L327.447 186.949H327.455C327.478 186.957 327.51 186.941 327.518 186.91C327.526 186.886 327.51 186.863 327.494 186.855C325.669 185.809 323.45 184.079 321.758 181.342C321.333 180.666 320.947 179.927 320.609 179.132C320.318 178.322 319.979 177.497 319.791 176.6C319.366 174.823 319.216 172.857 319.468 170.836C319.728 168.815 320.389 166.747 321.498 164.836C322.6 162.917 324.158 161.156 326.086 159.787C329.91 157.003 335.363 155.973 340.32 157.609C342.83 158.442 345.128 159.834 346.883 161.682C348.653 163.515 349.936 165.717 350.675 168.013C351.423 170.309 351.572 172.708 351.281 174.933C350.982 177.167 350.227 179.243 349.18 181.02C348.134 182.797 346.788 184.275 345.34 185.424C345.159 185.565 344.971 185.707 344.79 185.84C344.609 185.982 344.428 186.116 344.231 186.226C343.845 186.462 343.476 186.69 343.106 186.918C342.327 187.287 341.587 187.688 340.824 187.948C337.786 189.049 334.985 189.041 332.947 188.742C332.931 188.742 332.916 188.742 332.908 188.758C331.727 189.89 330.823 190.755 330.201 191.353C329.894 191.644 329.666 191.872 329.501 192.029C329.351 192.194 329.265 192.273 329.265 192.273C329.265 192.273 329.343 192.202 329.501 192.061C329.666 191.911 329.902 191.691 330.209 191.408C330.846 190.818 331.775 189.953 332.987 188.837L332.947 188.852C334.993 189.183 337.81 189.206 340.887 188.105C341.658 187.846 342.405 187.445 343.2 187.075C343.578 186.847 343.956 186.619 344.341 186.383C344.538 186.273 344.727 186.139 344.908 185.998C345.089 185.856 345.278 185.715 345.458 185.581C346.93 184.425 348.291 182.931 349.354 181.138C350.424 179.345 351.195 177.245 351.494 174.98C351.793 172.723 351.651 170.293 350.896 167.966C350.148 165.638 348.85 163.405 347.056 161.549C345.277 159.669 342.948 158.262 340.407 157.412C340.1 157.294 339.777 157.216 339.462 157.145L338.51 156.909L337.543 156.767C337.22 156.72 336.905 156.665 336.575 156.665C336.252 156.65 335.929 156.634 335.607 156.618C335.284 156.594 334.969 156.642 334.647 156.642C334.324 156.665 334.009 156.657 333.695 156.697C333.38 156.744 333.065 156.791 332.75 156.838C330.256 157.247 327.911 158.222 325.968 159.63C324.016 161.03 322.442 162.815 321.325 164.757C320.208 166.7 319.539 168.799 319.287 170.844C319.027 172.889 319.185 174.878 319.625 176.671C319.822 177.575 320.16 178.409 320.459 179.227C320.798 180.029 321.199 180.768 321.624 181.452C323.347 184.205 325.59 185.935 327.439 186.965L327.478 186.871H327.471C327.447 186.863 327.415 186.878 327.408 186.91C327.408 186.918 327.408 186.934 327.408 186.941C328.006 188.687 328.47 190.032 328.785 190.944C328.942 191.384 329.052 191.723 329.139 191.959C329.225 192.163 329.265 192.273 329.265 192.273Z" fill="#263238"/>
<path d="M326.983 172.574L329.406 170.396L333.64 174.579L341.327 167.423L343.342 169.837L333.073 179.007L326.983 172.574Z" fill="#263238"/>
</svg>
