<svg width="469" height="349" viewBox="0 0 469 349" fill="none" xmlns="http://www.w3.org/2000/svg">
<path d="M469 306.381H0V306.615H469V306.381Z" fill="#EBEBEB"/>
<path d="M122.287 315.288H49.207V315.523H122.287V315.288Z" fill="#EBEBEB"/>
<path d="M422.006 322.409H386.456V322.643H422.006V322.409Z" fill="#EBEBEB"/>
<path d="M141.225 323.98H123.225V324.215H141.225V323.98Z" fill="#EBEBEB"/>
<path d="M230.147 312.752H189.635V312.987H230.147V312.752Z" fill="#EBEBEB"/>
<path d="M244.434 312.752H238.496V312.987H244.434V312.752Z" fill="#EBEBEB"/>
<path d="M347.895 318.451H307.354V318.685H347.895V318.451Z" fill="#EBEBEB"/>
<path d="M222.315 264.651H41.1968C38.2421 264.651 35.8408 262.255 35.8408 259.308V5.3426C35.8408 2.39528 38.2421 0 41.1968 0H222.325C225.279 0 227.681 2.39528 227.681 5.3426V259.308C227.671 262.255 225.27 264.651 222.315 264.651ZM41.1968 0.233914C38.3734 0.233914 36.0753 2.52627 36.0753 5.3426V259.308C36.0753 262.124 38.3734 264.417 41.1968 264.417H222.325C225.148 264.417 227.446 262.124 227.446 259.308V5.3426C227.446 2.52627 225.148 0.233914 222.325 0.233914H41.1968Z" fill="#355B65" fill-opacity="0.5"/>
<path d="M425.204 264.651H244.077C241.122 264.651 238.721 262.255 238.721 259.308V5.3426C238.721 2.39528 241.122 0 244.077 0H425.204C428.159 0 430.56 2.39528 430.56 5.3426V259.308C430.56 262.255 428.159 264.651 425.204 264.651ZM244.077 0.233914C241.253 0.233914 238.955 2.52627 238.955 5.3426V259.308C238.955 262.124 241.253 264.417 244.077 264.417H425.204C428.028 264.417 430.326 262.124 430.326 259.308V5.3426C430.326 2.52627 428.028 0.233914 425.204 0.233914H244.077Z" fill="#355B65" fill-opacity="0.5"/>
<path d="M110.179 250.083H53.2235C50.5783 250.083 48.4209 247.921 48.4209 245.292V243.224C48.4209 240.586 50.5877 238.434 53.2235 238.434H110.179C112.824 238.434 114.981 240.595 114.981 243.224V245.292C114.981 247.931 112.824 250.083 110.179 250.083Z" fill="#EBEBEB"/>
<path d="M66.8798 250.083H57.5092L46.8535 306.381H56.2241L66.8798 250.083Z" fill="#E0E0E0"/>
<path d="M85.5838 250.083H76.2131L70.9697 306.381H80.3403L85.5838 250.083Z" fill="#E0E0E0"/>
<path d="M96.5117 250.083H105.882L116.547 306.381H107.177L96.5117 250.083Z" fill="#E0E0E0"/>
<path d="M79.1574 224.492C77.8349 190.49 76.4279 156.685 79.3075 139.638L84.0163 136.316C84.0163 136.316 82.9845 139.497 82.4404 191.585C81.8964 243.673 81.2304 216.754 81.8026 224.492H79.1574Z" fill="#A6ECFF"/>
<path d="M86.7374 103.905C93.9882 85.0607 110.882 66.8622 129.229 59.4143C136.433 56.4951 126.049 120.765 99.9351 124.901C87.1783 126.922 83.2106 159.502 81.0532 175.146C80.3215 144.372 79.4867 122.749 86.7374 103.905Z" fill="#A6ECFF"/>
<path d="M85.1891 151.745C90.2918 143.679 98.6306 132.386 110.815 132.367C124.632 132.358 112.541 155.038 96.3044 162.289C88.3783 165.826 81.7654 177.054 80.0488 184.09C80.1989 169.84 80.0864 159.81 85.1891 151.745Z" fill="#A6ECFF"/>
<path d="M72.7703 127.353C63.8968 111.671 44.1238 95.9052 23.0751 88.7287C14.8113 85.9124 13.9952 132.368 58.5596 143.483C72.9485 147.076 78.7172 172.489 81.7001 185.26C81.4468 160.447 81.6438 143.034 72.7703 127.353Z" fill="#A6ECFF"/>
<path d="M77.6298 164.545C71.9737 154.552 56.5999 149.658 42.7831 150.594C37.3521 150.959 36.7612 171.478 66.9554 179.403C76.1103 181.807 79.806 197.891 81.7101 206.032C81.5413 190.219 83.2766 174.537 77.6298 164.545Z" fill="#A6ECFF"/>
<path d="M78.2102 111.746C73.811 97.767 60.8572 85.2385 48.9728 80.0643C44.3015 78.034 42.8664 101.21 68.3894 123.9C76.1279 130.786 78.5667 150.837 79.833 160.999C80.4051 142.847 82.6094 125.724 78.2102 111.746Z" fill="#A6ECFF"/>
<path d="M80.5375 238.434C71.2513 238.434 63.5785 237.76 63.0438 225.231L61.4961 208.792H99.5695L98.0218 225.231C97.4965 237.76 89.8237 238.434 80.5375 238.434Z" fill="#FAFAFA"/>
<path d="M99.7189 215.566H61.3641L60.2666 207.865H100.816L99.7189 215.566Z" fill="#F0F0F0"/>
<path d="M58.9946 30.5794V35.7103H56V21.1478H61.6697C62.761 21.1478 63.7193 21.3478 64.5445 21.7479C65.3763 22.148 66.0151 22.7181 66.461 23.4582C66.9068 24.1916 67.1298 25.0284 67.1298 25.9686C67.1298 27.3955 66.6407 28.5224 65.6624 29.3492C64.6909 30.1693 63.3433 30.5794 61.6198 30.5794H58.9946ZM58.9946 28.149H61.6697C62.4616 28.149 63.0638 27.9623 63.4764 27.5889C63.8956 27.2155 64.1053 26.6821 64.1053 25.9886C64.1053 25.2752 63.8956 24.6984 63.4764 24.2583C63.0572 23.8182 62.4782 23.5915 61.7396 23.5782H58.9946V28.149Z" fill="white"/>
<path d="M72.1906 33.2998H78.549V35.7103H69.196V21.1478H72.1906V33.2998Z" fill="white"/>
<path d="M88.6806 32.7097H83.4301L82.4319 35.7103H79.2477L84.6579 21.1478H87.4328L92.873 35.7103H89.6887L88.6806 32.7097ZM84.2387 30.2793H87.8721L86.0454 24.8284L84.2387 30.2793Z" fill="white"/>
<path d="M106.049 35.7103H103.054L97.225 26.1286V35.7103H94.2305V21.1478H97.225L103.064 30.7494V21.1478H106.049V35.7103Z" fill="white"/>
<path d="M120.483 35.7103H117.488L111.659 26.1286V35.7103H108.664V21.1478H111.659L117.498 30.7494V21.1478H120.483V35.7103Z" fill="white"/>
<path d="M126.282 35.7103H123.288V21.1478H126.282V35.7103Z" fill="white"/>
<path d="M140.886 35.7103H137.891L132.062 26.1286V35.7103H129.067V21.1478H132.062L137.901 30.7494V21.1478H140.886V35.7103Z" fill="white"/>
<path d="M155 33.8699C154.461 34.5167 153.699 35.0201 152.714 35.3802C151.729 35.7336 150.638 35.9103 149.44 35.9103C148.182 35.9103 147.078 35.6369 146.126 35.0901C145.181 34.5367 144.449 33.7366 143.93 32.6897C143.418 31.6429 143.155 30.4127 143.142 28.9991V28.0089C143.142 26.5554 143.384 25.2985 143.87 24.2383C144.363 23.1715 145.068 22.358 145.986 21.7979C146.911 21.2311 147.993 20.9478 149.23 20.9478C150.954 20.9478 152.302 21.3612 153.273 22.188C154.245 23.0081 154.82 24.205 155 25.7786H152.085C151.952 24.9451 151.656 24.335 151.197 23.9483C150.744 23.5615 150.119 23.3682 149.32 23.3682C148.302 23.3682 147.527 23.7516 146.995 24.5184C146.462 25.2852 146.193 26.4253 146.186 27.9389V28.8691C146.186 30.396 146.476 31.5495 147.054 32.3297C147.633 33.1098 148.482 33.4999 149.6 33.4999C150.724 33.4999 151.526 33.2598 152.005 32.7798V30.2693H149.28V28.059H155V33.8699Z" fill="white"/>
<path d="M231.217 349C333.53 349 416.472 341.041 416.472 331.222C416.472 321.404 333.53 313.445 231.217 313.445C128.903 313.445 45.9619 321.404 45.9619 331.222C45.9619 341.041 128.903 349 231.217 349Z" fill="url(#paint0_linear_1240_1467)"/>
<path d="M360.005 205.507H157.303C155.118 205.507 153.429 203.72 153.551 201.54L160.38 77.5844C160.502 75.4043 162.387 73.6172 164.573 73.6172H367.274C369.46 73.6172 371.148 75.4043 371.026 77.5844L364.198 201.54C364.076 203.73 362.19 205.507 360.005 205.507Z" fill="#161616"/>
<path d="M274.731 94.7069H255.136C248.598 94.7069 243.552 89.383 243.908 82.8708L244.105 79.2592C244.452 72.9528 249.912 67.7974 256.243 67.7974H275.829C282.366 67.7974 287.422 73.1306 287.066 79.6428L286.869 83.2451C286.531 89.542 281.063 94.7069 274.731 94.7069Z" fill="#161616"/>
<path d="M292.571 334.132H286.296L269.009 70.5483H275.284L292.571 334.132Z" fill="#F0F0F0"/>
<path d="M245.446 334.132H251.731L269.009 70.5483H262.734L245.446 334.132Z" fill="#F0F0F0"/>
<path d="M358.926 205.507H156.224C154.038 205.507 152.35 203.72 152.472 201.54L159.301 77.5844C159.423 75.4043 161.308 73.6172 163.494 73.6172H366.195C368.381 73.6172 370.069 75.4043 369.947 77.5844L363.119 201.54C362.997 203.73 361.111 205.507 358.926 205.507Z" fill="#6BD3F0"/>
<path opacity="0.4" d="M159.442 201.709C157.688 201.709 156.346 200.287 156.44 198.547L162.941 80.5883C163.034 78.8386 164.535 77.4258 166.289 77.4258H362.969C364.723 77.4258 366.064 78.848 365.971 80.5883L359.47 198.547C359.376 200.296 357.876 201.709 356.122 201.709H159.442Z" fill="#161616"/>
<path opacity="0.1" d="M357.341 139.188H298.134C296.643 139.188 295.508 137.981 295.583 136.503L298.537 82.8055C298.547 82.5997 298.387 82.4219 298.181 82.4219C297.975 82.4219 297.787 82.5903 297.778 82.8055L294.823 136.503C294.738 137.991 293.472 139.188 291.981 139.188H230.467C228.975 139.188 227.84 137.981 227.915 136.503L230.87 82.8055C230.879 82.5997 230.72 82.4219 230.514 82.4219C230.307 82.4219 230.12 82.5903 230.11 82.8055L227.156 136.503C227.071 137.991 225.805 139.188 224.313 139.188H165.107C164.901 139.188 164.713 139.357 164.704 139.572C164.694 139.778 164.854 139.955 165.06 139.955H224.267C225.758 139.955 226.893 141.162 226.818 142.641L223.863 196.338C223.854 196.544 224.013 196.722 224.22 196.722C224.426 196.722 224.614 196.553 224.623 196.338L227.578 142.641C227.662 141.153 228.928 139.955 230.42 139.955H291.943C293.435 139.955 294.57 141.162 294.495 142.641L291.54 196.338C291.53 196.544 291.69 196.722 291.896 196.722C292.103 196.722 292.29 196.553 292.3 196.338L295.254 142.641C295.339 141.153 296.605 139.955 298.096 139.955H357.303C357.509 139.955 357.697 139.787 357.706 139.572C357.716 139.357 357.556 139.188 357.341 139.188Z" fill="white"/>
<path opacity="0.4" d="M260.812 92.1538H237.034L235.711 116.284L259.452 116.911L260.812 92.1538Z" fill="#161616"/>
<path d="M258.241 115.881C250.287 115.498 242.333 115.105 234.369 114.721C235.692 106.525 236.517 98.3004 236.855 90.104C244.856 90.4876 252.857 90.8806 260.858 91.2642C260.483 99.4606 259.601 107.676 258.241 115.881Z" fill="white"/>
<path opacity="0.4" d="M289.486 108.275L265.67 110.081L266.195 134.136L290.02 132.958L289.486 108.275Z" fill="#161616"/>
<path d="M288.726 132.021C280.734 132.246 272.733 132.461 264.741 132.685C265.435 124.442 265.632 116.218 265.342 108.05C273.39 107.825 281.428 107.601 289.467 107.376C289.711 115.544 289.458 123.778 288.726 132.021Z" fill="#6BD3F0"/>
<path opacity="0.4" d="M219.942 152.147L176.043 150.472L172.104 189.433L215.899 192.128L219.942 152.147Z" fill="#161616"/>
<path d="M213.714 190.359C199.053 189.171 184.392 187.992 169.722 186.804C172.667 173.62 174.702 160.381 175.819 147.132C190.573 148.32 205.319 149.508 220.064 150.697C218.873 163.946 216.744 177.185 213.714 190.359Z" fill="white"/>
<g opacity="0.3">
<path opacity="0.3" d="M174.759 97.6077C173.399 97.6077 172.349 96.4943 172.424 95.1376C172.499 93.7809 173.671 92.6675 175.031 92.6675C176.391 92.6675 177.442 93.7809 177.367 95.1376C177.292 96.4943 176.119 97.6077 174.759 97.6077Z" fill="#161616"/>
<path opacity="0.8" d="M213.544 97.6077H183.087C181.727 97.6077 180.677 96.4943 180.752 95.1376C180.827 93.7809 181.999 92.6675 183.359 92.6675H213.816C215.176 92.6675 216.227 93.7809 216.152 95.1376C216.086 96.4943 214.904 97.6077 213.544 97.6077Z" fill="#161616"/>
<path opacity="0.3" d="M174.168 108.368C172.807 108.368 171.757 107.255 171.832 105.898C171.907 104.541 173.079 103.428 174.44 103.428C175.8 103.428 176.85 104.541 176.775 105.898C176.7 107.264 175.528 108.368 174.168 108.368Z" fill="#161616"/>
<path opacity="0.8" d="M218.348 108.368H182.488C181.128 108.368 180.077 107.255 180.152 105.898C180.227 104.541 181.4 103.428 182.76 103.428H218.62C219.98 103.428 221.03 104.541 220.955 105.898C220.89 107.264 219.708 108.368 218.348 108.368Z" fill="#161616"/>
<path opacity="0.3" d="M173.567 119.137C172.207 119.137 171.156 118.024 171.231 116.667C171.306 115.31 172.479 114.197 173.839 114.197C175.199 114.197 176.25 115.31 176.175 116.667C176.109 118.024 174.927 119.137 173.567 119.137Z" fill="#161616"/>
<path opacity="0.8" d="M199.353 119.137H181.906C180.546 119.137 179.495 118.024 179.57 116.667C179.645 115.31 180.818 114.197 182.178 114.197H199.634C200.994 114.197 202.045 115.31 201.97 116.667C201.885 118.024 200.713 119.137 199.353 119.137Z" fill="#161616"/>
<path opacity="0.8" d="M215.514 129.907H198.058C196.698 129.907 195.647 128.793 195.723 127.436C195.798 126.08 196.97 124.966 198.33 124.966H215.786C217.146 124.966 218.197 126.08 218.122 127.436C218.047 128.793 216.874 129.907 215.514 129.907Z" fill="#161616"/>
<path opacity="0.3" d="M172.976 129.907C171.616 129.907 170.565 128.793 170.641 127.436C170.716 126.08 171.888 124.966 173.248 124.966C174.608 124.966 175.659 126.08 175.584 127.436C175.509 128.793 174.336 129.907 172.976 129.907Z" fill="#161616"/>
<path opacity="0.8" d="M189.364 129.907H181.306C179.946 129.907 178.896 128.793 178.971 127.436C179.046 126.08 180.218 124.966 181.578 124.966H189.636C190.996 124.966 192.046 126.08 191.971 127.436C191.906 128.793 190.733 129.907 189.364 129.907Z" fill="#161616"/>
</g>
<path d="M248.702 161.943H236.892L235.27 191.426H247.079L248.702 161.943Z" fill="#6BD3F0"/>
<path d="M266.627 168.016H254.808L253.523 191.426H265.333L266.627 168.016Z" fill="#6BD3F0"/>
<path d="M285.734 152.315H273.924L271.776 191.426H283.586L285.734 152.315Z" fill="#6BD3F0"/>
<path d="M239.528 178.579C238.355 178.579 237.183 178.551 235.982 178.485C233.919 178.382 231.245 178.121 228.835 177.045C228.45 176.876 228.281 176.427 228.45 176.043C228.619 175.66 229.069 175.491 229.454 175.66C231.63 176.633 234.125 176.876 236.057 176.97C250.23 177.699 262.64 174.013 275.134 165.386C278.108 163.328 282.563 159.52 285.293 155.562C285.527 155.216 286.006 155.131 286.353 155.365C286.7 155.599 286.784 156.076 286.55 156.423C283.708 160.54 279.243 164.394 276.007 166.631C264.272 174.733 252.594 178.579 239.528 178.579Z" fill="white"/>
<path d="M288.304 161.382C288.21 161.382 288.107 161.363 288.013 161.326C287.628 161.167 287.441 160.718 287.6 160.334C288.679 157.733 288.904 154.804 288.257 152.147C285.283 154.14 282.122 155.815 278.821 157.143C278.427 157.302 277.986 157.115 277.826 156.722C277.667 156.329 277.854 155.89 278.248 155.731C281.766 154.318 285.133 152.493 288.257 150.304C288.454 150.163 288.707 150.126 288.932 150.201C289.157 150.276 289.345 150.453 289.42 150.678C290.517 153.915 290.367 157.639 289.017 160.905C288.885 161.204 288.604 161.382 288.304 161.382Z" fill="white"/>
<path d="M350.503 132.321H306.567C305.826 132.321 305.132 132.031 304.634 131.507C304.128 130.973 303.875 130.281 303.922 129.532L305.966 92.4803C306.051 90.9646 307.355 89.7295 308.874 89.7295H352.81C353.551 89.7295 354.245 90.0195 354.742 90.5435C355.249 91.0768 355.502 91.7692 355.455 92.5177L353.41 129.57C353.326 131.086 352.022 132.321 350.503 132.321ZM308.865 90.478C307.739 90.478 306.773 91.395 306.717 92.5084L304.672 129.56C304.644 130.094 304.822 130.599 305.178 130.973C305.535 131.348 306.023 131.553 306.557 131.553H350.493C351.619 131.553 352.585 130.636 352.641 129.523L354.686 92.471C354.714 91.9376 354.536 91.4324 354.18 91.0581C353.823 90.6839 353.335 90.478 352.801 90.478H308.865Z" fill="#6BD3F0"/>
<path d="M354.658 100.349H305.92C305.713 100.349 305.535 100.18 305.535 99.9652C305.535 99.7593 305.704 99.5815 305.92 99.5815H354.658C354.865 99.5815 355.043 99.75 355.043 99.9652C355.043 100.18 354.874 100.349 354.658 100.349Z" fill="#6BD3F0"/>
<path d="M315.674 132.321C315.665 132.321 315.656 132.321 315.656 132.321C315.449 132.311 315.281 132.133 315.299 131.918L317.063 99.9468C317.072 99.741 317.25 99.5726 317.466 99.5913C317.672 99.6006 317.841 99.7784 317.822 99.9936L316.059 131.965C316.04 132.161 315.871 132.321 315.674 132.321Z" fill="#6BD3F0"/>
<path d="M349.078 104.148H322.617C322.411 104.148 322.232 103.98 322.232 103.764C322.232 103.559 322.401 103.381 322.617 103.381H349.078C349.284 103.381 349.463 103.549 349.463 103.764C349.463 103.98 349.294 104.148 349.078 104.148Z" fill="#6BD3F0"/>
<path d="M345.091 108.808H322.363C322.157 108.808 321.979 108.639 321.979 108.424C321.979 108.218 322.147 108.041 322.363 108.041H345.091C345.297 108.041 345.475 108.209 345.475 108.424C345.475 108.639 345.307 108.808 345.091 108.808Z" fill="#6BD3F0"/>
<path d="M335.326 113.617H322.091C321.884 113.617 321.706 113.448 321.706 113.233C321.706 113.018 321.875 112.85 322.091 112.85H335.326C335.532 112.85 335.71 113.018 335.71 113.233C335.71 113.448 335.542 113.617 335.326 113.617Z" fill="#6BD3F0"/>
<path d="M337.727 123.002H321.575C321.369 123.002 321.19 122.833 321.19 122.618C321.19 122.403 321.359 122.234 321.575 122.234H337.727C337.934 122.234 338.112 122.403 338.112 122.618C338.112 122.833 337.943 123.002 337.727 123.002Z" fill="#6BD3F0"/>
<path d="M334.547 127.82H321.312C321.106 127.82 320.928 127.652 320.928 127.436C320.928 127.231 321.097 127.053 321.312 127.053H334.547C334.754 127.053 334.932 127.221 334.932 127.436C334.923 127.642 334.754 127.82 334.547 127.82Z" fill="#6BD3F0"/>
<path d="M342.295 127.82H338.055C337.849 127.82 337.671 127.652 337.671 127.436C337.671 127.231 337.84 127.053 338.055 127.053H342.295C342.502 127.053 342.68 127.221 342.68 127.436C342.67 127.642 342.502 127.82 342.295 127.82Z" fill="#6BD3F0"/>
<path d="M346.62 118.276H321.847C321.641 118.276 321.463 118.108 321.463 117.892C321.463 117.687 321.632 117.509 321.847 117.509H346.62C346.826 117.509 347.005 117.677 347.005 117.892C346.995 118.108 346.826 118.276 346.62 118.276Z" fill="#6BD3F0"/>
<path d="M323.516 186.224C317.775 186.224 313.076 184.53 310.149 181.387C307.035 178.028 305.74 172.741 306.603 166.884C307.129 163.3 308.311 160.288 310.093 157.939C311.884 155.581 314.483 153.644 317.813 152.166C325.148 148.91 333.646 149.022 340.54 152.475C343.626 154.019 345.559 155.974 346.29 158.285C346.412 158.688 346.196 159.109 345.793 159.24C345.39 159.361 344.968 159.146 344.836 158.744C344.236 156.844 342.557 155.188 339.856 153.841C333.365 150.594 325.363 150.491 318.432 153.57C315.346 154.936 312.944 156.723 311.312 158.875C309.68 161.017 308.601 163.787 308.114 167.118C307.316 172.517 308.47 177.345 311.275 180.367C315.177 184.568 321.621 184.867 325.12 184.671C331.629 184.315 337.22 182.042 340.878 178.29C345.155 173.892 346.356 167.324 343.664 163.001C343.139 162.168 342.022 160.737 340.381 160.568C339.959 160.531 339.659 160.157 339.696 159.736C339.734 159.315 340.109 159.015 340.531 159.053C342.229 159.221 343.805 160.334 344.958 162.196C348.007 167.09 346.722 174.463 341.966 179.347C338.045 183.38 332.089 185.803 325.195 186.187C324.632 186.205 324.069 186.224 323.516 186.224Z" fill="white"/>
<path d="M128.806 107.02L126.105 111.726L123.45 116.526C121.705 119.736 120.036 122.973 118.516 126.22C117.756 127.848 117.034 129.476 116.378 131.104L116.256 131.403C116.246 131.431 116.227 131.45 116.218 131.469C116.171 131.516 116.162 131.562 116.134 131.6C116.087 131.684 116.049 131.759 116.002 131.871C115.937 132.086 115.955 132.442 116.115 132.919C116.415 133.892 117.297 135.155 118.375 136.334C119.435 137.522 120.805 138.729 122.034 139.796L119.839 144.465C118.723 144.147 117.794 143.829 116.809 143.398C115.834 142.987 114.886 142.491 113.948 141.929C112.082 140.779 110.215 139.366 108.658 137.036C107.907 135.876 107.26 134.435 107.007 132.769C106.894 131.937 106.847 131.076 106.96 130.224C107.007 129.803 107.073 129.373 107.176 128.98L107.326 128.372L107.438 128.007C108.039 126.098 108.667 124.199 109.399 122.374C110.825 118.697 112.429 115.151 114.183 111.698C115.055 109.967 115.965 108.264 116.922 106.58C117.888 104.887 118.816 103.249 119.923 101.537L128.806 107.02Z" fill="#FFC3BD"/>
<path d="M119.689 139.263L124.613 137.981L124.895 145.915C124.895 145.915 121.04 146.486 118.676 144.138L119.689 139.263Z" fill="#FFC3BD"/>
<path d="M131.601 136.653L130.485 143.623L124.895 145.925L124.613 137.991L131.601 136.653Z" fill="#FFC3BD"/>
<path d="M151.984 69.6134C152.097 70.1563 152.472 70.54 152.829 70.4652C153.186 70.3903 153.383 69.8942 153.27 69.3513C153.157 68.8085 152.782 68.4247 152.425 68.4996C152.078 68.5745 151.881 69.0705 151.984 69.6134Z" fill="#161616"/>
<path d="M152.425 70.5483C152.425 70.5483 154.301 73.4302 155.97 74.6652C155.192 75.7599 153.466 75.6757 153.466 75.6757L152.425 70.5483Z" fill="#ED847E"/>
<path d="M149.377 67.0027C149.302 67.0027 149.217 66.9746 149.152 66.9185C149.02 66.7968 149.011 66.591 149.133 66.46C150.362 65.1407 151.844 65.3746 151.909 65.384C152.087 65.4121 152.209 65.5805 152.172 65.7583C152.144 65.936 151.975 66.0577 151.797 66.0296C151.75 66.0203 150.587 65.8518 149.611 66.9091C149.555 66.9653 149.47 67.0027 149.377 67.0027Z" fill="#161616"/>
<path d="M136.47 77.2573C137.454 82.2818 138.449 91.498 134.922 94.857C134.922 94.857 136.301 99.9564 145.671 99.9564C155.971 99.9564 150.596 94.857 150.596 94.857C144.977 93.519 145.118 89.3554 146.103 85.4537L136.47 77.2573Z" fill="#FFC3BD"/>
<path d="M132.886 95.7925C132.136 94.3984 131.301 92.7984 133.017 92.2932C134.903 91.7411 147.031 90.7213 150.586 91.7505C149.489 93.6967 151.346 96.0826 151.346 96.0826L132.886 95.7925Z" fill="#161616"/>
<path d="M102.373 330.221C103.067 330.371 103.752 330.409 104.089 330.128C104.23 330.006 104.371 329.782 104.249 329.37C104.183 329.155 104.042 328.996 103.827 328.893C102.898 328.453 100.759 329.323 100.666 329.361C100.609 329.389 100.562 329.445 100.562 329.51C100.562 329.576 100.6 329.632 100.656 329.66C100.985 329.81 101.679 330.072 102.373 330.221ZM103.489 329.117C103.555 329.136 103.62 329.155 103.677 329.183C103.808 329.248 103.883 329.333 103.921 329.464C104.005 329.754 103.902 329.847 103.864 329.875C103.498 330.193 102.12 329.903 101.144 329.51C101.819 329.286 102.879 328.986 103.489 329.117Z" fill="#6BD3F0"/>
<path d="M100.694 329.66C100.722 329.669 100.75 329.669 100.778 329.66C101.557 329.435 103.226 328.256 103.245 327.47C103.245 327.33 103.198 327.077 102.823 326.946C102.579 326.862 102.335 326.881 102.101 327.002C101.182 327.47 100.6 329.379 100.572 329.454C100.553 329.51 100.572 329.575 100.609 329.613C100.637 329.641 100.666 329.66 100.694 329.66ZM102.645 327.236C102.673 327.246 102.692 327.246 102.72 327.255C102.926 327.33 102.917 327.423 102.917 327.47C102.907 327.929 101.81 328.855 101.003 329.229C101.21 328.677 101.669 327.592 102.26 327.292C102.382 327.227 102.513 327.208 102.645 327.236Z" fill="#6BD3F0"/>
<path d="M153.25 331.372C154.132 331.372 154.985 331.25 155.276 330.857C155.379 330.717 155.454 330.483 155.267 330.146C155.164 329.959 154.985 329.828 154.751 329.763C153.607 329.454 151.196 330.82 151.093 330.876C151.036 330.914 150.999 330.979 151.008 331.045C151.018 331.11 151.074 331.166 151.14 331.176C151.571 331.269 152.425 331.372 153.25 331.372ZM154.338 330.043C154.451 330.043 154.563 330.053 154.657 330.081C154.807 330.118 154.91 330.193 154.976 330.305C155.089 330.511 155.051 330.605 155.004 330.661C154.685 331.101 152.941 331.119 151.665 330.932C152.303 330.614 153.531 330.043 154.338 330.043Z" fill="#6BD3F0"/>
<path d="M151.168 331.185C151.187 331.185 151.215 331.175 151.234 331.166C152.069 330.792 153.71 329.304 153.588 328.528C153.56 328.34 153.429 328.116 152.978 328.069C152.641 328.032 152.341 328.125 152.078 328.35C151.206 329.07 151.018 330.923 151.009 330.998C150.999 331.054 151.027 331.11 151.074 331.147C151.102 331.175 151.131 331.185 151.168 331.185ZM152.847 328.397C152.875 328.397 152.913 328.397 152.941 328.406C153.232 328.434 153.25 328.546 153.26 328.593C153.335 329.061 152.219 330.23 151.365 330.736C151.449 330.193 151.703 329.089 152.275 328.612C152.453 328.462 152.641 328.397 152.847 328.397Z" fill="#6BD3F0"/>
<path d="M143.589 331.017H150.483L151.168 315.101H144.274L143.589 331.017Z" fill="#FFC3BD"/>
<path d="M93.0117 327.835L99.7466 329.295L106.51 314.465L99.7747 313.015L93.0117 327.835Z" fill="#FFC3BD"/>
<path d="M100.394 328.621L92.8246 326.984C92.5526 326.928 92.2712 327.068 92.1492 327.321L89.5228 333.01C89.2508 333.599 89.6073 334.291 90.2451 334.413C92.8996 334.937 94.2128 335.059 97.5427 335.779C99.5876 336.219 104.212 337.342 107.035 337.959C109.802 338.558 110.834 335.863 109.737 335.358C104.793 333.103 102.73 331.12 101.389 329.276C101.154 328.93 100.798 328.706 100.394 328.621Z" fill="#161616"/>
<path d="M150.436 330.221H142.913C142.632 330.221 142.388 330.418 142.322 330.689L140.962 336.799C140.821 337.435 141.3 338.034 141.956 338.025C144.667 337.978 148.597 337.819 152.002 337.819C155.989 337.819 159.441 338.034 164.112 338.034C166.945 338.034 167.723 335.18 166.541 334.918C161.148 333.739 156.749 333.618 152.087 330.755C151.59 330.446 151.027 330.221 150.436 330.221Z" fill="#161616"/>
<path d="M122.578 96.4098C116.115 97.8882 110.797 114.337 110.797 114.337L123.769 124.199C123.769 124.199 128.525 119.726 130.645 111.493C132.868 102.875 129.182 94.9034 122.578 96.4098Z" fill="#6BD3F0"/>
<path opacity="0.2" d="M122.578 96.4098C116.115 97.8882 110.797 114.337 110.797 114.337L123.769 124.199C123.769 124.199 128.525 119.726 130.645 111.493C132.868 102.875 129.182 94.9034 122.578 96.4098Z" fill="#FAFAFA"/>
<path opacity="0.2" d="M128.112 108.508C124.604 111.97 123.46 118.276 123.188 123.759L123.76 124.199C123.76 124.199 128.525 119.717 130.645 111.493C130.776 110.978 130.888 110.463 130.982 109.958L128.112 108.508Z" fill="#161616"/>
<path d="M161.186 96.7656C161.186 96.7656 168.521 105.027 161.59 156.18C150.484 156.18 130.138 156.18 124.736 156.18C124.482 150.538 128.037 123.001 122.578 96.4101C122.578 96.4101 128.9 95.1469 134.913 94.8569C139.622 94.6323 146.441 94.4826 150.577 94.8569C156.046 95.3528 161.186 96.7656 161.186 96.7656Z" fill="#6BD3F0"/>
<path opacity="0.2" d="M161.186 96.7656C161.186 96.7656 168.521 105.027 161.59 156.18C150.484 156.18 130.138 156.18 124.736 156.18C124.482 150.538 128.037 123.001 122.578 96.4101C122.578 96.4101 128.9 95.1469 134.913 94.8569C139.622 94.6323 146.441 94.4826 150.577 94.8569C156.046 95.3528 161.186 96.7656 161.186 96.7656Z" fill="#FAFAFA"/>
<path opacity="0.2" d="M164.403 112.4L164.262 112.279L155.886 114.281C155.408 119.932 161.233 126.688 164.234 129.776C164.647 122.562 164.638 116.873 164.403 112.4Z" fill="#161616"/>
<path opacity="0.2" d="M151.168 315.11L150.811 323.316H143.917L144.273 315.11H151.168Z" fill="#161616"/>
<path opacity="0.2" d="M99.7651 313.015L106.509 314.474L103.02 322.109L96.2852 320.659L99.7651 313.015Z" fill="#161616"/>
<path d="M133.59 72.1485C135.363 78.7356 136.057 82.684 140.137 85.4255C146.271 89.5424 153.907 84.8173 154.141 77.8373C154.357 71.5497 151.421 61.8283 144.339 60.4996C137.351 59.1897 131.817 65.5615 133.59 72.1485Z" fill="#FFC3BD"/>
<path d="M136.619 82.8899C139.424 84.4899 149.667 79.138 147.566 71.0165C147.566 71.0165 151.468 66.3382 151.027 61.1734C150.586 56.0085 147.031 54.0437 143.251 55.1477C139.921 56.1208 140.015 57.9453 140.015 57.9453C140.015 57.9453 124.266 59.7979 127.633 66.1791C121.217 73.1498 133.111 80.897 136.619 82.8899Z" fill="#161616"/>
<path d="M128.074 66.7122C128.074 66.7122 126.198 63.4748 123.459 65.29C124.744 65.3087 126.855 65.5239 128.074 66.7122Z" fill="#161616"/>
<path d="M150.521 64.5787C150.521 64.5787 153.954 56.8502 148.598 54.3613C150.408 56.8689 151.393 60.9109 150.521 64.5787Z" fill="#161616"/>
<path d="M144.827 72.4289C145.278 74.1599 146.413 75.6476 147.604 76.5271C149.396 77.8557 150.737 76.5458 150.606 74.5248C150.493 72.7003 149.424 69.8184 147.445 69.2758C145.503 68.7424 144.312 70.4453 144.827 72.4289Z" fill="#FFC3BD"/>
<path d="M148.523 156.18C148.523 156.18 140.7 208.707 136.414 228.394C131.714 249.942 106.501 321.248 106.501 321.248L94.166 318.582C94.166 318.582 111.791 260.477 115.74 230.349C118.77 207.21 124.745 156.189 124.745 156.189H148.523V156.18Z" fill="#585151"/>
<path d="M109.446 317.131C109.502 317.141 107.148 321.585 107.148 321.585L93.2656 318.591L94.4381 314.427L109.446 317.131Z" fill="#6BD3F0"/>
<path opacity="0.3" d="M143.58 174.893C134.537 176.661 135.494 210.298 136.582 227.599C139.19 215.369 143.008 191.838 145.615 175.136C145.015 174.837 144.34 174.743 143.58 174.893Z" fill="#161616"/>
<path d="M161.589 156.18C161.589 156.18 162.537 207.575 161.786 228.534C161.008 250.335 153.373 321.725 153.373 321.725H141.695C141.695 321.725 141.263 251.607 140.747 230.2C140.184 206.855 137.352 156.18 137.352 156.18H161.589Z" fill="#585151"/>
<path opacity="0.4" d="M226.395 119.942H202.617L201.285 144.072L225.035 144.699L226.395 119.942Z" fill="#161616"/>
<path d="M213.902 135.465C205.966 134.492 198.021 133.509 190.086 132.536C192.009 124.489 193.444 116.387 194.382 108.274C202.364 109.257 210.356 110.239 218.339 111.212C217.354 119.325 215.872 127.427 213.902 135.465Z" fill="#6BD3F0"/>
<path d="M155.623 317.085C155.68 317.085 154.967 321.922 154.967 321.922H140.765L140.381 317.609L155.623 317.085Z" fill="#6BD3F0"/>
<path d="M164.581 103.035C165.641 104.681 166.851 106.525 168.052 108.237C169.281 109.959 170.51 111.68 171.804 113.336C174.365 116.648 177.085 119.839 180.011 122.478C180.734 123.142 181.475 123.769 182.225 124.34L182.788 124.761C182.741 124.733 182.563 124.667 182.46 124.648C182.216 124.602 182.094 124.639 182.159 124.676C182.3 124.751 182.985 124.63 183.707 124.321C184.439 124.012 185.264 123.591 186.08 123.095C189.382 121.055 192.787 118.202 195.986 115.432L200.01 118.679C197.515 122.693 194.766 126.323 190.986 129.654C190.029 130.477 188.997 131.292 187.759 132.021C186.512 132.732 185.105 133.472 183.022 133.771C181.991 133.902 180.734 133.883 179.439 133.472C178.811 133.284 178.135 132.948 177.62 132.629L176.804 132.115C175.734 131.422 174.712 130.693 173.736 129.925C169.853 126.856 166.617 123.404 163.634 119.811C162.161 117.996 160.736 116.162 159.422 114.253C158.081 112.326 156.833 110.482 155.586 108.34L164.581 103.035Z" fill="#FFC3BD"/>
<path d="M151.046 107.161C148.842 116.377 165.557 125.397 165.557 125.397L176.419 112.709C176.419 112.709 171.476 105.233 165.322 99.348C157.734 92.0779 152.725 100.143 151.046 107.161Z" fill="#6BD3F0"/>
<path opacity="0.2" d="M151.046 107.161C148.842 116.377 165.557 125.397 165.557 125.397L176.419 112.709C176.419 112.709 171.476 105.233 165.322 99.348C157.734 92.0779 152.725 100.143 151.046 107.161Z" fill="#FAFAFA"/>
<path d="M194.897 117.35L197.458 109.144L204.202 112.494C204.202 112.494 203.218 118.482 198.312 119.52L194.897 117.35Z" fill="#FFC3BD"/>
<path d="M200.169 106.871L206.247 108.536L204.212 112.494L197.468 109.144L200.169 106.871Z" fill="#FFC3BD"/>
<defs>
<linearGradient id="paint0_linear_1240_1467" x1="71.5608" y1="318.956" x2="74.6986" y2="365.812" gradientUnits="userSpaceOnUse">
<stop stop-color="#2A1E56"/>
<stop offset="1" stop-color="#3D2C79"/>
</linearGradient>
</defs>
</svg>
