<svg width="42" height="40" viewBox="0 0 42 40" fill="none" xmlns="http://www.w3.org/2000/svg">
<path d="M0.00164503 19.9353C1.08243 19.9023 1.99543 19.508 2.70032 18.6716C3.40687 17.8336 3.55492 16.8314 3.50804 15.7517C3.98098 15.7517 4.42268 15.7517 4.92112 15.7517C4.84463 16.8174 4.99679 17.8171 5.69429 18.6584C6.38273 19.4874 7.2875 19.8759 8.37158 19.9435C8.37158 20.3972 8.37158 20.8418 8.37158 21.2946C5.90074 21.6072 4.8035 23.0704 4.89974 25.5227C4.4309 25.5227 3.9999 25.5227 3.50557 25.5227C3.5796 24.2038 3.30076 23.0094 2.23478 22.1301C1.58664 21.5956 0.834855 21.3466 0 21.3358C0.00164503 20.8681 0.00164503 20.4013 0.00164503 19.9353ZM5.4319 20.6289C5.09714 20.2908 4.56333 19.7521 4.20389 19.3884C3.85103 19.7414 3.30899 20.285 2.96271 20.6322C3.31557 20.991 3.84774 21.5313 4.19484 21.8843C4.55921 21.514 5.09138 20.9737 5.4319 20.6289Z" fill="#85E093"/>
<path d="M22.1355 16.7695C21.2784 17.1283 20.474 17.4648 19.6186 17.8236C19.4212 17.3303 19.2205 16.8561 19.0437 16.3727C18.9639 16.1533 18.852 16.0576 18.6077 16.0354C17.3961 15.9281 16.1722 15.8786 14.9804 15.6576C12.3582 15.1709 10.5026 13.6376 9.43994 11.1936C8.77452 9.66352 8.20123 8.09221 7.58927 6.53905C7.32771 5.87506 7.47741 5.5443 8.14612 5.30263C12.5013 3.7305 16.8558 2.16001 21.211 0.588708C21.6864 0.417143 22.1602 0.240629 22.6381 0.0764869C23.1069 -0.0851804 23.4285 -0.00434675 23.5765 0.451786C24.2288 2.46685 24.9954 4.46377 25.4198 6.52998C25.8763 8.74878 25.1327 10.7836 23.6909 12.5315C23.046 13.3134 22.379 14.0772 21.7094 14.8385C21.5532 15.0159 21.5178 15.1627 21.6107 15.3837C21.7958 15.8225 21.9513 16.2746 22.1355 16.7695ZM21.5022 11.9615C22.467 11.0723 23.1373 9.62887 23.2352 8.30502C23.4013 6.05982 22.6997 4.04476 21.6288 2.12537C21.6124 2.09568 21.5663 2.08166 21.5211 2.05196C21.1674 2.27467 20.8162 2.49572 20.4847 2.70523C20.7545 3.31808 21.0185 3.85999 21.2348 4.42006C21.637 5.46017 21.8887 6.53493 21.8723 7.66165C21.8542 8.94426 21.4355 10.0677 20.5563 10.9841C20.8787 11.3173 21.1814 11.6299 21.5022 11.9615Z" fill="#85E093"/>
<path d="M28.3983 18.1148C27.2862 18.4819 26.1627 18.853 25.0144 19.2325C25.1551 19.6779 25.2859 20.0919 25.4323 20.5571C26.5838 20.1827 27.7074 19.8173 28.8622 19.442C29.141 20.1876 29.4124 20.9135 29.7003 21.6839C28.599 22.0625 27.5322 22.4287 26.4201 22.8106C26.555 23.2494 26.6858 23.6734 26.8297 24.1435C27.9484 23.7715 29.0448 23.4078 30.1897 23.0275C30.4686 23.7649 30.7424 24.4891 31.0344 25.2636C29.9635 25.6175 28.9074 25.9664 27.8176 26.3268C27.9525 26.7607 28.0816 27.1739 28.2305 27.6515C29.3285 27.2803 30.4052 26.9166 31.5255 26.5388C31.6563 26.8836 31.8101 27.2061 31.8997 27.5443C32.0058 27.9485 31.7574 28.1761 31.4202 28.3427C29.8755 29.1032 28.3284 29.8604 26.7935 30.6407C26.2277 30.9286 25.7037 31.1142 25.021 30.988C23.7198 30.7471 22.3906 30.6556 21.0762 30.4791C20.9446 30.4617 20.7653 30.3141 20.7225 30.1879C19.9025 27.7621 19.0981 25.3313 18.2994 22.8988C18.2517 22.752 18.2443 22.5747 18.2739 22.4229C18.4129 21.7103 18.5791 21.0034 18.7214 20.2915C18.8003 19.894 19.0092 19.6523 19.3917 19.489C21.8543 18.4365 24.3079 17.3634 26.7648 16.2985C27.3537 16.0428 27.6975 16.1806 27.9303 16.7687C28.0915 17.1761 28.2428 17.5869 28.3966 17.9969C28.4065 18.0208 28.3983 18.0505 28.3983 18.1148Z" fill="#85E093"/>
<path d="M10.0301 26.3567C10.8461 28.8361 11.653 31.2875 12.4705 33.7703C8.78238 35.3622 5.12629 36.9401 1.42414 38.5378C1.41427 38.3926 1.4011 38.292 1.4011 38.1906C1.40028 35.4348 1.4011 32.679 1.39946 29.9233C1.39946 29.7146 1.38959 29.5521 1.6602 29.4523C4.4 28.4394 7.13241 27.4067 9.8681 26.3806C9.90347 26.3674 9.94542 26.3691 10.0301 26.3567Z" fill="#85E093"/>
<path d="M19.4762 30.7486C17.582 31.5702 15.7173 32.3777 13.8033 33.2075C12.9849 30.7453 12.1723 28.3013 11.353 25.8343C11.9049 25.6165 12.4108 25.4169 12.9594 25.2008C13.564 27.0138 14.1644 28.8136 14.7846 30.6727C15.1958 30.5366 15.589 30.4071 16.0406 30.257C15.4368 28.4119 14.8405 26.5865 14.2269 24.7108C15.172 24.3619 16.1006 24.0188 17.0926 23.6526C17.8879 26.0207 18.6775 28.3706 19.4762 30.7486Z" fill="#85E093"/>
<path d="M35.7278 11.4789C35.2327 11.4789 34.8008 11.4789 34.3123 11.4789C34.3871 10.4083 34.2399 9.40857 33.5448 8.56724C32.8506 7.72673 31.9376 7.32504 30.8486 7.2772C30.8486 6.79467 30.8486 6.35009 30.8486 5.90715C33.0513 5.77023 34.5623 4.07932 34.3402 1.69556C34.7836 1.69556 35.2244 1.69556 35.7188 1.69556C35.6801 2.7332 35.8059 3.73867 36.4977 4.58165C37.1911 5.42628 38.0967 5.83539 39.2038 5.88488C39.2038 6.33937 39.2038 6.78477 39.2038 7.26648C38.146 7.32999 37.2223 7.70776 36.5256 8.54662C35.8273 9.38795 35.6678 10.3868 35.7278 11.4789ZM35.0073 7.82406C35.3692 7.46444 35.9145 6.92252 36.2616 6.57692C35.9046 6.21482 35.3725 5.67537 35.0361 5.33389C34.6733 5.69682 34.1395 6.23131 33.7727 6.59836C34.1321 6.95552 34.67 7.48918 35.0073 7.82406Z" fill="#85E093"/>
<path d="M38.5058 25.5243C38.0403 25.5243 37.6085 25.5243 37.1347 25.5243C37.2285 23.0861 36.1469 21.6105 33.6538 21.2938C33.6538 20.8632 33.6538 20.4293 33.6538 19.9732C36.1115 19.668 37.2219 18.2163 37.1322 15.7517C37.5986 15.7517 38.0395 15.7517 38.5206 15.7517C38.482 16.8124 38.6193 17.8171 39.3193 18.6568C40.0094 19.4841 40.9092 19.8792 41.9999 19.9402C41.9999 20.3988 41.9999 20.8533 41.9999 21.3078C39.8819 21.4538 38.3397 22.9838 38.5058 25.5243ZM37.8552 19.376C37.4793 19.7563 36.9431 20.2982 36.6058 20.6388C36.9562 20.9943 37.4859 21.5305 37.8569 21.9058C38.2188 21.5288 38.7419 20.9828 39.0709 20.6405C38.7238 20.2784 38.1974 19.7315 37.8552 19.376Z" fill="#85E093"/>
<path d="M33.3941 36.4482C30.4231 37.6343 27.4596 38.8179 24.5002 39.9999C24.1152 39.3161 24.1407 39.1231 24.6639 38.6257C24.9123 38.3898 25.2026 38.1869 25.405 37.9164C26.5121 36.4416 28.1916 36.0283 29.8202 35.6448C30.753 35.4254 31.7795 35.573 32.7615 35.6176C33.195 35.6382 33.3176 36.0407 33.3941 36.4482Z" fill="#85E093"/>
<path d="M7.06601 9.04004C7.78572 10.6699 8.28581 12.3493 9.39127 13.7284C9.37646 13.768 9.36084 13.8076 9.34603 13.8463C8.63209 13.7276 7.88771 13.6995 7.2116 13.4694C6.26899 13.1477 5.81908 12.355 5.75163 11.3768C5.68172 10.349 6.13657 9.58773 7.06601 9.04004Z" fill="#85E093"/>
<path d="M27.0082 6.53582C26.5411 4.97029 26.0862 3.446 25.6313 1.92171C26.4062 1.65364 27.3924 2.05533 27.9015 2.87686C28.3909 3.66705 28.3999 4.49601 27.9327 5.2895C27.6646 5.74398 27.3035 6.14238 27.0082 6.53582Z" fill="#85E093"/>
<path d="M26.4147 35.1764C26.1111 34.2865 25.8183 33.4278 25.5601 32.6714C26.3242 32.3712 27.0505 32.0858 27.8294 31.7798C28.1839 32.5972 28.5491 33.441 28.9348 34.3302C28.0877 34.6147 27.2684 34.8894 26.4147 35.1764Z" fill="#85E093"/>
</svg>
