<svg width="42" height="40" viewBox="0 0 42 40" fill="none" xmlns="http://www.w3.org/2000/svg">
<path d="M9.31606 26.2916C9.71115 26.2916 9.99052 26.2916 10.2699 26.2916C11.8042 26.2916 13.3384 26.2916 14.8736 26.2916C16.4232 26.2916 17.1583 25.6777 17.4711 24.0086C18.019 24.1484 18.5741 24.2452 19.0976 24.4325C19.9032 24.7212 20.7178 24.8473 21.5721 24.839C23.8288 24.8189 26.0854 24.8336 28.3412 24.8317C29.2977 24.8308 29.7814 24.4581 30.0156 23.5153C30.7118 20.7199 31.4043 17.9227 32.0905 15.1245C32.3708 13.9826 31.7298 13.165 30.5653 13.1604C29.5871 13.1567 28.6097 13.1641 27.6315 13.1586C26.6785 13.1531 26.0818 12.5538 26.0782 11.5937C26.0728 9.93745 26.0836 8.2803 26.0737 6.62406C26.0665 5.49493 25.3025 4.59875 24.2275 4.4261C23.553 4.3183 23.1914 4.62342 23.1896 5.31588C23.1851 6.63776 23.2077 7.96056 23.1805 9.28245C23.1155 12.3848 20.6716 15.0176 17.6338 15.2862C17.5769 15.2917 17.5181 15.2871 17.5018 15.2871C17.3418 14.8852 17.2433 14.4777 17.0326 14.1425C16.5959 13.4491 15.9278 13.1577 15.1141 13.1586C10.3151 13.1641 5.51609 13.1613 0.717991 13.1613C0.538074 13.1613 0.359061 13.1613 0.18728 13.1613C-0.710499 10.3385 1.73782 5.01259 5.00437 2.48484C9.15965 -0.730807 16.3301 -1.08891 20.9781 3.07681C21.8606 2.51041 22.6923 1.87094 23.61 1.40504C30.3809 -2.02985 39.3116 0.930912 41.5195 9.21667C42.7581 13.8666 41.5918 18.0341 38.1408 21.3466C34.4231 24.9139 30.53 28.2949 26.7138 31.7563C25.147 33.1778 23.5775 34.5965 22.0088 36.0161C21.2946 36.6629 20.7512 36.6593 20.0333 36.0097C16.6393 32.9357 13.2462 29.8626 9.85219 26.7885C9.7003 26.6515 9.55203 26.5108 9.31606 26.2916ZM12.3231 1.51832C8.51502 1.4023 4.56859 3.87706 3.05149 6.94197C3.24226 7.05708 3.43212 7.17675 3.62651 7.28911C3.82903 7.40605 4.03426 7.51658 4.23859 7.62895C6.14264 4.62159 8.83236 3.07863 12.3231 2.92242C12.3231 2.44921 12.3231 2.00066 12.3231 1.51832ZM3.56593 9.02757C3.1193 8.854 2.69618 8.68956 2.22062 8.50412C2.0615 9.04401 1.91593 9.54006 1.75681 10.0809C2.2613 10.1887 2.70522 10.2837 3.16993 10.3833C3.30736 9.91461 3.43212 9.48708 3.56593 9.02757ZM38.8071 18.3374C38.365 18.0496 37.9817 17.8002 37.5911 17.5454C37.3108 17.9272 37.0577 18.2735 36.7928 18.6352C37.1662 18.9595 37.5107 19.2582 37.885 19.5835C38.2005 19.1559 38.4844 18.7732 38.8071 18.3374ZM18.8336 32.108C18.8336 31.6074 18.8336 31.1589 18.8336 30.6948C18.3553 30.6948 17.9006 30.6948 17.4431 30.6948C17.4431 31.1817 17.4431 31.6412 17.4431 32.108C17.9177 32.108 18.3626 32.108 18.8336 32.108ZM20.3254 30.6884C20.3254 31.1908 20.3254 31.6394 20.3254 32.0989C20.8046 32.0989 21.2593 32.0989 21.7132 32.0989C21.7132 31.6102 21.7132 31.1506 21.7132 30.6884C21.2367 30.6884 20.7919 30.6884 20.3254 30.6884ZM23.2248 30.6847C23.2248 31.1936 23.2248 31.654 23.2248 32.1035C23.7058 32.1035 24.1498 32.1035 24.6054 32.1035C24.6054 31.6193 24.6054 31.1598 24.6054 30.6847C24.1335 30.6847 23.6896 30.6847 23.2248 30.6847ZM38.7032 15.0925C38.5386 15.5456 38.3967 15.9366 38.2439 16.3569C38.6878 16.5615 39.1019 16.7515 39.5603 16.9634C39.7474 16.4391 39.912 15.9796 40.0856 15.4954C39.5928 15.352 39.1652 15.2268 38.7032 15.0925ZM39.0947 12.436C39.0594 12.9 39.0287 13.3166 38.9952 13.7615C39.4789 13.83 39.9282 13.8949 40.4237 13.9652C40.4617 13.4308 40.4969 12.9439 40.5331 12.436C40.0187 12.436 39.5747 12.436 39.0947 12.436Z" fill="#A649F0"/>
<path d="M10.159 24.8318C9.37968 24.8318 8.62927 24.8364 7.87976 24.8264C7.77217 24.8245 7.64017 24.7761 7.56061 24.703C6.10681 23.362 4.60147 22.0711 3.22722 20.6515C1.7246 19.1003 0.85394 17.1654 0.376571 15.0534C0.35668 14.9647 0.345831 14.8734 0.33679 14.7829C0.332269 14.7409 0.340406 14.698 0.343119 14.6377C3.60876 14.6377 6.86716 14.6377 10.159 14.6377C10.159 18.0196 10.159 21.3969 10.159 24.8318Z" fill="#A649F0"/>
<path d="M11.5068 30.2473C12.3331 30.9964 13.1016 31.6934 13.8882 32.406C13.2544 33.5032 12.6378 34.5756 12.0112 35.6417C11.9579 35.7331 11.8404 35.8308 11.7427 35.8436C10.5104 36.009 9.27632 36.1597 7.95361 36.3251C9.15336 34.2723 10.316 32.2836 11.5068 30.2473Z" fill="#A649F0"/>
<path d="M30.5407 30.25C31.7224 32.2698 32.8806 34.2495 34.0894 36.315C33.2115 36.2081 32.4186 36.1131 31.6266 36.0153C31.3282 35.9779 31.0299 35.8902 30.7342 35.902C30.2541 35.9212 30.0209 35.6764 29.8066 35.2808C29.2895 34.3225 28.7271 33.3898 28.1611 32.4087C28.9441 31.698 29.7234 30.9909 30.5407 30.25Z" fill="#A649F0"/>
<path d="M13.0487 24.8108C12.5704 24.8108 12.1256 24.8108 11.6582 24.8108C11.6582 21.4234 11.6582 18.0579 11.6582 14.655C12.1057 14.655 12.5614 14.655 13.0487 14.655C13.0487 18.0223 13.0487 21.3987 13.0487 24.8108Z" fill="#A649F0"/>
<path d="M14.5518 14.6203C14.795 14.6203 15.0047 14.6111 15.2127 14.6221C15.6855 14.6458 15.9631 14.9181 15.964 15.4059C15.9703 18.289 15.9712 21.1721 15.9631 24.0562C15.9622 24.5403 15.6792 24.808 15.2027 24.8308C14.9948 24.8409 14.7868 24.8327 14.5518 24.8327C14.5518 21.4261 14.5518 18.0506 14.5518 14.6203Z" fill="#A649F0"/>
<path d="M14.6275 40.0001C14.1338 38.8353 13.6728 37.7546 13.2216 36.6702C13.1936 36.6017 13.2098 36.4894 13.2487 36.4218C13.8156 35.4269 14.3906 34.4357 14.9873 33.4016C15.764 34.105 16.5062 34.7774 17.2738 35.4726C16.4032 36.9617 15.5433 38.4324 14.6275 40.0001Z" fill="#A649F0"/>
<path d="M27.0599 33.4016C27.6584 34.4394 28.2397 35.4452 28.8156 36.4556C28.8473 36.5104 28.8518 36.6063 28.8274 36.6657C28.3726 37.7519 27.9124 38.8353 27.4188 39.9982C26.5138 38.4525 25.654 36.9836 24.7725 35.4753C25.5301 34.7884 26.2751 34.1133 27.0599 33.4016Z" fill="#A649F0"/>
</svg>
