<svg width="42" height="40" viewBox="0 0 42 40" fill="none" xmlns="http://www.w3.org/2000/svg">
<path d="M0 17.4644C0 16.9984 0 16.5333 0 16.0672C0.0246588 15.9775 0.0591812 15.8886 0.0715106 15.7964C0.421666 13.2424 1.69324 11.2746 3.84102 9.87247C4.21666 9.62711 4.74436 9.52008 4.98601 9.18992C5.23671 8.84659 5.20877 8.30648 5.33288 7.86106C6.65706 3.11288 12.2316 0.582767 16.6439 2.74732C17.1157 2.97867 17.382 2.90622 17.7634 2.58347C20.277 0.451034 23.2097 -0.401119 26.4301 0.17604C30.6542 0.932685 33.4892 3.43727 34.8955 7.51773C34.9917 7.79601 35.1298 7.93269 35.4084 8.01255C40.8728 9.57854 43.568 15.7058 41.043 20.8047C38.8919 25.1478 33.6741 27.0522 29.2577 25.0951C28.993 24.9782 28.813 24.984 28.6223 25.2022C28.4974 25.3454 28.3437 25.4648 28.1974 25.5883C26.2312 27.2374 23.97 28.2065 21.4145 28.3687C17.6516 28.6083 14.4427 27.3428 11.8297 24.6069C11.6291 24.3969 11.4647 24.3492 11.1959 24.4644C9.97532 24.9881 8.68237 25.1832 7.38285 25.0004C3.92651 24.513 1.54775 22.635 0.402761 19.2955C0.200558 18.7085 0.130692 18.0762 0 17.4644Z" fill="#8B92FE"/>
<path d="M29.0539 36.7166C26.565 36.7249 24.5356 34.7085 24.5298 32.2196C24.524 29.7339 26.5395 27.7036 29.0284 27.6871C31.4967 27.6706 33.5459 29.7117 33.5525 32.1941C33.5582 34.6855 31.5461 36.7084 29.0539 36.7166Z" fill="#8B92FE"/>
<path d="M38.3142 40C36.2947 40.0033 34.6351 38.3525 34.6212 36.3279C34.608 34.3099 36.3218 32.5966 38.3274 32.6221C40.3535 32.6476 42.0057 34.3124 41.9999 36.3214C41.9942 38.3418 40.3363 39.9976 38.3142 40Z" fill="#8B92FE"/>
</svg>
