<svg width="40" height="40" viewBox="0 0 40 40" fill="none" xmlns="http://www.w3.org/2000/svg">
<path d="M0.000488281 5.85549C0.224381 5.40458 0.603276 5.14311 1.04949 4.93409C1.8018 4.58103 2.54863 4.2131 3.27746 3.81463C3.49665 3.69486 3.70411 3.48192 3.8231 3.26116C4.26071 2.44936 4.66622 1.62033 5.07016 0.7913C5.29875 0.32003 5.63538 0.00845912 6.17632 0.000630718C6.73527 -0.00719769 7.0852 0.308287 7.32161 0.792865C7.74278 1.65634 8.16865 2.51825 8.6133 3.37076C8.6955 3.52889 8.8505 3.67842 9.00942 3.7614C9.83766 4.19509 10.6745 4.61313 11.5161 5.02099C12.021 5.26523 12.3866 5.60185 12.3795 6.20229C12.3725 6.7816 12.0202 7.11195 11.5263 7.34994C10.6957 7.74997 9.86976 8.16018 9.05639 8.59387C8.86772 8.69407 8.68924 8.87883 8.58903 9.06827C8.15142 9.89495 7.73887 10.7342 7.32866 11.5749C7.09302 12.0579 6.74701 12.3789 6.18649 12.3734C5.62755 12.3687 5.29014 12.0462 5.05607 11.5593C4.64508 10.7044 4.21922 9.85738 3.77769 9.01817C3.68923 8.84986 3.52562 8.68859 3.35653 8.60013C2.57525 8.18914 1.78536 7.79303 0.98765 7.41413C0.550042 7.20589 0.186022 6.94286 0.000488281 6.4802C0.000488281 6.27197 0.000488281 6.06373 0.000488281 5.85549Z" fill="#FF7B8B"/>
<path d="M0.000782841 33.5141C0.185533 33.0499 0.550337 32.7884 0.987945 32.5809C1.79818 32.1973 2.59981 31.7934 3.3944 31.3785C3.54235 31.3018 3.68405 31.1569 3.76077 31.0082C4.2109 30.1432 4.64694 29.2711 5.07437 28.3951C5.30531 27.9207 5.65054 27.6216 6.19149 27.6209C6.73321 27.6201 7.07923 27.9207 7.31095 28.3935C7.73368 29.2578 8.16033 30.1205 8.60733 30.9722C8.69579 31.1413 8.85941 31.3033 9.0285 31.3918C9.86849 31.8317 10.7202 32.2514 11.5727 32.6678C12.0542 32.9035 12.3798 33.2456 12.3783 33.8076C12.3767 34.3682 12.055 34.7087 11.5696 34.9435C10.7155 35.3577 9.86692 35.782 9.02693 36.2235C8.85784 36.3119 8.69501 36.4732 8.60577 36.6415C8.19399 37.4236 7.79787 38.2142 7.41898 39.0127C7.21153 39.4496 6.94771 39.8136 6.48505 39.9999C6.30265 39.9999 6.12025 39.9999 5.93785 39.9999C5.48067 39.8363 5.20198 39.5059 4.99765 39.0722C4.61485 38.2612 4.21325 37.458 3.79208 36.6666C3.69109 36.4771 3.50713 36.2971 3.31768 36.1961C2.57241 35.7984 1.81541 35.4211 1.04979 35.0618C0.60357 34.8527 0.223892 34.5913 0 34.1396C0.000782841 33.9305 0.000782841 33.7223 0.000782841 33.5141Z" fill="#FF7B8B"/>
<path d="M33.5184 39.9983C33.0558 39.8128 32.7927 39.4488 32.5853 39.012C32.2173 38.237 31.8377 37.4674 31.4298 36.7128C31.3163 36.5022 31.1198 36.2971 30.91 36.1851C30.0857 35.7436 29.2441 35.3334 28.4026 34.9248C27.9289 34.6946 27.6275 34.3509 27.626 33.81C27.6244 33.2691 27.9211 32.9223 28.3955 32.6913C29.2598 32.2701 30.1217 31.8427 30.9734 31.3957C31.1425 31.3073 31.3069 31.1452 31.3961 30.9761C31.8424 30.1244 32.269 29.2625 32.691 28.3982C32.9219 27.9254 33.2656 27.6224 33.8065 27.6209C34.3467 27.6193 34.6958 27.9152 34.9275 28.3888C35.3495 29.2531 35.7761 30.115 36.2231 30.9667C36.3116 31.1358 36.4729 31.2994 36.6412 31.3879C37.4812 31.8286 38.3329 32.2482 39.1854 32.6639C39.6661 32.8988 39.998 33.237 39.9996 33.7975C40.0019 34.3564 39.6809 34.7016 39.1971 34.9373C38.3791 35.3357 37.5735 35.76 36.7523 36.1523C36.4791 36.283 36.2959 36.4529 36.1652 36.73C35.7934 37.5167 35.3792 38.2839 35.0082 39.0715C34.8038 39.5052 34.5236 39.834 34.068 39.9991C33.8832 39.9983 33.7008 39.9983 33.5184 39.9983Z" fill="#FF7B8B"/>
<path d="M19.9895 7.52327C26.8394 7.49978 32.443 13.0916 32.4751 19.9837C32.5064 26.825 26.8989 32.445 20.0154 32.4708C13.1702 32.4959 7.55019 26.8868 7.52984 20.0096C7.51027 13.1589 13.1099 7.54754 19.9895 7.52327ZM19.9715 25.0198C22.7005 24.9845 25.0451 24.0545 27.0046 22.1765C27.5447 21.659 27.5886 20.9286 27.1228 20.4417C26.6484 19.9462 25.9524 19.9642 25.3856 20.4863C22.2026 23.4235 17.8132 23.4188 14.6083 20.4754C14.0462 19.9595 13.3401 19.9501 12.8719 20.4527C12.414 20.9451 12.4672 21.6684 13.0121 22.1874C14.9653 24.049 17.2973 24.9783 19.9715 25.0198ZM16.2092 14.5336C15.4569 14.5618 14.7766 14.8123 14.2137 15.3493C13.7292 15.8112 13.6822 16.515 14.0987 16.9988C14.5049 17.4708 15.1899 17.5303 15.7176 17.1389C16.1849 16.7921 16.2945 16.7913 16.7431 17.1287C17.2887 17.5397 17.9745 17.4771 18.3855 16.9784C18.8035 16.4711 18.7503 15.8026 18.2469 15.3337C17.6786 14.8045 16.9983 14.5532 16.2092 14.5336ZM23.7511 14.5336C22.9698 14.5626 22.2793 14.8256 21.7141 15.3783C21.246 15.8355 21.2162 16.5205 21.6327 16.998C22.0359 17.4606 22.7021 17.5303 23.2195 17.1624C23.7566 16.7811 23.7988 16.7811 24.3053 17.1546C24.8126 17.528 25.496 17.4653 25.8929 17.0082C26.3086 16.5298 26.2867 15.8409 25.8295 15.3861C25.258 14.8178 24.5551 14.5555 23.7511 14.5336Z" fill="#FF7B8B"/>
<path d="M33.8006 12.3768C33.2965 12.3556 32.9481 12.1059 32.7258 11.6581C32.3038 10.808 31.8936 9.95153 31.4419 9.11781C31.3167 8.88687 31.0928 8.66924 30.861 8.54399C30.061 8.11108 29.2406 7.71652 28.4225 7.31884C27.9379 7.08321 27.6201 6.73719 27.6256 6.17589C27.631 5.63417 27.9356 5.2952 28.41 5.06504C29.264 4.6517 30.115 4.23054 30.9542 3.78823C31.1335 3.69351 31.3073 3.52206 31.402 3.34279C31.8388 2.51533 32.2553 1.67613 32.6624 0.83379C32.9019 0.337469 33.2424 -0.00541514 33.8225 6.47455e-05C34.3823 0.00554463 34.7181 0.335903 34.9514 0.819699C35.3522 1.65108 35.7608 2.47854 36.1945 3.29269C36.301 3.4931 36.4904 3.68646 36.6901 3.79371C37.516 4.23445 38.3567 4.64779 39.1983 5.05721C39.6836 5.29285 40.0023 5.63886 39.9984 6.1986C39.9952 6.75989 39.6617 7.09651 39.1811 7.33137C38.3403 7.74236 37.4995 8.15491 36.6728 8.59331C36.4834 8.69351 36.3026 8.87591 36.2024 9.06536C35.7538 9.91631 35.3397 10.7845 34.9052 11.6425C34.6539 12.1388 34.2758 12.3815 33.8006 12.3768Z" fill="#FF7B8B"/>
</svg>
