<svg width="40" height="40" viewBox="0 0 40 40" fill="none" xmlns="http://www.w3.org/2000/svg">
<path d="M2.69793 30.6512C3.17491 29.6034 3.17491 29.6034 1.94896 28.5278C2.07418 28.2826 2.20898 28.0302 2.33501 27.773C2.98029 26.4537 2.6405 25.3685 1.36509 24.652C0.984621 24.4386 0.610533 24.2125 0.233254 23.9927C-0.0507023 23.8279 -0.0634644 23.6241 0.13036 23.3757C0.350505 23.0938 0.558687 22.8032 0.774845 22.5182C1.97209 20.9417 2.99943 19.2618 3.85928 17.4791C4.33068 16.5022 4.17594 15.5906 3.35358 14.8692C2.31267 13.956 2.34059 14.0133 2.92844 12.7729C3.51869 11.5276 3.77633 10.19 4.17354 8.88987C5.44816 4.71627 8.20477 2.12548 12.5 1.18997C15.1729 0.607157 17.8593 0.129446 20.5991 0.0307192C22.3515 -0.0321794 24.0608 0.245689 25.7207 0.814962C25.7797 0.834866 25.8356 0.865121 25.9201 0.902542C25.6417 1.24092 25.4136 1.53551 24.9039 1.46306C24.4357 1.39618 23.95 1.43837 23.473 1.45271C22.6395 1.47739 22.1513 1.89539 21.9806 2.71466C21.8618 3.28473 21.7413 3.854 21.6392 4.42646C21.6002 4.647 21.4709 4.72821 21.2899 4.84127C20.6071 5.26723 20.032 5.15815 19.4601 4.62949C19.2009 4.38983 18.8747 4.21945 18.57 4.03235C17.939 3.64301 17.2818 3.70591 16.7474 4.21388C16.3534 4.58808 15.9697 4.97423 15.5924 5.36516C15.0508 5.92727 14.9878 6.58253 15.4161 7.24655C15.732 7.7362 16.0566 8.22108 16.394 8.6956C16.5376 8.89863 16.5217 9.05787 16.4634 9.3023C16.2784 10.0826 15.7846 10.374 15.0357 10.4185C14.6823 10.44 14.333 10.5483 13.9844 10.6287C13.2394 10.7991 12.8286 11.3015 12.8127 12.069C12.8023 12.5858 12.8047 13.1025 12.8111 13.6184C12.8222 14.4656 13.2418 14.9703 14.0809 15.1455C14.6512 15.2649 15.2287 15.3557 15.7942 15.495C15.9402 15.5309 16.0806 15.6821 16.1747 15.8151C16.6477 16.4831 16.5145 17.0858 15.9801 17.667C15.7495 17.9178 15.5836 18.2291 15.4002 18.5197C14.9942 19.1638 15.0548 19.8151 15.5836 20.3701C15.9585 20.7634 16.3438 21.1479 16.7378 21.5214C17.2834 22.0373 17.9558 22.1002 18.5939 21.6941C19.1084 21.3669 19.6013 21.0062 20.1222 20.6901C20.2506 20.6121 20.458 20.6145 20.6175 20.6432C21.396 20.7849 21.7621 21.2634 21.7876 22.054C21.798 22.3924 21.9128 22.7292 21.9846 23.0652C22.1513 23.8422 22.6786 24.2825 23.4682 24.2945C23.9859 24.3024 24.5035 24.3016 25.0212 24.2945C25.8108 24.2833 26.3484 23.8438 26.5128 23.0715C26.6332 22.5023 26.7433 21.9306 26.8494 21.3581C26.89 21.1368 26.9993 21.0237 27.2043 20.8971C27.8982 20.4672 28.4717 20.6073 29.0444 21.1169C29.2989 21.3438 29.61 21.5094 29.9003 21.6941C30.5392 22.0986 31.2108 22.0405 31.7556 21.5222C32.1488 21.1471 32.5341 20.7634 32.9098 20.3709C33.4394 19.8183 33.5064 19.1686 33.0948 18.5213C32.7678 18.0078 32.4264 17.5022 32.0738 17.0062C31.9406 16.8191 31.9797 16.6734 32.026 16.4648C32.2086 15.6479 32.7454 15.3541 33.5207 15.3159C33.8222 15.3008 34.1373 15.2506 34.4141 15.1375C34.8265 14.9687 35.2109 14.7299 35.6879 14.4783C35.711 14.5484 35.8131 14.7116 35.8131 14.8748C35.8187 16.8032 35.3194 18.593 34.249 20.2029C33.7289 20.9855 33.1626 21.7379 32.6003 22.4919C30.2624 25.6273 29.4121 29.1217 30.004 32.9824C30.3119 34.9912 30.7418 36.9618 31.6311 38.8057C31.813 39.1823 32.0332 39.5406 32.2653 39.9602C31.9502 39.9602 31.6774 39.9594 31.4046 39.9602C26.4019 39.9722 21.3992 39.9825 16.3956 40C16.1874 40.0008 16.063 39.9785 15.9912 39.7405C15.523 38.2006 14.7573 36.8209 13.698 35.6043C13.6645 35.5661 13.6422 35.5175 13.5912 35.4371C14.234 35.2149 14.8562 34.9984 15.4799 34.7842C16.4858 34.4379 17.4644 34.0334 18.3171 33.3813C19.149 32.746 19.7536 31.9705 19.7752 30.8638C19.7848 30.3686 19.5391 30.0565 19.1219 30.0294C18.7103 30.0023 18.3905 30.2834 18.361 30.7675C18.3219 31.4108 17.9861 31.8829 17.4876 32.2078C16.9149 32.5812 16.3151 32.9562 15.6738 33.1759C12.8191 34.156 9.94599 35.0836 7.07692 36.0215C6.64939 36.1608 6.2075 36.2579 5.7696 36.3615C5.00627 36.5422 4.3554 36.2054 4.16637 35.449C4.04433 34.9602 3.95101 34.4156 4.04034 33.9323C4.36737 32.16 4.19508 31.656 2.69793 30.6512ZM5.26151 10.2625C5.24077 10.69 5.46491 10.9838 5.82942 11.0571C6.18517 11.1295 6.51299 10.9504 6.63663 10.5802C6.77462 10.1678 6.85916 9.73622 7.00992 9.32857C7.78282 7.2354 8.95214 5.46548 11.1416 4.62869C12.0278 4.29031 12.961 4.07534 13.8735 3.80782C14.3114 3.67964 14.5419 3.34842 14.4534 2.95829C14.3617 2.55702 14.0203 2.34125 13.5784 2.42087C13.2793 2.47501 12.9826 2.54428 12.6858 2.61275C9.95237 3.24731 7.74533 4.59764 6.40452 7.15737C5.87888 8.16136 5.48804 9.20516 5.26151 10.2625ZM5.64996 13.585C5.64996 13.2092 5.32293 12.878 4.94485 12.8716C4.56359 12.8652 4.23656 13.1813 4.22619 13.5651C4.21502 13.9703 4.53806 14.2968 4.94406 14.2912C5.33091 14.2864 5.64916 13.9671 5.64996 13.585Z" fill="#58FB9B"/>
<path d="M25.0857 2.87082C25.2484 3.66701 25.4231 4.43931 25.5594 5.21877C25.6376 5.66464 25.8602 5.90588 26.2973 6.04123C26.775 6.18853 27.2377 6.39792 27.6867 6.62165C28.0465 6.80079 28.3575 6.80557 28.6909 6.57706C29.357 6.12085 30.0326 5.67817 30.6962 5.2347C31.0942 5.64075 31.4811 6.03407 31.8926 6.45445C31.4787 7.0699 31.0575 7.72676 30.6045 8.36132C30.3325 8.7411 30.3141 9.08027 30.5375 9.49827C30.7791 9.94971 30.957 10.4394 31.1269 10.9242C31.2442 11.2578 31.4316 11.4633 31.7849 11.5309C32.5132 11.6703 33.2374 11.8343 33.9681 11.9641C34.205 12.0063 34.2696 12.1058 34.2624 12.3303C34.248 12.7786 34.2584 13.2284 34.2584 13.7141C33.4424 13.8797 32.644 14.0524 31.8408 14.2005C31.4571 14.2714 31.2473 14.4744 31.1197 14.8415C30.9419 15.3518 30.7329 15.8542 30.4936 16.3383C30.3197 16.6902 30.3365 16.984 30.555 17.3009C31.0128 17.9657 31.4555 18.6409 31.8894 19.2882C31.4818 19.6894 31.0894 20.0756 30.6675 20.4912C30.0653 20.0883 29.408 19.6679 28.7731 19.2173C28.3926 18.9474 28.0496 18.9251 27.6317 19.1472C27.2026 19.3757 26.7399 19.5533 26.2765 19.7046C25.8641 19.8391 25.6376 20.0732 25.5626 20.5063C25.4262 21.2874 25.2532 22.0621 25.0928 22.8519C24.5337 22.8519 23.9929 22.8519 23.4066 22.8519C23.2527 22.0963 23.078 21.3391 22.9504 20.574C22.8706 20.0979 22.6393 19.8336 22.1735 19.6886C21.6838 19.5358 21.2132 19.3136 20.7481 19.0915C20.4275 18.9386 20.1459 18.9394 19.8524 19.1401C19.239 19.5581 18.6153 19.9601 18.0051 20.3821C17.8296 20.5031 17.7195 20.5 17.5688 20.3423C17.2489 20.0079 16.9076 19.6934 16.5606 19.3566C17.02 18.6719 17.4491 18.0071 17.9062 17.3606C18.1678 16.9912 18.1758 16.6576 17.9644 16.2563C17.7323 15.8136 17.5441 15.3431 17.3869 14.8685C17.2601 14.4856 17.0479 14.2698 16.6467 14.1958C15.8539 14.0493 15.0666 13.8765 14.2419 13.7069C14.2419 13.2053 14.2283 12.7172 14.2538 12.2316C14.2586 12.1424 14.4118 12.0094 14.5171 11.9856C15.1887 11.8335 15.8635 11.691 16.5422 11.5747C17.0152 11.4935 17.2824 11.257 17.4188 10.7865C17.5504 10.3335 17.7475 9.89238 17.9684 9.47279C18.171 9.08744 18.1718 8.76259 17.919 8.40351C17.4627 7.75462 17.032 7.08742 16.6029 6.44729C17.0136 6.04601 17.4069 5.66145 17.828 5.24982C18.4414 5.65986 19.1074 6.0906 19.7575 6.54442C20.1132 6.79363 20.4387 6.80716 20.8295 6.60971C21.2881 6.37802 21.7715 6.18773 22.2589 6.02372C22.6425 5.89394 22.8539 5.66304 22.9273 5.27212C23.0581 4.56988 23.2112 3.87242 23.338 3.16939C23.3787 2.94327 23.4713 2.85729 23.7042 2.86525C24.1532 2.88197 24.6039 2.87082 25.0857 2.87082ZM19.2454 12.8908C19.259 15.6568 21.5019 17.8757 24.2761 17.867C27.0375 17.8582 29.2636 15.6042 29.2469 12.8335C29.2301 10.0954 26.9776 7.8637 24.2378 7.87087C21.4772 7.87803 19.2319 10.1352 19.2454 12.8908Z" fill="#58FB9B"/>
<path d="M31.5488 0.0601343C31.6166 0.0402297 31.6413 0.0282869 31.6669 0.0266945C32.6488 -0.0433698 32.6495 -0.0433698 32.8513 0.91046C32.9168 1.22097 32.9909 1.53069 33.0412 1.84359C33.0978 2.19869 33.3012 2.39773 33.6314 2.51875C34.0406 2.66844 34.449 2.82847 34.839 3.02115C35.1629 3.18118 35.4428 3.16287 35.734 2.96542C36.2373 2.62385 36.7446 2.28866 37.2359 1.96063C37.5095 2.24009 37.7647 2.50044 38.0367 2.77831C37.7297 3.23612 37.405 3.73533 37.0628 4.22339C36.8307 4.5546 36.8251 4.86511 37.0158 5.2226C37.1952 5.55859 37.3468 5.91608 37.4577 6.28073C37.5861 6.70191 37.8437 6.91131 38.2712 6.98058C38.8328 7.07214 39.3887 7.19714 39.9367 7.30622C39.955 7.34682 39.9742 7.36991 39.9758 7.39459C40.0412 8.42167 40.0412 8.42327 39.0561 8.6247C37.6052 8.92088 37.7456 8.75766 37.196 10.0841C36.877 10.8548 36.8507 11.405 37.3867 12.0204C37.6451 12.3174 37.8341 12.6733 38.0511 12.9966C37.7823 13.2681 37.5263 13.5268 37.2535 13.8015C36.7892 13.491 36.3059 13.19 35.8512 12.8501C35.7459 12.7712 35.6925 12.5595 35.6965 12.4114C35.7124 11.8636 35.6462 11.3524 35.1988 10.9488C35.852 10.2768 36.2628 9.51165 36.4367 8.61435C37.0038 5.68518 34.2815 3.10634 31.3454 3.6573C30.1984 3.87227 29.3202 4.4304 28.4221 5.04585C28.2099 5.19155 28.0536 5.15811 27.8151 5.09999C27.0614 4.91527 26.7359 4.45667 26.7112 3.71064C26.7024 3.4495 26.6187 3.19074 26.5644 2.93198C26.4432 2.35315 26.4416 2.35315 26.9792 1.95187C27.4673 2.27592 27.9699 2.59439 28.4548 2.93834C28.7858 3.17322 29.0953 3.18675 29.455 2.99965C29.806 2.81732 30.1737 2.6565 30.5502 2.54025C30.9442 2.41844 31.1404 2.17321 31.2114 1.78547C31.3167 1.21221 31.4348 0.642146 31.5488 0.0601343Z" fill="#58FB9B"/>
<path d="M32.6561 5.08813C33.8852 5.28718 34.7881 6.17095 35.021 7.35806C35.2404 8.47909 34.69 9.71397 33.7137 10.2912C33.2838 10.5452 32.4965 10.2331 32.2533 9.81748C31.8919 9.20202 31.9741 8.7068 32.4343 8.19724C32.6624 7.94485 32.826 7.63354 33.0158 7.34691C33.5279 6.57143 33.4704 5.96474 32.8244 5.28081C32.7797 5.23304 32.7382 5.18208 32.6561 5.08813Z" fill="#58FB9B"/>
<path d="M27.8149 12.8595C27.8197 14.8356 26.2404 16.4288 24.2703 16.436C22.2778 16.4431 20.673 14.8476 20.6777 12.8635C20.6825 10.9041 22.2914 9.29736 24.2479 9.29736C26.2125 9.29736 27.8102 10.8929 27.8149 12.8595ZM24.2535 12.1557C23.8754 12.1525 23.5476 12.4733 23.5388 12.8555C23.5301 13.2456 23.8316 13.5633 24.2224 13.5761C24.634 13.5896 24.953 13.2783 24.9506 12.8667C24.9491 12.4781 24.6356 12.1596 24.2535 12.1557Z" fill="#58FB9B"/>
</svg>
