<svg width="40" height="40" viewBox="0 0 40 40" fill="none" xmlns="http://www.w3.org/2000/svg">
<path d="M2.80908 35.7227C2.80908 23.7686 2.80908 11.895 2.80908 0C14.2446 0 25.6587 0 37.1373 0C37.1373 0.156619 37.1373 0.313239 37.1373 0.469858C37.1373 12.2297 37.1373 23.9905 37.1373 35.7504C37.1373 35.8399 37.1391 35.9294 37.1364 36.018C37.1113 36.6758 36.6533 37.1439 36.0456 37.1322C35.4559 37.1215 35.0041 36.6606 34.9952 36.0243C34.9826 35.1311 34.9916 34.2379 34.9907 33.3447C34.9907 33.1979 34.9907 33.0521 34.9907 32.8767C24.7293 32.8767 14.4983 32.8767 4.24222 32.8767C4.24222 33.3277 4.24222 33.7689 4.24222 34.2585C13.9928 34.2585 23.7478 34.2585 33.5602 34.2585C33.5602 34.91 33.5486 35.515 33.5629 36.12C33.5916 37.3515 34.4915 38.3557 35.7194 38.5436C36.872 38.7199 38.0515 38.012 38.4154 36.8772C38.531 36.5174 38.5623 36.1182 38.5623 35.737C38.5695 24.9741 38.5686 14.2112 38.5686 3.44831C38.5686 3.25858 38.5686 3.06885 38.5686 2.85853C39.0517 2.85853 39.4936 2.85853 40 2.85853C40 3.01425 40 3.17177 40 3.32839C40 14.2846 40.0009 25.2408 39.9991 36.1979C39.9991 38.4881 38.4835 39.9836 36.1836 39.9997C35.4119 40.0051 34.6618 39.9397 33.9815 39.5451C32.8074 38.8631 32.1907 37.8375 32.1307 36.4816C32.1199 36.2453 32.1289 36.0081 32.1289 35.7227C22.3505 35.7227 12.5964 35.7227 2.80908 35.7227ZM28.5501 19.9891C28.5501 19.7806 28.5501 19.6204 28.5501 19.4611C28.5501 17.2138 28.5447 14.9657 28.5563 12.7184C28.5581 12.4392 28.4909 12.2933 28.2095 12.2065C27.7264 12.0588 27.2702 11.7903 26.7799 11.7071C25.734 11.5299 25.4534 10.907 25.3952 9.92788C25.3109 8.52278 25.0663 7.12753 24.8888 5.71706C23.7442 5.71706 22.632 5.71706 21.5036 5.71706C21.2876 6.99328 21.0751 8.24982 20.8574 9.53589C20.307 9.34347 19.798 9.16447 19.2414 8.97027C19.2414 9.94131 19.2414 10.8452 19.2414 11.7787C19.1222 11.75 19.0361 11.7357 18.9555 11.708C17.6783 11.2784 17.6944 11.2766 17.5429 9.92967C17.3852 8.52815 17.1952 7.12932 17.0168 5.71706C15.8741 5.71706 14.7618 5.71706 13.6316 5.71706C13.4156 6.99239 13.2032 8.24892 12.9854 9.53768C12.436 9.34436 11.9269 9.16447 11.3604 8.96579C11.3604 12.6754 11.3604 16.3162 11.3604 20.0043C10.8684 20.0043 10.4158 20.0043 9.96673 20.0043C9.96673 20.4948 9.96673 20.9351 9.96673 21.3888C16.6431 21.3888 23.2961 21.3888 29.9483 21.3888C29.9483 20.9091 29.9483 20.4581 29.9483 19.99C29.484 19.9891 29.0529 19.9891 28.5501 19.9891ZM17.1199 24.2429C23.0927 24.2429 29.0287 24.2429 34.9531 24.2429C34.9531 23.7596 34.9531 23.3085 34.9531 22.8682C28.991 22.8682 23.0658 22.8682 17.1199 22.8682C17.1199 23.3309 17.1199 23.7721 17.1199 24.2429ZM4.95387 27.1005C10.2141 27.1005 15.4349 27.1005 20.6566 27.1005C20.6566 26.628 20.6566 26.1868 20.6566 25.7276C15.4143 25.7276 10.1944 25.7276 4.95387 25.7276C4.95387 26.1912 4.95387 26.6316 4.95387 27.1005ZM10.6793 29.9591C15.6993 29.9591 20.6817 29.9591 25.6659 29.9591C25.6659 29.4865 25.6659 29.0462 25.6659 28.5853C20.6629 28.5853 15.6805 28.5853 10.6793 28.5853C10.6793 29.0489 10.6793 29.4892 10.6793 29.9591ZM13.5438 3.5217C17.8432 3.5217 22.1094 3.5217 26.3676 3.5217C26.3676 3.04021 26.3676 2.58825 26.3676 2.14434C22.0763 2.14434 17.8208 2.14434 13.5438 2.14434C13.5438 2.60525 13.5438 3.04647 13.5438 3.5217ZM22.131 27.1023C26.4304 27.1023 30.6975 27.1023 34.9548 27.1023C34.9548 26.6208 34.9548 26.1689 34.9548 25.725C30.6635 25.725 26.408 25.725 22.131 25.725C22.131 26.1868 22.131 26.628 22.131 27.1023ZM15.6482 22.8763C12.0604 22.8763 8.50938 22.8763 4.97089 22.8763C4.97089 23.3596 4.97089 23.8106 4.97089 24.251C8.54792 24.251 12.0882 24.251 15.6482 24.251C15.6482 23.7874 15.6482 23.347 15.6482 22.8763ZM9.20669 28.5915C7.76906 28.5915 6.3646 28.5915 4.9691 28.5915C4.9691 29.073 4.9691 29.5241 4.9691 29.968C6.39776 29.968 7.79147 29.968 9.20669 29.968C9.20669 29.5062 9.20669 29.0659 9.20669 28.5915Z" fill="#F94255"/>
<path d="M0 37.1521C10.2623 37.1521 20.4808 37.1521 30.7395 37.1521C30.925 38.2073 31.3786 39.138 32.1915 39.9954C31.9934 39.9954 31.8966 39.9954 31.8007 39.9954C22.3692 39.9954 12.9377 39.9972 3.50622 39.9936C1.83915 39.9927 0.480403 38.9734 0.0475025 37.4224C0.0277845 37.3526 0.0215106 37.2783 0 37.1521Z" fill="#F94255"/>
<path d="M19.2463 18.5356C19.7518 18.5356 20.1928 18.5356 20.6696 18.5356C20.6696 16.035 20.6696 13.5559 20.6696 11.0071C20.9009 11.0885 21.0783 11.1503 21.2558 11.2138C23.0869 11.877 24.918 12.542 26.7499 13.2015C26.9695 13.2803 27.1291 13.3447 27.1264 13.6499C27.1094 15.6878 27.1174 17.7265 27.1156 19.7652C27.1156 19.8225 27.104 19.8789 27.095 19.9603C22.3385 19.9603 17.5954 19.9603 12.8281 19.9603C12.8281 16.9908 12.8281 14.0357 12.8281 11.0357C12.967 11.0769 13.0925 11.1055 13.2117 11.1494C15.0993 11.8331 16.9833 12.5249 18.8753 13.1953C19.163 13.2973 19.2562 13.4289 19.2535 13.7349C19.2374 15.3235 19.2463 16.913 19.2463 18.5356ZM16.3998 18.5212C16.8999 18.5212 17.3507 18.5212 17.7917 18.5212C17.7917 17.3309 17.7917 16.1773 17.7917 15.013C17.3167 15.013 16.8649 15.013 16.3998 15.013C16.3998 16.1943 16.3998 17.3479 16.3998 18.5212ZM25.6637 18.5364C25.6637 17.3309 25.6637 16.1773 25.6637 15.0121C25.1886 15.0121 24.7378 15.0121 24.287 15.0121C24.287 16.2051 24.287 17.3685 24.287 18.5364C24.7593 18.5364 25.2003 18.5364 25.6637 18.5364Z" fill="#F94255"/>
<path d="M16.2019 10.711C15.5548 10.4756 14.9848 10.2689 14.3628 10.0424C14.5205 9.08124 14.6783 8.12273 14.8387 7.14722C15.1452 7.14722 15.4213 7.14722 15.7511 7.14722C15.8981 8.30799 16.046 9.47503 16.2019 10.711Z" fill="#F94255"/>
<path d="M22.2295 10.0415C22.398 9.03739 22.5566 8.09141 22.7153 7.14185C23.0352 7.14185 23.314 7.14185 23.6232 7.14185C23.7711 8.31246 23.9172 9.46876 24.074 10.7056C23.4377 10.4774 22.8533 10.2662 22.2295 10.0415Z" fill="#F94255"/>
</svg>
