<svg width="46" height="40" viewBox="0 0 46 40" fill="none" xmlns="http://www.w3.org/2000/svg">
<path d="M45.9991 12.0003C45.8173 12.8456 45.6895 13.7062 45.443 14.5316C44.9076 16.3196 43.6388 18.2582 42.4726 19.1846C41.1049 17.8351 39.4627 17.3389 37.5893 17.7638C35.6915 18.1941 34.5146 19.4516 33.846 21.2459C31.3849 20.4647 29.2704 20.9906 27.755 23.0988C26.4035 24.9796 26.4998 26.9922 27.6705 28.9398C27.145 29.3061 26.5727 29.6317 26.0868 30.0566C24.4374 31.4973 23.9416 33.8806 24.8603 35.8805C24.9944 36.1737 24.9422 36.3217 24.7325 36.5264C23.7913 37.4493 22.8672 38.3901 21.934 39.322C21.0783 40.1763 19.8797 40.2277 19.0888 39.451C18.26 38.6373 18.2906 37.4186 19.1689 36.5309C20.075 35.6153 21.0009 34.7177 21.8935 33.7886C22.7538 32.8937 22.3327 31.4819 21.1404 31.2167C20.5645 31.0886 20.0831 31.288 19.6755 31.6984C18.7873 32.5906 17.9001 33.4828 17.0084 34.3713C16.1364 35.2409 14.9352 35.2851 14.1316 34.4823C13.3308 33.6812 13.3695 32.4661 14.2306 31.5965C15.1052 30.7124 15.9889 29.8374 16.8635 28.9534C17.578 28.2317 17.6203 27.3197 16.9787 26.6774C16.3416 26.0396 15.4256 26.0829 14.7084 26.7956C13.7735 27.7247 12.8476 28.6638 11.9126 29.5938C11.1262 30.376 10.0734 30.4166 9.36163 29.7003C8.66336 28.9976 8.71645 27.9214 9.4975 27.1384C12.8629 23.7654 16.2327 20.397 19.59 17.016C19.8626 16.7408 20.0291 16.7048 20.3045 17.0024C20.7814 17.5193 21.2961 18.002 21.7973 18.4972C23.4377 20.1174 26.0292 20.5125 28.1168 19.4615C30.1864 18.4196 31.3535 16.1382 31.0268 13.8099C30.8496 12.5461 30.324 11.4744 29.4035 10.5859C27.8936 9.12989 26.3999 7.65767 24.8945 6.19718C24.7784 6.08442 24.6272 6.00774 24.4608 5.89228C26.0841 4.40022 27.378 2.74488 29.1741 1.62809C35.7608 -2.46741 44.6025 1.56584 45.8335 9.23814C45.8803 9.53041 45.9442 9.81999 46 10.1114C45.9991 10.7401 45.9991 11.3698 45.9991 12.0003Z" fill="#FF9040"/>
<path d="M8.70094 23.76C7.22792 22.3644 5.85298 21.0952 4.51763 19.7844C3.6223 18.9049 2.66038 18.0551 1.93962 17.0421C-2.63781 10.6084 1.33494 1.61631 9.16525 0.644756C12.3776 0.246031 15.2328 1.14451 17.5823 3.379C20.8288 6.46505 24.016 9.61516 27.2149 12.7517C28.6223 14.131 28.1139 16.379 26.2872 16.8905C25.4063 17.1368 24.5928 16.9645 23.9206 16.3105C23.3727 15.7774 22.8436 15.2262 22.2992 14.6903C20.8936 13.3047 18.9806 13.3065 17.5859 14.7012C14.7253 17.5626 11.8692 20.4285 9.01588 23.2972C8.8917 23.4208 8.81342 23.5913 8.70094 23.76Z" fill="#FF9040"/>
<path d="M36.6253 32.6545C35.8866 32.649 35.416 32.447 35.0282 32.0591C33.493 30.5228 31.9525 28.992 30.4309 27.4431C29.6472 26.6447 29.6751 25.3989 30.4552 24.606C31.2516 23.7968 32.4789 23.7165 33.2807 24.4977C34.8788 26.0547 36.4544 27.6361 38.0093 29.2373C38.6221 29.8688 38.704 30.6626 38.335 31.4511C37.967 32.2359 37.3128 32.6391 36.6253 32.6545Z" fill="#FF9040"/>
<path d="M43.6032 25.5166C43.5762 26.3763 43.1641 27.0069 42.4037 27.3732C41.6326 27.7448 40.8542 27.6627 40.2315 27.0755C39.1859 26.0904 38.1682 25.0728 37.1883 24.0228C36.4703 23.2533 36.58 22.0165 37.3503 21.2579C38.107 20.5127 39.3155 20.4279 40.075 21.1451C41.1197 22.1311 42.1383 23.1478 43.1101 24.2059C43.4106 24.5334 43.5186 25.0367 43.7148 25.4598C43.6779 25.4788 43.641 25.4977 43.6032 25.5166Z" fill="#FF9040"/>
<path d="M31.3986 37.6675C30.7543 37.6575 30.2828 37.46 29.8941 37.0739C29.2777 36.4632 28.6568 35.8561 28.0566 35.2291C27.2801 34.419 27.2936 33.1904 28.0665 32.392C28.8656 31.5675 30.0929 31.5107 30.9253 32.2946C31.5893 32.9198 32.239 33.5638 32.8563 34.2359C33.4493 34.8809 33.56 35.6531 33.1901 36.4469C32.8248 37.2327 32.176 37.6368 31.3986 37.6675Z" fill="#FF9040"/>
</svg>
