<svg width="47" height="40" viewBox="0 0 47 40" fill="none" xmlns="http://www.w3.org/2000/svg">
<path d="M47 36.3944C46.8041 37.1845 46.5595 37.9451 46.0003 38.5737C45.3547 39.2991 44.5729 39.8705 43.6174 39.9028C41.4073 39.9766 39.1927 39.9268 37.0857 39.9268C37.1114 38.5663 37.1556 37.1771 37.1593 35.788C37.1703 32.3812 37.1593 28.9752 37.1648 25.5684C37.1666 24.3039 37.0765 23.056 36.6617 21.8496C36.6387 21.7822 36.6451 21.7047 36.6313 21.569C38.5866 21.6853 40.552 21.2865 42.4263 21.9806C44.9592 22.9175 46.4638 24.7506 46.9209 27.4338C46.9328 27.5058 46.9733 27.5741 47 27.6433C47 30.5601 47 33.4768 47 36.3944Z" fill="#75ADFF"/>
<path d="M23.8297 39.5982C20.7257 39.5982 17.6208 39.5991 14.5168 39.5972C13.3902 39.5963 12.8991 39.1034 12.8982 37.9737C12.8973 33.5081 12.889 29.0417 12.9009 24.5761C12.9101 21.2274 14.9997 18.5765 18.225 17.8197C18.7106 17.7061 19.2229 17.6646 19.7232 17.6618C22.4602 17.6471 25.1982 17.6388 27.9352 17.6591C31.2176 17.6831 33.8488 19.7885 34.5883 22.9812C34.7115 23.5128 34.752 24.074 34.7538 24.6223C34.7667 29.0878 34.7621 33.5543 34.7602 38.0198C34.7602 39.0887 34.2535 39.5963 33.1876 39.5972C30.0689 39.6 26.9493 39.5982 23.8297 39.5982Z" fill="#75ADFF"/>
<path d="M23.5145 1.41927e-05C27.9833 0.00832132 31.6547 3.67361 31.662 8.13361C31.6694 12.6462 28.0109 16.3438 23.5117 16.3697C19.0365 16.3946 15.3053 12.6213 15.3421 8.10777C15.3789 3.63115 19.0475 -0.00829293 23.5145 1.41927e-05Z" fill="#75ADFF"/>
<path d="M9.95172 39.9952C8.48205 39.9952 6.95443 40.01 5.42774 39.9887C4.63588 39.9777 3.81552 40.021 3.05953 39.8337C1.15576 39.362 0.0144202 37.779 0.0061429 35.7586C-0.00397374 33.379 0.000624737 31.0004 0.00430351 28.6209C0.0107414 24.6289 2.85628 21.69 6.8312 21.5894C8.00289 21.5599 9.1755 21.5848 10.407 21.5848C10.303 21.9531 10.1798 22.253 10.1375 22.5641C10.0207 23.428 9.85975 24.2966 9.85331 25.1642C9.82388 29.1858 9.834 33.2074 9.84503 37.2289C9.84779 38.1298 9.91309 39.0297 9.95172 39.9952Z" fill="#75ADFF"/>
<path d="M15.2668 13.7659C15.2282 17.1506 12.4691 19.9058 9.15266 19.8716C5.7783 19.8375 3.04865 17.0768 3.0744 13.7253C3.10107 10.3212 5.86291 7.5928 9.24095 7.63525C12.5988 7.67771 15.3054 10.432 15.2668 13.7659Z" fill="#75ADFF"/>
<path d="M43.929 13.7346C43.9428 17.0934 41.2085 19.8505 37.8424 19.8726C34.5177 19.8948 31.7669 17.1405 31.7366 13.7586C31.7062 10.4025 34.4469 7.64271 37.8167 7.63625C41.1809 7.62794 43.9152 10.3564 43.929 13.7346Z" fill="#75ADFF"/>
</svg>
