<svg width="41" height="41" viewBox="0 0 41 41" fill="none" xmlns="http://www.w3.org/2000/svg">
<path d="M19.6114 40.8837C18.8407 40.7805 18.0621 40.7148 17.2992 40.5677C10.9691 39.3515 6.23526 35.9063 3.1422 30.2672C1.2557 26.8283 0.543662 23.1085 0.874642 19.1995C1.12033 16.2963 1.97869 13.5769 3.42467 11.0475C3.49275 10.9286 3.64689 10.859 3.76269 10.7691C3.78147 10.755 3.81277 10.7573 3.83781 10.7519C4.16566 10.6783 4.49429 10.6048 4.85735 10.5806C4.4317 10.9216 4.00604 11.2626 3.55612 11.6231C4.13906 12.0416 4.65 12.399 5.41916 12.4076C6.89409 12.4232 8.3119 12.1229 9.74067 11.8585C10.1092 11.7905 10.3158 11.846 10.5145 12.1956C11.0341 13.1107 11.6154 13.9898 12.1514 14.8963C12.2633 15.0856 12.3322 15.3265 12.3377 15.5462C12.3588 16.3651 12.3306 17.1855 12.3564 18.0044C12.3635 18.2312 12.4417 18.4909 12.5724 18.6739C13.3658 19.7845 14.1905 20.8732 14.9902 21.9807C15.1639 22.2216 15.3439 22.3514 15.6905 22.2255C15.6905 21.8626 15.6905 21.4723 15.6905 21.0813C15.7187 21.0766 15.746 21.0711 15.7742 21.0664C16.0582 21.6569 16.3587 22.2412 16.62 22.8418C16.7358 23.1077 16.8908 23.2446 17.1756 23.3025C18.041 23.4785 18.9048 23.6662 19.7616 23.8805C19.9854 23.936 20.2193 24.0651 20.3844 24.2262C21.1145 24.941 21.7498 25.7888 22.9908 25.7873C22.7279 26.3394 22.5104 26.7915 22.2983 27.2459C22.0793 27.7152 21.6912 28.1899 21.6982 28.6576C21.7045 29.1089 22.0902 29.5743 22.3633 29.9982C23.242 31.3606 23.5166 32.9358 23.965 34.45C23.9986 34.5642 23.965 34.7073 23.9352 34.8301C23.7334 35.6764 23.5737 36.5375 23.3038 37.3618C23.0018 38.2832 23.1856 39.1889 23.2381 40.1031C23.249 40.2948 23.2678 40.4856 23.2842 40.6968C22.7694 40.7625 22.2835 40.8243 21.7983 40.886C21.0691 40.8837 20.3398 40.8837 19.6114 40.8837Z" fill="#00D157"/>
<path d="M40.7761 21.7545C40.6768 22.6039 40.6189 23.4603 40.4702 24.3011C39.7456 28.4002 37.9233 31.9432 34.9969 34.9074C32.4164 37.5212 29.3382 39.2826 25.7842 40.2133C25.7107 40.2328 25.6356 40.2461 25.4955 40.2766C25.6974 39.6275 25.6966 38.983 26.3953 38.5912C27.2889 38.0906 28.1214 37.4774 28.9618 36.8877C29.1472 36.7579 29.3045 36.5412 29.3937 36.3301C29.6402 35.7443 29.8295 35.1342 30.0737 34.5468C30.1449 34.3763 30.299 34.1996 30.4618 34.1159C31.0627 33.8077 31.6848 33.5418 32.2935 33.2493C32.4148 33.1906 32.5541 33.1038 32.6135 32.992C33.3397 31.6288 34.0525 30.2585 34.7802 28.8671C34.6722 28.7944 34.5814 28.7263 34.4852 28.6692C34.1049 28.4432 33.7356 28.1953 33.3397 28.0013C31.8999 27.2974 30.7106 26.3018 29.7364 25.0324C29.6144 24.8736 29.3624 24.7813 29.1535 24.7297C28.6128 24.5952 28.062 24.5029 27.5158 24.3903C26.5753 24.1963 25.641 23.9562 24.6911 23.8264C24.3187 23.7755 23.8969 23.9265 23.5261 24.0633C23.0754 24.2307 22.746 24.2002 22.4791 23.7638C22.1388 23.2069 21.5997 22.9433 20.9361 22.8612C20.962 22.3575 20.9862 21.8844 21.0097 21.4174C20.2288 21.2681 19.5887 21.3955 19.1725 22.2418C19.0215 21.6036 18.8994 21.0913 18.7719 20.5524C19.2585 20.3209 19.7218 20.091 20.1951 19.8837C20.2836 19.8446 20.4236 19.8704 20.5199 19.9111C20.89 20.0691 21.2413 20.281 21.6216 20.403C21.9338 20.5031 22.2765 20.5157 22.6075 20.5407C22.6716 20.5454 22.8007 20.4328 22.8062 20.3663C22.8884 19.3245 23.6442 18.6824 24.2068 17.9136C24.9869 16.8467 25.9376 16.0412 27.1723 15.5531C27.738 15.3294 28.2482 14.8891 28.8249 14.7921C29.4015 14.6951 30.0299 14.904 30.6284 14.9783C30.9586 14.3385 30.9289 14.1117 30.4641 13.6393C30.1996 13.3702 29.95 13.084 29.6676 12.8353C28.8233 12.093 28.1684 11.2194 27.7639 10.1682C27.6637 9.90937 27.5064 9.81082 27.2326 9.84054C26.6348 9.90545 26.1183 9.72244 25.5675 9.46278C25.0253 9.20702 24.3641 9.20468 23.7248 9.0858C23.5934 9.80613 23.4697 10.4787 23.3406 11.1881C22.6685 11.0614 22.0191 10.9472 21.3767 10.8057C21.2945 10.7877 21.1967 10.625 21.1881 10.5225C21.1576 10.1714 21.0418 9.74512 21.1943 9.4878C21.3086 9.2954 21.7835 9.28758 22.1036 9.25239C22.5566 9.20233 22.7655 8.99429 22.8312 8.53128C22.9134 7.95485 23.0848 7.39173 23.2295 6.77073C23.7452 6.9819 24.2498 7.17117 24.7342 7.40424C24.8156 7.44335 24.8547 7.6819 24.8289 7.81095C24.7303 8.29742 24.9118 8.56491 25.3891 8.67362C25.5636 8.71351 25.7326 8.79563 25.8922 8.88088C26.5863 9.25004 27.2255 9.18278 27.8468 8.61262C27.5174 8.23642 27.1911 7.83597 26.8351 7.46368C26.4313 7.04056 26.0276 6.60883 25.5745 6.24202C25.1465 5.89476 25.0769 5.49431 25.2193 4.94214C26.0065 5.20415 26.8406 5.12672 27.5847 5.73129C28.5706 6.53218 29.0573 7.5419 29.3593 8.69943C29.4485 9.042 29.6144 9.30244 29.8851 9.53317C30.479 10.0392 31.0369 10.5882 31.6339 11.0904C31.932 11.3414 32.2849 11.5276 32.6456 11.7645C32.932 11.3125 33.1808 10.9496 33.396 10.5679C33.5321 10.3278 33.7019 10.2222 33.9805 10.2027C34.8631 10.1409 35.7434 10.0525 36.6244 9.97428C36.6894 9.96881 36.7551 9.96724 36.8185 9.95395C37.4186 9.82881 37.4178 9.82881 37.7504 10.3622C39.5101 13.1864 40.4937 16.2602 40.7159 19.5795C40.7245 19.7069 40.7542 19.8329 40.7738 19.9596C40.7761 20.5571 40.7761 21.1562 40.7761 21.7545Z" fill="#00D157"/>
<path d="M29.198 2.82679C28.3701 3.05282 27.6307 2.72433 26.8717 2.68992C26.7176 2.68288 26.5368 2.71182 26.4069 2.78846C25.6527 3.23349 24.9602 3.75438 24.4132 4.45281C24.3303 4.55918 24.1644 4.64286 24.0275 4.65772C23.0064 4.77035 21.9837 4.89314 20.9587 4.94867C20.4861 4.97448 20.001 4.88219 19.5315 4.79147C19.2584 4.73828 19.1324 4.82431 19.0072 5.04174C18.8069 5.39135 18.5972 5.73861 18.3547 6.0585C18.253 6.19302 18.0628 6.32598 17.9024 6.33849C17.0722 6.40576 16.2373 6.49101 15.4087 6.45425C14.8766 6.43078 14.3477 6.22743 13.8282 6.06866C13.5308 5.97794 13.2796 5.98263 13.0246 6.16799C12.1748 6.78508 11.196 6.99625 10.1717 7.07994C8.68584 7.20195 7.25785 7.59536 5.84082 8.03412C5.72345 8.0701 5.60295 8.09435 5.44568 8.13345C11.221 0.988811 21.4211 -0.988381 29.198 2.82679ZM24.9766 2.52958C24.5533 2.284 24.1879 2.06344 23.8123 1.86087C23.7372 1.8202 23.6042 1.81394 23.5322 1.85383C22.515 2.41696 21.5041 2.99103 20.4243 3.6003C20.8937 3.89672 21.2255 4.24633 21.7826 4.11337C22.2435 4.00309 22.7826 4.07426 23.177 3.86075C23.8068 3.52052 24.3444 3.01058 24.9766 2.52958ZM14.3015 4.13605C14.6936 4.36678 15.0496 4.57951 15.4103 4.78521C15.4854 4.82822 15.5871 4.88141 15.6591 4.86264C16.5323 4.6413 17.4016 4.40745 18.3015 4.1689C18.1262 3.86622 17.9619 3.61594 17.832 3.34846C17.7201 3.11773 17.5894 3.045 17.3461 3.15997C16.7898 3.42276 16.2334 3.46734 15.692 3.10835C15.6724 3.09505 15.6419 3.09896 15.6395 3.09896C15.199 3.44075 14.7718 3.77158 14.3015 4.13605Z" fill="#00D157"/>
</svg>
