<svg width="35" height="41" viewBox="0 0 35 41" fill="none" xmlns="http://www.w3.org/2000/svg">
<path d="M18.3518 40.8862C18.0918 40.8862 17.8319 40.8862 17.5727 40.8862C17.351 40.8189 17.1262 40.7595 16.9076 40.6821C14.746 39.9197 12.6835 38.9502 10.767 37.685C7.90671 35.7975 5.62253 33.3775 3.99019 30.3468C2.17284 26.972 1.43279 23.3143 1.13068 19.5423C0.886334 16.4905 0.963618 13.4332 1.0573 10.3783C1.08306 9.54007 1.36721 8.77615 1.86293 8.09901C2.73101 6.91128 3.93711 6.39757 5.37507 6.30608C8.83881 6.08558 12.0145 5.05502 14.7632 2.8727C15.3424 2.41294 15.8732 1.8914 16.4579 1.43867C17.3518 0.745899 18.561 0.748245 19.4619 1.43242C19.8647 1.73815 20.2269 2.09548 20.6118 2.42545C22.3518 3.91656 24.3191 4.98074 26.5213 5.62269C28.0397 6.06525 29.5986 6.21929 31.1607 6.38036C33.1552 6.58601 34.8087 8.35939 34.8688 10.3697C34.9664 13.6717 35.0444 16.9745 34.722 20.271C34.4995 22.5402 34.117 24.7764 33.3894 26.9431C31.9398 31.2593 29.3832 34.7505 25.636 37.3488C23.3917 38.9048 20.9568 40.0722 18.3518 40.8862ZM17.9654 30.8636C23.433 30.855 27.8874 26.3958 27.9077 20.9114C27.9272 15.4568 23.4775 10.9897 17.9786 10.9452C12.5453 10.9006 7.98087 15.4701 8.01756 20.9177C8.05425 26.4192 12.5079 30.8722 17.9654 30.8636Z" fill="#58B0FE"/>
<path d="M25.5605 20.9146C25.5417 25.1213 22.0998 28.557 17.9429 28.5179C13.7289 28.4781 10.3035 25.0259 10.3604 20.8763C10.4182 16.6548 13.7859 13.2972 17.9624 13.2957C22.149 13.2941 25.5792 16.7337 25.5605 20.9146ZM16.2567 22.5332C15.7813 22.0429 15.4097 21.6465 15.0233 21.2649C14.4752 20.7238 13.7805 20.6972 13.2926 21.1867C12.8179 21.6621 12.8476 22.3854 13.3761 22.9226C13.9951 23.552 14.6212 24.1752 15.2473 24.7976C15.8921 25.438 16.5205 25.4341 17.1724 24.782C18.8984 23.0555 20.6221 21.3267 22.3465 19.5987C22.4199 19.5252 22.4941 19.4509 22.5573 19.3696C22.9281 18.8957 22.8867 18.2233 22.4628 17.8089C22.0429 17.3968 21.4058 17.3585 20.9367 17.7228C20.8141 17.8182 20.7048 17.9308 20.5948 18.0411C19.2364 19.4 17.8773 20.759 16.5229 22.1235C16.4253 22.222 16.3668 22.3619 16.2567 22.5332Z" fill="#58B0FE"/>
</svg>
