<svg width="34" height="40" viewBox="0 0 34 40" fill="none" xmlns="http://www.w3.org/2000/svg">
<path d="M16.382 1.89075C16.382 1.49035 16.3714 1.09077 16.3844 0.691201C16.3983 0.270861 16.6418 0.00420169 16.9872 4.81276e-05C17.3341 -0.00410544 17.5948 0.260892 17.6021 0.67791C17.616 1.47789 17.6151 2.27786 17.6021 3.07784C17.5956 3.50483 17.3521 3.76069 16.9994 3.76484C16.6451 3.76816 16.4007 3.51396 16.3852 3.09113C16.3706 2.69156 16.3828 2.29115 16.382 1.89075Z" fill="#9492FB"/>
<path d="M22.7714 30.7096C22.5125 30.7096 22.2487 30.7096 21.9532 30.7096C21.9532 31.2097 21.9532 31.6608 21.9532 32.1393C18.7876 32.1393 15.6547 32.1393 12.4785 32.1393C12.4785 31.6757 12.4785 31.2246 12.4785 30.7345C12.1765 30.7179 11.9143 30.703 11.666 30.6897C11.5846 30.173 11.5414 29.6762 11.4234 29.1994C11.1465 28.0829 10.5424 27.1625 9.70951 26.3932C7.77827 24.6097 6.5684 22.4199 6.07907 19.8015C4.98563 13.9549 8.68771 8.03445 14.3748 6.56492C20.5878 4.95915 26.8749 8.8419 28.237 15.2334C29.1334 19.441 27.992 23.1119 24.9713 26.1274C24.0521 27.0453 23.2567 28.0106 22.9685 29.3173C22.8716 29.7568 22.8398 30.212 22.7714 30.7096ZM18.0777 20.3896C18.0777 23.8504 18.0777 27.258 18.0777 30.6722C18.4986 30.6722 18.8805 30.6722 19.3006 30.6722C19.3006 27.2281 19.3006 23.8197 19.3006 20.3481C19.7011 20.3481 20.0675 20.3813 20.4266 20.3423C21.6014 20.2127 22.4392 19.1893 22.3448 18.0329C22.2495 16.8674 21.3116 16.0342 20.1327 16.0666C18.9847 16.0982 18.1404 17.0028 18.1208 18.2273C18.1159 18.5114 18.12 18.7955 18.12 19.0937C17.4947 19.0937 16.9313 19.0937 16.3451 19.0937C16.3239 18.6751 16.3312 18.2747 16.2791 17.8826C16.1586 16.9796 15.6302 16.4055 14.7884 16.1621C13.9367 15.9163 13.1665 16.1048 12.5828 16.8109C12.0275 17.483 11.9265 18.2622 12.266 19.063C12.6218 19.9045 13.2927 20.319 14.1818 20.3631C14.4863 20.378 14.7924 20.3656 15.1425 20.3656C15.1425 23.8479 15.1425 27.2671 15.1425 30.6822C15.5627 30.6822 15.9364 30.6822 16.3565 30.6822C16.3565 27.2372 16.3565 23.818 16.3565 20.3888C16.9403 20.3896 17.4768 20.3896 18.0777 20.3896Z" fill="#9492FB"/>
<path d="M19.9571 37.6793C19.5704 39.0541 18.6178 39.8898 17.3705 39.9613C16.0214 40.0394 15.068 39.295 14.4337 37.6702C13.0488 37.5505 12.4887 37.0754 12.5017 36.0071C15.6347 36.0071 18.7684 36.0071 21.9014 36.0071C22.026 36.969 21.3909 37.5206 19.9571 37.6793Z" fill="#9492FB"/>
<path d="M21.9377 33.4385C21.9377 33.8704 21.9377 34.2684 21.9377 34.7012C18.8031 34.7012 15.6742 34.7012 12.5078 34.7012C12.5078 34.2991 12.5078 33.8821 12.5078 33.4385C15.6392 33.4385 18.7689 33.4385 21.9377 33.4385Z" fill="#9492FB"/>
<path d="M24.1491 5.80521C23.6694 5.81103 23.3843 5.49702 23.4307 5.09828C23.4511 4.92632 23.517 4.75021 23.6001 4.59736C23.9748 3.91368 24.3601 3.23499 24.7494 2.55962C24.9677 2.18165 25.2756 2.06867 25.5916 2.22817C25.8995 2.38351 26.0583 2.74737 25.8726 3.11122C25.4425 3.95107 24.9701 4.76849 24.4912 5.58009C24.4138 5.70968 24.2134 5.76451 24.1491 5.80521Z" fill="#9492FB"/>
<path d="M10.634 5.2346C10.4841 5.40656 10.3563 5.6483 10.1585 5.75795C9.89794 5.90166 9.61053 5.79866 9.45339 5.52951C9.00397 4.75943 8.55698 3.98604 8.14256 3.19603C7.93169 2.79231 8.06521 2.39772 8.39577 2.22991C8.72226 2.06377 9.02513 2.18755 9.26043 2.59875C9.63658 3.25335 10.0111 3.90962 10.3742 4.57169C10.4711 4.74864 10.524 4.9505 10.634 5.2346Z" fill="#9492FB"/>
<path d="M5.68657 25.1174C5.61085 25.2096 5.50012 25.4289 5.32426 25.5402C4.65907 25.9622 3.97597 26.3551 3.29206 26.7464C2.93138 26.9524 2.59024 26.8643 2.41275 26.5478C2.23933 26.2388 2.34028 25.8791 2.68631 25.6698C3.35964 25.2611 4.03622 24.8573 4.72176 24.4694C5.18747 24.2069 5.69634 24.4893 5.68657 25.1174Z" fill="#9492FB"/>
<path d="M28.8056 24.2991C29.0401 24.3905 29.1858 24.427 29.3112 24.4993C29.9585 24.8714 30.6033 25.2486 31.2433 25.6332C31.6422 25.8724 31.7611 26.2338 31.5673 26.5611C31.376 26.8851 31.0422 26.9507 30.6481 26.7223C29.9667 26.3277 29.2876 25.9289 28.6143 25.5202C28.3578 25.3649 28.208 25.1032 28.3375 24.8199C28.4319 24.6123 28.6509 24.4644 28.8056 24.2991Z" fill="#9492FB"/>
<path d="M31.3904 8.65112C31.5109 8.76576 31.7747 8.90117 31.8146 9.08725C31.8602 9.29659 31.7763 9.66459 31.6233 9.76677C30.8897 10.2561 30.1203 10.6922 29.3493 11.1192C29.0578 11.2803 28.7858 11.1516 28.6165 10.8749C28.4455 10.595 28.4651 10.2718 28.7354 10.0982C29.4885 9.61392 30.2693 9.17281 31.0428 8.7209C31.1079 8.68186 31.1991 8.68767 31.3904 8.65112Z" fill="#9492FB"/>
<path d="M4.93519 11.2405C4.71455 11.1466 4.58509 11.1059 4.46948 11.0386C3.81243 10.6565 3.1562 10.2719 2.50486 9.87979C2.11649 9.64636 2.00821 9.31574 2.19384 8.98511C2.37703 8.65864 2.72632 8.57973 3.11061 8.80153C3.79289 9.19528 4.46948 9.59818 5.14444 10.0027C5.42533 10.1714 5.55478 10.4513 5.42207 10.7412C5.32681 10.9473 5.09233 11.0868 4.93519 11.2405Z" fill="#9492FB"/>
<path d="M1.83033 18.411C1.43871 18.411 1.04627 18.4185 0.654651 18.4093C0.245118 18.4002 -0.00402177 18.1543 4.91348e-05 17.7846C0.00412004 17.4341 0.246746 17.1782 0.629411 17.1724C1.44034 17.1599 2.25126 17.1591 3.06137 17.1732C3.44078 17.1799 3.67852 17.4465 3.67445 17.8012C3.67038 18.156 3.43101 18.3977 3.0459 18.4085C2.64125 18.4193 2.23579 18.411 1.83033 18.411Z" fill="#9492FB"/>
<path d="M32.1608 18.4144C31.7553 18.4152 31.3499 18.4243 30.9444 18.4119C30.5536 18.4002 30.3175 18.1643 30.3126 17.8079C30.3069 17.4532 30.5422 17.1824 30.9216 17.1758C31.7455 17.16 32.5703 17.1591 33.3943 17.1774C33.7671 17.1857 34.0008 17.4723 33.9862 17.8262C33.9723 18.1618 33.7395 18.3994 33.3772 18.4119C32.9717 18.4243 32.5662 18.4135 32.1608 18.4144Z" fill="#9492FB"/>
<path d="M15.0707 19.089C14.7042 19.089 14.3661 19.1223 14.0379 19.0807C13.5753 19.0218 13.2886 18.618 13.3146 18.1395C13.3399 17.6718 13.6942 17.3188 14.1552 17.3013C14.6252 17.2831 15.0072 17.578 15.0634 18.0565C15.1016 18.3804 15.0707 18.7136 15.0707 19.089Z" fill="#9492FB"/>
<path d="M19.3432 19.0946C19.3432 18.7474 19.3293 18.445 19.3464 18.1443C19.3741 17.645 19.7374 17.3086 20.222 17.3086C20.7034 17.3086 21.083 17.6583 21.1212 18.1343C21.1579 18.597 20.8272 19.0332 20.3548 19.088C20.0379 19.1237 19.7138 19.0946 19.3432 19.0946Z" fill="#9492FB"/>
</svg>
