<svg width="41" height="41" viewBox="0 0 41 41" fill="none" xmlns="http://www.w3.org/2000/svg">
<path d="M22.1872 0.919189C22.6669 1.03598 23.1566 1.1194 23.6244 1.27477C26.8893 2.3603 28.9274 5.63773 28.6017 9.25198C28.2898 12.7098 26.2437 15.299 23.1536 16.0811C22.5468 16.2344 21.9051 16.2897 21.2794 16.2959C18.8151 16.3199 16.3498 16.3095 13.8856 16.3001C13.6045 16.299 13.4088 16.3752 13.2161 16.6035C11.7262 18.3783 10.2234 20.1427 8.72064 21.906C8.18627 22.5327 7.39167 22.5744 6.96258 21.9582C6.79571 21.7183 6.71327 21.3617 6.70732 21.0562C6.68149 19.6005 6.6954 18.1437 6.6954 16.688C6.6954 16.5462 6.6954 16.4044 6.6954 16.2521C6.31895 16.1447 5.95542 16.0686 5.60877 15.9382C2.80581 14.884 1.15998 12.8162 0.690172 9.72331C0.679246 9.64823 0.647462 9.57733 0.62561 9.50537C0.62561 8.98503 0.62561 8.46469 0.62561 7.94435C0.649448 7.84632 0.685206 7.74935 0.696132 7.64924C1.01298 4.55012 3.05015 2.01723 5.90476 1.1924C6.29511 1.07873 6.69738 1.00887 7.09369 0.919189C12.1245 0.919189 17.1554 0.919189 22.1872 0.919189ZM13.2598 8.60859C13.2578 9.40944 13.8538 10.0487 14.6107 10.058C15.3894 10.0674 16.0121 9.43029 16.0151 8.6211C16.0181 7.81608 15.3884 7.15914 14.6226 7.16539C13.8667 7.17165 13.2618 7.81296 13.2598 8.60859ZM7.83267 10.057C8.59152 10.058 9.20138 9.43134 9.21529 8.6357C9.22919 7.83277 8.60443 7.16748 7.83764 7.16539C7.07283 7.16435 6.44212 7.83277 6.45404 8.63153C6.46496 9.42404 7.07681 10.056 7.83267 10.057ZM21.4095 10.057C22.1892 10.0674 22.807 9.43238 22.81 8.61902C22.813 7.82338 22.213 7.17791 21.4582 7.16539C20.6953 7.15288 20.0537 7.80878 20.0497 8.60755C20.0448 9.39276 20.6596 10.0476 21.4095 10.057Z" fill="#ADC1FF"/>
<path d="M40.6101 27.245C40.5982 30.8259 38.1975 33.9219 34.8502 34.6352C34.584 34.6915 34.5194 34.8041 34.5214 35.0731C34.5323 36.6081 34.5264 38.142 34.5244 39.677C34.5234 40.215 34.29 40.6029 33.8112 40.7969C33.3305 40.9919 32.9123 40.8595 32.5667 40.4663C32.4485 40.3329 32.3323 40.1973 32.2171 40.0617C30.8076 38.4017 29.3952 36.7436 27.9947 35.0763C27.8239 34.8729 27.656 34.7884 27.3958 34.7895C24.9057 34.7999 22.4156 34.7697 19.9255 34.802C15.6863 34.8573 12.1791 31.2232 12.6291 26.2388C12.9857 22.2835 15.9922 19.4378 19.7775 19.4169C24.3117 19.3919 28.846 19.393 33.3802 19.4159C37.1923 19.4347 40.1403 22.2825 40.5346 26.2753C40.5664 26.5964 40.5853 26.9207 40.6101 27.245ZM27.962 27.123C27.9709 26.3201 27.3809 25.6725 26.627 25.6569C25.8453 25.6402 25.2176 26.268 25.2077 27.0761C25.1967 27.8832 25.8175 28.5464 26.5833 28.5485C27.3372 28.5527 27.953 27.9155 27.962 27.123ZM33.3881 28.5506C34.138 28.5495 34.7568 27.9082 34.7687 27.1189C34.7817 26.3191 34.1539 25.6569 33.3841 25.6579C32.6253 25.659 32.0164 26.2888 32.0065 27.0844C31.9956 27.8874 32.6213 28.5516 33.3881 28.5506ZM19.8063 25.6569C19.0266 25.6486 18.4118 26.2857 18.4118 27.1001C18.4128 27.8968 19.0147 28.5402 19.7686 28.5495C20.5314 28.5589 21.1721 27.8978 21.1721 27.1001C21.1731 26.3159 20.5572 25.6652 19.8063 25.6569Z" fill="#ADC1FF"/>
</svg>
