<svg viewBox="0 0 846.66 846.66" xml:space="preserve" xmlns="http://www.w3.org/2000/svg" shape-rendering="geometricPrecision" text-rendering="geometricPrecision" image-rendering="optimizeQuality" fill-rule="evenodd" clip-rule="evenodd"><path d="M672.58 383.98V86.36H187.39c-75.5 0-137.36 61.86-137.36 137.37V760.3h622.55v-89.71c-71.09-10.2-124.04-71.35-124.04-143.31 0-71.96 52.96-133.11 124.04-143.3zM135.1 672.59c-27.27 0-27.27-41.47 0-41.47h293.49c27.27 0 27.27 41.47 0 41.47H135.1zm0-88.68c-27.27 0-27.27-41.47 0-41.47h293.49c27.27 0 27.27 41.47 0 41.47H135.1zm0-88.68c-27.27 0-27.27-41.47 0-41.47h293.49c27.27 0 27.27 41.47 0 41.47H135.1zm257.35-220.65c-27.27 0-27.27-41.46 0-41.46H567.7c27.27 0 27.27 41.46 0 41.46H392.45zm0 73.9c-27.27 0-27.27-41.46 0-41.46H567.7c27.27 0 27.27 41.46 0 41.46H392.45zM154.91 188.77H317.5c11.44 0 20.73 9.29 20.73 20.74v162.58c0 11.45-9.29 20.73-20.73 20.73H154.91c-11.45 0-20.73-9.28-20.73-20.73V209.51c0-11.45 9.28-20.74 20.73-20.74zm141.85 41.47H175.65v121.12h121.11V230.24zm499.87 297.04c0-57.06-46.25-103.31-103.31-103.31s-103.31 46.25-103.31 103.31 46.24 103.31 103.31 103.31c57.05 0 103.31-46.26 103.31-103.31zm-18.82 117.58 57.26 110.09c12.57 24.18-24.2 43.3-36.77 19.12L741.06 664c-8.66 3.02-17.69 5.25-27.01 6.59v110.44c0 11.45-9.28 20.74-20.73 20.74H29.3c-11.45 0-20.74-9.29-20.74-20.74v-557.3c0-98.4 80.43-178.84 178.83-178.84h505.93c11.45 0 20.73 9.29 20.73 20.74v318.35c71.09 10.2 124.05 71.34 124.05 143.3 0 46.8-22.44 90.34-60.29 117.58z" fill="#fdb21d" fill-rule="nonzero" class="fill-000000"></path></svg>