<svg width="40" height="40" viewBox="0 0 40 40" fill="none" xmlns="http://www.w3.org/2000/svg">
<path d="M21.1321 7.05974C20.3554 7.05974 19.6059 7.05974 18.8354 7.05974C18.8354 4.7058 18.8354 2.36855 18.8354 0C19.585 0 20.345 0 21.1321 0C21.1321 2.33516 21.1321 4.68076 21.1321 7.05974Z" fill="#FF1F3C"/>
<path d="M12.9565 39.9661C12.9576 34.8638 12.9555 29.7604 12.969 24.6581C12.9701 24.3639 12.8146 24.2888 12.6101 24.1928C8.58628 22.3052 5.7354 19.271 3.8842 15.2601C3.87376 15.2371 3.87168 15.21 3.85498 15.1453C5.22616 14.4608 6.60464 13.7722 8.00713 13.071C10.4051 18.1472 14.3079 21.1001 19.9867 21.1011C25.6676 21.1032 29.5672 18.1472 31.9683 13.0679C33.3614 13.7638 34.7305 14.4473 36.1758 15.1693C35.7083 16.0113 35.2888 16.8586 34.7869 17.6537C32.9482 20.5669 30.4636 22.7612 27.3341 24.2115C27.0815 24.3284 27.0106 24.4703 27.0116 24.7374C27.02 29.8136 27.0179 34.8909 27.0179 39.9671C22.3304 39.9661 17.644 39.9661 12.9565 39.9661Z" fill="#FF1F3C"/>
<path d="M39.9841 29.3409C38.4345 30.2299 36.8389 31.0031 35.0817 31.4027C33.2743 31.8138 31.4575 31.9432 29.6188 31.6729C29.5437 31.6615 29.4696 31.6354 29.3799 31.6124C29.3799 30.0463 29.3799 28.4895 29.3799 26.8805C30.7615 27.1737 32.1358 27.1977 33.5164 26.94C34.8907 26.6844 36.146 26.1387 37.3763 25.426C37.681 25.882 37.9722 26.3244 38.2706 26.7616C38.8394 27.5963 39.4122 28.429 39.9841 29.2627C39.9841 29.2898 39.9841 29.3159 39.9841 29.3409Z" fill="#FF1F3C"/>
<path d="M24.9222 13.579C24.918 16.1605 22.8028 18.2629 20.216 18.2556C17.6385 18.2483 15.5389 16.1271 15.5494 13.5384C15.5598 10.9789 17.6698 8.88159 20.2358 8.88159C22.8206 8.88264 24.9264 10.9935 24.9222 13.579Z" fill="#FF1F3C"/>
<path d="M10.5969 26.8743C10.5969 28.4895 10.5969 30.0473 10.5969 31.6469C6.76928 32.202 3.27351 31.338 0 29.319C0.869248 28.0158 1.72597 26.7313 2.59627 25.426C3.81927 26.1262 5.07044 26.6813 6.44266 26.9369C7.81593 27.1925 9.18189 27.1873 10.5969 26.8743Z" fill="#FF1F3C"/>
<path d="M32.3267 5.70844C30.7103 7.32677 29.0761 8.96285 27.4649 10.576C26.938 10.048 26.4005 9.50855 25.8882 8.99415C27.4931 7.38833 29.1346 5.74704 30.7499 4.13184C31.2498 4.63163 31.7893 5.17108 32.3267 5.70844Z" fill="#FF1F3C"/>
<path d="M14.0886 9.00689C13.5877 9.50773 13.0555 10.0399 12.5598 10.5355C10.9476 8.92237 9.3051 7.28004 7.69287 5.66692C8.16871 5.19008 8.70821 4.64959 9.22058 4.13623C10.8234 5.74205 12.4659 7.38438 14.0886 9.00689Z" fill="#FF1F3C"/>
</svg>
