<svg width="41" height="41" viewBox="0 0 41 41" fill="none" xmlns="http://www.w3.org/2000/svg">
<path d="M0.625488 28.4742C1.35036 27.7067 2.07288 26.936 2.8009 26.1718C3.4119 25.5305 4.02918 24.8965 4.70301 24.1978C5.10904 24.6312 5.48286 25.0566 5.88339 25.4537C7.72503 27.2797 10.5743 27.342 12.4874 25.6025C13.1573 24.9935 13.6104 24.2398 13.9096 23.3737C13.963 23.2176 14.1217 23.0429 14.2709 22.9887C15.8494 22.4138 16.9175 21.3333 17.4657 19.6981C17.5175 19.5429 17.684 19.3698 17.834 19.3164C19.4063 18.7576 20.4681 17.6804 20.9982 16.059C21.0712 15.835 21.1655 15.7161 21.3971 15.6385C24.8495 14.4861 25.9262 10.1029 23.4273 7.38971C23.0519 6.98212 22.6474 6.60284 22.1605 6.11438C22.499 5.80869 22.8108 5.5491 23.099 5.26444C23.5694 4.79944 24.0147 4.30936 24.4875 3.84679C25.6404 2.71865 27.2527 2.52375 28.5972 3.33649C29.9213 4.13792 30.5284 5.71246 30.1231 7.29832C30.0972 7.40022 30.0721 7.50212 30.0477 7.59997C32.0119 8.63349 32.458 10.4628 31.9279 12.1497C32.7438 12.5468 33.3902 13.142 33.7538 14.0202C34.1135 14.888 34.104 15.767 33.8205 16.6186C34.1991 16.9089 34.5996 17.1483 34.9169 17.4726C36.2693 18.853 36.2457 21.0066 34.8643 22.4526C33.3737 24.0118 31.8627 25.5499 30.3603 27.097C29.2726 28.217 28.1778 29.3298 27.0988 30.4587C25.5925 32.0341 23.7712 32.8056 21.628 32.7918C21.017 32.7878 20.3401 32.6463 19.8131 32.8687C19.3003 33.0846 18.9366 33.683 18.5133 34.1189C16.6042 36.0824 14.6973 38.0484 12.7882 40.0119C12.0829 40.7373 11.4727 40.7381 10.7714 40.016C7.5444 36.6938 4.31819 33.3725 1.09356 30.0487C0.930203 29.8805 0.780987 29.6977 0.625488 29.5214C0.625488 29.1721 0.625488 28.8235 0.625488 28.4742Z" fill="#F471C0"/>
<path d="M18.4251 12.9635C19.0926 14.2356 19.0918 15.3864 18.1321 16.3633C17.1999 17.3111 16.1051 17.3362 14.8996 16.665C15.5688 17.9896 15.5146 19.1784 14.4528 20.144C13.5127 20.9988 12.4478 20.9576 11.302 20.3001C11.6554 20.922 11.8321 21.4961 11.7559 22.1302C11.6334 23.154 11.1041 23.8794 10.1852 24.2587C9.27812 24.6331 8.39067 24.5053 7.66187 23.8333C6.89616 23.1273 6.16892 22.3704 5.47625 21.5875C4.71132 20.723 4.67598 19.4081 5.32232 18.4554C5.9828 17.4809 7.18281 17.0936 8.26423 17.506C8.39539 17.5561 8.5234 17.6136 8.65298 17.6677C8.68911 17.6273 8.72523 17.5877 8.76136 17.5473C8.47235 17.2925 8.16057 17.0604 7.89983 16.7774C7.17967 15.9962 6.98255 15.071 7.34616 14.0634C7.71135 13.0509 8.46214 12.4759 9.4988 12.4039C9.97237 12.3707 10.4577 12.5317 11.0876 12.6263C10.7891 12.3659 10.541 12.1775 10.3258 11.9559C9.35587 10.9563 9.19958 9.63005 9.91268 8.55852C10.6289 7.48133 11.8839 7.14976 13.135 7.70534C13.1789 7.72475 13.2245 7.74092 13.3604 7.79511C13.2064 7.61396 13.1153 7.50963 13.0266 7.40288C12.1478 6.34591 12.2153 4.78673 13.1813 3.83489C14.1433 2.88628 15.6512 2.84099 16.6133 3.80578C18.3497 5.54691 20.0609 7.31554 21.7573 9.09873C22.6314 10.0182 22.6824 11.4084 21.9466 12.4185C21.2052 13.4366 19.8795 13.7439 18.7588 13.156C18.6779 13.1148 18.6002 13.0654 18.4251 12.9635Z" fill="#F471C0"/>
<path d="M36.4586 24.2495C37.7575 25.5798 39.0322 26.8673 40.284 28.1766C40.7324 28.6456 40.7049 29.3193 40.2816 29.8174C40.273 29.8271 40.2644 29.8376 40.2557 29.8473C36.9109 33.2916 33.5677 36.7383 30.2174 40.1777C29.7281 40.6799 29.0465 40.6985 28.569 40.2124C26.9378 38.5522 25.3216 36.8766 23.7014 35.205C23.6684 35.171 23.6488 35.1233 23.6221 35.0804C24.2323 34.8815 24.8346 34.7206 25.4103 34.4901C26.6535 33.9935 27.7294 33.2253 28.6711 32.2548C31.1583 29.6913 33.647 27.1301 36.1358 24.5689C36.2347 24.4662 36.3384 24.3676 36.4586 24.2495Z" fill="#F471C0"/>
<path d="M23.2763 1.57607C22.3802 2.55622 21.5163 3.50078 20.6894 4.40491C19.9354 3.62937 19.2318 2.90558 18.5171 2.16966C19.1022 1.86721 19.7485 1.5316 20.3956 1.1976C20.6862 1.04799 20.9768 0.898383 21.2682 0.75039C21.7833 0.488371 22.253 0.57005 22.6708 0.965505C22.8907 1.17334 23.098 1.39573 23.2763 1.57607Z" fill="#F471C0"/>
</svg>
