<svg width="154" height="93" viewBox="0 0 154 93" fill="none" xmlns="http://www.w3.org/2000/svg">
<path d="M73.4307 92.7414C112.035 92.7414 143.33 90.28 143.33 87.2437C143.33 84.2075 112.035 81.7461 73.4307 81.7461C34.8263 81.7461 3.53125 84.2075 3.53125 87.2437C3.53125 90.28 34.8263 92.7414 73.4307 92.7414Z" fill="#185ACA" fill-opacity="0.2"/>
<path opacity="0.08" d="M116.513 12.0643C117.149 12.0643 117.768 12.0643 118.404 12.1442L123.856 4.26562C125.747 4.69047 127.605 5.27937 129.387 6.03652L129.117 15.6524C130.191 16.3086 131.211 17.0447 132.175 17.8565L141.266 14.7059C142.555 16.174 143.697 17.7556 144.691 19.4339L138.802 27.0433C139.282 28.2001 139.674 29.4031 139.977 30.6272L149.224 33.3403C149.312 34.3078 149.371 35.2668 149.371 36.2217C149.371 37.1765 149.371 38.1566 149.224 39.1241L139.977 41.8372C139.674 43.0613 139.282 44.2517 138.802 45.4211L144.691 53.0305C143.693 54.7088 142.551 56.2904 141.266 57.7585L132.175 54.6079C131.211 55.4197 130.183 56.1558 129.117 56.812L129.387 66.4152C127.596 67.1724 125.747 67.7739 123.856 68.1946L118.404 60.316C117.768 60.316 117.149 60.3917 116.513 60.3917C115.877 60.3917 115.249 60.3917 114.609 60.316L109.158 68.1946C107.266 67.7613 105.408 67.1724 103.626 66.4152L103.896 56.812C102.822 56.1558 101.802 55.4113 100.842 54.6079L91.751 57.7585C90.4746 56.2904 89.3203 54.7004 88.3261 53.0305L94.2154 45.4211C93.7351 44.2643 93.3434 43.0613 93.0611 41.8372L83.8017 39.1241C83.8017 38.165 83.6543 37.1976 83.6543 36.2217C83.6543 35.2458 83.6543 34.2951 83.8017 33.3403L93.0611 30.6272C93.3518 29.4031 93.7309 28.2127 94.2154 27.0433L88.3261 19.4339C89.3245 17.764 90.4746 16.174 91.751 14.7059L100.842 17.8565C101.807 17.0447 102.822 16.3086 103.896 15.6524L103.626 6.03652C105.417 5.29199 107.266 4.70309 109.158 4.26562L114.609 12.1442C115.245 12.0979 115.864 12.0643 116.513 12.0643ZM105.408 36.0534C105.408 42.1527 110.379 47.091 116.513 47.091C122.646 47.091 127.617 42.1527 127.617 36.0534C127.617 29.9541 122.646 25.0158 116.513 25.0158C110.379 25.0158 105.408 29.9541 105.408 36.0534Z" fill="#0063C1"/>
<path opacity="0.12" d="M18.6055 17.7313C18.9522 17.7313 19.2898 17.7313 19.6365 17.7748L22.6077 13.4805C23.6387 13.712 24.6513 14.033 25.6226 14.4457L25.4757 19.687C26.0612 20.0447 26.6169 20.4459 27.1427 20.8884L32.0978 19.1711C32.8005 19.9713 33.4227 20.8334 33.9646 21.7482L30.7546 25.8959C31.0163 26.5264 31.2299 27.1821 31.3952 27.8493L36.4353 29.3282C36.4835 29.8555 36.5157 30.3783 36.5157 30.8987C36.5157 31.4192 36.5157 31.9534 36.4353 32.4807L31.3952 33.9596C31.2299 34.6268 31.0163 35.2756 30.7546 35.913L33.9646 40.0607C33.4204 40.9755 32.7982 41.8376 32.0978 42.6377L27.1427 40.9205C26.6169 41.363 26.0566 41.7642 25.4757 42.1219L25.6226 47.3563C24.6467 47.769 23.6387 48.0969 22.6077 48.3261L19.6365 44.0318C19.2898 44.0318 18.9522 44.073 18.6055 44.073C18.2588 44.073 17.9166 44.073 17.5676 44.0318L14.5964 48.3261C13.5654 48.09 12.5528 47.769 11.5815 47.3563L11.7284 42.1219C11.1429 41.7642 10.5872 41.3584 10.0637 40.9205L5.10857 42.6377C4.41282 41.8376 3.78367 40.9709 3.24177 40.0607L6.45183 35.913C6.19006 35.2825 5.97652 34.6268 5.82268 33.9596L0.775679 32.4807C0.775679 31.958 0.695312 31.4306 0.695312 30.8987C0.695312 30.3668 0.695312 29.8486 0.775679 29.3282L5.82268 27.8493C5.98111 27.1821 6.18777 26.5333 6.45183 25.8959L3.24177 21.7482C3.78597 20.838 4.41282 19.9713 5.10857 19.1711L10.0637 20.8884C10.5895 20.4459 11.1429 20.0447 11.7284 19.687L11.5815 14.4457C12.5574 14.0399 13.5654 13.7189 14.5964 13.4805L17.5676 17.7748C17.9143 17.7496 18.2519 17.7313 18.6055 17.7313ZM12.5528 30.807C12.5528 34.1315 15.2623 36.8233 18.6055 36.8233C21.9487 36.8233 24.6582 34.1315 24.6582 30.807C24.6582 27.4825 21.9487 24.7907 18.6055 24.7907C15.2623 24.7907 12.5528 27.4825 12.5528 30.807Z" fill="#0063C1"/>
<path d="M110.483 87.3571H101.746L109.305 0.078125H118.042C122.162 0.148172 125.04 3.30031 124.747 7.414L118.443 80.0213C118.214 83.651 115.03 86.9177 111.33 87.3189C111.044 87.3508 110.763 87.3635 110.483 87.3571Z" fill="#093E8E"/>
<path d="M72.1345 87.3584H108.158C111.8 87.422 115.315 84.5119 116.016 80.8631C116.067 80.5829 116.105 80.3027 116.124 80.0225L122.435 7.41524C122.728 3.30155 119.849 0.149413 115.729 0.0793661H79.6996C76.0635 0.00931875 72.542 2.9131 71.8352 6.5683C71.7779 6.85486 71.746 7.13505 71.7269 7.42161L65.4354 80.0289C65.1361 84.1426 68.0144 87.2947 72.1409 87.3647L72.1345 87.3584Z" fill="#0063C1"/>
<path d="M79.545 1.75599H88.9059C89.5299 1.76872 89.9948 2.20811 90.0202 2.81943L90.033 3.11236C90.103 4.60882 91.2301 5.68501 92.7584 5.71048H101.642C103.106 5.73595 104.52 4.57698 104.819 3.11236L104.87 2.81943C104.991 2.22084 105.571 1.74325 106.169 1.75599H115.556C118.733 1.8133 120.956 4.24585 120.726 7.41709L114.435 80.0244C114.257 82.8199 111.805 85.3416 108.952 85.6472C108.729 85.6727 108.513 85.6791 108.296 85.6791H72.2791C69.1079 85.6218 66.8855 83.1956 67.1147 80.0244L73.4063 7.41709C73.5782 4.62156 76.0299 2.09985 78.8827 1.78782C79.1056 1.76235 79.3285 1.75599 79.5513 1.75599H79.545Z" fill="#0063C1"/>
<path opacity="0.9" d="M115.466 1.75599H106.213C105.621 1.74326 105.048 2.20812 104.933 2.80033L104.882 3.08689C104.589 4.53241 103.195 5.67864 101.749 5.6468H92.9932C91.484 5.62133 90.3696 4.56425 90.306 3.08689L90.2932 2.80033C90.2614 2.19538 89.8093 1.76236 89.1916 1.75599H79.9644C79.7479 1.75599 79.5314 1.75599 79.3085 1.78783C76.5003 2.09349 74.0804 4.58336 73.9085 7.34067L67.7061 78.91C67.4769 82.0303 69.6675 84.4246 72.7941 84.4819H108.295C108.512 84.4819 108.728 84.4819 108.945 84.4501C111.753 84.1444 114.173 81.6673 114.351 78.91L120.554 7.34067C120.783 4.21402 118.592 1.81331 115.459 1.76236L115.466 1.75599Z" fill="#EFF5FF"/>
<path d="M119.832 17.5916L114.432 80.0165C114.254 82.8184 111.789 85.3337 108.937 85.6394C108.72 85.6649 108.504 85.6712 108.287 85.6712H72.27C69.0988 85.6139 66.8763 83.1877 67.1056 80.0165L72.5056 17.5916H119.826H119.832Z" fill="#0063C1"/>
<path d="M90.9697 73.0811L90.4284 79.3662C90.352 80.5825 89.2822 81.6714 88.0468 81.8052C87.9513 81.8179 87.8621 81.8179 87.7666 81.8179H69.446C68.0706 81.7924 67.109 80.7417 67.2109 79.3662L67.7522 73.0811C67.8286 71.8712 68.892 70.7759 70.1274 70.6422C70.2229 70.6294 70.3184 70.6294 70.414 70.6294H88.7473C90.1164 70.6613 91.0716 71.712 90.976 73.0811H90.9697Z" fill="#093E8E"/>
<path d="M99.8141 81.822H93.5226C92.1471 81.7965 91.1856 80.7458 91.2811 79.3703L91.8223 73.0788C91.8988 71.8625 92.9686 70.7736 94.204 70.6399C94.2995 70.6271 94.3886 70.6271 94.4841 70.6271H100.776C102.151 70.6526 103.113 71.7033 103.017 73.0788L102.476 79.3703C102.4 80.5802 101.336 81.6755 100.101 81.8092C100.005 81.822 99.9096 81.822 99.8141 81.822Z" fill="#093E8E"/>
<path d="M111.856 81.822H105.565C104.189 81.7965 103.228 80.7458 103.323 79.3703L103.865 73.0788C103.941 71.8625 105.011 70.7736 106.246 70.6399C106.342 70.6271 106.431 70.6271 106.527 70.6271H112.818C114.194 70.6526 115.155 71.7033 115.06 73.0788L114.518 79.3703C114.442 80.5866 113.372 81.6755 112.137 81.8092C112.041 81.822 111.952 81.822 111.856 81.822Z" fill="#093E8E"/>
<path d="M76.7768 69.6441H70.4852C69.1225 69.6123 68.1737 68.568 68.2692 67.2116L68.8105 60.9201C68.8869 59.7101 69.9503 58.6149 71.1857 58.4811C71.2812 58.4684 71.3767 58.4684 71.4723 58.4684H77.7638C79.1393 58.4939 80.1008 59.5446 79.9989 60.9201L79.4258 67.2116C79.343 68.4215 78.2796 69.504 77.0442 69.6314C76.9551 69.6378 76.8659 69.6441 76.7768 69.6441Z" fill="#093E8E"/>
<path d="M88.8245 69.6441H82.5329C81.1638 69.6187 80.2023 68.5743 80.2978 67.2116L80.8391 60.9201C80.9155 59.7101 81.9789 58.6149 83.2143 58.4811C83.3098 58.4684 83.4053 58.4684 83.5009 58.4684H89.7924C91.1679 58.4939 92.1231 59.5446 92.0275 60.9201L91.4863 67.2116C91.4035 68.4215 90.34 69.504 89.1047 69.6314C89.0155 69.6441 88.92 69.6441 88.8308 69.6441H88.8245Z" fill="#093E8E"/>
<path d="M100.868 69.6455H94.5762C93.2007 69.62 92.2391 68.5693 92.341 67.2002L92.8823 60.9086C92.9587 59.6924 94.0285 58.6035 95.2639 58.4697C95.3594 58.457 95.4486 58.457 95.5441 58.457H101.836C103.211 58.4825 104.173 59.5332 104.077 60.9086L103.529 67.2129C103.447 68.4228 102.377 69.5117 101.142 69.6327C101.052 69.6391 100.963 69.6455 100.874 69.6455H100.868Z" fill="#093E8E"/>
<path d="M112.909 69.6455H106.617C105.242 69.62 104.28 68.5693 104.376 67.2002L104.917 60.9086C104.993 59.6924 106.063 58.6035 107.298 58.4697C107.394 58.457 107.483 58.457 107.579 58.457H113.87C115.246 58.4825 116.207 59.5332 116.112 60.9086L115.564 67.2129C115.481 68.4228 114.411 69.5117 113.176 69.6327C113.087 69.6391 112.998 69.6455 112.909 69.6455Z" fill="#093E8E"/>
<path d="M77.8148 57.468H71.5424C70.1669 57.4425 69.2053 56.3918 69.3008 55.0163L69.8294 48.7248C69.9058 47.5149 70.9692 46.4196 72.2046 46.2859C72.3001 46.2731 72.3957 46.2731 72.4912 46.2731H78.7827C80.1582 46.2986 81.1134 47.3493 81.0179 48.7248L80.4766 55.0163C80.4002 56.2326 79.3304 57.3215 78.095 57.4552C77.9995 57.468 77.9103 57.468 77.8148 57.468Z" fill="#093E8E"/>
<path d="M89.8772 57.468H83.5984C82.2229 57.4425 81.2614 56.3918 81.3569 55.0163L81.8982 48.7248C81.9746 47.5149 83.038 46.4196 84.2734 46.2859C84.3689 46.2731 84.4644 46.2731 84.5599 46.2731H90.8515C92.227 46.2986 93.1822 47.3493 93.0866 48.7248L92.5454 55.0163C92.4689 56.2326 91.3991 57.3215 90.1637 57.4552C90.0682 57.468 89.9663 57.468 89.8708 57.468H89.8772Z" fill="#093E8E"/>
<path d="M101.924 57.468H95.6329C94.2575 57.4425 93.2959 56.3918 93.3978 55.0163L93.9391 48.7248C94.0155 47.5149 95.0789 46.4196 96.3143 46.2859C96.4098 46.2731 96.5053 46.2731 96.6008 46.2731H102.905C104.281 46.2986 105.236 47.3493 105.14 48.7248L104.599 55.0163C104.523 56.2262 103.459 57.3215 102.224 57.4552C102.122 57.468 102.026 57.468 101.924 57.468Z" fill="#093E8E"/>
<path d="M113.964 57.468H107.673C106.297 57.4425 105.336 56.3918 105.438 55.0163L105.979 48.7248C106.056 47.5149 107.119 46.4196 108.354 46.2859C108.45 46.2731 108.545 46.2731 108.641 46.2731H114.932C116.308 46.2986 117.263 47.3493 117.168 48.7248L116.626 55.0163C116.55 56.2262 115.486 57.3215 114.251 57.4552C114.156 57.468 114.06 57.468 113.964 57.468Z" fill="#093E8E"/>
<path d="M78.877 45.3056H72.5854C71.21 45.2801 70.2484 44.2294 70.3439 42.8603L70.8916 36.5688C70.9744 35.3525 72.0378 34.2636 73.2796 34.1363C73.3751 34.1235 73.4642 34.1235 73.5534 34.1235H79.8449C81.2204 34.149 82.1819 35.1997 82.0864 36.5688L81.5451 42.8285C81.4878 44.0384 80.4371 45.1401 79.2017 45.2929C79.0935 45.3056 78.9852 45.312 78.877 45.312V45.3056Z" fill="#093E8E"/>
<path d="M90.9262 45.3056H84.6346C83.2592 45.2801 82.2976 44.2294 82.3931 42.8603L82.9408 36.5688C83.0172 35.3589 84.0806 34.27 85.316 34.1363C85.4115 34.1235 85.5071 34.1235 85.6026 34.1235H91.8941C93.2696 34.149 94.2311 35.1997 94.1356 36.5688L93.588 42.8285C93.5243 44.0384 92.4736 45.1401 91.2318 45.2929C91.1299 45.3056 91.0281 45.312 90.9262 45.312V45.3056Z" fill="#093E8E"/>
<path d="M102.966 45.3056H96.6747C95.2992 45.2801 94.3377 44.2294 94.4332 42.8603L94.9808 36.5688C95.0572 35.3589 96.1207 34.27 97.3561 34.1363C97.4516 34.1235 97.5471 34.1235 97.6426 34.1235H103.934C105.31 34.149 106.271 35.1997 106.169 36.5688L105.634 42.8285C105.571 44.0384 104.52 45.1401 103.278 45.2929C103.17 45.3056 103.068 45.312 102.966 45.312V45.3056Z" fill="#093E8E"/>
<path d="M115.017 45.3056H108.725C107.35 45.2801 106.388 44.2294 106.49 42.8603L107.038 36.5688C107.114 35.3589 108.178 34.27 109.413 34.1363C109.508 34.1235 109.604 34.1235 109.7 34.1235H115.991C117.367 34.149 118.328 35.1997 118.226 36.5688L117.685 42.8285C117.628 44.032 116.583 45.1401 115.348 45.2929C115.24 45.3056 115.131 45.312 115.023 45.312L115.017 45.3056Z" fill="#093E8E"/>
<path d="M79.9342 33.1163H73.6427C72.2672 33.0908 71.3121 32.0401 71.4076 30.6646L71.9488 24.3731C72.0253 23.1568 73.0951 22.0679 74.3305 21.9342C74.426 21.9214 74.5151 21.9214 74.6106 21.9214H80.9022C82.2777 21.9469 83.2392 22.9976 83.1437 24.3731L82.6024 30.6646C82.526 31.8745 81.4625 32.9698 80.2272 33.1035C80.1316 33.1163 80.0361 33.1163 79.9406 33.1163H79.9342Z" fill="#093E8E"/>
<path d="M91.9634 33.1163H85.6846C84.3091 33.0908 83.3475 32.0401 83.4431 30.6646L83.978 24.3731C84.0544 23.1568 85.1242 22.0679 86.3596 21.9342C86.4551 21.9214 86.5442 21.9214 86.6398 21.9214H92.9313C94.3068 21.9469 95.2683 22.9976 95.1728 24.3731L94.6315 30.6646C94.5551 31.8809 93.4853 32.9698 92.2499 33.1035C92.1544 33.1163 92.0653 33.1163 91.9697 33.1163H91.9634Z" fill="#093E8E"/>
<path d="M104.027 33.1163H97.7543C96.3788 33.0908 95.4172 32.0401 95.5128 30.6646L96.054 24.3731C96.1304 23.1568 97.2003 22.0679 98.4356 21.9342C98.5312 21.9214 98.6203 21.9214 98.7158 21.9214H105.007C106.383 21.9469 107.344 22.9976 107.249 24.3731L106.708 30.6646C106.631 31.8809 105.561 32.9698 104.326 33.1035C104.224 33.1163 104.129 33.1163 104.027 33.1163Z" fill="#093E8E"/>
<path d="M116.07 33.1163H109.778C108.403 33.0908 107.441 32.0401 107.537 30.6646L108.078 24.3731C108.154 23.1632 109.218 22.0679 110.453 21.9342C110.549 21.9214 110.644 21.9214 110.74 21.9214H117.044C118.42 21.9469 119.375 22.9976 119.279 24.3731L118.738 30.6646C118.662 31.8809 117.592 32.9698 116.356 33.1035C116.255 33.1163 116.159 33.1163 116.057 33.1163H116.07Z" fill="#093E8E"/>
<path d="M77.9225 75.964C78.0244 74.8241 78.6994 74.181 79.5208 74.181C80.3423 74.181 80.9154 74.8241 80.8199 75.964C80.718 77.1038 80.043 77.747 79.2152 77.747C78.3873 77.747 77.8206 77.1038 77.9225 75.964ZM80.1704 75.964C80.2404 75.1361 79.9539 74.7222 79.4763 74.7222C78.9987 74.7222 78.6421 75.1043 78.572 75.964C78.502 76.8236 78.7694 77.2057 79.2597 77.2057C79.7501 77.2057 80.1003 76.8045 80.1704 75.964Z" fill="white"/>
<path d="M74.076 62.3281L73.7767 65.7986H73.1335L73.3882 62.8693H72.6495L72.7005 62.3281H74.076Z" fill="white"/>
<path d="M87.1069 65.2565L87.0623 65.8041H84.5024L84.5343 65.3902L86.0244 64.0784C86.2727 63.9065 86.4447 63.639 86.4829 63.3588C86.5083 63.0404 86.3109 62.8558 85.8843 62.8558C85.585 62.8367 85.2666 62.9704 85.0437 63.2124L84.6234 62.8621C84.9928 62.4673 85.5022 62.2508 85.9925 62.289C86.744 62.289 87.1961 62.6711 87.1451 63.2824C87.1069 63.7027 86.8522 64.1166 86.4765 64.3777L85.4704 65.2629L87.1069 65.2438V65.2565Z" fill="white"/>
<path d="M99.3313 64.7551C99.2804 65.3409 98.7964 65.844 97.8667 65.844C97.3891 65.844 96.9434 65.7039 96.5995 65.4301L96.9243 64.927C97.1917 65.1499 97.5356 65.2709 97.9113 65.2645C98.3698 65.2645 98.6627 65.0608 98.6882 64.7424C98.7136 64.424 98.5035 64.2265 97.9813 64.2265H97.6629L97.7011 63.7872L98.5736 62.8511H96.9943L97.0453 62.3098H99.4078L99.3695 62.7428L98.4398 63.7426C99.0002 63.7553 99.3886 64.1883 99.3377 64.7487L99.3313 64.7551Z" fill="white"/>
<path d="M76.7899 52.6859H76.1659L76.0958 53.4691H75.4718L75.5418 52.6859H73.6378L73.676 52.2401L75.58 50.005H76.2678L74.472 52.1382H75.6055L75.6628 51.4378H76.2678L76.2105 52.1382H76.8282L76.7899 52.6859Z" fill="white"/>
<path d="M88.2266 52.4043C88.1693 53.0092 87.6853 53.5186 86.7556 53.5186C86.278 53.5186 85.8323 53.3785 85.4884 53.1047L85.8004 52.6017C86.0679 52.8245 86.4181 52.9455 86.7938 52.9455C87.2523 52.9455 87.5453 52.7418 87.5707 52.417C87.5962 52.0922 87.4051 51.8757 86.6856 51.8757H85.8577L86.1889 49.9844H88.2202L88.1757 50.5257H86.6856L86.5455 51.3281H86.8766C87.9019 51.3344 88.2776 51.7802 88.2266 52.3979V52.4043Z" fill="white"/>
<path d="M100.708 52.3918C100.645 53.0795 100.052 53.5189 99.3456 53.5189C98.3968 53.5189 97.8937 52.9076 97.9956 51.7932C98.0975 50.6024 98.8489 49.9529 99.8551 49.9529C100.18 49.9465 100.486 50.0229 100.747 50.1757L100.466 50.6661C100.282 50.5451 100.059 50.4878 99.8232 50.4941C99.1673 50.4941 98.7216 50.908 98.6579 51.6913C98.9254 51.4366 99.282 51.3029 99.6131 51.3283C100.269 51.2774 100.759 51.755 100.715 52.3981L100.708 52.3918ZM100.078 52.4236C100.103 52.0606 99.8169 51.7932 99.4475 51.8378C99.4475 51.8378 99.4475 51.8378 99.4411 51.8378C99.0272 51.8378 98.7152 52.0925 98.6834 52.43C98.677 52.8057 98.9699 53.0604 99.352 53.0095C99.7532 53.0095 100.046 52.7802 100.078 52.4173V52.4236Z" fill="white"/>
<path d="M77.6093 37.6672L77.5775 38.0812L75.9664 41.1187H75.2787L76.8325 38.1958H75.4761L75.4251 38.788H74.8202L74.9157 37.6545L77.6093 37.6736V37.6672Z" fill="white"/>
<path d="M89.5737 40.1461C89.5163 40.7892 88.9178 41.1904 88.0581 41.1904C87.1984 41.1904 86.6826 40.7765 86.7336 40.1461C86.7527 39.7958 87.0074 39.4519 87.3576 39.3182C87.0965 39.1781 86.9564 38.9043 86.9883 38.5859C87.0392 37.9937 87.5932 37.618 88.3574 37.618C89.1215 37.618 89.6246 37.9873 89.5737 38.5859C89.5609 38.8852 89.3635 39.1781 89.0706 39.3182C89.4017 39.4456 89.5928 39.7703 89.5609 40.1461H89.5737ZM88.9178 40.1461C88.9496 39.8022 88.6694 39.592 88.1854 39.592C87.7015 39.592 87.4022 39.8022 87.3767 40.1461C87.3512 40.4899 87.6187 40.7064 88.1027 40.7064C88.5866 40.7064 88.8923 40.4772 88.9178 40.127V40.1461ZM87.6187 38.6432C87.5932 38.9425 87.8225 39.1272 88.23 39.1272C88.6376 39.1272 88.905 38.9425 88.9369 38.6432C88.9687 38.3439 88.714 38.1529 88.3128 38.1529C87.9116 38.1529 87.6442 38.3121 87.6187 38.6241V38.6432Z" fill="white"/>
<path d="M101.738 39.3483C101.636 40.5391 100.885 41.1886 99.8784 41.1886C99.5537 41.195 99.248 41.1186 98.9869 40.9657L99.2671 40.4818C99.4518 40.5964 99.6747 40.6537 99.9103 40.6473C100.566 40.6473 101.012 40.2334 101.082 39.4502C100.815 39.7049 100.458 39.8386 100.12 39.8131C99.4645 39.8641 98.9806 39.3928 99.0188 38.7497C99.0761 38.0619 99.6747 37.6226 100.382 37.6226C101.33 37.6226 101.814 38.2275 101.732 39.3483H101.738ZM101.025 38.7115C101.031 38.3421 100.738 38.0811 100.356 38.132C99.9421 38.132 99.6556 38.3612 99.6237 38.7178C99.5983 39.0872 99.8848 39.3483 100.261 39.3101C100.7 39.3101 101.006 39.0553 101.037 38.6987L101.012 38.7178L101.025 38.7115Z" fill="white"/>
<path d="M97.702 76.7095C97.6765 76.8496 97.6256 76.9896 97.5492 77.1234L97.2372 77.8238H96.8232L97.0843 77.0661C96.9379 77.0088 96.8614 76.8623 96.8806 76.6967C96.8806 76.5057 97.0461 76.321 97.2435 76.2892C97.269 76.2892 97.2945 76.2892 97.3199 76.2892C97.5492 76.2701 97.7211 76.4356 97.702 76.6649C97.702 76.684 97.702 76.6967 97.6956 76.7158L97.702 76.7095Z" fill="white"/>
<path d="M108.19 75.1122H110.476L110.432 75.6089H108.133L108.197 75.1122H108.19ZM108.082 76.3094H110.368L110.324 76.8061H108.044L108.082 76.3094Z" fill="white"/>
<path d="M111.597 64.0674H110.718L110.648 64.9334H110.113L110.189 64.0674H109.311L109.349 63.5707H110.221L110.291 62.7047H110.82L110.75 63.5707H111.629L111.597 64.0674Z" fill="white"/>
<path d="M113.323 40.4649L112.756 39.8472L112.094 40.4585L111.744 40.0828L112.406 39.4715L111.839 38.8538L112.221 38.5036L112.788 39.1213L113.45 38.51L113.801 38.8793L113.132 39.497L113.699 40.1147L113.317 40.4649H113.323Z" fill="white"/>
<path d="M111.145 51.8401H112.507L112.463 52.3495H111.1L111.145 51.8401Z" fill="white"/>
<path d="M114.744 27.477L114.719 27.8017H112.063L112.089 27.477H114.744Z" fill="white"/>
<path d="M113.828 26.4459C113.815 26.6051 113.675 26.7516 113.516 26.7707C113.503 26.7707 113.49 26.7707 113.477 26.7707C113.293 26.7707 113.165 26.6242 113.178 26.4459C113.191 26.2804 113.337 26.1339 113.503 26.1212C113.516 26.1212 113.522 26.1212 113.535 26.1212C113.719 26.1212 113.847 26.2676 113.834 26.4459H113.828Z" fill="white"/>
<path d="M113.622 28.8215C113.609 28.9807 113.469 29.1272 113.304 29.1399C113.291 29.1399 113.278 29.1399 113.272 29.1399C113.087 29.1399 112.96 28.9998 112.973 28.8151C112.985 28.6559 113.125 28.5095 113.285 28.4904C113.297 28.4904 113.31 28.4904 113.323 28.4904C113.507 28.4904 113.635 28.6368 113.622 28.8151V28.8215Z" fill="white"/>
<path d="M99.7886 26.5879C99.8396 26.0148 100.203 25.6327 100.699 25.6327C101.209 25.6455 101.546 26.0721 101.451 26.5879C101.4 27.161 101.03 27.5367 100.534 27.5367C100.024 27.524 99.6931 27.0973 99.7886 26.5879ZM101.03 26.5879C101.062 26.1995 100.922 25.983 100.655 25.983C100.387 25.983 100.203 26.2058 100.177 26.5879C100.152 26.97 100.298 27.1929 100.553 27.1929C100.808 27.1929 101.011 26.9764 101.043 26.5879H101.03ZM102.762 25.6709H103.253L100.585 29.1351H100.107L102.769 25.6709H102.762ZM101.903 28.2245C101.954 27.6514 102.317 27.2693 102.813 27.2693C103.323 27.282 103.66 27.7087 103.565 28.2245C103.514 28.7912 103.145 29.1733 102.648 29.1733C102.145 29.1542 101.814 28.7339 101.909 28.2245H101.903ZM103.145 28.2245C103.176 27.8424 103.036 27.6195 102.769 27.6195C102.501 27.6195 102.317 27.836 102.291 28.2245C102.266 28.6129 102.399 28.8294 102.667 28.8294C102.934 28.8294 103.138 28.6065 103.17 28.2245H103.138H103.145Z" fill="white"/>
<path d="M75.8221 27.8163C75.854 27.154 76.4335 26.549 77.1148 26.4662C77.204 26.4535 77.2868 26.4535 77.3759 26.4662C77.8599 26.4408 78.2674 26.6764 78.4585 27.0776L77.9554 27.3578C77.8408 27.1285 77.6052 26.9884 77.3314 26.9884C76.9429 26.9693 76.5608 27.2686 76.4717 27.6571C76.4589 27.708 76.4526 27.7589 76.4526 27.8099C76.3889 28.2811 76.7137 28.6441 77.1849 28.6377C77.446 28.6505 77.7134 28.5104 77.879 28.2747L78.3311 28.5486C78.0637 28.9561 77.5924 29.2045 77.1467 29.1663C76.3443 29.1981 75.7648 28.5995 75.8285 27.8099L75.8221 27.8163Z" fill="white"/>
<path d="M88.4236 26.1166L87.0291 27.4793L88.188 28.823H91.0345L91.2701 26.1166H88.4236Z" fill="white"/>
<path d="M90.6602 26.793L89.8642 27.538L90.501 28.2385L90.2972 28.4232L89.6605 27.7291L88.8645 28.4614L88.6862 28.264L89.4821 27.5316L88.8454 26.8312L89.0491 26.6465L89.6859 27.347L90.4755 26.621L90.6602 26.7993V26.793Z" fill="#093E8E"/>
<g opacity="0.1">
<path d="M102.211 5.80313L112.329 86.3576C111.291 87.0199 110.12 87.3765 108.986 87.3637H106.999L96.7788 5.80313H102.211Z" fill="white"/>
<path d="M79.6688 1.75719H89.2208C89.8576 1.76993 90.3288 2.21568 90.3606 2.83974L90.3734 3.13903C90.437 4.62276 91.5323 5.71168 93.0352 5.7881L103.249 87.3614H83.7125L73.5684 6.6223C74.2179 3.85224 76.9115 1.70625 79.6752 1.75719H79.6688Z" fill="white"/>
</g>
<path d="M56.903 65.1263H22.4276C20.5464 65.1263 19.0572 63.5444 19.2923 61.6462L23.5421 8.9793C23.6989 7.08103 25.4233 5.49913 27.3045 5.49913H61.7799C63.6611 5.49913 65.1504 7.08103 64.9152 8.9793L60.6654 61.6462C60.5086 63.5444 58.7842 65.1263 56.903 65.1263Z" fill="#093E8E"/>
<path fill-rule="evenodd" clip-rule="evenodd" d="M24.0135 9.01697C24.0135 9.0171 24.0135 9.01685 24.0135 9.01697L19.763 61.693L19.7617 61.703C19.5634 63.3044 20.8154 64.6533 22.4288 64.6533H56.9042C58.539 64.6533 60.0596 63.2605 60.1963 61.6062L64.4468 8.93013L64.4481 8.92013C64.6464 7.31876 63.3944 5.96984 61.781 5.96984H27.3057C25.6709 5.96984 24.1504 7.36277 24.0135 9.01697ZM23.073 8.9393C23.2499 6.79712 25.1781 5.02609 27.3057 5.02609H61.781C63.9267 5.02609 65.6512 6.83526 65.3859 9.02579L61.1369 61.683L61.1368 61.6838C60.9599 63.826 59.0317 65.597 56.9042 65.597H22.4288C20.2831 65.597 18.5586 63.7879 18.8239 61.5973L23.073 8.9393Z" fill="#093E8E"/>
<path d="M55.0025 65.1263H20.5271C18.6459 65.1263 17.1566 63.5444 17.3918 61.6462L21.6416 8.9793C21.7984 7.08103 23.5228 5.49913 25.404 5.49913H59.8794C61.7606 5.49913 63.2499 7.08103 63.0147 8.9793L58.7649 61.6462C58.6081 63.5444 56.8837 65.1263 55.0025 65.1263Z" fill="#FCFDFF"/>
<path fill-rule="evenodd" clip-rule="evenodd" d="M22.1109 9.01697C22.1109 9.0171 22.1109 9.01685 22.1109 9.01697L17.8604 61.693L17.8591 61.703C17.6608 63.3044 18.9128 64.6533 20.5262 64.6533H55.0016C56.6364 64.6533 58.1571 63.2605 58.2937 61.6062L62.5442 8.93013L62.5455 8.92013C62.7438 7.31876 61.4918 5.96984 59.8784 5.96984H25.4031C23.7684 5.96984 22.2478 7.36277 22.1109 9.01697ZM21.1704 8.9393C21.3473 6.79712 23.2755 5.02609 25.4031 5.02609H59.8784C62.0241 5.02609 63.7486 6.83526 63.4833 9.02579L59.2343 61.683L59.2342 61.6838C59.0573 63.826 57.1291 65.597 55.0016 65.597H20.5262C18.3805 65.597 16.6561 63.7879 16.9213 61.5973L21.1704 8.9393Z" fill="#093E8E"/>
<path opacity="0.4" d="M28.7833 42.2915C28.7833 43.3425 27.9313 44.1945 26.8803 44.1945C25.8293 44.1945 24.9773 43.3425 24.9773 42.2915C24.9773 41.2406 25.8293 40.3885 26.8803 40.3885C27.9313 40.3885 28.7833 41.2406 28.7833 42.2915Z" fill="#709ADB"/>
<path d="M51.343 8.03522H33.583C32.6139 8.03522 31.8467 7.13128 31.9678 6.04655L32.1965 4.3149C32.2772 3.23017 33.1656 2.32623 34.1347 2.32623H51.8947C52.8638 2.32623 53.631 3.23017 53.5099 4.3149L53.2812 6.04655C53.2005 7.13128 52.3121 8.03522 51.343 8.03522Z" fill="#093E8E"/>
<path fill-rule="evenodd" clip-rule="evenodd" d="M34.1353 2.799C33.454 2.799 32.7333 3.46966 32.6677 4.35083L32.6667 4.36424L32.437 6.10423C32.3453 6.94607 32.9349 7.56424 33.5837 7.56424H51.3437C52.0251 7.56424 52.7457 6.89358 52.8113 6.01241L52.8123 5.99901L53.0421 4.259C53.1338 3.41717 52.5442 2.799 51.8954 2.799H34.1353ZM31.7277 4.26669C31.8302 2.9842 32.8831 1.85526 34.1353 1.85526H51.8954C53.1836 1.85526 54.1275 3.0428 53.9795 4.36817L53.979 4.37287L53.7514 6.09654C53.6489 7.37903 52.596 8.50799 51.3437 8.50799H33.5837C32.2954 8.50799 31.3515 7.32044 31.4995 5.99507L31.5001 5.99037L31.7277 4.26669Z" fill="#093E8E"/>
<path d="M34.7392 17.2128C34.7675 16.895 35.0327 16.6452 35.3488 16.6452C42.2908 16.6452 47.3316 16.6452 54.2774 16.6452C54.5878 16.6452 54.8192 16.895 54.791 17.2128C54.7628 17.525 54.4862 17.7805 54.1758 17.7805C47.2338 17.7805 42.1929 17.7805 35.2472 17.7805C34.9368 17.7805 34.711 17.525 34.7392 17.2128Z" fill="#093E8E"/>
<path d="M34.5361 19.4833C34.5643 19.1655 34.8352 18.9157 35.1513 18.9157C37.025 18.9157 36.9977 18.9157 38.8752 18.9157C39.1856 18.9157 39.417 19.1655 39.3888 19.4833C39.3606 19.7955 39.084 20.051 38.7736 20.051C36.8999 20.051 36.9272 20.051 35.0497 20.051C34.7336 20.051 34.5078 19.7955 34.5361 19.4833Z" fill="#093E8E"/>
<path d="M32.4704 42.7559C32.4986 42.438 32.7695 42.1883 33.0856 42.1883C40.0389 42.1883 45.0891 42.1883 52.0424 42.1883C52.3528 42.1883 52.5842 42.438 52.556 42.7559C52.5278 43.0681 52.2569 43.3235 51.9465 43.3235C44.9894 43.3235 39.9373 43.3235 32.984 43.3235C32.6679 43.3235 32.4422 43.0681 32.4704 42.7559Z" fill="#093E8E"/>
<path d="M33.8814 26.8624C33.9096 26.5446 34.1805 26.2948 34.4966 26.2948C38.6241 26.2948 40.8506 26.2948 44.9819 26.2948C45.2923 26.2948 45.5237 26.5446 45.4955 26.8624C45.4673 27.1746 45.1907 27.4301 44.886 27.4301C40.7546 27.4301 38.5263 27.4301 34.395 27.4301C34.0789 27.4301 33.8532 27.1746 33.8814 26.8624Z" fill="#093E8E"/>
<path d="M33.0743 35.9444C33.1025 35.6265 33.3734 35.3768 33.6895 35.3768C36.8839 35.3768 38.1754 35.3768 41.3698 35.3768C41.6746 35.3768 41.9116 35.6265 41.8834 35.9444C41.8552 36.2566 41.5786 36.512 41.2682 36.512C38.0738 36.512 36.7823 36.512 33.5879 36.512C33.2718 36.512 33.0461 36.2566 33.0743 35.9444Z" fill="#093E8E"/>
<path d="M33.2775 33.6739C33.3057 33.356 33.5766 33.1063 33.8927 33.1063C39.149 33.1063 42.5042 33.1063 47.7643 33.1063C48.0748 33.1063 48.3062 33.356 48.2779 33.6739C48.2497 33.9861 47.9788 34.2415 47.6684 34.2415C42.4083 34.2415 39.0512 34.2415 33.7911 34.2415C33.475 34.2415 33.2493 33.9861 33.2775 33.6739Z" fill="#093E8E"/>
<path d="M24.218 50.7026C24.2745 50.0725 24.8276 49.5674 25.4484 49.5674C33.9067 49.5674 42.3688 49.5674 50.8346 49.5674C51.4555 49.5674 51.9183 50.0725 51.8618 50.7026C51.6963 52.5947 51.5307 54.4867 51.3652 56.3788C51.3144 57.0032 50.7613 57.5141 50.1404 57.5141C41.6708 57.5141 33.205 57.5141 24.7429 57.5141C24.1221 57.5141 23.6593 57.0032 23.7157 56.3788C23.8813 54.4867 24.0487 52.5947 24.218 50.7026Z" fill="#709ADB" fill-opacity="0.13"/>
<path fill-rule="evenodd" clip-rule="evenodd" d="M32.5879 14.5053C32.808 14.7096 32.808 15.0672 32.5879 15.3056C31.4441 16.5355 30.3021 17.7653 29.1621 18.9952C29.0379 19.1257 28.8686 19.1995 28.6993 19.1938C28.5243 19.1938 28.3776 19.1087 28.2873 18.9725C27.7906 18.2156 27.2939 17.4588 26.7973 16.702C26.6336 16.4466 26.7183 16.0946 26.9835 15.9073C27.2488 15.7143 27.5931 15.7654 27.7624 16.0208C28.1311 16.5847 28.4999 17.1504 28.8686 17.718C29.8431 16.6698 30.8176 15.6216 31.7921 14.5734C32.0122 14.3463 32.3735 14.3123 32.5879 14.5053Z" fill="#093E8E"/>
<path fill-rule="evenodd" clip-rule="evenodd" d="M31.8373 23.0196C32.0518 23.224 32.0574 23.5816 31.8316 23.82C30.6916 25.0498 29.5496 26.2797 28.4058 27.5095C28.2816 27.6401 28.1123 27.7139 27.943 27.7082C27.768 27.7082 27.6157 27.623 27.531 27.4868C27.0343 26.73 26.5377 25.9732 26.041 25.2163C25.8773 24.9609 25.962 24.609 26.2273 24.4217C26.4869 24.2287 26.8368 24.2797 27.0061 24.5295C27.3748 25.0971 27.7436 25.6647 28.1123 26.2324C29.0906 25.1842 30.0651 24.136 31.0358 23.0877C31.256 22.8493 31.6172 22.8153 31.8373 23.0196Z" fill="#093E8E"/>
<path fill-rule="evenodd" clip-rule="evenodd" d="M31.1318 30.9663C31.3463 31.1707 31.3519 31.5283 31.1262 31.7667C29.9823 32.9965 28.8404 34.2264 27.7003 35.4562C27.5761 35.5868 27.4068 35.6606 27.2375 35.6549C27.0625 35.6549 26.9102 35.5698 26.8199 35.4335C26.327 34.6767 25.8322 33.9199 25.3355 33.163C25.1718 32.9076 25.2509 32.5557 25.5161 32.3684C25.7814 32.1754 26.1257 32.2265 26.295 32.4819C26.6675 33.0457 27.0381 33.6115 27.4068 34.1791C28.3813 33.1309 29.3559 32.0827 30.3304 31.0345C30.5561 30.7961 30.9117 30.762 31.1318 30.9663Z" fill="#093E8E"/>
<circle cx="13.2668" cy="13.2668" r="13.2668" transform="matrix(4.37114e-08 -1 -1 -4.37114e-08 49.5459 73.7492)" fill="white" fill-opacity="0.3"/>
<path opacity="0.2" d="M23.1606 60.7457C23.1606 53.4932 29.0259 47.614 36.2611 47.614C43.4963 47.614 49.3616 53.4932 49.3616 60.7457C49.3616 67.9981 43.4963 73.8773 36.2611 73.8773C29.0259 73.8773 23.1606 67.9981 23.1606 60.7457Z" fill="#0063C1"/>
<path opacity="0.4" d="M44.806 53.4797L29.8176 71.9361C29.992 72.0153 30.1582 72.0918 30.3325 72.16C31.4521 72.6242 32.6344 72.9192 33.8412 73.0366L46.7837 57.0951C46.3451 55.7871 45.6695 54.561 44.806 53.477L44.806 53.4797Z" fill="#FAFAFA"/>
<path opacity="0.4" d="M38.0104 49.229L23.8802 66.7079C24.7574 68.3654 26.0051 69.8099 27.536 70.9131L42.9684 51.8286C41.5355 50.6025 39.8411 49.7069 38.0104 49.229Z" fill="#FAFAFA"/>
<path d="M45.8762 50.2376C51.6786 55.4941 52.1254 64.4342 46.8814 70.2095C41.9888 75.5916 33.7809 76.3726 27.9212 72.0172C27.2157 72.9948 26.4856 73.9505 25.7446 74.8953C24.6768 76.2552 23.5817 77.5959 22.462 78.9148C21.3397 80.231 20.2091 81.5335 19.0514 82.8169C18.4766 83.464 17.8909 84.0948 17.3052 84.7311C17.0246 85.0697 16.6759 85.3509 16.2891 85.5557C16.0766 85.6677 15.8478 85.7523 15.6135 85.8124C15.3384 85.8889 15.0442 85.9189 14.7581 85.9134C13.6848 85.8725 12.8022 85.0587 12.6796 83.9965C12.6442 83.7098 12.6578 83.4204 12.7068 83.1418C12.7504 82.9015 12.8158 82.6722 12.9111 82.4483C13.0882 82.0441 13.3361 81.6782 13.6521 81.3724C14.2433 80.7443 14.8289 80.1054 15.4283 79.4855C16.616 78.2376 17.8337 77.0006 19.0568 75.7882C20.28 74.5758 21.544 73.3689 22.8162 72.2029C23.6961 71.4001 24.5978 70.5918 25.5213 69.8081C20.3617 63.9208 20.9447 54.9916 26.8261 49.8635C32.3153 45.0794 40.5559 45.2432 45.8762 50.2376ZM28.0329 53.0201C23.8459 57.5421 24.1347 64.6035 28.6786 68.7923C33.2224 72.9811 40.3053 72.719 44.4896 68.1998C48.6766 63.6833 48.3851 56.6218 43.8439 52.4276C39.3 48.2388 32.22 48.4954 28.0329 53.0201Z" fill="#005EB7"/>
<path d="M140.215 44.8047V49.1642M142.395 46.9844H138.035" stroke="#093E8E" stroke-width="1.88999" stroke-linecap="round"/>
<path d="M4.65632 57.1172V61.4767M6.83608 59.2969H2.47656" stroke="#093E8E" stroke-width="1.88999" stroke-linecap="round"/>
<path d="M141.624 21.9931C146.873 21.9931 151.129 17.7372 151.129 12.4874C151.129 7.23752 146.873 2.98167 141.624 2.98167C136.374 2.98167 132.118 7.23752 132.118 12.4874C132.118 17.7372 136.374 21.9931 141.624 21.9931Z" fill="#0063C1"/>
<path d="M152.56 7.97023C153.085 9.30489 153.373 10.7585 153.373 12.2794C153.373 18.7861 148.099 24.0608 141.592 24.0608C139.758 24.0608 138.022 23.6418 136.474 22.8942M149.904 3.93036C149.515 3.54327 149.1 3.18315 148.66 2.85306M145.901 1.31079C145.723 1.24102 145.544 1.17543 145.362 1.11414M144.554 0.873515C143.608 0.628441 142.615 0.498047 141.592 0.498047C135.085 0.498047 129.811 5.77275 129.811 12.2794C129.811 14.4396 130.392 16.4639 131.407 18.2046M131.97 19.0798C132.15 19.3343 132.34 19.5814 132.54 19.8205" stroke="#093E8E" stroke-width="0.792286" stroke-linecap="round" stroke-linejoin="round"/>
<path fill-rule="evenodd" clip-rule="evenodd" d="M141.643 6.23438C144.198 6.23358 146.502 7.77972 147.48 10.1517C148.459 12.5238 147.919 15.2545 146.112 17.0704C144.306 18.8863 141.589 19.4298 139.228 18.4473C136.867 17.4649 135.328 15.1501 135.328 12.5824C135.328 9.07724 138.155 6.23546 141.643 6.23438ZM141.468 15.5136V16.7706H143.592C143.73 16.7678 143.869 16.7481 144.003 16.7119C144.144 16.674 144.277 16.6073 144.392 16.5161C144.486 16.4335 144.559 16.3312 144.609 16.2165C144.677 16.0497 144.709 15.8701 144.702 15.6898V12.8584H146.275V11.4604H141.552V12.8584H143.132V14.9477C143.13 15.0199 143.124 15.0918 143.112 15.1631C143.1 15.2456 143.06 15.3215 142.999 15.3784C142.948 15.4361 142.88 15.4759 142.804 15.492C142.734 15.5038 142.662 15.5097 142.59 15.5096L141.468 15.5136ZM140.688 16.7707V15.5136H140.564C140.249 15.5175 139.937 15.459 139.646 15.3413C139.342 15.1993 139.1 14.9498 138.968 14.6403C138.865 14.4285 138.793 14.203 138.753 13.9707C138.722 13.8023 138.693 13.6045 138.67 13.3833C138.645 13.119 138.633 12.8537 138.635 12.5883C138.633 12.3268 138.645 12.0654 138.67 11.8051C138.693 11.5819 138.722 11.39 138.753 11.2314C138.778 11.0981 138.814 10.9671 138.861 10.8398C138.891 10.7504 138.931 10.6645 138.98 10.5833C139.137 10.2887 139.383 10.0516 139.683 9.90576C140.04 9.74047 140.431 9.66072 140.825 9.67276H144.527V8.38828H140.38C139.674 8.35927 138.974 8.53825 138.368 8.90324C138.073 9.08761 137.823 9.33499 137.635 9.62773C137.456 9.91376 137.32 10.2244 137.23 10.55C137.139 10.8863 137.079 11.2304 137.052 11.5779C137.023 11.9343 137.01 12.2828 137.01 12.6255C137.01 12.9212 137.01 13.2286 137.041 13.5477C137.06 13.8644 137.105 14.1788 137.177 14.4876C137.249 14.7934 137.359 15.0888 137.505 15.3668C137.655 15.6515 137.859 15.9037 138.107 16.1089C138.338 16.2936 138.595 16.4446 138.868 16.5572C139.24 16.7068 139.638 16.7781 140.038 16.7668L140.688 16.7707Z" fill="white"/>
<path d="M139.71 66.1108C140.044 67.6003 141.556 68.494 143.052 68.1016C144.549 67.702 145.45 66.1617 145.058 64.6939C144.68 63.248 143.183 62.4197 141.737 62.8121C140.291 63.1972 139.383 64.6649 139.703 66.1108H139.71ZM141.977 63.7058C142.943 63.4442 143.917 64.0037 144.164 64.9337C144.411 65.8928 143.815 66.9246 142.812 67.1934C141.817 67.4622 140.836 66.8664 140.618 65.9001C140.4 64.941 141.011 63.9674 141.977 63.7058Z" fill="#093E8E" stroke="#093E8E" stroke-width="0.944996"/>
</svg>
